<svg xmlns="http://www.w3.org/2000/svg" viewBox="0 0 1958.4 1256.07"><defs><style>.cls-1{fill:none;}.cls-2{fill:#a1c2d4;}.cls-3{fill:#f5eef0;}.cls-4{fill:#e8bbaf;}.cls-5,.cls-8{fill:#cb7f81;}.cls-6{fill:#f9eadc;}.cls-7{fill:#eabeb4;}.cls-14,.cls-8{opacity:0.7;}.cls-9{fill:#393837;}.cls-10{fill:#eae3e5;}.cls-11{fill:#f7e7d7;}.cls-12{fill:#38434c;}.cls-13{fill:#dcc0b2;opacity:0.5;}.cls-14{fill:#c7837c;}</style></defs><title>アセット 4</title><g id="レイヤー_2" data-name="レイヤー 2"><g id="レイヤー_3" data-name="レイヤー 3"><path class="cls-1" d="M1100.61,205.31l-3.55,2.57c-1.12.81-2.27,1.59-3.42,2.36l-3.78,8.54,9.3-2c.48-3.05.91-6.11,1.22-9.18Z"/><path class="cls-1" d="M602.4,155.65q-.78-4.41-1.23-8.87l-1.23-12c-.23-2.35-.4-4.7-.48-7.06l-.69-19.27L595,123.4c-.23.91-.49,1.81-.77,2.7a150.39,150.39,0,0,1-7.86,19.58L585.8,147c-1.13,2.31-2.32,4.6-3.56,6.85l-8.29,15h5.5a190.22,190.22,0,0,1,25.91,1.79c-.7-2.84-1.33-5.69-1.84-8.57Z"/><path class="cls-1" d="M1177.66,150.38l-5,10.81q-1.7,3.69-3.6,7.26l-.11.2a135.93,135.93,0,0,1-9.12,14.67l-2.18,3.05q-3,4.17-5.54,8.58l-4.74,8.15c-1.18,2-2.28,4.1-3.34,6.19l14.6-1.18,11.85-.75,2.55-24.76Z"/><path class="cls-1" d="M772.65,197.9a138.14,138.14,0,0,1-10.95-10.83l-8.59-9.5-.56-.67,3.52,14.93L760.45,207l13.52-.48c2.78-.1,5.57-.14,8.35-.14l-2.85-2.47Z"/><path class="cls-1" d="M689.27,184.83q-3.35-5.49-6.21-11.24a149.63,149.63,0,0,1-7.7-18.34l-4.62-13.45L675,186.94v.1l12.25,4.86q4.77,1.89,9.67,3.48c-.34-.41-.69-.81-1-1.23A77.37,77.37,0,0,1,689.27,184.83Z"/><path class="cls-1" d="M1465.61,178.24v-.4a101.33,101.33,0,0,0-1.35-19.68l-2.7,6.13c-.78,1.77-1.65,3.5-2.56,5.21l2.92,3.68C1463.23,174.82,1464.45,176.51,1465.61,178.24Z"/><path class="cls-1" d="M646,158.63l-6.72-23.36q-1.38-4.8-2.38-9.7L631.63,100q-.69-3.33-1.56-6.62L627,81.69V99l.4,21.18L629,144.58l.31,3.42-1-2.6L631,175.27,653.16,180l-4.4-12.6C647.74,164.5,646.81,161.57,646,158.63Z"/><path class="cls-1" d="M1368.11,439.2l0,.56,12.37,7.17a51.87,51.87,0,0,0,6.83,3.32q9.13,3.64,18.48,6.71l-6.51-9.17-9.11-12.15q-3.67-4.9-6.89-10.15l-3.54-5.78a91,91,0,0,0-7.51-10.49l-4.17-5-.32.23A246.31,246.31,0,0,1,1368.11,439.2Z"/><polygon class="cls-1" points="1074.82 222 1078.38 221.24 1078.28 219.85 1074.82 222"/><path class="cls-1" d="M1412.55,105.21l-2.61-8q-2.28-7-4-14.21l-1.68-6.85q-1.44-5.92-2.37-12l-1.93-12.71-.65,5q-1,7.6-2.7,15.1l-3.17,13.69-5.7,30.14-3.46,24.81a136.89,136.89,0,0,1-4.26,19.72c.37-.8.74-1.6,1.08-2.42l5.77-13.5a34,34,0,0,1,1.52-3.16l4.52-8.4a10.22,10.22,0,0,1,.85-1.32l2.87-3.84a16.4,16.4,0,0,1,3.68-3.57l1.85-1.31a27.29,27.29,0,0,1,6.42-3.36l2.83-1a14,14,0,0,1,5.63-.8c.15,0,.29,0,.44.06-1.57-3.54-3-7.11-4.4-10.74Z"/><path class="cls-2" d="M449.28,346.16A115.07,115.07,0,0,1,463.9,346l10.46.52a74,74,0,0,0,6.88,7.39l8.14,7.61q3.45,3.22,7.17,6.13l10.58,8.27,13.44,10.19a67.08,67.08,0,0,0,5.55,3.79l9.88,6,12.74,7.8,7.24,9q4.46,5.55,8.45,11.44l6.93,10.23,4.85,7.21a123.28,123.28,0,0,0,14.27,17.54q4,4.11,8.37,7.87l11,9.5,7.39,6.27q9.76,8.28,20.16,15.8l5.13,3.71q6.06,4.38,12.35,8.43l12.69,8.17L685.5,529.8l5.66,3.09a111.2,111.2,0,0,0,11.9,5.6,71.52,71.52,0,0,0,8.75,2.86l12.5,3.19q5.4,1.38,10.86,2.45l26.52,5.17,33,6.25,28.81,5.08c3,.52,5.93,1,8.91,1.38,1.41.19,2.83.4,4.25.57l25.89,3.11L890,572.36c2,.29,4,.54,6.06.79q8.8,1,17.64,1.6l67.6,4.21q9.1.57,18.23.63l20.68.16,5,0a333.7,333.7,0,0,0,40-2.11l9.56-1.08Q1089,575,1103,572.17l8.42-1.69,58.83-11.82q15.18-3,30-7.44l19.58-5.79L1244,538.3l21.45-6.62A232.61,232.61,0,0,0,1299,518.39l1.45-.71,3.6-2a94.43,94.43,0,0,0,11.25-7.45l.29.44a11.77,11.77,0,0,0,5.88,4.59,5.64,5.64,0,0,0,4.1-.11l10.75-4.51,10.48-4,10.54-4q5-1.89,10.07-3.29l5.89-1.6c.61-.17,1.23-.31,1.84-.46a78.56,78.56,0,0,1,12.67-2.06,51.51,51.51,0,0,1,6.69-.07l13.78.77q5.13.28,10.25.88l24.51,2.87-3.88-2.67a78,78,0,0,1-10.78-9l-4.23-4.23a42.83,42.83,0,0,1-4.58-5.41l-8.6-12-5.22-7.36q-9.33-3.07-18.48-6.71a51.87,51.87,0,0,1-6.83-3.32l-12.37-7.17,0-.56a246.31,246.31,0,0,0-.4-34.79,18,18,0,0,1-5.73,2.83,17.28,17.28,0,0,1-8.83.19l-3.63-.87c-.74-.18-1.47-.38-2.19-.61l-2.94-.93a14.07,14.07,0,0,1-5.25-3l-4-3.63a18.39,18.39,0,0,1-2.51-2.78l-2.77-3.76a15.63,15.63,0,0,1-2-3.68l-1.72-4.58a12.34,12.34,0,0,1-.77-4.66l.17-5.92c0-.61,0-1.23,0-1.84l-15.15-1.05c-1.81-.12-3.62-.32-5.42-.59L1294.51,368a65.72,65.72,0,0,1-7-1.43l-6.88-1.79a50.31,50.31,0,0,1-7.55-2.62,59.68,59.68,0,0,1-11.66-6.75l-11.22-8.32-10.46-8.18a64.34,64.34,0,0,1-7-6.39l-6.31-6.66q-1.53-1.62-3-3.31l-2.89-3.41a66.62,66.62,0,0,1-10-15.93l-2-4.48a73.8,73.8,0,0,1-3.58-9.74l-1.08-3.72a97.81,97.81,0,0,1-3.69-21.27l-.15-2.5a97,97,0,0,1,.18-14.06l.29-3.35a84.79,84.79,0,0,1,2.71-15.17l-19.31,1.24q-7.28.47-14.51,1.42v-4l0-.42v-1l.82-15.89.3-2.93-11.85.75-14.6,1.18c-.67,1.31-1.33,2.62-2,4l-10,21.46-35.32-3.35-.23,0,2-11.1c.21-1.14.38-2.29.56-3.43l-9.3,2-4.8,10.85-6.11-.4-.57-8-3.56.76-10.18,6.31L1051.25,227l-47.41-5.31-40.55-3.64-49.66-5-35.27-3.24q-9.37-.85-18.79-1.09l-44.8-1.13-23.91-1q-4.26-.18-8.54-.2c-2.78,0-5.57,0-8.35.14l-13.52.48-29.52,1-23,1.52c-.19-.31-.4-.6-.6-.9h-.18a70.07,70.07,0,0,0-4.42-6.27l-2.23-2.82c-.68-.84-1.35-1.68-2.07-2.49l-.06-.07c-.47-.53-.92-1.08-1.38-1.63q-4.89-1.59-9.67-3.48L675,187l2,22.3-5.24-.16-8.37-.76-.19-.55-.53,0-6.52-19.14-3-8.72L631,175.27l.75,5.93a93.88,93.88,0,0,0,6.7,24.74l-.83-.1a30.07,30.07,0,0,0-8.26.09l-4.5.67a43.79,43.79,0,0,1-5.84.47l-5.78-13.39c-1.19-2.77-2.29-5.58-3.28-8.43l-1.27-3.64c-1.27-3.63-2.35-7.32-3.28-11.05a190.22,190.22,0,0,0-25.91-1.79H574q-2.48,4.46-5.27,8.71l-9.11,13.82-.12,0-5.32-1.33-7.9-4.08L556,167.59a175.52,175.52,0,0,0-20.76.84,54.37,54.37,0,0,0-16.37,4.32l-4.48,2-3.46,2.16q-4.17,2.61-8.57,4.85L499.94,183a64.85,64.85,0,0,1-9.64,4A66,66,0,0,0,478,192.42l-1.75,1q-3.53,2-6.89,4.28l-4.41,3a21.71,21.71,0,0,0-3.75,3.21l-4.45,4.77a16.6,16.6,0,0,0-2.24,3l-.91,1.61a42.76,42.76,0,0,0-2.37,4.8l-.29.71-1.67,2.94a35,35,0,0,0-4.48,14.8l0,.34q-.48,6.63-.37,13.28l.12,7.08a41.29,41.29,0,0,0,.44,5.45,86.66,86.66,0,0,0,2.78,12.44l1.6,5.31,4,13.29-.22,15.37L437.51,321.2l-10.75,7.39a17.62,17.62,0,0,0-4.08,3.91,34,34,0,0,0-4.94,9.31L415.26,349l7.41-.77Z"/><path class="cls-3" d="M981.33,579l-67.6-4.21q-8.84-.56-17.64-1.6l10.5,12.71a229.25,229.25,0,0,0,18,19.38,225.65,225.65,0,0,1,19,20.67l1.81,2.23h10.68q11.52,0,23,1.07l14.84,1.4,11.51-23,14.77-27.83-20.68-.16Q990.44,579.53,981.33,579Z"/><path class="cls-3" d="M1255,1191.12l1.32-17.92a213.31,213.31,0,0,0,8.49-50.14l0-.36q.42-8.67.12-17.35l-1.38-39.88-.94-27.86q-.73-21.81-3.6-43.46l-.22-1.71q-1.93-14.6-5.08-29l-3.55-16.3-5.28-21.49q-2.54-10.32-4.29-20.81a102.48,102.48,0,0,1-1.3-12.6h0a38.16,38.16,0,0,1,1.94-13.75l.2-.41a16.54,16.54,0,0,1,9.86-8.39c1.48-.46,3-.87,4.48-1.21l2.53-.57q7.49-1.71,14.8-4a74.49,74.49,0,0,0,9.67-3.83,68.29,68.29,0,0,0,15-9.76,127.16,127.16,0,0,0,9.3-8.83q6.18-6.51,11.76-13.55l2.68-3.4c1.57-2,3.07-4,4.53-6l2.76-3.9a51.32,51.32,0,0,0,7-13.9h0a127.4,127.4,0,0,0,4.71-20l.28-1.85a54.19,54.19,0,0,0,.41-12.79,25.91,25.91,0,0,0-4.06-11.82l-9.89-15.25-10.61-16.19L1306,708.23,1295.38,692l-.5-.72c-1.79-2.61-3.54-5.26-5.25-7.92l-.58,0-4.87-8.22c-1.16-2-2.27-3.94-3.31-6l-3.63-7c-1.17-2.2-2.33-4.41-3.44-6.65l-1.31-2.6-8.93-20.1-12.84-25.67L1239.34,583q-6.48-13.75-13.76-27.11l-5.71-10.46-19.58,5.79q-14.83,4.39-30,7.44l-58.83,11.82a201.07,201.07,0,0,1-21.28,36.92h0a165.42,165.42,0,0,1-10.48,13l-11,12.35c-2.64,3-5.39,5.81-8.25,8.55l-16.26,15.62-.19,2.29q-.63,7.57-1.94,15l-.74,4.25a66,66,0,0,1-4,13.92l-12.84,31.08-10.45,24.6a161,161,0,0,0-6.11,16.92l-1.17,3.9a24.77,24.77,0,0,1-3.55,7.24l-10,13.94-9.86,37.82-8.8,30.78q-2.72,9.49-4.55,19.23l-1.12,5.88a135,135,0,0,0-2.26,29.89l.28,7.95.57,25.8q.26,11.19,1.29,22.36l1.22,13.12q1,11.07,2.86,22l1.27,7.63q1.83,11,4.54,21.8l3.47,13.87q2,8.2,3.59,16.52l5,27,4.9,27.41a214.11,214.11,0,0,1,3.33,37.57h0a490.87,490.87,0,0,0,2.81,52.42l1.53,14.15q1.41,13.15,3.69,26.19l1.14,6.48h238.69q1.18-12.61,3.34-25.12Q1253.52,1211.17,1255,1191.12Z"/><path class="cls-3" d="M916.2,1210.67l5.41-55.51,4.93-71.53,2.47-78.11,1.52-99.31q.12-8.38-.33-16.78l-.19-3.54a252.67,252.67,0,0,0-4.69-36.65l-4.65-22.89a153.1,153.1,0,0,0-6.43-22.65,251.43,251.43,0,0,1-11.32-41.3l-.11-.58q-1.75-9.52-4.22-18.9l-1.77-6.75a193.51,193.51,0,0,1-5.49-30.69l-1-9.92-4.56-36.47a5.07,5.07,0,0,1,2.08-4.75l3.3-2.36-4.85-3.08a24.44,24.44,0,0,1-7-6.77l-8.66-12.59q-6.61-9.62-12.66-19.61l-9.85-16.28q-3-5-5.75-10.1l-10-18.68c-3-.41-5.95-.86-8.91-1.38l-28.81-5.08-33-6.25L735.17,547q-5.46-1.07-10.86-2.45l-12.5-3.19a71.52,71.52,0,0,1-8.75-2.86,111.2,111.2,0,0,1-11.9-5.6l-5.66-3.09-17.94-10.92-12.69-8.17q-6.29-4.05-12.35-8.43l-5.13-3.71q-10.38-7.5-20.16-15.8l-7.39-6.27-11-9.5q-4.35-3.76-8.37-7.87a123.28,123.28,0,0,1-14.27-17.54l-4.85-7.21-6.93-10.23q-4-5.89-8.45-11.44l-7.24-9L536,395.9l-9.88-6a67.08,67.08,0,0,1-5.55-3.79l-13.44-10.19-10.58-8.27q-3.72-2.91-7.17-6.13l-8.14-7.61a74,74,0,0,1-6.88-7.39L463.9,346a115.07,115.07,0,0,0-14.62.21l-26.61,2-7.41.77-3.41.35q-8.1.84-16.08,2.44l-4.5.9a127.9,127.9,0,0,0-20.22,5.8L361.82,362q-5,1.91-9.95,4.11l-8.13,3.63A203.29,203.29,0,0,0,321,381.64h0A78.38,78.38,0,0,0,313.3,387l-1,.81a134.77,134.77,0,0,0-24,24.34h0A42.47,42.47,0,0,0,285,428.44v11.08l.23,10.6q.27,12.54,1.55,25l1.13-.72.06.2A64.9,64.9,0,0,0,302.14,501l4.55.46a22.49,22.49,0,0,1,8.17,2.45h0a88.54,88.54,0,0,1,10.48,6.46l4.1,2.95a79.5,79.5,0,0,0,10.69,6.46,182.54,182.54,0,0,1,23.26,13.87l4.7,3.29,18.72,14.12q7.08,5.34,14.47,10.27l14.35,9.56,4.13,2.8a207.82,207.82,0,0,1,23.87,18.79q9.57,8.75,19.89,16.61l10.14,7.74q6.25,4.77,12.24,9.89l15.93,13.61a236.42,236.42,0,0,1,17.78,16.9l16.45,17.34,9.94,8.08a96.29,96.29,0,0,1,8.61,7.92h0A80.09,80.09,0,0,1,567,707.31l4,7.15,4,7.29a82.42,82.42,0,0,1,5.46,12.12L585,746.6l3.17,4.53,2.3,3.13a31.07,31.07,0,0,1,5.42,12.13A159.61,159.61,0,0,0,605,795.66l4.89,11.61L624.8,848l14.94,43.92L652,925l12,30.49q3.85,9.79,7.12,19.82l11.22,34.35,12.85,38.18q3.45,10.26,6.22,20.74l9.45,35.71,12.68,43,5.76,21.94q3.75,14.28,6.23,28.83l3.86,22.57,4.52,27.89c.41,2.51.75,5,1.07,7.55H909.21l3.77-21.7Q915,1222.58,916.2,1210.67Z"/><path class="cls-4" d="M439.25,9.92,446.67,0h-2.09c-.28.54-.55,1.08-.84,1.62Z"/><path class="cls-4" d="M440.15,70c-1.17,2.37-2.4,4.71-3.71,7l-6.28,11-4.06,6.64q-2.19,3.6-4.65,7l-10.62,14.77L427.09,105c2.05-1.44,4-3,6-4.53l.69-.56a127.79,127.79,0,0,0,17.77-17.5q1.92-2.31,3.66-4.77l6.88-9.77a98.12,98.12,0,0,0,6.53-10.64l7.59-14.37,8.56-17.56q2.25-4.6,4-9.41L494.75,0h-22.1c-1.25,3.23-2.62,6.43-4.1,9.57l-4.85,10.3L454,41.19,446.08,58Z"/><path class="cls-4" d="M553.94,145.44l2.88,6.61,1.06-32.62c.11-3.23.32-6.46.65-9.68L561.3,82.4l2.51-28.71q.35-3.87.46-7.76l.39-12.86A123.21,123.21,0,0,1,566.92,13L569,2.17l.5-2.17H555.6a100,100,0,0,0-2.81,9.73L548,29.92a99.53,99.53,0,0,0-2.39,15.55L544.19,65.3l-.5,5.6a158,158,0,0,0-.2,25.46l.51,7.09a131.26,131.26,0,0,0,2.23,16.41,143.9,143.9,0,0,0,5.51,20h0C552.41,141.74,553.15,143.6,553.94,145.44Z"/><path class="cls-4" d="M1401.85,64.16q.93,6,2.37,12L1405.9,83q1.75,7.19,4,14.21l2.61,8,.49,1.32c1.35,3.63,2.83,7.2,4.4,10.74a16,16,0,0,1,5.7,1.61,10.52,10.52,0,0,1,3.15,2.43l-1.52-10.8-3.26-28.92-4.08-35.84-3.25-35.44L1413.52,0h-4.61l-9,51.45Z"/><path class="cls-4" d="M1399.92,51.45l-3.35,20.11q1.73-7.49,2.7-15.1Z"/><path class="cls-4" d="M683.06,173.59q2.87,5.74,6.21,11.24a77.37,77.37,0,0,0,6.66,9.32,77,77,0,0,1-5.77-8.24q-3.33-5.49-6.21-11.24a149.58,149.58,0,0,1-7.69-18.34l-5.72-16.64.2,2.11,4.62,13.45A149.63,149.63,0,0,0,683.06,173.59Z"/><path class="cls-4" d="M701.24,200.49c-.25-.31-.52-.61-.78-.92l2.23,2.82a70.07,70.07,0,0,1,4.42,6.27h.18c-1.16-1.79-2.38-3.53-3.7-5.2Z"/><path class="cls-4" d="M649.65,168.47c-1-2.89-1.94-5.82-2.79-8.76l-6.71-23.36q-1.38-4.8-2.39-9.7l-5.23-25.58q-.69-3.33-1.56-6.62l-4-15v2.28l3.11,11.68q.87,3.28,1.56,6.62l5.24,25.58q1,4.89,2.38,9.7L646,158.63c.84,2.94,1.77,5.87,2.79,8.76l4.4,12.6,3,8.72,6.52,19.14.53,0-6.15-18.08Z"/><path class="cls-4" d="M1100.36,209l.38-3.82-.13.09-.23,2.31c-.31,3.07-.74,6.13-1.22,9.18-.18,1.14-.35,2.29-.56,3.43l-2,11.1.23,0,1.76-9.7Q1099.72,215.38,1100.36,209Z"/><path class="cls-4" d="M554.13,189.94l5.32,1.33.12,0,9.11-13.82q2.8-4.24,5.27-8.71l8.29-15c1.24-2.25,2.43-4.54,3.56-6.85l.61-1.27a150.39,150.39,0,0,0,7.86-19.58c.28-.89.54-1.79.77-2.7l3.73-14.93.69,19.27c.08,2.36.25,4.71.48,7.06l1.23,12q.45,4.46,1.23,8.87l1.12,6.34c.51,2.88,1.14,5.73,1.84,8.57.93,3.73,2,7.42,3.28,11.05l1.27,3.64c1,2.85,2.09,5.66,3.28,8.43L619,207.07a43.79,43.79,0,0,0,5.84-.47l4.5-.67a30.07,30.07,0,0,1,8.26-.09l.83.1a93.88,93.88,0,0,1-6.7-24.74l-.75-5.93-2.68-29.87-.2-.48L615.19,98.65,606,59.44,597.06,6.31c0-.27,0-.53,0-.8,0-1.84-.17-3.68-.33-5.51h-.8c.11,1.47.19,3,.24,4.42a115.53,115.53,0,0,1-.24,11.77l-.8,11.23-1.83,16.65A141.31,141.31,0,0,1,590,62.68L585.74,80l-5.2,20.46c-.88,3.46-1.89,6.9-3,10.29l-5.63,16.9L567,142q-1.21,3.57-2.64,7.08L562,154.75a121,121,0,0,1-5.34,11.43l-.75,1.41-9.72,18.27Z"/><polygon class="cls-4" points="1173.04 184.02 1177.92 149.81 1177.66 150.38 1173.06 182.6 1170.51 207.36 1170.21 210.29 1169.39 226.18 1169.39 227.18 1170.18 211.71 1173.04 184.02"/><path class="cls-4" d="M1284,4.22l-1.67,2.72a27.31,27.31,0,0,0-2,4l-1.92,4.82a21.91,21.91,0,0,1-1.14,2.4l-2.61,4.7-3.68,5.92a22.2,22.2,0,0,1-5.5,6L1257,41.1l-.53.46,9.69-26.11.6-2.26a63.22,63.22,0,0,1-2.28,6.06l-6,16.12-3.65,10.51-9.32,27.48,2.06,17.28-5.71,23.26a163.4,163.4,0,0,1-5.26,17.26l-5.32,14.55-14.61,36.52,16.86-21.35,14.61-18,15.7-19.64a137.27,137.27,0,0,0,8.44-11.74l7.32-11.39a140.29,140.29,0,0,0,7.23-12.61l14.69-28.91,15.17-30.9L1329.17,0h-41.59l-1.89,2A13,13,0,0,0,1284,4.22Z"/><path class="cls-4" d="M1470.72,10l-1.06,48.46-9.22-17.27a95.52,95.52,0,0,1-5.24-11.57l-6-16.13L1450.53,0h-17.15l2.79,29.05L1439,64.89l1.22,31,.41,32.18-.38,16.88a65.26,65.26,0,0,1,8.36,10.3l.82,1.25q3.65,5.58,7.78,10.8l1.78,2.25c.91-1.71,1.78-3.44,2.56-5.21l2.7-6.13a101.33,101.33,0,0,1,1.35,19.68v.4q.65,1,1.26,1.95a50.56,50.56,0,0,0,6.33-14.05,55.44,55.44,0,0,0,1.33-6.27l1.18-7.74q1.18-7.81,1.6-15.71l.46-8.89q.35-6.84.16-13.69l-.62-22.07-1.63-28.92,8.55,22.81,8.28,19.11a105.67,105.67,0,0,0,5.2,10.37l5.75,10q4,6.94,8.62,13.47l6.36,8.95.51.72a186.74,186.74,0,0,0,24.7,28.63l2,1.92-3.49-4.56a124.76,124.76,0,0,1-8.14-12l-1.41-2.34a149.33,149.33,0,0,1-7.51-14.21l-3.05-6.63a155.69,155.69,0,0,1-6.23-15.75l-6.59-19.78-10-31.95-7.82-24.56q-1.8-5.67-3.17-11.48L1480.06.53,1480,0h-9.42Q1470.83,5,1470.72,10Z"/><path class="cls-4" d="M1241.28,17.7l-8.67,27.12-1.44,17.76-1.26,15.55-2.19,19.17a97.3,97.3,0,0,1-5.89,23.94l-.63,1.61,5.55-8.06a111.12,111.12,0,0,0,11-20.18l.47-1.12,7.36-20.13,4.93-34.65q.68-4.74,1.66-9.42l1.55-7.35a114,114,0,0,1,4.46-15.58L1260.5,0h-12.82L1245,7.18Q1243,12.4,1241.28,17.7Z"/><path class="cls-4" d="M1329.55,37.56,1316.19,71l16.29-27-11.8,31.47L1315.23,90c-.86,2.29-1.79,4.56-2.79,6.79l-8,18-17,33.32a71.54,71.54,0,0,1,8.53-.52h10.43q4.44,0,8.86.36l11.43.93a42.56,42.56,0,0,1,13.44,3.36l6.55,2.84q5.54,2.4,10.86,5.22l3.8,2q6.87,3.66,13.38,7.92l3.82-7.24q.79-1.53,1.53-3.09a136.89,136.89,0,0,0,4.26-19.72l3.46-24.81L1386,86.84a250.36,250.36,0,0,1,.86-40.52l2.59-25.93,2-18.3c.08-.7.17-1.4.27-2.09h-7.45q-2.85,9.65-6.45,19l-3.21,8.32q-3.3,8.59-7.42,16.83l-7.29,14.59,4-21.67q1.66-8.93,2.49-18l1.25-13.77.27-5.35h-6a132.58,132.58,0,0,1-7.48,13.64l-3.93,6.23L1355.1,0h-13.53l-7.79,25.54Q1331.92,31.65,1329.55,37.56Z"/><path class="cls-5" d="M1091.33,211.73,1079,219.4l-.73.45.1,1.38.57,8,6.11.4,4.8-10.85,3.78-8.54C1092.87,210.74,1092.11,211.25,1091.33,211.73Z"/><path class="cls-5" d="M1301.58,58.61l-14.69,28.91a140.29,140.29,0,0,1-7.23,12.61l-7.32,11.39a137.27,137.27,0,0,1-8.44,11.74l-15.7,19.64-14.61,18-16.86,21.35,14.61-36.52,5.32-14.55a163.4,163.4,0,0,0,5.26-17.26l5.71-23.26-2.06-17.28-7.36,20.13-.47,1.12a111.12,111.12,0,0,1-11,20.18l-5.55,8.06.63-1.61a97.3,97.3,0,0,0,5.89-23.94l2.19-19.17,1.26-15.55-.85.67-16.94,10.27-15,9.21-13.23,8.63-3.09,8.91a89.44,89.44,0,0,1-5,11.75l-2.83,5.52-7.48,13-4,7.82a44.6,44.6,0,0,1-4.84,7.47l-3,3.7-7.19,9.5-7.48,8.92-7.94,9.26c-1.61,1.88-3.31,3.68-5.08,5.41l-5.63,5.47q-2.07,2-4.26,3.88l-6.4,5.47q-3.21,2.73-6.61,5.2l-3.64,2.63-.38,3.82q-.64,6.33-1.78,12.61l-1.76,9.7,35.32,3.35,10-21.46c.62-1.33,1.28-2.64,2-4,1.06-2.09,2.16-4.16,3.34-6.19l4.74-8.15q2.56-4.41,5.54-8.58l2.18-3.05a135.93,135.93,0,0,0,9.12-14.67l.11-.2q1.9-3.57,3.6-7.26l5-10.81.26-.58L1173,184l-2.86,27.69-.79,15.47,0,.42v4q7.23-1,14.51-1.42l19.31-1.24q.91-3.39,2.11-6.68v0a141.72,141.72,0,0,1,8.46-18.87l.48-.91A168.19,168.19,0,0,1,1231.9,176a54.32,54.32,0,0,1,7.81-7.8l2.27-1.84a96.37,96.37,0,0,1,29.24-16.28l16.13-1.95,17-33.32,8-18c1-2.23,1.93-4.5,2.79-6.79l5.45-14.54L1332.48,44l-16.29,27,13.36-33.41q2.37-5.91,4.23-12L1341.57,0h-12.4l-12.42,27.71Z"/><path class="cls-5" d="M597.06,6.31,606,59.44l9.22,39.21,12.88,46.27.2.48,1,2.6-.31-3.42-1.63-24.44L627,99V79.41l4,15q.87,3.28,1.56,6.62l5.23,25.58q1,4.89,2.39,9.7l6.71,23.36c.85,2.94,1.78,5.87,2.79,8.76l7.45,21.32,6.15,18.08.19.55,8.37.76,5.24.16L675,187v-.1l-4.28-45.14-.2-2.11,5.72,16.64A149.58,149.58,0,0,0,684,174.67q2.88,5.75,6.21,11.24a77,77,0,0,0,5.77,8.24c.33.42.68.82,1,1.23s.91,1.1,1.38,1.63l.06.07c.72.81,1.39,1.65,2.07,2.49.26.31.53.61.78.92l2.35,3c1.32,1.67,2.54,3.41,3.7,5.2.2.3.41.59.6.9l23-1.52,29.52-1-4.38-15.18-3.52-14.93-14.08-16.61-12.88-16.11-4.84-6.2a92.32,92.32,0,0,1-8.09-12.25l-.7-1.27a137.47,137.47,0,0,1-6.54-13.63l-8.82-21.4L689.28,70.1l-6.15-16.4-4.1-12-2.9,2.9a5.75,5.75,0,0,0-1.57,2.85l-.42,1.9a5.28,5.28,0,0,1-1.72,2.86,3.59,3.59,0,0,1-1.64.79l-2.15.4a6.84,6.84,0,0,1-3.18-.16h0a19.11,19.11,0,0,1-6.23-3.16L655,46.89a82.61,82.61,0,0,1-7.83-6.77l-4.75-4.64a123.92,123.92,0,0,1-8.91-9.71L622.81,12.71l-6.47-7.49A65.61,65.61,0,0,1,612.29,0H596.71c.16,1.83.28,3.67.33,5.51C597.05,5.78,597.05,6,597.06,6.31Z"/><path class="cls-6" d="M666.77,12.61l-2.64,2.26A44.41,44.41,0,0,1,652.3,8.53l-3.61-2.7-1.29-.4-4.94,30.05,4.75,4.64A82.61,82.61,0,0,0,655,46.89l4.18,3.19a19.11,19.11,0,0,0,6.23,3.16h0a6.84,6.84,0,0,0,3.18.16l2.15-.4a3.59,3.59,0,0,0,1.64-.79,5.28,5.28,0,0,0,1.72-2.86l.42-1.9a5.75,5.75,0,0,1,1.57-2.85l2.9-2.9,4.1,12,6.15,16.4,7.32,19.33,8.82,21.4A137.47,137.47,0,0,0,712,124.46l.7,1.27A92.32,92.32,0,0,0,720.75,138l4.84,6.2,12.88,16.11,14.08,16.61.56.67,8.59,9.5a138.14,138.14,0,0,0,10.95,10.83l6.82,6,2.85,2.47q4.27,0,8.54.2l23.91,1,44.8,1.13q9.4.22,18.79,1.09l35.27,3.24,49.66,5,40.55,3.64,47.41,5.31,13.39,1.27,10.18-6.31,3.46-2.14.73-.45,12.32-7.67c.78-.48,1.54-1,2.31-1.49,1.15-.77,2.3-1.55,3.42-2.36l3.55-2.57.13-.09,3.64-2.63q3.4-2.47,6.61-5.2l6.4-5.47q2.19-1.87,4.26-3.88l5.63-5.47c1.77-1.73,3.47-3.53,5.08-5.41l7.94-9.26,7.48-8.92,7.19-9.5,3-3.7a44.6,44.6,0,0,0,4.84-7.47l4-7.82,7.48-13,2.83-5.52a89.44,89.44,0,0,0,5-11.75l3.09-8.91,13.23-8.63,15-9.21,16.94-10.27.85-.67,1.44-17.76L1235,7.3l.61-7.3H959l2.64,2.35a30.31,30.31,0,0,1,5.8,7l.95,1.58c.41.69.79,1.39,1.13,2.11l4.57,9.58-1.71-1.57a42.71,42.71,0,0,1-7.23-8.64,63.47,63.47,0,0,1-4.93-9.51L959,0H945.73l.13,2.25a19.5,19.5,0,0,1-.19,4.11l-1.12,7.45-2,12.54-1.84,10a11.88,11.88,0,0,1-3.29,6.26L937,43l.85-12.72c0-.48.08-1,.14-1.43l1.17-9.35c.12-.94.26-1.87.44-2.79l0-.2A78.38,78.38,0,0,1,944.82,0h-281l1.08,3.94ZM959,51a25.7,25.7,0,0,1,4.71-3.39l5.33-3L962,50.06l-.33.24-7.54,5.13ZM926.07,154.38a43.25,43.25,0,0,1,5.46,0l5.34.32c1.35.08,2.69.22,4,.43l5.6.87a42.21,42.21,0,0,1,6.08,1.41l7.11,2.23,9.64,3.31-6.49-.82c-1.2-.16-2.39-.34-3.58-.56l-7.47-1.37c-1-.17-1.93-.31-2.89-.41l-12.71-1.36-12-1.65-9.94-1.66Z"/><path class="cls-6" d="M1267.35,11.46c-.17.58-.38,1.15-.57,1.73l-.6,2.26-9.69,26.11.53-.46,8.41-6.3a22.2,22.2,0,0,0,5.5-6l3.68-5.92,2.61-4.7a21.91,21.91,0,0,0,1.14-2.4l1.92-4.82a27.31,27.31,0,0,1,2-4L1284,4.22A13,13,0,0,1,1285.69,2l1.89-2h-17l-.5,2.07Z"/><path class="cls-6" d="M622.81,12.71l10.74,13.06a123.92,123.92,0,0,0,8.91,9.71L634,1.39l-1.9-.57c-.87-.26-1.73-.54-2.59-.82H612.29a65.61,65.61,0,0,0,4.05,5.22Z"/><path class="cls-7" d="M634,1.39,633.68,0h-4.14c.86.28,1.72.56,2.59.82Z"/><path class="cls-7" d="M648.69,5.83l3.61,2.7a44.41,44.41,0,0,0,11.83,6.34l2.64-2.26-1.88-8.67L663.81,0H648.29l-.89,5.43Z"/><path class="cls-4" d="M1232.61,44.82l8.67-27.12q1.7-5.31,3.67-10.52L1247.68,0h-12.06L1235,7.3Z"/><path class="cls-8" d="M1232.61,44.82l8.67-27.12q1.7-5.31,3.67-10.52L1247.68,0h-12.06L1235,7.3Z"/><path class="cls-6" d="M1267.35,11.46l2.76-9.39.5-2.07h-.32l-3.51,13.19C1267,12.61,1267.18,12,1267.35,11.46Z"/><path class="cls-8" d="M1267.35,11.46l2.76-9.39.5-2.07h-.32l-3.51,13.19C1267,12.61,1267.18,12,1267.35,11.46Z"/><path class="cls-4" d="M1253.71,21.94l-1.55,7.35q-1,4.68-1.66,9.42l-4.93,34.65,9.32-27.48,3.65-10.51,6-16.12a63.22,63.22,0,0,0,2.28-6.06L1270.29,0h-9.79l-2.33,6.36A114,114,0,0,0,1253.71,21.94Z"/><path class="cls-8" d="M1253.71,21.94l-1.55,7.35q-1,4.68-1.66,9.42l-4.93,34.65,9.32-27.48,3.65-10.51,6-16.12a63.22,63.22,0,0,0,2.28-6.06L1270.29,0h-9.79l-2.33,6.36A114,114,0,0,0,1253.71,21.94Z"/><path class="cls-4" d="M1366.41,19.12q-.83,9-2.49,18l-4,21.67,7.29-14.59q4.11-8.22,7.42-16.83L1377.8,19q3.6-9.38,6.45-19h-16.32l-.27,5.35Z"/><path class="cls-8" d="M1366.41,19.12q-.83,9-2.49,18l-4,21.67,7.29-14.59q4.11-8.22,7.42-16.83L1377.8,19q3.6-9.38,6.45-19h-16.32l-.27,5.35Z"/><path class="cls-4" d="M1354.47,13.64A132.58,132.58,0,0,0,1362,0h-6.85l-4.56,19.87Z"/><path class="cls-8" d="M1354.47,13.64A132.58,132.58,0,0,0,1362,0h-6.85l-4.56,19.87Z"/><path class="cls-4" d="M1389.44,20.39l-2.59,25.93a250.36,250.36,0,0,0-.86,40.52l1.71,28.55,5.7-30.14,3.17-13.69,3.35-20.11,9-51.45H1391.7c-.1.69-.19,1.39-.27,2.09Z"/><path class="cls-8" d="M1389.44,20.39l-2.59,25.93a250.36,250.36,0,0,0-.86,40.52l1.71,28.55,5.7-30.14,3.17-13.69,3.35-20.11,9-51.45H1391.7c-.1.69-.19,1.39-.27,2.09Z"/><path class="cls-4" d="M1455.2,29.64a95.52,95.52,0,0,0,5.24,11.57l9.22,17.27L1470.72,10q.1-5-.18-10h-20l-1.38,13.51Z"/><path class="cls-8" d="M1455.2,29.64a95.52,95.52,0,0,0,5.24,11.57l9.22,17.27L1470.72,10q.1-5-.18-10h-20l-1.38,13.51Z"/><polygon class="cls-5" points="642.46 35.48 647.39 5.43 648.29 0 633.68 0 634.02 1.39 642.46 35.48"/><path class="cls-9" d="M1732.46,416.87l17.06,20.79-.53,6.93-12,13.06a25.53,25.53,0,0,1,1.14,7.52v7.89l-.62,1.4,14.07,8.94q7.21,4.58,14.13,9.63l31.41,23,13.1,9.63a11.57,11.57,0,0,1,4.48,7,10.13,10.13,0,0,1-.56,5.81l-3,7.43c-2.44,5.93-5.15,11.76-8.13,17.44l-1.12,2.14a199.1,199.1,0,0,1-11.5,19.27,149.31,149.31,0,0,1-13.19,16.78,14.88,14.88,0,0,1-6.33,4.13,26.32,26.32,0,0,1-10.53,1.26l-.5,0a72.55,72.55,0,0,1-14.85-7.61l-.38-.25-10.73-6.78a175.81,175.81,0,0,0-16.37-9.15l-10.89-5.33q-5.73-2.81-11.26-6l-12.63-7.29-4,5a18.69,18.69,0,0,1-7.26,5.52,32.82,32.82,0,0,1-9.06-5.15l-5.14-4.11-18.53-14.2-54.35-38.29-13.62-8.9-9.91,38.39-26.58-9c-2.18-.74-4.39-1.41-6.62-2l-27-7.12-15.82-4.75A103.2,103.2,0,0,1,1464,511q-8.23-4.6-16-10l-4.94-3.41-24.51-2.87q-5.11-.6-10.25-.88l-13.78-.77a51.51,51.51,0,0,0-6.69.07,78.56,78.56,0,0,0-12.67,2.06l3.19,2q7.71,4.83,15,10.32l10.71,8.08,16.6,13.64q3.93,3.24,8.06,6.25l17.52,12.76,15.47,11.9q3.61,2.77,7.37,5.35l7.73,5.29a5.64,5.64,0,0,1,2.45,4.65,2,2,0,0,1-1.36,1.86l-4.65,1.47a13.12,13.12,0,0,1-2,.45l-9.56,1.39a85.51,85.51,0,0,0-18.69,4.91l-13.68,5.29-23.48,9.9-17.61,8.08-26.78,12.84-14.54,6.05q-3.06,1.29-6,2.83l-17.23,9a59.72,59.72,0,0,0-17.24,13.63l12.16.57c2.41.11,4.82.32,7.21.62l16.32,2c2.38.29,4.74.68,7.08,1.15l32.8,6.63,35.39,7.35c2.33.48,4.65,1,6.94,1.67l31,8.59,25.4,6.79q6.15,1.65,12.42,2.84l4.41.84a25.94,25.94,0,0,1,8.82,3.45h0a4,4,0,0,1,1.88,3.22l.21,4.46a12.44,12.44,0,0,1-.1,2.28l-3.88,27.48-7.7,49.89-6.7,37.61q-1,5.68-2.32,11.29l-11.16,47.58-10.27,42.19-8.83,32.39q-2.17,8-5,15.74l-13,36.25-11.37,36.31-4.13,13.5a180.93,180.93,0,0,1-9.76,25.11l-5.92,12.39-15,32.65-24.22,46.22L1341,1225.59q-2.28,4.32-4.31,8.78l-9.86,21.7h543.24q.6-14.77,2.15-29.53l.45-4.21,1.35-10.93-.8.88-2.92,3c-.51.53-1,1-1.57,1.54l-2.85,2.66a6.21,6.21,0,0,1-5.07,1.58l-2-2a16.74,16.74,0,0,1-2.37-3l-.34-.55a33.31,33.31,0,0,1-3.17-6.79,54.86,54.86,0,0,1-2.64-13.12l-.32-4.08-.29-8.47a68.24,68.24,0,0,1,.13-7.15l.73-10.26a69.56,69.56,0,0,1,.9-7.19l1-5.65a48.47,48.47,0,0,1,1.1-4.77l1.54-5.37a57.27,57.27,0,0,1,2.76-7.62l1.18-2.65a62.94,62.94,0,0,1,5.11-9.28,5.8,5.8,0,0,1,3.3-2.38,19.08,19.08,0,0,1,5-.68,7.83,7.83,0,0,1,5.55,2.31,13.94,13.94,0,0,1,3.33,5.3l2,5.65c.21.58.38,1.17.54,1.76l0,.17q2.25-12.61,5.44-25l8-31.13a336.71,336.71,0,0,0,6.81-33.58l.26-1.72L1925,971l17.75-63.54L1955,855.16a85.7,85.7,0,0,0,2.15-15.29l1.22-24.37a7.71,7.71,0,0,0-4.54-7.42L1940,801.83l-27.1-11.22-27.1-10.27L1882,720.53l-.8-29.63a54.8,54.8,0,0,1,.62-9.83l1.12-7.26.45-.45a29.66,29.66,0,0,0,8-14.5l1.8-15.64a75.91,75.91,0,0,0,0-17.31l-1.35-11.73a41.89,41.89,0,0,0-1.63-7.67l-.63-2a109,109,0,0,0-7.3-17.72L1874.56,572l-7.94-13.54a216.35,216.35,0,0,0-17.77-25.84,92.3,92.3,0,0,1-9-13.63l-3.78-7a23.54,23.54,0,0,1-2-17.27,21.38,21.38,0,0,1,4.78-8.81l2.68-3a21.58,21.58,0,0,0,3.67-5.66,9.53,9.53,0,0,0-1.27-9.81,23.49,23.49,0,0,0-9.59-7.12l-13-5.18-7.15-11.71a24.72,24.72,0,0,0-8.24-8.22l-2.08-1.27q-14.29-8.7-27.86-18.51L1765.62,408a86.34,86.34,0,0,0-10.9-6.7l-17.52-9-15.79-8.93a24.86,24.86,0,0,0-3-1.43h0a48.93,48.93,0,0,0-16.84-3.47l10.62,13.43Zm140.37,620,1.22-8.86a105.16,105.16,0,0,1,2.27-11.52l2.58-10c.72-2.78,1.56-5.54,2.52-8.25l4.4-12.39a6.73,6.73,0,0,1,4.7-4.27,7.33,7.33,0,0,1,7.13,2.12,21.15,21.15,0,0,1,5.64,13.72l.11,3.33a126.21,126.21,0,0,1-.63,17.17l-1.65,15.43a62.79,62.79,0,0,1-2.47,12,64.31,64.31,0,0,1-12.6,22.8,9.58,9.58,0,0,1-7.28,3.36,4.63,4.63,0,0,1-4.56-3.86l-.9-5.4a35,35,0,0,1-.45-4.57l-.44-13A46.49,46.49,0,0,1,1872.83,1036.9Z"/><path class="cls-9" d="M1325.58,513.12a5.64,5.64,0,0,1-4.1.11,11.77,11.77,0,0,1-5.88-4.59l-.29-.44a94.43,94.43,0,0,1-11.25,7.45l-3.6,2-1.45.71a232.61,232.61,0,0,1-33.58,13.29L1244,538.3l-24.11,7.13,5.71,10.46q7.28,13.35,13.76,27.11l11.38,24.2,12.84,25.67,8.93,20.1,1.31,2.6,3.08-3.38a154.12,154.12,0,0,1,18.28-17l5.87-4.63,17.28-12.6q2.55-1.86,5.22-3.53l23.17-14.48q3.9-2.45,8-4.61L1377,583.39q3-1.6,6-3l17.18-8.06,18.59-9.92-16.45-16.1c-2.53-2.48-5.13-4.9-7.79-7.23l-2.74-2.41a195.42,195.42,0,0,0-21.55-16.43l-6.83-4.51-16.6-11.07-10.48,4Z"/><path class="cls-9" d="M1305.5,1242.36l15.36-35.1,19-41.31,15.7-31,21.07-40.49,11.39-24.59a190.51,190.51,0,0,0,7.59-19l5.81-17.16,10.69-29.49q2.94-8.1,5.34-16.39l9.58-33,14-51.64,7.59-28.16q2.32-8.61,4-17.35l8.2-41.66,6.61-45.44,1.61-17.14q.45-4.76.65-9.53l.92-22.35a4.7,4.7,0,0,0-2.59-4.39l-3.32-1.66q-2.24-1.11-4.52-2.1l-5.48-2.34a81.67,81.67,0,0,0-7.74-2.88l-11.76-3.71-21.48-6.2L1400,693.78a127.1,127.1,0,0,0-15.6-4l-15.78-3q-8.52-1.63-17.14-2.49l-14-1.37a113.2,113.2,0,0,0-13.53-.54l-14.7.28-19.66.81c1.71,2.66,3.46,5.31,5.25,7.92l.5.72,10.6,16.19,10.61,14.51,10.61,16.19,9.89,15.25a25.91,25.91,0,0,1,4.06,11.82,54.19,54.19,0,0,1-.41,12.79l-.28,1.85a127.4,127.4,0,0,1-4.71,20h0a51.32,51.32,0,0,1-7,13.9l-2.76,3.9c-1.46,2-3,4.07-4.53,6l-2.68,3.4q-5.58,7-11.76,13.55a127.16,127.16,0,0,1-9.3,8.83,68.29,68.29,0,0,1-15,9.76,74.49,74.49,0,0,1-9.67,3.83q-7.3,2.32-14.8,4l-2.53.57c-1.51.34-3,.75-4.48,1.21a16.54,16.54,0,0,0-9.86,8.39l-.2.41a38.16,38.16,0,0,0-1.94,13.75h0a102.48,102.48,0,0,0,1.3,12.6q1.76,10.49,4.29,20.81l5.28,21.49,3.55,16.3q3.15,14.4,5.08,29l.22,1.71q2.87,21.63,3.6,43.46l.94,27.86,1.38,39.88q.3,8.67-.12,17.35l0,.36a213.31,213.31,0,0,1-8.49,50.14l-1.32,17.92q-1.47,20-4.89,39.83-2.14,12.49-3.34,25.12h52l2.44-4.73Q1303.5,1246.93,1305.5,1242.36Z"/><path class="cls-10" d="M1341,1225.59l28.16-53.27,24.22-46.22,15-32.65,5.92-12.39a180.93,180.93,0,0,0,9.76-25.11l4.13-13.5,11.37-36.31,13-36.25q2.79-7.77,5-15.74l8.83-32.39,10.27-42.19L1487.83,832q1.32-5.61,2.32-11.29l6.7-37.61,7.7-49.89,3.88-27.48a12.44,12.44,0,0,0,.1-2.28l-.21-4.46a4,4,0,0,0-1.88-3.22h0a25.94,25.94,0,0,0-8.82-3.45l-4.41-.84q-6.27-1.2-12.42-2.84l-25.4-6.79-31-8.59c-2.29-.63-4.61-1.19-6.94-1.67L1382,664.23l-32.8-6.63c-2.34-.47-4.7-.86-7.08-1.15l-16.32-2c-2.39-.3-4.8-.51-7.21-.62l-12.16-.57a59.72,59.72,0,0,1,17.24-13.63l17.23-9q3-1.54,6-2.83l14.54-6.05,26.78-12.84,17.61-8.08,23.48-9.9,13.68-5.29a85.51,85.51,0,0,1,18.69-4.91l9.56-1.39a13.12,13.12,0,0,0,2-.45l4.65-1.47a2,2,0,0,0,1.36-1.86,5.64,5.64,0,0,0-2.45-4.65l-7.73-5.29q-3.76-2.56-7.37-5.35l-15.47-11.9-17.52-12.76q-4.12-3-8.06-6.25L1404,515.65l-10.71-8.08q-7.27-5.49-15-10.32l-3.19-2c-.61.15-1.23.29-1.84.46l-5.89,1.6q-5.12,1.4-10.07,3.29l-10.54,4,16.6,11.07,6.83,4.51a195.42,195.42,0,0,1,21.55,16.43l2.74,2.41c2.66,2.33,5.26,4.75,7.79,7.23l16.45,16.1-18.59,9.92L1383,580.35q-3.06,1.44-6,3l-22.29,11.93q-4.07,2.17-8,4.61l-23.17,14.48q-2.67,1.67-5.22,3.53L1301,630.54l-5.87,4.63a154.12,154.12,0,0,0-18.28,17l-3.08,3.38c1.11,2.24,2.27,4.45,3.44,6.65l3.63,7c1,2,2.15,4,3.31,6l4.87,8.22.58,0,19.66-.81,14.7-.28a113.2,113.2,0,0,1,13.53.54l14,1.37q8.61.85,17.14,2.49l15.78,3a127.1,127.1,0,0,1,15.6,4l13.81,4.51,21.48,6.2,11.76,3.71a81.67,81.67,0,0,1,7.74,2.88l5.48,2.34q2.28,1,4.52,2.1l3.32,1.66a4.7,4.7,0,0,1,2.59,4.39l-.92,22.35q-.19,4.77-.65,9.53l-1.61,17.14L1460.91,816l-8.2,41.66q-1.73,8.74-4,17.35l-7.59,28.16-14,51.64-9.58,33q-2.4,8.28-5.34,16.39l-10.69,29.49-5.81,17.16a190.51,190.51,0,0,1-7.59,19l-11.39,24.59L1355.56,1135l-15.7,31-19,41.31-15.36,35.1q-2,4.56-4.28,9l-2.44,4.73h28.07l9.86-21.7Q1338.74,1229.92,1341,1225.59Z"/><path class="cls-10" d="M1883.38,1133.4l-2-5.65a13.94,13.94,0,0,0-3.33-5.3,7.83,7.83,0,0,0-5.55-2.31,19.08,19.08,0,0,0-5,.68,5.8,5.8,0,0,0-3.3,2.38,62.94,62.94,0,0,0-5.11,9.28l-1.18,2.65a57.27,57.27,0,0,0-2.76,7.62l-1.54,5.37a48.47,48.47,0,0,0-1.1,4.77l-1,5.65a69.56,69.56,0,0,0-.9,7.19l-.73,10.26a68.24,68.24,0,0,0-.13,7.15l.29,8.47.32,4.08a54.86,54.86,0,0,0,2.64,13.12,33.31,33.31,0,0,0,3.17,6.79l.34.55a16.74,16.74,0,0,0,2.37,3l2,2a6.21,6.21,0,0,0,5.07-1.58l2.85-2.66c.54-.5,1.06-1,1.57-1.54l2.92-3,.8-.88a40.11,40.11,0,0,0,7.55-12.18q1.68-4.29,2.93-8.71l1.26-4.5a66.86,66.86,0,0,0,1.86-8.87l.93-6.71a33.18,33.18,0,0,0,.17-7.52l-.91-9.71a55.11,55.11,0,0,0-1.5-8.65l-2.37-9.22,0-.17C1883.76,1134.57,1883.59,1134,1883.38,1133.4Z"/><path class="cls-10" d="M1872.86,1057.71a35,35,0,0,0,.45,4.57l.9,5.4a4.63,4.63,0,0,0,4.56,3.86,9.58,9.58,0,0,0,7.28-3.36,64.31,64.31,0,0,0,12.6-22.8,62.79,62.79,0,0,0,2.47-12l1.65-15.43a126.21,126.21,0,0,0,.63-17.17l-.11-3.33a21.15,21.15,0,0,0-5.64-13.72,7.33,7.33,0,0,0-7.13-2.12,6.73,6.73,0,0,0-4.7,4.27l-4.4,12.39c-1,2.71-1.8,5.47-2.52,8.25l-2.58,10a105.16,105.16,0,0,0-2.27,11.52l-1.22,8.86a46.49,46.49,0,0,0-.41,7.82Z"/><path class="cls-9" d="M38.51,946.34l-4.46.15C35.54,946.49,37,946.43,38.51,946.34Z"/><path class="cls-9" d="M56.79,942.94l-4.4,1.25C53.87,943.81,55.34,943.41,56.79,942.94Z"/><path class="cls-9" d="M55.28,1041.92a14.29,14.29,0,0,0,.06,1.73v-1C55.3,1042.41,55.29,1042.16,55.28,1041.92Z"/><polygon class="cls-9" points="56.79 942.94 58.45 942.39 56.79 942.94 56.79 942.94"/><path class="cls-9" d="M165.72,924.82l34.77-28.59,12.92-9.86A107.52,107.52,0,0,0,230.55,870l-38.61,6.78-40.05,8.78q-3,.65-5.9,1.47l-26.54,7.43-16.82,5.61a101.08,101.08,0,0,0-13.69,5.7L68.76,916l12.17-2.36a77.07,77.07,0,0,1,18.25-1.34l7.83.36c1.41.07,2.83.18,4.24.32L125,914.39a71.9,71.9,0,0,1,7.71,1.23L144,918a77.55,77.55,0,0,1,8,2.2Z"/><path class="cls-9" d="M315,1189.06l-51.38-38c-1.66-1.23-3.37-2.4-5.11-3.51l-38.27-24.51-.28,18.09c-.06,3.66,0,7.33.13,11l1.62,40.93,2.58,51.59.53,11.41H401.51l-37.35-27.19Z"/><path class="cls-9" d="M739.35,1220.63l-3.86-22.57q-2.47-14.55-6.23-28.83l-5.76-21.94-12.68-43-9.45-35.71q-2.77-10.47-6.22-20.74l-12.85-38.18L671.08,975.3q-3.27-10-7.12-19.82L652,925l-12.23-33L624.8,848l-14.94-40.75L605,795.66a159.61,159.61,0,0,1-9.12-29.27,31.07,31.07,0,0,0-5.42-12.13l-2.3-3.13L585,746.6l-4.55-12.73A82.42,82.42,0,0,0,575,721.75l-4-7.29-4-7.15a80.09,80.09,0,0,0-12.34-16.7h0a96.29,96.29,0,0,0-8.61-7.92l-9.94-8.08-16.45-17.34a236.42,236.42,0,0,0-17.78-16.9L485.9,626.76q-6-5.12-12.24-9.89l-10.14-7.74q-10.31-7.86-19.89-16.61a207.82,207.82,0,0,0-23.87-18.79l-4.13-2.8-14.35-9.56q-7.38-4.92-14.47-10.27L368.09,537l-4.7-3.29a182.54,182.54,0,0,0-23.26-13.87,79.5,79.5,0,0,1-10.69-6.46l-4.1-2.95A88.54,88.54,0,0,0,314.86,504h0a22.49,22.49,0,0,0-8.17-2.45l-4.55-.46A64.9,64.9,0,0,1,288,474.62l-.06-.2-1.13.72-.83.53a135.71,135.71,0,0,1-13.35,7.41l-.76.37q-6.11,3-11.93,6.45l-4.7,2.81a47.9,47.9,0,0,0-5.32,3.73,56.92,56.92,0,0,0-8.28,8.29,12.52,12.52,0,0,0-2.62,5.73,40.59,40.59,0,0,0-.59,8.74l0,.78q.24,5.91,1,11.78l.53,4a27.56,27.56,0,0,1,0,7,18.32,18.32,0,0,1-2.23,6.78,50.71,50.71,0,0,1-5.07,7.4,21.78,21.78,0,0,0-4.46,9.22,10.39,10.39,0,0,0-.22,2.15v9.56l10.24-4.2a102,102,0,0,1,14.48-4.71l10.77-2.63-2.15,5.38a171.51,171.51,0,0,0-6.79,20.74l-.82,3.17-4.06,17.7a186.13,186.13,0,0,0-3.32,18.89L243.61,655c-.61,5-1.06,10.09-1.33,15.15l-.92,17.25-.87,21a179.16,179.16,0,0,0,.52,22.7l.19,2.12q.6,7,1.59,13.86l.79,5.52L222.28,769,197.43,788.1,175.5,805.93Q169,811.17,163.1,817l-16.24,15.91-14.37,14q-4.28,4.15-8.18,8.66l-5,5.71L97.16,873.73,73.65,887,56.53,897.9l11.41-7.23,27.43-8.46L135.47,867a48.76,48.76,0,0,1,6.61-2l47-10.38,29.59-6.2a98.26,98.26,0,0,1,13.56-1.87l25.65-1.71a13.76,13.76,0,0,0,5-1.3h0A70.54,70.54,0,0,0,277,834.82l5.19-4.15,14.64,13.47-7.29,9.2a72.58,72.58,0,0,1-8.45,9l-29.94,26.9-53.49,49q-2.15,2-4.41,3.78l-27.43,22q-3.09,2.49-5.94,5.27L137,991.71l-14,15c-1.22,1.31-2.49,2.58-3.79,3.8l-6.1,5.72a6.21,6.21,0,0,0-1.77,3l0,.08a7.17,7.17,0,0,0,1.1,6l0,.06a6.31,6.31,0,0,0,3,2.29c5,1.77,18.63,6.76,25.07,9.11a72.35,72.35,0,0,1,6.74,2.85l47.86,23.16c2.2,1.06,4.35,2.24,6.43,3.51l49.58,30.29,63.24,46.85,55.05,43.34,63.83,48.6,25.82,20.75H744.94c-.32-2.52-.66-5-1.07-7.55Z"/><path class="cls-10" d="M369.43,1186.72l-55.05-43.34-63.24-46.85-49.58-30.29c-2.08-1.27-4.23-2.45-6.43-3.51l-47.86-23.16a72.35,72.35,0,0,0-6.74-2.85c-6.44-2.35-20.12-7.34-25.07-9.11a6.31,6.31,0,0,1-3-2.29l0-.06a7.17,7.17,0,0,1-1.1-6l0-.08a6.21,6.21,0,0,1,1.77-3l6.1-5.72c1.3-1.22,2.57-2.49,3.79-3.8l14-15,22.92-22.4q2.85-2.77,5.94-5.27l27.43-22q2.26-1.82,4.41-3.78l53.49-49,29.94-26.9a72.58,72.58,0,0,0,8.45-9l7.29-9.2-14.64-13.47L277,834.82a70.54,70.54,0,0,1-14.09,8.78h0a13.76,13.76,0,0,1-5,1.3l-25.65,1.71a98.26,98.26,0,0,0-13.56,1.87l-29.59,6.2-47,10.38a48.76,48.76,0,0,0-6.61,2l-40.1,15.18-27.43,8.46L56.53,897.9l-4,2.67-4.8,3.18c-.64.43-1.27.89-1.88,1.37l-7.64,6.09a42.5,42.5,0,0,0-4.77,4.43l-6,6.45c-.56.59-1.13,1.17-1.73,1.73l-6.17,5.73c-.8.74-1.62,1.44-2.47,2.1l-6.25,4.86c-.64.49-1.25,1-1.84,1.57l-9,8.41,12.8.13,12.93-.13h8.32l4.46-.15,2.48-.08a37.68,37.68,0,0,0,9.07-1.41l2.33-.66,4.4-1.25,1.65-.55,5.8-1.93h0q.89-.3,1.8-.54l7.33-2a32.29,32.29,0,0,1,3.77-.77l1.79-.25a31.36,31.36,0,0,1,3.62-.3l6.69-.17a31.27,31.27,0,0,1,3.21.07l4.93.35,8.39,1,13.66,2.36,10.67,1.94c.8.14,1.6.25,2.41.32l14.79,1.31-11.72,8.66-4.35,3.37L124.54,961a32.54,32.54,0,0,0-4.49,4.21l-9.13,10.36-7.36,7.16-8.25,7.47L86.77,998a56.73,56.73,0,0,0-5.36,5.6l-10.14,12.14-8.66,10a26.88,26.88,0,0,0-3.17,4.53l-2.51,4.48a13.22,13.22,0,0,0-1.65,7.15c0,.24,0,.49,0,.73v2.48c.14,1.32,1.33,3.65,2.52,4.24l11.64,6.72a24,24,0,0,0,4.45,2c.77.25,1.55.49,2.32.78l10.53,3.9,22.61,7.42,19,6.5c1.42.49,2.82,1,4.2,1.64l14.87,6.5,16.6,6.88c1.23.51,2.44,1,3.64,1.64l12.55,6.12,15.49,8a61.15,61.15,0,0,1,5.31,3.09l19.13,12.47,38.27,24.51c1.74,1.11,3.45,2.28,5.11,3.51l51.38,38,49.19,39.82,37.35,27.19h57.57l-25.82-20.75ZM144,918l-11.26-2.42a71.9,71.9,0,0,0-7.71-1.23L111.25,913c-1.41-.14-2.83-.25-4.24-.32l-7.83-.36a77.07,77.07,0,0,0-18.25,1.34L68.76,916l20.18-10.2a101.08,101.08,0,0,1,13.69-5.7l16.82-5.61L146,887q2.92-.82,5.9-1.47l40.05-8.78L230.55,870a107.52,107.52,0,0,1-17.14,16.37l-12.92,9.86-34.77,28.59L152,920.24A77.55,77.55,0,0,0,144,918Z"/><path class="cls-9" d="M1003.24,1223.4l-1.53-14.15a490.87,490.87,0,0,1-2.81-52.42h0a214.11,214.11,0,0,0-3.33-37.57l-4.9-27.41-5-27q-1.54-8.31-3.59-16.52l-3.47-13.87q-2.7-10.8-4.54-21.8l-1.27-7.63q-1.83-11-2.86-22l-1.22-13.12q-1-11.16-1.29-22.36l-.57-25.8-.28-7.95a135,135,0,0,1,2.26-29.89l1.12-5.88q1.83-9.72,4.55-19.23l8.8-30.78,9.86-37.82,10-13.94a24.77,24.77,0,0,0,3.55-7.24l1.17-3.9a161,161,0,0,1,6.11-16.92l10.45-24.6,12.84-31.08a66,66,0,0,0,4-13.92l.74-4.25q1.3-7.47,1.94-15l.19-2.29,16.26-15.62c2.86-2.74,5.61-5.6,8.25-8.55l11-12.35a165.42,165.42,0,0,0,10.48-13h0a201.07,201.07,0,0,0,21.28-36.92l-8.42,1.69q-14,2.82-28.25,4.43l-9.56,1.08a333.7,333.7,0,0,1-40,2.11l-5,0-14.77,27.83-11.51,23-14.84-1.4q-11.46-1.07-23-1.07H945.45l-1.81-2.23a225.65,225.65,0,0,0-19-20.67,229.25,229.25,0,0,1-18-19.38l-10.5-12.71c-2-.25-4-.5-6.06-.79l-27.46-3.81-25.89-3.11c-1.42-.17-2.84-.38-4.25-.57l10,18.68q2.73,5.13,5.75,10.1L858,609.93q6,10,12.66,19.61l8.66,12.59a24.44,24.44,0,0,0,7,6.77l4.85,3.08-3.3,2.36a5.07,5.07,0,0,0-2.08,4.75l4.56,36.47,1,9.92a193.51,193.51,0,0,0,5.49,30.69l1.77,6.75q2.46,9.36,4.22,18.9l.11.58a251.43,251.43,0,0,0,11.32,41.3,153.1,153.1,0,0,1,6.43,22.65l4.65,22.89A252.67,252.67,0,0,1,930,885.89l.19,3.54q.45,8.39.33,16.78L929,1005.52l-2.47,78.11-4.93,71.53-5.41,55.51q-1.17,11.91-3.22,23.7l-3.77,21.7h98.86l-1.14-6.48Q1004.65,1236.56,1003.24,1223.4Z"/><path class="cls-11" d="M1461.93,173.18,1459,169.5l-1.78-2.25q-4.12-5.22-7.78-10.8l-.82-1.25a65.26,65.26,0,0,0-8.36-10.3c-.8-.81-1.61-1.61-2.46-2.37l-4-3.59a55.76,55.76,0,0,0-2.58-8.83l-1-2.44a25.4,25.4,0,0,0-3.67-6c-.09-.11-.19-.2-.28-.31a10.52,10.52,0,0,0-3.15-2.43,16,16,0,0,0-5.7-1.61c-.15,0-.29,0-.44-.06a14,14,0,0,0-5.63.8l-2.83,1a27.29,27.29,0,0,0-6.42,3.36l-1.85,1.31a16.4,16.4,0,0,0-3.68,3.57l-2.87,3.84a10.22,10.22,0,0,0-.85,1.32l-4.52,8.4a34,34,0,0,0-1.52,3.16l-5.77,13.5c-.34.82-.71,1.62-1.08,2.42q-.74,1.56-1.53,3.09l-3.82,7.24-4.7,8.95-7.57,13.62a44.09,44.09,0,0,0-4.07,10.08l-5.55,20.88-4.17,16.4a50.33,50.33,0,0,0-1.55,12.4h0a4.76,4.76,0,0,0,1.79,3.72,16.55,16.55,0,0,0,5.1,2.78,13.82,13.82,0,0,0,4.33.7H1363a13.46,13.46,0,0,0,4.66-.83l6.08-2.26a15.62,15.62,0,0,0,4.88-2.91l3.74-3.3a24.29,24.29,0,0,0,2-2l5.12-5.72c.6-.68,1.23-1.34,1.87-2l5.8-5.8a48.22,48.22,0,0,0,3.45-3.84l4.24-5.25a62.12,62.12,0,0,0,5-7.09l3.9-6.51.72-1.21a172.23,172.23,0,0,1,11.08,19l2.59,5.19,10.5,18.52,4.54,2.5q11.22,6.17,21.93,13.18c-1.31,1.41-2.59,2.83-3.82,4.29l-10.53,12.44-10,13.07a46.36,46.36,0,0,0-3.41,5.15h0a39.52,39.52,0,0,0-5.09,16.48,135.07,135.07,0,0,0-.16,19.4l1.6,25.07,2.24,22.91a66.63,66.63,0,0,0,3.08,14.51,24.56,24.56,0,0,0,4,7.35l4.61,5.87q2.85,3.63,5.44,7.45-11.79-8.1-24.31-15.09L1404,394.63l-5-2.95q-8.1-4.74-16.46-9a.5.5,0,0,0,0-.13l.86-2.35a58.38,58.38,0,0,0,3.41-15.83l.5-6.9.32-15.08a15.87,15.87,0,0,0-.48-4.29l-.26-1a16.64,16.64,0,0,0-4-7.33,10.16,10.16,0,0,0-6.28-3.14l-1.21-.13a94.17,94.17,0,0,0-16.62-.38l-4.23.27a26,26,0,0,0-8.34,2,30.24,30.24,0,0,0-8.67,5.48,26.7,26.7,0,0,0-5.69,7.25l-1.54,2.89a38,38,0,0,0-2.86,6.81l-1.3,4.14a23.69,23.69,0,0,0-1,8.32l.33,6.14c0,.61,0,1.22.06,1.84s0,1.23,0,1.84l-.17,5.92a12.34,12.34,0,0,0,.77,4.66l1.72,4.58a15.63,15.63,0,0,0,2,3.68l2.77,3.76a18.39,18.39,0,0,0,2.51,2.78l4,3.63a14.07,14.07,0,0,0,5.25,3l2.94.93c.72.23,1.45.43,2.19.61l3.63.87a17.28,17.28,0,0,0,8.83-.19,18,18,0,0,0,5.73-2.83l.32-.23,4.17,5a91,91,0,0,1,7.51,10.49l3.54,5.78q3.21,5.24,6.89,10.15l9.11,12.15,6.51,9.17,5.22,7.36,8.6,12a42.83,42.83,0,0,0,4.58,5.41l4.23,4.23a78,78,0,0,0,10.78,9l3.88,2.67,4.94,3.41q7.77,5.37,16,10a103.2,103.2,0,0,0,20.72,8.77l15.82,4.75,27,7.12c2.23.58,4.44,1.25,6.62,2l26.58,9,9.91-38.39-16.64-10.86-1.25-.87V488.5a95,95,0,0,0-1-13.79l-2-13.12-1.08-7.07a58.1,58.1,0,0,0-8.54-22.53h0a34.37,34.37,0,0,1,6.49-20.1l6.83-9.49,16.61-21.92q1.89-2.5,4-4.81l15.12-16.42,4.8,3.19a106.26,106.26,0,0,1-7.95,16.73l-3.1,5.27a109.25,109.25,0,0,0-6.37,12.65L1569.09,415a78.81,78.81,0,0,0-5,24.47l-.22,5.12v13.07q0,3.21.19,6.41l.15,2.63a56.5,56.5,0,0,0,2.39,13.21,12.07,12.07,0,0,0,3.42,5.38,90.21,90.21,0,0,1,10.42,11.25l5.63,7.25,8.77,12.14a18.73,18.73,0,0,0,1.87,2.2l4,4a5.45,5.45,0,0,0,3.83,1.59,4.46,4.46,0,0,0,4.09-2.7h0a30.06,30.06,0,0,0,2.15-15.92l-1.82-13.2-3.7-22.2-2.67-18.67a18.83,18.83,0,0,1-.12-4.11,16.78,16.78,0,0,1,5.74-11.3l5.93-5.14,14.49-12.81a92.38,92.38,0,0,1,10-7.72l5.33-3.55a29.16,29.16,0,0,1,5.76-3,33.6,33.6,0,0,1,3.92-1.23l34.75,23q12.54,8.31,25.61,15.78l17.56,10a11.54,11.54,0,0,1,5.29,6.62l12-13.06.53-6.93-17.06-20.79-20.26-25.06-10.62-13.43-2.16-2.73q-5.34-6.76-10.09-14l-10.72-16.25-6.08-8.75a41.76,41.76,0,0,0-5.56-6.46l-.86-.81a73.37,73.37,0,0,0-12.23-9.33q-5.66-3.43-11-7.35l-1.54-1.12a88.93,88.93,0,0,1-12.84-11.45,7.29,7.29,0,0,1-.92-1.28l-4.3-7.81a31.77,31.77,0,0,0-2.67-4.11l-2.61-3.41a46.63,46.63,0,0,0-6.33-6.77l-2.3-2a23.47,23.47,0,0,0-6-3.83,19.74,19.74,0,0,0-10.84-1.44l-2,.3a34.72,34.72,0,0,0-6,1.43,33,33,0,0,1-10.44,1.69h-.5a74.79,74.79,0,0,1-3.72-15.32l-1.44-10.85a63.45,63.45,0,0,0-2.28-10.38l-2-6.65a17,17,0,0,0-1.82-4l-1.2-2a7.44,7.44,0,0,0-5.49-3.48l-.54-.06a48,48,0,0,0-10.92,0h0a57.85,57.85,0,0,0-15.2,4,35,35,0,0,0-3.39,1.6l-12.21,6.57-2.9-2.09a103,103,0,0,1-12.54-10.68l-6.15-6.16q-2.94-2.92-5.68-6h0A143.28,143.28,0,0,1,1468.56,183c-.55-1-1.11-1.89-1.69-2.82q-.61-1-1.26-1.95C1464.45,176.51,1463.23,174.82,1461.93,173.18ZM1487.7,361.7l3-20,5.92-17,12.58-13.31,5.37-5.38c2.11,1.73,4.21,3.47,6.28,5.24,5.1,4.37,10.38,8.52,15.79,12.49l-11.16,15.76-10.36,16.28-10.36,18.5-5.18,13.32-2.22,14.8-3.7,20.71-5.18-11.83-3-17Z"/><path class="cls-12" d="M1357.45,160.31q-5.33-2.82-10.86-5.22l-6.55-2.84a42.56,42.56,0,0,0-13.44-3.36l-11.43-.93q-4.43-.36-8.86-.36h-10.43a71.54,71.54,0,0,0-8.53.52l-16.13,1.95A96.37,96.37,0,0,0,1242,166.35l-2.27,1.84a54.32,54.32,0,0,0-7.81,7.8,168.19,168.19,0,0,0-17.65,26.42l-.48.91a141.72,141.72,0,0,0-8.46,18.87v0q-1.2,3.28-2.11,6.68a84.79,84.79,0,0,0-2.71,15.17l-.29,3.35a97,97,0,0,0-.18,14.06l.15,2.5a97.81,97.81,0,0,0,3.69,21.27l1.08,3.72a73.8,73.8,0,0,0,3.58,9.74l2,4.48a66.62,66.62,0,0,0,10,15.93l2.89,3.41q1.45,1.7,3,3.31l6.31,6.66a64.34,64.34,0,0,0,7,6.39l10.46,8.18,11.22,8.32a59.68,59.68,0,0,0,11.66,6.75,50.31,50.31,0,0,0,7.55,2.62l6.88,1.79a65.72,65.72,0,0,0,7,1.43l10.45,1.54c1.8.27,3.61.47,5.42.59l15.15,1.05c0-.62,0-1.23-.06-1.84l-.33-6.14a23.69,23.69,0,0,1,1-8.32l1.3-4.14a38,38,0,0,1,2.86-6.81l1.54-2.89a26.7,26.7,0,0,1,5.69-7.25,30.24,30.24,0,0,1,8.67-5.48,26,26,0,0,1,8.34-2l4.23-.27a94.17,94.17,0,0,1,16.62.38l1.21.13a10.16,10.16,0,0,1,6.28,3.14,16.64,16.64,0,0,1,4,7.33l.26,1a15.87,15.87,0,0,1,.48,4.29l-.32,15.08-.5,6.9a58.38,58.38,0,0,1-3.41,15.83l-.86,2.35a.5.5,0,0,1,0,.13q8.35,4.29,16.46,9l5,2.95,24.7,13.77q12.51,7,24.31,15.09-2.6-3.81-5.44-7.45l-4.61-5.87a24.56,24.56,0,0,1-4-7.35,66.63,66.63,0,0,1-3.08-14.51l-2.24-22.91-1.6-25.07a135.07,135.07,0,0,1,.16-19.4,39.52,39.52,0,0,1,5.09-16.48h0a46.36,46.36,0,0,1,3.41-5.15l10-13.07,10.53-12.44c1.23-1.46,2.51-2.88,3.82-4.29q-10.71-7-21.93-13.18l-4.54-2.5-10.5-18.52-2.59-5.19a172.23,172.23,0,0,0-11.08-19l-.72,1.21-3.9,6.51a62.12,62.12,0,0,1-5,7.09l-4.24,5.25a48.22,48.22,0,0,1-3.45,3.84l-5.8,5.8c-.64.64-1.27,1.3-1.87,2l-5.12,5.72a24.29,24.29,0,0,1-2,2l-3.74,3.3a15.62,15.62,0,0,1-4.88,2.91l-6.08,2.26a13.46,13.46,0,0,1-4.66.83h-4.78a13.82,13.82,0,0,1-4.33-.7,16.55,16.55,0,0,1-5.1-2.78,4.76,4.76,0,0,1-1.79-3.72h0a50.33,50.33,0,0,1,1.55-12.4l4.17-16.4,5.55-20.88a44.09,44.09,0,0,1,4.07-10.08l7.57-13.62,4.7-8.95q-6.51-4.25-13.38-7.92Z"/><path class="cls-12" d="M1493.62,423.11l3.7-20.71,2.22-14.8,5.18-13.32,10.36-18.5,10.36-16.28,11.16-15.76c-5.41-4-10.69-8.12-15.79-12.49-2.07-1.77-4.17-3.51-6.28-5.24l-5.37,5.38-12.58,13.31-5.92,17-3,20-2.22,32.56,3,17Z"/><path class="cls-12" d="M1638.67,551.49l18.53,14.2,5.14,4.11a32.82,32.82,0,0,0,9.06,5.15,18.69,18.69,0,0,0,7.26-5.52l4-5-16.72-9.65,3.18-10.68a155.86,155.86,0,0,1,5.19-14.73l1.68-4.09q3.21-7.83,7.11-15.36a92.43,92.43,0,0,1,8-12.79,166.78,166.78,0,0,1,25.47-27.23l5.87-5,15.06,9.57.62-1.4v-7.89a25.53,25.53,0,0,0-1.14-7.52,11.54,11.54,0,0,0-5.29-6.62l-17.56-10q-13.06-7.47-25.61-15.78l-34.75-23a33.6,33.6,0,0,0-3.92,1.23,29.16,29.16,0,0,0-5.76,3l-5.33,3.55a92.38,92.38,0,0,0-10,7.72l-14.49,12.81-5.93,5.14a16.78,16.78,0,0,0-5.74,11.3,18.83,18.83,0,0,0,.12,4.11l2.67,18.67,3.7,22.2,1.82,13.2a30.06,30.06,0,0,1-2.15,15.92h0a4.46,4.46,0,0,1-4.09,2.7,5.45,5.45,0,0,1-3.83-1.59l-4-4a18.73,18.73,0,0,1-1.87-2.2l-8.77-12.14-5.63-7.25a90.21,90.21,0,0,0-10.42-11.25,12.07,12.07,0,0,1-3.42-5.38,56.5,56.5,0,0,1-2.39-13.21l-.15-2.63q-.19-3.19-.19-6.41V444.57l.22-5.12a78.81,78.81,0,0,1,5-24.47l7.59-17.89a109.25,109.25,0,0,1,6.37-12.65l3.1-5.27a106.26,106.26,0,0,0,7.95-16.73l-4.8-3.19-15.12,16.42q-2.13,2.31-4,4.81l-16.61,21.92-6.83,9.49a34.37,34.37,0,0,0-6.49,20.1h0a58.1,58.1,0,0,1,8.54,22.53l1.08,7.07,2,13.12a95,95,0,0,1,1,13.79v4.07l1.25.87,16.64,10.86,13.62,8.9Z"/><path d="M1716.55,469.91a166.78,166.78,0,0,0-25.47,27.23,92.43,92.43,0,0,0-8,12.79q-3.9,7.52-7.11,15.36l-1.68,4.09a155.86,155.86,0,0,0-5.19,14.73l-3.18,10.68,16.72,9.65,12.63,7.29q5.52,3.19,11.26,6l10.89,5.33a175.81,175.81,0,0,1,16.37,9.15l10.73,6.78.38.25a72.55,72.55,0,0,0,14.85,7.61l.5,0a26.32,26.32,0,0,0,10.53-1.26,14.88,14.88,0,0,0,6.33-4.13,149.31,149.31,0,0,0,13.19-16.78,199.1,199.1,0,0,0,11.5-19.27l1.12-2.14c3-5.68,5.69-11.51,8.13-17.44l3-7.43a10.13,10.13,0,0,0,.56-5.81,11.57,11.57,0,0,0-4.48-7l-13.1-9.63-31.41-23q-6.9-5.05-14.13-9.63l-14.07-8.94-15.06-9.57Z"/><path class="cls-6" d="M939.62,16.72c-.18.92-.32,1.85-.44,2.79L938,28.86c-.06.47-.11.95-.14,1.43L937,43l.43-.43a11.88,11.88,0,0,0,3.29-6.26l1.84-10,2-12.54,1.12-7.45a19.5,19.5,0,0,0,.19-4.11L945.73,0h-.91a78.38,78.38,0,0,0-5.16,16.52Z"/><path class="cls-13" d="M939.62,16.72c-.18.92-.32,1.85-.44,2.79L938,28.86c-.06.47-.11.95-.14,1.43L937,43l.43-.43a11.88,11.88,0,0,0,3.29-6.26l1.84-10,2-12.54,1.12-7.45a19.5,19.5,0,0,0,.19-4.11L945.73,0h-.91a78.38,78.38,0,0,0-5.16,16.52Z"/><path class="cls-6" d="M965.19,12.42a42.71,42.71,0,0,0,7.23,8.64l1.71,1.57-4.57-9.58c-.34-.72-.72-1.42-1.13-2.11l-.95-1.58a30.31,30.31,0,0,0-5.8-7L959,0l1.22,2.91A63.47,63.47,0,0,0,965.19,12.42Z"/><path class="cls-13" d="M965.19,12.42a42.71,42.71,0,0,0,7.23,8.64l1.71,1.57-4.57-9.58c-.34-.72-.72-1.42-1.13-2.11l-.95-1.58a30.31,30.31,0,0,0-5.8-7L959,0l1.22,2.91A63.47,63.47,0,0,0,965.19,12.42Z"/><path class="cls-6" d="M962,50.06l7.06-5.45-5.33,3A25.7,25.7,0,0,0,959,51l-4.89,4.43,7.54-5.13Z"/><path class="cls-13" d="M962,50.06l7.06-5.45-5.33,3A25.7,25.7,0,0,0,959,51l-4.89,4.43,7.54-5.13Z"/><path class="cls-6" d="M936.18,158.42l12.71,1.36c1,.1,1.93.24,2.89.41l7.47,1.37c1.19.22,2.38.4,3.58.56l6.49.82-9.64-3.31-7.11-2.23a42.21,42.21,0,0,0-6.08-1.41l-5.6-.87c-1.33-.21-2.67-.35-4-.43l-5.34-.32a43.25,43.25,0,0,0-5.46,0l-11.88.73,9.94,1.66Z"/><path class="cls-14" d="M936.18,158.42l12.71,1.36c1,.1,1.93.24,2.89.41l7.47,1.37c1.19.22,2.38.4,3.58.56l6.49.82-9.64-3.31-7.11-2.23a42.21,42.21,0,0,0-6.08-1.41l-5.6-.87c-1.33-.21-2.67-.35-4-.43l-5.34-.32a43.25,43.25,0,0,0-5.46,0l-11.88.73,9.94,1.66Z"/></g></g></svg>