<svg xmlns="http://www.w3.org/2000/svg" viewBox="0 0 761.23 186"><defs><style>.cls-1{fill:#333;stroke:#000;stroke-miterlimit:10;}.cls-2{fill:#fff;}</style></defs><title>アセット 8</title><g id="レイヤー_2" data-name="レイヤー 2"><g id="レイヤー_2-2" data-name="レイヤー 2"><polygon class="cls-1" points="721.62 185.5 0.62 185.5 39.62 0.5 760.62 0.5 721.62 185.5"/><path class="cls-2" d="M244.92,97.24a11.9,11.9,0,0,1-2.25,2.52c-2.07,1.8-4.23,3.51-6.39,5.22L242,101.2c.72-.45,2.79-2.16,3.78-1.44,1.35.9-2.43,3.33-3.15,4,.81-.54,3.24-2.43,4.23-1.53s-.45,3.24-.81,4.14c.81-.18,1,.72.63,1.17-.09.27-.54.45-.72.54-.54.36-1.53,1.08-2,.27a1.15,1.15,0,0,1,.18-1.08c.36-1.17,1-2.34,1.35-3.51a72.77,72.77,0,0,0-6.57,4.14c-.72.45-3.51,3.06-4.32,1.8-.72-1.08,3.78-4.14,4.59-4.86a55.82,55.82,0,0,1-7.29,4.68c-.9.45-3.15.72-2.16-1a7.6,7.6,0,0,1,1.62-1.35c1.08-.9,2.16-1.8,3.33-2.61,2.16-1.8,4.41-3.51,6.48-5.4-5.94,3.78-12,7.29-18,10.89-5.76,3.51-11.79,6.84-17,11.07,2.43-1.53,4.86-3.06,7.38-4.59,1-.54,4.14-3.15,5.49-2.7,2,.72-1.26,3.33-1.8,3.78-2.34,1.89-4.77,3.6-7.11,5.31,2.07-1.35,4.14-2.79,6.3-4.14.72-.54,2.88-2.34,4-1.89,2.52,1.26-5.58,6.39-6.39,6.93.9-.45,5.94-4.32,6.84-3,1,1.53-3.78,5.31-4.68,6.21.63-.36,5.13-3.69,5.67-2,.27.9-1.35,2.61-1.62,3.42-.09.36-.18,1.17-.27,1.35-.36.63-1.71,1.08-2,.09-.18-.81,1.17-2.52,1.53-3.15-2.25,1.26-4.41,2.7-6.57,4-.54.27-1.35,1-1.8.18s.63-1.53,1.08-1.89c1.89-2,3.87-4,5.67-5.85-2.79,1.53-5.49,3.24-8.28,4.86-.9.54-3.78,2.88-4.86,2.34-1.62-.9,2-3.24,2.52-3.69,2.61-1.89,5.31-3.6,7.92-5.49-2.79,1.89-5.67,3.69-8.55,5.49-.54.27-5,2.88-4.41.36.18-.72,1.53-1.44,2.07-1.89,1.08-.81,2.16-1.62,3.33-2.34,2.7-1.89,5.49-3.87,8.1-5.94-3.06,1.71-5.94,3.6-9,5.49-.81.45-2.07,1.53-3.06,1.62-1.26.18-1.08-1.17-.54-2,1.08-1.71,15.39-11.25,15.57-11.07,0,.09,0,0-.09-.18-2.7,1.71-5.31,3.51-8,5.22a30.62,30.62,0,0,1-6.39,3.78c-1.08.45-2.07,0-1.35-1.17.54-.81,2.16-1.44,2.88-1.89,1.17-.63,2.34-1.35,3.42-2q8.37-5,16.47-10.26l8.1-5.13A28.58,28.58,0,0,0,237,97c.81-.63,2.07-1.62,2.34-2.61-1.71.09-3.6,1.35-5.13,2.25-2,1.17-3.87,2.43-5.76,3.69-4,2.61-8,5.4-12,8.1a116.45,116.45,0,0,1-11.34,7.38c-.9.54-3.51,2.07-4.14.54-.45-1.17,1.8-2.34,2.52-2.88-2.07.18-1.71-1.53-.63-2.43a41.12,41.12,0,0,1,5.85-3.87c4.5-2.79,9.18-5.49,13.59-8.55-6.39,3.78-12.6,7.65-19,11.43-.72.36-5.22,3.51-4.86,1,.09-1.35,2.34-2.52,3.33-3.24,1.44-1.17,3-2.25,4.5-3.33a120.5,120.5,0,0,1-11.79,7.11c-1,.45-4.23,2.34-5,.81-.63-1.17,1.35-2.34,2.07-3,6.84-5.58,14.49-10.26,22-15.12-7.38,3.51-13.95,8.82-20.61,13.41-3.06,2.07-6.12,4.32-9.45,6.12-1,.45-3,1.53-3.42,0s2.07-3.24,3.06-4c-2.88,1.71-6,4-9.27,4.86-.81.27-2.25.09-1.8-1.08.27-.54,1.35-1.08,1.8-1.35,6.12-4.59,12.6-8.91,18.27-14.13-6.21,2.52-11.61,7.2-17.1,10.8-.54.36-1.26,1.08-1.8.45s.09-1.26.54-1.71c2.43-2.61,5.67-4.59,8.46-6.75-2,1.17-3.87,2.52-5.85,3.69-1.35.9-3.42,2.79-5,2.88-1.35.18-1.26-.81-.63-1.62,1.53-1.62,3.87-2.88,5.67-4.23-1.35.81-2.79,1.53-4.14,2.34-1,.63-2.52,1.17-2.07-.63.36-1.35,1.62-2.79,1.71-4,0-.54-.27-.63.18-1.17a2.15,2.15,0,0,1,1-.54c2.16-.09-.63,4.23-.9,4.77,2.25-1.26,4.41-2.52,6.66-3.78.54-.36,1.89-1.44,2.61-1.08,1.44.72-1.17,2.88-1.62,3.24,1.26-.81,2.52-1.71,3.87-2.43.63-.36,1.8-1.35,2.61-1.17,2.16.54-.9,3.06-1.44,3.51,2.25-1.44,5.22-3.87,7.92-4.23,3.51-.36.45,2.79-.45,3.51-4.77,4.14-10,7.83-15.12,11.61,8.28-4.5,16.11-9.9,24.12-14.94,3.69-2.34,7.38-4.77,11.25-6.93.81-.45,2.52-1.71,3.51-1.17,1.62,1-1.08,3.24-1.8,3.87.72-.27,3.33-.9,3.06.72,0,.45-.36.54-.63.72-2.34,2-5.31,3.51-7.83,5.22-5.85,3.87-12,7.56-17.19,12.15,5-1.71,9.54-5.13,14-8,4-2.52,7.74-5.13,11.7-7.65.54-.45,1.62-1.44,2.25-.54.9,1.35-2.34,3.42-3.15,4.05-4,3.15-8.37,5.85-12.51,8.91,4.68-2.79,9.45-5.67,14.22-8.55,1.8-1.08,3.69-2.25,5.58-3.33.72-.45,2.88-2.07,3.42-.63s-2.7,3.42-3.69,4c-2.16,1.53-4.32,2.88-6.57,4.32-4.23,2.61-8.73,5-12.69,7.92,3-1,5.76-3,8.46-4.68,3-1.89,5.85-3.87,8.82-5.85,2.79-1.89,5.67-3.87,8.55-5.76a13.92,13.92,0,0,1,3.24-1.71c.72-.27,2-.09,1.35,1,1.35-.72,3.15-1.89,4.68-1.8s1.71,1.62,1,2.7c1.17-.54,2.61-1.44,4-1.44.9,0,2,.54,1.44,1.53C245.19,96.07,245.28,96.7,244.92,97.24Zm-39.42-14c5.94-3.42,11.88-7,17.73-10.53,2.25-1.26,4.5-2.61,6.75-3.87,1.17-.72,3.24-2.43,4.59-2.43,2.07-.09,0,2.07-.63,2.52-2,1.44-4.23,2.61-6.39,3.87-5.22,3-10.53,5.94-15.75,9-2.25,1.35-4.41,2.7-6.57,4.14-1.53,1-3.6,2.25-4.5,3.78,2.88-.54,5.76-2.61,8.37-4.05,3-1.71,5.85-3.51,8.73-5.4,5.22-3.24,10.35-6.57,15.57-9.9,1.08-.72,8.91-6.57,9.81-5,.63,1.17-2.16,2.43-2.79,2.88-2.34,1.53-4.77,3-7.11,4.41-5.58,3.33-11.16,6.75-16.65,10.17,1.8-.09,3.33-1.08,4.86-2,1.8-1,3.6-2.16,5.4-3.24,3.51-2.25,7-4.59,10.53-6.84.81-.54,2.61-2.25,3.6-2.07.81.18.9.81.63,1.44-.54,1.17-2.16,2.16-3.15,2.88l-5.4,4c1.89-1.17,3.69-2.43,5.67-3.51.81-.54,2.61-2,3.69-1.8,1.71.27.09,2.34-.45,3.06-1.26,1.53-2.7,3-4,4.41.63-.36,3.24-2.79,4-1.62.45.72-.63,2.43-.9,3.06.54-.36,2.07-.9,1.8.36-.18.63-1.17,1-1.71,1.26s-1.44,1.08-2,.27.45-2.16.72-2.79c-.63.36-5.49,4-5,1.26.09-1.08,1.71-2.34,2.43-3.06,1.17-1.26,2.34-2.61,3.51-4-4.77,2.7-9.27,6.12-14.13,8.64-.63.36-1.8,1.08-2.07,0-.27-.81.72-1.44,1.26-1.89,2.16-1.89,4.59-3.51,6.84-5.22-2.61,1.71-5.31,3.51-8,5.13-2.16,1.35-4.59,3.15-7.11,3.69.9,1-3.24,2.79-3.87,3.15-2.34,1.44-4.59,2.88-6.93,4.32-1.08.72-2.25,1.35-3.33,2-.63.36-1.89,1.35-2.7,1.17-2.61-.36,1.26-3.78,2-4.32-1,.36-2.7,1.17-3.42.09s.81-2.61,1.62-3.24c-2.16.27.45-2.79.9-3.15,2.25-1.89,4.77-3.6,7.2-5.31,5-3.42,10.08-6.57,14.85-10.17-5,1.89-9.81,5.49-14.22,8.46-2.25,1.44-4.41,3-6.66,4.5-1.35.9-3,2.43-4.59,3-1,.27-1.62-.36-1.08-1.26.9-1.71,3.6-3.06,5-4.23,4.41-3.15,8.82-6.21,13.23-9.36-5.58,2.7-10.71,6.57-15.84,10-2.16,1.44-4.23,2.88-6.39,4.23-.63.36-1.8,1.35-2.52,1.08-1.08-.27-.63-1.53-.09-2.07a46.72,46.72,0,0,1-5.85,3.33c-.72.36-3.69,1.17-2.79-.63.36-.72,2.25-1.44,2.88-1.89,2-1.17,3.87-2.43,5.76-3.6,4.32-2.7,8.55-5.4,12.69-8.28,3.33-2.25,7.47-4.59,10-7.83-3,.81-5.76,2.79-8.28,4.32-2.79,1.71-5.58,3.51-8.28,5.31-5.31,3.42-10.62,7-16,10.35-.72.45-4.86,3.42-5.31,1.62-.36-1.08,2.34-2.43,3-2.88,4.95-3.69,10-7.2,14.85-10.89-4.95,2.88-9.72,6.3-14.58,9.36-.81.63-3.51,2.88-4.41,1.8s2.34-3.06,2.88-3.42c-2.07,1-3-.36-1.53-2,1.62-2,3.6-3.69,5.4-5.58-.9.63-3.33,3-4.59,2.61s-.45-2.25-.27-3.06c-1,.45-1.17-.72-.72-1.26a2.7,2.7,0,0,1,1-.54c1.8-.45,1.08,2,1,3,.72-.45,6.66-5.4,6.93-2.79.18,1.26-2.07,2.88-2.88,3.6-1.35,1.44-2.88,2.88-4.23,4.32,4.32-2.43,8.1-5.58,12.24-8.19.72-.45,4-2.7,4.32-.9.27,1.08-1.8,2.07-2.43,2.52,1.26-.72,3.87-2.79,5.49-2.43,1.08.36.81,1.17.27,1.8-1.17,1.35-3.15,2.43-4.59,3.6-2,1.35-3.87,2.79-5.85,4.14,6.12-4,12.15-8,18.36-11.79,2.43-1.35,5.22-3.51,8-4,2.07-.36,2.25,1.17,1.17,2.52a23.93,23.93,0,0,1-3.15,2.88,22.42,22.42,0,0,1,4.59-2.43c1.71-.45,2.43.72,1.17,2,.9-.27,2.79-.09,2.07,1.26-.54,1.08-2.52,2-3.42,2.61,1.35-.81,9.54-6.57,10.71-4.05.54,1-1,1.89-1.62,2.34-1.8,1.35-3.6,2.52-5.4,3.78C214.68,76.9,210,80,205.5,83.2Zm-7,18.9c-3.33,1.89-6.66,3.78-9.9,5.85-2.34,1.35-5.31,2.88-6.84,5a21.14,21.14,0,0,0,4.14-2.34C190.2,108,194.34,105,198.48,102.1Zm-4.59,1c3.78-2.25,7.65-4.41,11.43-6.66,3.06-1.8,6.57-3.6,9.09-6.12-.9.45-1.71,1-2.61,1.44C205.68,95.35,199.83,99.31,193.89,103.09Zm3.69-45.63c1.71-1,3.33-2.07,5-3.15.63-.45,1.89-1.62,2.7-1.17,1.62,1-3.24,5.31-3.78,5.94a93.2,93.2,0,0,1,8.73-5.22c.63-.36,1.71-1.08,2.43-.9,1.26.36.63,1.62.09,2.25-1.71,2.25-4.41,3.87-6.66,5.49a85.51,85.51,0,0,0-7.2,5.58c4.86-2.34,8.82-6.12,13.59-8.73,1.53-.81,2.25.27.81,1.26-2.34,1.44-4.59,3.06-6.84,4.59a47.17,47.17,0,0,1-6.84,4.05c-.81.45-2.61,1.26-3.06-.09-.27-.81.72-1.53,1.26-2.07,4.05-3.78,9.09-6.39,13.14-10.17A94.9,94.9,0,0,0,202.71,60c-1.08.72-2.25,1.44-3.33,2.16-.63.36-1.71,1.44-2.52,1.53-1.08.27-1.17-.54-.72-1.26a19.14,19.14,0,0,1,2.7-2.7c1.08-1.08,2.16-2.25,3.24-3.33-1.26.81-3.51,2.88-5.13,2.88s-.9-1.8-.63-2.79c-1.71.18-.09-1.71.63-2,1-.27,1.35.45,1.08,1.26A16.23,16.23,0,0,0,197.58,57.46Zm18.54,25.65c-4.59,3-9.54,5.76-13.59,9.45,4.68-2.61,9-6.12,13.95-8.37-.27-.45-.36-.54-.36-.36C215.94,83.56,216,83.38,216.12,83.11Zm4.14,21c-5.31,3.42-10.71,6.75-15.75,10.44.9-.54,1.89-1.08,2.7-1.62C211.71,110.11,215.94,107.05,220.26,104.08ZM206.67,72.76c2.34-1.44,4.77-2.79,7.11-4.41C211.35,69.7,209,71.23,206.67,72.76Zm46.8-11.61c-1.26.72-2.43,1.62-3.78,2.43-.54.27-1.53,1.08-2.07.36-.63-.9.72-2.16,1.17-2.79-.63.45-4.32,3.42-4.23.9.09-1,1.35-2.16,2-2.88l2.7-3.24c-.9.45-6.12,4.77-6.93,3.51s2.34-3.42,3-4c-1.26.81-2.52,1.53-3.78,2.34-.18.18-.63.27-.81.54s-.09.36-.27.63a28.32,28.32,0,0,1-3.33,3.24c.54-.27,3-2.43,3.42-.9.18.81-1.62,1.53-2.16,1.89-.81.45-3.24,2.7-4.41,2.16s.18-2,.63-2.52c-.72.45-2.79,1.89-3.24.45-.27-1,1.35-2.25,1.89-2.88-.72.45-4.41,2.61-3.69,0,.54-1.8,2.88-3.78,4.05-5.13-1.17.72-2.25,1.44-3.42,2.07-.45.27-1.17.9-1.71.72-1.8-.45.63-2.88,1.08-3.42-.36.18-4.68,3.24-4.32.9a2.17,2.17,0,0,1,.54-.72c.9-1.08,2-2.07,3-3.06-.54.36-2.7,2.43-3.42,1.17-.63-1,3.15-2.7,3.69-3.15s2.7-2,3.15-.54c.45,1.17-2,3-2.61,3.69.63-.36,4.23-3.51,4.86-2,.18.54-.09.72-.36,1.08-.9,1.17-2.07,2.07-3.06,3.15,3.24-1.89,6.21-3.33,9.27-5.31.63-.36,3.69-2.7,3.87-.81,0,.36-.36.63-.54.9a31,31,0,0,1-2.7,3.15c.81-.54,6.21-4.68,7-3,.45,1.26-3.15,3.69-3.87,4.41.81-.54,4-3.06,5-2.16s-1.26,2.61-1.71,3.06c.63-.45,5.13-3.51,4.59-.81A6.63,6.63,0,0,1,250.23,57c-.9,1.08-1.89,2.16-2.79,3.33.63-.45,4-3.6,4.86-2.16.54,1-1.44,2.7-2,3.33.9-.63,2.79-2.43,4.05-2.07C255.54,60.07,254.1,60.79,253.47,61.15Zm-21.6-1.71c1.53-.9,3.06-1.89,4.59-2.88.36-.36.9-.81,1.44-.63-1-1.08,1.71-3.69,2.34-4.32-.72.36-1.35.9-2.07,1.26-.18.09-.54-.09-.63,0-.9.54-1.89,2.25-2.7,3.06Zm2.52,1.8c1.35-.9,2.7-1.71,4.05-2.61.18-.18.9-.45,1.08-.72.09-.09,0-.63.09-.81a4.23,4.23,0,0,1,.54-.81c1-1.08,2.07-2.07,3.15-3.06l-3.78,2.43c-.45.27-.81.54-1.26.45.54.63-.18,1.35-.63,1.8C236.55,59.08,235.47,60.07,234.39,61.24Z"/><path class="cls-2" d="M268.41,86.08c-1.35,1-1.62-1.35,0-1.71,1.35-.18,1.44,1.71,1.71,2.61,1.17-.63,8.1-6.12,9.09-4.32.45.81-1.08,1.89-1.53,2.34-1.8,1.71-3.6,3.33-5.4,5,6.39-3.24,12.24-7.47,18.27-11.34,1.08-.63,4.59-3.6,5.67-2.7,1.35,1.08-1.89,3.06-2.52,3.51.72-.27,1.62-.45,1.71.54,0,.81-1.17,1.62-1.8,2-2.25,1.71-4.77,3.15-7.11,4.59-4.68,2.79-9.81,5.31-13.95,8.82,4.59-2.07,8.91-5.22,13.14-8,2.16-1.44,4.32-2.88,6.57-4.23A33.94,33.94,0,0,1,298,79.69c1-.36,2.43-.09,1.53,1.08-.36.54-1.26.9-1.71,1.26-1.08.72-2.16,1.53-3.15,2.25-4.32,3.06-8.55,6.12-12.78,9.18,5.76-3.24,11.34-6.66,17-10,2.52-1.53,4.95-3.06,7.47-4.5.63-.36,2.7-2.16,3.42-1.17.9,1.44-8.64,6.75-9.81,7.56-2.7,1.8-5.4,3.6-8,5.58-2,1.44-4.41,3-5.85,5,3.33-1,6.48-3.6,9.36-5.49,3.51-2.34,6.93-4.77,10.44-7.2,3.15-2.07,6.21-4.23,9.45-6.12A19.78,19.78,0,0,1,319.53,75c1.8-.54,3.15.63,1.8,2.34a52.14,52.14,0,0,1,4.86-2.79c.9-.54,2.16-1.35,3.24-1.08A2.43,2.43,0,0,1,331,74.92c.09,1.26-1.8,2.43-2.7,3.06-5.49,4.23-12.06,7.29-17.19,12a57.61,57.61,0,0,0,9.09-5.4c2.79-1.8,5.4-3.69,8.19-5.49.54-.27,4.14-2.61,3.24-.18-.27.9-1.62,1.71-2.34,2.25-1.26,1.08-2.61,2.07-4,3.06,1.08-.63,2.7-2,4-2.16,2-.09,1,1.89.18,2.7.81-.36,2.16-.72,2.43.45.09.81-.81,1.53-1.35,2a58.33,58.33,0,0,1-6.57,4.77c-4.86,3.24-10.17,6.12-14.58,10,6.93-3.06,13-8,19.26-12,.63-.36,1.89-1.44,2.52-.63.36.45,0,.81-.27,1.17A20.57,20.57,0,0,1,327.18,93c-1.8,1.26-3.6,2.52-5.4,3.69,1.44-.81,2.88-1.71,4.41-2.61.54-.36,1.71-1.26,2.43-1.08,2.7.54-2.25,4-2.79,4.32,2.61.36-3.42,5.22-4.05,5.67,1.35-.81,2.88-.63,1.8,1.26-1.17,2.07-3.51,3.69-5.13,5.49-.36.36-.72,1.26-1.17,1.35-.9.36-1.17-.36-1-1.08.18-.54.9-1,1.26-1.44.9-1,2-2,3-3-1.71,1.17-3.33,2.34-5.13,3.33-.63.36-3.6,1.35-2.52-.54.27-.63,1.35-1.08,1.89-1.53l5.4-4.32c-1.44,1-2.88,2-4.32,2.88-1,.63-2.34,1.62-3.51,1.71s-1.62-.72-1.08-1.71,2.07-1.89,3.06-2.43c-1.17.63-2.34,1.35-3.51,2-.54.36-1.53,1.08-2.16,1-1.89-.54.54-2.25,1.08-2.61-.81.36-2.43.9-2.7-.45-.09-.9,1.08-1.8,1.62-2.25a80.38,80.38,0,0,1,7.2-5.13c4.5-3,9.18-5.76,13.41-9.18a98.4,98.4,0,0,0-10.89,7.11c-.63.45-7.56,5.49-7.56,3.06,0-.81,1.26-1.26,1.8-1.62,1.62-1,3.24-2.07,4.86-3.15a106.59,106.59,0,0,0,9.72-7c-2.34,1.44-4.68,3.06-7,4.5a37,37,0,0,1-3.51,2.16A6.73,6.73,0,0,1,314,92.83c-1.44.18-1.26-.9-.54-1.62,1.8-1.8,4.32-3.24,6.39-4.77C318,87.7,316.11,89,314.13,90c-1.08.54-3.24,2.07-4.5,1.44-2.7-1.35,4.59-5.76,5.58-6.39-5.31,3.06-10.62,5.94-15.84,9,1.08.18.54,1.08.09,1.53A33.28,33.28,0,0,1,295.05,99c.45-.27,5.58-2.79,4.14-.18-.27.63-1.17,1.17-1.71,1.62L292.62,105c1-.72,6.21-5.4,7.29-3.78s-5.58,5.58-6.57,6.3c1.62-.9,3.15-1.89,4.77-2.79.81-.54,2.16-1.62,3.24-1.62,3,0-1.8,4.14-2.34,4.5.45-.27,1.53-1.44,2.25-1.35,1,.18.63,1,.27,1.44a19.33,19.33,0,0,1-3.15,2.88l-4.32,3.78a50.32,50.32,0,0,1,5.94-3.69c1-.54,3.33-1,2.52.9-.54,1.44-2.61,2.79-3.69,3.87-1.71,1.53-3.42,3.06-5,4.68,2.43-1.35,4.68-3,7-4.5.54-.45,2.34-2.07,3-1.08s-1.26,2.25-1.8,2.7c-2,1.71-4,3.24-6,4.86,1.08-.63,7.83-5.76,8.82-4.41,1.26,1.89-5.58,5.58-6.66,6.21,1.35-.72,2.7-1.62,4.05-2.43.36-.27,1-.81,1.53-.63,1.89.63-2.16,3.69-2.52,4.05.27-.18,3.87-2.7,3.33-.63-.09.45-.81.72-1.17,1-1.08.63-2.07,1.35-3.15,2-.54.36-2.88,2.16-3.42,1s1.62-2.61,2.16-3.15c-1.53.9-3,1.8-4.5,2.7-.63.36-2.16,1.62-3.06,1.35-2.52-.54,2-3.78,2.61-4.23-.54.36-3.78,2.07-2.88-.18.54-1.35,2.79-2.7,3.87-3.6-.72.45-3.15,2.07-3.78.63-.27-.81.63-1.62,1.08-2.07,2.43-2.7,5.22-4.86,7.83-7.38a57.69,57.69,0,0,0-6.3,4c-.9.63-3.33,2.88-4.59,2.61-2.52-.54,3.87-5.67,4.41-6.12-.81.45-3.24,2.34-4.23,1.35-.63-.45-.18-.9.18-1.35a23,23,0,0,1,4.14-3c1.71-1.26,3.42-2.52,5.13-3.87-3.78,2.16-7.29,4.59-11.07,6.66-.63.36-1.62.81-1.71-.36-.09-1.53,3.15-3.42,4.14-4.14-1.35.63-2.7.09-1.71-1.26a12.3,12.3,0,0,1,2.25-2.07c1.44-1.44,3-2.88,4.5-4.23-1.53.9-3,1.89-4.5,2.88-.72.54-1.89,1.71-2.79,1.89a.89.89,0,0,1-1.08-1c.09-1.17,2.07-2.43,3-3.15-.72.45-2.43,1.89-3.33,1.71-1.8-.36.09-2.34.63-2.79-.72.36-3.33,1.53-3.15-.36.09-1.08,2.43-2.25,3.24-2.7-2.52,1-3.33-.81-1.71-2.7a36.12,36.12,0,0,1,5.4-4.41l-7.83,4.59c-1.8,1-3.78,2.43-5.67,3s-1.35-1.08-.45-1.89a60.07,60.07,0,0,1,6-4.68,78.33,78.33,0,0,1-9.54,5.67c-.9.45-2.7,1.35-3.15.09-.45-1.08,1-2.16,1.71-2.7-.63.36-1.71,1-2,0s.9-1.62,1.53-2.07c-1,.36-3,.54-2.16-1a7.24,7.24,0,0,1,2-2.07c1.08-1.08,2.25-2.07,3.33-3.06-1.08.63-2.16,1.35-3.24,2.07-.36.27-1.08.9-1.62.9-.9,0-1.08-1.35-1.26-2.07A1.3,1.3,0,0,1,268.41,86.08ZM281.82,80c1.89-1.17,3.69-2.43,5.58-3.69,1.44-1,3.15-2.61,4.86-3.06.45-.09.9-.27,1.26.18.54.81-.18.9-.72,1.17a31.32,31.32,0,0,0-4.32,2.7c-1.17.72-8.28,6.57-9.27,4.41-.54-1.26,1.71-2.88,2.43-3.6,1.71-1.53,3.6-3.06,5.49-4.5-1.44,1-2.79,2-4.23,2.79-.63.45-1.8,1.35-2.61,1-2.16-.81,2.52-4.23,3.06-4.68-.72.45-3.51,2.7-4.41,1.8s.63-2.07.36-3c-.09-.18-.72-.18-.72-.72,0-.36.27-.36.45-.63a2.59,2.59,0,0,1,1.62-.63c1,.45,0,2.52-.18,3.15,2.43-1.35,4.86-2.88,7.2-4.32.63-.36,2.34-2,3.06-1.08.45.45,0,.9-.36,1.26-1.53,2-4.05,3.51-6,5.13,1.8-1.17,3.6-2.52,5.49-3.69.72-.45,2.61-2,3.69-1.44,2.07,1.08-4.32,5.22-4.95,5.76A68.17,68.17,0,0,0,281.82,80ZM296,91.84c4.5-2.61,9.09-5.31,13.68-8,2.16-1.35,4.32-2.7,6.48-4.14,1.44-1,3.15-2,4.14-3.42a18.34,18.34,0,0,0-4.77,2.43c-1.89,1.08-3.6,2.25-5.4,3.42C305.31,85.36,300.63,88.69,296,91.84Zm21.51,10.8c-.9.54-1.89,1.17-2.88,1.8A31,31,0,0,0,317.46,102.64Zm-2.7-19c3.51-2,7-4,10.35-6.21-3.15,1.71-6.12,3.51-9,5.4Z"/><path class="cls-2" d="M352.38,81.85a6.71,6.71,0,0,0,.9-1.8c.09-.54-.27-.63.27-1.08.72-.72,1.71-.63,1.71.54-.09.9-1.08,2.07-1.53,2.88,1.53-.9,3-1.89,4.5-2.79.63-.36,1.62-.72,1.53.54-.09.72-1.35,1.62-1.8,2.16-1.08,1.26-2.25,2.52-3.24,3.87A72.43,72.43,0,0,0,363.09,81c.63-.45,2.79-2.7,3.6-1.44s-2.79,3.6-3.51,4.23c-2.52,2.07-5.13,4.05-7.56,6.21,5-2.07,9.63-5.67,14.13-8.73.63-.45,1.89-1.8,2.79-1.89.72-.09,1,.54.9,1.17-.27,1-1.62,1.89-2.25,2.43,2.43-1.71,5-3.78,7.92-4.77.81-.36,2.34-.63,2.43.63.09,1-1.44,2-2.07,2.43-4.86,3.78-10.17,6.66-14.85,10.62,6.66-3.51,12.42-8.37,18.81-12.24,1.08-.72,2.61-1.89,4-2s1.53.9.9,1.8c-.81,1.26-2.43,2.25-3.6,3.24l-4.32,3.51c4-2.43,8.1-5.58,12.51-7.11,1.53-.63,2.34.36,1.35,1.8-1.26,1.71-3.33,3.06-5,4.41,2.52-1.53,5-3.15,7.56-4.59,1.35-.72,4.41-3,6-2.43,2.25.63-.72,3.24-1.53,3.87-1.89,1.71-4.05,3.24-6.12,4.77,3.6-2.25,7.29-4.41,10.89-6.57,1.35-.72,2.7-1.62,4.05-2.25.81-.27,1.89-.27,1.44.9-.27.81-1.8,1.62-2.52,2.07l-4.86,3.51c-3.51,2.43-7.11,4.77-10.44,7.38,5.49-2.79,10.62-6.39,15.84-9.72,1.08-.63,2.07-1.35,3.15-2,.72-.45,1.8-1.44,2.61-1.53,2.16-.36.54,2.07-.27,2.7.54-.27,6.48-4,5.49-1,.63-.36,5.13-2.61,4.68-.27-.09.63-1.26,1.26-1.71,1.62C419.25,85,415,88.33,411,91.75c4.41-2.61,8.46-5.76,12.87-8.37.63-.36,3.6-2,3.15.09-.27,1.35-3.33,2.61-4.32,3.24.72-.45,2.43-1.71,3.33-1.17a.79.79,0,0,1,.45,1.08c-.27.45-.72.27-1.08.36A12.73,12.73,0,0,0,422,88.87c-1.44.9-2.79,1.89-4.23,2.79a101.67,101.67,0,0,1-8.64,5.67c-.72.36-2.07,1.17-2.7.36-.9-1.08,1-2.52,1.71-3.06-2.88-.18,2.88-4.77,3.24-5,3.24-2.7,6.57-5.31,9.9-7.92C417,84,413,86.8,409.08,89.5c-2,1.35-4,2.7-6,4-.72.54-2.52,2-3.42,1.35-1.8-1.26,5.67-5.13,6.57-5.67a116.05,116.05,0,0,0,11.25-7.47c-6.21,3.42-12.15,7.29-18.27,11-.72.45-3.69,2.88-4.5,2-1.08-1.35,3.78-3.69,4.41-4.14a55.85,55.85,0,0,1-5.58,3.15c-.81.36-3.33,1.53-3.15-.36.18-1.26,2.61-2.61,3.51-3.24,2-1.53,4.05-3,6.12-4.41-3.69,2.16-7.38,4.41-11.07,6.57-.45.27-5,3.42-4.5.9.27-1,2.25-2,3-2.52,1.71-1.26,3.51-2.52,5.31-3.78,3-2.16,6.3-4.23,8.82-6.93-4.59,1.89-8.91,4.95-13,7.56-2.16,1.35-4.32,2.79-6.39,4.14a48.15,48.15,0,0,1-5,3.24c-.81.27-1.71.09-1.26-1,.63-1.35,3.06-2.52,4.23-3.42A131.3,131.3,0,0,0,392.07,81c-4.5,2.25-8.73,4.95-13,7.56-2.16,1.35-4.23,2.61-6.3,4-.63.36-2,1.62-2.7,1.44-2.34-.63,4-4.68,4.41-5,3.78-3,7.74-5.94,11.34-9.18a120.79,120.79,0,0,0-11.52,7.56c-2,1.35-4,2.7-6,4-1.35.81-3.15,2.25-4.77,2.43-2.07.36-1.53-1.44-.63-2.43a39.35,39.35,0,0,1,5.31-4c3.6-2.52,7.29-4.86,10.71-7.56-5.85,2.79-11,7.2-16.29,10.8-1.44,1-2.88,1.89-4.32,2.79-.9.54-2.34,1.53-3.42,1.44-3.06-.36,1.53-3.42,2.07-3.87-1,.45-4.68,1.53-3.42-.9.9-1.71,3.51-3.24,4.95-4.41-.9.63-4.5,3.33-5.67,2-.9-1.26,1.89-3.69,2.52-4.5-.9.54-2.25,1.71-3.33,1.44C350.85,84.1,352.11,82.39,352.38,81.85Zm63-15.93c-1.8,1-3.6,2.07-5.31,3.15-1,.63-2.52,2.07-3.6,2.25-.9.18-1.17-.45-.81-1.17.45-.9,2-1.71,2.79-2.34-1.8,1.08-3.87,2.79-5.94,3.24-1.8.45-2-1.17-.9-2.25-1.08.63-4.05,3-5.49,2.43-1.71-.63.27-2.61.9-3.24,3.51-3.33,7.65-6.12,11.52-9.09-4,2.25-7.74,4.68-11.52,7.11-1.71,1.08-3.33,2.16-5,3.15-.81.54-2.61,2.16-3.6,2-1.44-.27-.54-1.44,0-2,1.44-1.26,3.15-2.34,4.77-3.51,3.51-2.52,7.2-5,10.71-7.65-3.87,2.25-7.47,4.77-11.16,7.2-1.8,1.17-3.6,2.34-5.4,3.42-.9.63-3,2.16-4.23,1.8-1.62-.45-.09-2.07.63-2.61,1.53-1.35,3.24-2.43,4.86-3.6,3.24-2.25,6.93-4.41,9.63-7.29-4.14,2-8,5-11.79,7.65-2.07,1.44-4.14,2.88-6.21,4.14-1.26.81-3.51,2.7-5,2.52-1.8-.18-.9-1.53-.09-2.16,1.62-1.44,3.42-2.61,5.13-3.87a101.39,101.39,0,0,0,10.53-8c-4.68,2.7-9,5.94-13.5,8.91-2.16,1.35-4.32,2.88-6.66,4.05-.72.36-4.32,1.62-3.33-.54-.9.45-5,3.15-5.85,1.44-.72-1.35,2.61-3.24,3.51-3.87,4.14-3.06,8.55-5.76,12.69-8.91-2.52,1.62-5,3.24-7.47,4.86-2.25,1.35-4.5,3.06-6.93,4.05-2.07.81-2.34-.81-1.08-2.25,2-2.25,4.86-4.05,7.38-5.85-2.25,1.35-4.41,2.79-6.66,4.14-.63.45-2.16,1.89-3.06,1.62-1.62-.45,2.34-4.23,2.88-4.86-.63.36-1.71,1-2.16.09s.9-2.16,1.26-2.79c-1,.63-1.35-.54-.72-1.17a4.72,4.72,0,0,1,1.71-1c.45-.27,1.17-.81,1.62-.09s-.9,2.34-1.35,3c.81-.54,2.34-2.16,3.42-2,.81.18.63.9.27,1.44a28.23,28.23,0,0,1-3.06,3.6c2.52-1.62,4.95-3.24,7.56-4.68.63-.36,4.41-2.88,4.5-.81.09.54-.63,1-1,1.26-1.17,1.08-2.52,2-3.78,3a80.82,80.82,0,0,0-7,5.4c3.69-2.07,7.11-4.41,10.71-6.66.9-.63,7.2-5.4,7.65-3.15.27,1.35-2.25,2.88-3.15,3.51-1.71,1.35-3.42,2.61-5.22,3.78-3.24,2.25-6.66,4.41-9.81,6.84a91.1,91.1,0,0,0,13.05-7.83c2-1.26,3.87-2.43,5.76-3.69.9-.63,2.43-2.07,3.51-2.16,1.53-.18.81,1.35.18,2a56.29,56.29,0,0,1-5.4,3.6c-3.78,2.43-7.83,4.68-11.34,7.47,7.29-3.69,13.5-9.54,20.88-13.23.72-.45,2.34-1.26,2.7,0s-1.8,2.79-2.7,3.51c-3.33,2.79-7,5.31-10.62,7.92,3.24-2.07,6.39-4.32,9.63-6.48,1.53-1.08,3.06-2.16,4.68-3.15a15.87,15.87,0,0,1,4-2.16c1.89-.45,2.16,1.08,1.08,2.34a18.89,18.89,0,0,1-3.78,3.24c-3.06,2.25-6.21,4.32-9.27,6.57,5.58-3.33,10.8-7.29,16.38-10.62.63-.36,5.31-3.15,4.59-.36-.18.81-1.35,1.53-2,2a36.12,36.12,0,0,1-3.51,2.7,70.77,70.77,0,0,1,8-4.59c.63-.36,1.89-1.08,2.52-.45s0,1.26-.45,1.8c-2.07,2.16-4.86,3.78-7.2,5.67a71.56,71.56,0,0,0-7,5.67c3.69-1.89,7.11-4.23,10.62-6.48,1.44-1,3-2,4.5-3,.81-.54,2.7-2.16,3.69-2,2.79.45-3.15,4-3.69,4.41-3.24,2.16-6.75,4.23-9.72,6.93,2.7-1.35,5.22-3.06,7.83-4.68,1.08-.72,2.25-1.53,3.42-2.25a7.43,7.43,0,0,1,2-1.26c.63-.18,1.26-.09,1.17.81s-2.7,2.43-3.33,3.06c.63-.36,4-2.88,4.59-1.44.54,1.26-2.43,3.42-3.06,4.05,1.26-.81,3.06-2.07,3.33-.09.09.72.63,2.7-.09,3.06-1.35.63-1.26-1.89-1.35-2.52-1,.63-2,1.35-3,2.07-.63.36-1.8,1.44-2.61,1.35-1.17-.27-.54-1.44,0-2A29.12,29.12,0,0,1,415.38,65.92Zm-44.55,50.13c2.07-1.26,4.05-2.7,6.12-3.87.63-.36,4.05-2.61,3.6-.36-.18,1.08-2.43,2.52-3.15,3.24-1.71,1.62-3.42,3.15-5,4.86,6.12-2.79,11.52-7.29,17.19-10.89.72-.45,2.25-1.8,3.15-1.62,1.17.09.9,1.35.45,2.07-1.62,2.7-5.22,4.68-7.65,6.48,7.74-4.95,15.48-10.08,23.31-14.85a109.66,109.66,0,0,1,11-6.12c1.17-.54,3.78-1.8,4.32,0,.27.81-.36,1.71-.81,2.25-.27.36-.72.72-.81,1-.18.63.27.81-.18,1.44,1.26.09,1.8,1,1,1.89-1.08,1.08-3.06,1.8-4.32,2.52-3.69,2.07-7.38,4-11,6.12-4.05,2.25-8.1,4.5-12,7.11l-5.58,4c-1.71,1.08-4,2.16-5.22,3.6a139.16,139.16,0,0,0,13.32-7.47c4.86-2.79,9.63-5.76,14.49-8.64,1.71-1.08,3.33-2.07,5-3.15a11.48,11.48,0,0,1,2.25-1.35c1.89-.27.45,1.89-.18,2.43a45.43,45.43,0,0,1-6,3.78c1.35-.18,1.89,1,.63,1.53-.18-.09-.45-.18-.63,0a4.39,4.39,0,0,0-1,.36,21.47,21.47,0,0,0-2,1.08c-2.88,1.62-5.58,3.51-8.37,5.4s-5.4,3.69-8.19,5.31c-.72.45-2.07,1.53-3.06,1.35-1.17-.09-1-1.35-.45-2.07-.9.45-7.65,4.95-7.83,2.25-1.08.63-5.13,3.42-6.12,1.44-1.62.9-4.86,3.15-6.84,2.25-2.52-1.17,1.44-3.42,2.34-4-.81.45-3.51,1.08-2.43-.72a6,6,0,0,1,1.8-1.26c1.26-.9,2.61-1.71,3.87-2.61,5-3.42,10.53-6.75,15-11-5.31,3.33-10.26,7.11-15.66,10.17-.9.54-5.67,3.24-5.22.54.18-1,1.62-2.07,2.34-2.7,1.08-1.08,2.25-2.16,3.42-3.24-1.08.63-2.16,1.35-3.24,2.07a13.29,13.29,0,0,1-2.43,1.44c-2,.27-.54-2.88-.36-3.69-.45.27-1.26,1-1.71.18s.63-1.17,1.08-1.53c.45-.18,1.26-1,1.8-.9.72.09.81.81.63,1.44A24.83,24.83,0,0,0,370.83,116.05Zm14.22,4.14c-4.5,2.43-9.72,4.59-13.68,7.83a5.44,5.44,0,0,0,2-.54C377.58,125.68,381.09,122.62,385.05,120.19Zm-6.93,2.16c8.28-4.59,16.92-8.73,24.84-14.13,3.78-2.61,7.56-5.22,11.52-7.65a40,40,0,0,1,4.32-2.34c1.44-.63,3.42-.9,3.87-2.7-2.43.27-5.22,2.25-7.38,3.42C402.6,106.15,390.54,114.7,378.12,122.35Zm7.65.09A67.86,67.86,0,0,1,393.6,117c-2.7,1.53-5.31,3.24-7.92,5-1.26.9-2.61,1.71-4,2.52-.9.54-2.34,1.08-3,1.89A20.62,20.62,0,0,0,385.77,122.44ZM403.05,117c-3.33,2-7,3.87-10,6.48.45-.27,1-.54,1.44-.81C397.38,120.82,400.17,118.84,403.05,117ZM420.6,88.06A112.4,112.4,0,0,0,409,95.71c1.17-.63,2.34-1.44,3.42-2.16C415.11,91.75,417.81,89.86,420.6,88.06Zm-1.35,14.22a9.84,9.84,0,0,0,1.35-.72c-.09,0-.18.09-.27.09A11.47,11.47,0,0,0,419.25,102.28Z"/><path class="cls-2" d="M460.29,79.51a47.9,47.9,0,0,1-7.47,4.41c-1.89.81-2.61-.45-1.26-1.89,3.87-4,8.91-6.93,13.14-10.44-2,1.26-4,2.61-5.94,4-1.62,1-3.51,2.7-5.4,3.15s-1.26-1.53-.45-2.43a70.83,70.83,0,0,1,5.58-4.77c-1.62,1.08-3.87,3.06-5.85,3.33-1.08.18-1.89-.36-1.35-1.44.72-1.17,2.61-2.16,3.69-3,1.89-1.44,3.78-2.88,5.76-4.32-1.44,1-3,1.89-4.5,2.79-.81.54-2.79,1.89-3.87,1.35-1.8-.9,1.44-2.79,2.07-3.24-.63.36-3.42,2.07-3.42.18-.09-.9,1.71-2,2.25-2.43,3.42-2.52,7-4.86,10.17-7.65-4.05,2.34-7.83,5.31-12.06,7.47-.9.45-2.07.45-1.53-.9a8.31,8.31,0,0,1,1.53-2c.9-1.08,1.8-2.07,2.7-3.15-.81.45-3,2.25-3.69.81-.18-.36.09-1,.18-1.35s.36-.72.36-1a4.39,4.39,0,0,1,.27-.63,1.24,1.24,0,0,1-.36-.27c0-.63.72-2,1.71-1.44s-.27,2.79-.45,3.42c1.53-.9,2.88-2.25,4.41-2.88.45-.27.9-.45,1.26.09.45.72-.72,1.89-1.08,2.34-1.17,1.44-2.34,2.79-3.42,4.14,2.07-1.35,4.23-2.7,6.3-4.05a31.55,31.55,0,0,1,5.4-3c1.08-.36,2,.09,1.44,1.35-.81,1.8-3.42,3.33-5,4.5a26.34,26.34,0,0,1,5-3.15c.9-.36,2.34-.27,1.8,1.08-.45,1.08-2.25,2-3.15,2.61-2,1.44-4,2.79-5.94,4.23,2.79-1.89,5.49-3.87,8.37-5.58.9-.54,3.87-1.71,2.61.54a9.13,9.13,0,0,1-2.43,2.16c-1.26,1.08-2.52,2-3.78,3-2.61,2-5.31,3.87-7.83,5.85,2.7-1.8,5.4-3.78,8.19-5.58.45-.36,4.05-2.52,3.51-.27-.09.54-1.08,1.17-1.44,1.44l-3.24,2.7c-2.61,2.07-5.31,4.14-7.74,6.3,2.79-1.71,5.58-3.69,8.37-5.4,1.08-.72,2.43-1.89,3.69-2.16,1-.18,1.71.36,1.26,1.35s-1.89,2-2.79,2.7c-1.26,1.08-2.52,2.07-3.78,3.06-2.61,2-5.22,3.87-7.74,5.94,3.24-1.89,6.39-4,9.54-5.94.54-.36,3.69-2.88,3.78-.9.09.81-1.35,1.8-1.89,2.25q-2.16,1.89-4.32,3.51c-3,2.34-5.85,4.59-8.73,6.93,3-1.53,5.76-3.42,8.64-5.22,1.17-.81,2.43-1.71,3.69-2.52A13.07,13.07,0,0,1,467.49,78c.72-.18,1.26.27,1,1.08-.27,1-1.62,1.89-2.25,2.43-2.61,2.34-5.4,4.41-8.1,6.48,1.17-.63,10.71-7.29,11.52-5.76.54.9-1.62,2.07-2.07,2.43-2.25,1.8-4.5,3.51-6.75,5.31,1.53-1,3.06-2.07,4.68-3.06.9-.54,2.34-1.62,3.51-1.53,3.06.27-2.25,4.41-2.79,4.86,2.61-1.35,1.62,1.44,1.26,2.79,1.53.09,0,2-.9,1.89-1.53,0-.54-2.25-.27-3.06-.81.45-5,4.23-5.58,2.43-.36-1,1.17-2.07,1.8-2.7,1.35-1.26,2.88-2.52,4.23-3.78-2.07,1.26-4,2.61-6.12,4-1.08.81-3.15,2.79-4.5,2.79s-.9-1.35-.36-2a33,33,0,0,1,5.31-4.68c-1.08.63-8,5.85-9,4.41-1-1.62,7.29-7.11,8.55-8-2.79,1.71-5.67,3.78-8.73,5-.81.36-2.7.81-2.43-.63.09-.72,1-1.35,1.44-1.71C454,84.28,457.23,81.94,460.29,79.51Zm1.89,44.1a158.85,158.85,0,0,0,13.86-9c5-3.42,10-6.84,15.12-10.17,4-2.61,8.19-5.49,12.78-7.29,1.08-.45,5-1.62,4.41.9-.45,1.89-4.32,3.87-5.76,4.86.81-.45,4.77-3.42,5.67-2.16,1.08,1.53-4,4.59-4.86,5.31.81-.18,1.89,0,2,1.08s-1.62,2.07-2.34,2.7c1.53,0,1.17,1.26.45,1.8-2.88,2.43-6.12,4.23-9.09,6.39.54-.36,2.07-1.62,2.88-1.26,1,.45.27,1.08-.27,1.44-1.35.9-2.79,1.62-4.14,2.52-1,.63-2.43,1.89-3.6,2.07a.9.9,0,0,1-1.08-1.17c.36-1.17,2.07-2.16,2.88-2.88,2.79-2.16,5.67-4.14,8.55-6.12a164,164,0,0,0-16,10c-1.17.72-2.34,1.44-3.51,2.25-.36.27-1.17,1-1.62,1-1.17,0-1-1.08-.36-1.62-.9.54-8.64,5.94-9,2.79-.09-1.26,2.7-2.52,3.51-3.06,2-1.17,3.87-2.43,5.85-3.6,8.46-5.31,17.28-10.44,25.38-16.47-7.65,4.32-15.12,8.73-22.59,13.14-6,3.6-12,7.11-18.09,10.53-.72.36-3.06,1.26-2.07-.54.54-1,2.61-1.89,3.51-2.43,1.44-.81,2.88-1.62,4.32-2.52,6.84-4.14,13.68-8.19,20.43-12.33,3.33-2.07,6.75-4.23,10.08-6.39,2.43-1.62,5.49-3.24,7.38-5.49-2.25,0-4.59,1.62-6.48,2.61-2.52,1.44-5,3-7.47,4.59-5.31,3.33-10.44,6.93-15.57,10.44-4.59,3.15-9.18,6.57-14.13,9.09-1,.54-4.05,1.89-3.51-.36.18-.9,1.62-1.89,2.43-2.52a40.18,40.18,0,0,1,3.87-3c-1.08.54-4,2.7-5.31,1.8-1.44-1,1.08-2.88,1.71-3.51-.72.45-2.16,1.8-3.06,1.17-.63-.63-.63-2.25-.81-3.06-.54.36-2.25,1.26-2-.27.09-.54,1.44-1.17,1.89-1.35,1.71-.63,1.62,2,1.89,3.15,1.71-1,3.42-2.16,5.13-3.15.63-.45,1.8-1.53,2.52-.9,1.44,1.26-4.5,5.4-5.31,6.21,5-2.25,9.54-5.76,14.13-8.82.72-.45,2.52-2.16,3.33-1.44,1.17,1-1.71,2.7-2.25,3.15C472.71,115.69,467,119.2,462.18,123.61Zm20.34-4.14c-3.42,2.16-7,4.23-10.44,6.57.09,0,.18-.09.27-.09A62.84,62.84,0,0,0,482.52,119.47Zm21.06-12.06c-3.51.81-6.93,3.87-9.81,5.85-3.78,2.61-7.47,5.4-11.25,8,5.22-3.24,10.44-6.3,15.57-9.72A27.47,27.47,0,0,0,503.58,107.41ZM493.41,97c-.72.54-3.51,2.61-4.05.9-.45-1.44,2.16-3.15,3.06-3.87-.81.36-2.7,1.53-3.33.36-.18-.36,0-.63.18-.9.36-.72,1.71-1.35,2.34-1.8,1.53-1,3-2.07,4.5-3.06-1.08.63-5.22,3.69-6.48,2.34-1.53-1.71,3.87-5,4.95-5.76-.54.27-2.07,1.53-2.61.54-.45-.81.63-1.44,1.08-1.8,3.87-3,7.92-5.67,11.7-8.55-2.61,1.8-5.31,3.69-8.1,5.4-.63.45-3.78,2.61-4.23.9-.36-1.44,4-3.51,4.95-4.23,2.88-1.89,5.76-3.78,8.55-5.76-2.7,1.53-5.4,3.15-8,4.77-1.17.72-2.34,1.44-3.42,2.16A9.26,9.26,0,0,1,492.06,80c-.72.18-1.26-.09-1-.9.09-.36.54-.63.72-.81,1.08-.9,2.34-1.71,3.51-2.61-.72.45-2.52,1.44-3.15.36-.36-.81.45-1.53,1-2-.9.36-2.16.18-1.89-1,.27-1,2.52-2.07,3.24-2.61-.72.27-2.7,1.17-3-.18-.18-1,1.44-1.8,2.07-2.34,3.51-2.88,7.2-5.58,10.8-8.46-3.06,1.8-6,3.6-9,5.49-.72.36-3.6,2.88-4.5,1.89s1.8-2.61,2.25-3.06c2.52-2.25,5-4.41,7.56-6.66q-2.56,1.49-5.13,3.24c-1.08.63-2.43,2-3.6,2.34-.81.27-1.35-.27-1-1.08s1.89-1.8,2.52-2.43c-1.71.63-1.08-2.52-1-3.15-.54.36-1.71.81-1.71-.27,0-.63,1.08-1.08,1.53-1.35,2.34-1.08,1.62,1.35,1.53,3,.81-.63,3-2.79,4.05-2.16s-.18,1.8-.72,2.34a46.82,46.82,0,0,1,5.4-3.15c.81-.27,2.52-.63,2.16.81-.27.81-1.71,1.71-2.34,2.25-1.71,1.53-3.33,3.06-5,4.5,3-1.8,5.85-3.6,8.82-5.22.81-.45,4-1.8,2.79.45a10,10,0,0,1-2.43,2.34c-1.26,1-2.52,2.07-3.87,3.06l-7.29,5.67c3.78-2.07,7.2-4.68,10.8-7,.54-.45,2-1.71,2.7-.9,1,1.17-2.16,3.06-2.88,3.6.63-.36,3.42-1.35,2.61.54-.27.63-1.62,1.17-2.07,1.53-3.78,2.52-7.56,5.13-11.07,7.92,2.34-1.26,4.5-2.79,6.66-4.23,1.44-1,3.42-2.88,5.13-3.33.9-.27,1.44.27,1,1.17-.72,1.44-3.15,2.7-4.41,3.69,1.26-.81,2.52-1.53,3.87-2.25a6.47,6.47,0,0,1,2.52-1.17c2.52,0-.54,2.79-1.08,3.24.63-.27,1.62-.36,1.71.54.18.72-.9,1.44-1.35,1.89a78.53,78.53,0,0,1-6.93,5.31c1.71-1,3.42-2.07,5.13-3.06.63-.36,1.8-1.44,2.61-1.44a.8.8,0,0,1,.81,1.17c-.27.9-1.71,1.62-2.43,2.16-3.06,2.16-6.3,4-9.36,6.12-2.7,1.71-5.67,3.42-7.92,5.76,5.76-2.52,10.8-6.66,16.11-10,.54-.36,1.62-1.35,2.34-.9.54.36.36.9.09,1.44a13.75,13.75,0,0,1-3,2.61c-1.44,1-2.79,2-4.23,3,.72-.45,4.59-3.69,5.31-2.25.63,1.08-2.07,2.34-2.61,2.7-4.59,3.24-9.36,6.3-13.41,10.08,4-2.34,7.65-5,11.43-7.47,1.35-.9,3.51-2.7,5.22-2.79.9,0,1.35.72.81,1.44-.81,1.17-2.7,2.07-3.87,2.79-1.8,1.35-3.69,2.61-5.49,3.87a86.67,86.67,0,0,0-10.8,8.1c4.32-2.43,8.37-5.31,12.6-8a22.9,22.9,0,0,1,5.76-3.33c.45-.18,1.26-.36,1.62.27.54,1-.72,1-1.17,1.17-2.16.54-4.32,2.34-6.21,3.51-2.16,1.44-4.41,3-6.66,4.41-1.89,1.26-3.78,2.52-5.76,3.6-.54.27-1.44.9-2.07.63-1.35-.54-.27-2,.27-2.61A56.81,56.81,0,0,1,493.41,97Z"/><path class="cls-2" d="M586.65,99.67c5.85-2.7,11.07-6.84,16.56-10.26.45-.36,1.17-1,1.71-.45.45.36.27.81,0,1.17a10.05,10.05,0,0,1-2.52,2.25c-1.26,1.17-2.61,2.25-4,3.33,1.35-.9,2.7-1.8,4-2.61.63-.45,1.71-1.44,2.43-1.35,2.25.45-1.8,4-2.25,4.59.72-.45,2.34-2,3.15-1,.63.63.09,2.16,0,3,0,.54,0,2.25-1.17,1.35-.63-.54-.18-2.25-.09-2.88-1,.63-7.2,5.58-8,4-.18-.54.09-.81.36-1.17,1.26-1.62,3.15-2.88,4.59-4.23-1.8,1.17-3.69,2.43-5.58,3.51-.81.54-3,2.16-4,1.62-2-1,3.42-4.14,3.87-4.59a59.93,59.93,0,0,1-8,4.68c-.72.36-2.16,1.26-2.88.54-1.17-1,.45-2.34,1.17-3-1.26.72-2.61,1.53-4,2.16-.72.36-2,1.17-2.79,1.08-2.43-.36.63-3.06,1.35-3.51a25.91,25.91,0,0,1-5.49,2.7c-2.43.63-2.43-1.53-1.08-2.88-1.26.81-7.11,5.31-8.46,3-1.08-2,4.32-5.13,5.49-5.94-2.25,1.35-4.59,2.7-6.93,4-1.35.72-3.06,2-4.59,2.16-.54.09-1.26.09-1.35-.63-.09-1,1.89-1.71,2.43-2.07,7.38-4.77,15-9.09,22.14-14.4-9.18,4.77-17.64,10.71-26.37,16-.63.27-2,1.44-2.52.54-.45-.72.45-1.26,1-1.53,4.23-3,8.73-5.58,13.14-8.46-4,2.52-8,5-12.15,7.29-1.26.63-3.51,2.25-5,2.07-1.8-.27-.72-1.53.18-2.07,3.6-2.16,7.11-4.41,10.62-6.75,3.15-2.07,7-4.23,9.54-7.11-3.6.54-7.29,3.33-10.26,5.22-3.6,2.25-7.11,4.59-10.62,6.93-1.62,1.17-3.24,2.25-4.86,3.42-.63.36-1.53,1.35-2.25,1.44-1.8.27-.54-1.71,0-2.25a44.57,44.57,0,0,1,4.68-3.42c-1.53,1-3.06,2-4.59,2.88-1,.54-2.16,1.62-3.24,1.8-1.71.27-1.26-1.44-.54-2.34A26.54,26.54,0,0,1,543,94.81c2.88-2,5.94-3.87,8.91-5.85,2.43-1.53,5.22-3.15,7.2-5.31-4.14,1.62-8,4.86-11.7,7.38-3.33,2.34-6.93,5.49-10.89,7-1.17.45-2.88.18-2-1.35s3.15-2.61,4.5-3.6c4-2.88,8-5.58,11.88-8.64-4.41,2.61-8.64,5.58-13,8.19-.72.45-3.78,2.79-4.5,1.35-.54-1.26,2.16-3,2.79-3.51-.63.36-2.88,1.53-2.52-.18,0-.27.36-.54.45-.72.9-1.17,2-2.34,2.88-3.51-.9.63-3.51,2.61-3.87.54a6.12,6.12,0,0,1,.27-1.71,2.63,2.63,0,0,0,.18-.81c-.09-.36-.18,0-.27-.36-.09-.72-.36-.9.45-1.35s1.26-.45,1.44.54c.18.81-.36,2.07-.45,2.88.9-.54,4.23-3.69,5.31-2.79,1.17,1.08-2.34,4.5-3,5.22,2.34-1.44,4.68-3,7.11-4.41.45-.27,2.79-1.8,2.79-.18.09.81-1.53,1.53-2,1.8-2.34,1.8-4.68,3.6-6.93,5.4,3.24-2,6.48-4.14,9.72-6.21.81-.54,5.94-4.41,6.75-2.61s-5.76,5.85-7,6.75c-3,2.16-5.94,4.23-8.91,6.39,3.78-2.34,7.47-5,11.16-7.56,1.71-1.17,3.42-2.34,5.22-3.42,1.26-.72,2.88-2,4.32-2.16,2.79-.27.9,2.61-.09,3.42a43.49,43.49,0,0,1-5.22,3.87c-3.69,2.43-7.38,4.68-11,7.2,5.13-3.06,10.17-6.39,15.3-9.54,2.34-1.35,4.59-2.79,7-4,.72-.36,2-1.26,2.79-1.08.54.18,1.08.72.63,1.26,1-.36,3.24-1.44,4,0,.45,1.08-1,2.25-1.8,2.88a73,73,0,0,1-9.09,6.57c4.59-2.79,9-5.67,13.41-8.55.9-.63,2.61-2.16,3.69-2.34,2.25-.36.09,2.43-.45,3,1-.54,6.84-4.59,7.65-2.7s-5.58,5.31-6.84,6.12c2.07-1.26,4.14-2.52,6.12-3.78a21.09,21.09,0,0,1,3.87-2.34c.54-.18,1.08-.18,1.17.54.27,1.17-2.16,2.34-2.88,2.88-3.6,2.52-7.29,4.86-11,7.29-3.06,2.16-7.11,4.23-9.45,7.2,2.61-.63,5.22-2.7,7.47-4.14,2.61-1.71,5.13-3.51,7.74-5.31,2.43-1.71,5-3.51,7.47-5.13,1.89-1.26,4.68-3.69,7-3.87,1,0,1.62.45,1.35,1.44s-1.71,1.8-2.43,2.25c-2.43,1.71-5,3.24-7.47,4.86-2.7,1.62-5.31,3.15-7.92,4.86-2,1.35-4.32,2.61-5.76,4.5,2.52-.72,4.86-2.43,7.11-3.78,2.61-1.62,5.13-3.24,7.65-5,2.25-1.53,4.5-3.06,6.84-4.5,1.44-1,3.42-2.79,5.13-3.15.54-.09,1.08-.09,1.17.54.27.63-.54,1.17-1,1.53-2.07,1.62-4.32,3-6.48,4.41-4.59,3.15-9.36,6.21-13.68,9.72,6.84-3.42,13.41-7.83,19.89-12,.72-.45,5.13-4,4.86-1.35-.09,1.35-2.43,2.61-3.42,3.33-1.53,1-3.15,2-4.68,3C594.21,94.45,590,96.61,586.65,99.67Zm-.72-10c3.33-2.07,6.75-4,9.81-6.3-.9.45-1.89,1.08-2.79,1.62C590.52,86.53,588.27,88.06,585.93,89.68Z"/></g></g></svg>