<svg xmlns="http://www.w3.org/2000/svg" viewBox="0 0 750.12 131.89"><defs><style>.cls-1{fill:#333;}.cls-2{fill:#fff;}</style></defs><title>アセット 3</title><g id="レイヤー_2" data-name="レイヤー 2"><g id="レイヤー_1-2" data-name="レイヤー 1"><polygon class="cls-1" points="725.39 131.89 0 131.89 24.73 0 750.12 0 725.39 131.89"/><path class="cls-2" d="M80.77,49.67c1-1.4,2.3-2.7,3.4-4-.9.5-1.9.8-2.3-.3-.1-.2,0-.5,0-.7a6.6,6.6,0,0,0,.1-1.4c-.1-.1-.6-.1-.6-.4-.3-1,1.3-2.2,2.1-1.2.4.6.1,1.9,0,2.5.7-.4,4.6-3.9,5.2-2.1.2.7-.6,1.4-.9,1.8l-3.9,4.5c3.2-1.8,6.3-3.6,9.4-5.5,1.1-.7,2.3-1.4,3.5-2.2.8-.6.4-.6.9-1.2,1.4-1.7,3.9-3.1,5.6-4.5,3-2.3,6-4.7,8.8-7.2-2.2,1.4-4.4,2.9-6.6,4.4-1.7,1.1-3.9,3.1-5.9,3.5-1.1.3-1.7-.4-1.2-1.5,1-1.9,3.2-3.6,4.7-5.1-.8.5-3.3,3-4.3,1.7-.8-1,.5-2.9.3-4.1-.1-.7-1-1-.1-1.9.5-.4,1.4-.8,1.9-.1s-.4,3.4-.5,4.3c.7-.5,7.3-5.4,7.5-2.9,0,.7-1,1.4-1.4,1.8-1.5,1.5-3,3.1-4.5,4.7,1.6-1,13.1-9.9,14.3-7.6.8,1.4-2.8,3.8-3.6,4.5-2.8,2.3-5.6,4.6-8.5,6.9,2.3-1.5,4.5-3,6.8-4.6,1.1-.7,3.8-3.2,5.3-3a.88.88,0,0,1,.9.8c0,.7-1.3,1-1.8,1.3-2.2,1.2-4.3,2.8-6.4,4.2s-4.4,3-6.6,4.3a11.88,11.88,0,0,1-2.5,1.3c-1.3.4-.9.6-1.7,1.6-1.7,2.1-4.1,3.7-6.2,5.3l-6.3,5.1c5.6-3,11-6.3,16.5-9.6l7.8-4.8c1.3-.8,2.6-1.6,4-2.4a9.17,9.17,0,0,1,2.1-1.3c1-.2,1.7.2,1.2,1.3-.7,1.9-4.1,3.7-5.7,4.8-5.7,4.1-11.6,8-17.5,11.9,5-2.9,10-5.9,14.9-9,1.8-1.1,3.6-2.2,5.4-3.4.6-.3,2.1-1.7,2.9-1.3,2,1.1-4.6,4.7-5.1,5.1-4.5,3.2-9,6.4-13.5,9.7,2.4-1.5,21.8-15.5,23.4-12.5,1.2,2.4-8,7.2-9.5,8.2-3.9,2.5-8,4.9-11.5,7.9,6.3-3.3,12.1-7.4,18-11.2a91.22,91.22,0,0,1,7.9-4.7c2.4-1.2,3.3.4,1.3,2.1a45.55,45.55,0,0,1,5.8-3c.7-.2,1.5-.1,2.1-.3a23.07,23.07,0,0,0,1.9-1.4c3.9-2.8,8-5.5,11.91-8.4-1.6,1-13.91,10.2-15.11,8-.6-1,1.3-1.9,1.9-2.4,3.1-2.1,6.2-4.2,9.11-6.5-2.41,1.5-4.91,3.1-7.41,4.6-.6.4-2.3,1.8-3.1,1.2-.5-.3-.3-.8-.2-1.2a10,10,0,0,1,1.6-2c.8-1.1,1.7-2.2,2.5-3.2-.7.5-4.2,3.6-5.1,2.1-.5-.9.7-2.3,1.2-3,.3-.5.7-1.1,1-1.6.1-.4,0-1,.3-1.3.3-.5,1.4-1,1.8-.5.9,1-1.2,3.2-1.6,3.9.8-.5,4.7-3.9,5.6-2.3.81,1.4-2.9,4.9-3.6,5.8,3.2-2,6.41-4.2,9.81-5.9.6-.3,1.6-1,2.1-.1.7,1.1-1,2.4-1.7,3,1.1-.7,5-4,6.6-3.2,2.1,1.1-2.6,4.2-3.3,4.7,1-.2,2.4.6,1.3,1.5-.3.3-1.3.2-1.8.4s-1.1.6-1.6.9c-2.6,1.5-5.1,3.3-7.6,5-1.91,1.3-4.41,2.4-6,3.9a50.72,50.72,0,0,1-6.1,5.2c-9.9,6.9-20.8,12.4-30.6,19.5,2.5-1.1,4.8-3.2,7.2-4.6,3-1.9,6-3.7,9.1-5.4,6.2-3.6,12-7.8,18-11.7,5.3-3.5,10.61-7.2,16.41-10,1.1-.5,4.4-2.1,4.6.1.1.7-.6.8-.7,1.3s.1,1-.3,1.7a12.68,12.68,0,0,1-3.6,3.3c.7-.4,2.7-1.5,2.8.1.1,1.1-1.9,2.2-2.5,2.8-3.5,2.6-7.11,5.1-10.71,7.7,4.2-2.7,8.41-5.4,12.81-8a37.06,37.06,0,0,1,5.6-2.9c.9-.3,3.1-.6,2.5,1-.4.9-2.4,1.8-3.1,2.2-2,1.3-4,2.6-6.1,3.9-4,2.6-8.11,5.2-11.91,8,6.41-3.8,12.81-7.7,19.21-11.4a85.08,85.08,0,0,1,7.8-4.3c1.5-.7,2.9,0,1.6,1.6.8-.3,2.9-.8,2.7.7,0,.7-1.1,1.2-1.5,1.6-3.1,2.3-6.3,4.4-9.5,6.5-6.8,4.6-13.6,9.1-20.41,13.8,7.91-4.3,15.41-9.1,23.11-13.9,2.5-1.5,5-3.2,7.5-4.6,2-1.1,2.6.4.9,1.6,2.7.6-3.7,6.5-4.3,7.1.9-.6,3.8-3.2,4.9-2.4,1.3.9-1,3.3-1.5,4,1.1-.7,1.7.5,1,1.3a7.1,7.1,0,0,1-2.2,1.3c-.7.4-1.8.8-1.8-.5,0-1.1,1.4-2.5,2-3.4-.9.6-6.7,5.4-7.3,3.2-.3-1.1,1.6-2.4,2.1-3,1.7-1.7,3.5-3.5,5.1-5.3-2.3,1.2-4.4,2.6-6.6,4-1.7,1.2-3.5,2.8-5.4,3.6a6.15,6.15,0,0,1-1.1.3,16,16,0,0,0-3.2,2.1c-2.2,1.5-4.5,3-6.7,4.5.9-.5,5.9-4.1,6.8-2.2.4.9-.9,1.5-1.5,1.9-5.1,3.6-10.31,7.1-15.21,11,3-2,6-4,9.11-5.8a37.2,37.2,0,0,1,7.6-4.1c.6-.2,3.3-.5,2.4,1.1-.3.4-2.3.5-2.9.8a70.08,70.08,0,0,0-8.41,4.8c-2.8,1.8-5.6,3.6-8.3,5.5-.9.5-3.4,2.9-4.5,2.6-2-.5.8-3.4,1.4-3.9a80.8,80.8,0,0,1,7.9-6.3c-.5.4-6.3,5.2-6,2.1.2-1.5,2.8-3.1,3.9-3.9,2-1.5,4-2.9,6-4.3-1.31.7-9.41,6.4-10.91,4.6-1.2-1.4,3.8-4.1,4.7-4.7,8.41-5.9,17-11.5,25.61-17.4-5.9,3.6-11.6,7.5-17.3,11.3-2.51,1.6-5,3.3-7.61,4.7-.7.4-5.7,2.7-4.5.1.1-.2.3-.2.4-.3a24,24,0,0,1,3.8-2.3c2.6-1.5,5.21-3.1,7.91-4.8,5.9-3.6,11.9-7.2,17.4-11.3-8,4.5-15.8,9.3-23.71,14-.7.4-6.5,4.8-6.1,1.7.2-1.7,3.2-3.5,4.5-4.5,1.8-1.3,3.71-2.6,5.6-3.9l-8.7,5.7c-.7.4-2.7,2.3-3.4,1-1-1.7,3.4-4.5,4.4-5.2,2.6-2.1,5.4-4,8.1-6l-14.1,8.7c-1.4.8-3.9,2.9-5.6,2.9-1.5,0-1.2-1.2-.4-2,1.8-1.7,4.3-2.9,6.3-4.2,2.4-1.4,4.8-2.9,7.1-4.3,4.6-2.8,9.41-5.5,13.31-9.1-9.11,6-19.21,10.3-28.31,16.4-1.8,1.3-3.8,3-5.9,3.8a6.88,6.88,0,0,1-1.3.2,22,22,0,0,0-3.2,2.1c-2.3,1.4-4.6,2.9-7,4.3-1.9,1.1-4,2-5.6,3.6,4.4-2.2,8.5-5,12.7-7.6.7-.4,2.2-1.9,3.1-1.6,1.7.7-.6,2.8-1.2,3.3,1.9-.8,3.3,0,2,1.7-1.8,2.4-4.7,4.2-6.9,6.1,1-.7,6.8-5.6,7.9-4,1.1,1.4-3.8,5.5-4.6,6.4a4.78,4.78,0,0,1,1.7-1c1.1-.2,1.4.7.7,1.5-.9,1-3,1.7-4.1,2.3-.9.5-3.1,1.9-2.7-.2a6.84,6.84,0,0,1,1.7-2.1c1.2-1.2,2.3-2.5,3.5-3.7-2.8,1.8-5.5,3.7-8.3,5.3-.7.4-3.6,2.1-3.7.3,0-.5.4-.8.7-1.1a27.62,27.62,0,0,1,3.7-3.1c2.7-2.1,5.4-4.1,7.9-6.4-3,1.6-5.9,3.5-8.7,5.3-2.3,1.6-4.8,3.8-7.4,4.8-1.7.7-1.9-.8-.8-1.8a54,54,0,0,1,7.4-5.1c-1.6.9-3.5,2.3-5.3,2.8s-2.1-1-1.2-2.3c-1.6,0-1.6-1.3-.9-2.2,1.1-1.3,3-2.2,4.4-3.2,3.8-2.5,7.7-4.8,11.6-7.2s8-4.9,12-7.5c3.2-2.1,6.8-4.1,9.4-6.9-4.8,1.7-9.2,4.7-13.5,7.3-4.5,2.8-9,5.6-13.4,8.4-2.1,1.3-4.2,2.7-6.3,4-1.1.7-2.4,1.9-3.7,2.3-.6.2-1,.4-1.3-.2-.9-1.6,2.7-3.7,3.6-4.4-.6.3-1.4.5-1.9-.2-.7-1,.7-2.2,1.4-2.8a57.26,57.26,0,0,1,6.3-4.7c4.5-2.9,9.2-5.6,13.4-9-7.9,3.7-14.9,9.2-22.2,13.8a42.1,42.1,0,0,1-4.5,2.8c-.9.4-2.9,1-2.4-.7.2-1.1,2.2-2.2,3-2.8,1.7-1.4,3.5-2.7,5.2-4A93.41,93.41,0,0,1,87,58.27c-1.2.5-3.8.6-2.1-1.2,1.1-1.3,3-2.2,4.4-3.2,1.8-1.2,3.7-2.5,5.6-3.7,3.9-2.6,7.9-5.3,11.8-8-6.7,4.1-13.5,8.3-20.4,12-.9.5-2.8,1.9-3.9,1.6-1.5-.4-.3-1.9.3-2.6,2.9-2.9,6.5-5.3,9.7-7.9-1.2.7-10.9,7.5-11.9,5.8C80.17,50.47,80.47,50.07,80.77,49.67ZM102,94.87c.1-.7-.1-2.7.2-3.1a1,1,0,0,1,1.7.2,2,2,0,0,1-.1,1.1c-.1,1.2-.3,2.3-.4,3.5a105.69,105.69,0,0,0,9.1-5.6c.9-.6,4.5-3.6,5.5-2.5,1.7,1.9-10,10.8-11.4,12.2,5.1-1.5,10.1-5.2,14.6-8,5.2-3.2,10.3-6.6,15.4-10,4-2.6,8-5.4,12.21-7.9.8-.5,3.3-2.2,3.5-.1s-4.3,4.7-5.71,5.7c.91-.5,3.61-2.5,4.51-1.1,1.1,1.7-2.6,3.9-3.6,4.6-4.3,3-9,5.5-13.61,8.1s-9.4,5.3-14.1,8l-6,3.6c-1.6,1.1-3.8,2.2-4.9,3.9,2.6-.5,5.1-2.3,7.4-3.6,2.8-1.6,5.7-3.4,8.5-5.2,5.5-3.5,10.9-7.1,16.3-10.6,2.11-1.4,4.21-2.8,6.31-4,.6-.3,1.9-1.2,2.7-.8s.5,1,.2,1.6a13.74,13.74,0,0,1-2.9,2.4c-1.2.9-2.41,1.8-3.7,2.7-2.71,1.9-5.51,3.9-8.21,5.8,2.6-1.7,5.4-3.9,8.4-5.1.7-.2,2.11-.8,2.2.5,0,.7-2.29,1.4-2.89,1.7-6,3.3-11.61,7.4-17.51,10.9-.9.5-5.9,4.3-6.9,2.7-.7-1.1,1.4-2.1,2-2.5,5.9-4.3,12-8.3,18-12.5-6,3.9-11.9,7.9-17.9,11.5-2.9,1.8-5.8,3.5-8.8,5a7.59,7.59,0,0,1-3.6,1.1c-1.5-.1-1.7-1.5-.9-2.6-.7.3-4.7,1.3-3.8-.8.4-.7,1.9-1.2,2.5-1.6,4.7-2.7,9.3-5.5,14-8.4,5.1-3.1,10.1-6.3,15.1-9.5a115.45,115.45,0,0,0,13.31-9.5c-10.81,6.7-21,14.1-31.91,20.6-1.4.8-11.9,7.4-12.6,4.2-.3-1.2,1.7-2.5,2.5-3.1,2.3-2.1,4.7-4.2,7.1-6.3-1.4.8-10.9,8-12,6A8.52,8.52,0,0,1,102,94.87Zm11,7.1c1.5-.8,3-1.8,4.6-2.8C116,100.17,114.37,101.17,113,102Zm35.21-20.6c-3.61,2-7,4.3-10.41,6.6a22.61,22.61,0,0,0,2.6-1.6A57.58,57.58,0,0,0,148.18,81.37Z"/><path class="cls-2" d="M183.47,62.67a12.81,12.81,0,0,1,2-1.1c2.2-1.1,2.1.5,2.4,2.5,3.4-1.9,6.3-4.8,9.9-6.3,1.3-.6,2.7-.3,2.1,1.3s-3.2,3.3-4.6,4.4c5.6-3.5,11.2-7.2,16.9-10.6,1.8-1,4.6-3.3,6.8-3.4,1.6,0,1.4,1.1.5,1.9a59.82,59.82,0,0,1-7.3,5.1l-8.4,5.7c-4.7,3.1-9.3,6.2-13.9,9.4,2.6-.4,5.1-3,7.3-4.4,2.8-1.8,5.6-3.4,8.4-5,5.5-3.3,11.4-6.1,16.7-9.7s10.4-7,15.7-10.6c4.81-3.2,9.6-6.5,14.61-9.5a51.22,51.22,0,0,1,5.2-2.7c.9-.4,2.5-1.2,3.3-.4a1.53,1.53,0,0,1-.2,2.3c1.1-.1,2.7.1,2.6,1.5s-2.3,2.7-3.3,3.4c1-.5,3-1.7,4.2-1.5s1,1.8.4,2.7c.8-.3,2.2-.9,3-.3,1,1-.2,2.3-.9,2.9a40.29,40.29,0,0,1-5.8,4.1c-4.9,3-9.8,5.8-14.8,8.6s-9.91,5.6-14.81,8.5c-2.5,1.4-4.9,2.9-7.3,4.5-1.4,1-3.3,2.1-4.2,3.6,3,0,6.1-2.8,8.5-4.4q5.1-3.45,10.2-6.6c5.51-3.4,10.91-6.9,16.41-10.3.6-.4,3-2.4,3.5-.8.3,1.3-2.7,2.5-3.5,3-5.6,3.4-11,7.1-16.51,10.7-2.9,1.9-5.7,3.7-8.7,5.5-2.4,1.4-5,2.7-7.1,4.8a92.82,92.82,0,0,0,10.7-6.9c1.2-.8,2.8-2.3,4.3-2.6.9-.2,1.8.2,1.2,1.2a3.92,3.92,0,0,1-1,.8c-1.5,1.1-2.9,2.2-4.4,3.3-3.1,2.5-6.3,4.9-9.2,7.7,1.8-1.2,14.2-10.3,15.6-8.1,1,1.7-3.4,4.3-4.4,5-3,2.2-6.2,4.3-9.3,6.5,3-1.9,5.9-4,9-5.7.6-.3,4.7-2.6,4.4-.3-.2,1.5-3.8,3.2-4.8,4-3,2.1-6,4.2-8.9,6.3,3-1.9,5.8-4,8.8-6,.7-.5,4.1-3.2,4.5-1,.4,1.9-4.1,4.4-5.4,5.4-3,2.1-6.1,4.2-9.1,6.3,3.7-2.1,7.3-4.4,11-6.6.9-.5,4.8-3.7,5.8-2.7,1.61,1.8-13.2,12.2-14.9,13.5,2.9-1.7,5.7-3.6,8.6-5.5.9-.6,4.2-3.5,5.5-3.2,2.51.6-1.8,4.2-2.4,4.7-2.6,2.2-5.4,4.1-8.2,6.1,3.1-2,6.2-4.1,9.3-6,.6-.4,1.6-1.3,2.4-.8a1.09,1.09,0,0,1,.1,1.5,11.8,11.8,0,0,1-3.2,2.7c-1.5,1.2-3.1,2.4-4.6,3.5-3,2.3-6.1,4.5-9.1,6.8,3.5-2.1,6.8-4.4,10.2-6.7.6-.3,4.5-3.4,4.3-1,0,.8-1.3,1.6-1.7,2-1.5,1.2-2.9,2.3-4.4,3.4-2.7,2.2-5.6,4.2-8,6.8,4.6-2.4,8.6-5.9,13.2-8.3,1.1-.6,2.3-.4,1.8,1.2-.8,2-3.6,4-5.1,5.4,1-.6,3.7-2.9,4.9-2.7,1.41.3.5,2.1.4,2.8.7-.5,1.9-.2,1.51.9-.21.4-1.11.7-1.41.9-2.2,1.2-2.1-.5-1.7-2.3-1,.6-6.5,5-7.5,3.5s4.1-5.5,5-6.5c-3.6,2.3-7.2,5.3-11.2,6.9-1.6.6-3.1,0-2-1.8s3.2-3.2,4.8-4.5c-2,1.2-4.5,3.1-6.8,3.5-1,.2-1.9-.2-1.6-1.3s2.7-2.3,3.6-2.9c2.3-1.8,4.6-3.5,6.9-5.2-2.2,1.4-4.7,3.4-7.3,4.1-.9.3-2.3,0-1.8-1.2.3-.7,1.4-1.2,1.9-1.6,1.2-.9,2.5-1.8,3.7-2.7,2.7-1.9,5.5-3.8,8.1-5.8-2.9,1.9-5.7,3.8-8.7,5.5-.9.5-5,3-5.2.8,0-.7.9-1.2,1.3-1.5,1.1-1,2.4-1.9,3.6-2.9,3-2.3,6-4.6,9-7-4.6,2.8-9.2,5.9-14,8.2-1.9.9-3-.2-1.5-1.9a42.13,42.13,0,0,1,6.4-4.7c-1,.6-3.1,2.2-4.4,1.5-.9-.5-.5-1.2-.1-1.9a20.77,20.77,0,0,1,3.6-2.9c1.4-1,2.7-2,4.1-2.9-2.6,1.7-5.4,4.1-8.3,5.3-2.2.8-1.9-1.3-.8-2.5,2.3-2.4,5.4-4.2,8.1-6.1s5.4-3.7,8-5.7c-4.3,2.5-8.4,5.3-12.6,7.9-.9.5-3.6,1.9-2.6-.7.7-2,3.2-3.7,4.7-5-1,.6-2.9,2-4.1,1.6s-1-1.5-.3-2.4c-3.1.8-3.3-1.7-1.4-3.5a36.5,36.5,0,0,1,5.6-4.1c4.7-3.1,9.6-5.8,14.5-8.6s9.81-5.5,14.61-8.3c3.9-2.3,8.3-4.4,11.6-7.5a34.16,34.16,0,0,0-7.9,3.9c-2.9,1.9-6,3.5-8.9,5.3-10.81,6.5-21.21,13.5-31.91,20.1-4,2.5-8,5.1-12.2,7.3-.9.6-3.8,2.5-4.4.6-.7-2.2,3.4-4.6,4.8-5.6-3.7,2.3-7.5,4.6-11.3,6.8-.9.5-4.8,3.6-5.6,2.3-1.2-1.9,11.8-8.6,13.4-9.6,7.1-4.2,14.3-8.4,21.4-12.6s14.2-8.4,21.31-12.7c3.5-2.2,7-4.4,10.5-6.7,2.2-1.4,4.8-2.9,6.5-4.9-2.8-.2-5.3,2.1-7.5,3.5-2.7,1.7-5.5,3.3-8.3,4.9-5.81,3.3-11.81,6.4-17.61,9.8s-11.6,7.5-17.4,11.3l-13.8,9c-2.1,1.3-4.1,2.7-6.3,3.8-.6.3-1.4.8-2,.3-.9-.7-.2-1.9.4-2.5-1.3-.1-2.2-.9-1.6-2a5.94,5.94,0,0,1,1.8-1.3c1.2-.8,2.4-1.6,3.6-2.5,5.6-3.8,11.3-7.5,16.9-11.3-7.6,4.7-14.9,10.1-22.8,14.2-.7.3-3.1,1.4-2.7-.4.1-.6,1-1,1.4-1.3a129.44,129.44,0,0,0,10.8-8.4c-2.7,1.7-5.3,4.1-8.2,5.4-2,.9-2-1-2.3-2.6-.6.3-1.2.7-1.9,1.1C183,64.87,183,63.27,183.47,62.67Zm9.8,9.5a6.11,6.11,0,0,0-2.2,1.3C191.87,73.07,192.57,72.57,193.27,72.17ZM229,59.07c-5.2,2.7-10.4,5.5-15.4,8.4-3.6,2.1-8.4,4.3-11,7.6a34.61,34.61,0,0,0,5-2.7C214.87,68.07,221.87,63.57,229,59.07Zm12-9.9c-8.5,5.1-17,10.2-25.6,15.4,8.6-4.8,17.4-9.3,26.1-14,4.21-2.3,8.31-4.7,12.41-7.1,3.2-1.9,7.3-3.7,9.5-6.7,0,.1-.1.1-.2.1C255.48,40.07,248.18,45,241,49.17Zm1.5-14.4c2.91-2,6-3.9,8.91-5.9a3,3,0,0,1,.7-.5.51.51,0,0,0,.4-.7,4.17,4.17,0,0,1,.6-.8c.4-.3,1.7-1.2,2.2-1,2.6.9-4.2,5.1-4.9,5.6,1.4-.9,2.9-1.8,4.4-2.6.7-.5,2.3-1.7,3.2-1.5a.91.91,0,0,1,.8.4c.4.8-.3.9-.8,1.2-1.2.7-2.6,1.3-3.8,2-3.2,2-6.4,4-9.61,5.9-1.2.8-2.5,1.6-3.8,2.4-.7.4-1.7,1.2-2.5,1C235.67,39.27,241.87,35.17,242.47,34.77Zm2.1,4.6c2.71-1.6,5.51-3.1,8.31-4.5,2.3-1.3,5-2.1,6.8-4.2a14.76,14.76,0,0,0-2.9,1.2C252.58,34.07,248.58,36.77,244.57,39.37Z"/><path class="cls-2" d="M359.78,73.67c2.3-.9.8,2.6.4,3.4a10.81,10.81,0,0,0-1.1,1.8q-.6.6,0,.9c.1.1.1.3.2.4a1.82,1.82,0,0,1-1,1.1c-.9.6-1.9.7-1.9-.6s1.9-3.5,2.5-4.7c-2.3,1.5-4.4,3.2-6.8,4.5-1.1.5-3.1.8-2.3-1,.79-1.6,3.4-2.9,4.7-3.9,2.4-1.8,4.9-3.6,7.2-5.5-1.6,1.1-15.4,11.5-16.61,9-.7-1.5,3.61-4.1,4.5-4.9,3-2.5,6-5,9-7.6-2.8,1.7-5.5,3.7-8.2,5.6-2.1,1.5-4.6,3.7-7.1,4.4-.81.3-1.91.3-2-.8s1.51-2.3,2.1-2.9c2.2-2.3,4.7-4.3,7.11-6.5-1.6,1.1-13.81,10.3-14.91,8.2-.7-1.4,2.8-3.2,3.5-3.7a92.89,92.89,0,0,0,8.21-7.1c-3.5,1.9-6.71,4.1-10,6.3l-5.1,3.3c-.7.4-2.2,1.7-3.2,1.3-2.5-.9,4.4-5.1,5.2-5.6a100.85,100.85,0,0,0,9.5-6.6,99.34,99.34,0,0,0-9.4,5.9c-1.6,1.1-3.2,2.1-4.8,3.2-.9.6-2.4,1.9-3.6,1.9s-1.3-.9-.6-1.7a21.41,21.41,0,0,1,3.2-2.8c1.6-1.3,3.3-2.6,4.9-3.9-2.9,1.9-5.8,3.7-8.8,5.5a6.25,6.25,0,0,0-2.1,1.3c-.1.1,0,.7-.1.9a5.81,5.81,0,0,1-1.8,1.7c.9-.4,3.6-1.2,3.1.7-.2,1.1-2.3,2.2-3.1,2.8-4,3-8.1,5.9-12.1,8.9,3-1.9,6-3.8,9.2-5.5.6-.4,4.7-2.5,4-.1-.2.9-1.6,1.6-2.3,2-1.4,1-2.8,2-4.3,3-2.9,2-5.8,3.9-8.5,6.1,3.9-2.4,7.6-5,11.7-7.2,1-.6,2.9-1.2,2.4.8-.4,1.7-2.9,3.3-4.2,4.3.7-.4,3.9-2,4-.1,0,.6-.7.9-1.1,1.2-3.8,2.8-7.8,5.4-11.6,8.2,3.7-2.1,7.3-4.4,10.9-6.7,2.1-1.3,2.6.4,1,2,.6-.4,3.4-1.7,3.5.1,0,.6-.8,1-1.3,1.4-3.6,2.8-7.6,5.3-11.3,8l6.3-3.9c1.4-.8,3.2-2.3,4.8-2.6,1.3-.2,1.7.6,1.2,1.7-.7,1.8-2.4,3.3-3.6,4.9.7-.5,3-2.6,4-1.7.8.6-.3,2.2-.6,2.9,2,0-.4,2.2-1.2,2.4-2.1.4-.8-2-.4-2.9-.7.5-5.3,4.1-5.3,1.5,0-.9,1.5-2.3,2-2.9.9-1.1,1.8-2.3,2.7-3.5a88.08,88.08,0,0,0-7.7,4.7l-3.9,2.4c-.8.5-2,1.6-2.9,1.7-2.8.4.1-3,.7-3.6,2.4-2.1,5-3.8,7.5-5.6-2.7,1.7-5.4,3.4-8.1,5.2-.9.6-3.6,3-4.7,2.5s-.2-1.5.4-1.9c2.5-1.8,5.1-3.4,7.6-5.1-.8.5-6.1,4.2-6.6,2-.2-1.3,2.5-3,3.3-3.7,1.6-1.2,3.1-2.3,4.7-3.4-3,1.9-5.9,4-8.9,5.9-.9.5-2.4.6-1.7-.9.5-1,2.2-1.9,3-2.5,1.6-1.2,3.3-2.4,4.9-3.6,3-2.1,6-4.2,8.8-6.5-2.4,1.4-4.8,3-7.2,4.5-1.3.8-2.6,1.6-3.9,2.3a6.32,6.32,0,0,1-2.3,1.2c-2.4.2-.7-2.3.2-3.1a55.18,55.18,0,0,1,6.6-5.1c-1.5.9-2.9,1.9-4.4,2.8-.7.4-1.8,1.5-2.6,1.6-2,.4-.9-1.9-.1-2.7,2.2-2.5,5.2-4.4,7.8-6.4,2.8-2,5.5-3.9,8.2-6-5.8,3.3-11.2,7.3-17,10.9-.6.3-2.4,1.6-2.7.3-.4-1.6,4.2-3.8,5.2-4.5-.8.4-4.4,2.2-4.2,0,.1-1.4,2.9-2.7,3.9-3.2-1.5.5-4-.1-2.4-1.8a30.67,30.67,0,0,1,4.2-2.8c1.6-1.2,3.3-2.3,5-3.5,7.1-4.7,14.4-9.4,20.9-14.8-7.3,4.2-14.1,9.3-21.2,13.8-1.6,1-3.1,2-4.7,2.9-1.3.7-3,1.9-4.5,1.8-4-.3,2.5-5.5,3.3-6.2-.9.5-3.9,1.9-4.1,0-.1-1.5,3.3-3.6,4.2-4.4,4.8-3.9,9.9-7.5,14.7-11.4-5.6,2.9-10.9,6.7-16.2,10.3-.6.4-2.6,2.4-3.4,1.2s2.4-3.4,3.1-4c-3.5-.3,3.7-5.1,4.2-5.5,3.6-2.6,7.6-5.1,10.7-8.3-4.1,1.8-7.9,4.8-11.7,7.3-1.4,1-2.9,2.4-4.5,3-1.2.4-2-.1-1.5-1.4.5-1.6,2.7-2.8,4-3.7,1.7-1.3,3.6-2.5,5.4-3.7,3.2-2.1,6.9-4.1,9.7-6.9a53.15,53.15,0,0,0-8.6,5.2c-1.5,1-3,2-4.4,3-.8.5-1.9,1.6-2.8,1.8-2.7.3-.2-2.7.5-3.4a105.89,105.89,0,0,1,8.4-6.6c-3.1,2.1-6.3,5-9.8,6.5-.7.3-1.6.6-2-.4-.3-1.2,1.8-2.6,2.5-3.2-.9.4-3.4.8-2.7-.9.2-.6,1.2-1.2,1.7-1.6l3.7-2.8c-.9.5-3.7,1.6-3.5-.5.2-1.3,2.2-2.6,3.2-3.3-.8.4-4.4,2.1-3.3-.3a10.35,10.35,0,0,1,2.7-2.4c1.5-1.2,3-2.3,4.5-3.5-1.4.9-2.9,1.8-4.3,2.7-.6.3-1.8,1.2-2.5,1-2.2-.5.5-2.9,1.1-3.4-2.8,1.6-2.9.2-2.4-2.1,0-.3.1-.5.1-.8.2-.2.1-.4-.2-.4-.1-.3-.4-.4-.3-.8s.7-.9,1.1-.9c2.1-.6.9,2.6.7,3.7,1-.6,5.2-4.3,6.2-3.1s-2.3,3.8-2.9,4.3c2.2-1.3,4.3-2.7,6.5-4.1.8-.5,2.9-2.4,3.9-1.5,1.8,1.5-6.2,6.8-7.1,7.5,3.2-1.9,6.4-3.9,9.6-5.8.7-.4,3.4-1.5,2.4.5-.5.8-2.1,1.6-2.9,2.1-1.5,1.1-3.1,2.1-4.6,3.2a93.71,93.71,0,0,0-8.7,6.5,94.48,94.48,0,0,0,10.9-6.8c.7-.4,5.1-4.2,5.9-2.8s-4.5,4.5-5.3,5.1l-10.2,7.5c3.2-2,6.4-4.2,9.6-6.3,1-.7,5.1-4.2,6.5-3.3,1.6,1.2-1.9,2.9-2.6,3.3-3.1,2.1-6.2,4.3-9.3,6.4,2.3-1.5,4.6-3.2,7.1-4.5.8-.4,4.6-2,3.9.3-.3,1.1-2.8,2.3-3.7,2.9-2.3,1.7-4.6,3.3-6.9,5,1.8-1.1,3.6-2.3,5.5-3.4,1-.5,3.1-2,4.3-1.4,2.8,1.5-3.7,5.6-4.6,6.3,1-.6,3.4-1.9,3.9-.2.4,1.4-1.6,2.8-2.5,3.6-3.5,3-7.4,5.6-11.1,8.3,4.6-2.5,8.7-5.7,13.1-8.5.6-.4,1.7-1,1.9.2s-2,1.9-2.7,2.4c.7-.4,5.7-2.4,4.5.3-.2.6-1.3,1.2-1.7,1.6-1.2.9-2.4,1.8-3.5,2.7-4.9,3.8-10,7.4-14.6,11.5,6-2.8,11.4-6.9,16.9-10.6,2-1.3,4.3-3.3,6.6-4.2.9-.3,2-.1,1.5,1.1-.1.3-.8.6-1,.8-1.1.7-2.1,1.4-3.2,2.1-2.7,1.9-5.4,3.7-8.1,5.5-4.7,3.3-10.1,6.5-14,10.8,3.3-1.2,6.4-3.4,9.2-5.3,3.1-2,6.1-4,9.1-6,1.7-1.1,13.3-10.1,14.7-7.7.9,1.5-2.6,3.7-3.4,4.4-3,2.3-6,4.4-9.1,6.6-5.7,4-11.5,7.8-17.3,11.8,9.5-5,17.8-12.3,26.8-18.1a36,36,0,0,1,5.4-3.1,4.75,4.75,0,0,1,2.6-.6c1.21.3,1,1,1.1,1.9q-.45.45,0,.6c0,.1.11.1.11.2.09.4.19.4.09.9a5.53,5.53,0,0,1-1.2,1.4,73.73,73.73,0,0,1-6.1,5c2.9-1.9,5.8-4.1,9-5.5,2.39-1.2,4,.2,1.89,2.3.81-.5,4.11-2.7,4.51-.6.4,1.8-3.9,4.8-5.1,5.8a72.76,72.76,0,0,1,8.3-5.3c.9-.4,3.1-.9,2.5.9-.2.6-1.2,1.2-1.6,1.6-1.2,1-2.3,2-3.5,3.1-2.2,1.9-4.41,3.8-6.41,5.9,3.3-1.9,6.31-4.3,9.51-6.5,1.3-.9,6.8-5.7,8.6-4.3,1.8,1.2-2.4,3.9-3,4.5-3.1,2.6-6.2,5.2-9.2,7.8,4-2.5,7.7-5.3,11.7-7.8.8-.4,3.3-2.4,4.2-1.1.7,1.2-1.1,2.6-1.9,3.2C362.68,71.47,361.18,72.57,359.78,73.67Zm-45.91,1.2c1.5-.9,2.9-1.7,4.3-2.5a16,16,0,0,0,1.9-1.1c.8-.6.4-.8,1-1.3.4-.3,1.8-.6,2.3-.9a38.7,38.7,0,0,0,3.4-2.1l7.2-4.5c1.9-1.3,4.9-2.5,6-4.6-2.4.3-5,2.4-7,3.7-2.7,1.7-5.3,3.6-7.9,5.4C321.37,69.67,317.67,72.27,313.87,74.87Z"/><path class="cls-2" d="M469.28,47.37c-3.4,2.6-7,5-10.4,7.6,2.4-1.6,4.7-3.4,7.2-4.8.9-.4,3.1-1.7,4.1-.8,2,1.9-9.4,9.6-10.7,10.6,3.1-1.9,5.9-4.2,9.2-5.9,1.1-.5,4.3-1.3,2.9.9-2.1,3.1-6.4,5-9.4,7.2,1.5-.9,7.5-6.3,9.2-4.3s-6,6.3-7.2,7.3c1.4-.8,2.8-2.5,4.5-2.5,2.1,0,1.1,1.6.1,2.4-3.4,3.1-7.6,5.1-11.2,8a79.88,79.88,0,0,0,7.7-5.2c1.4-1.1,3.1-3.2,5.1-3.1,2.7.1.6,2.4-.4,3.3a80.56,80.56,0,0,1-7.2,5.9c1.6-1,4.7-4.2,6.9-3.5,2.7.7-1.2,3.6-2,4.3,1.4-.5,1.3,1.3.9,2.1a13.36,13.36,0,0,1-2.7,2.6c-2.5,2.1-5,4.3-7.5,6.4,2.3-1.5,4.8-2.9,7.1-4.5,1-.8,3.1-3.2,4.6-2.5,2.1.9-2.2,3.9-3.1,4.6.6-.4,1.8-1.2,2.5-.6.8.8-.3,1.7-.9,2.2-2.1,1.9-4.6,3.2-6.9,4.9,2.2-1.5,4.2-3.4,6.8-4.2.6-.3,3.3-1,2.6.6,2.2.2-.3,2.6-1,3.3a68.14,68.14,0,0,1-8.2,5.9c-5.9,4-11.81,7.8-17.31,12.2A177.42,177.42,0,0,0,460.68,98l6.6-4.5c.7-.4,4.6-2.5,4.3-.4-.3,1.5-3.8,2.9-4.9,3.5-2.5,1.4-4.9,3.1-7.4,4.6-4.7,2.9-9.6,5.9-13.5,9.9,7.2-3.4,13.5-8.4,20.2-12.8,1-.6,2.5-2,3.9-1.6,1.9.6-.3,2.2-1,2.8-3.1,2.6-6.5,4.5-9.8,6.8,2.1-1.3,4.1-2.8,6.2-4,.9-.5,2.8-2,3.9-1.5,2.1,1-4.9,7.5-5.7,8.3.7-.4,7.2-5.4,6.5-2.6-.5,2-4.8,3.6-6.4,4.5-.8.6-4.3,2.6-4,.1.1-1.1,1.5-1.9,2.3-2.6,1.4-1.3,2.6-2.9,4-4.4-4.6,2.8-9,6.3-14,8.4-.9.4-2.9,1.1-2.6-.6s2.9-2.5,4.2-3.5c-2.5,1.6-5,4.1-8,4.5-1.11.2-2.2,0-2-1.4.09-1.1,1.39-1.8,2.09-2.5-1,.6-2.59,2.1-3.9,1.5s-.7-1.6-.1-2.4a13.28,13.28,0,0,1,3.5-2.7c1.61-1.1,3.11-2.3,4.61-3.2,6.2-4.4,12.5-8.5,18.5-13.1-7.7,4.4-14.5,10-21.9,14.7-1.11.8-6.41,4-6.21.6.1-1.9,2.1-3.6,3.21-5.2-.91.6-2,2.1-3.21,2.1-1.8-.2-.79-2.2-.6-3.2.1-.8,0-3.7,1.7-2.4.9.7,0,2.4-.2,3.2.81-.6,4.6-4.2,4.71-1.1.1,2.3-2.7,4.5-3.81,6.3,4.7-1.6,8.51-4.9,12.61-7.7-1,.2-1.4-.7-1.2-1.5.3-1.1,1.5-1.6,2.3-2.3-2.3.8-1.1-1.7-.4-2.5,1.5-1.5,3.5-2.4,5.2-3.6-2.2,1.4-4.2,3.3-6.8,4-2,.6-2.2-.6-1.1-2,1.7-2.1,4.3-3.5,6.3-5.1,2.3-1.8,4.5-3.6,6.6-5.6-2.5,1.5-4.8,3.3-7.3,4.8-.6.5-4.7,2.7-4.2.5.3-1.2,3-2.5,4-3.1a81.94,81.94,0,0,0,8.9-6.6c-.8.5-12.7,9.9-13.6,6.9-.5-1.5,3.1-3.4,4-4.1,3.1-2.2,6.1-4.6,9.1-7-3.3,2.2-6.3,5.4-10.1,6.5-1.1.3-2.4.5-2.4-.9.1-1.6,2.2-2.4,3.2-3.3-.8.6-2.3,2.6-3.5,1.9s.5-2.2,1.1-2.8c3.4-3.2,7.3-5.7,10.9-8.6-2.2,1.4-4.5,2.9-6.7,4.4-.6.4-3,2.3-3.9,1.3-2-2.1,6.2-6.6,7.4-7.5-2.2,1.4-4.2,3.5-6.7,4.2-2.8.7-1.5-1.7-.4-2.9,3.3-3.9,8-6.3,11.8-9.7a88.93,88.93,0,0,0-10,6.4c-.7.5-3.7,3.3-4.4,1.5-1.4,2.2-3.8,3.4-5.8,4.9a57.66,57.66,0,0,0-7.41,5.7c3-1.6,5.8-3.5,8.61-5.3.7-.4,3.2-2.3,3.59-1.1.81,2-3.79,4.3-5,5a51.56,51.56,0,0,0-8.2,6.6c3.8-1.9,6.8-5.1,10.7-6.9.91-.5,2.81-1,2.21.8-.4,1.3-2.21,1.7-3.1,2.5,1-.5,3-1.1,3,.6,0,1.4-1.8,2.3-2.7,3,1-.6,2.7-.9,2.4.7-.31,1.9-2.6,2.7-3.81,3.8,1.11-.7,4.41-2.8,4.5-.2.11,2.3-3.09,3.6-4.39,4.9,1-.6,2.39-2.1,3.7-1.8,2,.4.6,2.8.5,4,0,.7.4,1.5.3,2.1a1.24,1.24,0,0,1-1.8.6c-1.4-1,.1-3.5.3-4.8a38.35,38.35,0,0,0-5.4,3.5c-.71.5-2.8,2.3-3.21.5-.29-1.1,1.5-2.2,2.21-2.9,1.7-1.6,3.29-3.3,4.79-5a44.32,44.32,0,0,0-6.5,4.1c-1,.8-2.4,2.7-3.8,2.7-2.1-.1-.4-2,.3-2.7,1.6-1.6,3.5-2.9,5.21-4.4-1.61,1.1-3.21,2.9-5.21,3.1s-1.8-1.3-.7-2.4c1.3-1.3,3.2-2,4.8-3.1a51.8,51.8,0,0,0,5.71-4.7c-3.81,2-6.91,4.9-10.61,6.9-.8.4-2.5,1.1-2.3-.6.2-1.2,1.9-1.8,2.7-2.4-1.7.7-2.7-.5-1.9-2.1s2.8-2.6,4.3-3.8c-1.29.8-5.3,2.3-4-.9.8-2,3.5-2.9,5.1-4.2-.89.6-6,4.7-6.4,1.9-.1-1.3,2-3,2.8-3.7,1.3-1.1,2.8-2.1,4.21-3.2-1.41.9-3.21,3.1-5.11,2.9-1.3,0-1.3-1.1-.7-2,1.5-2.3,4.4-3.5,6.51-5-1.91,1.1-3.7,2.7-5.81,3.4-1.5.5-1.8,1-2.3,2.4-.2.8-1.2,2.8-2,1.2-.5-1,.7-2.7,1.1-3.6-1.5.9-5.7,5.2-7.5,3.9-2.3-1.7,3.8-6.5,4.8-7.6-4.8,2.6-9.2,5.7-13.8,8.5,2.2.1.2,2.8-.6,3.5a8.28,8.28,0,0,1,3.1-.4c.7,0,1.8-.8,2.5-.5,1.4.4-.3,2.2-.9,2.8-1.6,1.4-3.7,2.2-5.5,3.4-2.1,1.3-4.1,2.8-6.2,4.2,4.6-2.8,9.3-5.4,13.8-8.3,1.2-.7,2.6-1.9,3.9-2s1.7.7,1.1,1.8c-1.1,2.1-4.1,3.4-6.1,4.6-4.5,2.9-8.8,6.3-13.2,9.4,4.6-2.8,9-5.7,13.5-8.6,2.1-1.4,4.4-2.7,6.4-4.1,1-.8,2.9-2.8,4.4-2.2,1.9.9-2,3.4-2.8,4-4.2,2.9-8.5,5.7-12.7,8.6,4.6-1.5,7.6-5.6,11.9-7.5,1.3-.6,3.6-1.1,3,1.2-.4,1.7-2.6,2.6-3.8,3.6,1-.8,2-2.1,3.4-2.3,2.1-.3,1.3,1.7.5,2.6-2.9,3.4-7,5.4-10.4,8.2,2.2-1.4,4.4-2.7,6.5-4.2,1.2-.9,2.7-2.5,4.3-2.6s1.9.7.9,1.6a20.59,20.59,0,0,1-3.3,1.7,73.93,73.93,0,0,0-6.6,4.2c-1.5,1.1-3.3,3.1-5.2,3.3-2.4.2-1.1-2.3-.2-3.3,1.4-1.6,3.4-2.6,5-3.9-.8.5-1.9,1.7-3,1.6-1.8-.1-.7-1.8,0-2.5,2.7-3,6.4-4.9,9.3-7.6-2.6,1.5-5.1,3.3-7.6,5.1-1,.8-2.1,2-3.4,2.3-.7.1-2.5-.1-1.7-1.2-5.2,3.5-10.5,7-15.4,10.9a106.07,106.07,0,0,0,9-5.8c1-.7,3.7-3.3,5-2.2,2.2,2-7.8,8.9-8.7,9.7,2.4-1.5,4.7-3.5,7.4-4.6,1.1-.4,3.1-.8,2.6,1-.6,2.2-3.5,3.5-5.3,4.6-2.5,1.8-5,3.7-7.6,5.5,7.7-4.6,15.5-9.1,22.9-14.1,1.5-.9,4.1-3.2,6.1-2.9,2.7.4-1.2,3.7-2.1,4.3,1.3-.7,1.3.6,1,1.4-.5,1.2-1.9,1.9-2.9,2.6-2.9,2-5.8,3.8-8.7,5.7-5.9,3.7-12,7.1-17.3,11.7,6.7-3,12.7-7.2,18.8-11.2,1.5-1,3.1-1.9,4.6-2.9,1.2-.8,2.3-2.1,3.6-2.6,3-1.1,1.4,2,.3,3,1-.5,3.4-1.8,3.7,0,.1,1.2-1.3,2.1-2,2.7-1.2,1.1-2.3,2.3-3.5,3.4.8-.6,1.7-1.8,2.8-1.8s1.4.8.7,1.6-2.3,1.2-3.3,1.8a25,25,0,0,1-3.5,2.1c-.5.3-1.6.8-2.1.3-.8-.8.6-1.9,1.1-2.5,2.1-2,4.5-3.8,6.6-6-2.9,1.7-5.7,3.5-8.5,5.2a50.49,50.49,0,0,0-6.6,4.4c-.8.7-1.2,1.5-.6,2.4.4.7,1.8,1.11,1.3,2.11a1.56,1.56,0,0,1-1.9.5c-.9-.5-.7-1.71-1-2.51-1.2.7-2.8,2.8-4.4,2.6-2.4-.2.3-2.6,1.1-3.1,5.1-3.6,10.2-7.1,15.1-11-6.7,4.3-13.2,8.7-20.2,12.4-1,.61-5.6,2.7-4.9-.3.4-1.7,2.8-2.8,4.1-3.7-1.3.7-3.1,2.4-4.8,1.7-1.4-.6-.8-2.1,0-3-.7.3-2.4,1.3-2.7.1-.7,1.1-2.8,1.5-2.9-.3-.1-1.4,1.5-2.6,2.1-3.8-2.9,1.6-5.6,3.4-8.4,5.1-1.1.7-3.6,1.7-3-.5.5-1.7,2.5-3.1,3.8-4.1,1.1-.9,2.5-1.8,3.6-2.8-2.6,1.7-5.2,3.7-8.1,4.7-1.4.5-3.2.5-2.1-1.2,1.7-2.8,5.1-4.7,7.6-6.8-1.9,1.3-3.7,3.4-6,4s-1.6-1.4-.6-2.5c1.5-1.6,3.6-2.4,5.4-3.6a64.77,64.77,0,0,0,6.7-5,78.49,78.49,0,0,0-9.2,5.7c-.5.4-6,4.8-5.1,1.6.7-2.4,5.2-4.2,7.1-5.4,3.2-2.1,6.3-4.2,9.5-6.2a3,3,0,0,1-1.3-.2c-.9-.2-.4-.5-1.3-.1a20.27,20.27,0,0,0-3.4,2.3c-2,1.3-3.7,2.9-5.7,4.2-1.4.9-4.7,1.3-2.9-1.3,1.3-1.7,3.6-2.9,5.3-4,4.7-3.2,9.6-6.1,14.5-9,4.5-2.7,9.2-5.3,13.1-8.9-4.3,1.6-8.2,4.2-12.1,6.6-4,2.6-8.1,5.1-12,7.6-2,1.3-4,2.6-5.9,4-1.5,1-3.1,2.4-4.8,2.9-1.3.2-2.2-.1-1.5-1.5s2.5-2,3.8-2.9c-.9.2-2.6.1-2.8-1.1s1.4-1.9,2.2-2.5c3.2-2.4,6.4-5,9.5-7.6-2.2,1.5-4.3,3-6.4,4.5-1.2.8-3.5,3-5.2,2.6-3.2-1,4.5-6.7,5.3-7.4-1,.7-5.9,5.3-7,3.1-.7-1.3,1.5-3.8,2.1-4.8-.7.5-1.4.1-1.3-.7,0-.5.8-1.1,1.2-1.4.8-.5,2.4-1.5,3-.3.7,1.6-2.1,4.1-2.8,5.3.9-.5,10.6-8.3,11.5-5.6.4,1.2-2,2.7-2.8,3.3-2.2,1.8-4.3,3.6-6.4,5.5,2.9-1.8,5.6-3.9,8.4-5.8,1-.6,2.4-1.9,3.5-2s1.8.6,1.3,1.7c-.8,2.3-4,3.8-5.8,5.2-2.8,2.1-5.5,4.2-8.1,6.5,2.4-.2,4.5-1.4,6.5-2.5,2.3-1.2,4.4-2.4,6.6-3.7,4.5-2.7,9-5.5,13.3-8.4,4.7-3.1,9.4-6.3,14-9.5,2.2-1.5,4.3-3,6.4-4.5a6.44,6.44,0,0,1,2.5-1.5c1,0,1.7.8,1.1,1.8,1.9.3-3.5,6.6-4.1,7.4,1.3-.9,2.3-2.2,3.8-2.8,1-.4,2.1-.2,3-.7s1.6-1.7,2.5-2.5c1.1-1,2.4-1.9,3.6-2.9-2.09,1.3-4,3.3-6.3,4.1s-2-.9-.8-2.1c3.8-3.5,8.6-5.9,12.71-9.2a97.5,97.5,0,0,0-8.51,5.6c-.8.6-3.9,2.8-3.8.3,0-1.6,2.8-2.7,3.9-3.5a52.6,52.6,0,0,0,7.8-6.4,51.57,51.57,0,0,0-6.3,4c-1.5,1.1-3.1,2.8-5,3.3-1.7.5-2.3-.5-1.2-2,.9-1.4,2.7-2,4-2.9-.8.4-1.9,1.6-2.9,1.3-1.5-.5-.5-2,.2-2.7-1,.4-2.2,2-3.2,2-1.3,0-1.6-1.7-2.1-2.6-1.4.9-5.1,5.4-7.1,3.6-2.3-2.1,3.6-5.7,4.8-6.8-2,1.2-4,2.4-6,3.8-1.4,1-2.8,2.6-4.7,2.6,1.2,2.4-4.2,4.2-5.6,5.1.9-.5,2.7-1.7,3.4-.6.9,1.4-1.8,2.6-2.6,3.1a126.14,126.14,0,0,0-13.5,9.5c7.1-3.8,13.6-8.4,20.4-12.5.7-.4,2.3-1.5,2.8-.3s-1.2,2.1-1.9,2.6c-2.9,2.4-6.2,4.4-9.3,6.6,2.9-1.8,5.8-3.6,8.8-5.3,1.2-.8,2.5-1.5,3.8-2.2,1-.6,2.4-1.8,3.7-1.7s1.5,1.1.3,1.7c-1,.6-2.2.8-3.2,1.3a74.53,74.53,0,0,0-7.7,4.6c-5.1,3.2-9.8,7.1-15.3,9.4-2.4,1-2.8-.5-1-2.2,2.2-1.9,4.7-3.4,7.1-5.1-3,1.8-6,3.9-9.1,5.4-1.2.6-3.4.9-2.6-1,1.1-2.4,4.6-4.4,6.7-5.9-2.9,1.8-5.8,3.8-8.8,5.5-.7.4-3.8,2.1-3.4,0-1.5.8-3.1,2.1-4.8,2.2s-2.8-1.1-1.7-2.5c-.9.3-2.6.9-3.5.1-1.2-1.3.7-2.6,1.6-3.4a87.72,87.72,0,0,0,9.7-8.6c-3.7,2-7,4.8-10.7,7-.9.6-3.2,1.4-2.6-.6.5-1.6,2.7-2.7,3.8-3.9-.9.6-2.2,2.2-3.5,1.9-1.6-.3-.4-2.4,0-3.3.3-.7.8-2.8,1.9-2.7,1.8.1-.1,2.8-.3,3.5,1.3-.8,2.4-2.2,3.9-2.8.7-.2,1.5-.1,2-.5s.8-1,1.2-1.3a20.65,20.65,0,0,1,4-2.5c1.5-.8,2.9-1.7,4.4-2.6,6.2-3.6,12.6-7,18.1-11.7-5.8,3.3-11.5,6.8-17.2,10.2-2.8,1.8-5.7,3.5-8.5,5.1a17.92,17.92,0,0,1-3.3,1.8c-.7.3-2.8.2-1.7-1-.8.3-2.1,1.1-3,.8-1.3-.5-.8-1.6,0-2.3,2.3-2.2,5.7-3.4,8.4-4.8,6.6-3.5,12.6-7.7,18.8-11.8-6.4,3.8-12.8,7.7-19.3,11.4-1.5.9-3.1,1.7-4.6,2.6-.8.5-2.3,2-3.4,1.4-1.3-.7.5-2.8,1.2-3.4-1.3.3-1.3-1.1-.9-2,.5-1.1,1.8-1.7,2.7-2.5-.9.5-1.5-.2-1.3-1.1s1.1-1.4,1.7-1.9c2-1.7,4.1-3.2,6.1-4.8-1.4.9-2.7,1.9-4.1,2.7-.9.6-2.7,1.6-3.8,1.3-3-.9,2.5-4.3,3.2-4.9-2.5,1.5-2.9-1-2.8-2.9.1-.8,0-2.4,1.1-2,1.4.4.7,2.7.8,3.6.9-.5,7-5.8,7.5-2.6.2,2.1-4.4,4.2-5.7,5.3,2.9-1.8,5.7-3.7,8.5-5.5,1.1-.7,3.9-1.6,2.9.7-1.3,3-5.5,4.7-7.9,6.6,1.9-1.1,3.9-2.2,5.8-3.4.8-.6,2.7-2.4,3.7-1.4.4-1.3,1-2.6,1.5-4-.6.3-1.2,1.1-1.9,1.1-1,0-1.1-.7-.6-1.5a5.88,5.88,0,0,1,3.2-1.9c3.1-.6.2,4.4-.2,5.5a63,63,0,0,0,5.3-3.7c.8-.5,2.5-2,3.5-.9,1,1.3-2.2,3.6-3,4.3,1.9-1.2,3.6-3.1,5.9-3.8.7-.2,1.9-.4,1.6.8s-2.8,1.8-3.7,2.3c-2.8,1.6-5.3,4.7-8.6,5.7-1,.3-2.1.1-1.7-1.3.4-1.6,2.7-2.5,3.9-3.6-1,.8-3.7,3.7-5.1,2-.7,1.2-2.2,1.8-3.3,2.5s-2.4,1.6-3.7,2.5c-2.7,1.8-5.5,3.7-8.1,5.8,3.7-2.2,7.2-4.6,10.7-7.1,1-.6,3.8-3,4.9-1.7,1.6,1.8-3.3,3.8-4.3,4.4a86.3,86.3,0,0,0-10.7,7.1c7.8-4.4,15.5-9.1,23.3-13.7,1.9-1.1,3.9-2.2,5.7-3.5.8-.7,2.7-2.4,3.9-1.7s-.1,3.8-1.3,4.1c.5-.1-.8,2.4-1.1,2.7,1.7-.9,2.6.7,1.6,2.1,1.1-.7,2.4-2,3.8-1.8,1.7.1,1.5,1.7.6,2.7,1.1-.6,2.2-1.6,3.6-1.5,1.1.1,1.5.9.9,1.9s-2,1.2-2.9,1.7a30.67,30.67,0,0,0-3.9,2.3c-5.8,3.5-11.7,6.8-16.8,11.3,5.9-3.1,11.5-6.6,17.1-10,2.8-1.7,5.5-3.4,8.3-5.1,2-1.2,4.7-3.7,7.1-1.8a19.81,19.81,0,0,0,.8-3.3c0-.8.9-2.3,1.9-1.4,1.2,1.1-.7,3.6-1.1,4.7,1.6-1,3.1-2.3,4.7-3.3.91-.5,3.1-1.8,4.1-1.1,2.31,1.5-3.19,5.7-4.1,6.6,1.1-.7,8.81-7.1,10.11-4.7.9,1.6-2.4,3.6-3.31,4.3-2.3,1.9-4.59,3.7-7,5.4,2.91-1.7,5.61-3.8,8.51-5.6.69-.4,2.3-1.4,2.6,0,.2.9-1,1.8-1.6,2.3,1.9-.9,2.6.6,1.19,1.9-1.59,1.4-3.59,2.4-5.29,3.7,1.09-.6,4.4-2.2,3.9.5-.3,1.7-2.61,2.7-3.81,3.7,1.11-.6,3.81-2.8,4.7-1.1,1.31,2.1-2.69,3.8-3.89,4.7.6-.3,2.1-1.1,2.7-.4.8,1.1-1.1,2.2-1.7,2.6a112,112,0,0,0-9.41,7.5c3.3-1.9,6.6-3.9,9.8-5.9.61-.4,4.61-3.2,4-.6-.4,1.4-2.51,2.7-3.6,3.5s-2.11,1.6-3.2,2.4c1.09-.8,4.79-4.4,6.1-2.4.5-2,3.1-2.9,4.7-3.9,2.6-1.8,5-4,7.5-6-2.3,1.5-4.3,3.3-6.7,4.7-.8.4-4.3,2.1-3.9,0,.2-1.4,2.6-2.7,3.6-3.4,2.3-1.7,4.4-3.6,6.6-5.5-2.9,1.8-5.5,4.1-8.6,5.5-1.3.5-3.9,1-2.7-1.1,1.8-3.3,5.9-5.3,8.7-7.6-1.4.9-2.9,1.8-4.3,2.8-.9.6-2.3,2.1-3.6,1.7-1.8-.6.2-2.8.9-3.5,4.1-4.4,9.8-6.7,14.3-10.6-3,1.7-5.8,3.5-8.5,5.4-1.1.8-3.1,2.7-4.5,2.6-2.4-.1.3-3.4,1-4,2-2,4.3-3.7,6.5-5.5-2,1.2-4,2.4-5.8,3.7-.9.6-2.4,2.1-3.5,2.2-3.3.4,2.5-5.9,2.9-6.5-.6.4-1.5,1-2.2.4s-.1-1.7.1-2.4c-2.4,1.3-2.2-1.1-.2-1.8,1.8-.7,2,.8,1.7,2.3.9-.6,4.3-3.4,4-.3-.2,1.8-2.4,3.2-3.4,4.5,2.9-1.8,5.8-3.5,8.7-5.3.9-.6,3.2-2.5,4.3-1.6,1.8,1.3-2.2,3.4-3,3.9a78.89,78.89,0,0,0-7.6,6.5,77.23,77.23,0,0,1,9.1-5.7c1.2-.6,3.7-1.5,3.3.8s-3.4,3.5-5.2,4.7c-3.2,2-6.2,4.3-9.2,6.5,2.9-1.9,5.8-4,8.9-5.8.6-.4,2.9-1.9,3.6-1.1,1.2,1.5-3.1,3.9-4,4.6-2.8,2.2-5.5,4.5-8.3,6.8a79.14,79.14,0,0,0,7.9-4.8c.8-.6,2.9-2.5,4.1-2.1,3,1-7.2,8.4-8,9.1,1.1-.7,7.6-7,8.3-3.4.5,2.7-5.1,5.2-6.8,6.6,1.7-1.1,3.5-2.2,5.2-3.3,1.1-.7,2.5-2.1,4-1.6C473.78,44.07,470,46.87,469.28,47.37Zm-86.61,14.3c3.2-.5,5.9-2.4,8.6-4.2s5.7-3.7,8.7-5.6c6.2-3.8,12.4-7.6,18.4-11.7-4.7,2.9-9.7,5.4-14.2,8.6-1,.6-2.9,2.3-4.2,1.6-1.7-.9.3-2.9,1.1-3.6-.8.1-1-.7-.8-1.3.3-.8,1.3-1.1,1.9-1.5,2.1-1.2,3.9-2.6,5.8-3.9a121.05,121.05,0,0,0,11.5-8.4c-6.5,3.1-12.1,7.6-18.2,11.4-3.1,1.9-6.4,3.4-9.4,5.3-1.4.9-2.7,1.8-4.1,2.6a1.39,1.39,0,0,1-.9,0,3.13,3.13,0,0,1-.5,1,14.48,14.48,0,0,1-1.7,1.8c1-.6,9.8-7.4,10.1-4.1.2,2.3-3.6,4.6-5.1,5.8C387.37,57.57,384.87,59.47,382.67,61.67Zm52.6-21.5a20.76,20.76,0,0,1,3.4-2.4c2.8-2,5.61-4.1,8.31-6.4-2.5,1.5-4.91,3-7.2,4.6-1.11.7-3.11,1.3-2.51-.6.8-2.7,3.9-4.6,5.6-6.7-2,1.2-3.9,2.5-5.9,3.7-.6.4-2.5,1.9-2.8.5-3.7,3.1-8,5.3-12.2,7.7-4.3,2.6-8.7,5.1-13,7.8s-8.4,5.7-12.7,8.3c-3.7,2.1-7.8,3.8-10.5,7.1a29.39,29.39,0,0,0,7.9-4c2.6-1.7,5.3-3.4,8-5.1s5.4-3.5,8-5.3c1.4-.9,2.7-1.9,4-2.9.9-.6,2-.9,3-1.5a24.63,24.63,0,0,0,2.5-2.2,27.74,27.74,0,0,1,3.7-2.2c2.4-1.6,4.7-3.5,7.4-4.6,1.4-.6,3.6-.6,2.2,1.5a16.41,16.41,0,0,1-2.4,2.1,28.12,28.12,0,0,0-3.5,3.4c1.3-.8,2.3-2.5,3.9-2.8,1.8-.2,2,1.4,2.6,2.6C434.07,42.47,434.57,40.87,435.27,40.17Zm-29.4,42.5c-1.5.8-2.9,1.6-4.4,2.5a7.24,7.24,0,0,1-1.9,1.1c-.5,0-1.1-.4-1.5-.1,2.5.4-1.7,4-2.4,4.5,2.6-.3-.2,2.6-.8,3.2-2.6,2.6-5.6,4.8-8.4,7.1a60.75,60.75,0,0,0,8.1-5c.7-.6,3.2-3.2,4.1-1.8a16.11,16.11,0,0,1,4.4-3.8c1.9-1.5,3.9-2.9,6-4.3-1.9,1.1-5.1,4.4-7.5,3.3-2-.8.8-2.7,1.7-3.3,6-4.2,12.2-8.2,18.1-12.6-1.9,1.1-3.9,2.3-5.8,3.4C412.37,78.77,409.07,80.77,405.87,82.67Zm-2.7,11.6c-1,.7-3.6,2.9-4.7,1.2-2.1,3-5.1,5.2-7.8,7.6,1.1-.6,7.3-5.9,8.5-3.8.8,1.2-1.6,3.9-2.1,5a.68.68,0,0,1,.6.4,6.46,6.46,0,0,1,2.8-2.4c1.3-1,2.6-2,4-2.9,2.9-2.1,5.8-4.1,8.6-6.3-3,1.8-6,3.7-9,5.6-.8.5-3.1,2.2-3.8,1-1.1-1.7,3.2-3.8,4.2-4.5a94.5,94.5,0,0,0,7.6-6.6c-.1.1-.2.2-.3.2C409,90.67,406.07,92.37,403.17,94.27ZM393,41.77c4-2.4,8-4.8,11.9-7.2,3.5-2.1,7.1-4,9.8-7.1-1.2.4-2.1,1.5-3.1,2.2a28.84,28.84,0,0,1-3.4,2.3c-2.7,1.7-5.5,3.4-8.4,5C397.57,38.57,395.27,40.17,393,41.77Zm15.3,33.8c-3.7,2.3-7.4,4.8-11.1,7.3,2,1.3,6-2.7,7.5-3.7,4.6-3.2,9.4-6.1,14.1-9.2C414.87,71,411.57,73.37,408.27,75.57Zm5,24.5c4.5-2.8,9-5.7,13.4-8.6-4.6,2.7-9.3,5.3-14,7.9-4,2.2-8.2,4.1-11.5,7.3C405.67,105.27,409.47,102.57,413.27,100.07Zm1.6-74.7c-.8.4-1.5.9-2.3,1.3A10.46,10.46,0,0,0,414.87,25.37Zm8.9,65.9c2-1.1,3.9-2.2,5.8-3.4C427.67,89,425.67,90.17,423.77,91.27Zm40.31-42.1c-1.7,1.1-10.2,9.1-12.1,6.3-.2,1.1-1.6,1.7-2.41,2.2-1.09.8-2.2,1.7-3.29,2.5-2.5,1.9-4.91,3.9-7.21,5.9a84.1,84.1,0,0,0,9-5.7c.91-.7,3.41-3.3,4.61-1.8l.3-.6C456,54.17,460.28,52,464.08,49.17Z"/><path class="cls-2" d="M563.08,42.27c1.9-1.2,3.8-2.3,5.6-3.6a16.42,16.42,0,0,1,4.2-2.6c1.2-.4,2.5-.1,1.8,1.4-.5,1.2-2,1.6-2.9,2.5.9-.6,2.7-2.4,3.7-1.2s-.6,2.6-1.1,3.5c1.3,0-.6,3.4-2.1,2.7s.6-3.2,1-4.1c-1.2.8-4.3,4-5.9,3.3-2.1-.8,1.1-3.2,1.8-3.9-2.7,1.7-5.4,4.7-8.7,5.3-2,.5-2-1.3-.9-2.6,1.8-2.3,4.7-3.7,7-5.3-2.9,1.8-5.7,3.9-8.7,5.7-.7.4-3.5,2.2-3.5.4,0-1.1,1.6-1.7,2.3-2.2,1.5-1,2.9-2.1,4.3-3.2,2.9-2.2,5.8-4.3,8.6-6.5-6.3,3.8-12,8.5-18.4,12.1-1.3.7-2.7,1.2-3.9,2-1.41.9-2.21,2.3-3.41,3.5-2.5,2.5-5.7,4.5-8.5,6.7,1.6-1.1,3-2.3,4.6-3.3,1.7-1.2,3.9-2.9,6-3.3.7-.1,1.09-.1,1.3.7.4,1.3-1.5,2.7-2.3,3.4-3.31,2.6-6.51,5.2-9.81,7.7,3.1-1.8,6.11-3.7,9.11-5.8.7-.5,3.29-2.6,4.1-1.7,1.3,1.6-4.6,5.1-5.4,5.7-3.2,2.5-6.51,4.8-9.71,7.2a138.32,138.32,0,0,0,13.21-8.2c1.59-1.1,3.2-3.1,5.2-3.4,1.7-.3,2,1.2.9,2.2,1.6-.8,3.2-2.3,5.1-2.3,1.4,0,2,.8,1.5,2.1-.7,1.6-2.5,2.6-3.8,3.6-1.7,1.2-3.5,2.3-5.2,3.4-7.11,4.3-14.61,8.1-21.21,13.2,6.1-2.1,11.31-6.2,16.6-9.8,5.61-3.8,11.41-7.2,16.91-11.2,1.2-.8,3.1-2.7,4.7-2.4,2.6.4-.4,2.6-1.3,3.1-5.8,3.8-11.6,7.7-17.4,11.6,1.7.1,3.3-1.7,4.7-2.6,1.8-1.1,3.6-2.2,5.4-3.4,3.2-2,6.2-4.3,9.6-5.9.8-.3,2.5-1.1,2.6.3.1,1.1-1.6,2-2.4,2.5-3.3,2.5-6.3,5.6-9.5,8.4,2.1-1.3,4.1-2.5,6-3.9,1.6-1.1,3-2.7,4.7-3.4,1.5-.6,2.9-.1,1.9,1.7-.9,1.5-2.8,2.3-4.1,3.4,2.2-1.1,2,1.5,1.9,2.9.4-.4,1.6-.7,1.9,0,.4.9-1.1,1.6-1.7,1.8-2.5.8-1.9-1.5-1.7-3.1-1.3.8-4.5,4.3-6.2,3.5-2.2-1.1,2-3.8,2.7-4.5-1,.7-10,7.3-10.3,4.2-.1-1.6,2.6-2.8,3.6-3.6,2.4-1.8,4.5-4,6.7-5.9-3.1,1.9-6.1,3.9-9.3,5.8a43,43,0,0,0-7.2,4.8c-4.91,4.5-10.61,8.3-15.91,12.3a69.83,69.83,0,0,0,6.3-4.3c1.7-1.2,3.4-2.9,5.4-3.6,1.71-.6,2.8,0,1.8,1.9-.89,1.6-2.8,2.5-4.2,3.7,1.31-.7,2.4-2.1,3.9-2.4,2.21-.4,1.5,1.7.5,2.8-3.4,3.7-8.4,6-12.6,8.7a100.36,100.36,0,0,0,11.81-7.7c.59-.5,5.79-4.6,6-2.1,0,1-1.71,2.1-2.4,2.6-1.2,1-2.51,1.8-3.81,2.7a125.31,125.31,0,0,0-10.8,8.3c4.1-2.3,8.21-4.7,12.3-7a101,101,0,0,1,8.91-5.3c2-1.1,3.6-.3,1.6,1.6a53.38,53.38,0,0,1-4.8,3.5c3-1.9,6.1-3.7,9.2-5.4,1.2-.6,2.7-1.7,4.2-1.6,1,0,2.3.8,1.3,1.9,1.4-.7,3.4-1.4,4.9-.8,2,.8.8,2.3-.2,3.3-3.2,3.2-7,5.6-10.4,8.5,2.7-1.8,6.1-5.7,9.5-5.8,1.6-.1,1.4,1.3.7,2.4a15.68,15.68,0,0,1-3.2,3.1c1-.5,2.4-1.3,2.7.3.1.6-.2,1.2,0,1.8.1.3.5.6.6,1,.1,1.1-1.5,1.9-2.2.9-.6-.7-.1-1.9-.1-2.7-.8.5-4.9,4.4-5.2,1.6-.2-2.1,3.6-4.5,4.8-5.8-1.2.8-9.5,8.2-11.1,6.1-2.2-2.7,8.5-9.1,10-10.2-6.3,3.7-12,8.2-18.71,11.1a100.12,100.12,0,0,0-9.7,5c-2.8,1.6-5.9,3.2-7.9,5.9,3.9-1.8,7.2-4.7,10.6-7.2,1.1-.9,3.91-3.4,5.5-2.6,2.61,1.4-2.7,4.3-3.7,4.7a94.17,94.17,0,0,0-11,7.7c2.2-1.3,4.3-2.9,6.5-4.4,2-1.4,4-3.2,6.41-3.9,1.2-.4,3.29-.5,2.2,1.3-.41.9-1.41,1.4-2.11,2.1a38.93,38.93,0,0,0-2.8,2.8c.91-.5,2.71-2.6,3.91-1.6.89.7-.11,2.3-.41,3.2,1.11-.5.5,2.8-1.2,2.5s-.39-2.6-.09-3.5c-.8.4-6.91,5.1-7.41,2.9-.2-1,1.6-2.5,2.2-3,1.3-1.3,2.71-2.5,4-3.8-3.9,2.5-7.5,5.1-11.5,7.4-.9.6-3,1.8-3.3,0-.2-1.29,1.4-2.3,2.2-3-1.3.5-2.2-1-1.6-2.1-1,.5-2.7.3-2-1.2.4-1.2,2.2-1.7,3.2-2.2,3.9-2,7.5-4.6,11.21-6.9,7.5-4.7,15.8-9.1,22.5-14.9-5.7,2.1-10.8,5.8-15.9,9.1s-10.61,6.4-15.61,10c-.9.7-2.6,2.4-3.9,2-2.1-.6,1.1-2.6,1.7-3,5.4-3.7,10.8-7.6,16.11-11.4-2.81,1.6-5.61,3.2-8.31,4.8-2.4,1.5-4.6,3.3-7.2,4.4-2.3,1-2.9-.2-1.5-2.1s3.7-3.3,5.6-4.8c-1.9,1.2-3.8,2.9-6.1,3.4-2.6.5-2.3-1.4-.9-2.8s3.5-2.2,5.3-3.3q3.3-2.1,6.6-4.5c-3.2,2-6.4,3.8-9.5,5.9-.7.5-3.2,2.4-4,1.7-1.6-1.3,3.4-3.8,4.1-4.2a80.76,80.76,0,0,0,8.8-6.6c-2.5,1.7-4.9,3.4-7.5,4.9-1.2.7-3.4,2.3-4.9,1.7-1.8-.7.3-2.3,1.1-2.9,2.1-1.6,4.4-3.2,6.5-4.8-1.2.6-4,2.8-5.4,2.1-2.7-1.3,3-4.1,3.8-4.7-1.6.8-3.6,2.6-5.5,2-1.4-.4-1-1.7-.3-2.6,2.2-2.8,6-4.2,9-5.9,4-2.3,7.8-4.8,11.7-7.2,3.31-2,6.91-3.8,9.61-6.7-3.8,1-7,3.3-10.11,5.5-3.5,2.4-7,4.7-10.5,7.1-1.8,1.1-3.5,2.2-5.2,3.4-1.2.8-2.5,2-4,2.2-1.8.2-1.5-1.3-.6-2.4s2.4-1.9,3.6-2.8c-.6.3-1.9.7-2.4.1-.7-.8.4-1.7.9-2.2,2-2,4.5-3.3,6.7-4.9-1.6.9-3.9,3.2-5.9,2.6-1.7-.4-.4-2.1.4-2.9,1.8-1.7,4.2-2.8,6.2-4.3s4.1-3.3,6.1-5c-3,1.9-6,3.7-8.8,5.7-1.1.7-3.7,3.2-5.1,1.8-1.7-1.9,4.1-4.8,5.2-5.7-1.7,1.1-4.8,4.2-7,3.8-3.2-.4,2-3.9,2.7-4.4,5.2-3.3,10.8-6.1,16.11-9.3a.49.49,0,0,1-.11-.6c-6.59,4.4-13.6,8.3-20.3,12.6,2.1,1.3-5.7,7.1-6.6,8,.8-.5,5.4-4.8,5.6-1.6.1,1.6-2.4,3.6-3.2,4.9-.4.6-3.5,4.7-3.7,1.7-.1-1.7,2.6-3.3,3.5-4.5-1.1.7-2.2,1.5-3.4,2.2-.8.5-2.7,1.9-3.8,1.6-1.8-.4.3-2.6,1-3.2,2.4-1.9,4.7-3.8,7-5.9-2.2,1.5-4.4,3.1-6.6,4.6a5.26,5.26,0,0,1-2.6,1.5c-.9,0-1.9-.8-1.3-1.7-1,.2-3.4-.4-2.4-1.9a4.13,4.13,0,0,1-1.9.2c1.6,1-1.4,2.8-2.1,3.2-2.9,2-5.7,3.9-8.5,5.8,2.7-1.6,5.3-3.4,8-5.1.8-.5,3.3-1.8,3.2,0,0,1.2-1.9,2.5-2.6,3.2-1,.8-1.9,1.6-2.9,2.3,1.3-.8,2.5-2,4-2.3s2.2.4,1.6,1.8c-1.4,3-5.5,4.7-8,6.6,1.2-.8,5-4.2,6.6-3s-2.3,3.9-3.2,4.5c-4.2,3.2-9.2,5.4-13.2,8.9a58.49,58.49,0,0,0,10.9-6.8c2-1.6,4.4-4.6,7.1-4.6,1.6,0,1.6,1,.7,2-1.2,1.3-3,2-4.4,2.9-3.7,2.3-7.2,5.1-10.6,7.7,3.8-2.4,7.5-5,11.5-7.2.9-.5,3.2-1.9,3.6-.2.2,1.2-1.7,2-2.4,2.6.6-.2,1.6-.2,1.8.6s-.8,1.5-1.3,2a49,49,0,0,1-4.8,3.1c-3.8,2.6-7.6,5.2-11.2,8.2a129.54,129.54,0,0,0,11.6-7.7c1.1-.8,4.2-3.5,5.7-2.7,2.1,1.2-3.2,4.2-4,4.7a83.74,83.74,0,0,0-10.8,8c3-1.9,6-3.8,8.9-5.9,1.2-.9,3-2.6,4.6-2.6,2.8.2-.4,2.9-1.2,3.5-2.9,2.1-5.9,4.2-8.7,6.3,2.5-1.6,5-3.5,7.7-4.9,1.1-.5,4.6-1.5,3.6.9-.6,1.5-2.9,2.7-4.1,3.7-2.8,2.1-5.4,4.4-8,6.7,2.1-1.3,4.3-2.6,6.3-4.1,1.3-.8,2.8-2.5,4.5-2.7,3.7-.4-2.9,6.5-3.5,7.1.9-.5,3.5-3.7,4.6-2.2.7.9-.6,2.4-.9,3.2s-.8,2.9-1.9,2.9c-1.9.2-.2-2.59.2-3.2-.9.5-5,4.31-5.5,1.61-.3-2.21,3.9-5,5-6.41-1.2.8-12.1,9.11-13.4,6.91-.9-1.71,3.7-4.51,4.7-5.31,2.7-2.3,5.4-4.5,8.1-6.8-2.3,1.3-4.6,2.6-6.8,4.1-1.7,1.2-3.3,3-5.3,3.7-1.8.7-2.9-.2-1.8-2,1.1-1.6,3-2.5,4.4-3.5-1,.5-3,2.7-4.4,1.8-2.1-1.4,1.6-3.7,2.5-4.5-1.2.7-4.4,3.7-5.6,1.7-1.1-1.8,2.5-3.6,3.7-4.5-.9.5-2.9,1.8-3.4.1-.4-1.1,1.2-2.1,1.9-2.7-1.4.6-1.7-.8-1.2-1.8.5-1.2,1.9-1.8,2.9-2.6-.9.5-2.3,1.5-3.3.8-.8-.5-.5-1.4-.1-2.1,1.2-2.2,3.9-3.2,5.8-4.5-1,.6-2.3,2.2-3.6,2.2-2.5,0-.2-2.6.6-3.2,4.3-3.6,9.2-6.5,13.5-10.1-3.8,2.2-7.8,4.4-11.4,7-.9.7-4.2,3.8-5.2,2s3.3-3.7,4.4-4.3c3.8-2.3,7.2-5.1,10.7-7.7-3.7,2.2-7,5.4-11.1,6.9-1.3.5-3.2.6-2.3-1.4.9-1.6,2.8-2.3,4.2-3.4-.7.4-1.2,1.1-2,1.2-.6,0-1.2-.6-1.8-.4,1.3.9-.8,2.5-1.4,3.1-.8.8-1.5,1.6-2.3,2.3l-.9.9c-.1.2,0,.6-.1.8-.6,1-2.9,2.4-2.8.3.1-1.3,1.8-2.2,2.6-3-1.3.7-2.4-.5-1.9-1.8-2.3,0-1.1-2.8-.1-3.7-.7.4-2.4,1.4-2.7-.1-.3-1,1-2,1.7-2.5-.8.3-2.1.7-2.3-.5-.1-.8,1.4-1.7,1.9-2.1,2.2-1.7,4.6-3.3,6.9-4.9,5.1-3.5,10.2-7.1,14.9-11a162.31,162.31,0,0,0-14.3,8.9,41.56,41.56,0,0,1-6.2,4.1c-1.7.7-4.3.8-2.3-1.4,1.6-1.9,4.1-2.9,6.1-4.2,2.2-1.5,4.5-3,6.7-4.5a128.88,128.88,0,0,0,13.5-9.8c-6,2.8-11.5,6.5-17,10.1-.9.6-10.8,7.6-11.4,5.7-.3-.9,1.6-1.7,2.2-2,1.2-.6,2.3-1.5,3.5-2.2,2.9-2,5.8-3.9,8.7-5.8,5.5-3.7,11.1-7.3,16.1-11.7-5.6,3.3-11.2,6.8-16.7,10.2-1.7,1.1-3.8,3.3-5.8,3.6-1.5.3-2-.7-1.5-1.9,1.2-2.5,4.7-4.4,6.9-6,4.6-3.1,9.3-6.1,13.9-9.3-4.7,2.9-9,6.6-14.1,9-.8.4-3.3,1.7-3.3,0,0-1.1,1.4-1.9,2.2-2.5l3.6-2.7c-1.2.6-3.8.8-2.5-1.3a9.89,9.89,0,0,1,3.2-2.5l3.9-3c-.8.6-3.9,2.9-4.5,1.2-.4-1.3,1.6-2.7,2.3-3.4,1.4-1.4,2.8-2.9,4.1-4.4-1.1.7-6.1,4.8-6.7,2.5-.3-1,.8-2.2,1.3-2.8a6.37,6.37,0,0,0,1-1.8c.1-.6-.2-1.1.2-1.6.7-1.2,1.8-.5,1.9.6,0,1.5-1.3,2.8-1.9,4,1.8-1.2,3.3-3.3,5.5-3.8,1.5-.4,2.4.2,1.9,1.7-1.1,2.7-4,4.5-5.9,6.5,3.5-2.2,7.1-4.4,10.6-6.6.7-.5,2.2-1.6,3.2-1.2.8.4.5,1,.1,1.6-1.2,1.7-3.4,2.6-5.1,3.7-3.4,2.3-6.8,4.9-10.1,7.4a131.76,131.76,0,0,0,11.8-7.6c.9-.7,4.3-3.8,5.5-2.1s-3.3,3.7-4.3,4.3c-3.9,2.3-7.5,5-11.2,7.6,3.4-2.2,6.5-5,10.4-6.4.9-.4,2.6-1,2.8.4s-1.6,2.2-2.5,2.8c-7.2,4.6-14.7,9.1-21.2,14.7,6.9-3.9,13.5-8.3,20.3-12.4,1-.6,4.3-2.6,4.2-.1,0,1.3-1.5,2.1-2.4,2.8l-4.5,3.6c1-.5,2.4-1.7,3.5-1s.1,2.1-.5,2.9c-1.7,2.2-4.3,3.4-6.5,4.9,1-.5,2.9-2.1,4.1-1.4,1.8,1.1-.8,3.1-1.6,3.7-4.5,3.6-9.3,7-14,10.3,4-2.4,8-4.9,12-7.3.6-.3,5-2.8,4.9-1,1.5-1,2.9-1.9,4.4-2.9-1,.6-3.7,2.7-4.4.7-.6-1.6,1.8-3,2.8-3.8-2.3-.9,5-6.2,5.9-6.8-1.8.2-.6-1.8,0-2.4,1.4-1.8,3.7-2.9,5.6-4.1,4.8-3.2,9.6-6.3,14.3-9.6a109.66,109.66,0,0,0-18.4,11.6c-.6.5-1.5,1.6-2.4,1.6-1.7-.1-.7-2-.1-2.8,1.8-2.5,4.8-4,7.3-5.8-1.2.8-4.5,4.6-5.9,2.8s3.3-4.2,4.3-5c-1.1-.4-.5-1.9-.2-2.6s.6-1.2.8-1.9a11.14,11.14,0,0,0,.2-1.7c.3-1.1,1.4-2.2,2.1-.7s-.9,3.2-1.4,4.4c1.1-.5,6-5.3,7.1-3,.7,1.6-3.4,3.4-4.3,4.1a29.1,29.1,0,0,1,3-1.7c.9-.5,2.8-1.7,3.9-1.4,1.7.6-.5,2.5-1.3,3-2.3,1.5-4.6,3-6.9,4.6,2.5-1.6,5-3.1,7.6-4.7,1.9-1.2,4-3,6.4-3.4,2.6-.5,2.51,1.3.9,2.8s-3.9,2.6-5.9,3.9c1.6-1,3.6-3.1,5.7-3.2a1.15,1.15,0,0,1,1.2,1.6c-.39,1.2-1.9,2.1-2.9,2.8-7.5,5.2-15.9,8.9-23.1,14.4,5.9-3.5,11.6-7.3,17.4-10.9,2.8-1.7,5.6-3.4,8.5-5,.8-.4,2.3-1.5,3.21-.7s-.5,2-1.11,2.6c-2.2,1.8-4.9,2.9-7.4,4.3-2.9,1.7-5.9,3.4-8.8,5.1-5.3,3-10.9,5.8-15.4,10,6.7-3.4,12.9-7.5,19.3-11.5,3.2-2,6.6-4,9.91-6,1.39-.9,2.79-1.8,4.2-2.6.59-.3,1.59-1,2.2-.8s1.1.9.5,1.4c1.3-.6,9.6-3.5,8.3.1,2.6-1.5,5.5-3.2,8.6-3.2s1.9,1.9.1,3.1c1.2-.7,6.4-3.5,6.9-.9.8-.4,5.1-3.5,4.8-.7-.3,2.2-4.3,4.1-5.8,5.3,1.4-.9,2.8-2.5,4.6-2.7,2.9-.3.8,2.4-.3,3.3C569.88,37.37,566.38,39.67,563.08,42.27ZM483.17,74c1.6,0,2.7-1.5,3.8-2.5a47.88,47.88,0,0,1,5.3-3.4c3.8-2.2,7.6-4.3,11.5-6.3s7.8-3.9,11.6-6.3,7.7-4.9,11.5-7.4c-7.5,4-15.1,8-22.5,12.2-3.8,2-7.5,4.2-11.2,6.3a48.12,48.12,0,0,0-9.1,6.4A2.84,2.84,0,0,0,483.17,74Zm1.7,1.5a8.79,8.79,0,0,1,1-.6c-.2.1-.3.1-.4.2A.68.68,0,0,0,484.87,75.47Zm2.1-8.2,3.3-2.1c-1,.6-2,1.3-3,2C487.17,67.17,487.07,67.27,487,67.27Zm36.1-21.6c-8.5,5.3-16.9,10.8-25.2,16.4,9.5-5.5,19.3-10.6,28.9-15.8,5-2.7,9.9-5.4,14.8-8.2,2.1-1.2,4.21-2.6,6.3-3.9,1.81-1.1,3.91-2.1,5.11-4-1.91-.5-3.7.8-5.3,1.5C539,35.47,531.07,40.57,523.07,45.67Zm-2.1,12c2.3-1.4,5.1-2.3,7-4.2,1.7-1.6,3.9-2.4,5.9-3.8,2.9-2.1,6-4.1,8.91-6.1-5.61,3-11.21,5.9-16.61,9.2-2.8,1.7-5.5,3.5-8.3,5.3a38.58,38.58,0,0,0-7.1,5.1,8.08,8.08,0,0,0,2.2-.7C515.87,61.27,518.37,59.27,521,57.67Zm-9.6,2.3a49.94,49.94,0,0,0,5-2.9,21.16,21.16,0,0,0-2.1,1.1C513.27,58.77,512.27,59.37,511.37,60Zm24-15.6c-2.9,1.9-5.9,3.9-8.9,5.8.6-.3,1.2-.6,1.7-.9C530.57,47.67,533,46.07,535.37,44.37Zm12.31,24.8c-3.9,2.7-7.81,5.3-11.71,8,2.1-1.3,4.2-2.6,6.2-4,1.81-1.2,3.4-2.9,5.51-3.6Zm-3.9-37.5c.7-.3,1.39-.6,2-.9a3.24,3.24,0,0,0-.91.3A11.87,11.87,0,0,1,543.78,31.67Zm3,12.2c1.09.1,2.2-.9,3.1-1.5,1.3-.9,2.7-1.7,4-2.5,2.9-1.8,5.8-3.7,8.7-5.6-5.1,3.1-10.2,6.2-15.3,9.2A1.63,1.63,0,0,0,546.78,43.87Zm9.2-10.8c1.5-.9,3.5-1.4,4.6-2.9a90.57,90.57,0,0,0-11.51,6.9C551.38,35.77,553.58,34.27,556,33.07Zm-2.1,58.6c5-2.8,10.3-5.4,15-8.7C563.48,84.67,558.48,88.57,553.88,91.67Zm13.4-60.3c-.1,0-.2.1-.3.2C567.08,31.47,567.18,31.47,567.28,31.37Zm.5-.6c.2-.1.6-.4.1-.2C567.88,30.67,567.88,30.67,567.78,30.77Z"/><path class="cls-2" d="M578.77,49.77a5.58,5.58,0,0,0,.7-1.6c.1-.5-.1-.9.2-1.4a1.13,1.13,0,0,1,2.1.1c.3.9-.7,1.9-1,2.6.7-.5,5.1-4.4,6.1-2.8.5,1-1.6,3-2.1,3.6l3.3-2.1c.9-.5,3.1-2.1,4.2-1.7,1.9.7-.4,3.3-1.1,4-2.5,2.4-5.2,4.6-7.6,6.9a76,76,0,0,0,13.7-8.8c1.3-1,4.6-4.5,6.5-3.6,2.8,1.2-3.5,4.9-4.4,5.4a84.89,84.89,0,0,0-12.8,9.5c7.6-3.2,13.6-9.1,20.8-13.1.8-.4,3.2-2.1,3.6-.5.2,1-1.5,1.9-2.1,2.4-4,2.6-7.9,5.1-11.8,7.8,5.2-3.1,10.2-6.2,15.2-9.4-1.8.1-.3-2.2.2-2.8a26.13,26.13,0,0,1,5.8-4.6c5-3.3,10.1-6.5,15.2-9.7-5.2,3-10.1,6.4-15.2,9.6-1.9,1.2-3.8,3-5.8,4.1-.8.5-2.5.8-2.3-.6.2-1,1.9-2,2.6-2.5,1.1-.8,2.2-1.6,3.3-2.3,4.2-2.7,8.5-5.3,12.4-8.3-4.6,2.7-9.5,5.2-13.9,8.2-1.2.9-4.7,4.3-6.4,3.3-1.5-1,.8-2.3,1.5-2.7,1.9-1.2,3.8-2.4,5.7-3.7,4.5-2.8,9.1-5.4,13-8.9-5.3,2.6-10,6.4-14.7,9.9-2.7,2-5.8,4.5-9.1,5.5-.9.2-2.8.5-2.3-1.1.2-.9,1.4-1.4,2.1-1.7,1.6-.9,3.1-1.7,4.6-2.6,6.4-3.7,12.9-7.3,18.9-11.8l-17.7,10.5a73.21,73.21,0,0,1-8.6,4.9c-.9.4-4.2,1.8-3.3-.5-1.3.8-3.5,2.7-5.1,2.1-2.6-1.2,1.3-3.9,2.2-4.6-1.2.7-4.2,3.6-5.7,2.9s.5-2.4,1.2-2.9c2.2-1.7,4.2-3.5,6.2-5.2-1.5,1-2.9,2.1-4.4,3-1,.6-3,1.9-4.2,1.6-3-.9,2.4-4.3,3.2-5-1.3.8-2.5,1.4-3.1-.3a9.25,9.25,0,0,1-.4-2.9c0-.8.1-1.7,1.2-1.2s.7,2.5.9,3.4c1.8-1.1,3.6-2.7,5.7-3.5,1-.4,2.5-.3,2.1,1.2-.7,2.1-4,3.4-5.6,4.8A96.9,96.9,0,0,0,601,27c.8-.6,4-2.6,3.5-.2-.4,1.7-2.8,3.4-4.1,4.4s-2.6,2-3.9,3.1c2.9-1.8,5.9-3.4,8.7-5.3,1.8-1.2,4-3.7,6.4-3.3-.1-1.6.9-3,1.5-4.5-.7.4-3.3,1.8-2.8,0,.2-1,2.5-2.1,3.5-2.3,2.9-.4.2,4.4-.2,5.5,1-.6,8-6.5,8.9-4.4.4,1.1-1.7,1.8-2.3,2.2a41.54,41.54,0,0,0-4.1,2.7c-1.7,1.1-3.5,1.6-5.1,2.7-1.8,1.3-3.5,2.6-5.4,3.8a92.28,92.28,0,0,0-10.7,7.9c6-2.6,11.3-6.7,16.8-10.4,3-2,6.1-3.9,9-6,2.4-1.6,4.7-3.7,7.6-4.2.7-.1,1.7-.3,2,.6.3,1.1-1.3,1.7-1.9,2.1-2.9,1.6-5.7,3.4-8.6,5.1-6,3.6-12.1,6.9-17.6,11.1,7.2-4,14.3-8.2,21.3-12.5,1.7-1,3.4-1.9,4.9-3,.9-.6,2.2-2,3.4-1.7,2.2.6-.5,3.3-1.4,4,1.5,1-.5,2.7-1.3,3.4.8-.5,2-2,3.2-1.3,1,.6.2,1.9-.4,2.6,2-1.2,4.8-3.9,7.2-3.5,3.6.4-1.2,3.9-2.1,4.4-7.6,4.6-15.4,8.7-22.2,14.3,6-3.2,11.8-6.7,17.6-10.2,2.9-1.8,6-3.5,8.8-5.5.9-.6,1.9-1.7,3.11-1.7.89,0,2,.7.79,1.4,1.91,0,.3,2-.4,2.6-1.8,1.7-4.2,2.8-6.3,4-4.8,2.7-9.5,5.4-14.3,8.2s-9.7,5.6-14.5,8.5c-4,2.4-8.2,4.6-11.4,8.1,11.1-4.9,20.7-12.7,31.3-18.6,5.2-2.9,10-6.3,15-9.4,1-.6,4.2-2.6,4.59-.4.11,1.3-2,2.7-2.79,3.5,1.29-.9,2.6-1.8,4-2.7-2.8.3,1.6-4.7,1.9-5.1,1.3-1.4,2.8-3.8,4.5-4.7.8-.5,1.4-.4,1.5.6s-.8,1.9-1.4,2.5c-1.5,1.6-3.6,2.7-5,4.3,2.1-1.3,3.8-3.3,6.1-4.3.6-.3,2.1-.9,2.3.1s-1.1,1.2-1.6,1.5c.9-.4,2.1-1.3,3.2-.9.8.2,1.3,1,.5,1.6-.5.4-1.5.2-2.1.4a9.06,9.06,0,0,0-2.6,1.3A103,103,0,0,0,645.87,37c-1.5,1.2-4.4,4.6-6.5,4s0-2.1.7-2.7c1.91-1.7,3.8-3.4,5.61-5.2-8.91,5-16.91,11.4-25.41,17,2.5-1.5,5.1-3,7.7-4.5.8-.4,1.8-1.3,2.7-.8s.5,1.4-.3,1.8c-1,.6-2.2.7-3.2,1.2s-2.1,1.3-3.2,1.9c-2.3,1.4-4.6,2.8-6.9,4.3-2.5,1.5-5,3.1-7.5,4.6-.9.6-4.1,3.5-5.3,2.6-2.1-1.5,6.7-6.7,7.5-7.3-3.8,2.3-7.7,4.5-11.6,6.6-.9.6-3,2.1-3.9.8-.9-1.1.6-2.6,1.4-3.3-1.5.9-2.9,2.2-4.6,2.6-.8.2-2.7.1-1.9-1.3-1.6.9-4,3.2-6,2.8-3.6-.6,1.7-4.5,2.6-5.2-1.7,1-3.3,2.6-5.3,2.7-1.8.1-1.9-1.1-1.1-2.4,2.2-3.6,6.4-5.5,9.1-8.6a49.48,49.48,0,0,0-7.2,4.7c-.8.7-3.2,3.2-4.4,1.9s3-4.2,3.8-5.1c-1.1.8-2.3,2.3-3.9,1.9C577.77,51.57,578.47,50.37,578.77,49.77Zm-.4,23.1c.2-.7,1.3-1,1.9-1.4.8-.5,2.5-2.1,3.2-.6s-2,4.2-2.6,5.5c5.1-2.5,9.7-6,14.4-9.3,1-.7,11.3-8.5,11.8-5.1.3,1.6-3.3,3.3-4.2,3.9-2.4,1.6-4.7,3.2-7.1,4.7-4.6,3-9.3,5.7-13.1,9.7,1.7.6,3.5-.5,4.9-1.2a65.35,65.35,0,0,0,5.9-3c3.7-2.1,7.3-4.4,11-6.7,13.4-8.7,26.4-18.1,39.6-27.2,5.91-4,11.81-8.4,18.41-11.4,1.4-.6,5.9-2.2,5.6.8-.2,1.9-2.5,3.5-3.8,4.6.8-.6,1.8-1.9,3-1.9,1.4,0,1.5,1.1,1,2.2-1.1,2.6-4.2,3.7-6.4,5.1,2.2.6.4,3.1-.6,4a2,2,0,0,1,2,1.3c.8-.4,2.3-.9,2.4.5.1,1.2-1.4,2-2.1,2.6-3.2,2.5-6.3,5.2-9.3,7.8,3.5-2.2,6.9-4.4,10.4-6.6,1.7-1.1,3.5-2.1,5.2-3.2.9-.6,2.4-2,3.6-1.5,2.2.8-1.1,3.1-1.9,3.8-3.2,2.5-6.3,5-9.5,7.6a62.65,62.65,0,0,0,7.3-5c.7-.6,2.9-2,3.2-.4s-3.1,4.6-4.1,5.7c.8-.6,1.9-1.9,3.1-1.7,1.4.4.8,2.3,1.1,3.3.2.7.8.8,0,1.4a1.22,1.22,0,0,1-1.6.1c-.7-.5-.2-2-.2-2.7-1.1.6-5.4,5.2-6.4,2.5-.7-2,3-4.3,4.1-5.4-1.1.7-10.5,7.8-11.7,5.3-.9-1.7,3.2-3.7,4.2-4.3,2.7-1.9,5.1-4.1,7.7-6.2-3.8,2.3-7.6,4.7-11.3,7.2-1.7,1.2-3.5,2.8-5.6,3.4-.7.3-1.81.5-2-.6s1.4-2.3,2.1-2.9c3.2-2.7,6.5-5.3,9.7-8.1-3.1,1.7-5.8,4-8.8,6s-6.1,4-9.31,5.9a25.21,25.21,0,0,0-4.2,2.4c-1.4,1-2.3,2.5-3.5,3.8-2.3,2.5-5.3,4.4-8,6.5,2.7-1.6,5.3-3.2,7.9-4.9,2-1.4,3.9-3.3,6.3-4.1s2,1.2.91,2.6c-1.51,1.9-3.7,3.2-5.61,4.7,3.5-2.3,6.91-5.2,10.81-6.8,1.8-.8,3.9-.4,2.39,1.7-2.19,3.2-6.2,5.1-9.2,7.4,4.91-3.1,9.51-6.9,14.81-9.3.6-.3,1.9-1.1,2.6-.7,1.2.6.3,1.8-.3,2.5-1.7,2.1-4.1,3.6-6.3,5.3,2.1-1.2,4.2-2.4,6.1-3.7,1.5-1,2.8-2.5,4.5-3.1s2.4.3,1.6,1.9c-.9,1.8-3,2.8-4.5,4,.7-.4,7-4.8,6.8-2.3-.1,1-2.7,2.1-3.4,2.4-1.3.7-2.7,1.3-4,2.1,1.7-1,3.9-3.4,6.1-3.1,3.4.5-1.1,3.8-2,4.5,2.7-.3.8,2.6,0,3.6-2.2,2.4-5,4.1-7.6,6,1.4-.9,2.9-1.7,4.3-2.6.7-.6,2-1.9,3-1.4,1.4.8-.6,2.8-1.3,3.4a12.27,12.27,0,0,1,3.2-1.7c1.7-.4,1.5,1.1.2,1.8-4.4,2.6-8.8,5-13.2,7.9-1.2.8-6.2,5-7.7,3.3-1-1.2,1.59-2.5,2.4-3,2.39-1.4,4.7-3,7-4.5-1.6,1-3.3,2-4.9,3a11.55,11.55,0,0,1-3.61,2c-1.1.3-2.1,0-1.5-1.3.4-1,1.9-1.5,2.7-2.1,3-2,5.91-4.2,8.91-6.4a42.39,42.39,0,0,0,7.7-6.3c-6.4,1.8-12.1,6.5-17.5,10.2-.81.6-10.21,8.5-11.51,6.7-1.1-1.6,9.4-7.3,10.1-7.7,6.21-4.1,12.61-7.9,18.51-12.3-8.8,4.7-17,10.4-25.21,16.1-1,.7-8.1,6.2-9.2,3.7-.6-1.2,1.6-3.1,2.3-3.8,1.7-1.6,3.6-3,5.3-4.5-2.3,1.6-4.7,3.2-7,4.8-1.3,1.1-3.1,3-5,2.8-2.2-.3-.6-2.2.3-3.1,1.8-1.8,3.9-3.2,5.7-4.8-6,4-12.1,8-18.1,12,1.7-.4,1.9,1.3,1.3,2.4-.6,1.3-2,2.1-3.1,2.9-3.3,2.3-6.5,4.7-9.7,7.2,4-2.4,7.9-5,11.8-7.5,1.9-1.2,6.9-5.9,9.3-4.8,2.9,1.3-4.4,5.3-5.2,5.8a105.27,105.27,0,0,0-10,7.6c6.5-4,12.6-8.5,19.2-12.6,1.1-.7,2.6-1.9,4-1.7s1.4,1.2.7,2.2c-.8,1.3-2.4,2-3.6,2.8-1.6,1.1-3.1,2.3-4.6,3.5,2.7-1.7,5.5-3.2,8.1-5.1,1.5-1.2,3.9-4.1,6.1-3.7,1.8.3-.3,2.1-1,2.7a58.79,58.79,0,0,1-7.2,5.1c3-1.6,6-3.3,8.9-5.2,1.1-.7,3.3-2.7,4.9-2.5,2.1.4-1,3.6-1.7,4.3-2.2,2.1-4.7,3.8-7,5.8a178.25,178.25,0,0,0,17.31-10.5c2.9-1.9,5.8-3.6,8.6-5.6,1.6-1.1,3.7-3.6,5.8-3.3,2.5.4-.1,2.5-1,3.1-2.8,2.2-5.7,4.1-8.6,6.1-5.5,3.8-11,7.5-16.11,11.8a127.21,127.21,0,0,0,21.91-13.7c.8-.5,2.2-1.9,3.3-1.5,1.5.6.2,2.3-.4,3-2.5,3-5.8,5.1-8.8,7.4,2.9-1.6,5.8-5,9.3-5.5,2.6-.3,1.2,2.2.1,3.2a66.76,66.76,0,0,1-8,6,76.6,76.6,0,0,1,6.8-4.1c.8-.5,3-1.6,2.9.2,0,2.1-4.2,3.9-5.6,5,1-.6,2.6-2.9,3.9-1.7,1.1.9-.3,3-.6,4.1,1.2-1,1.8.5,1,1.4a2.34,2.34,0,0,1-2.2.71c-1.5-.61-.2-3,.1-4-1.5.9-6.2,5.3-8,4-2.2-1.5,2.8-4.31,3.7-4.91-2.7,1.6-5.6,3.1-8.21,5-.69.41-2.2,1.91-3.09.91-.61-.61,0-1.41.39-2,1.61-2.11,4.11-3.21,6.21-4.61,2.6-1.8,5.2-3.7,7.7-5.6-2.9,1.7-5.9,3.4-8.7,5.2-.8.6-5.6,4.4-5.71,1.8,0-2,4.51-4.3,5.91-5.3,2.6-2,5.2-4.2,7.8-6.5-7.1,4.5-13.51,9.7-21.21,13.1-.8.4-2.4,1.3-3.2.4-1.1-1.3,1-2.7,1.8-3.3,3.5-2.7,7-5.3,10.6-7.9q-4.34,2.85-8.7,5.4c-2.5,1.6-4.8,3.6-7.7,4.4-2.1.6-3.8.1-1.9-2.1,2-2.4,4.7-4,7-6.1-4.2,2.5-8.7,4.7-12.7,7.4-1.2.8-2.6,2.5-4.2,2.5-1.8-.1-1.1-1.7-.2-2.5-1.4.8-2.8,1.6-4.2,2.3,1,1.2-2.4,2.6-3.2,2.8s-1.9,0-1.4-1.1c.3-.79,1.3-1.2,1.8-1.9a2.44,2.44,0,0,1,.9-1.1c.3-.3,1-.4,1.4-.6a20.64,20.64,0,0,0,3.1-2.8c2.5-2.1,5.2-3.9,7.8-6-7,3.9-13.2,9.2-20.1,13.2-.9.5-2.7,1.91-3.6.8s.9-2.6,1.7-3.3c3.2-2.7,6.6-5.2,10-7.6-3.5,2.2-7.1,4.5-10.6,6.9-1,.7-6.6,5.61-7.7,3-.9-2,5.1-5.5,6.3-6.4,3.1-2.2,6.3-4.2,8.9-6.9-4.3,2-7.9,5.1-11.8,7.9-.8.5-2.4,1.9-3.4,1-1.3-1,.6-2.5,1.4-3.1,3.7-2.6,7.6-5.2,11.5-7.8,1.1-.8,6.4-2.7,6.3-4.3-3.5,2.1-7,4.3-10.5,6.4-1.7,1-3.4,2-5.1,3.1-1.2.7-2.4,1.9-3.9,2.1-1.3.2-2.2-.3-1.5-1.6s2.4-1.9,3.5-2.7c3.4-2.2,6.6-4.6,9.9-6.8-1,.6-10.7,7.2-11.5,4.2-.5-1.7,3.2-3.5,4.2-4.2,2.7-1.9,5.2-4,7.8-6-2.9,1.9-5.7,4-8.7,5.8-.8.5-2.2,1.6-2.9.6s.6-1.8,1.2-2.4c4.8-4.1,10.8-6.7,15.6-10.8a59.57,59.57,0,0,0-11.8,7.3c-1.1.9-4,4.1-5.6,3.4-2.8-1.3,5.8-6.4,6.8-7,7-4.2,14.1-8.3,21-12.7,3.5-2.2,7-4.4,10.6-6.4a54.49,54.49,0,0,0,5.3-2.9c1.11-.8,1.7-2.2,2.81-3,1.59-1.3,3.5-2,5.2-3.1s3.5-2.1,5.3-3.1c2.9-1.7,6.3-2.9,8.5-5.6-2.2-.6-4.2,1.3-5.8,2.5-2.4,1.7-4.9,3.1-7.4,4.6-5.41,3.1-10.81,6.1-16.21,9.2-9.2,5.2-17.9,11.4-26.5,17.4-2,1.3-3.9,3-6.1,3.7-1.3.4-2.9.4-2.4-1.3.6-1.9,3-3,4.6-4,2.1-1.3,4.2-2.7,6.4-4,9.4-5.7,19-11,28.3-17,4.41-2.8,8.7-5.6,13.31-8.1,2.3-1.2,4.7-2.3,7-3.5,1.8-.8,3.7-1.8,4.6-3.5-3.2-.2-5.7,2.4-8.2,4-3.1,2.1-6.4,3.8-9.6,5.7-11.71,6.8-22.71,14.7-34.41,21.6-5.7,3.4-11.9,6-17.3,9.7-2.2,1.5-4.3,3.7-6.9,4.2-1,.2-2,.1-1.7-1.2.2-1,1.4-1.5,2.2-2.1-1.9-.2-2.6-2.1-1.1-3.3-1.4.3-3.7-.2-3.2-2.1s3-2.9,4.5-3.8c4.9-3.2,9.7-6.8,14.5-10.1-5.4,3.4-10.6,7.1-15.9,10.7-1.1.8-3.8,3.1-5,1.5-1.1-1.4.9-3.6,1.6-4.8-.5.3-1,.5-1.5.8C578.57,74.47,578.17,73.47,578.37,72.87Zm73.41-28.3c-11.11,6.9-22.51,13.3-34,19.7-5.8,3.2-11.7,6.5-17.5,9.8-2.7,1.5-5.4,3.1-8.1,4.6a43.22,43.22,0,0,0-7.3,4.7c2.5,1.1,4.9-1.2,6.8-2.5,2.5-1.7,5.1-3.1,7.7-4.6,5.5-3.2,11.1-6.2,16.5-9.6,10.8-6.6,21.4-13.7,32.51-19.7C649.57,46.17,650.68,45.37,651.78,44.57Zm-18.21,22.8c-3,1.8-6.1,3.6-9,5.5a79.44,79.44,0,0,1-8.7,5.5c1.1,1.2-1,2.7-1.8,3.3,2.1-.6,1.4,1.7.6,2.6-1,1.1-2.6,1.8-3.9,2.7-3.7,2.7-7.3,5.7-10.9,8.6,6-2.9,11.5-6.7,17-10.3a28,28,0,0,0,4-2.7c.7-.6,1.6-1.7,2.5-1.8,1.4-.3,1.4.6.8,1.5-1.5,2.4-4.5,4.3-6.7,5.9-4.8,3.4-9.8,6.7-14.6,10.1,8.6-5.2,17.2-10.5,25.8-15.7.8-.4,5.4-3.4,5.7-1.5,0,.5-.9,1.4-1.2,1.9a9.06,9.06,0,0,1-1.1,2.2c-1.2,1.6-3.1,2.6-4.6,3.9,1.2-.8,12-10.2,13.6-7.4.8,1.3-2.1,3.3-2.9,4-2.4,1.9-4.9,3.8-7.1,5.9,5.5-3,10.71-6.7,15.91-10.1-.61.4-2.31,1.1-2.7.1-.5-1.3,2.2-2.5,2.9-3,4.1-2.5,8-5.5,11.9-8.4-3.4,2.1-6.8,4-10.1,6.1-1.11.7-3.41,2.5-4.7,2-2.41-.8,1.79-3.3,2.5-3.7a64.6,64.6,0,0,0,9.1-7.2c-3.4,2-6.81,4.3-10.2,6.4-1.51.9-3,1.8-4.51,2.8-1.2.8-2.4,2.1-3.8,2.4-1.6.3-2.4-.6-1.5-2,.6-1.1,2-1.8,3.1-2.5,3.2-2.3,6.4-4.6,9.41-7.1a60.11,60.11,0,0,0-8.1,5c-2.41,1.7-4.61,3.8-7.21,5-3,1.5-2.7-.8-1-2.5,2-2.1,4.4-3.8,6.6-5.7-4.4,2.9-8.9,6.8-14,8.6-1.2.4-3.1.5-2.2-1.3.9-2,3.6-3,5.3-4.3C629.67,70.57,631.67,69,633.57,67.37Zm-24.4,9.1a84.74,84.74,0,0,0-8.9,5.8C603.27,80.47,606.27,78.47,609.17,76.47Zm7.9-13.6c9.1-5.1,18.3-10.3,27.3-15.6,4.41-2.7,8.91-5.3,13.21-8.2,1.9-1.4,3.7-2.8,5.6-4.1,1.3-.9,3.2-1.8,3.3-3.5-2.1-.3-4.1,1.2-5.8,2.2-2.2,1.2-4.3,2.5-6.5,3.8C641.47,45.47,629.37,54.37,617.07,62.87Zm45.61-23.8c-1.1.8-2.3,1.6-3.4,2.3A40.47,40.47,0,0,0,662.68,39.07Z"/></g></g></svg>