<svg xmlns="http://www.w3.org/2000/svg" viewBox="0 0 750.12 131.89"><defs><style>.cls-1{fill:#333;}.cls-2{fill:#fff;}</style></defs><title>アセット 4</title><g id="レイヤー_2" data-name="レイヤー 2"><g id="レイヤー_1-2" data-name="レイヤー 1"><polygon class="cls-1" points="725.39 131.89 0 131.89 24.73 0 750.12 0 725.39 131.89"/><path class="cls-2" d="M245.56,94.47c2.2-.1,1.2,2.5,1,3.7,2.6-1.6,5.1-3.4,7.8-4.9.7-.4,2.8-1.7,3.5-.7,1,1.5-2.4,3.1-3.2,3.6a68,68,0,0,0-7.3,5.7c6-3.4,11.3-7.8,17.3-11,.8-.4,2-1.4,2.9-1.1,1.7.5.2,1.6-.5,2.2-2.9,2.3-6.2,4.1-9.2,6.1,3.5-2.2,7.2-4.1,10.6-6.6a34.72,34.72,0,0,0,4.5-4.1c1.5-1.4,3.2-2.6,4.8-3.9-1.3.7-2.5,1.6-3.7,2.4s-3.2,2.2-4.6,2c-2.3-.4.1-2.7.9-3.3,2.7-1.9,5.3-3.8,7.9-5.9-3.1,2.1-5.9,4.8-9.3,6.3-1.4.6-3.5.5-2-1.5a25.76,25.76,0,0,1,3.4-3.2c1.4-1.3,2.7-2.7,4.1-4.1-1.4.9-8,7.1-9.6,4.7-1.4-2.1,5.5-6.2,6.8-7.3-1.7,1.1-3.4,2.2-5,3.4-1,.8-2,1.9-3.3,2.2-1.1.3-1.9,0-1.8-1.3s1.8-1.9,2.7-2.6c-1.2.8-3.2,2.6-4.8,1.5-1-.7-1-2.5-1-3.6,0-.8.1-2.8,1.3-1.9s.6,3.1.7,4.2c4.9-1.7,8.6-5.5,13-8.1.8-.5,4.4-2.2,3.2.2a6.74,6.74,0,0,1-2.2,1.9c-1.2.9-2.2,1.7-3.3,2.6.7-.5,6.1-3.9,5-.7-.8,2.4-4.1,4-5.9,5.6,2-1.3,4.6-4.4,7.1-4.3,2.1,0,.6,2.1-.1,2.9-1.9,2.1-3.9,4-5.9,5.9,2.6-1.8,5.2-3.9,8-5.5,1.2-.7,3.6-1,2.8,1-1.2,2.8-4.9,4.6-7.2,6.3,2.1-1.3,4-2.7,6.1-4,1-.7,2.5-1.9,3.8-1.9,1.9-.1,1.1,1.4.3,2.2-1.5,1.6-3.4,2.6-5,4,2.7-1.8,5.5-3.5,8.8-4.1,1-.2,4.3-.6,3,1.4,3.5-2.4,7.1-4.8,10.6-7.2-.7.4-2.4,1.5-3,.6-1-1.4,2.3-2.8,3-3.3,4.7-3,9-6.5,13.5-9.7-2.1,1.2-4.1,2.9-6.4,3.8-1.8.8-3.4.2-1.6-1.6s4-2.8,6-4.1c2.3-1.5,4.5-3.1,6.7-4.8a162.71,162.71,0,0,0-13.7,9.1c-.8.6-7.3,5.4-7.7,2.5-.1-1,1.8-2.2,2.4-2.7a39.26,39.26,0,0,1,4.2-2.9c4.3-2.7,8.5-5.5,12.7-8.4a106.11,106.11,0,0,0-10.6,6.8c-3.1,2.2-6.1,5-9.6,6.4-.7.3-2.1.8-2.4-.3s1.7-2.1,2.4-2.6c3.6-2.2,6.9-4.9,10.2-7.4a161.73,161.73,0,0,0-14.2,9c-1.2.8-2.9,2.4-4.4,2.4-1.1,0-1.2-.7-.6-1.4,1.4-1.9,4.1-3.2,6.1-4.3a73.67,73.67,0,0,0,12.3-8.3c-5.3,2.5-10.1,5.8-15,8.8a65.78,65.78,0,0,0-6.1,4.2c-.5.4-2.9,2.1-3.3.6s4.4-4,5.4-4.7c3.9-2.4,8-4.9,11-8.5-3.6,1.3-6.7,3.8-9.8,5.9-1.6,1.2-3.3,2.3-4.9,3.4-1.4,1-2.7,2.4-4.3,2.9-1.3.5-2.8.2-2-1.4.6-1.2,2-1.8,3-2.5,3.4-2.3,6.7-4.9,10-7.2-6,3.7-11.6,8.2-17.7,11.8-1.1.6-4.3,2.2-4-.4.4-2.3,3.7-3.5,5.3-4.7-2.9,1.9-5.8,4.4-9,5.6-.9.4-2,.8-2.5-.2-.5-1.3,1-2.5,1.8-3.2-1.9,1.1-3.9,2.8-6.3,2.8-1.9,0-2-1.3-1-2.6,1.3-1.8,3.5-3.1,5.2-4.5,2.2-1.6,4.3-3.3,6.4-5.1-2.9,1.8-5.8,3.6-8.7,5.5a72.23,72.23,0,0,1-7.8,4.9c-.8.3-2.4,1.1-2.7-.3-.1-.8,1-1.6,1.5-2.1,2.5-2.3,5.1-4.3,7.7-6.5-1.7,1.2-4.5,5-6.9,4.2-1.9-.7.4-2.9,1.1-3.8-.8.5-1.9.6-2.1-.6-.1-.8.9-1.7,1.3-2.4-1,.9-1.6,0-1.1-1,.3-.8,1.6-1.4,2.4-1.7,2.9-.9.8,2.3.2,3.4.7-.5,2.7-2.3,3.7-1.9,1.8.9-2.3,4.3-2.8,4.9,1.2-.9,2.4-1.9,3.6-2.8s3-2.5,4.6-2.4c2.5,0,.4,2.6-.5,3.4-2.4,2.1-5,4-7.4,6.1,4.2-2.6,8.1-5.7,12.5-8.1.7-.4,7.2-4.2,6.4-1.2-.5,1.9-3.3,3.5-4.8,4.7-3.4,2.6-6.8,5.1-10,8,5.5-2.1,10.4-5.4,15.4-8.5,5.3-3.4,10.7-6.7,16-10.2s10.6-6.8,16-10.2a76,76,0,0,1,7.2-4.3c2.1-.9,4.6-.1,2.3,2.2a25.49,25.49,0,0,1,5.9-3.5c1.3-.5,3.2-.3,2.4,1.5s-3.1,2.8-4.6,3.9c-2,1.4-4,2.8-6,4.1,3.9-2.4,7.8-5,11.6-7.6.7-.4,2.8-2.1,3.6-1.2.5.5,0,1.1-.3,1.6-1.4,2.1-4,3.7-6,5.2-1.8,1.3-3.7,2.5-5.5,3.8,2.8-1.7,5.4-3.4,8.1-5.2,1.3-.8,2.6-1.7,3.9-2.6a5.44,5.44,0,0,1,2.6-1.6c2.5-.4.8,2.4,0,3.3a52,52,0,0,1-6.3,6.1c2.1-1.3,4.2-2.6,6.2-4.1.7-.5,2.5-2,3-.5.6,1.8-2.9,4.1-3.8,5.2.8-.5,2.5-.8,1.9.6-.5,1.1-3.1,2.3-4.2,2.6-1.3.4-2.1-.1-1.5-1.5s2.2-2.3,3.2-3.5c-.8.5-10,7.1-9.8,3.8.1-1.3,2.3-2.6,3.1-3.2a63.18,63.18,0,0,0,6-5.6c-4.8,3.2-9.2,7.2-14.6,9.4-.9.3-4.4,1.6-3.6-.7.3-.8,1.3-1.2,2-1.6,1.3-.9,2.6-2,3.9-3-3.4,2.2-6.9,4.2-10.4,6.3-.8.5-1.9,1.5-2.9,1.4-2.2-.2-.8-2,.1-2.8,2.3-2.2,5.3-3.6,8-5.3a104.65,104.65,0,0,0,9.3-6.7c-5.3,3-10.2,6.6-15.2,10-.9.7-6.6,4.9-7.3,2.5-2.2,1.2-4.4,2.5-6.5,3.7.8-.4,5.9-2.6,4.5.1-.9,1.6-3.3,2.4-4.7,3.2a149.43,149.43,0,0,0-19.6,13.2c6.5-3.9,12.6-8.3,18.8-12.4,1.1-.8,3.7-2.8,5.1-1.9,2.2,1.4-1.9,3.4-2.8,4,1.4-.8,4.8-4,6.5-2.5,1.2,1-.3,2.9-1.1,3.7,2.3-1.5,4.7-2.8,7.2-4.1.8-.4,1.9-1.1,2.7-.4.6.5.3,1.5-.2,2.1,1-.5,2-1.6,3.2-1.5,1.4.2,1.3,1.5.5,2.3,2.2-1.4,4.4-4,7.2-4,1.3,0,2.3.6,1.6,2-.7,1.1-2.1,1.6-3.2,2.3,1.2-.7,5.9-5.1,6.9-2.3.9,2.4-4.1,4.4-5.5,5.4.8-.5,4.7-3.8,5.7-2.5.8,1.1-1.9,3.1-2.5,3.5-4.3,3.6-9.1,6.5-13.7,9.8,4.9-2.9,9.6-6.4,14.8-8.8.6-.3,3-1.4,2.5.2-.3.7-1.4,1-2,1.3-1.2.6-2.3,1.4-3.5,2,1.6-.6,3.7-1.8,5.4-1,1.5.7,1.4,2.2.8,3.5-1.4,2.9-4.8,4.3-7.3,6,.7-.5,1.7-1.7,2.7-1.4,1.2.3.8,1.5.4,2.2-1.3,2.1-3.9,3.2-5.9,4.4-5.6,3.5-11.2,7-16.8,10.4,5.3-3.1,10.7-6.3,16-9.4.7-.4,1.7-1.3,2.5-1,1.1.3.9,1.2.5,2-1.1,2.1-3.7,3.3-5.5,4.5-9.6,6.2-20.3,10.9-29.3,18A238.19,238.19,0,0,0,309.56,86c.8-.6,2.3-2.1,3.5-1.7,1.6.6-.3,2.4-.9,3.1-2.9,3-6.6,5.3-10,7.9,1.8-1.2,3.6-2.3,5.3-3.6,1.2-.8,2.6-2.2,4.2-2.3s1.8,1.2.9,2.4-2.4,1.7-3.6,2.5c1.9-1.1,3.7-2.8,5.9-3.4,1.9-.5,1.9.9.9,2.2s-2.8,2.3-4.1,3.5a61.5,61.5,0,0,0-5.3,4.9q5.4-3.15,10.5-6.6c1-.6,5.7-4.6,6.6-2.3.5,1.3-2.1,3.2-2.9,3.9-3,2.5-6.2,4.8-9.2,7.2,4.1-2.4,8-5,12.1-7.5.8-.5,2.7-2.1,3.5-1,.4.4.2,1,0,1.5-1.6,3.4-5.7,5.6-8.3,8,3.6-2.2,7.4-4.2,10.9-6.6.9-.7,2.5-2.3,3.8-1.8s.4,2-.3,2.6c.5-.2,1.8-.8,2.3-.2.7.8-.4,1.6-.9,2.1-2.1,1.9-4.6,3.1-6.8,4.8,1-.7,3.6-3.5,4.9-2.3,1.8,1.6-2.4,4.7-3.2,5.8.7-.3,3.5-1.6,2.5.4-.4.8-2,1.4-2.9,1.9-1.3.6-3,.7-2.4-1.3.5-1.5,1.9-2.5,2.8-3.7-1.6,1-4,3.9-6.1,3.3-1.7-.5-.1-2.5.7-3.2-1.5,1-2.8,2.6-4.6,3-1.4.3-2.4-.3-1.5-1.7s3.1-2.2,4.6-3.1c2-1.2,3.9-2.6,5.8-4-2.8,1.7-5.6,3.4-8.4,5.2-.7.5-3.9,3.1-4.8,1.6s2.5-4.5,3.4-5.2c1.8-1.6,3.9-3,5.7-4.7-3,1.8-5.9,3.6-8.8,5.4-1.4,1-5.8,5-7.7,4-2.3-1.3,2.7-4.5,3.5-5.1,2.9-2.2,5.7-4.4,8.5-6.8a100.68,100.68,0,0,0-8.8,5.6c-1.9,1.3-3.9,3.3-6.3,3.7s-1.3-1.7-.4-2.9c1.9-2.4,4.4-4.3,6.7-6.4-4,2.4-8.1,4.5-11.9,7.2-.9.5-2.8,2.5-4,1.7-1-.7.1-1.9.7-2.5-.9.5-3.1,2.1-4.1,1.2-1.2-1.2,1.6-2.7,2.3-3.2,4.9-3,9.2-6.8,13.6-10.4-6.2,3.8-12.4,7.4-18.5,11.3-1.5,1-3.2,2.4-5,2.7-2.9.6-1.5-1.9-.3-3,4.1-4.2,9.6-6.8,14.6-9.6A186.45,186.45,0,0,0,316,79.57c-11.3,6.5-22.6,13.3-33.9,19.9-5,2.9-10,6.2-15.3,8.7-1,.6-3.6,1-2.5-1,.7-1.2,2.5-1.9,3.6-2.6-3.6,2-7.2,4-10.9,5.8-1,.5-2.9,1.7-3.9.6-.8-.9,0-2.3.7-3-1.3.7-3.1,1.9-4.7,1.6-1.8-.4-1.4-2-.3-3a28.49,28.49,0,0,1,5.1-3c2.5-1.4,4.9-2.8,7.4-4.3,5-3,10-6.1,15-9.1,4.7-2.9,9.7-5.5,13.7-9.3-4.4,1.4-8.2,4-12,6.4-4.3,2.6-8.5,5.3-12.8,8s-8.6,5.2-12.6,8c-1,.8-2.4,2.4-3.7,2.3-2,0-.9-2-.1-2.8-.9.6-5.2,3.4-4.8.3.2-1.8,3.1-3,4.3-4.1-.8.6-1.9,2-3,1.4-1.2-.8-.2-2.7-.1-3.7-.6.4-2.1,1.8-2.8.7S244.66,94.57,245.56,94.47Zm1.2-65.4c1.3,1-.6,3.6-1,4.7,1.3-.8,2.5-1.9,3.8-2.8.9-.6,3.1-2.3,4.3-1.7,3.1,1.3-4,6.9-4.9,7.9,3.8-2.3,7.7-4.6,11.3-7.1.9-.6,2.7-2,3.9-1.7.9.2.8.8.4,1.5-1,1.6-3.3,2.6-4.9,3.7-3.8,2.5-7.4,5.3-11.1,8.1,4.3-2.4,8.4-5.1,12.5-7.8,1.8-1.2,3.7-2.2,5.4-3.5.8-.6,2.9-2.7,4.1-1.8s-2,3.2-2.8,3.8c-3.8,2.8-7.7,5.4-11.5,8.2,4.2-2.7,8.4-5.2,12.5-8,1.4-1,5.3-4.4,7.3-3.3,2.6,1.5-3,4.9-4,5.5a84.61,84.61,0,0,0-11.2,8.5c9.2-5,17.9-10.7,26.7-16.2l6.6-4.2c1.4-.9,3.4-2.7,5.2-2.4,4.1.6-3.8,6.4-4.6,7,1.1-.6,2.4-1.9,3.8-1.8s1.6,1.3,1,2.3c-.7,1.3-2.1,2.1-3.2,2.9-1.6,1.2-3.2,2.5-4.8,3.6,2.3-1.4,4.5-3.3,7-4.2,2-.7,3.9-.2,2.3,2s-4.1,3.5-6.1,5c-2.5,1.8-4.9,3.7-7.4,5.6,6.8-4.1,13.2-8.6,20.2-12.4.7-.3,3-1.9,3.8-1s-.7,1.7-1.4,2a67.8,67.8,0,0,0-8.4,4.5c-5.8,3.6-11.9,7-17.5,11-.7.4-4.7,3.3-5.1,1.3-.2-1.1,1.9-2.6,2.7-3.1,5.6-4.2,11.4-8.3,16.8-13a149.05,149.05,0,0,0-12.6,8c-1.1.7-7.6,6.3-8.7,3.9-.7-1.4,2.6-3.2,3.4-3.7,1.9-1.2,3.7-2.5,5.5-3.7,3.8-2.8,7.7-5.5,11.3-8.7-6.2,2.8-11.8,6.5-17.4,10.2-2.8,1.8-5.6,3.7-8.5,5.5-.4.3-4.5,3-4.7,1.3s5.5-4,6.7-4.8c2.9-1.8,5.8-3.9,8.7-5.8a117,117,0,0,0,15.7-11.5,360.57,360.57,0,0,0-32.7,19.9c-1.6,1.1-4.3,3.5-6.4,3.1-1.8-.4-.3-2.4.4-3.2,3.6-4.3,9-7,13.4-10.5-6.8,3.9-12.9,8.9-19.8,12.6-1.1.6-5.2,2.1-3.6-.7,1-1.8,3.3-2.6,4.8-3.8-1.3.9-8.9,7.2-10,4.1-.5-1.5,2.4-3.3,3.3-4,1.4-1.1,3.1-2,4.5-3.1-.8.6-6.5,5.2-6,1.5.4-2.7,4-4.8,5.7-6.7-1.8,1.1-3.4,2.6-5.4,3.4-1.1.4-3,.7-2.3-1.1C244.06,33.47,244.86,27.67,246.76,29.07Zm14.6,72.7q5.85-3.75,11.7-7.8c-7.5,4.6-15.2,8.8-22.5,13.6C254.46,106.37,258,104,261.36,101.77Zm50.5-25.6c-9.9,5.8-20.1,11.1-30.2,16.5-5,2.8-10.1,5.5-15,8.4-2.4,1.4-4.7,2.8-7,4.3-1.9,1.2-4,2.3-5.2,4.2,4.9-1.4,9.1-4.4,13.4-6.8,4.8-2.7,9.5-5.5,14.2-8.3,9.4-5.7,18.8-11.5,28.2-17.3C310.86,76.87,311.36,76.47,311.86,76.17Zm-23-26c-4,2.3-8.1,4.6-12.1,7-3.6,2.2-7.4,4.3-10.3,7.3a4.13,4.13,0,0,0,1.1-.7C274.76,59.47,281.66,54.47,288.86,50.17Zm-13.2,44c11.7-6.4,23.5-12.6,35.1-19.2,5-2.8,10.3-5.4,14.4-9.5,1.2-1.1,2.4-3-.3-2.6s-5.2,2.2-7.6,3.6C302.66,74.57,289.36,84.77,275.66,94.17Zm5.5-74.2c1.7.3.8,3.2.9,4.4,1.5-.9,3.1-1.8,4.5-2.7.6-.4,1.6-1.4,2.4-1.3,2.1.5-1,2.4-1.6,2.7-1.3.9-4.3,3.8-6.1,3-1.4-.5-.9-2.9-.9-4C279.16,22.17,279.76,19.77,281.16,20Zm14.1,24.7c3.7-2.1,7.3-4.1,10.9-6.3a59.33,59.33,0,0,0,9.4-6.3c-1.1.6-2.3,1.3-3.4,1.9C306.46,37.47,300.86,41.07,295.26,44.67Z"/><path class="cls-2" d="M343.86,71c-1.3.8-2.5,0-1.3-1.3.7-.6,2.4-1.6,3.3-1.5,2.9.4-1.5,5.1-2.1,6,5.2-2.6,9.8-6.1,14.5-9.4,1.3-.9,10.3-8.3,11.8-5.7,1.3,2.4-7.7,6.9-8.8,7.6a137.76,137.76,0,0,0-14.2,9.8c6.1-3.5,11.5-8,17.6-11.4.9-.5,4.6-2.1,3.9.5-.4,1.5-2.5,2.7-3.7,3.5,2.7-1.6,5.3-3.3,8-5-1.2-.6-.3-2.1-.5-3.1-.1-.5-.5-.4-.6-1.1,0-.4.3-1.2.8-1.3,1.4-.4,1.3,2.6,1.3,3.5a32.49,32.49,0,0,0,5.1-3c1.1-1,1.4-2.6,2.7-3.6,3.3-2.8,7.2-4.7,10.7-7.4-4.5,2.6-8.7,5.7-13,8.6-.9.6-2.8,2.3-3.9,1.3-1.2-1.2,1.1-2.5,1.9-3.2-.9.6-2.3,1.9-3.5,1.5-1.7-.4-.6-2.2.1-3,2.1-2.7,5.2-4.2,7.9-6.1-.8.4-11.3,8-11.9,5.4-.5-2.1,5.6-5,7-5.8,4.3-2.5,8.9-4.9,12.8-7.9,5.4-4.1,11.5-7,17.1-10.8-6.3,3.7-12.6,7.4-19,11.1a72.64,72.64,0,0,1-9,5.2c-.6.2-3.6,1.5-2.9-.3-2.9,2.8-6.3,4.9-9.6,7.2-3.6,2.5-7.2,5.1-10.7,7.8,2.2-1.5,4.4-2.9,6.5-4.4,1.6-1.1,3.3-2.8,5.2-3.1s2.2.8,1.2,2.1c-1.2,1.6-3.2,2.5-4.8,3.7,1.1-.8,2.3-2.4,3.8-2.3s.9,1.1.1,1.7a93,93,0,0,1-9,5.9,23.52,23.52,0,0,1-4.6,2.8c-1.2.5-2.9.3-2.1-1.3s2.8-2.2,4-3.1c1.9-1.2,3.6-2.6,5.4-3.9-2.9,2-5.6,4.5-8.9,5.9-.6.3-1.7.8-2.4.2-1.1-1,.7-2.3,1.4-2.9,6.1-4.8,12.5-9.3,18.9-13.9-4.7,2.8-9.2,6-13.8,8.9-.9.6-3.1,2.2-4.2,1.3-.8-.7,0-1.7.5-2.3a31.64,31.64,0,0,1,6.2-4.7c4.5-3,9.2-5.8,13.6-9-6.8,3.9-13.2,8.5-19.9,12.5-.8.5-2.3,1.8-3.3,1-.6-.4-.3-.9.1-1.5a11.74,11.74,0,0,1,3.7-3.3c-2,1.3-4.5,4.2-7.1,4.2-3.4-.1,1.2-4,1.9-4.5-.7.3-3.4,1.6-3.8.4-.6-1.8,3.6-3.9,4.7-4.6a172,172,0,0,0,17.6-12.8c-5.9,3.4-11.1,7.9-17,11.5-1.1.6-3.7,2.5-4.9,1.7-1.9-1.3,1.5-4,2.1-5-.6.5-1.8,1.9-2.7,1s.2-2.2.5-3c-.7.4-2.1,1.8-2.8.7-.5-1,1-1.5,1.6-1.9s1.7-1.5,2.6-1.2c1.4.4.3,2.1.1,3,.9-.7,1.9-1.7,3.2-1.7-2.4-2.9,9.4-9.3,11.1-10.6a61,61,0,0,0-5.9,4c-.6.5-2.9,2.2-3.4.8s2.7-3.7,3.6-4.5c-1.1.6-3.7,3.1-4.8,1.5-.8-1.2.6-3.9,1.1-5.2.2-.6.5-1.9,1.3-2.1s.9.7.9,1.2c0,1.6-1,3.1-1.5,4.5a75.65,75.65,0,0,0,6.7-4.2c.6-.5,3-2.4,3.3-.5s-3.5,3.7-4.7,4.8c1.7-1.1,3.2-2.2,4.9-3.2s4-2.6,6.1-2.8c.7-.1,1.2,0,1.3.8.1,1.3-1.8,2.2-2.7,2.7a88.33,88.33,0,0,0-10.1,7.2c2.7-1.7,5.2-3.9,8.3-5,.5-.2,1.9-.8,2.4-.2.8.9-.8,1.4-1.4,1.7a46.72,46.72,0,0,0-8.1,4.6c-1.3.8-2.6,1.6-4,2.5-1.1.8-2.3,2.1-3.8,2.3,1.5,1.3-2.5,4.8-3.2,5.9,5.1-2.6,9.6-6.3,14.2-9.6,2.2-1.5,4.5-3.3,7-4.1.8-.3,1.9-.6,2.1.5.4,1.8-2.5,3.6-3.7,4.4-5,3.4-9.9,7-14.9,10.6q5.4-3.15,10.5-6.6c.7-.4,6.5-4.7,5.8-1.7-.3,1.2-2.7,2.5-3.6,3.1-1.6.9-3.1,1.9-4.7,2.9a105.6,105.6,0,0,0-9.6,6.9c5.1-3.2,10.2-6.4,15.2-9.6,1.6-1.1,4.2-3.6,6.3-3.1,1.8.4.5,2.1-.4,2.8a15.39,15.39,0,0,1,3.1-1.7c.9-.3,2-.3,3-.6,2.2-.7,4-2.3,5.9-3.6,4.2-2.8,8.5-5.4,12.6-8.3,1.1-.7,2.8-2.1,4.2-1.7,2,.6,0,2.6-.8,3.4-3.4,3.2-7.5,5.5-11.3,8.2a115.21,115.21,0,0,0,10-6.6c2.7-1.9,5.5-4.8,8.8-5.6.6-.1,2-.3,2.1.6s-1.8,1.2-2.4,1.4c-3.2,1.2-5.9,3.7-8.7,5.7-3.2,2.3-6.5,4.6-9.8,6.5-.9.6-3.3,1.9-4.3,1.2-2-1.6,2.8-4.3,3.7-4.8a107.18,107.18,0,0,0,9.4-6.8c-3.6,2.2-7.2,4.6-10.7,6.9-1.7,1.1-3.4,2.3-5.1,3.3a43.71,43.71,0,0,0-4.8,2.5,100,100,0,0,1-9.9,7.2,115.35,115.35,0,0,0-9.9,6.8c5.4-3.3,10.8-6.6,16.1-10.2,1.7-1.2,3.7-3.8,6-3.9,2-.1,1.1,1.9.4,3,7.8-4.3,15.4-8.9,23-13.4,3-1.8,6-3.7,9.1-5.4.7-.5,4.3-2.4,3.5-.1,1.1-.5,4.4-1.8,3.6.8-.6,1.6-2.7,2.6-4,3.7a104.18,104.18,0,0,1,10.1-6.1c.6-.3,5.4-2.7,5-.5-.2.9-3,1.3-3.7,1.6-2.9,1.1-5.6,3.1-8.2,4.8-4.5,2.9-8.8,6-13.3,8.8-1.3.9-3,2.1-4.5,2.3-2.3.3-.8-1.9.3-2.5a83.77,83.77,0,0,0,15.1-11.3c-7.5,4.1-14.4,9.1-21.7,13.6a.92.92,0,0,1,.5,1.3c1-.6,2.7-2.6,4-1.7s-.1,3.1-.3,4.2c3.7-1.2,7-3.5,10.3-5.5,3.5-2.2,7.1-4.4,10.6-6.6s7.1-4.4,10.6-6.7c.7-.5,4.2-3.2,4.4-1.1,1.31-.5,1.4.9,1,1.7s-1.4,1.4-2.2,2c-2.5,2.1-5.1,4.1-7.5,6.3,2.4-1.5,4.6-3.4,7.3-4.3.9-.3,1.9-.6,2.1.7.11,1-1.1,1.9-1.7,2.5.5-.3,1.3-1.4,2-1s.4,1.1.1,1.6c-.8,1.4-2.5,1.7-3.8,2.4,2.2-.2-.6,2.4-1,2.6-1.4.9-2.9,1.6-4.3,2.6-1.1.9-5.8,5.3-7.5,3.2-1-1.4,2.7-3.6,3.6-4.2a89.42,89.42,0,0,0,9.5-8c-1.9,1.1-3.7,2.1-5.5,3.2-1.1.7-2.2,1.7-3.4,2.4-1.7.9-2.4-.2-1.5-1.7,1.8-2.9,5-5,7.6-7.1-6.1,3.9-12.5,7.3-18.7,10.9,1.9.4-.4,1.7-1.1,2.1.7-.3,2-.7,2.2.3s-1.4,1.2-2,1.5c-3,1.2-5.6,3.2-8.3,5,3-1.7,5.7-4.1,9.2-4.8,1.1-.2,2.7-.4,2.5,1.2-.2,1.1-1.6,1.8-2.5,2.4-6.7,4.2-13.6,8.2-20.5,12.2s-13.9,8.1-20.8,12.4c-3.2,1.9-6.4,4-9.6,6-2.8,1.8-5.9,3.6-8.1,6.3,3.4-1,6.3-3.1,9.3-4.9,3.2-1.9,6.4-3.7,9.7-5.5,6.3-3.7,12.5-7.7,18.7-11.7s12.8-7.7,19-11.9c1.3-.8,3.6-3,5.2-2.5,2.8.9-1,3.8-1.8,4.5,6.1-3.8,12.3-7.6,18.2-11.7,1.1-.7,4.1-3.3,5.2-1.4.9,1.6-2,3.1-2.9,3.9.8-.6,3.4-2.5,4.4-1.8,1.8,1.1-2.6,3.4-3.2,3.8-5.8,3.6-12,7.4-16.5,12.6a64,64,0,0,0,8.9-5.7,57.62,57.62,0,0,0,5.1-3.5c1.1-.7,2.2-1.8,3.6-2.1,3.1-.5.1,2.4-.7,3.2-2.7,2.3-5.6,4.5-8.3,6.9,1.8-1.1,3.7-2.2,5.4-3.4,1.5-1,2.9-2.3,4.6-2.9,1.5-.5,2.6-.1,2,1.6-.6,1.5-2.1,2.6-3.1,3.8.6-.4,1.41-1.5,2.2-1.2,1,.2.71,1.1.3,1.7a8.5,8.5,0,0,1-4,2.5c-1.1.3-2.5.4-2-1.2.2-.8,1.1-1.5,1.7-2.1a27.82,27.82,0,0,0,2.1-2.7c-2,1.3-4.1,2.5-6.1,3.8-1.5,1.1-3,2.6-4.8,3.2s-2.8-.2-1.8-1.9,3.1-3,4.6-4.3c-2.3,1.6-4.7,3.2-7.1,4.7-1.1.7-3.3,2.5-4.5,1.1.7,2.1-3.2,3.6-4.5,4.3-3.5,1.9-6.8,4.2-10.2,6.3-6.6,4-13.5,7.5-19.3,12.6a17.23,17.23,0,0,0,6-3.5c2.2-1.5,4.4-2.9,6.7-4.3,4.4-2.8,9-5.5,13.4-8.3,2.2-1.3,4.2-2.7,6.3-4.1,1.4-1,4.3-2.8,6-1.8,2.7,1.5-5,7.7-6.1,8.9,3-1.7,6-3.4,8.8-5.3,2-1.4,3.9-3.6,6.3-4.3,2.6-.7,1.6,1.3.6,2.5-2,2.2-4.6,3.7-6.9,5.5,3.4-2.4,6.5-5.5,10.5-7.1.9-.3,2.71-1.1,3.1.3.4,1.6-2.1,2.7-3,3.6.8-.5,3.7-2.1,4.4-1,1.1,1.6-4.3,5.2-5.2,6.1,1.2-.8,2.3-2.2,3.7-2.5,2.21-.5,1.4,1.5,1.5,2.8.1.8.8,1.4.71,2.1a1.44,1.44,0,0,1-1.91.8c-1.3-.6-.3-2.6-.2-3.6-1.1.6-6.8,6.2-7.7,3-.7-2.3,3.9-4.9,5.3-6.2-2.7,1.6-5.3,3.4-7.9,5.2-.7.4-2.5,2-3.3,1-1-1.5,2.8-3.2,3.6-3.9a68.64,68.64,0,0,0,6.5-5.6c-4.9,3-9.2,7-14.3,9.7a4.9,4.9,0,0,1-2.6,1c-1.5-.3-1-1.5-.3-2.4,1.5-1.9,3.9-2.9,5.8-4.3-2.6,1.6-5,3.5-7.8,4.8-1.3.6-3.7,1-2.8-1.1,1.3-3.1,4.8-5.1,7-7.5-7.3,4.2-14.6,8.7-21.7,13.3-6.4,4.1-13.6,7.1-19,12.6,6.9-3.9,13.7-8.2,20.2-12.6a25.89,25.89,0,0,1,5.5-3.3c.9-.3,3.3-.6,2.1,1-1,1.3-3.3,2-4.8,2.6a64.42,64.42,0,0,0-7.2,4.2c-3.2,2.1-6.3,4.2-9.5,6.2a44.75,44.75,0,0,1-6,3.5c-1.6.7-3.5.8-2.6-1.6s3.7-3.4,5.5-4.8c-2.4-.7.6-3.2,1.5-3.8a76,76,0,0,1,8.1-5.4c6.4-4.1,12.9-8,19.3-12.1-6.4,3.5-12.4,7.4-18.6,11.3a45.26,45.26,0,0,0-4,2.6c-1,.7-2,1.7-3.2,1.9-1,.2-1.6-.3-1.2-1.4s1.7-1.4,2.5-2c-1,.5-2.8,1.7-3.7.6s.9-2.4,1.7-3.1c3.6-2.9,7.3-5.8,11.1-8.6-3.8,2.5-7.5,5.1-11.5,7.3-.6.4-4.9,2.8-4.7.9a9.14,9.14,0,0,1-1.4.7c1.9.1-.4,2.2-.9,2.6-1.7,1.5-3.6,2.8-5.5,4.2-4,3-8,6-11.7,9.3,2.6-1.8,5.1-4,7.9-5.6,1-.7,3.7-2.3,3.8,0s-2.9,3.4-4.4,4.3c-2.9,1.8-5.7,3.9-8.4,5.9,3.8-2.2,7.6-4.6,11.2-7.1.7-.4,2.6-2.1,3.1-.7.4,1-1.4,1.5-2,1.9,1.5-.5,3.3.1,2.2,1.9-.8,1.3-2.7,1.8-4,2.6-4.6,2.6-9,5.7-13.4,8.7,4.4-2.7,9-5.1,13.3-8,.8-.6,2.4-2.2,3.5-1.7,1.8.8-.9,2.7-1.5,3.2-6.5,5.1-14.7,8.4-19.8,15,3.1-.9,5.6-3.2,8.3-4.9s5.6-3.2,8.4-4.9c5.8-3.7,11.5-7.7,17.2-11.6,5.7-3.7,11.4-7.4,17.2-10.9,2.1-1.2,4.3-2.6,6.8-2.9,1.6-.2,3.7.2,2.7,2.3,1.2-.7,2.6-2.6,4.1-2.3,2.3.3-.3,2-1,2.4,1.7-1,7.5-5.5,9.3-2.6.8,1.3-.7,2.8-1.5,3.6-1.8,1.7-3.6,3.4-5.3,5.2,4.2-2.5,8.1-5.4,12.5-7.7.6-.4,3.2-1.9,3,0-.2,1.1-2.4,1.6-3.3,2-4.3,2-8.1,5.1-12.2,7.6-.8.5-2.8,1.9-3.4.4s1.5-2.7,2.4-3.6c-2.4,1.7-4.9,3-7.2,4.7s-4.4,4-6.6,5.9c1.8-1.3,3.5-3.5,5.9-3.7.8-.1,3.6.1,3.2,1.5,6.6-4.4,13.2-8.7,20-12.7,1.2-.7,2.6-1.7,4-1.8s2.1.5,1.4,1.7c-1.1,2.3-5.2,3.4-7.3,4.5-12.9,7.4-25.9,15.4-37.7,24.5,6.1-4,12.1-8.2,18.3-12.2,5.3-3.4,10.7-6.8,16.2-9.9,2-1.1,3.9-2.3,6-3.2,1.4-.7,3.4-1.7,5-1.3,2.3.7.6,2.5-.6,3.2-2.5,1.5-4.9,3.1-7.4,4.7L409,97.57c6-3.6,11.8-7.7,18.2-10.6,1-.5,4.6-2.3,4.2.2-.1,1.3-1.5,2.1-2.5,2.8-1.4,1.1-2.9,2.3-4.4,3.3,1.7.9-.8,3-1.4,3.6-2.4,2.3-4.7,4.5-7,6.6a83.31,83.31,0,0,0,7.3-4.8c1-.7,3.7-3.3,5-2.4,2.3,1.7-6.7,7.1-7.6,7.7,2.2-1.3,4.1-3,6.2-4.5,1.2-.8,3.9-3,5.5-2.3,2.5,1.2-5.5,6.4-6.4,7.2,1.9-1.2,3.7-2.5,5.6-3.5,1-.6,3.3-2,4.51-1.6,3.09,1-3.31,4.6-4.11,5.2,1-.6,2.61-2.1,3.8-1.8,2,.4-.5,3.9-1,4.7a25.23,25.23,0,0,0-1.9,2.9c-.3.6-.6,1.9-1.6,1.3-1.6-1,2-5.4,2.6-6.4-1.5.9-8.7,7.7-10.3,5.1-1.4-2.3,6.7-6.5,8.1-7.5a58,58,0,0,0-7.5,4.6c-1,.8-3.3,3.7-4.9,2.7-2.3-1.4,6-7.2,6.8-7.8-1.6,1.1-3.3,2.2-4.9,3.4a12.88,12.88,0,0,1-3.5,2.2c-1.1.2-2.2,0-2.1-1.3.1-1.1,1.6-1.8,2.4-2.4-1.3.8-2.8,2.4-4.4,2.2s-1.2-1.5-.5-2.5a28.56,28.56,0,0,1,4.1-3.6c1.7-1.6,3.4-3.2,5-5-4.7,2.2-9,5.3-13.3,8.1-1.8,1.2-3.6,2.9-5.7,3.8-1.8.7-2.4-.6-.8-1.7,8.6-5.8,18.5-10.3,26.2-17.4a224.49,224.49,0,0,0-20.2,11.6c-6.1,3.8-12.4,7.5-18.5,11.3-.7.5-2.4,1.9-3.2,1s.6-1.9,1.1-2.3a83.74,83.74,0,0,1,7.9-5.3c11.9-8,24-15.7,36-23.7-5.6,1.7-10.6,5.1-15.5,8.2-5.5,3.4-10.9,6.9-16.3,10.4-2.6,1.7-5.2,3.5-7.7,5.1-2.3,1.6-4.5,3.6-7,4.8-1.4.6-3,.9-2.3-1.2.7-2.3,3.3-3.4,5-4.7-2.4,1.3-5.3,1.8-7.6,3.4,1.7.2-2.1,2.9-2.6,3.2s-2.8,2-3.5,1.1c-.5-.7.5-2.1,1-2.5-2.1.6-1.6-1.4-.9-2.5,1.5-2.2,4.2-3.3,6.2-4.8-2.2,1.4-4.6,3.3-7.2,3.9-1.1.2-2.3-.1-1.7-1.4s3.1-1.9,4.3-2.4c2.9-1.4,5.4-3.3,8.2-4.7,1.1-.6,2.3-1.1,3.5-1.8a8.28,8.28,0,0,0,1.5-1.1c.5-.5.7-1.3,1.3-1.7.8-.6,2.1-.9,3.1-1.5,1.4-.9,2.7-1.8,4-2.8,1.1-.7,2.1-1.5,3.2-2.2s2.7-.8,3.9-1.6a1,1,0,0,1-1-1.1c.2-.4.8-.4,1.2-.6,1.2-.6,2.3-1.2,3.5-1.9,2.7-1.8,5.2-3.8,7.9-5.5-6,2.7-11.4,6.3-16.9,9.8-5.7,3.7-11.5,7.3-17.2,11.1-2.8,1.8-5.6,3.6-8.5,5.4-.9.6-2.3,1.8-3.5,1.6-1-.2-1-.9-.5-1.7.8-1.1,2.4-1.7,3.5-2.4,1.3-.8,2.5-1.7,3.8-2.5,2.8-1.9,5.7-3.8,8.5-5.7-4.6,2.8-9.2,5.5-13.7,8.2-4,2.5-7.4,5.8-10.9,8.9,1.3-.9,3.3-3.3,5-3,3,.5-1.4,3.8-2.1,4.5.5-.3,1.3-1.2,2-.9.9.3.5,1.1,0,1.6a6.66,6.66,0,0,1-2,1.2c-.7.3-1.3.9-2.1,1.3-3.1,1.6-1.2-2.1-.1-3.2-1.8,1.1-3.3,2.9-5.4,3.5-1.8.6-2.3-.7-1.3-2.2s2.9-2.3,4.3-3.5c1.9-1.5,3.7-3.2,5.5-4.7-4.4,2.4-8.4,5.3-12.7,7.9-.9.6-5.3,3.1-4.4.1a1.53,1.53,0,0,1-2.2-1.5c.2-1.1,1.4-1.9,2.1-2.6,2.6-2.2,5.2-4.3,8-6.3-3,1.8-5.7,4.3-9,5.3-.8.2-1.9.5-2.2-.4-.4-1.1,1.5-2.3,2.2-2.8,6-4.4,12.4-8.2,18.6-12.3-6.4,3.4-12,7.7-18,11.7-.7.5-1.9,1.4-2.7.6-.5-.5-.3-1-.4-1.5a9.46,9.46,0,0,0-.5-1.8c-.2-.9-.2-1.8,1-1.7,1.6.2,1.1,2.2,1.1,3.3,2.1-1.3,4.1-2.7,6.1-4.1-1.8.4-1.1-1.6-.6-2.4,1-1.5,2.9-2.3,4.4-3.4-.8.5-2.2,1.4-3,.4s.4-1.9,1-2.5a66.17,66.17,0,0,1,7-5.9c-2.5,1.6-5.1,3-7.7,4.4-.8.5-2.2,1.4-3.1.7a1.83,1.83,0,0,1,.2-2.3,1.3,1.3,0,0,1-1.7-1.5c.1-1.2,1.2-1.9,2-2.6a79.08,79.08,0,0,1,7.5-5.4c-3.4,2.1-6.8,4.2-10.3,6.1-.7.3-2.1,1.2-2.8.4-1-1,1-2.2,1.6-2.7,6-4.5,13-7.7,18.9-12.3-6.2,3.6-11.7,8.3-18.2,11.5-.7.3-2.2,1.2-2.9.4-.9-.9.4-2.1,1-2.7a60.9,60.9,0,0,1,8.7-6.4,96.43,96.43,0,0,1-8.6,5.5c-.9.5-2.8,1.8-3.5.3-.5-.9.7-2,1.1-2.8Zm6.6,38.1c.5-.4,1.1-.7,1.6-1.1A9.06,9.06,0,0,0,350.46,109.07Zm21.4-35.9c-3.6,2-7,4.1-10.5,6.1-3.2,1.9-6.6,3.5-9.4,5.9.5-.2,1.1-.5,1.7-.8C359.86,81,365.86,77.07,371.86,73.17Zm-18.1-3.4c3.2-2.2,6.5-4.4,9.7-6.6C360.16,65.27,357,67.57,353.76,69.77Zm8.3,15.8c-.2.1-.4.3-.6.4C361.66,85.87,361.86,85.67,362.06,85.57Zm7.5,12.5c-.7.3-1.4.7-2.1,1a1.27,1.27,0,0,0,.9-.4Zm1.5-19.6c1.5-.9,3.2-3.4,5.1-3.2,1,.1,1.4.7.8,1.5s-1.8.9-2.6,1.4c-1.8,1.1-3.1,3.1-5.4,3.2C366.36,81.07,370.66,78.67,371.06,78.47Zm18.4-22.8c-6.2,3.8-12.3,7.6-18.4,11.4L390,56c3.1-1.8,6.1-3.6,9.1-5.4,2.8-1.7,5.4-3.8,8.4-5.2A199.41,199.41,0,0,0,389.46,55.67Zm-14.9-22c-1.2.7-3.8,1.7-3.4-.7.3-1.7,2.2-2.7,3.3-3.9-.9.6-2.1,1.8-3,.6-.6-.9,0-2.6.1-3.5,0-.6-.4-.5.1-1.1a1.24,1.24,0,0,1,1.7-.2c.8.7,0,2.2-.1,3.1.7-.5,6.2-4.6,5.5-1.4-.5,2.2-3.6,4-5,5.8a65.36,65.36,0,0,0,8.9-5.9c.7-.6,4.3-2.8,3.6-.4-.4,1.6-2.9,3.1-4.2,4s-2.7,1.9-4,2.8c3.4-2.2,6.8-4.6,10.1-7,1-.7,2.4-2,3.8-1.4,1.6.8.1,1.4-.8,1.7-3.3,1-5.8,3.6-8.6,5.6-1.5,1.1-3,2.1-4.6,3.1-1,.7-2.4,2-3.8,1.4C373,35.67,374,34.27,374.56,33.67Zm-1,60.5c9.5-4.8,19.3-9.1,28.2-15.1.9-.6,5.5-3.3,4.7-4.6s-5.8,2.4-6.6,2.9C390.76,82.37,382.26,88.37,373.56,94.17Zm13.1-40.1c4-2.5,8-5.1,12-7.6-1.2-.2-.8-1.8-.2-2.4-.9.4-2.1,1-2.9.1s0-2.3.1-3.3c-.5.3-3.3,1.9-2.9.1-5.3,5-11.8,8.2-17.2,13,5.2-2.7,9.7-6.3,14.5-9.5.8-.6,3.2-2.4,3.8-.6.5,1.6-2.3,2.7-3.2,3.4,1.2-.8,3.2-2.9,4.8-1.9s-.6,2.7-1.4,3.4C391.66,50.67,389.16,52.37,386.66,54.07ZM377,42.17c-.5.2-.8.4-.5.9C376.66,42.77,376.76,42.47,377,42.17Zm-.5,64.1c6.3-3.2,11.9-7.3,17.7-11.1-1.9-1.2,1.8-3.7,2.7-4.5-2.2,1.4-4.6,2.3-6.6,4-2.1,1.9-4,4.2-6.3,5.9C381.46,102.47,379,104.17,376.46,106.27ZM412.06,52c-1.9,1.2-3.7,2.3-5.6,3.4a12,12,0,0,1-2.7,1.6c-.8.2-1.7-.1-2.4.2s-.9,1.1-1.4,1.6a7.4,7.4,0,0,1-2.1,1.5c-1.7,1.3-3.4,2.7-5.2,4-3.6,2.7-7.3,5.4-10.8,8.4,5.5-2.9,10.5-6.6,15.7-10.1,1.3-.8,2.6-1.6,3.8-2.4,1-.7,2.2-1.9,3.5-1.9,1,0,1.5.5,1.2,1.5s-1.6,1.5-2.4,2c2-1.1,7.1-6.3,9.5-3.8-.9-2.2,2.5-3.9,3.9-5-1.6,1-3.3,2-4.9,3-1.3.8-2.7,2-4.2,2.1s-2.2-.7-1.5-2.1c.5-1.1,2-1.7,3.1-2.3A229.22,229.22,0,0,0,429.36,41c-1.9,1.1-3.7,2.3-5.5,3.4C419.86,46.87,416,49.47,412.06,52Zm-20.2,8.5c6.1-3.4,12.5-6.4,17.9-11-1.1.6-2.2,1.3-3.2,1.9C401.56,54.37,396.66,57.47,391.86,60.47Zm15.3,17.4c-4.4,2.5-9.2,4.6-13,8.1,4-2.5,7.9-5,11.9-7.4C406.46,78.27,406.86,78.07,407.16,77.87Zm3.1-22.7c3.8-2.1,7.4-4.6,11-7C417.56,50.47,413.86,52.77,410.26,55.17Zm18.4-19.5c-1.8.5-2.8,1.5-4.3,2.7C425.86,37.47,427.26,36.57,428.66,35.67Zm6.1,19.3v0Z"/><path class="cls-2" d="M442,49.77a5.58,5.58,0,0,0,.7-1.6c.1-.5-.1-.9.2-1.4a1.13,1.13,0,0,1,2.1.1c.3.9-.7,1.9-1,2.6.7-.5,5.1-4.4,6.1-2.8.5,1-1.6,3-2.1,3.6l3.3-2.1c.9-.5,3.1-2.1,4.2-1.7,1.9.7-.4,3.3-1.1,4-2.5,2.4-5.2,4.6-7.6,6.9a76,76,0,0,0,13.7-8.8c1.3-1,4.6-4.5,6.5-3.6,2.8,1.2-3.5,4.9-4.4,5.4a84.89,84.89,0,0,0-12.8,9.5c7.6-3.2,13.6-9.1,20.8-13.1.8-.4,3.2-2.1,3.6-.5.2,1-1.5,1.9-2.1,2.4-4,2.6-7.9,5.1-11.8,7.8,5.2-3.1,10.2-6.2,15.2-9.4-1.8.1-.3-2.2.2-2.8a26.13,26.13,0,0,1,5.8-4.6c5-3.3,10.1-6.5,15.2-9.7-5.2,3-10.1,6.4-15.2,9.6-1.9,1.2-3.8,3-5.8,4.1-.8.5-2.5.8-2.3-.6.2-1,1.9-2,2.6-2.5,1.1-.8,2.2-1.6,3.3-2.3,4.2-2.7,8.5-5.3,12.4-8.3-4.6,2.7-9.5,5.2-13.9,8.2-1.2.9-4.7,4.3-6.4,3.3-1.5-1,.8-2.3,1.5-2.7,1.9-1.2,3.8-2.4,5.7-3.7,4.5-2.8,9.1-5.4,13-8.9-5.3,2.6-10,6.4-14.7,9.9-2.7,2-5.8,4.5-9.1,5.5-.9.2-2.8.5-2.3-1.1.2-.9,1.4-1.4,2.1-1.7,1.6-.9,3.1-1.7,4.6-2.6,6.4-3.7,12.9-7.3,18.9-11.8l-17.7,10.5a73.21,73.21,0,0,1-8.6,4.9c-.9.4-4.2,1.8-3.3-.5-1.3.8-3.5,2.7-5.1,2.1-2.6-1.2,1.3-3.9,2.2-4.6-1.2.7-4.2,3.6-5.7,2.9s.5-2.4,1.2-2.9c2.2-1.7,4.2-3.5,6.2-5.2-1.5,1-2.9,2.1-4.4,3-1,.6-3,1.9-4.2,1.6-3-.9,2.4-4.3,3.2-5-1.3.8-2.5,1.4-3.1-.3a9.25,9.25,0,0,1-.4-2.9c0-.8.1-1.7,1.2-1.2s.7,2.5.9,3.4c1.8-1.1,3.6-2.7,5.7-3.5,1-.4,2.5-.3,2.1,1.2-.7,2.1-4,3.4-5.6,4.8a96.9,96.9,0,0,0,8.5-5.7c.8-.6,4-2.6,3.5-.2-.4,1.7-2.8,3.4-4.1,4.4s-2.6,2-3.9,3.1c2.9-1.8,5.9-3.4,8.7-5.3,1.8-1.2,4-3.7,6.4-3.3-.1-1.6.9-3,1.5-4.5-.7.4-3.3,1.8-2.8,0,.2-1,2.5-2.1,3.5-2.3,2.9-.4.2,4.4-.2,5.5,1-.6,8-6.5,8.9-4.4.4,1.1-1.7,1.8-2.3,2.2a41.54,41.54,0,0,0-4.1,2.7c-1.7,1.1-3.5,1.6-5.1,2.7-1.8,1.3-3.5,2.6-5.4,3.8a92.28,92.28,0,0,0-10.7,7.9c6-2.6,11.3-6.7,16.8-10.4,3-2,6.1-3.9,9-6,2.4-1.6,4.7-3.7,7.6-4.2.7-.1,1.7-.3,2,.6.3,1.1-1.3,1.7-1.9,2.1-2.9,1.6-5.7,3.4-8.6,5.1-6,3.6-12.1,6.9-17.6,11.1,7.2-4,14.3-8.2,21.3-12.5,1.7-1,3.4-1.9,4.9-3,.9-.6,2.2-2,3.4-1.7,2.2.6-.5,3.3-1.4,4,1.5,1-.5,2.7-1.3,3.4.8-.5,2-2,3.2-1.3,1,.6.2,1.9-.4,2.6,2-1.2,4.8-3.9,7.2-3.5,3.6.4-1.2,3.9-2.1,4.4-7.6,4.6-15.4,8.7-22.2,14.3,6-3.2,11.8-6.7,17.6-10.2,2.9-1.8,6-3.5,8.8-5.5.9-.6,1.9-1.7,3.1-1.7.9,0,2,.7.8,1.4,1.9,0,.3,2-.4,2.6-1.8,1.7-4.2,2.8-6.3,4-4.8,2.7-9.5,5.4-14.3,8.2s-9.7,5.6-14.5,8.5c-4,2.4-8.2,4.6-11.4,8.1,11.1-4.9,20.7-12.7,31.3-18.6,5.2-2.9,10-6.3,15-9.4,1-.6,4.2-2.6,4.6-.4.1,1.3-2,2.7-2.8,3.5,1.3-.9,2.6-1.8,4-2.7-2.8.3,1.6-4.7,1.9-5.1,1.3-1.4,2.8-3.8,4.5-4.7.8-.5,1.4-.4,1.5.6s-.8,1.9-1.4,2.5c-1.5,1.6-3.6,2.7-5,4.3,2.1-1.3,3.8-3.3,6.1-4.3.6-.3,2.1-.9,2.3.1s-1.1,1.2-1.6,1.5c.9-.4,2.1-1.3,3.2-.9.8.2,1.3,1,.5,1.6-.5.4-1.5.2-2.1.4a9.06,9.06,0,0,0-2.6,1.3,101.94,101.94,0,0,0-11.7,7.6c-1.5,1.2-4.4,4.6-6.5,4s0-2.1.7-2.7c1.9-1.7,3.8-3.4,5.6-5.2-8.9,5-16.9,11.4-25.4,17,2.5-1.5,5.1-3,7.7-4.5.8-.4,1.8-1.3,2.7-.8s.5,1.4-.3,1.8c-1,.6-2.2.7-3.2,1.2s-2.1,1.3-3.2,1.9c-2.3,1.4-4.6,2.8-6.9,4.3-2.5,1.5-5,3.1-7.5,4.6-.9.6-4.1,3.5-5.3,2.6-2.1-1.5,6.7-6.7,7.5-7.3-3.8,2.3-7.7,4.5-11.6,6.6-.9.6-3,2.1-3.9.8-.9-1.1.6-2.6,1.4-3.3-1.5.9-2.9,2.2-4.6,2.6-.8.2-2.7.1-1.9-1.3-1.6.9-4,3.2-6,2.8-3.6-.6,1.7-4.5,2.6-5.2-1.7,1-3.3,2.6-5.3,2.7-1.8.1-1.9-1.1-1.1-2.4,2.2-3.6,6.4-5.5,9.1-8.6a49.48,49.48,0,0,0-7.2,4.7c-.8.7-3.2,3.2-4.4,1.9s3-4.2,3.8-5.1c-1.1.8-2.3,2.3-3.9,1.9C441,51.57,441.66,50.37,442,49.77Zm-.4,23.1c.2-.7,1.3-1,1.9-1.4.8-.5,2.5-2.1,3.2-.6s-2,4.2-2.6,5.5c5.1-2.5,9.7-6,14.4-9.3,1-.7,11.3-8.5,11.8-5.1.3,1.6-3.3,3.3-4.2,3.9-2.4,1.6-4.7,3.2-7.1,4.7-4.6,3-9.3,5.7-13.1,9.7,1.7.6,3.5-.5,4.9-1.2a65.35,65.35,0,0,0,5.9-3c3.7-2.1,7.3-4.4,11-6.7,13.4-8.7,26.4-18.1,39.6-27.2,5.9-4,11.8-8.4,18.4-11.4,1.4-.6,5.9-2.2,5.6.8-.2,1.9-2.5,3.5-3.8,4.6.8-.6,1.8-1.9,3-1.9,1.4,0,1.5,1.1,1,2.2-1.1,2.6-4.2,3.7-6.4,5.1,2.2.6.4,3.1-.6,4a2,2,0,0,1,2,1.3c.8-.4,2.3-.9,2.4.5.1,1.2-1.4,2-2.1,2.6-3.2,2.5-6.3,5.2-9.3,7.8,3.5-2.2,6.9-4.4,10.4-6.6,1.7-1.1,3.5-2.1,5.2-3.2.9-.6,2.4-2,3.6-1.5,2.2.8-1.1,3.1-1.9,3.8-3.2,2.5-6.3,5-9.5,7.6a62.65,62.65,0,0,0,7.3-5c.7-.6,2.9-2,3.2-.4s-3.1,4.6-4.1,5.7c.8-.6,1.9-1.9,3.1-1.7,1.4.4.8,2.3,1.1,3.3.2.7.8.8,0,1.4a1.22,1.22,0,0,1-1.6.1c-.7-.5-.2-2-.2-2.7-1.1.6-5.4,5.2-6.4,2.5-.7-2,3-4.3,4.1-5.4-1.1.7-10.5,7.8-11.7,5.3-.9-1.7,3.2-3.7,4.2-4.3,2.7-1.9,5.1-4.1,7.7-6.2-3.8,2.3-7.6,4.7-11.3,7.2-1.7,1.2-3.5,2.8-5.6,3.4-.7.3-1.8.5-2-.6s1.4-2.3,2.1-2.9c3.2-2.7,6.5-5.3,9.7-8.1-3.1,1.7-5.8,4-8.8,6s-6.1,4-9.3,5.9a25.21,25.21,0,0,0-4.2,2.4c-1.4,1-2.3,2.5-3.5,3.8-2.3,2.5-5.3,4.4-8,6.5,2.7-1.6,5.3-3.2,7.9-4.9,2-1.4,3.9-3.3,6.3-4.1s2,1.2.9,2.6c-1.5,1.9-3.7,3.2-5.6,4.7,3.5-2.3,6.9-5.2,10.8-6.8,1.8-.8,3.9-.4,2.4,1.7-2.2,3.2-6.2,5.1-9.2,7.4,4.9-3.1,9.5-6.9,14.8-9.3.6-.3,1.9-1.1,2.6-.7,1.2.6.3,1.8-.3,2.5-1.7,2.1-4.1,3.6-6.3,5.3,2.1-1.2,4.2-2.4,6.1-3.7,1.5-1,2.8-2.5,4.5-3.1s2.4.3,1.6,1.9c-.9,1.8-3,2.8-4.5,4,.7-.4,7-4.8,6.8-2.3-.1,1-2.7,2.1-3.4,2.4-1.3.7-2.7,1.3-4,2.1,1.7-1,3.9-3.4,6.1-3.1,3.4.5-1.1,3.8-2,4.5,2.7-.3.8,2.6,0,3.6-2.2,2.4-5,4.1-7.6,6,1.4-.9,2.9-1.7,4.3-2.6.7-.6,2-1.9,3-1.4,1.4.8-.6,2.8-1.3,3.4a12.27,12.27,0,0,1,3.2-1.7c1.7-.4,1.5,1.1.2,1.8-4.4,2.6-8.8,5-13.2,7.9-1.2.8-6.2,5-7.7,3.3-1-1.2,1.6-2.5,2.4-3,2.4-1.4,4.7-3,7-4.5-1.6,1-3.3,2-4.9,3a11.5,11.5,0,0,1-3.6,2c-1.1.3-2.1,0-1.5-1.3.4-1,1.9-1.5,2.7-2.1,3-2,5.9-4.2,8.9-6.4a42.39,42.39,0,0,0,7.7-6.3c-6.4,1.8-12.1,6.5-17.5,10.2-.8.6-10.2,8.5-11.5,6.7-1.1-1.6,9.4-7.3,10.1-7.7,6.2-4.1,12.6-7.9,18.5-12.3-8.8,4.7-17,10.4-25.2,16.1-1,.7-8.1,6.2-9.2,3.7-.6-1.2,1.6-3.1,2.3-3.8,1.7-1.6,3.6-3,5.3-4.5-2.3,1.6-4.7,3.2-7,4.8-1.3,1.1-3.1,3-5,2.8-2.2-.3-.6-2.2.3-3.1,1.8-1.8,3.9-3.2,5.7-4.8-6,4-12.1,8-18.1,12,1.7-.4,1.9,1.3,1.3,2.4-.6,1.3-2,2.1-3.1,2.9-3.3,2.3-6.5,4.7-9.7,7.2,4-2.4,7.9-5,11.8-7.5,1.9-1.2,6.9-5.9,9.3-4.8,2.9,1.3-4.4,5.3-5.2,5.8a105.27,105.27,0,0,0-10,7.6c6.5-4,12.6-8.5,19.2-12.6,1.1-.7,2.6-1.9,4-1.7s1.4,1.2.7,2.2c-.8,1.3-2.4,2-3.6,2.8-1.6,1.1-3.1,2.3-4.6,3.5,2.7-1.7,5.5-3.2,8.1-5.1,1.5-1.2,3.9-4.1,6.1-3.7,1.8.3-.3,2.1-1,2.7a58.79,58.79,0,0,1-7.2,5.1c3-1.6,6-3.3,8.9-5.2,1.1-.7,3.3-2.7,4.9-2.5,2.1.4-1,3.6-1.7,4.3-2.2,2.1-4.7,3.8-7,5.8a176.89,176.89,0,0,0,17.3-10.5c2.9-1.9,5.8-3.6,8.6-5.6,1.6-1.1,3.7-3.6,5.8-3.3,2.5.4-.1,2.5-1,3.1-2.8,2.2-5.7,4.1-8.6,6.1-5.5,3.8-11,7.5-16.1,11.8A127.51,127.51,0,0,0,524,94.07c.8-.5,2.2-1.9,3.3-1.5,1.5.6.2,2.3-.4,3-2.5,3-5.8,5.1-8.8,7.4,2.9-1.6,5.8-5,9.3-5.5,2.6-.3,1.2,2.2.1,3.2a66.76,66.76,0,0,1-8,6,76.6,76.6,0,0,1,6.8-4.1c.8-.5,3-1.6,2.9.2,0,2.1-4.2,3.9-5.6,5,1-.6,2.6-2.9,3.9-1.7,1.1.9-.3,3-.6,4.1,1.2-1,1.8.5,1,1.4a2.31,2.31,0,0,1-2.2.7c-1.5-.6-.2-3,.1-4-1.5.9-6.2,5.3-8,4-2.2-1.5,2.8-4.3,3.7-4.9-2.7,1.6-5.6,3.1-8.2,5-.7.4-2.2,1.9-3.1.9-.6-.6,0-1.4.4-2,1.6-2.1,4.1-3.2,6.2-4.6,2.6-1.8,5.2-3.7,7.7-5.6-2.9,1.7-5.9,3.4-8.7,5.2-.8.6-5.6,4.4-5.7,1.8,0-2,4.5-4.3,5.9-5.3,2.6-2,5.2-4.2,7.8-6.5-7.1,4.5-13.5,9.7-21.2,13.1-.8.4-2.4,1.3-3.2.4-1.1-1.3,1-2.7,1.8-3.3,3.5-2.7,7-5.3,10.6-7.9q-4.35,2.85-8.7,5.4c-2.5,1.6-4.8,3.6-7.7,4.4-2.1.6-3.8.1-1.9-2.1,2-2.4,4.7-4,7-6.1-4.2,2.5-8.7,4.7-12.7,7.4-1.2.8-2.6,2.5-4.2,2.5-1.8-.1-1.1-1.7-.2-2.5-1.4.8-2.8,1.6-4.2,2.3,1,1.2-2.4,2.6-3.2,2.8s-1.9,0-1.4-1.1c.3-.8,1.3-1.2,1.8-1.9a2.44,2.44,0,0,1,.9-1.1c.3-.3,1-.4,1.4-.6a20.64,20.64,0,0,0,3.1-2.8c2.5-2.1,5.2-3.9,7.8-6-7,3.9-13.2,9.2-20.1,13.2-.9.5-2.7,1.9-3.6.8s.9-2.6,1.7-3.3c3.2-2.7,6.6-5.2,10-7.6-3.5,2.2-7.1,4.5-10.6,6.9-1,.7-6.6,5.6-7.7,3-.9-2,5.1-5.5,6.3-6.4,3.1-2.2,6.3-4.2,8.9-6.9-4.3,2-7.9,5.1-11.8,7.9-.8.5-2.4,1.9-3.4,1-1.3-1,.6-2.5,1.4-3.1,3.7-2.6,7.6-5.2,11.5-7.8,1.1-.8,6.4-2.7,6.3-4.3-3.5,2.1-7,4.3-10.5,6.4-1.7,1-3.4,2-5.1,3.1-1.2.7-2.4,1.9-3.9,2.1-1.3.2-2.2-.3-1.5-1.6s2.4-1.9,3.5-2.7c3.4-2.2,6.6-4.6,9.9-6.8-1,.6-10.7,7.2-11.5,4.2-.5-1.7,3.2-3.5,4.2-4.2,2.7-1.9,5.2-4,7.8-6-2.9,1.9-5.7,4-8.7,5.8-.8.5-2.2,1.6-2.9.6s.6-1.8,1.2-2.4c4.8-4.1,10.8-6.7,15.6-10.8a59.57,59.57,0,0,0-11.8,7.3c-1.1.9-4,4.1-5.6,3.4-2.8-1.3,5.8-6.4,6.8-7,7-4.2,14.1-8.3,21-12.7,3.5-2.2,7-4.4,10.6-6.4a54.49,54.49,0,0,0,5.3-2.9c1.1-.8,1.7-2.2,2.8-3,1.6-1.3,3.5-2,5.2-3.1s3.5-2.1,5.3-3.1c2.9-1.7,6.3-2.9,8.5-5.6-2.2-.6-4.2,1.3-5.8,2.5-2.4,1.7-4.9,3.1-7.4,4.6-5.4,3.1-10.8,6.1-16.2,9.2-9.2,5.2-17.9,11.4-26.5,17.4-2,1.3-3.9,3-6.1,3.7-1.3.4-2.9.4-2.4-1.3.6-1.9,3-3,4.6-4,2.1-1.3,4.2-2.7,6.4-4,9.4-5.7,19-11,28.3-17,4.4-2.8,8.7-5.6,13.3-8.1,2.3-1.2,4.7-2.3,7-3.5,1.8-.8,3.7-1.8,4.6-3.5-3.2-.2-5.7,2.4-8.2,4-3.1,2.1-6.4,3.8-9.6,5.7-11.7,6.8-22.7,14.7-34.4,21.6-5.7,3.4-11.9,6-17.3,9.7-2.2,1.5-4.3,3.7-6.9,4.2-1,.2-2,.1-1.7-1.2.2-1,1.4-1.5,2.2-2.1-1.9-.2-2.6-2.1-1.1-3.3-1.4.3-3.7-.2-3.2-2.1s3-2.9,4.5-3.8c4.9-3.2,9.7-6.8,14.5-10.1-5.4,3.4-10.6,7.1-15.9,10.7-1.1.8-3.8,3.1-5,1.5-1.1-1.4.9-3.6,1.6-4.8-.5.3-1,.5-1.5.8C441.76,74.47,441.36,73.47,441.56,72.87ZM515,44.57c-11.1,6.9-22.5,13.3-34,19.7-5.8,3.2-11.7,6.5-17.5,9.8-2.7,1.5-5.4,3.1-8.1,4.6a43.22,43.22,0,0,0-7.3,4.7c2.5,1.1,4.9-1.2,6.8-2.5,2.5-1.7,5.1-3.1,7.7-4.6,5.5-3.2,11.1-6.2,16.5-9.6,10.8-6.6,21.4-13.7,32.5-19.7C512.76,46.17,513.86,45.37,515,44.57Zm-18.2,22.8c-3,1.8-6.1,3.6-9,5.5a79.44,79.44,0,0,1-8.7,5.5c1.1,1.2-1,2.7-1.8,3.3,2.1-.6,1.4,1.7.6,2.6-1,1.1-2.6,1.8-3.9,2.7-3.7,2.7-7.3,5.7-10.9,8.6,6-2.9,11.5-6.7,17-10.3a28,28,0,0,0,4-2.7c.7-.6,1.6-1.7,2.5-1.8,1.4-.3,1.4.6.8,1.5-1.5,2.4-4.5,4.3-6.7,5.9-4.8,3.4-9.8,6.7-14.6,10.1,8.6-5.2,17.2-10.5,25.8-15.7.8-.4,5.4-3.4,5.7-1.5,0,.5-.9,1.4-1.2,1.9a9.06,9.06,0,0,1-1.1,2.2c-1.2,1.6-3.1,2.6-4.6,3.9,1.2-.8,12-10.2,13.6-7.4.8,1.3-2.1,3.3-2.9,4-2.4,1.9-4.9,3.8-7.1,5.9,5.5-3,10.7-6.7,15.9-10.1-.6.4-2.3,1.1-2.7.1-.5-1.3,2.2-2.5,2.9-3,4.1-2.5,8-5.5,11.9-8.4-3.4,2.1-6.8,4-10.1,6.1-1.1.7-3.4,2.5-4.7,2-2.4-.8,1.8-3.3,2.5-3.7a64,64,0,0,0,9.1-7.2c-3.4,2-6.8,4.3-10.2,6.4-1.5.9-3,1.8-4.5,2.8-1.2.8-2.4,2.1-3.8,2.4-1.6.3-2.4-.6-1.5-2,.6-1.1,2-1.8,3.1-2.5,3.2-2.3,6.4-4.6,9.4-7.1a60.75,60.75,0,0,0-8.1,5c-2.4,1.7-4.6,3.8-7.2,5-3,1.5-2.7-.8-1-2.5,2-2.1,4.4-3.8,6.6-5.7-4.4,2.9-8.9,6.8-14,8.6-1.2.4-3.1.5-2.2-1.3.9-2,3.6-3,5.3-4.3C492.86,70.57,494.86,69,496.76,67.37Zm-24.4,9.1a84.74,84.74,0,0,0-8.9,5.8C466.46,80.47,469.46,78.47,472.36,76.47Zm7.9-13.6c9.1-5.1,18.3-10.3,27.3-15.6,4.4-2.7,8.9-5.3,13.2-8.2,1.9-1.4,3.7-2.8,5.6-4.1,1.3-.9,3.2-1.8,3.3-3.5-2.1-.3-4.1,1.2-5.8,2.2-2.2,1.2-4.3,2.5-6.5,3.8C504.66,45.47,492.56,54.37,480.26,62.87Zm45.6-23.8c-1.1.8-2.3,1.6-3.4,2.3A40.47,40.47,0,0,0,525.86,39.07Z"/></g></g></svg>