<svg xmlns="http://www.w3.org/2000/svg" viewBox="0 0 1768 1000.34"><defs><style>.cls-1{fill:none;}.cls-2{fill:#f08c7b;}.cls-3{fill:#c77169;}.cls-4{fill:#dc9f99;}.cls-5{fill:#faefdf;}.cls-6{fill:#333436;}.cls-7{fill:#fef4dd;}.cls-8{fill:#fcefdd;}.cls-9{fill:#60362e;}.cls-10{fill:#5e231a;}</style></defs><title>アセット 2</title><g id="レイヤー_2" data-name="レイヤー 2"><g id="レイヤー_3" data-name="レイヤー 3"><path class="cls-1" d="M1270,320.67l-1-8.67-3-34-3-32-2-22-3-21v30.84a59.42,59.42,0,0,1-1.26,12.19L1253,264l-1.68,12.62c-.21,1.58-.5,3.16-.86,4.72L1248,292l-4.67,15.89a17.19,17.19,0,0,1-.81,2.17l-7.71,17.15L1244,329l5,1h15l7,1-.37-2.57A64.92,64.92,0,0,1,1270,320.67Z"/><polygon class="cls-1" points="1349.93 338.16 1351.94 327.89 1356.81 309.71 1356.86 309.31 1349.42 325.11 1344.77 339.44 1347 339 1349.93 338.16"/><path class="cls-1" d="M1407,334v-4.19c0-1.87.08-3.74.23-5.61l.56-6.66L1408,305l2-17,1-10,.51-4.58c.12-1.09.21-2.18.29-3.28L1412,255l-5.52,24.16L1403,291l-.85,2.31c-.32,1.05-.67,2.11-1,3.15L1398,305l-1.49,3.58L1391.83,322l-5.57,12H1407Z"/><path class="cls-1" d="M583,325l5-2,2-1h5l.47-.07-.81-.31a18.25,18.25,0,0,0-3.41-.91l-3.55-.59a8.39,8.39,0,0,0-1.41-.12h-1.47a7.77,7.77,0,0,0-3.45.81L581,321l-3.33,3.33L580,324Z"/><path class="cls-1" d="M1353,273V254l-7.13,27.9h0L1343,295.13l-1.55,8.27c-.33,1.73-.7,3.46-1.13,5.17L1339,314l-2,7-2,6-.55,1.65a64,64,0,0,1-3.16,7.73l-1.83,5,9.61-.87L1342,331l4-13,4.59-14.67c.27-.89.58-1.76.93-2.62L1353,297V273Z"/><polygon class="cls-2" points="709.73 303.07 702 305 709.79 305 709.73 303.07"/><path class="cls-2" d="M1335,327l2-6,2-7-5,15-2.71,7.38a64,64,0,0,0,3.16-7.73Z"/><polygon class="cls-2" points="1345.87 281.91 1345.87 281.91 1345.87 281.9 1345.87 281.91"/><path class="cls-2" d="M1341.49,303.4l1.55-8.27L1339,314l1.36-5.43C1340.79,306.86,1341.16,305.13,1341.49,303.4Z"/><path class="cls-2" d="M1281,16l-3.69,9.23q-.32.76-.57,1.56L1275,32l-3,8-2,6-1.64,4.1a12.12,12.12,0,0,1-.86,1.73L1265,56l-4,7-4,6-5.61,8.41a11.5,11.5,0,0,1-.85,1.13L1245,85l-5.61,5.61a8.08,8.08,0,0,1-.83.72l-2.73,2a14.39,14.39,0,0,0-1.56,1.35L1232,97l-3.29,2.46a13.52,13.52,0,0,0-1.34,1.17L1226,102l-1.34,1.34a19,19,0,0,1-3.68,2.87l-3,1.79,2.62-.44a16,16,0,0,0,6.23-2.46l.15-.1,5.29-2.65a9.38,9.38,0,0,0,1.36-.81L1240,97l4.64-3.09a17.24,17.24,0,0,0,2.52-2.07L1250,89l6-6,5-6,6-7,5.39-6.28c.41-.48.79-1,1.15-1.49L1280,53l5-9,4-6.38a27.82,27.82,0,0,0,1.79-3.37l2.84-6.4c.25-.57.53-1.12.83-1.67l4-7.18c.37-.67.71-1.35,1-2.05L1302,11l4-10,.45-1h-20.7L1284,7Z"/><path class="cls-2" d="M1410.26,32.7,1415,82l3,31,3.53,37.9q.46,5.1.47,10.22V180l1.44,20.92a121,121,0,0,1,0,16.16L1421,255l-6,44-6,35,.52-32.77L1410,288l-2,17-.21,12.54-.56,6.66c-.15,1.87-.23,3.74-.23,5.61V334h0l-.28,5.25-1.51,19.81a47.77,47.77,0,0,1-.8,5.83l-2,10.17a36.49,36.49,0,0,1-1,3.83l-3,9.34L1394.72,401a30.33,30.33,0,0,1-1.53,4.15L1391,410l-1.53,3.58a24.57,24.57,0,0,1-3.89,6.24L1376,431l14.08-8.45a21.32,21.32,0,0,0,1.78-1.2L1403,413l11.84-10a16,16,0,0,0,2.12-2.16L1429,386l14-17-5.84,15.56a5.43,5.43,0,0,1-.39.85L1427,403l-12,22,12-14,11.8-15.44,8.33-13.64,8.08-13.13L1459,362l2-2,9-6,5-4,7.73-7.72,3.17-3.41,6.68-7.2,7-10.94L1502,318l1.32-1.65a58.77,58.77,0,0,0,4.84-7.06L1513,301l2-4,6-11,5-11a32.29,32.29,0,0,0,3.29-6.37L1533,259l1.74-7a76.9,76.9,0,0,0,1.83-10.21L1537,238l3-20,1-11,.66-7.23q.35-3.77.34-7.56V168.16c0-1.44,0-2.88-.13-4.32L1541,149V138l-1-21-1-17-1-17-.73-10.21a69.91,69.91,0,0,0-1-7.52L1535,58l-1-11-1-13-2-15-2-16-.5-3h-24.13l.63,5,2,13V18l1,10,1.79,12.56c.14,1,.25,1.92.33,2.89L1511,54l1.82,15.48c.12,1,.21,2,.27,3L1514,89l1,13,1,11,.89,12.49c.07,1,.11,2,.11,3v61.75c0,1.16,0,2.32-.13,3.47L1516,205l-1,12-2,15-1.45,9.44a43,43,0,0,1-1.69,7L1508,254l-3,9.95,0,.1-4,9.9,0,.09-4,8-5,11-1.16,2.61a50.32,50.32,0,0,1-7.31,11.76l-.49.58a.61.61,0,0,0-.07.1,1.18,1.18,0,0,1-2.13-1L1483,299l4-17,4-16,3-15,2-10,3-20,2.6-16.44a44.45,44.45,0,0,0,.51-5.15L1503,179l1-24,1-22V92.25c0-.83,0-1.67-.08-2.5L1504,76l-1-18-1-15-1-20-1-18.34q0-.66,0-1.32V0h-13.71l.2,1.42q.51,3.57.76,7.19L1489,34l3,45v52l-4.68-30.92q-.32-2.08-.75-4.14L1483,79l-7.68,97.86q-.32,4.14-1,8.24L1470,213l-9,37-5.3,22.53a141.75,141.75,0,0,1-7.26,22.34L1440,315l-13,29-19,26,2.09-3.87,9.31-17.3a79.68,79.68,0,0,0,4.51-10L1435,309l14-42,11-39,11-51,5-33,2.14-17.57L1481,103V35a83.15,83.15,0,0,0-.6-10l-3-25H1434V34l-2,41v64l-3.7-44.34q-.3-3.66-.81-7.29L1422,48l-3.27-31.91a100.93,100.93,0,0,0-2.46-14L1415.75,0h-10.32l4.16,27.32C1409.86,29.11,1410.09,30.9,1410.26,32.7Z"/><path class="cls-2" d="M1270,320.67a64.92,64.92,0,0,0,.61,7.76L1271,331l.39-.06L1271,329Z"/><polygon class="cls-2" points="698 99 702 99.61 702 86 697 89 692 92 689 93 686 95 690 97 698 99"/><path class="cls-2" d="M567.82,74.27,563,68l-3-5,7,4-4-7-8-17L544,15,540,0h-8.67l3.35,10c.21.65.4,1.3.57,2l2.54,10.18c.14.55.29,1.1.46,1.65l3.4,11c.23.75.49,1.5.78,2.24L547,49l5,12,5,11,2,4,.85,1.46L566,75Z"/><path class="cls-2" d="M432,90l3-4,3-5,2-4,1.65-3.3A56.89,56.89,0,0,0,445.44,64l.56-2,2-8,1.07-4.28a56.57,56.57,0,0,0,1.35-7.53L451,37l1-8,1-9,.76-8.4c.16-1.73.24-3.47.24-5.21V0H439V18.31a62.88,62.88,0,0,1-1,11.29l-.56,3.09c-.28,1.54-.49,3.09-.62,4.65L436,47l-.88,12.26a31.14,31.14,0,0,1-.43,3.46L433,72l-2,8-2,6-2,7-2,6,5-6Z"/><path class="cls-2" d="M565,40l10,19,5,9.16.82.66,3.82-1.73a46.79,46.79,0,0,1,4.89-1.92L599,62l16-5,16-7,1-.49a142.36,142.36,0,0,1-16.07-27L613,16,604.38,0H546.84L554,17Z"/><path class="cls-2" d="M467.92,2.36,470,6l3,5v5a70.52,70.52,0,0,0,.71,10L474,28l2,9,2,7,3,8,4,8,3,5,5,6a39.1,39.1,0,0,0,6.9,7.12L501,79l5,3a49.83,49.83,0,0,0,10.31,2.89L517,85l3,1-5-4-.24-.12A25.78,25.78,0,0,1,508,77l-1-1-4-4-5.15-6.87a19,19,0,0,1-1.53-2.36L492,55l-4-8-3-8-1.64-3.82a33.77,33.77,0,0,1-2-6.57,16.89,16.89,0,0,1-.32-3.25V22l4,6,4,6,4,6,6,7,6,7,6,6,6,5,.84.84A27.45,27.45,0,0,0,525,71h0l6,4,5,4,4,3-3-8-4-9-4-11-3.84-8.46a40.34,40.34,0,0,1-2-5.21L521,33l-2-7-3-13-2-9-1.09-4H466.67C467.07.8,467.48,1.59,467.92,2.36Z"/><polygon class="cls-3" points="711 101 719 103 723 104 726 105 726 102 725 99 723 95 721 91 719 87 716 84 714 83 711 83 707 84 702 86 702 99.61 711 101"/><path class="cls-3" d="M710,305h10l2-18,.16-4.26L722,283l-3.22,7.24a17.23,17.23,0,0,0-1.16,3.65l-.18.92A16.9,16.9,0,0,1,716,299l-1,2a5.06,5.06,0,0,1-2.37,1.34L710,303l-.27.07.06,1.93Z"/><path class="cls-3" d="M759,270l2,14,3,13,2.64,10.63.06.22,2.3.15h5l4-1,3-1,3-3,5-3,4-3,5-1,5,1,4,1,4,3,2,1,3-2,6-1,4-3,3-1,4-2v-1l-1-2v-1l2-1,1-1-1-3-1-6-1-6h-2l-2-1-1-3-1-2v-2l1-2,1-3,3-3,3-3,4-2,2.69-.67L839,244l-2.83-13.42L832,227l-4.73-3.78a2.72,2.72,0,0,0-.58-.37l-2-1a69.53,69.53,0,0,1-10.72-6.63l-2.87-2.15-.15-.1-6.81-4.54a36.41,36.41,0,0,1-4-3.09l-7-6.26-.14-.13-6.83-6.83-.21-.19-5.68-4.73a3.59,3.59,0,0,1-.39-.39l-5.74-6.69a1.54,1.54,0,0,0-.17-.19l-.28-.28c-.18-.18-.34-.36-.51-.54a18.16,18.16,0,0,1-.45,2.07L771,187l-2,10-1.9,10.47c-.07.35-.14.7-.23,1.05L764,220l-2,9-1.79,7.16a16.45,16.45,0,0,0-.33,1.7l-.76,5.27a16.32,16.32,0,0,1-.33,1.72l-.35,1.4a16.47,16.47,0,0,1-1.25,3.37L757,250l-.12.12L758,258Z"/><path class="cls-3" d="M1170,234l-2,10-1,9h7l8,3,4,2,2,2-1,6-3,12-3,14-3,15,4,3,12,3,16,5,12,5,11.69,4,1.12.22,7.71-17.15a17.19,17.19,0,0,0,.81-2.17L1248,292l2.46-10.66c.36-1.56.65-3.14.86-4.72L1253,264l3.74-18a59.42,59.42,0,0,0,1.26-12.19V203l3,21,2,22,3,32,3,34,1,8.67,1,8.33.39,1.94L1278,330l4,2,2,2,3,2,4,2,8,3,9,1h14l7.12-.59.34,0,1.83-5L1334,329l5-15,4-18.87,2.83-13.22h0L1353,254v34l8.44-27.86a76,76,0,0,0,2.38-10.45l2.2-14.31a84.88,84.88,0,0,0,1-12.83V97l-14,79,3.69-33.24L1359,122l3.44-49.83q.55-8.18.56-16.36V2.6l-7.72,6.17a3.08,3.08,0,0,0-.51.51l-.74.93a22.07,22.07,0,0,1-7.37,6l-1.54.77-.25.11-4.59,1.84a4.11,4.11,0,0,1-.57.17l-4.39.88a3.47,3.47,0,0,1-.64.06H1332a3.22,3.22,0,0,1-1.81-.55l-2-1.34-.35-.2-1.61-.81a3.2,3.2,0,0,0-.43-.17L1323,16l-2-.66a3.3,3.3,0,0,0-2.06,0l-.69.23a3.24,3.24,0,0,0-1.88,1.64l-.4.79-.76,1.53a3.41,3.41,0,0,1-.61.84l-.17.17a3.19,3.19,0,0,0-.71,1.06L1309,33l-6,13-8,16-8,15.9a2,2,0,0,1-.11.2L1277,95l-8,14-9,14-6.49,10.2c-.34.53-.7,1.05-1.09,1.55L1243,147l-8,10-8,9-7.94,8.93-.13.14-7.81,7.81-.25.22L1200,192l-11,9-8.88,7.89a2.43,2.43,0,0,1-.25.2l-5.56,4L1172,225Z"/><polygon class="cls-3" points="555 43 563 60 567 67 560 63 563 68 567.82 74.27 576 71 580.79 68.82 579.97 68.17 575 59 565 40 554 17 546.84 0 540 0 544 15 555 43"/><path class="cls-3" d="M616,22.55a142.36,142.36,0,0,0,16.07,27L646,43a44.12,44.12,0,0,1,4.15-1.71l12.22-4.31-9.21-5.86a2.2,2.2,0,0,1-.25-.17L644,24l-8.84-6.88a2.55,2.55,0,0,1-.3-.26L626,8l-8-8H604.38L613,16Z"/><path class="cls-4" d="M840.69,250.33,842,250h3l7,33,8,5,16,9,18,10,9,5,11,3,22,5,19,3,19,3,13,1,18,1,13-1,13-2,11-3,17-4,18-4,21-5,17-4,12-4,6-3,3-3,5-3,5-5,7-5,7-5,5-3,1-21h1l1-9,2-10,2-9,2.31-11.86L1169,217l-9,7-11,8-10,7-16,11-16,11-16,10L1079.08,279l-.16.1L1067,286l-12,7-12.88,7.92a2,2,0,0,1-.25.14L1030,307l-9,4-9.79,3.92a3,3,0,0,0-.41.19l-3.53,2a30.88,30.88,0,0,1-6.89,2.9l-2,.58a20.81,20.81,0,0,1-2.8.59l-4.25.61a18.44,18.44,0,0,1-2.67.19H986a17.08,17.08,0,0,1-4-.49,31.39,31.39,0,0,1-3.95-1.28l-1.81-.72c-.84-.34-1.67-.71-2.48-1.12l-4.55-2.28a2.82,2.82,0,0,1-.44-.26l-6.72-4.8-.14-.1L951,304l-14-8-11-7-10-7-9.86-6.9a1.75,1.75,0,0,0-.29-.18L897,270l-6.17-3.36Q886,264,881.42,261l-4.25-2.84-.35-.2L867,253l-10.84-5.91-.31-.19-4.25-3a78,78,0,0,1-10.43-8.75l-2.08-2.08a1.54,1.54,0,0,0-.19-.17l-2.73-2.34L839,244Z"/><path class="cls-5" d="M463,944V927l1-20,2-28,1-18,1-20,3-13,1-8-8-16-8-18-7-15-6-11-10-21-12-22-15-33-11-23-9-20-8-16-6-11-5-9-5-6-8-9-4.68-6.71-.29-1.65L345,601l-8,34-7,25-6,28-6,22-3,23-5,26-4,22-7,27-10,41-6,26-7,36-5,25-2.55,17.84q-.45,3.17-1.16,6.27L263,979l-2.67,21.34h193.3l11.28-21L464,962Z"/><path class="cls-5" d="M1715,583l-14,15-16,21-26,31-24,29-19,23-15,18-14,17-21,23-17,22-12,17-11,17-9,15,1,27,2,25,1,17v18l-1,26v21l-1,18-1,16-.16,1.34h158.57l3-11.76,10.43-47.81L1700.27,889l6.83-32.36,7.55-32L1718,808l3.9-18.83a156,156,0,0,0,2.84-20.52h0q.26-3.64.26-7.31v-19.8c0-1,0-2,.13-3.08L1728,705l2-51,1-30V588l-.12-3.06a81.3,81.3,0,0,0-2.45-16.78L1726,571Z"/><path class="cls-6" d="M1475,350l-5,4-9,6-2,2-3.79,6.79-8.08,13.13-8.33,13.64L1427,411l-12,14,12-22,9.77-17.59a5.43,5.43,0,0,0,.39-.85L1443,369l-14,17-12,14.82a16,16,0,0,1-2.12,2.16L1403,413l-11.14,8.35a21.32,21.32,0,0,1-1.78,1.2L1376,431l9.58-11.18a24.57,24.57,0,0,0,3.89-6.24L1391,410l2.19-4.85a30.33,30.33,0,0,0,1.53-4.15l3.68-12.77,3-9.34a36.49,36.49,0,0,0,1-3.83l2-10.17a47.77,47.77,0,0,0,.8-5.83l1.51-19.81L1407,334h-20.75l-1.5,3.23L1377,354l-5.37,10.56a41.13,41.13,0,0,1-3.48,5.66L1361,380l-10.61,13.26a40.41,40.41,0,0,1-3,3.31L1344,400l-11,10-9.11,7a37.42,37.42,0,0,1-8.42,4.88L1308,425l4.27-2.67a25.6,25.6,0,0,0,6.47-5.76l3.65-4.55a32.19,32.19,0,0,0,2.87-4.27l2-3.68a44.37,44.37,0,0,0,2.84-6.14L1335,385l6.34-16.71,5.79-17.64a44.92,44.92,0,0,0,1.41-5.39l1.39-7.1L1347,339l-2.23.44-1.41,4.35L1337,360l-7.53,17.63L1322,392l-2.34,4.1a49.11,49.11,0,0,1-3.7,5.55l-4.11,5.34a42.7,42.7,0,0,1-4.55,5.05l-6.3,6-2.1,2.1a36.33,36.33,0,0,1-6.38,5.08L1280,433l9-9,7.39-6.48,6.31-6.31L1306,408a35.75,35.75,0,0,0,5.25-6.56L1314,397l6-10,6-12,7-16,5-15,1.07-3.49-9.61.87-.34,0L1322,342h-14l-9-1-8-3-4-2-3-2-2-2-4-2-6.61.94-.39.06-7-1h-15l-5-1-9.19-1.79-1.12-.22L1222,323l-12-5-16-5-12-3-4-3,3-15,3-14,3-12,1-6-2-2-4-2-8-3h-8l-1,21-5,3-7,5-7,5-5,5-5,3-3,3-6,3-12,4-17,4-21,5-18,4-17,4-11,3-13,2-13,1-18-1-13-1-19-3-19-3-22-5-11-3-9-5-18-10-16-9-8-5-7-33h-3l-1.31.33L838,251l-4,2-3,3-3,3-1,3-1,2v2l1,2,1,3,2,1h2l1,6,1,6,1,3-1,1-2,1v1l1,2v1l-4,2-3,1-4,3-6,1-3,2-2-1-4-3-4-1-5-1-5,1-4,3-5,3-3,3-3,1-4,1h-5l-2.3-.15L770,319l4,13,6,15,6,15,5,11,7,11,4.43,5.17a38.73,38.73,0,0,1,2.91,3.84l1.89,2.83A29.16,29.16,0,0,0,814,403l12,7-7.34-1.69a42.59,42.59,0,0,1-10.76-4.09l-1.38-.75a54.88,54.88,0,0,1-8.51-5.73L791,392l-9-7-7.21-5.77a63,63,0,0,1-5.32-4.76l-1.26-1.26a80.5,80.5,0,0,1-10.93-13.62L755,356l-7-10-6-10-4-8-3-9,1,13,2,16,3,14,1.28,7.68a49.5,49.5,0,0,0,2.19,8.45L748,388l5,12,8,14,9,14,11,14-12-9-12-10-5.67-5.67a53.79,53.79,0,0,1-6-7.19L741,404l-9-14-4-8-2.45-5.5a40.11,40.11,0,0,1-2.41-7.23L721,360l-2.33-11.63a57.56,57.56,0,0,1-.92-6.8L717,331v-6.1q0-2.89.29-5.78a80.26,80.26,0,0,1,2.67-14l0-.12H702l-9,2-10,3-11,3-5.34,2.29.05.06L668,319l3,7,2.25,6a26.58,26.58,0,0,1,1.17,4.07l.81,4.09a39.43,39.43,0,0,1,.77,7.73v11a55.87,55.87,0,0,1-.34,6.2,43.78,43.78,0,0,1-2.87,11.43l-1.16,2.91a28.45,28.45,0,0,1-1.44,3.06L665,392l-4.1,7.52a47.34,47.34,0,0,1-4.34,6.61l-3.1,4a37.76,37.76,0,0,1-3.14,3.55L642,422l-13,12-23,17,7.72-7.72a32.92,32.92,0,0,0,5.53-7.33L622,431l6-12,5-12,4-12,3.21-10.43a36,36,0,0,0,1.2-5.23L643,369l1-7-5,13-4.35,13.92a35,35,0,0,1-1.56,4.06L628,404l-3.34,8a50.38,50.38,0,0,1-4,7.64l-1.32,2.07a56.81,56.81,0,0,1-7.79,9.71L604,439l9-13,2.92-4.68a44.21,44.21,0,0,0,3.54-7L622,408l5.49-11.76a52.59,52.59,0,0,0,2.56-6.66l3-9.58,5-15,5-13,1.6-4.25A22.27,22.27,0,0,0,646,340l-1-6-.69-2.42a17.82,17.82,0,0,1-3.79.42h-4.14a28.84,28.84,0,0,1-4.73-.39L628,331l-7-2-10-3-8.2-1.64a23.58,23.58,0,0,1-3.52-1l-3.81-1.43L595,322h-5l-2,1-5,2-3-1-2.33.33L576,326l-6,6-8,7-6,5-7.48,5.61a12.51,12.51,0,0,1-1.07.72L543,353l-9.34,4.67a9.48,9.48,0,0,1-1.36.56L521,362l-11,4-14,5L484,375.63a16.22,16.22,0,0,1-1.94.62L471,379l-15,3-10,2-6.26,1.79a10.77,10.77,0,0,0-1.44.52L431,389.55a12.92,12.92,0,0,0-1.93,1.06L424,394l-5.37,3.58a7.63,7.63,0,0,0-1.16.95L413,403l-4.48,4.48a19,19,0,0,0-2.66,3.34L402,417l-8,16-8,16-6,13-5,12-4,12-3,10-3,14-4,17-3,15-4,16-4,19-1,4.64.29,1.65L354,590l8,9,5,6,5,9,6,11,8,16,9,20,11,23,15,33,12,22,10,21,6,11,7,15,8,18,8,16-1,8-3,13-1,20-1,18-2,28-1,20v17l1,18,.91,17.3L465,981l1,14,.82,5.34h1051L1518,999l1-16,1-18V944l1-26V900l-1-17-2-25-1-27,9-15,11-17,12-17,17-22,21-23,14-17,15-18,19-23,24-29,26-31,16-21,14-15,11-12,2.43-2.84L1738,557l7-11,10-13,6-10,5-8,2-5v-2l-2-4-4-2-5-2-5-1-8-9-10-12-10-10-12-13-10-11-12-12-5-5-5-8-7-10-7-7-9-7-6-5-9-7-10-7-9-5-17-7-14-5-12-3-6-2h-6l-4-2-7-2-17-3-16-4-10-1-17-3h-10.18l-.92-.13-3.17,3.41Z"/><path class="cls-2" d="M1363,2.6V55.81q0,8.19-.56,16.36L1359,122l-2.31,20.76L1353,176l14-79V222.55a84.88,84.88,0,0,1-1,12.83l-2.2,14.31a76,76,0,0,1-2.38,10.45L1353,288v9l-1.48,3.71c-.35.86-.66,1.73-.93,2.62L1346,318l-4,13-2.93,9.51L1338,344l-5,15-7,16-6,12-6,10-2.76,4.41A35.75,35.75,0,0,1,1306,408l-3.29,3.24-6.31,6.31L1289,424l-9,9,12.52-7.82a36.33,36.33,0,0,0,6.38-5.08l2.1-2.1,6.3-6a42.7,42.7,0,0,0,4.55-5.05l4.11-5.34a49.11,49.11,0,0,0,3.7-5.55L1322,392l7.47-14.37L1337,360l6.36-16.21,1.41-4.35,4.65-14.33,7.43-15.8,0,.4-4.87,18.18-2,10.27-1.39,7.1a44.92,44.92,0,0,1-1.41,5.39l-5.79,17.64L1335,385l-4.85,12.93a44.37,44.37,0,0,1-2.84,6.14l-2,3.68a32.19,32.19,0,0,1-2.87,4.27l-3.65,4.55a25.6,25.6,0,0,1-6.47,5.76L1308,425l7.47-3.11a37.42,37.42,0,0,0,8.42-4.88l9.11-7,11-10,3.43-3.43a40.41,40.41,0,0,0,3-3.31L1361,380l7.15-9.78a41.13,41.13,0,0,0,3.48-5.66L1377,354l7.76-16.77,1.5-3.23,5.57-12,4.68-13.42L1398,305l3.11-8.54L1406,265l3-17.91a98.94,98.94,0,0,0,1.28-12.26L1411,217l2-31V168.81a118,118,0,0,0-1.31-17.52L1410,140l-6-34,1,38v41l-3,49V177.54q0-6.54-.58-13L1398,126l-5-41-3-30-13-2,3-21.89A132,132,0,0,1,1382.74,17L1387,0l-20,34,6-28,1.37-6h-8.17L1365,1Z"/><path class="cls-2" d="M1403,291l3.48-11.84L1412,255l-4,17-6.89,24.46c.37-1,.72-2.1,1-3.15Z"/><path class="cls-2" d="M1411.51,273.42,1411,278l-1,10,2-17V255l-.2,15.14C1411.72,271.24,1411.63,272.33,1411.51,273.42Z"/><path class="cls-2" d="M720,305l0,.12a80.26,80.26,0,0,0-2.67,14Q717,322,717,324.9V331l.75,10.57a57.56,57.56,0,0,0,.92,6.8L721,360l2.14,9.27a40.11,40.11,0,0,0,2.41,7.23L728,382l4,8,9,14,4.3,6.14a53.79,53.79,0,0,0,6,7.19L757,423l12,10,12,9-11-14-9-14-8-14-5-12-3.53-9.87a49.5,49.5,0,0,1-2.19-8.45L741,362l-3-14-2-16-1-13,3,9,4,8,6,10,7,10,2.28,3.59a80.5,80.5,0,0,0,10.93,13.62l1.26,1.26a63,63,0,0,0,5.32,4.76L782,385l9,7,7,5.74a54.88,54.88,0,0,0,8.51,5.73l1.38.75a42.59,42.59,0,0,0,10.76,4.09L826,410l-12-7a29.16,29.16,0,0,1-6.77-7.16L805.34,393a38.73,38.73,0,0,0-2.91-3.84L798,384l-7-11-5-11-6-15-6-15-4-13-3.3-11.15-.06-.22L764,297l-3-13-2-14-1-12-1.12-7.88L755,252l-4,3-4.57,3.65a9.61,9.61,0,0,0-.82.74l-2.71,2.71a27,27,0,0,1-4.14,3.39l-2.55,1.7a21.73,21.73,0,0,1-2.52,1.46L729,271l-1,1-2.5,5c-.33.66-.69,1.31-1.07,1.94l-2.27,3.79L722,287Z"/><path class="cls-2" d="M646,340a22.27,22.27,0,0,1-1.4,7.75L643,352l-5,13-5,15-3,9.58a52.59,52.59,0,0,1-2.56,6.66L622,408l-2.54,6.36a44.21,44.21,0,0,1-3.54,7L613,426l-9,13,7.57-7.57a56.81,56.81,0,0,0,7.79-9.71l1.32-2.07a50.38,50.38,0,0,0,4-7.64l3.34-8,5.09-11a35,35,0,0,0,1.56-4.06L639,375l5-13-1,7-1.59,10.34a36,36,0,0,1-1.2,5.23L637,395l-4,12-5,12-6,12L619.25,436a32.92,32.92,0,0,1-5.53,7.33L606,451l23-17,13-12,8.32-8.32a37.76,37.76,0,0,0,3.14-3.55l3.1-4a47.34,47.34,0,0,0,4.34-6.61L665,392l5.19-9.51a28.45,28.45,0,0,0,1.44-3.06l1.16-2.91a43.78,43.78,0,0,0,2.87-11.43,55.87,55.87,0,0,0,.34-6.2v-11a39.43,39.43,0,0,0-.77-7.73l-.81-4.09a26.58,26.58,0,0,0-1.17-4.07L671,326l-3-7-1.29-3.65-.05-.06L665,316l-.29.14a12,12,0,0,0-3.06,2.21L661,319h-5l-1,4-.11.32A11.88,11.88,0,0,1,652,328l-1.41.94a18,18,0,0,1-3.36,1.77,17.78,17.78,0,0,1-2.92.87L645,334Z"/><polygon class="cls-3" points="1367 34 1387 0 1374.37 0 1373 6 1367 34"/><path class="cls-3" d="M1380,31.11,1377,53l13,2,3,30,5,41,3.42,38.49q.58,6.51.58,13V234l3-49V144l-1-38,6,34,1.69,11.29a118,118,0,0,1,1.31,17.52V186l-2,31-.74,17.83a98.94,98.94,0,0,1-1.28,12.26L1406,265l-4.89,31.46L1408,272l4-17v16l-2,17-.48,13.23L1409,334l6-35,6-44,2.47-37.92a121,121,0,0,0,0-16.16L1422,180V161.12q0-5.12-.47-10.22L1418,113l-3-31-4.74-49.3c-.17-1.8-.4-3.59-.67-5.38L1405.43,0H1387l-4.26,17A132,132,0,0,0,1380,31.11Z"/><path class="cls-3" d="M1418.73,16.09,1422,48l5.49,39.37q.51,3.63.81,7.29L1432,139V75l2-41V0h-18.25l.52,2.08A100.93,100.93,0,0,1,1418.73,16.09Z"/><path class="cls-3" d="M1481,35v68l-2.86,23.43L1476,144l-5,33-11,51-11,39-14,42-11.09,29.86a79.68,79.68,0,0,1-4.51,10l-9.31,17.3L1408,370l19-26,13-29,8.44-20.13a141.75,141.75,0,0,0,7.26-22.34L1461,250l9-37,4.36-27.9q.65-4.09,1-8.24L1483,79l3.57,16.94q.43,2.06.75,4.14L1492,131V79l-3-45-1.75-25.39q-.26-3.61-.76-7.19l-.2-1.42h-8.93l3,25A83.15,83.15,0,0,1,1481,35Z"/><path class="cls-7" d="M634.86,16.86a2.55,2.55,0,0,0,.3.26L644,24l8.88,6.91a2.2,2.2,0,0,0,.25.17l9.21,5.86L665,36l20-8,15-6,11.38-5.25c1.08-.5,2.18-1,3.29-1.38L721,13,723.44,12a41.48,41.48,0,0,1,9.45-2.76L734,9h6.06a9.75,9.75,0,0,1,5.39,1.63,4.06,4.06,0,0,1,.95.9l.7.94A19.37,19.37,0,0,1,750,18l2,4,2,5,4,10,4,7,2,4,.8.4A8.24,8.24,0,0,1,767,50l.49.49a7.83,7.83,0,0,1,1,1.22l.56.84a10.42,10.42,0,0,1,1.44,3.25L771,58l2,2,1,1a9.23,9.23,0,0,1,1.71,2.37L776,64l.53,1.58a3.63,3.63,0,0,1-.2,2.76L776,69l-1,2,5,8,3.83,7.67c.11.22.21.45.3.68L787,95l2.46,3.28a9.24,9.24,0,0,1,.94,1.53L793,105l1.26,3.15A10.33,10.33,0,0,1,795,112v4.83a12.29,12.29,0,0,1-.23,2.34l-.46,2.28a11.93,11.93,0,0,1-1,3L792,127l-1.83,3.66a16,16,0,0,1-3,4.19L787,135l-3.67,4.59a7.34,7.34,0,0,0-.6.86L780,145l-1.13,2.27a11.12,11.12,0,0,0-1.11,3.65l-.67,5.38c-.06.47-.14.93-.24,1.39L775,166l-1.83,12.8a2.93,2.93,0,0,1,0,.29c.17.18.33.36.51.54l.28.28a1.54,1.54,0,0,1,.17.19l5.74,6.69a3.59,3.59,0,0,0,.39.39l5.68,4.73.21.19,6.83,6.83.14.13,7,6.26a36.41,36.41,0,0,0,4,3.09l6.81,4.54.15.1,2.87,2.15a69.53,69.53,0,0,0,10.72,6.63l2,1a2.72,2.72,0,0,1,.58.37L832,227l4.17,3.58,2.73,2.34a1.54,1.54,0,0,1,.19.17l2.08,2.08a78,78,0,0,0,10.43,8.75l4.25,3,.31.19L867,253l9.82,4.91.35.2,4.25,2.84q4.58,3,9.41,5.69L897,270l8.85,4.92a1.75,1.75,0,0,1,.29.18L916,282l10,7,11,7,14,8L961.93,311l.14.1,6.72,4.8a2.82,2.82,0,0,0,.44.26l4.55,2.28c.81.41,1.64.78,2.48,1.12l1.81.72a31.39,31.39,0,0,0,3.95,1.28,17.08,17.08,0,0,0,4,.49h2.62a18.44,18.44,0,0,0,2.67-.19l4.25-.61a20.81,20.81,0,0,0,2.8-.59l2-.58a30.88,30.88,0,0,0,6.89-2.9l3.53-2a3,3,0,0,1,.41-.19L1021,311l9-4,11.87-5.94a2,2,0,0,0,.25-.14L1055,293l12-7,11.92-6.95.16-.1L1091,271l16-10,16-11,16-11,10-7,11-8,9-7,5.31-3.86,5.56-4a2.43,2.43,0,0,0,.25-.2L1189,201l11-9,10.87-8.9.25-.22,7.81-7.81.13-.14L1227,166l8-9,8-10,9.42-12.25c.39-.5.75-1,1.09-1.55L1260,123l9-14,8-14,9.94-16.9a2,2,0,0,0,.11-.2l8-15.9,8-16,6-13,4.75-11.4a3.19,3.19,0,0,1,.71-1.06l.17-.17a3.41,3.41,0,0,0,.61-.84L1316,18l.4-.79a3.24,3.24,0,0,1,1.88-1.64l.69-.23a3.3,3.3,0,0,1,2.06,0l2,.66,2.78.93a3.2,3.2,0,0,1,.43.17l1.61.81.35.2,2,1.34A3.22,3.22,0,0,0,1332,20h2.69a3.47,3.47,0,0,0,.64-.06l4.39-.88a4.11,4.11,0,0,0,.57-.17l4.59-1.84.25-.11,1.54-.77a22.07,22.07,0,0,0,7.37-6l.74-.93a3.08,3.08,0,0,1,.51-.51L1363,2.6l2-1.6,1.2-1h-59.75L1306,1l-4,10L1299.45,17c-.3.7-.64,1.38-1,2.05l-4,7.18c-.3.55-.58,1.1-.83,1.67l-2.84,6.4a27.82,27.82,0,0,1-1.79,3.37L1285,44l-5,9-6.46,9.23c-.36.51-.74,1-1.15,1.49L1267,70l-6,7-5,6-6,6-2.84,2.84a17.24,17.24,0,0,1-2.52,2.07L1240,97l-6.35,4.54a9.38,9.38,0,0,1-1.36.81L1227,105l-.15.1a16,16,0,0,1-6.23,2.46L1218,108l3-1.79a19,19,0,0,0,3.68-2.87L1226,102l1.37-1.37a13.52,13.52,0,0,1,1.34-1.17L1232,97l2.27-2.27a14.39,14.39,0,0,1,1.56-1.35l2.73-2a8.08,8.08,0,0,0,.83-.72L1245,85l5.54-6.46a11.5,11.5,0,0,0,.85-1.13L1257,69l4-6,4-7,2.5-4.17a12.12,12.12,0,0,0,.86-1.73L1270,46l2-6,3-8,1.74-5.21q.26-.79.57-1.56L1281,16l3-9,1.75-7H1258l-6,9-7,10-6,8-1-1,6-8,4-7,6-8,2-3h-49l1,2-3,6-2,5-3,7-2,5-2,9h-2l3-10,2-7,4-10,4-7H618l8,8ZM964.53,91.07a4.36,4.36,0,0,1,.47,2V94a11,11,0,0,0,.2,2.06l.74,3.67a3.28,3.28,0,0,1,.06.63V105l-.83-1.66a2.37,2.37,0,0,0-.44-.61l-.18-.18a2.78,2.78,0,0,1-.74-1.3L963,98s0,0,0,0l-.7-2.11a5.69,5.69,0,0,1-.29-1.79V90.56a.56.56,0,0,1,.55-.56h1.11a.54.54,0,0,1,.49.31ZM961,83.61a.61.61,0,0,1,.61-.61h1.63a.76.76,0,0,1,.76.76v.53a1.72,1.72,0,0,1-.5,1.21l-.5.5-1,1-.81-1.62a1.89,1.89,0,0,1-.19-.81ZM885,199v-.92a2.6,2.6,0,0,1,.76-1.84,1.43,1.43,0,0,1,.56-.35l2.57-.85.22-.07,2.66-.66a5.42,5.42,0,0,1,2.47-.06l3.38.67a4.83,4.83,0,0,1,.74.22L903,197l.06,0,6.93,2,.08,0,8,1,8.62,1c.25,0,.51.07.76.12L937,203h0l9,1,8.45.94a10.32,10.32,0,0,0,1.11.06H967.7l.6,0L982,206h10l13.69-1,.58,0h8.08a8.66,8.66,0,0,0,1.25-.09L1022,204l8-1,7-1,5.69-.95a4.32,4.32,0,0,1,.62-.05h4.18a3,3,0,0,1,1,.16l2.52.84,2.87,1a.46.46,0,0,1,.23.14,1.27,1.27,0,0,1,0,1.8l-.1.1-.28.28a2.47,2.47,0,0,1-1.74.72h-2l-1-1-.83-.83a.58.58,0,0,0-.41-.17h-5.08a6.69,6.69,0,0,0-1.34.13L1037,205h0l-7,2-8,2-8,2-4.16.83a8.83,8.83,0,0,1-1.7.17h-2.89a20.8,20.8,0,0,1-2.49-.15L996,211l-8-1-12-1-15-2-11-1-12-1-10-1-8.43-.94a10.93,10.93,0,0,0-1.15-.06H888.21a2.94,2.94,0,0,1-2.07-.86L886,202a3.35,3.35,0,0,1-1-2.38Z"/><path class="cls-8" d="M263,979l4.29-18.89q.7-3.11,1.16-6.27L271,936l5-25,7-36,6-26,10-41,7-27,4-22,5-26,3-23,6-22,6-28,7-25,8-34,4-19.36,1-4.64,4-19,4-16,3-15,4-17,3-14,3-10,4-12,5-12,6-13,8-16,8-16,3.86-6.18a19,19,0,0,1,2.66-3.34L413,403l4.47-4.47a7.63,7.63,0,0,1,1.16-.95L424,394l5.08-3.39a12.92,12.92,0,0,1,1.93-1.06l7.29-3.24a10.77,10.77,0,0,1,1.44-.52L446,384l10-2,15-3,11-2.75a16.22,16.22,0,0,0,1.94-.62L496,371l14-5,11-4,11.3-3.77a9.48,9.48,0,0,0,1.36-.56L543,353l4.45-2.67a12.51,12.51,0,0,0,1.07-.72L556,344l6-5,8-7,6-6,1.67-1.67L581,321l.37-.19a7.77,7.77,0,0,1,3.45-.81h1.47a8.39,8.39,0,0,1,1.41.12l3.55.59a18.25,18.25,0,0,1,3.41.91l.81.31,3.81,1.43a23.58,23.58,0,0,0,3.52,1L611,326l10,3,7,2,3.65.61a28.84,28.84,0,0,0,4.73.39h4.14a18.1,18.1,0,0,0,10.07-3.06L652,328a11.88,11.88,0,0,0,2.89-4.68L655,323l1-4h5l.65-.65a12,12,0,0,1,3.06-2.21L665,316l1.66-.71L672,313l11-3,10-3,9-2,7.73-1.93L710,303l2.63-.66A5.06,5.06,0,0,0,715,301l1-2a16.9,16.9,0,0,0,1.44-4.19l.18-.92a17.23,17.23,0,0,1,1.16-3.65L722,283l.16-.26,2.27-3.79c.38-.63.74-1.28,1.07-1.94l2.5-5,1-1,4.69-2.35a21.73,21.73,0,0,0,2.52-1.46l2.55-1.7a27,27,0,0,0,4.14-3.39l2.71-2.71a9.61,9.61,0,0,1,.82-.74L751,255l4-3,1.88-1.88L757,250l.19-.38a16.47,16.47,0,0,0,1.25-3.37l.35-1.4a16.32,16.32,0,0,0,.33-1.72l.76-5.27a16.45,16.45,0,0,1,.33-1.7L762,229l2-9,2.87-11.48c.09-.35.16-.7.23-1.05L769,197l2-10,1.67-5.84a18.16,18.16,0,0,0,.45-2.07,2.93,2.93,0,0,0,0-.29L775,166l1.85-8.31c.1-.46.18-.92.24-1.39l.67-5.38a11.12,11.12,0,0,1,1.11-3.65L780,145l2.73-4.55a7.34,7.34,0,0,1,.6-.86L787,135l.15-.15a16,16,0,0,0,3-4.19L792,127l1.29-2.58a11.93,11.93,0,0,0,1-3l.46-2.28a12.29,12.29,0,0,0,.23-2.34V112a10.33,10.33,0,0,0-.74-3.84L793,105l-2.6-5.19a9.24,9.24,0,0,0-.94-1.53L787,95l-2.87-7.65c-.09-.23-.19-.46-.3-.68L780,79l-5-8,1-2,.33-.66a3.63,3.63,0,0,0,.2-2.76L776,64l-.34-.68A9.23,9.23,0,0,0,774,61l-1-1-2-2-.56-2.25A10.42,10.42,0,0,0,769,52.5l-.56-.84a7.83,7.83,0,0,0-1-1.22L767,50a8.24,8.24,0,0,0-2.15-1.55L764,48l-2-4-4-7-4-10-2-5-2-4a19.37,19.37,0,0,0-2.9-5.53l-.7-.94a4.06,4.06,0,0,0-.95-.9A9.75,9.75,0,0,0,740.06,9H734l-1.11.19A41.48,41.48,0,0,0,723.44,12L721,13l-6.33,2.37c-1.11.42-2.21.88-3.29,1.38L700,22l-15,6-20,8-2.66.94-12.22,4.31A44.12,44.12,0,0,0,646,43l-13.92,6.55L631,50l-16,7-16,5-9.5,3.17a46.79,46.79,0,0,0-4.89,1.92l-3.82,1.73L576,71l-8.18,3.27L566,75l-6.15,2.46-.32.13a65.09,65.09,0,0,0-6.87,3.23L545,85,527,96l-12,7-6.69,4a42.58,42.58,0,0,0-6.2,4.55L496,117l-9,8-11,10-15,12-12,11-14,11-10,9-12,10-9,8-11,10-10,8-15,11-12,8-21,16-16,11-19,14-14,11-15,12-11,10-9,9-7,7-7,8-8,8-1.93,2.32a54.34,54.34,0,0,0-5.45,7.84L220,352l-3,6-1.83,5.48c-.11.35-.22.7-.31,1L212,375l-2.19,6.57a40.39,40.39,0,0,0-1.31,4.94L207,394l-5,16-8,26-12,33-8,22-7,20-10,26-10,27-11,31-8,22-8,23-8,23-10,28-7,21-9,25-8,25-6,21-7,20-7,20-7,21-6,18-6,16-7,20-7,21-6,17-5,13L9,963,4,975l-4,9v16.34H260.33ZM689,93l3-1,5-3,5-3,5-2,4-1h3l2,1,3,3,2,4,2,4,2,4,1,3v3l-3-1-4-1-8-2-9-1.38L698,99l-8-2-4-2Z"/><path class="cls-9" d="M886.14,202.14a2.94,2.94,0,0,0,2.07.86h30.21a10.93,10.93,0,0,1,1.15.06L928,204l10,1,12,1,11,1,15,2,12,1,8,1,6.76.85a20.8,20.8,0,0,0,2.49.15h2.89a8.83,8.83,0,0,0,1.7-.17L1014,211l8-2,8-2,7-2h0l4.32-.87a6.69,6.69,0,0,1,1.34-.13h5.08a.58.58,0,0,1,.41.17l.83.83,1,1h2a2.47,2.47,0,0,0,1.74-.72l.28-.28.1-.1a1.27,1.27,0,0,0,0-1.8.46.46,0,0,0-.23-.14l-2.87-1-2.52-.84a3,3,0,0,0-1-.16h-4.18a4.32,4.32,0,0,0-.62.05L1037,202l-7,1-8,1-6.38.91a8.66,8.66,0,0,1-1.25.09h-8.08l-.58,0L992,206H982l-13.68-1-.6,0H955.56a10.32,10.32,0,0,1-1.11-.06L946,204l-9-1h0l-9.6-1.91c-.25-.05-.51-.09-.76-.12L918,200l-8-1-.08,0L903,197l-.06,0-4.61-1.85a4.83,4.83,0,0,0-.74-.22l-3.38-.67a5.42,5.42,0,0,0-2.47.06l-2.66.66-.22.07-2.57.85a1.43,1.43,0,0,0-.56.35,2.6,2.6,0,0,0-.76,1.84v1.53a3.35,3.35,0,0,0,1,2.38Z"/><path class="cls-9" d="M963.66,90h-1.11a.56.56,0,0,0-.55.56v3.52a5.69,5.69,0,0,0,.29,1.79L963,98s0,0,0,0l.8,3.23a2.78,2.78,0,0,0,.74,1.3l.18.18a2.37,2.37,0,0,1,.44.61L966,105v-4.68a3.28,3.28,0,0,0-.06-.63L965.2,96A11,11,0,0,1,965,94V93a4.36,4.36,0,0,0-.47-2l-.38-.76A.54.54,0,0,0,963.66,90Z"/><path class="cls-9" d="M962,87l1-1,.5-.5a1.72,1.72,0,0,0,.5-1.21v-.53a.76.76,0,0,0-.76-.76h-1.63a.61.61,0,0,0-.61.61v1a1.89,1.89,0,0,0,.19.81Z"/><polygon class="cls-10" points="1199 17 1197 24 1194 34 1196 34 1198 25 1200 20 1203 13 1205 8 1208 2 1207 0 1203 7 1199 17"/><polygon class="cls-10" points="1248 11 1244 18 1238 26 1239 27 1245 19 1252 9 1258 0 1256 0 1254 3 1248 11"/></g></g></svg>