<svg xmlns="http://www.w3.org/2000/svg" xmlns:xlink="http://www.w3.org/1999/xlink" viewBox="0 0 395.26 1252.44"><defs><style>.cls-1{fill:none;}.cls-2{fill:#fff;}.cls-3{opacity:0.6;}.cls-4{fill:url(#新規パターンスウォッチ_2);}</style><pattern id="新規パターンスウォッチ_2" data-name="新規パターンスウォッチ 2" width="30" height="30" patternTransform="translate(2.84 12.45) rotate(152)" patternUnits="userSpaceOnUse" viewBox="0 0 30 30"><rect class="cls-1" width="30" height="30"/><rect class="cls-2" width="14.63" height="30"/></pattern></defs><title>アセット 3</title><g id="レイヤー_2" data-name="レイヤー 2"><g id="レイヤー_1-2" data-name="レイヤー 1"><g class="cls-3"><path class="cls-4" d="M0,1016.11H395.26V1118.9h-166v30.76h166v102.78H0V1149.66H141.36V1118.9H0Z"/><path class="cls-4" d="M0,797.18,395.26,738.4v105l-71,5.52v36.77l71,6.18V998.17L0,945.74Zm254.15,54.47q-67.15,7.82-166,15.66Q201.67,883,254.15,887Z"/><path class="cls-4" d="M0,721V617.43q0-42,6.59-64.57t19-33.94a65.49,65.49,0,0,1,30.16-15.38q17.7-4,54.81-4H145q37.85,0,55.18,7.81T226.81,536q9.27,20.88,9.27,54.57v27.58H395.26V721ZM67.63,618.16H168.21q.25-4.39.25-7.56,0-14.16-7-19.66t-28.93-5.49H100.1q-20.26,0-26.37,6.35T67.63,618.16Z"/><path class="cls-4" d="M0,470V366.46q0-42,6.59-64.58t19-33.94a65.58,65.58,0,0,1,30.16-15.38q17.7-4,54.81-4H145q37.85,0,55.18,7.81T226.81,285q9.27,20.88,9.27,54.57v27.59H395.26V470ZM67.63,367.19H168.21q.25-4.4.25-7.57,0-14.16-7-19.65t-28.93-5.5H100.1q-20.26,0-26.37,6.35T67.63,367.19Z"/><path class="cls-4" d="M0,0,252.2,75H395.26v95.22H252.2L0,242.43V148q115.73-22.14,155.76-25Q92.51,114.5,0,94.42Z"/></g></g></g></svg>