<svg xmlns="http://www.w3.org/2000/svg" xmlns:xlink="http://www.w3.org/1999/xlink" viewBox="0 0 395.26 1946.78"><defs><style>.cls-1{fill:none;}.cls-2{fill:#fff;}.cls-3{opacity:0.6;}.cls-4{fill:url(#新規パターンスウォッチ_2);}</style><pattern id="新規パターンスウォッチ_2" data-name="新規パターンスウォッチ 2" width="30" height="30" patternTransform="translate(-6.24 37.53) rotate(-28)" patternUnits="userSpaceOnUse" viewBox="0 0 30 30"><rect class="cls-1" width="30" height="30"/><rect class="cls-2" width="14.63" height="30"/></pattern></defs><title>アセット 5</title><g id="レイヤー_2" data-name="レイヤー 2"><g id="レイヤー_1-2" data-name="レイヤー 1"><g class="cls-3"><path class="cls-4" d="M395.26,0V102.54q0,48.58-7.56,73.61t-30.62,40.4Q334,231.94,282.79,231.93q-34.65,0-48.31-10.86t-21-42.85q-8.06,35.64-26.75,48.34t-57.28,12.7H92.83q-40.06,0-59.36-9.16A49.39,49.39,0,0,1,7.08,200.93Q0,180.91,0,118.9V0ZM327.64,102.78H239.75q.24,6.6.24,10.26,0,15.13,7.45,19.28t42.6,4.15q18.56,0,26-3.41t9.4-8.91Q327.39,118.65,327.64,102.78Zm-149.42,0H67.63q.74,21.73,6.83,27.71t30,6h36.87q25.38,0,30.76-5.37T178.22,102.78Z"/><path class="cls-4" d="M395.26,378.91H0V276.12H395.26Z"/><path class="cls-4" d="M395.26,420.17v72.75q0,72.75-5.61,98.51t-28.69,42q-23.07,16.25-73.61,16.24-46.14,0-62-11.48T206.3,593q-7.58,30.51-20.26,41t-23.32,13.06q-10.62,2.56-58.47,2.57H0V554.2H131.35q31.72,0,39.3-5T178.22,523H0V420.17ZM327.64,523H239.75q0,17.32,4.76,24.29t30.88,7h21.73q18.79,0,24.66-6.71T327.64,523Z"/><path class="cls-4" d="M395.26,896.48h-79.1v-61H0V732.67H316.16V671.88h79.1Z"/><path class="cls-4" d="M395.26,1156.25H0V1053.47H166v-30.76H0V919.92H395.26v102.79H253.91v30.76H395.26Z"/><path class="cls-4" d="M395.26,1197.51v76.9q0,74.46-6.83,100.71T366,1415a71.21,71.21,0,0,1-34.79,17.09q-19.17,3.42-75.32,3.42H117.43q-53.22,0-71.16-5t-28.08-17.45Q8,1400.64,4,1382.32t-4-55.17V1197.51Zm-67.62,102.78h-260q0,22.21,8.91,27.35t48.46,5.12H278.56q26.87,0,34.43-1.71a16.34,16.34,0,0,0,11.11-7.81Q327.64,1317.14,327.64,1300.29Z"/><path class="cls-4" d="M395.26,1651.55,0,1710.33v-105l71-5.52V1563l-71-6.18V1450.56L395.26,1503Zm-254.15-54.47q67.15-7.82,166-15.66-113.53-15.7-166-19.72Z"/><path class="cls-4" d="M395.26,1946.78l-252.19-75H0v-95.22H143.07l252.19-72.26v94.42q-115.72,22.13-155.76,25,63.26,8.55,155.76,28.63Z"/></g></g></g></svg>