<svg xmlns="http://www.w3.org/2000/svg" xmlns:xlink="http://www.w3.org/1999/xlink" viewBox="0 0 955.97 2024.95"><defs><style>.cls-1{fill:none;}.cls-2{font-size:30px;fill:#edc8cf;font-family:MarshMallowPopHeartTTFLight-Regular, MarshMallowPopHeartTTFLight;}.cls-3{clip-path:url(#clip-path);}.cls-4{fill:#b46d95;}.cls-5{fill:#fff;}.cls-6{stroke:#b46d95;stroke-miterlimit:10;stroke-width:3px;fill:url(#新規パターンスウォッチ_1);}</style><clipPath id="clip-path" transform="translate(-35.64 -1.13)"><rect class="cls-1" width="1028.03" height="1991.07"/></clipPath><pattern id="新規パターンスウォッチ_1" data-name="新規パターンスウォッチ 1" width="116.1" height="143.83" patternUnits="userSpaceOnUse" viewBox="0 0 116.1 143.82"><rect class="cls-1" width="116.1" height="143.83"/><text class="cls-2" transform="translate(20.56 134.56) rotate(-50.62)">YUI54♡</text><rect class="cls-1" width="113.49" height="143.83"/></pattern></defs><title>アセット 3</title><g id="レイヤー_2" data-name="レイヤー 2"><g id="レイヤー_2-2" data-name="レイヤー 2"><g class="cls-3"><path class="cls-4" d="M954.41,190a58.48,58.48,0,0,1-6.28,3.75l-4.86,2.5c-.42.21-.84.41-1.28.6l-3.44,1.5a49.48,49.48,0,0,1-11.73,3.48h0c-1.94.32-3.9.56-5.86.7l-7.46.53a32.8,32.8,0,0,1-7.14-.28L897,201.38a55.45,55.45,0,0,1-7.1-1.55l-8.36-2.41a59,59,0,0,1-5.66-1.95l-11.46-4.63,10,7.5c.67.5,1.31,1,1.93,1.57l5.2,4.63c.41.36.81.74,1.2,1.13l6.51,6.51a28.22,28.22,0,0,1,2.59,3l3.6,4.8a14.51,14.51,0,0,1,1.93,3.49h0a36.37,36.37,0,0,1,2.44,12.15l0,1c0,1.29,0,2.57-.08,3.86l-.38,5.78a42.08,42.08,0,0,1-1.07,7l-.61,2.46a35.11,35.11,0,0,1-3.16,8.29l-1.06,2a59.6,59.6,0,0,1-6.66,9.93l-.92,1.11-.52,6.67a21.51,21.51,0,0,1-1.18,5.5h0A58.73,58.73,0,0,1,875.69,305h0l2.75-9.24,1-3.67c.3-1.05.54-2.11.74-3.19l.64-3.53a34.44,34.44,0,0,0,.57-6.25v-3.57c0-1.18-.06-2.36-.16-3.54l-.63-7.29c-.14-1.62-.36-3.24-.65-4.85l-.7-3.94a61.39,61.39,0,0,0-1.6-6.69l-1-3.49a73.18,73.18,0,0,0-3.65-9.64l-1.7-3.66c-.58-1.26-1.22-2.5-1.89-3.72l-4.54-8.17a46.62,46.62,0,0,0-4.45-6.61l-6.74-8.38-6.46-7.51a64.43,64.43,0,0,0-6-6.06l-5.55-4.91-11-5.16a59.86,59.86,0,0,1-9.47-5.55L810,172.61l11,22,11.49,26,10.62,21c.75,1.48,1.45,3,2.12,4.49l14.24,32.45,10,24.48,3.85,10a83.7,83.7,0,0,1,4.32,15.44l.75,4.19a84.13,84.13,0,0,1,1.33,14.86v9l9.38,10.19c1.4,1.53,2.75,3.12,4,4.75l13.65,17.41q1.66,2.13,3.14,4.38l4.44,6.78a73.49,73.49,0,0,0,6.83,8.88l9.24,10.31,7.92,8.48a65.31,65.31,0,0,1,4.81,5.81l3.47,4.7q1.29,1.75,2.46,3.58l3.32,5.21a62.29,62.29,0,0,1,5.12,9.86l1,2.37A43,43,0,0,1,960,463.7l0,.07a43.65,43.65,0,0,1,1.65,13h0a31.08,31.08,0,0,1-.77,6.15h0a30.67,30.67,0,0,1-4.63,10.53h0a64.21,64.21,0,0,1-4.71,6.06l-4.46,5.1,4-10.48a13.15,13.15,0,0,0,.87-5.2h0a42.49,42.49,0,0,0-1.07-8l-.92-4a66.52,66.52,0,0,0-3.08-9.85l-1.08-2.69-3.18-9a86.31,86.31,0,0,0-7.13-15.28l-5.43-9.19-6.94-11.69a87.14,87.14,0,0,0-5.59-8.29l-3.13-4.11a51.73,51.73,0,0,0-3.92-4.56L905.42,397l-17.24-17.74-9.74-10.49-.34,1.09a13.51,13.51,0,0,1-2,4h0a58.57,58.57,0,0,1-10.88,11.36L861.7,388l7.33-9.12a6.22,6.22,0,0,0,1.24-2.54h0A53.87,53.87,0,0,0,871.69,364h0l-3.83-3.83c-1.61-1.61-3.28-3.14-5-4.6l-5.13-4.31h0a31.84,31.84,0,0,1-.88,4.93l-1.54,5.89a50.19,50.19,0,0,1-2.06,6.21l-.19.47a38.93,38.93,0,0,1-4.69,8.38l-3.38,4.6,18.49,26.73,14.49,21.49,13.73,19.62c1.34,1.9,2.61,3.86,3.81,5.86l17.43,29,14,22.23,8.75,8.75,9.3,9.09c1,.93,1.95,1.84,3,2.71l7.28,6.28a60.47,60.47,0,0,0,8.41,6.07l3.61,2.15A55.42,55.42,0,0,0,983,548.05h0a21.08,21.08,0,0,0,4.74.54h3.85l-1.7,1.11a14.53,14.53,0,0,1-7.23,2.33h0a7.23,7.23,0,0,1-2.57-.35l-4.87-1.58a42.5,42.5,0,0,1-7.42-3.23l-2.11-1.18a48.54,48.54,0,0,1-6.34-4.18L957,539.67a45.34,45.34,0,0,1-6.62-6.3l-.2-.22a42.54,42.54,0,0,0-6.8-6.34l-7-5.2-9.5-7.24,4.75,6.17a60,60,0,0,1,4.93,7.51l.9,1.6a41.19,41.19,0,0,1,3.14,7.21l2.15,6.59c.42,1.26.77,2.54,1.07,3.84l1.57,6.89a59.41,59.41,0,0,1,1.44,10.94l.17,4.25a48.82,48.82,0,0,1-.18,6.4l-.39,4.3a83.84,83.84,0,0,1-2,11.86l-.59,2.45a47,47,0,0,1-3.63,9.94l-4.86,9.73,1.06-3.76a70.91,70.91,0,0,0,2.3-12.18h0a74.48,74.48,0,0,0,.38-7.62v-2.13a64.56,64.56,0,0,0-.78-10l-.71-4.51-14.74-21.74L909.17,533.6l-11.49-15.31c-1.34-1.78-2.72-3.53-4.16-5.23l-11.16-13.21q-2.93-3.47-6.16-6.65l-11-10.81,8.24,12.24,8,11.24,8.49,13.24,4.72,6.84a60.32,60.32,0,0,1,4.48,7.64l2.79,5.7a67.88,67.88,0,0,1,3.08,7.3l3,8.42a66.26,66.26,0,0,1,2,6.76l2.68,11.31,3,12-.29,6.13a47.24,47.24,0,0,1-1.21,8.61h0l.5,9-.07.34a19.55,19.55,0,0,1-6.42,10.65h0l1.61-3.23a14.68,14.68,0,0,0,1.53-5.85h0a15.26,15.26,0,0,0-.4-4.26l-.45-1.87a34.88,34.88,0,0,0-1.39-4.46l-.13-.34a59.86,59.86,0,0,0-5-10h0a42.46,42.46,0,0,0-6.59-8.17h0a56,56,0,0,0-8.55-6.8h0a47.68,47.68,0,0,0-8.19-4.22l-7.69-3,5.82,5.65a55.77,55.77,0,0,1,5.82,6.65l10.35,13.93-9.75-9.24-6.55-7.18a74.43,74.43,0,0,0-8.5-8l-6.29-5c-1.93-1.54-3.92-3-6-4.37l-22.66-15.17L819,533.77q-2.81-1.92-5.4-4.09l-10.89-9.07,5.12,9.15a60.18,60.18,0,0,0,4.16,6.42l5.71,7.67,8.43,11.88a37.1,37.1,0,0,0,2.84,3.55l12,13.3,7.72,7.85a79.59,79.59,0,0,0,12.63,10.46l2.05,1.36a39.72,39.72,0,0,0,4.87,2.78l8.67,4.17c1.19.57,2.4,1.09,3.64,1.56l6.64,2.54-8.49.5-11,.23c-.81,0-1.62,0-2.43,0l-8.1-.39c-.78,0-1.57-.11-2.35-.22l-1.8-.26a30.6,30.6,0,0,1-7.75-2.17l-2-.85c-.87-.37-1.71-.77-2.54-1.22l-.88-.47a55,55,0,0,1-9.12-6.15l-1.05-.87a55,55,0,0,1-4.19-3.89l-3.49-3.6a42.44,42.44,0,0,1-5-6.14L814.51,574a37.69,37.69,0,0,1-2.32-4L802,549.84l6.25,19.74,5,16.74L818,604.14c.51,1.94,1,3.9,1.36,5.87l3.16,15.78-3.38-7.7a41.81,41.81,0,0,0-2.57-4.92l-1.42-2.33a26.81,26.81,0,0,0-6.63-7.33h0a30,30,0,0,0-4.76-3l-.37-.19a56,56,0,0,1-6.92-4.1l-8.93-6.2,1,1.67a97.86,97.86,0,0,1,6.92,13.18l5.78,13.38-7.14-9a76.88,76.88,0,0,0-7.26-7.94L781,595.81l-10-8.68a83.83,83.83,0,0,1-9.21-9.35l-6.26-7.45L740,559.78q-4-2.68-8.17-5l-5.63-3.1q-2.91-1.59-5.92-2.95l-7.48-3.38,4.75,11.24,3.08,8.46q.92,2.54,1.6,5.13L726,584.82l5.28,5.28a51.8,51.8,0,0,1,3.71,4.13h0a83.88,83.88,0,0,0,9.32,9.9l4,3.57c.81.73,1.65,1.44,2.51,2.12L763.77,620l-18-7-1-.37a72.58,72.58,0,0,1-11.9-5.34L730.38,606a51.52,51.52,0,0,1-7.26-4.93l-8.32-6.72L705.9,587a61.06,61.06,0,0,1-7.12-6.9l-7.37-8.38a58.35,58.35,0,0,1-3.91-5l-4.65-6.63c-1.18-1.68-2.31-3.4-3.37-5.16l-4-6.54a48.66,48.66,0,0,1-3-5.83l-2.94-6.73,1.3,9.43a70.75,70.75,0,0,0,2.13,10l3.07,10.58,4.72,15.95c.35,1.19.74,2.37,1.16,3.54l3.11,8.49,3.25,2.5.75,4.75.5,3.74,15.74,6.25,10.41,4.55c1,.46,2.09,1,3.11,1.49l1.85.95a56.67,56.67,0,0,0,9.05,3.73l.06,0,2.78,6.75c.48,1.16.93,2.34,1.34,3.53l3.63,10.46,4.84,13.26q.9,2.48,1.62,5l3.78,13.44h0a79.64,79.64,0,0,0,12.65,2l.34,0-6,4.75,1.75,1.5,4.21-1.09a45.67,45.67,0,0,1,7.18-1.24l4.63-.42a47.19,47.19,0,0,1,5.45-.18l1.51,0a59.62,59.62,0,0,1,10.4,1.2l3.35.69,6-9.24-.85-2.36a28.69,28.69,0,0,1-1.54-6.46h0a18.27,18.27,0,0,1,.22-5.81l.1-.49a5.38,5.38,0,0,1,1.5-2.79h0a4.32,4.32,0,0,1,2.58-1.25l2.4-.26a2.08,2.08,0,0,1,1.13.17h0a23.37,23.37,0,0,1,7,4.82L813,659l9-4.9q2-1.1,4.1-2.07l12.86-6a49.74,49.74,0,0,1,4.68-1.89l4-1.38q1.57-.54,3.12-1.17l.49-.2a19,19,0,0,1,7.21-1.42h0a57.82,57.82,0,0,1,8.49,5.75l2.75,2.24,7.34,6.6q2.65,2.4,5.47,4.61l5.43,4.28,7.75,6,2.55,1.79a49,49,0,0,1,8.9,8l1,1.2,2.54.67a17.1,17.1,0,0,1,4.18,1.71h0a5.47,5.47,0,0,1,2.25,2.46l.52,1.16,2.75,2.24h0a76,76,0,0,1,6.87,12.13l.18.4c1,2.14,2,4.23,3.19,6.27l1.25,2.19,10.24,19L949.89,744l9,18,7.25,13.24,4.68,8.73a61.44,61.44,0,0,1,4.24,9.91l1.16,3.56a47,47,0,0,1,1.74,7.21l1.17,7.32,4.78,3.86q1.71,1.38,3.32,2.9l2.89,2.73h0a7.55,7.55,0,0,1,.19,5.07l-.24.75c-.3.95-.64,1.89-1,2.8l-6.42,15.12-3.24,7h0a57.26,57.26,0,0,1-6.63,2.09l-1.62.41,2.76,2.24a19.12,19.12,0,0,1,2.29,2.21h0a23.18,23.18,0,0,1,3.89,6.21l.05.13a12.69,12.69,0,0,1,.76,2.48l.08.38a6.57,6.57,0,0,1-.47,4h0a5.87,5.87,0,0,1-1,1.47l-.7.81a5.61,5.61,0,0,1-1,.91l-.84.56a3.94,3.94,0,0,1-1.83.64L972,877q-1.83.15-3.66.15h-3.66l-13.74,48L939.14,960.8l-15.23,45.72-6.39,17.78a169.94,169.94,0,0,1-12.63,27.28l-2.92,5.08q-2,3.57-3.89,7.26l-3.87,7.74q-2.54,5.07-5.33,10l-13.94,24.56,1.75,24.74,3,27.23,3.67,25.68q.82,5.79,1.19,11.64l1.88,30.13.5,30.48,6,5.56c3,2.78,5.89,5.7,8.65,8.73h0a137.94,137.94,0,0,1,11.27,14.13l2.43,3.49a29,29,0,0,1,3.44,6.57h0a19.34,19.34,0,0,1,1.2,6.69h0a33.07,33.07,0,0,1-.32,4.56l-1.93,14L913.91,1349l-1.6,9.92a98.89,98.89,0,0,1-3.3,13.9l-2.34,7.41h0a114.14,114.14,0,0,1,.5,15l-.5,15-.5,11,3.42,6.85q4.08,8.14,8.75,15.94l0,.08Q921.9,1450,925,1456l.23.44a154.33,154.33,0,0,1,8.41,19.52l.24.69a148,148,0,0,1,4.9,17.29l1.06,4.84q1,4.61,1.68,9.27l3.58,25.06,2,4.77a231.21,231.21,0,0,1,9,26l2.56,9.1c.63,2.25,1.2,4.52,1.69,6.8l6.26,29,7.49,34.48,7.25,33.47,4.49,26h0a29,29,0,0,1,4.5,4.5h0l.25,6.75L991,1725a90.43,90.43,0,0,1-.22,9.6l-1,12.48q-.4,5.2-1.18,10.38L987,1768.06a210.15,210.15,0,0,1-6.17,27.92l-2.2,7.48-7.5,23.74h0a50.26,50.26,0,0,1-6.46,1h0c-1.32.12-2.65.19-4,.19h-4.27a19.85,19.85,0,0,1-2.44-.15h0a110.66,110.66,0,0,1-13.4-2.54l-.72-.19a60.55,60.55,0,0,1-8.59-2.87h0l-12.72,56-9.29,39.54-14.09,64.63-8.94,43.17H416.85l-2.42-33.46-1.56-23.08q-.3-4.44-.3-8.88v-24.93l-.74-29.56-2.63-22.73c-.35-3.06-.58-6.14-.69-9.22l-.69-20.64c-.05-1.5-.06-3,0-4.5l.3-10.39-8.92,2.72a122.78,122.78,0,0,1-12.81,3.16l-5.22,1-5.79.89a97.57,97.57,0,0,1-12.67,1.1l-8.33.18q-3,.06-5.91,0l-10.4-.36a18.16,18.16,0,0,1-4.79-.83h0a80.8,80.8,0,0,1-14.76-6.32h0l-12.27-3.91-9.4-3.09a100.67,100.67,0,0,1-13.52-5.58l-6.67-3.33q-2.76-1.38-5.43-2.93l-4.22-2.45a86.86,86.86,0,0,1-11.25-7.77l-4.35-3.56c-1-.81-2-1.65-2.9-2.52l-3.61-3.34-1.36-1.36a26.4,26.4,0,0,0-3.48-2.94l-.06,0c-.82-.58-1.63-1.19-2.42-1.82l-.87-.69a4.3,4.3,0,0,1-1.15-1.43h0a8.35,8.35,0,0,1-.88-3.73v-.14a7.61,7.61,0,0,1,.12-1.35l.12-.67a35.43,35.43,0,0,1,3-9.18h0a53.55,53.55,0,0,1,3.58-6.24l1.72-2.58-3.14-2.38a127.76,127.76,0,0,1-14.34-12.67h0a70.25,70.25,0,0,1-11.2-12.11l-1.41-1.93c-.76-1-1.5-2.13-2.2-3.22l-3-4.68-10.41-2.23-6.34-1.19a111.86,111.86,0,0,1-11-2.63l-1.69-.49q-5-1.45-9.77-3.36l-.42-.16a62.89,62.89,0,0,1-8.91-4.38l-.44-.26a5.92,5.92,0,0,0-.62-.3h0a5.45,5.45,0,0,1-3-2.85h0l2.12-6a67.17,67.17,0,0,1,4.32-9.69l4.52-8.34,9.86-16.17,9-13.8q1.42-2.19,3-4.28l8.66-11.67,12.3-16.28q1.46-1.93,3-3.79l13.31-15.8,11-13.65q2.19-2.71,4.58-5.24l8.72-9.23q4.88-5.16,10.18-9.88l12.73-11.34q2.42-2.16,5-4.17L291.92,1544l16.53-12.88c1.87-1.45,3.78-2.86,5.73-4.2l17.53-12.11,15.61-10.23,18.11-10.72c1.31-.78,2.61-1.6,3.88-2.44l8.13-5.43,6.13-9.85,4.51-6.5q1.82-2.61,3.84-5l2-2.43a66.82,66.82,0,0,1,6.56-6.9l2.58-2.37q2.82-2.58,5.88-4.89l7-5.22a118.93,118.93,0,0,1,10-6.75l7.82-4.69,8.51-4.87a90.1,90.1,0,0,1,12-5.72l1.77-.68a111.66,111.66,0,0,1,12.11-3.91l8.92-2.32,2.72-6.53,2.28-5.76a74.57,74.57,0,0,0,3-9.37l1-3.92-3.21,1a9.77,9.77,0,0,1-2.33.43h0c-2.29.13-4.59.2-6.88.2H462.13c-2.89,0-5.79-.11-8.68-.32l-17.71-1.31-14.2-1.42a119,119,0,0,1-15-2.49l-17.08-4-6.34-1.18a99,99,0,0,1-10.59-2.57l-6.48-2-7.24-2.42a119,119,0,0,1-13-5.18l-6.45-3-1.58.2a14.51,14.51,0,0,0-5.23,1.71h0l-1-.23a19.5,19.5,0,0,1-5.25-1.94h0c-.34-.19-.68-.39-1-.59l-2.59-1.64c-1.39-.88-2.75-1.82-4.06-2.83h0a10.3,10.3,0,0,1-2.58-2.92l-1.71-2.92-34.11-14.29q-2.91-1.23-5.75-2.59l-37.72-18.23L206,1304.74l-21-8.34a125.55,125.55,0,0,1-12.58-5.8l-3-1.61q-4.17-2.22-8.19-4.71L148,1276.16l-13.33-9-16.06-10.61-2.11-.63a46,46,0,0,1-6.49-2.5h0a26.45,26.45,0,0,1-3.85-2.24h0a40.65,40.65,0,0,1-5.22-4.4l-.84-.85-1.09-4.08h0a34.73,34.73,0,0,0-4.58-2.91l-.36-.2a4.1,4.1,0,0,1-1.88-2.08l-.53-1.34-4.08-3.81-1.25-1.33a22.6,22.6,0,0,0-7.94-5.4h0c-1.5-.59-3-1.13-4.55-1.61l-2.93-.92v-189.9l3.1-7.09,5.32-14,2-5.66a68.13,68.13,0,0,1,2.84-6.85l2.89-6A73.06,73.06,0,0,1,92,984l2.8-4.24q1.4-2.09,2.91-4.08l6.16-8.05,3.93-8.91c.73-1.65,1.51-3.26,2.35-4.85l1.11-2.11a52.81,52.81,0,0,0,3-6.89h0q.8-2.2,1.41-4.47l2.34-8.52,1.39-5c.85-3,1.84-6,3-9l1.81-4.68q1.35-3.45,2.91-6.8l2.11-4.48a81.51,81.51,0,0,1,4.33-8l2.67-4.33a58,58,0,0,1,3.42-5l6.14-8,7.09-8.27,1.77-4.13,2-4.22a32.18,32.18,0,0,1,1.91-3.57L161.3,852a41.05,41.05,0,0,1,5.25-6.83h0a53.34,53.34,0,0,1,6.29-5.64h0a19.53,19.53,0,0,1,4.89-2.72h0a14.65,14.65,0,0,1,3.38-.83l4.78-.56q2.19-.27,4.41-.36l4.09-.18a31.76,31.76,0,0,1,7.41.55h0a19,19,0,0,1,7.11,3h0l6.21-.89,3.75-.45q1.13-.14,2.25-.18l11-.4h9.58c2.67,0,5.35.12,8,.37l4.09.38a76.58,76.58,0,0,1,9.15,1.4l8.61,1.83,7.61,1.5a35.83,35.83,0,0,1,4.22,1.1h0a87.8,87.8,0,0,1,15.3,6.61l2.72,1.49,21.05-22.56,16-16.16L350,801.33a125.46,125.46,0,0,0,9.57-10.26l8.49-10.17c2.11-2.53,4.31-5,6.57-7.39l9.83-10.38c1.17-1.23,2.37-2.44,3.61-3.6l17.34-16.43,13.47-13.47L424.63,718,432,703.2c.67-1.35,1.39-2.68,2.14-4l8.64-15,7.57-12.29,4.88-7.91,4-3.2,2.76-2.09a48.55,48.55,0,0,1,4.49-3l5.65-3.39q2.32-1.4,4.75-2.61h0a7.24,7.24,0,0,0,2.32-1.83h0A11.36,11.36,0,0,0,481.9,641l0-.62L480,640a5.11,5.11,0,0,1-2.62-1.41h0a1.64,1.64,0,0,1-.46-1.47l.35-1.89.08-.2a60.82,60.82,0,0,0,2.43-7.66l2-7.94,1.72-8.08-3.73-2.6q-3.66-2.55-7.55-4.74L469,602.24l-6.45-4a41.17,41.17,0,0,1-3.79-2.62L457,594.23a46.53,46.53,0,0,1-6.22-5.85l-2.49-2.8,2.58,8.07,1.67,5.73a69.22,69.22,0,0,1,1.74,7.54h0a86.5,86.5,0,0,1,1.15,10.27l.25,4.79h0a37.82,37.82,0,0,1-5,14.42l-.11.18,2.24-5.76a10.54,10.54,0,0,0,.68-2.65h0a34.4,34.4,0,0,0,.11-7.92h0q-.28-2.73-.84-5.42l-.13-.64c-.23-1.1-.5-2.2-.8-3.29l-.82-2.87c-.41-1.46-.88-2.91-1.41-4.33L447.74,599l-2.63-7.4c-.76-2.17-1.6-4.31-2.5-6.43l-5.52-13-4.65-10.54a21,21,0,0,0-1.13-2.22h0a30.57,30.57,0,0,0-7.65-8.72h0a47.66,47.66,0,0,0-4.58-3.15l-8.1-4.91-.15-.13a109.26,109.26,0,0,1-15.29-15.72l-1.05-1.33,4.13,8.76,4.46,10,5.33,13.23L414,570c.88,2,1.68,4,2.42,6.08l3.26,9.1c.41,1.15.79,2.32,1.14,3.5l5,16.61-6-10.16c-.46-.78-1-1.55-1.48-2.29l-3.41-4.81c-1.1-1.55-2.13-3.13-3.11-4.75l-5.06-8.39L403,568.42a89.65,89.65,0,0,1-6.46-14l-.24-.68c-.73-2-1.35-4.07-1.88-6.15L390.71,533l-3.77-17.86-2.62-10.46a64.23,64.23,0,0,1-1.47-8l-1.41-11.91-1.23-12.47q-.31-3.15-.32-6.33v-11.6l.52-28V403.86c0-2.06-.08-4.13-.25-6.19l-1.64-20.61-1.72-16.49L374.23,335l-1.32-17.28q-.23-3-.26-6l-.14-13.15-.17-13.91L367,301l-2.39,6.93a42.59,42.59,0,0,0-1.63,6.18l-.49,2.68a46.33,46.33,0,0,0-.77,6.95l-.22,5.77v15c0,1.2,0,2.4.11,3.6l.34,6.16a59.39,59.39,0,0,0,1.08,8.4l.4,2a51.34,51.34,0,0,0,1.71,6.44l1.08,3.25a63,63,0,0,0,3.08,7.58l3.2,6.62,3.95,8.41-2.83-1.91q-3-2-5.81-4.36l-4.24-3.52-6.19-5.67-8.93-8.76-6.7-6.52,2.75,8.41,2.06,5.7c.57,1.58,1.22,3.14,1.93,4.67l1.85,4a49.75,49.75,0,0,0,4,7l.2.29a29.89,29.89,0,0,0,6.41,6.82h0c.6.47,1.22.91,1.85,1.33l13.13,8.65L368,409.22a42.14,42.14,0,0,1-6.15-3.7l-3.95-2.87-2.34-1.87a51.92,51.92,0,0,1-5.29-4.88l-2.85-3L345,390a26.83,26.83,0,0,1-3.21-4.64h0q-1.74-3.18-3.18-6.49l-.69-1.59c-.52-1.2-1-2.41-1.47-3.64l-1.13-3.06a58.87,58.87,0,0,1-1.88-6.1h0a88.49,88.49,0,0,1-1.76-9l-.39-2.66-2.57-5v1.22a60.74,60.74,0,0,1-.65,8.84l0,.24-1.2,6-.95,4.19a37.5,37.5,0,0,1-2.14,6.53l-.52,1.2a6.35,6.35,0,0,1-.89,1.45h0a28.29,28.29,0,0,1-6.28,5.63h0q-2.44,1.6-5.05,3L306,388.74l-5.67,2.75,2.33-3a65,65,0,0,0,6.43-10.06h0l2.81-4.82c.53-.91,1-1.83,1.5-2.77l1.28-2.56q.93-1.87,1.74-3.81l.35-.85a40.73,40.73,0,0,0,2.53-8.79h0a81,81,0,0,0,1-9.19l.18-3.1c.05-.92.08-1.84.08-2.77v-7l-.53-.46a46.92,46.92,0,0,1-5.05-5.31h0a8.9,8.9,0,0,1-1.05-1.61h0a62.7,62.7,0,0,1-3.64-8.52v0a21.4,21.4,0,0,1-1-4.27h0a84.58,84.58,0,0,1-.74-11.13h0a55.53,55.53,0,0,1,1-10.37h0c.38-1.95.83-3.9,1.37-5.82l.78-2.85c.44-1.56.92-3.1,1.47-4.62l3.13-8.71,4.36-10.41a75.5,75.5,0,0,1,4.18-8.46l5.72-10,4.6-8a69.29,69.29,0,0,1,4.63-7l1.08-1.45c1-1.36,2.12-2.68,3.27-3.93l2.22-2.41-1-1.55h-2.92a16.66,16.66,0,0,1-2.73-.22h0a44.28,44.28,0,0,1-7.43-1.91h0a38.7,38.7,0,0,1-6.23-2.81h0a21.47,21.47,0,0,1-4.54-3.44h0a24.14,24.14,0,0,1-3.85-5h0a58.35,58.35,0,0,1-3-6l-.51-1.16a12.13,12.13,0,0,1-.81-2.63h0a57.78,57.78,0,0,1-.95-10.42h0a55.48,55.48,0,0,1,.36-6.31l.5-4.41h0a72.09,72.09,0,0,1-2.36-7.34l-.56-2.11-.88,7.6a46.52,46.52,0,0,1-1.76,8.34l-.73,2.38q-.93,3-2.14,5.85l-1.58,3.69a27.57,27.57,0,0,1-1.46,2.93h0a46.59,46.59,0,0,1-5.24,7.31h0a33.8,33.8,0,0,1-3.6,3.58h0a67.09,67.09,0,0,1-6.39,4.89l-2.5,1.68c-1.37.93-2.77,1.81-4.2,2.66l-.37.21A68.84,68.84,0,0,1,269,218.21l-1.74.67a9.88,9.88,0,0,1-1.77.49h0A66.2,66.2,0,0,1,252,220.43l-.62,0,4.51-2.79q1.32-.81,2.7-1.56l5-2.69,2.09-1.23a61,61,0,0,0,8.67-6.2h0c1.3-1.12,2.57-2.27,3.79-3.46l2.51-2.43c.88-.85,1.73-1.73,2.56-2.64l3.52-3.85a56.49,56.49,0,0,0,4.54-5.68l2-2.88q1.9-2.72,3.56-5.6l1.14-2a59.08,59.08,0,0,0,3.27-6.63l1.15-2.77,3.78-10,3.6-9.79,2.1-5.18c.32-.78.66-1.56,1-2.32l2.18-4.56a33.27,33.27,0,0,1,2.41-4.22l4.65-6.91,4.12-5.66-3.11-5.58c-.67-1.21-1.31-2.43-1.91-3.67l-.18-.36a34.73,34.73,0,0,1-2.71-7.91h0a17.37,17.37,0,0,1-.37-3.13L318,96.19a28.11,28.11,0,0,1,.43-5.72h0a25.69,25.69,0,0,1,1.75-5.8h0a24.2,24.2,0,0,1,4.62-7h0a42,42,0,0,1,5.59-5l1.7-1.26a27.36,27.36,0,0,1,2.7-1.78l5.83-3.37a33.72,33.72,0,0,1,5.34-2.5l3.82-1.4a45.4,45.4,0,0,1,8.65-2.22h0a55.92,55.92,0,0,1,11.12-.6l1.62.08,4-3.19A26.1,26.1,0,0,1,381,53h0a53.73,53.73,0,0,1,7.31-2.58l.35-.1a34.73,34.73,0,0,1,5.63-1.07l5.76-.63c1.58-.18,3.17-.3,4.76-.37l.76,0a39.58,39.58,0,0,1,8.76.59h0a93.92,93.92,0,0,1,10.07,2.41l3.1.92,2.61.92a68.49,68.49,0,0,1,11.78,5.48l1.23.73a17.24,17.24,0,0,1,3.46,2.68h0a43.38,43.38,0,0,1,6.51,8.33l.35.59,2.4-6.87L457,60.3a13.17,13.17,0,0,1,1-2.25h0a21.51,21.51,0,0,1,3.13-4.33l1.29-1.4c.9-1,1.83-1.88,2.79-2.77l2.64-2.42a26.93,26.93,0,0,1,4.95-3.61l4.06-2.29c.77-.43,1.56-.85,2.36-1.23l4.67-2.24a49.1,49.1,0,0,1,4.86-2l3.6-1.26A62.24,62.24,0,0,1,502,32l.74-.13a17.37,17.37,0,0,1,4.14-.23h0a38.23,38.23,0,0,1,10.62,2.27h0a82.52,82.52,0,0,1,10.35,4.49l4.25,2.21-7.38-2.34a28.91,28.91,0,0,0-6-1.23h0a34.86,34.86,0,0,0-4.21-.16l-4.42.12-2.66.18a28.16,28.16,0,0,0-4.58.71l-2.72.66-2.37.59a20.2,20.2,0,0,0-4.67,1.79l-1.87,1a32.07,32.07,0,0,0-3.36,2l-.85.6a41.7,41.7,0,0,0-5,4.14l-5.24,5c-.89.85-1.76,1.74-2.61,2.64l-3.07,3.28a70.37,70.37,0,0,0-5.94,7.28l-3.71,5.24a49.23,49.23,0,0,0-2.69,4.31h0A39.05,39.05,0,0,0,454.79,87l-.7,3.21L456.78,88a58.79,58.79,0,0,1,8.56-6l0,0A95.64,95.64,0,0,1,477.24,76l3.17-1.31q2.37-1,4.8-1.79l10.28-3.48h0a91.5,91.5,0,0,1,16.42-3l1.61-.14,10.16-1.25a5.29,5.29,0,0,0,1.9-.61l9.24-5,.73-.36a63.14,63.14,0,0,1,13.89-4.88l1.87-.43L561,51.46a62,62,0,0,1,6.19-1.18L576.39,49l8.72-1c2.2-.26,4.41-.42,6.62-.51l9.91-.39,12.6-.41c2.13-.07,4.27,0,6.4.05L626,47a80.11,80.11,0,0,1,12,1.47l3.82.76a76.06,76.06,0,0,1,7.89,2l8.13,2.55,13.6,3.7q2.21.6,4.38,1.32l14.83,4.94,14.26,5.5L716,74.07l11.17,5.5,5.74,2.87a77.7,77.7,0,0,1,8.16,4.7l7.57,5,11.85,8.59,11.16,8.25L782.16,117l10.65,8.93,8.76,7.9,10.31,8.76,6.13,5.26c1.52,1.3,3,2.67,4.41,4.08l9.38,9.39,3.7,3.95q3.69,3.94,7.74,7.52l1,.86a45.36,45.36,0,0,0,4.59,3.56h0a25.29,25.29,0,0,0,5.1,2.67h0c1.75.68,3.52,1.3,5.3,1.88l4.84,1.56c1.75.56,3.5,1.07,5.28,1.53l10.56,2.74,7.22,1.68a90.12,90.12,0,0,0,9.35,1.65l4.13.51c1.54.19,3.1.34,4.66.45l4.15.28q3.47.24,7,.18l5.45-.11h7.82q4.38,0,8.73-.42l2.82-.27a24.32,24.32,0,0,0,3.48-.59h0a89.45,89.45,0,0,0,10.45-3.23l1.23-.47,4.67-1.77ZM364.65,71.74l-6.46-.44c-1.33-.08-2.66-.13-4-.13h-3.63a6.66,6.66,0,0,0-2.42.45h0a13.46,13.46,0,0,0-3.4,1.88l-2.63,2c-.35.27-.7.55-1,.85l-3.67,3.29A30.19,30.19,0,0,0,335,82l-1.42,1.56a23.07,23.07,0,0,0-3,4.15l-.88,1.57c-.29.51-.55,1-.79,1.57l-1.16,2.65a18.35,18.35,0,0,0-1.39,5l-.32,2.47c0,.33-.08.67-.1,1l-.36,4.9a19.92,19.92,0,0,0,.19,4.63l.21,1.28.71,5.72,9.16-9.88,9.16-9,8.45-7,4.15-3.15,2.83-8.25a45.57,45.57,0,0,1,2.09-5.13ZM351.12,230.45l-7.57,7.75-7,7.76a67.67,67.67,0,0,0-6.64,8.69l-2.38,3.71q-1.64,2.53-3,5.2L322.75,267a69.93,69.93,0,0,0-3.9,9l-1.6,4.57c-.43,1.22-.81,2.46-1.14,3.71l-1.2,4.52a49,49,0,0,0-1.39,7.87l-.26,3q-.15,1.58-.15,3.15v2.44a5.83,5.83,0,0,0,.13,1.25h0a12.15,12.15,0,0,0,1.73,4.25l1.63,2.5,5.82,8.34,1.27-10a73.69,73.69,0,0,1,2.1-10.4l3.61-12.91,7.37-22.49,7-18.38c.76-2,1.56-3.92,2.42-5.84ZM406.6,478.39,408,498.25l2.38,7.28c.38,1.18.82,2.34,1.31,3.48l1.4,3.27a21.27,21.27,0,0,0,3.81,5.92h0a40.91,40.91,0,0,0,3.68,3.53l10.24,8.58L426,522.78a66.89,66.89,0,0,1-5.61-11l-3-7.6-7.08-17.5Zm80.6,108.19-9.8-11.22.42,1.43A66.08,66.08,0,0,0,482.27,588l3,5.82-.29-5.39ZM329.76,859.39a66.45,66.45,0,0,1,6.41,2.84l5.73,2.92L353.19,871c1,.5,1.92,1,2.85,1.58l5.69,3.36,1.77-7c.43-1.69.94-3.36,1.51-5l3-8.65,4.5-12.86c.76-2.17,1.6-4.32,2.51-6.43l4.76-11-11.16,9.89a57.81,57.81,0,0,1-9.3,6.71l-13.07,7.58-17.9,9.68Zm99.32-72.33-3.81,23.54-6.5,38.12L412,879.67l-4,18.39,8.17,6.64a130,130,0,0,0,10.52,7.7l6.76,4.44a37.92,37.92,0,0,1,4.06,3.07l8.39,7.3,1.32-3.78a59.35,59.35,0,0,1,4.56-10l1.52-2.63-6.53-30.2q-.64-3-1.12-6l-4-25.67-4.71-30.28-2-18.61ZM971,869.38a1.75,1.75,0,0,0,.92-.26h0a2.22,2.22,0,0,0,1-2h0a4.17,4.17,0,0,0-1-2.44l-.19-.22a4.51,4.51,0,0,0-.55-.52l-2.23-1.71-1.55,7.19Zm-113.58-83,5.44,9.14,3.28,5a72.64,72.64,0,0,1,4.9,8.68l3.87,8.12,6,14.19.09.22a95.36,95.36,0,0,0,5.13,10.51l5.27,9.29,4.67-13.8,3.69-9.72-4.53-6a7.26,7.26,0,0,1-1.26-2.68h0a9,9,0,0,1,.27-5.14l2.8-8,3.11-10.49,2.91-1-.19-1.84a6.46,6.46,0,0,0-1.35-3.31L899,786.4l-3-.88a27.6,27.6,0,0,1-3.19-1.16h0a31.72,31.72,0,0,1-6.19-3.62h0a25.66,25.66,0,0,1-3.3-3h0a45,45,0,0,1-3.67-4.38L874.88,767v3.11l2.08,4.45a24.26,24.26,0,0,1,1.11,2.82l1.22,3.75c.43,1.33.8,2.68,1.1,4l.17.75a39.16,39.16,0,0,1,.93,8.49h0c0,.64,0,1.27-.08,1.9l-.28,3.38c0,.22,0,.45-.09.67h0a6.93,6.93,0,0,1-2.63,4.16l-.22.17-4.08-5.44-3.59-6.37a27.48,27.48,0,0,0-1.5-2.35L866.53,787l.68,4.25a5.45,5.45,0,0,1,0,1.21l-.12,1.59a.37.37,0,0,1-.36.33h0a3.31,3.31,0,0,1-2.61-1.26h0A39.1,39.1,0,0,0,858.1,787Zm-15.7-104,9.26-.93,8.68-.64q3.82-.29,7.58-1l2.72-.49-6-3.7-4.76-2.7a37.39,37.39,0,0,0-4.51-2.17l-2.3-.92-6.35,1a34,34,0,0,0-4.36,1l-7.81,2.36ZM803,702.08l.83,5.5a67.58,67.58,0,0,1,.79,10.35v7.37a18.15,18.15,0,0,0,.92,5.71h0l1.16,3.93-2.55.93v2.31l1,.69q2,1.39,4.18,2.59l6,3.29c.45.25.9.52,1.33.79l10,6.3,6.71,3.94-4.43-8.86q-1.12-2.25-2-4.61l-1.44-3.73c-.28-.73-.53-1.46-.75-2.21l-1.14-3.93a32.15,32.15,0,0,1-.93-4.31l0-.19a21.92,21.92,0,0,1-.13-5h0a34,34,0,0,1,.95-5.57l.43-1.67a23.53,23.53,0,0,1,2-5.26l2.37-4.44-7.55-5.47a21,21,0,0,1-3.14-2.81l-.58-.64a33.6,33.6,0,0,1-4.51-6.29l-.43-.76-9.72,6.71Zm-154.46-122,24.09,6.67-22-21.28Zm206-289.35q.69,3.3,1.67,6.54l1.54,5.11a39.14,39.14,0,0,1,1.18,5.12l1.37,8.51c.19,1.23.35,2.46.45,3.7l.23,2.68a62.22,62.22,0,0,1,.17,8.19l-.41,8.85,5.53,4.71c1,.83,1.92,1.71,2.81,2.63l4,4.12-.76-8.37a61.05,61.05,0,0,0-.92-6.43l-1-5.16c-.29-1.48-.63-2.94-1-4.39l-1.5-5.71-2.23-7c-.4-1.27-.84-2.52-1.31-3.77l-2.72-7.21-1-2.73a107.38,107.38,0,0,0-4.89-11.23l-2.74-5.39Z" transform="translate(-35.64 -1.13)"/><path class="cls-5" d="M920.56,160.41a55.37,55.37,0,0,1-6.28,3.75l-4.86,2.5c-.41.22-.84.42-1.27.61l-3.45,1.5A50.43,50.43,0,0,1,893,172.25h0q-2.91.48-5.86.69l-7.45.53a32.28,32.28,0,0,1-7.15-.28l-9.33-1.41a57.24,57.24,0,0,1-7.1-1.56l-8.36-2.41a56.42,56.42,0,0,1-5.66-1.95l-11.46-4.62,10,7.5c.66.49,1.3,1,1.92,1.57l5.2,4.62c.41.37.81.74,1.2,1.13l6.51,6.51a28.32,28.32,0,0,1,2.59,3l3.6,4.79a15,15,0,0,1,1.94,3.5h0A36.62,36.62,0,0,1,866,206l0,1c0,1.29,0,2.58-.07,3.86l-.39,5.79a40.79,40.79,0,0,1-1.07,7l-.6,2.47a35.92,35.92,0,0,1-3.16,8.28l-1.07,2a59.75,59.75,0,0,1-6.65,9.93l-.92,1.12-.53,6.66a21.66,21.66,0,0,1-1.17,5.51h0a58.63,58.63,0,0,1-8.55,15.81h0l2.75-9.24,1-3.68a31.84,31.84,0,0,0,.74-3.18l.65-3.54a35.32,35.32,0,0,0,.56-6.24V246c0-1.18-.05-2.36-.15-3.53l-.64-7.29c-.14-1.63-.36-3.25-.64-4.85l-.71-3.94a63.94,63.94,0,0,0-1.59-6.7l-1-3.48a71.09,71.09,0,0,0-3.65-9.65l-1.69-3.65c-.59-1.27-1.22-2.51-1.9-3.73L831.05,191a47.65,47.65,0,0,0-4.46-6.62L819.86,176l-6.46-7.51a63.35,63.35,0,0,0-6-6.06l-5.55-4.92-11-5.15a59.38,59.38,0,0,1-9.46-5.56L776.14,143l11,22,11.49,26,10.63,21c.74,1.47,1.45,3,2.11,4.48l14.24,32.46,10,24.48,3.85,10a84.13,84.13,0,0,1,4.31,15.43l.76,4.19a84.21,84.21,0,0,1,1.32,14.86v9l9.38,10.2c1.41,1.53,2.75,3.11,4,4.75l13.65,17.41q1.65,2.11,3.14,4.37l4.44,6.79a74.44,74.44,0,0,0,6.82,8.88l9.24,10.31,7.92,8.48a65,65,0,0,1,4.82,5.8l3.47,4.71q1.28,1.74,2.45,3.57l3.33,5.21a61.91,61.91,0,0,1,5.11,9.87l1,2.37a44.47,44.47,0,0,1,1.56,4.51l0,.07a43.26,43.26,0,0,1,1.65,13h0a31.08,31.08,0,0,1-.77,6.15h0a30.7,30.7,0,0,1-4.62,10.54h0a65.62,65.62,0,0,1-4.72,6.06l-4.46,5.1,4-10.48a13,13,0,0,0,.87-5.2h0a43.2,43.2,0,0,0-1.06-8l-.92-4a67.89,67.89,0,0,0-3.09-9.86L912,434.8l-3.17-9a88.18,88.18,0,0,0-7.13-15.29l-5.44-9.19-6.93-11.68a87.76,87.76,0,0,0-5.59-8.29l-3.14-4.12a49.76,49.76,0,0,0-3.92-4.55l-5.15-5.34-17.24-17.73-9.74-10.5-.33,1.09a13.59,13.59,0,0,1-2,4h0a57.66,57.66,0,0,1-10.88,11.35l-3.53,2.81,7.34-9.11a6.41,6.41,0,0,0,1.24-2.54h0a54.5,54.5,0,0,0,1.42-12.33h0L834,330.53c-1.61-1.6-3.28-3.14-5-4.6l-5.13-4.3h0a32.74,32.74,0,0,1-.89,4.92l-1.54,5.89a48.06,48.06,0,0,1-2.06,6.21l-.19.48a38.51,38.51,0,0,1-4.69,8.38l-3.38,4.6,18.49,26.73,14.49,21.48,13.73,19.62c1.34,1.91,2.61,3.87,3.81,5.86l17.44,29,14,22.24,8.74,8.74,9.31,9.09c.95.94,1.94,1.84,2.95,2.71l7.28,6.29a60.18,60.18,0,0,0,8.41,6.06l3.62,2.16a55,55,0,0,0,15.81,6.37h0a20.4,20.4,0,0,0,4.74.55h3.84l-1.7,1.1a14.43,14.43,0,0,1-7.22,2.33h0a7.28,7.28,0,0,1-2.58-.34l-4.87-1.59a41.63,41.63,0,0,1-7.41-3.22l-2.12-1.18a49.47,49.47,0,0,1-6.33-4.18l-2.37-1.84a46.43,46.43,0,0,1-6.62-6.3l-.19-.22a42.6,42.6,0,0,0-6.81-6.34l-7-5.2-9.49-7.25,4.75,6.18a61.37,61.37,0,0,1,4.93,7.5l.89,1.61a40.36,40.36,0,0,1,3.14,7.2l2.16,6.59c.41,1.27.76,2.55,1.06,3.85l1.57,6.89A60.06,60.06,0,0,1,913,535.52l.16,4.25a50.67,50.67,0,0,1-.17,6.4l-.4,4.29a83.37,83.37,0,0,1-2,11.86l-.59,2.46a46.16,46.16,0,0,1-3.63,9.93l-4.86,9.73,1.06-3.75a71.11,71.11,0,0,0,2.31-12.18h0c.25-2.53.38-5.08.38-7.62v-2.13a63.58,63.58,0,0,0-.79-10l-.71-4.51-14.74-21.73L875.32,504l-11.49-15.32q-2-2.67-4.16-5.22l-11.15-13.22q-2.92-3.47-6.17-6.64l-11-10.82L839.59,465l8,11.24,8.49,13.24,4.73,6.84a60.05,60.05,0,0,1,4.47,7.64l2.8,5.69a68.68,68.68,0,0,1,3.07,7.3l3,8.43a63.13,63.13,0,0,1,2,6.76l2.69,11.3,3,12-.29,6.14a47.87,47.87,0,0,1-1.2,8.6h0l.5,9-.08.34a19.57,19.57,0,0,1-6.42,10.65h0l1.62-3.24a14.5,14.5,0,0,0,1.52-5.84h0a15,15,0,0,0-.4-4.27l-.44-1.86a35.07,35.07,0,0,0-1.4-4.47l-.13-.34a60.19,60.19,0,0,0-5-10h0a43.2,43.2,0,0,0-6.6-8.17h0a56.05,56.05,0,0,0-8.55-6.79h0a46,46,0,0,0-8.19-4.22l-7.69-3,5.82,5.65a55.77,55.77,0,0,1,5.82,6.65l10.35,13.93L851.34,555l-6.56-7.18a74.43,74.43,0,0,0-8.5-8l-6.29-5q-2.88-2.31-6-4.37l-22.66-15.18-16.19-11.08q-2.79-1.91-5.4-4.08L768.89,491l5.13,9.15a57.1,57.1,0,0,0,4.16,6.41l5.7,7.67,8.43,11.89a38.6,38.6,0,0,0,2.84,3.54l12,13.3,7.71,7.86a80.21,80.21,0,0,0,12.64,10.46l2,1.36a40.41,40.41,0,0,0,4.87,2.77l8.67,4.17c1.19.58,2.41,1.1,3.64,1.57l6.64,2.54-8.49.5-11,.22c-.82,0-1.63,0-2.44,0l-8.09-.38c-.79,0-1.57-.12-2.35-.23l-1.81-.26a30.71,30.71,0,0,1-7.75-2.17l-2-.84c-.86-.37-1.71-.78-2.53-1.22l-.89-.47a54.52,54.52,0,0,1-9.11-6.15l-1-.88a53.28,53.28,0,0,1-4.2-3.89l-3.49-3.59a44.41,44.41,0,0,1-5-6.14l-2.51-3.78a38.66,38.66,0,0,1-2.33-4l-10.2-20.17L774.39,540l5,16.74,4.72,17.82c.51,2,1,3.9,1.36,5.88l3.16,15.77-3.38-7.69a39.64,39.64,0,0,0-2.57-4.92l-1.42-2.33a26.51,26.51,0,0,0-6.63-7.33h0a29.62,29.62,0,0,0-4.76-3l-.37-.18a55.53,55.53,0,0,1-6.92-4.11l-8.93-6.19,1.05,1.67a98.84,98.84,0,0,1,6.91,13.17l5.78,13.39-7.14-9a75.86,75.86,0,0,0-7.26-7.94l-5.83-5.53-10-8.68a82.32,82.32,0,0,1-9.22-9.36l-6.25-7.45-15.52-10.54q-4-2.7-8.17-5l-5.64-3.09c-1.93-1.06-3.91-2.05-5.92-3L679,515.74,683.7,527l3.08,8.47c.61,1.68,1.15,3.39,1.6,5.13l3.82,14.63,5.28,5.28a50.13,50.13,0,0,1,3.7,4.14h0a83.79,83.79,0,0,0,9.32,9.89l4,3.57c.81.74,1.65,1.45,2.51,2.13l12.95,10.22-18-7-1-.36a72.17,72.17,0,0,1-11.9-5.35l-2.44-1.37a52.77,52.77,0,0,1-7.27-4.93L681,564.71l-8.91-7.33a63.57,63.57,0,0,1-7.12-6.9l-7.37-8.38a58.24,58.24,0,0,1-3.9-5L649,530.5q-1.77-2.52-3.36-5.15l-4-6.54a50.21,50.21,0,0,1-3-5.83l-2.93-6.73,1.3,9.42a69.48,69.48,0,0,0,2.12,10l3.07,10.58L647,552.18c.35,1.19.74,2.37,1.17,3.53l3.11,8.5,3.24,2.5.75,4.74.5,3.75,15.74,6.24L681.87,586c1.06.46,2.1,1,3.12,1.48l1.84,1a59.41,59.41,0,0,0,9,3.73l.06,0,2.78,6.75c.48,1.16.93,2.34,1.34,3.52l3.63,10.46,4.84,13.26c.6,1.65,1.14,3.33,1.62,5l3.78,13.45h0a78.5,78.5,0,0,0,12.65,2l.34,0-6,4.75,1.75,1.49,4.2-1.08a44.93,44.93,0,0,1,7.18-1.24l4.64-.43a47,47,0,0,1,5.44-.17l1.51,0a58.78,58.78,0,0,1,10.41,1.2l3.34.69,6-9.25-.86-2.35a28.77,28.77,0,0,1-1.54-6.47h0a18.3,18.3,0,0,1,.23-5.81l.09-.48a5.53,5.53,0,0,1,1.5-2.8h0a4.33,4.33,0,0,1,2.59-1.24l2.39-.27a2.23,2.23,0,0,1,1.14.18h0a23.3,23.3,0,0,1,7,4.81l1.19,1.19,9-4.89c1.35-.74,2.71-1.43,4.11-2.07l12.86-6q2.28-1.05,4.67-1.88l4-1.39c1.05-.36,2.09-.75,3.11-1.17l.49-.2a19.18,19.18,0,0,1,7.21-1.42h0a58.33,58.33,0,0,1,8.49,5.75l2.76,2.25,7.33,6.6c1.77,1.59,3.6,3.13,5.47,4.61l5.43,4.28,7.75,6,2.56,1.79a49.39,49.39,0,0,1,8.89,8l1,1.2,2.54.67a17.31,17.31,0,0,1,4.18,1.7h0a5.44,5.44,0,0,1,2.25,2.47l.52,1.15,2.75,2.25h0a75.09,75.09,0,0,1,6.87,12.13l.18.4c1,2.14,2,4.23,3.19,6.27l1.25,2.19,10.25,19L916,714.35l9,18,7.25,13.24,4.69,8.73a60.41,60.41,0,0,1,4.23,9.9l1.17,3.57a46.91,46.91,0,0,1,1.74,7.2l1.16,7.32,4.78,3.86q1.71,1.4,3.32,2.91l2.89,2.73h0a7.46,7.46,0,0,1,.19,5.06l-.24.76c-.3,1-.64,1.88-1,2.8l-6.41,15.11-3.25,7h0a57.11,57.11,0,0,1-6.62,2.09l-1.62.4,2.75,2.24a18.56,18.56,0,0,1,2.3,2.22h0a22.75,22.75,0,0,1,3.88,6.21l0,.12a12.81,12.81,0,0,1,.77,2.49l.07.37a6.64,6.64,0,0,1-.46,4h0a6.34,6.34,0,0,1-.95,1.48l-.71.8a5.08,5.08,0,0,1-1,.92l-.84.55a3.73,3.73,0,0,1-1.82.64l-3.18.27q-1.82.15-3.66.15h-3.66l-13.74,48L905.3,931.2l-15.24,45.72-6.39,17.78A171.57,171.57,0,0,1,871.05,1022l-2.92,5.08q-2.05,3.57-3.9,7.25l-3.87,7.75q-2.52,5.06-5.32,10l-13.95,24.56,1.75,24.73,3,27.23,3.67,25.68q.82,5.8,1.19,11.65l1.89,30.12.49,30.48,6,5.56q4.5,4.18,8.65,8.73h0A139.41,139.41,0,0,1,879,1254.91l2.43,3.49a29.37,29.37,0,0,1,3.43,6.57h0a19.17,19.17,0,0,1,1.2,6.7h0a33.17,33.17,0,0,1-.31,4.56l-1.94,14-3.74,29.23-1.61,9.91a97.65,97.65,0,0,1-3.3,13.91l-2.34,7.41h0a112.44,112.44,0,0,1,.5,15l-.5,15-.5,11,3.43,6.85q4.07,8.13,8.75,15.94l0,.07q3.53,5.87,6.66,12l.22.44a153.09,153.09,0,0,1,8.41,19.52l.24.69a150,150,0,0,1,4.91,17.29l1.06,4.84c.67,3.06,1.23,6.16,1.67,9.26l3.58,25.07,2,4.76a231.85,231.85,0,0,1,9,26l2.56,9.11q1,3.36,1.69,6.8l6.26,29,7.49,34.47,7.25,33.48,4.5,26h0a29,29,0,0,1,4.49,4.5h0l.25,6.74.35,10.94a87.67,87.67,0,0,1-.22,9.59l-1,12.49c-.27,3.47-.67,6.93-1.18,10.37l-1.6,10.64a206.37,206.37,0,0,1-6.17,27.92l-2.2,7.49-7.49,23.73-.06,0a48.67,48.67,0,0,1-6.45,1h0c-1.33.13-2.65.19-4,.19h-4.28a20,20,0,0,1-2.44-.15h0a107.26,107.26,0,0,1-13.4-2.54L906,1796a63.19,63.19,0,0,1-8.59-2.87h0l-12.72,56-9.28,39.53-14.1,64.63-8.94,43.17H383L380.59,1963,379,1939.93q-.3-4.42-.3-8.88v-24.92l-.75-29.56-2.62-22.73c-.36-3.07-.59-6.14-.69-9.23L374,1824c-.05-1.5-.05-3,0-4.5l.31-10.39-8.93,2.72a122.78,122.78,0,0,1-12.81,3.16l-5.22,1-5.79.89a95.86,95.86,0,0,1-12.66,1.11l-8.34.17q-3,.06-5.91,0l-10.39-.37a17.83,17.83,0,0,1-4.8-.82h0a80.15,80.15,0,0,1-14.76-6.33h0l-12.27-3.9-9.4-3.1a101.26,101.26,0,0,1-13.51-5.57l-6.68-3.34c-1.84-.92-3.64-1.89-5.42-2.92l-4.23-2.45a85.19,85.19,0,0,1-11.24-7.78l-4.36-3.56c-1-.81-2-1.65-2.9-2.52l-3.61-3.34-1.35-1.36a27.91,27.91,0,0,0-3.49-2.93l0,0c-.83-.58-1.64-1.19-2.42-1.82l-.87-.7a4.14,4.14,0,0,1-1.16-1.43h0a8.32,8.32,0,0,1-.88-3.73v-.14a7.7,7.7,0,0,1,.12-1.35l.12-.66a35.18,35.18,0,0,1,3-9.18h0a55,55,0,0,1,3.58-6.24l1.72-2.58-3.14-2.38a126.87,126.87,0,0,1-14.33-12.68h0a70,70,0,0,1-11.21-12.11l-1.4-1.93c-.77-1-1.5-2.12-2.21-3.21l-3-4.68-10.41-2.24-6.34-1.18q-5.55-1.05-11-2.63l-1.69-.5q-5-1.44-9.77-3.35l-.42-.17a62.84,62.84,0,0,1-8.91-4.37l-.44-.26a3.83,3.83,0,0,0-.61-.3h0a5.5,5.5,0,0,1-3-2.85h0l2.12-6a68.67,68.67,0,0,1,4.32-9.68l4.53-8.34,9.85-16.18,9-13.79q1.42-2.19,3-4.29l8.67-11.66,12.29-16.28c1-1.29,2-2.56,3-3.79l13.31-15.81,11-13.65c1.45-1.8,3-3.55,4.57-5.24l8.72-9.22q4.88-5.16,10.18-9.89L238.74,1530c1.61-1.43,3.27-2.82,5-4.16l14.38-11.38,16.53-12.87q2.81-2.19,5.72-4.21l17.53-12.1L313.48,1475l18.1-10.73q2-1.17,3.88-2.44l8.13-5.42,6.14-9.85,4.51-6.5q1.8-2.61,3.83-5.06l2-2.42a70.23,70.23,0,0,1,6.56-6.91l2.58-2.36a76.33,76.33,0,0,1,5.89-4.89l7-5.22a116.58,116.58,0,0,1,10-6.75l7.82-4.69,8.52-4.87a88.14,88.14,0,0,1,12-5.72l1.77-.69a112.31,112.31,0,0,1,12.11-3.9l8.92-2.32,2.73-6.54,2.27-5.75a75.63,75.63,0,0,0,3-9.37l1-3.93-3.22,1a9.75,9.75,0,0,1-2.33.42h0c-2.29.14-4.58.2-6.88.2H428.28c-2.89,0-5.79-.1-8.67-.32l-17.72-1.31-14.19-1.42a115.3,115.3,0,0,1-15-2.49l-17.08-4-6.34-1.18a101.48,101.48,0,0,1-10.59-2.58l-6.48-2-7.24-2.41a123,123,0,0,1-13-5.18l-6.46-3-1.57.19a14.38,14.38,0,0,0-5.23,1.71h0l-1.05-.22a19.44,19.44,0,0,1-5.25-2h0c-.34-.18-.67-.38-1-.59l-2.58-1.63q-2.1-1.32-4.07-2.84h0a10.32,10.32,0,0,1-2.58-2.92l-1.71-2.91L246.39,1309c-1.94-.81-3.85-1.67-5.75-2.59l-37.71-18.22-30.76-13.07-21-8.33a123.43,123.43,0,0,1-12.58-5.81l-3-1.61q-4.17-2.2-8.2-4.7l-13.12-8.13-13.34-9L84.8,1227l-2.11-.63a45.36,45.36,0,0,1-6.48-2.49h0a25.49,25.49,0,0,1-3.85-2.25h0a40,40,0,0,1-5.23-4.4l-.84-.84-1.09-4.08h0a35.87,35.87,0,0,0-4.58-2.92l-.36-.19a4.1,4.1,0,0,1-1.87-2.09l-.54-1.34-4.08-3.81-1.25-1.32a22.16,22.16,0,0,0-7.94-5.4h0c-1.49-.6-3-1.14-4.54-1.62l-2.94-.91v-189.9l3.1-7.09,5.32-14,2-5.66a70.62,70.62,0,0,1,2.85-6.85l2.88-6a73.86,73.86,0,0,1,4.91-8.66L61,950.2q1.38-2.1,2.9-4.09L70,938.06l3.93-8.9q1.09-2.48,2.35-4.86l1.12-2.1a54.32,54.32,0,0,0,3-6.9h0c.52-1.47,1-3,1.41-4.46l2.33-8.53,1.39-5q1.27-4.57,3-9l1.82-4.68q1.33-3.45,2.91-6.8l2.1-4.49a81.35,81.35,0,0,1,4.33-8l2.67-4.33a58.3,58.3,0,0,1,3.43-5l6.13-7.95,7.09-8.27,1.78-4.14,2-4.22a34.8,34.8,0,0,1,1.91-3.56l2.74-4.47a40.48,40.48,0,0,1,5.25-6.84h0a53.25,53.25,0,0,1,6.28-5.63h0a19.22,19.22,0,0,1,4.89-2.72h0a14.61,14.61,0,0,1,3.39-.83l4.77-.57c1.46-.17,2.94-.29,4.41-.35l4.09-.19a31.28,31.28,0,0,1,7.42.56h0a19.29,19.29,0,0,1,7.11,3h0l6.2-.88,3.75-.46q1.13-.13,2.25-.18l11-.4h9.57c2.68,0,5.35.13,8,.37l4.08.38a81,81,0,0,1,9.16,1.4l8.61,1.84,7.6,1.5a38.6,38.6,0,0,1,4.23,1.09h0a88.47,88.47,0,0,1,15.29,6.61l2.72,1.5,21-22.56,16-16.16,11.6-11.13a127.24,127.24,0,0,0,9.58-10.26l8.49-10.17q3.17-3.79,6.56-7.39l9.84-10.39c1.16-1.23,2.37-2.43,3.6-3.6l17.34-16.43L385.06,700l5.73-11.61,7.4-14.81c.68-1.35,1.39-2.69,2.14-4l8.64-15,7.57-12.29,4.89-7.91,4-3.2,2.75-2.09a50.51,50.51,0,0,1,4.49-3l5.65-3.39c1.55-.93,3.14-1.8,4.75-2.61h0a7.06,7.06,0,0,0,2.32-1.84h0a11.34,11.34,0,0,0,2.62-6.81l0-.61-1.91-.39a5.13,5.13,0,0,1-2.62-1.4h0a1.66,1.66,0,0,1-.46-1.48l.36-1.89.07-.2a60.31,60.31,0,0,0,2.43-7.66l2-7.94,1.72-8.07-3.72-2.6c-2.44-1.7-5-3.28-7.56-4.74l-3.15-1.77-6.45-3.94a41.12,41.12,0,0,1-3.78-2.63l-1.85-1.44a46.45,46.45,0,0,1-6.22-5.84L414.41,556l2.57,8.08,1.67,5.72a69.76,69.76,0,0,1,1.74,7.54h0a88.56,88.56,0,0,1,1.15,10.28l.24,4.79h0a37.61,37.61,0,0,1-5,14.41l-.11.19,2.25-5.76a11.47,11.47,0,0,0,.68-2.65h0a35,35,0,0,0,.1-7.93h0q-.29-2.73-.84-5.42l-.13-.63c-.23-1.11-.49-2.2-.8-3.29l-.81-2.87c-.41-1.47-.89-2.91-1.42-4.33l-1.78-4.74-2.62-7.4c-.77-2.16-1.61-4.31-2.51-6.42l-5.52-13L398.6,532a23.23,23.23,0,0,0-1.14-2.22h0a30.46,30.46,0,0,0-7.65-8.73h0a50.16,50.16,0,0,0-4.58-3.15L377.14,513l-.15-.12a108.81,108.81,0,0,1-15.29-15.73l-1.05-1.32,4.12,8.76,4.46,10,5.33,13.22,5.55,12.64c.88,2,1.69,4,2.42,6.08l3.26,9.09c.41,1.16.8,2.33,1.15,3.5l5,16.62-6-10.17c-.46-.78-.95-1.54-1.48-2.28L381,558.46c-1.09-1.54-2.13-3.13-3.11-4.75l-5.06-8.39-3.72-6.5a89.11,89.11,0,0,1-6.45-14l-.25-.68c-.72-2-1.35-4.08-1.87-6.16l-3.68-14.57-3.78-17.86-2.61-10.45a63,63,0,0,1-1.48-8.05l-1.41-11.9-1.23-12.48q-.32-3.15-.31-6.32v-11.6l.51-28V374.26q0-3.11-.24-6.19l-1.65-20.62L343,331l-2.57-25.59-1.32-17.27q-.22-3-.26-6L338.66,269l-.17-13.91-5.33,16.31-2.39,6.94a42.22,42.22,0,0,0-1.62,6.18l-.5,2.67a47.83,47.83,0,0,0-.77,7l-.21,5.78v15c0,1.2,0,2.4.1,3.6l.35,6.15a59.32,59.32,0,0,0,1.07,8.41l.4,2a55,55,0,0,0,1.71,6.44l1.08,3.25a66.45,66.45,0,0,0,3.08,7.58l3.2,6.61,3.95,8.42-2.82-1.91q-3-2-5.82-4.37l-4.24-3.51-6.18-5.67-8.94-8.76-6.69-6.53,2.74,8.42,2.06,5.7c.58,1.58,1.22,3.14,1.93,4.66l1.86,4a49.85,49.85,0,0,0,4,7l.2.29a30,30,0,0,0,6.4,6.82h0c.6.47,1.22.91,1.85,1.33l13.14,8.64-7.94-3.9a42.11,42.11,0,0,1-6.14-3.71l-4-2.86-2.33-1.87a49,49,0,0,1-5.29-4.89l-2.86-3-2.44-2.83a26.53,26.53,0,0,1-3.21-4.65h0c-1.15-2.11-2.21-4.28-3.18-6.49l-.69-1.58c-.52-1.2-1-2.42-1.46-3.64L301.47,341a58.75,58.75,0,0,1-1.89-6.09h0a89,89,0,0,1-1.76-9l-.38-2.66-2.58-5v1.23a60.84,60.84,0,0,1-.65,8.84l0,.24-1.2,6-1,4.19a37.61,37.61,0,0,1-2.14,6.54l-.52,1.19a5.6,5.6,0,0,1-.89,1.46h0a28.19,28.19,0,0,1-6.27,5.62h0a57,57,0,0,1-5.05,3l-5,2.59-5.67,2.75,2.33-3a64.45,64.45,0,0,0,6.43-10.05h0l2.81-4.82c.53-.91,1-1.84,1.5-2.78l1.28-2.55c.62-1.25,1.21-2.52,1.74-3.81L283,334a40.65,40.65,0,0,0,2.53-8.78h0a86.31,86.31,0,0,0,1-9.2l.17-3.09c.05-.92.08-1.85.08-2.77v-7l-.52-.47a45.34,45.34,0,0,1-5.06-5.31h0a10,10,0,0,1-1-1.6h0a63.19,63.19,0,0,1-3.63-8.52l0-.05a22.47,22.47,0,0,1-1-4.27h0a84.61,84.61,0,0,1-.73-11.14h0a54.59,54.59,0,0,1,1-10.36h0c.37-2,.83-3.9,1.36-5.82l.79-2.86q.64-2.33,1.46-4.61l3.13-8.71L286.85,229a76.36,76.36,0,0,1,4.18-8.46l5.72-10,4.6-8a67.13,67.13,0,0,1,4.63-7l1.09-1.45a49.13,49.13,0,0,1,3.27-3.94l2.21-2.4-1-1.55H308.6a16.67,16.67,0,0,1-2.73-.23h0a44.5,44.5,0,0,1-7.43-1.9h0a38.75,38.75,0,0,1-6.23-2.82h0a20.52,20.52,0,0,1-4.53-3.44h0a23.87,23.87,0,0,1-3.86-5h0a60.46,60.46,0,0,1-3-6l-.51-1.17a11.42,11.42,0,0,1-.8-2.63h0a56.79,56.79,0,0,1-1-10.41h0a55.35,55.35,0,0,1,.36-6.31l.5-4.42h0a75.35,75.35,0,0,1-2.36-7.33l-.56-2.11-.88,7.6a45.66,45.66,0,0,1-1.76,8.34l-.73,2.38a60.9,60.9,0,0,1-2.14,5.84l-1.57,3.7a27.65,27.65,0,0,1-1.47,2.93h0a47.67,47.67,0,0,1-5.23,7.31h0a36.86,36.86,0,0,1-3.6,3.58h0a70.71,70.71,0,0,1-6.4,4.89l-2.5,1.68c-1.37.92-2.77,1.81-4.2,2.65l-.37.22a70.76,70.76,0,0,1-10.52,5.08l-1.74.66a9.68,9.68,0,0,1-1.77.5h0a66.15,66.15,0,0,1-13.4,1h-.63l4.51-2.79q1.33-.83,2.7-1.56l5-2.7,2.09-1.23a60.22,60.22,0,0,0,8.67-6.2h0q1.95-1.67,3.8-3.46l2.5-2.43c.88-.85,1.73-1.73,2.56-2.63L252.9,164a57.73,57.73,0,0,0,4.55-5.68l2-2.88q1.91-2.73,3.56-5.6l1.14-2a58.39,58.39,0,0,0,3.27-6.64l1.15-2.76,3.78-10,3.61-9.79,2.1-5.18c.31-.79.66-1.56,1-2.33l2.18-4.55a33.8,33.8,0,0,1,2.41-4.22l4.65-6.91,4.13-5.67-3.12-5.58c-.67-1.2-1.31-2.43-1.91-3.67l-.18-.36a34.4,34.4,0,0,1-2.71-7.91h0a17.26,17.26,0,0,1-.37-3.13l-.06-2.58a28.74,28.74,0,0,1,.43-5.71h0a25.38,25.38,0,0,1,1.75-5.8h0a24.66,24.66,0,0,1,4.62-7h0a42.06,42.06,0,0,1,5.6-5l1.69-1.26a29.84,29.84,0,0,1,2.7-1.77l5.83-3.38a33.67,33.67,0,0,1,5.34-2.49l3.82-1.4a46.29,46.29,0,0,1,8.66-2.23h0A55,55,0,0,1,335.66,30l1.63.08,4-3.2a26,26,0,0,1,5.81-3.49h0a54.26,54.26,0,0,1,7.31-2.59l.35-.09a36.09,36.09,0,0,1,5.63-1.08l5.76-.63c1.59-.17,3.17-.3,4.76-.37l.76,0a38.41,38.41,0,0,1,8.76.59h0a93.92,93.92,0,0,1,10.07,2.41l3.1.92,2.61.92A67.4,67.4,0,0,1,408,28.88l1.24.73a17.21,17.21,0,0,1,3.45,2.67h0a43.13,43.13,0,0,1,6.51,8.34l.35.58L422,34.33l1.17-3.64a13.12,13.12,0,0,1,1-2.25h0a22.25,22.25,0,0,1,3.13-4.32l1.3-1.4c.89-1,1.82-1.89,2.79-2.77L434,17.53a26.67,26.67,0,0,1,5-3.61l4-2.29c.77-.44,1.56-.85,2.37-1.24L450,8.16a47,47,0,0,1,4.87-2l3.6-1.25a63.29,63.29,0,0,1,9.66-2.54l.74-.13A17.42,17.42,0,0,1,473,2h0a38.72,38.72,0,0,1,10.63,2.26h0A83,83,0,0,1,494,8.76L498.23,11l-7.38-2.34a30.53,30.53,0,0,0-6-1.23h0a32.92,32.92,0,0,0-4.21-.15l-4.42.11-2.66.19a27.41,27.41,0,0,0-4.58.7l-2.72.66-2.36.59a21,21,0,0,0-4.68,1.79l-1.87,1A32.6,32.6,0,0,0,454,14.33l-.86.6a41.78,41.78,0,0,0-5,4.15l-5.23,5c-.9.86-1.77,1.74-2.61,2.65L437.21,30a68,68,0,0,0-5.94,7.29l-3.71,5.24a42.54,42.54,0,0,0-2.69,4.31h0a38.89,38.89,0,0,0-3.93,10.53l-.69,3.21,2.68-2.27a60.94,60.94,0,0,1,8.56-6.05h0a97,97,0,0,1,11.87-5.88l3.17-1.3q2.37-1,4.8-1.8l10.28-3.47h0a89.76,89.76,0,0,1,16.42-2.95l1.62-.14,10.15-1.25a5.5,5.5,0,0,0,1.9-.61l9.25-5,.72-.36a64.06,64.06,0,0,1,13.89-4.89l1.88-.42,9.64-2.35a62,62,0,0,1,6.19-1.18l9.24-1.28,8.73-1q3.3-.37,6.61-.51l9.91-.38,12.6-.41q3.21-.11,6.4,0l5.37.26a81.26,81.26,0,0,1,12,1.46l3.83.77a77.33,77.33,0,0,1,7.89,2L624,24.2l13.59,3.69c1.47.4,2.93.84,4.38,1.33l14.83,4.94L671,39.66l11.17,4.81L693.35,50l5.74,2.87a81.39,81.39,0,0,1,8.16,4.7l7.57,5,11.85,8.59,11.17,8.24,10.47,8.08L759,96.34l8.76,7.9L778,113l6.13,5.25q2.28,2,4.41,4.09l9.38,9.38,3.7,4q3.69,3.94,7.74,7.51l1,.86a46.51,46.51,0,0,0,4.59,3.56h0a25.93,25.93,0,0,0,5.11,2.68h0c1.74.67,3.51,1.3,5.29,1.87l4.85,1.56c1.74.56,3.5,1.08,5.27,1.54L846.05,158l7.22,1.67a89.22,89.22,0,0,0,9.35,1.66l4.12.51c1.55.19,3.1.34,4.66.44l4.16.29q3.47.24,6.94.17l5.46-.1h7.82c2.91,0,5.83-.14,8.73-.42l2.81-.27a23.86,23.86,0,0,0,3.48-.59h0a88.33,88.33,0,0,0,10.45-3.24l1.23-.46,4.67-1.77ZM330.8,42.14l-6.46-.44c-1.32-.09-2.65-.13-4-.13h-3.63a6.91,6.91,0,0,0-2.42.44h0a13.81,13.81,0,0,0-3.4,1.89l-2.63,2c-.35.27-.69.55-1,.84L303.58,50c-.85.76-1.65,1.56-2.41,2.39L299.75,54a22.79,22.79,0,0,0-3,4.16l-.88,1.56c-.28.51-.55,1-.78,1.58l-1.16,2.64a18.09,18.09,0,0,0-1.4,5l-.32,2.46c0,.34-.07.67-.1,1l-.36,4.9a19.94,19.94,0,0,0,.19,4.63l.21,1.27.71,5.73L302,79.07l9.16-9,8.44-7,4.15-3.15,2.83-8.26a49.49,49.49,0,0,1,2.09-5.12Zm-13.53,158.7-7.56,7.76-7,7.75a66.56,66.56,0,0,0-6.64,8.69l-2.39,3.72c-1.08,1.68-2.09,3.42-3,5.19l-1.78,3.43a70.53,70.53,0,0,0-3.9,9L283.4,251c-.43,1.22-.81,2.45-1.14,3.7l-1.19,4.52a47,47,0,0,0-1.39,7.88l-.27,3c-.1,1-.14,2.1-.14,3.15v2.45a6.54,6.54,0,0,0,.12,1.25h0a12.1,12.1,0,0,0,1.73,4.24l1.64,2.51,5.81,8.34,1.27-10.05a74,74,0,0,1,2.1-10.4l3.61-12.91,7.37-22.49,7-18.37q1.13-3,2.41-5.84Zm55.48,247.94,1.38,19.87,2.37,7.28c.38,1.17.82,2.34,1.31,3.47l1.4,3.27a21,21,0,0,0,3.81,5.92h0a37.28,37.28,0,0,0,3.69,3.53l10.23,8.59-4.75-7.53a68.08,68.08,0,0,1-5.61-11l-3-7.6L376.49,457ZM453.36,557l-9.8-11.22.42,1.44a65.54,65.54,0,0,0,4.44,11.21l2.95,5.82-.29-5.4ZM295.91,829.79a64.34,64.34,0,0,1,6.41,2.84l5.74,2.92,11.29,5.86c1,.5,1.91,1,2.85,1.58l5.69,3.36,1.77-7c.43-1.69.93-3.37,1.51-5l3-8.64,4.5-12.87q1.14-3.26,2.51-6.42l4.76-11-11.16,9.88a57.37,57.37,0,0,1-9.3,6.71l-13.07,7.59-17.89,9.67Zm99.33-72.34L391.42,781l-6.5,38.12-6.73,30.94-4,18.39,8.16,6.64a129.5,129.5,0,0,0,10.52,7.71l6.77,4.43a37.89,37.89,0,0,1,4.05,3.08l8.39,7.29,1.33-3.78a58.05,58.05,0,0,1,4.56-10l1.51-2.64L412.93,851c-.44-2-.81-4-1.12-6l-4-25.68-4.71-30.27-2-18.61Zm541.88,82.33a1.71,1.71,0,0,0,.93-.27h0a2.2,2.2,0,0,0,1-2h0a4.11,4.11,0,0,0-1-2.44l-.19-.22a3.88,3.88,0,0,0-.55-.52l-2.22-1.71-1.56,7.19Zm-113.57-83,5.44,9.13,3.27,5a71.74,71.74,0,0,1,4.9,8.67L841,787.7l6,14.18.09.22a93.82,93.82,0,0,0,5.14,10.52l5.27,9.28,4.66-13.8,3.69-9.71-4.53-6a7.14,7.14,0,0,1-1.26-2.67h0a9.13,9.13,0,0,1,.27-5.15l2.8-8,3.11-10.49,2.92-1-.2-1.83a6.44,6.44,0,0,0-1.35-3.32l-2.54-3.2-3-.89a24.86,24.86,0,0,1-3.19-1.16h0a31.31,31.31,0,0,1-6.18-3.61h0a26.52,26.52,0,0,1-3.31-2.95h0a45,45,0,0,1-3.66-4.39L841,737.36v3.11l2.07,4.46a25.45,25.45,0,0,1,1.12,2.82l1.21,3.74c.43,1.34.8,2.69,1.11,4.06l.16.74a39.18,39.18,0,0,1,.93,8.5h0c0,.63,0,1.26-.07,1.89l-.29,3.38c0,.23,0,.45-.09.67h0a6.88,6.88,0,0,1-2.63,4.17l-.22.17-4.08-5.45-3.59-6.36c-.46-.81-1-1.59-1.49-2.35l-2.5-3.53.68,4.26a4.89,4.89,0,0,1,0,1.21l-.12,1.58a.37.37,0,0,1-.36.34h0a3.32,3.32,0,0,1-2.61-1.27h0a39.1,39.1,0,0,0-6.07-6.13Zm-15.71-104,9.26-.93,8.69-.64a74.4,74.4,0,0,0,7.58-1l2.71-.48-6-3.71-4.77-2.7a37.92,37.92,0,0,0-4.5-2.16l-2.31-.92-6.35,1a32.79,32.79,0,0,0-4.36,1L800,644.7Zm-38.65,19.67L770,678a68.82,68.82,0,0,1,.78,10.34v7.38a17.82,17.82,0,0,0,.93,5.7h0l1.15,3.94-2.54.92v2.32l1,.68a46.11,46.11,0,0,0,4.18,2.59l6,3.3c.46.25.9.51,1.34.79l10,6.3,6.71,3.93-4.42-8.85q-1.14-2.27-2.05-4.61L791.6,709q-.42-1.1-.75-2.22l-1.14-3.93a31.49,31.49,0,0,1-.93-4.31l0-.19a21.28,21.28,0,0,1-.14-5h0a34,34,0,0,1,1-5.57l.44-1.68a24.19,24.19,0,0,1,2-5.26l2.37-4.43-7.54-5.47a20.55,20.55,0,0,1-3.15-2.82l-.58-.63a33.8,33.8,0,0,1-4.51-6.3l-.42-.76-9.72,6.72Zm-154.46-122,24.09,6.66-22-21.27Zm206-289.35q.69,3.3,1.67,6.53l1.54,5.12a38.41,38.41,0,0,1,1.18,5.12l1.37,8.5c.2,1.23.35,2.47.46,3.71l.23,2.68a62.18,62.18,0,0,1,.16,8.19l-.41,8.85,5.53,4.71c1,.83,1.92,1.7,2.81,2.62l4,4.13-.75-8.37a63.38,63.38,0,0,0-.92-6.43l-1-5.17c-.29-1.47-.63-2.93-1-4.39l-1.51-5.71-2.23-7c-.4-1.26-.83-2.52-1.3-3.76l-2.72-7.22-1-2.72A103.57,103.57,0,0,0,822,259.3l-2.74-5.4Z" transform="translate(-35.64 -1.13)"/><path class="cls-6" d="M920.6,161.07a55.37,55.37,0,0,1-6.28,3.75l-4.86,2.5c-.42.22-.84.42-1.27.61l-3.45,1.5A50.43,50.43,0,0,1,893,172.91h0c-1.94.32-3.9.55-5.86.69l-7.45.53a32.28,32.28,0,0,1-7.15-.28l-9.33-1.41a57.24,57.24,0,0,1-7.1-1.56l-8.36-2.41a56.42,56.42,0,0,1-5.66-1.95l-11.46-4.62,10,7.5c.66.49,1.3,1,1.92,1.57l5.2,4.62c.41.37.81.74,1.2,1.13l6.51,6.51a28.32,28.32,0,0,1,2.59,3l3.6,4.79a15,15,0,0,1,1.94,3.5h0A36.62,36.62,0,0,1,866,206.66l0,1c0,1.29,0,2.58-.07,3.86l-.39,5.79a40.79,40.79,0,0,1-1.07,7l-.6,2.47a35.5,35.5,0,0,1-3.17,8.28l-1.06,2a59.75,59.75,0,0,1-6.65,9.93l-.93,1.12-.52,6.66a21.26,21.26,0,0,1-1.18,5.51h0a58.6,58.6,0,0,1-8.54,15.81h0l2.75-9.24,1-3.68a31.84,31.84,0,0,0,.74-3.18l.64-3.54a34.41,34.41,0,0,0,.57-6.24v-3.58c0-1.18,0-2.36-.16-3.53l-.63-7.29c-.14-1.63-.36-3.25-.64-4.85l-.71-3.94a63.94,63.94,0,0,0-1.59-6.7l-1-3.48a71.09,71.09,0,0,0-3.65-9.65l-1.69-3.65c-.59-1.27-1.22-2.51-1.9-3.73l-4.53-8.16a47.65,47.65,0,0,0-4.46-6.62l-6.73-8.37-6.46-7.51a63.35,63.35,0,0,0-6-6.06l-5.55-4.92-11-5.15a59.38,59.38,0,0,1-9.46-5.56l-5.27-3.78,11,22,11.49,26,10.63,21c.74,1.47,1.45,3,2.11,4.48l14.24,32.46,10,24.48,3.84,10a83.38,83.38,0,0,1,4.32,15.43l.76,4.19a84.21,84.21,0,0,1,1.32,14.86v9l9.38,10.2c1.41,1.53,2.75,3.11,4,4.75L873,359.89q1.65,2.12,3.14,4.37l4.44,6.79a73.41,73.41,0,0,0,6.82,8.88l9.24,10.31,7.92,8.48a66.75,66.75,0,0,1,4.82,5.8l3.46,4.71q1.29,1.74,2.46,3.57l3.32,5.21a62,62,0,0,1,5.12,9.87l1,2.37a44.47,44.47,0,0,1,1.56,4.51l0,.07a43.26,43.26,0,0,1,1.65,13h0a31.08,31.08,0,0,1-.77,6.15h0a30.7,30.7,0,0,1-4.62,10.54h0a67.39,67.39,0,0,1-4.72,6.06l-4.46,5.1,4-10.48a13.21,13.21,0,0,0,.87-5.2h0a43.2,43.2,0,0,0-1.06-8l-.92-4a67.89,67.89,0,0,0-3.09-9.86l-1.08-2.68-3.17-9a88.18,88.18,0,0,0-7.13-15.29L896.34,402l-6.93-11.68a87.76,87.76,0,0,0-5.59-8.29l-3.14-4.12a49.76,49.76,0,0,0-3.92-4.55L871.61,368l-17.24-17.73-9.74-10.5-.33,1.09a13.59,13.59,0,0,1-2,4h0a57.94,57.94,0,0,1-10.88,11.35L827.89,359l7.34-9.11a6.41,6.41,0,0,0,1.24-2.54h0A54.49,54.49,0,0,0,837.88,335h0l-3.83-3.84c-1.61-1.6-3.28-3.14-5-4.6l-5.14-4.3h0a31.5,31.5,0,0,1-.88,4.92l-1.54,5.89a49.64,49.64,0,0,1-2.06,6.21l-.19.48a38.51,38.51,0,0,1-4.69,8.38l-3.38,4.6,18.49,26.73L844.13,401l13.73,19.62c1.34,1.91,2.61,3.87,3.81,5.86l17.44,29,14,22.24,8.74,8.74,9.31,9.09c1,.94,1.94,1.84,3,2.71l7.28,6.29a60.18,60.18,0,0,0,8.41,6.06l3.61,2.16a55.17,55.17,0,0,0,15.82,6.37h0a20.4,20.4,0,0,0,4.74.55h3.84l-1.7,1.1a14.43,14.43,0,0,1-7.22,2.33h0a7.28,7.28,0,0,1-2.58-.34l-4.87-1.59a42,42,0,0,1-7.42-3.22l-2.11-1.18a49.47,49.47,0,0,1-6.33-4.18l-2.37-1.84a46.43,46.43,0,0,1-6.62-6.3l-.19-.22a42.15,42.15,0,0,0-6.81-6.34l-7-5.2-9.49-7.25,4.75,6.18a61.37,61.37,0,0,1,4.93,7.5l.89,1.61a40.36,40.36,0,0,1,3.14,7.2L909,514.5c.41,1.27.76,2.55,1.06,3.85l1.57,6.89a60.06,60.06,0,0,1,1.45,10.94l.16,4.25a50.46,50.46,0,0,1-.17,6.39l-.4,4.3a83.37,83.37,0,0,1-2,11.86l-.59,2.46a46.16,46.16,0,0,1-3.63,9.93l-4.86,9.73,1.06-3.75A71.11,71.11,0,0,0,905,569.17h0c.25-2.53.38-5.08.38-7.62v-2.13a64.79,64.79,0,0,0-.79-10l-.71-4.51L889.1,523.15l-13.74-18.49-11.49-15.32q-2-2.67-4.16-5.22L848.56,470.9q-2.92-3.47-6.17-6.64l-11-10.82,8.24,12.25,8,11.24,8.49,13.24,4.73,6.84a60.05,60.05,0,0,1,4.47,7.64l2.8,5.69a68.68,68.68,0,0,1,3.07,7.3l3,8.43a65.52,65.52,0,0,1,2,6.76l2.69,11.3,3,12-.29,6.14a47.87,47.87,0,0,1-1.2,8.6h0l.49,9-.07.34a19.57,19.57,0,0,1-6.42,10.65h0l1.62-3.24a14.5,14.5,0,0,0,1.52-5.84h0a15,15,0,0,0-.4-4.27l-.44-1.86a35.07,35.07,0,0,0-1.4-4.47l-.13-.34a60.19,60.19,0,0,0-5-10h0a43.2,43.2,0,0,0-6.6-8.17h0A56.05,56.05,0,0,0,855,545.9h0a46,46,0,0,0-8.19-4.22l-7.69-3,5.82,5.65a55.77,55.77,0,0,1,5.82,6.65l10.35,13.93-9.74-9.25-6.56-7.18a74.43,74.43,0,0,0-8.5-8l-6.29-5q-2.88-2.31-6-4.37L801.41,515.9l-16.19-11.08c-1.86-1.27-3.67-2.63-5.4-4.08l-10.89-9.07,5.13,9.15a58.46,58.46,0,0,0,4.15,6.41l5.71,7.67,8.43,11.89a38.6,38.6,0,0,0,2.84,3.54l12,13.3,7.71,7.86A80.21,80.21,0,0,0,827.51,562l2,1.36a39.65,39.65,0,0,0,4.87,2.77l8.67,4.17c1.19.58,2.41,1.1,3.64,1.57l6.64,2.54-8.49.5-11,.22c-.82,0-1.63,0-2.44,0l-8.09-.38c-.79,0-1.57-.12-2.35-.23l-1.81-.26a30.71,30.71,0,0,1-7.75-2.17l-2-.84c-.86-.37-1.71-.78-2.53-1.22l-.89-.47a55,55,0,0,1-9.12-6.15l-1-.88a53.28,53.28,0,0,1-4.2-3.89L788.18,555a44.41,44.41,0,0,1-5-6.14l-2.51-3.78a38.66,38.66,0,0,1-2.33-4l-10.2-20.17,6.25,19.73,5,16.74,4.72,17.82c.51,1.95,1,3.9,1.36,5.88l3.16,15.77-3.38-7.69a39.64,39.64,0,0,0-2.57-4.92l-1.42-2.33a26.51,26.51,0,0,0-6.63-7.33h0a29.62,29.62,0,0,0-4.76-3l-.37-.18a56.78,56.78,0,0,1-6.92-4.11l-8.93-6.19,1,1.67A98.84,98.84,0,0,1,761.65,576l5.78,13.39-7.14-9A75.86,75.86,0,0,0,753,572.4l-5.83-5.53-10-8.68a83.08,83.08,0,0,1-9.21-9.36l-6.25-7.45L706.2,530.84q-4-2.7-8.17-5l-5.64-3.09c-1.93-1.06-3.91-2-5.92-3L679,516.4l4.74,11.24,3.08,8.47c.61,1.68,1.15,3.39,1.6,5.13l3.82,14.63,5.28,5.28a50.13,50.13,0,0,1,3.7,4.14h0a83.79,83.79,0,0,0,9.32,9.89l4,3.57c.81.74,1.65,1.45,2.51,2.13l13,10.22-18-7-1.05-.36a72.17,72.17,0,0,1-11.9-5.35L696.58,577a52.77,52.77,0,0,1-7.27-4.93L681,565.37l-8.9-7.33a63.57,63.57,0,0,1-7.12-6.9l-7.37-8.38a58.24,58.24,0,0,1-3.9-5L649,531.16q-1.77-2.52-3.36-5.15l-4-6.54a50.21,50.21,0,0,1-3-5.83l-2.93-6.73,1.3,9.42a69.48,69.48,0,0,0,2.12,10l3.07,10.58,4.72,16c.35,1.19.74,2.37,1.17,3.53l3.11,8.5,3.24,2.5.75,4.74.5,3.75,15.74,6.24,10.41,4.56c1.06.46,2.09,1,3.12,1.48l1.84,1a59,59,0,0,0,9,3.73l.06,0,2.78,6.75c.48,1.16.93,2.34,1.34,3.52l3.63,10.46,4.84,13.26c.6,1.65,1.14,3.33,1.62,5L714,645.31h0a78.5,78.5,0,0,0,12.65,2l.34,0-6,4.75,1.75,1.49,4.2-1.08a44.93,44.93,0,0,1,7.18-1.24l4.63-.43a47.19,47.19,0,0,1,5.45-.17l1.51,0a58.56,58.56,0,0,1,10.4,1.2l3.35.69,6-9.25-.86-2.35a28.77,28.77,0,0,1-1.54-6.47h0a18.3,18.3,0,0,1,.23-5.81l.09-.48a5.45,5.45,0,0,1,1.5-2.8h0a4.33,4.33,0,0,1,2.59-1.24l2.39-.27a2.23,2.23,0,0,1,1.14.18h0a23.3,23.3,0,0,1,7,4.81l1.19,1.19,9-4.89q2-1.11,4.1-2.07l12.87-6q2.28-1,4.67-1.88l4-1.39c1-.36,2.08-.75,3.11-1.17l.49-.2a19.18,19.18,0,0,1,7.21-1.42h0a58.33,58.33,0,0,1,8.49,5.75l2.76,2.25,7.33,6.6c1.77,1.59,3.6,3.13,5.47,4.61l5.43,4.28,7.75,6,2.55,1.79a49.45,49.45,0,0,1,8.9,8l1,1.2,2.54.67a17.31,17.31,0,0,1,4.18,1.7h0a5.44,5.44,0,0,1,2.25,2.47l.52,1.15,2.75,2.25h0a75.09,75.09,0,0,1,6.87,12.13l.18.4c1,2.14,2,4.23,3.19,6.27l1.25,2.19,10.25,19L916.08,715l9,18,7.25,13.24L937,755a60.07,60.07,0,0,1,4.24,9.91l1.17,3.57a45.74,45.74,0,0,1,1.73,7.2l1.17,7.32,4.78,3.86q1.71,1.39,3.32,2.91l2.89,2.73h0a7.52,7.52,0,0,1,.19,5.06l-.24.76c-.3,1-.64,1.88-1,2.8l-6.41,15.11-3.25,7h0a57.11,57.11,0,0,1-6.62,2.09l-1.62.4,2.75,2.24a18.56,18.56,0,0,1,2.3,2.22h0a22.75,22.75,0,0,1,3.88,6.21l0,.12a13.54,13.54,0,0,1,.77,2.49l.07.37a6.64,6.64,0,0,1-.46,4h0a6.34,6.34,0,0,1-.95,1.48l-.71.8a5.67,5.67,0,0,1-1,.92l-.84.55a3.73,3.73,0,0,1-1.83.64l-3.17.27q-1.83.15-3.66.15h-3.66l-13.74,48-11.74,35.73L890.1,977.58l-6.39,17.78a171.57,171.57,0,0,1-12.62,27.28l-2.92,5.08q-2.05,3.57-3.9,7.25l-3.87,7.75q-2.53,5.05-5.32,10l-14,24.56,1.75,24.73,3,27.23,3.67,25.68q.83,5.8,1.19,11.65l1.88,30.12.5,30.48,6,5.56q4.5,4.18,8.65,8.73h0A139.41,139.41,0,0,1,879,1255.57l2.43,3.49a29.37,29.37,0,0,1,3.43,6.57h0a19.4,19.4,0,0,1,1.2,6.7h0a33.17,33.17,0,0,1-.31,4.56l-1.94,14-3.74,29.23L878.5,1330a97.65,97.65,0,0,1-3.3,13.91l-2.34,7.41h0a112.44,112.44,0,0,1,.5,15l-.5,15-.5,11,3.43,6.85q4.07,8.13,8.75,15.94l0,.07q3.52,5.86,6.66,11.95l.22.44a153.09,153.09,0,0,1,8.41,19.52l.24.69A150,150,0,0,1,905,1465l1.06,4.84c.67,3.06,1.23,6.16,1.67,9.26l3.58,25.07,2,4.76a233.88,233.88,0,0,1,9,26l2.56,9.11q1,3.36,1.69,6.8l6.26,29.05,7.49,34.47,7.25,33.48,4.49,26h0a28.58,28.58,0,0,1,4.5,4.5h0l.25,6.74.35,10.94a87.67,87.67,0,0,1-.22,9.59l-1,12.49c-.27,3.47-.67,6.93-1.18,10.37l-1.6,10.64A207.9,207.9,0,0,1,947,1767l-2.2,7.49-7.49,23.73-.06,0a48.67,48.67,0,0,1-6.45,1h0c-1.33.13-2.65.19-4,.19h-4.28a19.85,19.85,0,0,1-2.44-.15h0a107.26,107.26,0,0,1-13.4-2.54l-.72-.18a63.19,63.19,0,0,1-8.59-2.87h0l-12.72,56-9.28,39.53L861.3,1954l-8.94,43.17H383l-2.41-33.46-1.56-23.08q-.3-4.42-.3-8.88v-24.92l-.75-29.56-2.63-22.73c-.35-3.07-.58-6.14-.68-9.23l-.7-20.63c-.05-1.5-.05-3,0-4.5l.3-10.39-8.92,2.72a122.78,122.78,0,0,1-12.81,3.16l-5.22,1-5.79.89a95.86,95.86,0,0,1-12.66,1.11l-8.34.17q-3,.06-5.91,0l-10.4-.37a17.82,17.82,0,0,1-4.79-.82h0a80.15,80.15,0,0,1-14.76-6.33h0l-12.27-3.9-9.4-3.1a101.94,101.94,0,0,1-13.52-5.57l-6.67-3.34q-2.76-1.38-5.42-2.92l-4.23-2.45a85.19,85.19,0,0,1-11.24-7.78l-4.36-3.56c-1-.81-2-1.65-2.9-2.52l-3.61-3.34-1.35-1.36a27.91,27.91,0,0,0-3.49-2.93l-.05,0c-.83-.58-1.64-1.19-2.42-1.82l-.87-.7a4.14,4.14,0,0,1-1.16-1.43h0a8.32,8.32,0,0,1-.88-3.73v-.14a7.7,7.7,0,0,1,.12-1.35l.12-.66a35.18,35.18,0,0,1,3-9.18h0a53.55,53.55,0,0,1,3.58-6.24l1.72-2.58-3.14-2.38a126.87,126.87,0,0,1-14.33-12.68h0a69.59,69.59,0,0,1-11.21-12.11l-1.4-1.93c-.77-1-1.5-2.12-2.21-3.21l-3-4.68-10.41-2.24-6.34-1.18q-5.55-1-11-2.63l-1.69-.5q-5-1.44-9.77-3.35l-.42-.17a62.84,62.84,0,0,1-8.91-4.37l-.44-.26a3.83,3.83,0,0,0-.61-.3h0a5.47,5.47,0,0,1-3-2.85h0l2.12-6a68.67,68.67,0,0,1,4.32-9.68l4.53-8.34,9.85-16.18,9-13.79q1.43-2.19,3-4.29l8.67-11.66,12.29-16.28c1-1.29,2-2.56,3-3.79L191.56,1580l11-13.65c1.45-1.8,3-3.55,4.57-5.24l8.72-9.22q4.88-5.16,10.18-9.89l12.73-11.34c1.61-1.43,3.27-2.82,5-4.16l14.38-11.38,16.53-12.87q2.81-2.19,5.72-4.21l17.53-12.1,15.62-10.23,18.1-10.73q2-1.17,3.88-2.44l8.13-5.42,6.14-9.85,4.51-6.5q1.8-2.61,3.83-5.06l2-2.42a70.23,70.23,0,0,1,6.56-6.91l2.58-2.36a76.33,76.33,0,0,1,5.89-4.89l7-5.22a116.58,116.58,0,0,1,10-6.75l7.82-4.69,8.52-4.87a88.14,88.14,0,0,1,12-5.72l1.77-.69a112.31,112.31,0,0,1,12.11-3.9l8.92-2.32,2.73-6.54,2.27-5.75a75.63,75.63,0,0,0,3-9.37l1-3.93-3.22,1a9.75,9.75,0,0,1-2.33.42h0c-2.29.14-4.58.2-6.88.2H428.32c-2.89,0-5.79-.1-8.67-.32l-17.72-1.31-14.19-1.42a115.3,115.3,0,0,1-15-2.49l-17.08-4-6.34-1.18a101.48,101.48,0,0,1-10.59-2.58l-6.48-2-7.24-2.41a124,124,0,0,1-13-5.18l-6.45-3-1.57.19a14.49,14.49,0,0,0-5.24,1.71h0l-1-.22a19.44,19.44,0,0,1-5.25-2h0c-.34-.18-.67-.38-1-.59l-2.59-1.63c-1.39-.88-2.75-1.83-4.06-2.84h0a10.17,10.17,0,0,1-2.58-2.92l-1.71-2.91-34.11-14.3q-2.91-1.22-5.75-2.59L203,1288.86l-30.76-13.07-21-8.33a123.43,123.43,0,0,1-12.58-5.81l-3-1.61q-4.19-2.2-8.2-4.7l-13.13-8.13-13.33-9-16.06-10.62-2.11-.63a45.36,45.36,0,0,1-6.48-2.49h0a25.49,25.49,0,0,1-3.85-2.25h0a40,40,0,0,1-5.23-4.4l-.84-.84-1.09-4.08h0a35.87,35.87,0,0,0-4.58-2.92l-.36-.19a4.1,4.1,0,0,1-1.87-2.09l-.54-1.34-4.08-3.81-1.25-1.32a22.16,22.16,0,0,0-7.94-5.4h0c-1.49-.6-3-1.14-4.54-1.62l-2.94-.91v-189.9l3.1-7.09,5.32-14,2-5.66a70.62,70.62,0,0,1,2.85-6.85l2.88-6a73.86,73.86,0,0,1,4.91-8.66L61,950.86q1.38-2.1,2.9-4.09l6.16-8,3.93-8.9q1.09-2.48,2.35-4.86l1.12-2.1a54.32,54.32,0,0,0,3-6.9h0c.52-1.47,1-3,1.41-4.46L84.26,903l1.39-5c.85-3.05,1.84-6.05,3-9l1.82-4.68q1.33-3.45,2.91-6.8l2.1-4.49a81.35,81.35,0,0,1,4.33-8l2.67-4.33a58.3,58.3,0,0,1,3.43-5l6.13-7.95,7.09-8.27,1.77-4.14,2-4.22a34.8,34.8,0,0,1,1.91-3.56l2.74-4.47a40.48,40.48,0,0,1,5.25-6.84h0A53.25,53.25,0,0,1,139,810.6h0a19.22,19.22,0,0,1,4.89-2.72h0a14.61,14.61,0,0,1,3.39-.83l4.77-.57c1.46-.17,2.94-.29,4.41-.35l4.09-.19a31.28,31.28,0,0,1,7.42.56h0a19.29,19.29,0,0,1,7.11,3h0l6.2-.88,3.75-.46q1.13-.14,2.25-.18l11-.4h9.57c2.68,0,5.35.13,8,.37l4.08.38a81,81,0,0,1,9.16,1.4l8.61,1.84,7.6,1.5a37.85,37.85,0,0,1,4.22,1.09h0a88.56,88.56,0,0,1,15.3,6.61l2.72,1.5,21.05-22.56,16-16.16,11.6-11.13a125.34,125.34,0,0,0,9.57-10.26l8.5-10.17q3.16-3.8,6.56-7.39l9.84-10.39c1.16-1.23,2.37-2.43,3.6-3.6l17.34-16.43,13.47-13.47,5.73-11.62,7.4-14.8c.67-1.35,1.39-2.69,2.14-4l8.64-15,7.57-12.29,4.89-7.91,4-3.2,2.75-2.09a50.51,50.51,0,0,1,4.49-3l5.65-3.39c1.55-.93,3.14-1.8,4.75-2.61h0a7.06,7.06,0,0,0,2.32-1.84h0a11.34,11.34,0,0,0,2.62-6.81l0-.61L446.2,611a5.09,5.09,0,0,1-2.62-1.4h0a1.66,1.66,0,0,1-.46-1.48l.36-1.89.07-.2a60.31,60.31,0,0,0,2.43-7.66l2-7.94,1.72-8.07-3.72-2.6c-2.44-1.7-5-3.28-7.56-4.74l-3.15-1.77-6.45-3.94a41.12,41.12,0,0,1-3.78-2.63l-1.85-1.44a46.45,46.45,0,0,1-6.22-5.84l-2.48-2.81,2.57,8.08,1.67,5.72a69.76,69.76,0,0,1,1.74,7.54h0a86.45,86.45,0,0,1,1.16,10.28l.24,4.79h0a37.61,37.61,0,0,1-5,14.41l-.11.19,2.25-5.76a11,11,0,0,0,.67-2.65h0a34.48,34.48,0,0,0,.11-7.93h0q-.29-2.73-.84-5.42l-.13-.63c-.23-1.11-.5-2.2-.8-3.29l-.81-2.87c-.42-1.47-.89-2.91-1.42-4.33L413.93,570l-2.62-7.4c-.77-2.16-1.61-4.31-2.51-6.42l-5.52-13-4.65-10.54a21,21,0,0,0-1.13-2.22h0a30.46,30.46,0,0,0-7.65-8.73h0a50.16,50.16,0,0,0-4.58-3.15l-8.1-4.91-.14-.12a108.28,108.28,0,0,1-15.29-15.73l-1.05-1.32,4.12,8.76,4.46,10,5.33,13.22,5.55,12.64c.88,2,1.69,4,2.42,6.08l3.26,9.09c.41,1.16.8,2.33,1.15,3.5l5,16.62-6-10.17c-.46-.78-1-1.54-1.48-2.28l-3.41-4.82c-1.09-1.54-2.13-3.13-3.11-4.75L372.88,546l-3.72-6.5a89.11,89.11,0,0,1-6.45-14l-.25-.68c-.72-2-1.35-4.08-1.88-6.16l-3.67-14.57-3.78-17.86-2.61-10.45a63,63,0,0,1-1.48-8.05l-1.41-11.9-1.23-12.48q-.31-3.15-.31-6.32v-11.6l.51-28V374.92q0-3.1-.25-6.19l-1.64-20.62L343,331.62,340.42,306l-1.32-17.27q-.23-3-.26-6l-.14-13.14-.17-13.91L333.2,272,330.81,279a42.22,42.22,0,0,0-1.62,6.18l-.5,2.67a47.83,47.83,0,0,0-.77,6.95l-.21,5.78v15c0,1.21,0,2.41.1,3.61l.35,6.15a57.91,57.91,0,0,0,1.07,8.41l.4,2a55,55,0,0,0,1.71,6.44l1.08,3.25A64.67,64.67,0,0,0,335.5,353l3.2,6.61,3.95,8.42-2.82-1.91q-3-2-5.82-4.37l-4.24-3.51-6.18-5.67-8.94-8.76-6.7-6.53,2.75,8.42,2.06,5.7c.58,1.58,1.22,3.14,1.93,4.66l1.86,4a49.85,49.85,0,0,0,4,7l.2.29a30,30,0,0,0,6.4,6.82h0c.6.47,1.22.91,1.85,1.33l13.14,8.64-7.94-3.9a42.11,42.11,0,0,1-6.14-3.71l-4-2.86-2.33-1.87a49,49,0,0,1-5.29-4.89l-2.86-3-2.44-2.83a26.53,26.53,0,0,1-3.21-4.65h0c-1.16-2.11-2.21-4.28-3.18-6.49l-.69-1.58c-.52-1.2-1-2.42-1.46-3.64l-1.14-3.07a61.23,61.23,0,0,1-1.88-6.09h0a89,89,0,0,1-1.76-9l-.38-2.66-2.58-5v1.23a60.84,60.84,0,0,1-.65,8.84l0,.24-1.2,6-.95,4.19a37.61,37.61,0,0,1-2.14,6.54l-.52,1.19a5.6,5.6,0,0,1-.89,1.46h0a28.19,28.19,0,0,1-6.27,5.62h0a57,57,0,0,1-5.05,3l-5,2.59-5.67,2.75,2.33-3a64.45,64.45,0,0,0,6.43-10.05h0l2.81-4.82c.53-.91,1-1.84,1.5-2.78l1.28-2.55q.93-1.87,1.74-3.81l.35-.86a40.12,40.12,0,0,0,2.54-8.78h0a83.78,83.78,0,0,0,1-9.2l.18-3.09c.05-.92.08-1.85.08-2.77v-7l-.52-.47a45.34,45.34,0,0,1-5.06-5.31h0a10,10,0,0,1-1.05-1.6h0a64.55,64.55,0,0,1-3.64-8.52v0a22.47,22.47,0,0,1-1-4.27h0a84.61,84.61,0,0,1-.74-11.14h0a54.6,54.6,0,0,1,1-10.36h0c.37-2,.83-3.9,1.36-5.82l.79-2.86q.65-2.33,1.46-4.61l3.13-8.71,4.36-10.42a76.36,76.36,0,0,1,4.18-8.46l5.72-10,4.6-8a67.13,67.13,0,0,1,4.63-7l1.09-1.45a49.13,49.13,0,0,1,3.27-3.94l2.21-2.4-1-1.55h-2.92a16.67,16.67,0,0,1-2.73-.23h0a44.25,44.25,0,0,1-7.43-1.9h0a38.75,38.75,0,0,1-6.23-2.82h0a20.82,20.82,0,0,1-4.54-3.44h0a24.16,24.16,0,0,1-3.85-5h0a60.46,60.46,0,0,1-3-6l-.51-1.17a12,12,0,0,1-.81-2.63h0a57.67,57.67,0,0,1-.95-10.41h0a55.35,55.35,0,0,1,.36-6.31l.5-4.42h0a75.35,75.35,0,0,1-2.36-7.33l-.56-2.11-.88,7.6a46.52,46.52,0,0,1-1.76,8.34l-.73,2.38a60.9,60.9,0,0,1-2.14,5.84l-1.57,3.7a27.65,27.65,0,0,1-1.47,2.93h0a47.67,47.67,0,0,1-5.23,7.31h0a36.86,36.86,0,0,1-3.6,3.58h0a70.71,70.71,0,0,1-6.4,4.89l-2.5,1.68c-1.37.92-2.77,1.81-4.2,2.65l-.37.22a70.76,70.76,0,0,1-10.52,5.08l-1.74.66a9.68,9.68,0,0,1-1.77.5h0a66.15,66.15,0,0,1-13.4,1h-.63l4.51-2.79q1.33-.83,2.7-1.56l5-2.7,2.09-1.23a60.22,60.22,0,0,0,8.67-6.2h0q2-1.67,3.8-3.46l2.5-2.43c.88-.85,1.73-1.73,2.56-2.63l3.52-3.85a59.24,59.24,0,0,0,4.55-5.68l2-2.88q1.9-2.73,3.56-5.6l1.14-2a58.39,58.39,0,0,0,3.27-6.64l1.15-2.76,3.78-10,3.61-9.79,2.1-5.18c.31-.79.66-1.56,1-2.33l2.18-4.55a33.8,33.8,0,0,1,2.41-4.22l4.65-6.91,4.13-5.67-3.12-5.58c-.67-1.2-1.31-2.43-1.91-3.67l-.18-.36A34.4,34.4,0,0,1,284.58,73h0a17.26,17.26,0,0,1-.37-3.13l-.06-2.58a28.74,28.74,0,0,1,.43-5.71h0a25.38,25.38,0,0,1,1.75-5.8h0a24.45,24.45,0,0,1,4.62-7h0a42.06,42.06,0,0,1,5.6-5l1.69-1.26a28.5,28.5,0,0,1,2.7-1.77l5.83-3.38a33.67,33.67,0,0,1,5.34-2.49l3.82-1.4a46.29,46.29,0,0,1,8.66-2.23h0a55,55,0,0,1,11.11-.59l1.63.08,4-3.2A25.77,25.77,0,0,1,347.16,24h0a54.26,54.26,0,0,1,7.31-2.59l.35-.09a36.09,36.09,0,0,1,5.63-1.08l5.76-.63c1.58-.17,3.17-.3,4.76-.37l.76,0a38.41,38.41,0,0,1,8.76.59h0a93.92,93.92,0,0,1,10.07,2.41l3.1.92,2.61.92a67.4,67.4,0,0,1,11.78,5.48l1.24.73a17.21,17.21,0,0,1,3.45,2.67h0a43.13,43.13,0,0,1,6.51,8.34l.35.58L422,35l1.17-3.64a13.17,13.17,0,0,1,1-2.25h0a22.2,22.2,0,0,1,3.13-4.33l1.3-1.39c.89-1,1.82-1.89,2.79-2.77L434,18.18a27.08,27.08,0,0,1,5-3.6L443,12.29c.77-.44,1.56-.85,2.37-1.24L450,8.82a47.79,47.79,0,0,1,4.86-2l3.6-1.25A63.72,63.72,0,0,1,468.16,3l.74-.13A17.42,17.42,0,0,1,473,2.67h0a38.72,38.72,0,0,1,10.63,2.26h0A83,83,0,0,1,494,9.42l4.26,2.21-7.38-2.34a30.53,30.53,0,0,0-6-1.23h0a32.92,32.92,0,0,0-4.21-.15L476.28,8l-2.66.19a27.25,27.25,0,0,0-4.58.7l-2.72.66-2.36.59A21,21,0,0,0,459.28,12l-1.87,1A32.6,32.6,0,0,0,454.06,15l-.86.6a41.78,41.78,0,0,0-5,4.15l-5.23,5c-.9.86-1.77,1.74-2.61,2.65l-3.07,3.27A68,68,0,0,0,431.31,38l-3.71,5.24a42.54,42.54,0,0,0-2.69,4.31h0A38.89,38.89,0,0,0,421,58.06l-.69,3.21L423,59a60.94,60.94,0,0,1,8.56-6h0a97.13,97.13,0,0,1,11.88-5.88l3.17-1.3q2.37-1,4.8-1.8l10.28-3.47h0a89.76,89.76,0,0,1,16.42-3l1.62-.14,10.15-1.25a5.5,5.5,0,0,0,1.9-.61l9.25-5,.72-.36a64.06,64.06,0,0,1,13.89-4.89l1.87-.42,9.65-2.35a62,62,0,0,1,6.19-1.18l9.24-1.28,8.73-1q3.3-.37,6.61-.51l9.91-.38,12.6-.41q3.21-.11,6.4,0l5.37.26a81.26,81.26,0,0,1,11.95,1.46l3.82.77a76,76,0,0,1,7.89,2L624,24.86l13.59,3.69c1.47.4,2.93.84,4.38,1.33l14.83,4.94,14.26,5.5,11.16,4.81,11.17,5.49,5.74,2.87a81.39,81.39,0,0,1,8.16,4.7l7.57,5,11.85,8.59L737.88,80l10.47,8.08L759,97l8.76,7.9,10.31,8.76,6.13,5.25q2.28,2,4.41,4.09l9.38,9.38,3.7,4q3.69,3.94,7.74,7.51l1,.86a46.51,46.51,0,0,0,4.59,3.56h0a25.93,25.93,0,0,0,5.11,2.68h0c1.74.67,3.51,1.3,5.29,1.87l4.84,1.56c1.75.56,3.51,1.08,5.28,1.54l10.57,2.74,7.22,1.67a89.22,89.22,0,0,0,9.35,1.66l4.12.51c1.55.19,3.1.34,4.66.44l4.16.29q3.46.24,6.94.17l5.46-.1h7.81q4.38,0,8.74-.42l2.81-.27a24.09,24.09,0,0,0,3.48-.59h0a88.33,88.33,0,0,0,10.45-3.24l1.23-.46,4.67-1.77ZM330.84,42.8l-6.46-.44c-1.32-.09-2.65-.13-4-.13h-3.63a6.91,6.91,0,0,0-2.42.44h0a13.81,13.81,0,0,0-3.4,1.89l-2.63,2c-.35.27-.69.55-1,.84l-3.67,3.29c-.85.76-1.65,1.56-2.41,2.39l-1.42,1.56a22.79,22.79,0,0,0-3,4.16l-.88,1.56a15.44,15.44,0,0,0-.78,1.58L294,64.57a18.42,18.42,0,0,0-1.39,5l-.32,2.46c0,.34-.07.67-.1,1l-.36,4.9a19.94,19.94,0,0,0,.19,4.63l.21,1.27.71,5.73,9.17-9.88,9.16-9,8.44-7,4.15-3.15,2.83-8.26a49.49,49.49,0,0,1,2.09-5.12ZM317.31,201.5l-7.56,7.76-7,7.75a66.56,66.56,0,0,0-6.64,8.69l-2.39,3.72c-1.08,1.68-2.09,3.42-3,5.19L288.94,238a70.53,70.53,0,0,0-3.9,9l-1.6,4.58c-.43,1.22-.81,2.45-1.14,3.7l-1.19,4.52a47,47,0,0,0-1.39,7.88l-.27,3c-.1,1.05-.14,2.1-.14,3.15v2.45a6.54,6.54,0,0,0,.12,1.25h0a12.1,12.1,0,0,0,1.73,4.24l1.64,2.51,5.81,8.34,1.27-10.05a74,74,0,0,1,2.1-10.4l3.61-12.91L303,236.79l7-18.37q1.13-3,2.41-5.84Zm55.48,247.94,1.38,19.87,2.37,7.28c.38,1.17.82,2.33,1.31,3.47l1.4,3.27a21,21,0,0,0,3.81,5.92h0a37.28,37.28,0,0,0,3.69,3.53L397,501.37l-4.75-7.53a68.08,68.08,0,0,1-5.61-11l-3-7.6-7.08-17.51ZM453.4,557.63l-9.8-11.22.42,1.44a65.54,65.54,0,0,0,4.44,11.21l3,5.82-.29-5.4ZM296,830.45a64.34,64.34,0,0,1,6.41,2.84l5.74,2.92,11.29,5.86c1,.5,1.91,1,2.85,1.58l5.69,3.36,1.77-7c.43-1.69.93-3.37,1.5-5l3-8.64,4.5-12.87q1.14-3.25,2.51-6.42l4.76-11L334.82,806a57.81,57.81,0,0,1-9.3,6.71l-13.07,7.59-17.89,9.67Zm99.33-72.34-3.82,23.55L385,819.78l-6.73,30.94-4,18.39,8.16,6.64a129.5,129.5,0,0,0,10.52,7.71l6.77,4.43A37.89,37.89,0,0,1,403.7,891l8.39,7.29,1.33-3.78a58.05,58.05,0,0,1,4.56-10l1.51-2.64L413,851.7c-.43-2-.8-4-1.12-6l-4-25.68-4.71-30.27-2-18.61Zm541.88,82.33a1.71,1.71,0,0,0,.93-.27h0a2.2,2.2,0,0,0,1-2h0a4.11,4.11,0,0,0-1-2.44l-.19-.22a3.88,3.88,0,0,0-.55-.52l-2.22-1.71-1.56,7.19Zm-113.57-83,5.44,9.13,3.27,5a71.74,71.74,0,0,1,4.9,8.67l3.88,8.13,6,14.18.09.22a93.82,93.82,0,0,0,5.14,10.52l5.26,9.28,4.67-13.8,3.69-9.71-4.53-6a7.14,7.14,0,0,1-1.26-2.67h0a9.13,9.13,0,0,1,.27-5.15l2.8-8,3.11-10.49,2.91-1-.19-1.83a6.53,6.53,0,0,0-1.35-3.32l-2.54-3.2-3-.89a24.86,24.86,0,0,1-3.19-1.16h0a31.31,31.31,0,0,1-6.18-3.61h0a26.52,26.52,0,0,1-3.31-2.95h0a45,45,0,0,1-3.66-4.39L841.08,738v3.11l2.07,4.46a25.45,25.45,0,0,1,1.12,2.82l1.21,3.74c.43,1.34.8,2.69,1.11,4.06l.16.74a39.18,39.18,0,0,1,.93,8.5h0c0,.63,0,1.26-.08,1.89l-.28,3.38c0,.23-.05.45-.09.67h0a6.88,6.88,0,0,1-2.63,4.17l-.22.17-4.08-5.45-3.59-6.36c-.46-.81-1-1.59-1.49-2.35l-2.5-3.53.68,4.26a5.43,5.43,0,0,1,.05,1.21l-.12,1.58a.37.37,0,0,1-.36.34h0a3.32,3.32,0,0,1-2.61-1.27h0a39.1,39.1,0,0,0-6.07-6.13Zm-15.71-104,9.26-.93,8.69-.64a74.4,74.4,0,0,0,7.58-1l2.71-.48-6-3.71-4.76-2.7a37.92,37.92,0,0,0-4.5-2.16l-2.31-.92-6.35,1a32.79,32.79,0,0,0-4.36,1L800,645.36Zm-38.65,19.67.84,5.51a68.82,68.82,0,0,1,.78,10.34v7.38a17.82,17.82,0,0,0,.93,5.7h0l1.15,3.94-2.54.92v2.32l1,.68a46.11,46.11,0,0,0,4.18,2.59l6,3.3c.46.25.9.51,1.34.79l10,6.3,6.71,3.93L795.13,718q-1.14-2.26-2-4.61l-1.44-3.73q-.42-1.1-.75-2.22l-1.14-3.93a31.49,31.49,0,0,1-.93-4.31l0-.19a21.28,21.28,0,0,1-.14-5h0a34,34,0,0,1,1-5.57l.43-1.68a24.22,24.22,0,0,1,2.05-5.26l2.37-4.43-7.54-5.47a20.55,20.55,0,0,1-3.15-2.82l-.58-.63a33.8,33.8,0,0,1-4.51-6.3l-.42-.76-9.73,6.72Zm-154.46-122,24.09,6.66-22-21.27Zm206-289.35q.69,3.3,1.67,6.53l1.54,5.12a38.41,38.41,0,0,1,1.18,5.12l1.37,8.5c.2,1.23.35,2.47.46,3.71l.23,2.68a62.18,62.18,0,0,1,.16,8.19l-.41,8.85,5.53,4.71c1,.83,1.92,1.7,2.81,2.62l4,4.13-.75-8.37a63.38,63.38,0,0,0-.92-6.43l-1-5.17c-.29-1.47-.63-2.93-1-4.39l-1.51-5.71-2.23-7c-.4-1.26-.83-2.52-1.3-3.76l-2.72-7.22-1-2.72A103.57,103.57,0,0,0,822,260l-2.74-5.4Z" transform="translate(-35.64 -1.13)"/></g></g></g></svg>