<svg xmlns="http://www.w3.org/2000/svg" xmlns:xlink="http://www.w3.org/1999/xlink" viewBox="0 0 1457.84 2020.27"><defs><style>.cls-1{fill:none;}.cls-2{font-size:30px;fill:#edc8cf;font-family:MarshMallowPopHeartTTFLight-Regular, MarshMallowPopHeartTTFLight;}.cls-3{clip-path:url(#clip-path);}.cls-4{fill:#b46d95;}.cls-5{fill:#fff;}.cls-6{stroke:#b46d95;stroke-miterlimit:10;stroke-width:5px;fill:url(#新規パターンスウォッチ_1);}</style><clipPath id="clip-path" transform="translate(-28.2)"><rect class="cls-1" y="22.76" width="1556.44" height="1991.93"/></clipPath><pattern id="新規パターンスウォッチ_1" data-name="新規パターンスウォッチ 1" width="116.1" height="143.83" patternUnits="userSpaceOnUse" viewBox="0 0 116.1 143.82"><rect class="cls-1" width="116.1" height="143.83"/><text class="cls-2" transform="translate(20.56 134.56) rotate(-50.62)">YUI54♡</text><rect class="cls-1" width="113.49" height="143.83"/></pattern></defs><title>アセット 4</title><g id="レイヤー_2" data-name="レイヤー 2"><g id="レイヤー_2-2" data-name="レイヤー 2"><g class="cls-3"><path class="cls-4" d="M1192.82.56l15,15.5q5.39,5.55,10.44,11.42l6.81,7.9q4.34,5,8.39,10.28L1246,61.79l1.9,2.52a220.4,220.4,0,0,1,19.54,30.93h0a114.65,114.65,0,0,1,6.09,13.86l8.43,23.32,3.5,9q2.65,6.82,4.63,13.9l2.6,9.31q1.57,5.66,2.85,11.39l2.35,10.63a233.48,233.48,0,0,1,3.91,23.2l1.87,15.84,3.89,50.87,4.85,45,5.19,54.11,5.18,55.72,3.89,40.18,3.89,34,3.56,29.16,5.51,45.68,1.94,19.76,2.26,35.24c.22,3.51.34,7,.34,10.54v11.12q0,7.26-.38,14.49h0a223.25,223.25,0,0,1-7.39,46.3l-.33,1.22-.65,24v27.54l1,23.33.5,13.36q.15,3.81.57,7.61l.3,2.68a80.52,80.52,0,0,0,1.81,10.25l2.33,9.52-3.43-8.42a107.7,107.7,0,0,1-5.7-18.68l-2.86-13.73L1327.61,783q-.66-3.91-1-7.86l-.95-11-.65-13.6L1317.76,774q-1.5,4.83-3.46,9.5l-12,28.38-9.62,24.74q-1.73,4.42-3.7,8.72l-11.63,25.18,5.84-40.17-6.81,12.63,4-18.46a201.58,201.58,0,0,0,3.29-20.26l3.09-28,3.8-26.38q1.07-7.3,1.52-14.69l.84-13.36L1287.1,749,1280,776.69q-2.28,8.89-5.43,17.53l-5.6,15.34-3.89,10.37,4.21,16.52-5.5-14.25-5.19,9.72-3.65,6.55a168.13,168.13,0,0,1-12.87,19.69h0l11,8.1,5.22,3.44a171.86,171.86,0,0,1,15.49,11.49l2.55,2.13q3.63,3,7.55,5.68h0q6.13,4.15,12.59,7.75l11.74,6.54q4.47,2.51,8.75,5.34l11.28,7.53,13.93,9.07,1.5,1a179.58,179.58,0,0,1,15.75,12.4h0a54,54,0,0,1,6.39,6.71l6.17,7.71,5.9,4.76q5.76,4.64,11.06,9.8l7,6.82,5,5.39a84,84,0,0,1,5.84,7l.07.1a44.42,44.42,0,0,1,4.63,7.8h0a54.56,54.56,0,0,1,3.57,10.22h0a52.19,52.19,0,0,1,1.31,8.32l.15,1.94a190,190,0,0,1-.14,30.46h0l1.42,9.18q.84,5.4,1.39,10.84l3.34,33.44,5.23,41.26q.93,7.33,1.38,14.72l2.14,35.06.54,31q.11,6.27.63,12.52l2,23.89q.7,8.41.82,16.87l.21,16.82.87,2.79a142.89,142.89,0,0,1,4.94,22l.35,2.39,4.41,29.52q.76,5.15,1.83,10.24l10.61,51,8.74,47,4.68,25.73a87.12,87.12,0,0,1,1.36,12.79l.12,3.6v37.26l2.21,9.14a169.87,169.87,0,0,1,3.51,19.5l1.32,11c.27,2.26.65,4.52,1.13,6.75l1.5,7.06a134.6,134.6,0,0,1,3,28.09v361.59h0a106.75,106.75,0,0,1-19.63,3.89l-.88.09a151.36,151.36,0,0,1-15.5.8h-14.18l-31-1-21.67-1.2q-4.1-.23-8.16-.68l-21.7-2.41-11.47-1.77a70,70,0,0,1-13.9-3.63l-1.4-.53q-3.29-1.23-6.51-2.66l-5.37-2.39h-.28a55,55,0,0,1-18-3h0a14.41,14.41,0,0,1-4.08-2.21h0a37.08,37.08,0,0,1-7.54-7.78l-5.39-7.49-5.25-8.11,1-3.34-2.38-6.68-10.5-25.77-13.36-30.06-5.25-13.36-26.72-21-2.75,8.25q-1.54,4.62-2.68,9.38l-1.73,7.18,3.51,39.9q.32,3.52.81,7l6.18,43.26,2.68,22.76a30.07,30.07,0,0,0,.53,3.13l1,4.7a20,20,0,0,0,1.59,4.49h0a20.51,20.51,0,0,0,4.81,6.21l4.62,4H84V1812.28l11.46-24.81,10.81-21.24a67,67,0,0,0,4.22-10.36l.71-2.28,2.13-6.7a126.79,126.79,0,0,1,10.77-24.58l4.52-7.91a135,135,0,0,1,8.93-13.65l10.39-14,2.39-17.18,2-11.66c.57-3.36,1-6.74,1.24-10.14l1-14.47,1-1.52a53.12,53.12,0,0,1,11.39-12.31h0l7.16-4.78,3.73-10.86a69.93,69.93,0,0,1,3.6-8.57l5.11-10.21a35,35,0,0,1,4.58-7l2.73-3.24a44.67,44.67,0,0,1,4.76-4.87l2.52-2.23a26.38,26.38,0,0,1,6.72-4.31h0a29.3,29.3,0,0,1,10.26-2.48l3.23-.17,3.82-10.5,1.54-14.24a31.86,31.86,0,0,1,1.45-6.68l.13-.37a26,26,0,0,1,5.09-8.89l5.38-6.15c.8-.91,1.63-1.79,2.51-2.64l12.33-12a42.19,42.19,0,0,1,6.64-5.28l9.81-6.33a22.89,22.89,0,0,1,2.92-1.59l5.8-2.61a7.81,7.81,0,0,1,4.62-.56l1.29.23a10.31,10.31,0,0,1,3,1h0a37.31,37.31,0,0,1,8.67,6.46l4.25,4.25,3.34-6.21,11.73-3.55a42.36,42.36,0,0,1,8.2-1.62l.42,0a13.69,13.69,0,0,1,9.7,2.82h0a27.23,27.23,0,0,1,7,8.09l3.53,6.23,8.37,15.55q1.65,3.06,3,6.27l3,7.14a9.38,9.38,0,0,1,.72,4.28l-.05.77a72.5,72.5,0,0,0-.08,8.34l.28,5.85h0a11.67,11.67,0,0,0,7.44,2.15l13.07-.72,8.12-41-13-18.16a99.8,99.8,0,0,0-11.38-13.26l-7.15-7a119.51,119.51,0,0,0-16.33-13.35l-12.11-8.22q-4.43-3-9-5.75L300.18,1432l-24.55-13.46a86,86,0,0,0-10.39-4.84l-21.47-8.33c-3.43-1.33-6.9-2.57-10.4-3.69l-14.22-4.59a176.8,176.8,0,0,0-20.54-5.29l-11.44-2.23A215.43,215.43,0,0,0,162,1386.2l-3.77-.27q-9.78-.72-19.6-.62l-38.38.38,39.13-7.63,50.57-7.63,27.2-3.45c4.45-.57,8.93-1,13.41-1.3l11.75-.78a249.85,249.85,0,0,1,34.61.1h0a97.36,97.36,0,0,1,17.62,2.94l9.24,2.43a95.84,95.84,0,0,1,17.9,6.67l4.6,2.26a127.24,127.24,0,0,1,25.9,16.91l3,2.55q3.18,2.68,6.17,5.58l6.72,6.55a131.56,131.56,0,0,1,14.5,16.68l7.77,10.61,9.54,12.89,3.35-21.65a135.07,135.07,0,0,1,6-23.92l5.93-16.94,13.91-43.71q2.79-8.77,4.81-17.77l6.69-29.82q1.79-8,3.07-16l6-37.71q1.29-8.14,2-16.38l4.51-50.46,4-36.28q.78-7.14,2.2-14.2l2.88-14.42,1.91-8.59,5.73-5.72,5.72-27.2,10.5-61.56L492,988.21l-3.82-3.34,7.78-9.21q5.1-6.06,10.71-11.65l8.24-8.24,1.43-52.49,1.92-32.3q.47-7.79,1.51-15.51l4.14-30.54q1-7.54,2.61-15l2.12-9.88a16.56,16.56,0,0,1,2-5.11l1.14-1.9a15.61,15.61,0,0,1,4.48-4.78h0a52.56,52.56,0,0,1,7.23-4.2l4-1.92q3.15-1.51,6.23-3.19h0a88.71,88.71,0,0,0,14-9.43h0a11.65,11.65,0,0,1,3.52-2l1.21-.43a24.27,24.27,0,0,1,10.21-1.28h0l1.44-21-3.56-10.68a128.5,128.5,0,0,1-4.26-16.13l-8.43-42.9q-.93-4.73-1.59-9.5L557.6,603c-.47-3.41-.83-6.82-1.09-10.25l-4.38-58.32L550.22,501l-6.68-26.25-4-17.54a176,176,0,0,1-3.29-19.5L533,408.93l-6.82,19.65q-1.29,3.74-2.91,7.34l-13.18,29.32-13.49,27a138.28,138.28,0,0,1-8.22,14.26l-23.14,35.11,8.83-17.06a210.32,210.32,0,0,0,18.12-49.29l1.43-6.23a216.63,216.63,0,0,0,4-23l5.8-48.44q.92-7.69,1.28-15.44l2-41.65q.52-11.19,2.13-22.31L514,283l6-39.63q1.67-11,4.22-21.72l7.43-31.28c1-4.09,2.07-8.16,3.3-12.18l2.41-7.89a196.57,196.57,0,0,1,16.74-39h0a88.44,88.44,0,0,1-13-21.94l-1.82-4.43a132.25,132.25,0,0,1-5.51-16.33l-1.6-6-1.15-3a129.23,129.23,0,0,1-8.11-38.1h0a31,31,0,0,1,.82-9.21h0a166.7,166.7,0,0,1,7-21.93l2.93-7.41-8.23,5.61a54.75,54.75,0,0,1-4.69,2.85l-9.92,5.32q-7.23,3.87-14.8,7l-11.59,4.82a65.58,65.58,0,0,1-12.63,3.79l-16.88,3.26a64.21,64.21,0,0,1-7.69,1l-36.21,2.59,9.33-1.94a164.58,164.58,0,0,0,31-9.69h0c2.72-1.15,5.39-2.43,8-3.81l7.37-3.91A223.91,223.91,0,0,0,489.86,5.51L497.73,0Zm101.28,520.9q-2.07,9.42-3.32,19l-5,38.7q-.84,6.44-2.16,12.79L1273,642.68l-8.56,53.76-3.6,17.47a173.79,173.79,0,0,0-3.54,34.87h0q0,9.5.85,19l1.51,16.94q.49,5.46,1.34,10.89l2.48,16,10.37-29.36c.7-2,1.33-4,1.9-6l9.14-33.1,7.43-31.76c.75-3.25,1.39-6.52,1.89-9.82l3-19.84q.49-3.28.82-6.58l2.66-26.92q.83-8.31.82-16.66v-24l-1-35.2-.37-26.77c-.07-5.3-.35-10.61-.85-15.89l-2.11-22.52Zm-32.25,294.39-8.08-23.42q-1.76-5.07-3.14-10.25l-3-11.15a146.48,146.48,0,0,1-3.74-18.69l-2.06-15.41c-.4-3.07-.72-6.14-.94-9.23l-1.63-22.56-3.11,9.13a134.49,134.49,0,0,0-4.09,14.73l-3.29,15.12-3.6,20-3,15.72-.64,3.16a96.11,96.11,0,0,0-2,19.43v3l.05,1.38a103,103,0,0,0,2.16,18l2,9.76-6.11-15.59A158.36,158.36,0,0,1,1212,801.3l-4.18-15.94q-2.31-8.8-3.9-17.79l-4.63-26.07-3.16,19.23q-.78,4.68-2,9.27l-3.43,13c-1,4-2.28,7.9-3.7,11.76l-2.79,7.63,7.86,9.5,4.26,1,6.55,7.54,5.9,6.22h0a4.35,4.35,0,0,1-1.85,4.12l-2.09,1.45,9.18,5.57,26.53,18,5.11-8.45q2.41-4,4.51-8.17ZM1162.7,770c1,1,1.9,2,2.8,3h0a92.12,92.12,0,0,1,9.84,13.4l6.17,10.21,4.66-14.49q1-3.17,1.83-6.39l1.86-7.47a146.24,146.24,0,0,0,2.89-14.67l1.72-11.93a122,122,0,0,0,1.24-15.27l.16-8.49-.26-17.66c0-2,0-4,.12-6l.74-14.37-6.29,12.87-6.77,15.66a118.89,118.89,0,0,1-6.36,12.6l-6,10.35-10.47,36.51Zm-6-2.45,6.89-23.64L1148,767.24Zm-447-16.22a14.68,14.68,0,0,0,6.86,2l2.47.08c1.38,0,2.76,0,4.13,0l3.07-.1c1.7-.06,3.4-.06,5.11,0l4.6.17-2.83-7.65a130.54,130.54,0,0,0-5.65-13l-1.33-2.65-6.94,8.24c-1,1.22-2,2.47-2.93,3.77l-6.56,9.19ZM607.14,639.22l2.65,24.65,2.65,36.3,1,12.87a96.8,96.8,0,0,1,.06,14.55h0a143.38,143.38,0,0,1-3.37,22.28l-2.74,11.78,23.32-2.91,24.91-2.65-4.77-30.48L648.48,705c-.36-3-.62-6.11-.8-9.17l-1.06-17.93L632.05,659.1l-7.95-9.81-11.4-15.37-7.42-9.8Z" transform="translate(-28.2)"/><path class="cls-5" d="M1137.54,20.14l15,15.5Q1158,41.21,1163,47.06l6.81,7.9q4.34,5,8.39,10.28l12.47,16.13,1.9,2.53a220,220,0,0,1,19.54,30.92h0a114.1,114.1,0,0,1,6.09,13.87l8.43,23.31,3.51,9q2.64,6.84,4.62,13.9l2.6,9.31c1.06,3.78,2,7.57,2.85,11.4l2.35,10.62q2.54,11.49,3.92,23.21l1.86,15.83,3.89,50.87,4.86,45,5.18,54.1,5.18,55.73,3.89,40.17,3.89,34,3.56,29.16,5.51,45.68,2,19.77,2.25,35.24c.23,3.5.34,7,.34,10.53v11.13q0,7.25-.38,14.49h0a222.39,222.39,0,0,1-7.39,46.29l-.33,1.22-.65,24v27.54l1,23.33.51,13.35q.14,3.81.56,7.61l.3,2.69a80.68,80.68,0,0,0,1.81,10.24l2.33,9.52-3.43-8.41a108.07,108.07,0,0,1-5.7-18.69l-2.86-13.72-2.26-13.59c-.44-2.6-.77-5.23-1-7.86l-.95-11-.65-13.61-7.24,23.35c-1,3.22-2.16,6.4-3.47,9.5l-12,28.38-9.62,24.75q-1.71,4.41-3.7,8.72l-11.62,25.18,5.83-40.18-6.81,12.64,4-18.47a197.9,197.9,0,0,0,3.3-20.26l3.08-28,3.81-26.39q1.05-7.3,1.51-14.68l.84-13.36-5.83,27.21-7.12,27.71q-2.28,8.9-5.43,17.53l-5.6,15.35-3.89,10.36L1214,856l-5.51-14.26-5.19,9.72-3.65,6.55a167,167,0,0,1-12.87,19.7h0l11,8.1,5.22,3.43a173.64,173.64,0,0,1,15.48,11.49l2.55,2.13c2.42,2,5,3.92,7.56,5.69h0q6.12,4.14,12.59,7.75l11.73,6.54q4.49,2.49,8.75,5.34l11.28,7.52,13.93,9.07,1.5,1.05a175.88,175.88,0,0,1,15.75,12.4h0a53.34,53.34,0,0,1,6.39,6.71l6.17,7.71,5.91,4.75q5.75,4.64,11.05,9.8l7,6.83,5,5.38a81.77,81.77,0,0,1,5.84,7l.07.1a44.55,44.55,0,0,1,4.64,7.81h0a55,55,0,0,1,3.56,10.22h0a51.83,51.83,0,0,1,1.31,8.32l.15,1.93a190.17,190.17,0,0,1-.14,30.47h0l1.43,9.18q.84,5.4,1.38,10.83l3.34,33.45,5.23,41.25q.93,7.35,1.38,14.73l2.14,35.06.54,31q.11,6.27.64,12.53l2,23.88q.71,8.41.82,16.87l.21,16.82.87,2.79a143.18,143.18,0,0,1,5,22l.34,2.4,4.41,29.52q.78,5.14,1.83,10.24l10.61,51,8.75,47,4.67,25.73a87.26,87.26,0,0,1,1.37,12.8l.11,3.59v37.26l2.21,9.14a169.65,169.65,0,0,1,3.51,19.51l1.32,11c.28,2.27.65,4.52,1.13,6.75l1.5,7.07a134.52,134.52,0,0,1,3,28.08v361.6h0a108.55,108.55,0,0,1-19.64,3.89l-.88.09a151.35,151.35,0,0,1-15.5.79h-14.18l-31-1-21.68-1.21q-4.09-.23-8.16-.68l-21.7-2.41-11.47-1.76a69.74,69.74,0,0,1-13.9-3.64l-1.39-.52q-3.3-1.23-6.52-2.67l-5.37-2.38h-.27a54.8,54.8,0,0,1-18-3h0a14.64,14.64,0,0,1-4.08-2.2h0a37.38,37.38,0,0,1-7.54-7.79l-5.39-7.48-5.25-8.11,1-3.34-2.39-6.68-10.5-25.77-13.36-30.06-5.25-13.36-26.72-21-2.75,8.25q-1.55,4.64-2.68,9.38l-1.73,7.18,3.51,39.91q.31,3.51.81,7l6.18,43.27,2.68,22.75a30.26,30.26,0,0,0,.53,3.14l1,4.69a19.38,19.38,0,0,0,1.6,4.49h0a20.32,20.32,0,0,0,4.8,6.21l4.62,4H28.75V1831.87l11.45-24.82L51,1785.81a65.61,65.61,0,0,0,4.22-10.36l.71-2.27,2.13-6.71a126.43,126.43,0,0,1,10.77-24.57l4.52-7.92a136.27,136.27,0,0,1,8.94-13.65l10.39-14,2.38-17.18,2-11.66q.87-5,1.24-10.14l1.06-14.46,1-1.52a53.37,53.37,0,0,1,11.39-12.32h0l7.16-4.77,3.74-10.86a70,70,0,0,1,3.59-8.58l5.11-10.21a35.32,35.32,0,0,1,4.58-7l2.73-3.24a46.66,46.66,0,0,1,4.76-4.88l2.53-2.23a26,26,0,0,1,6.71-4.3h0a29.13,29.13,0,0,1,10.26-2.48l3.23-.18,3.82-10.5,1.54-14.24A31.63,31.63,0,0,1,173,1549l.13-.38a25.9,25.9,0,0,1,5.09-8.88l5.38-6.15c.8-.92,1.64-1.8,2.51-2.64l12.33-12a43.86,43.86,0,0,1,6.64-5.28l9.81-6.33a22.89,22.89,0,0,1,2.92-1.59l5.81-2.61a7.84,7.84,0,0,1,4.61-.56l1.3.23a10,10,0,0,1,3,1h0a37.27,37.27,0,0,1,8.67,6.45l4.25,4.25,3.34-6.2,11.73-3.56a41.61,41.61,0,0,1,8.2-1.61l.43,0a13.67,13.67,0,0,1,9.7,2.82h0a27.07,27.07,0,0,1,7,8.08l3.52,6.24,8.37,15.54c1.1,2,2.1,4.14,3,6.27l3,7.15a9.35,9.35,0,0,1,.72,4.28l0,.76a72.52,72.52,0,0,0-.08,8.34l.28,5.85h0a11.68,11.68,0,0,0,7.44,2.16l13.08-.73,8.11-41-13-18.17a99.16,99.16,0,0,0-11.39-13.25l-7.15-7a118.18,118.18,0,0,0-16.33-13.35l-12.11-8.23q-4.43-3-9-5.75l-19.28-11.57-24.54-13.46a88.42,88.42,0,0,0-10.4-4.84l-21.47-8.33q-5.15-2-10.39-3.69l-14.22-4.59a177.48,177.48,0,0,0-20.55-5.29l-11.44-2.22a211.08,211.08,0,0,0-25.16-3.35l-3.78-.28q-9.78-.71-19.6-.61l-38.38.38,39.13-7.64,50.58-7.63,27.19-3.45q6.69-.84,13.41-1.29l11.75-.79a248.45,248.45,0,0,1,34.62.11h0a96.51,96.51,0,0,1,17.61,2.93l9.25,2.43a96,96,0,0,1,17.89,6.68l4.6,2.26a127.34,127.34,0,0,1,25.9,16.9l3,2.56q3.18,2.67,6.16,5.58l6.72,6.54a133,133,0,0,1,14.5,16.68l7.77,10.62,9.54,12.88L348,1449a135.84,135.84,0,0,1,6-23.91l5.93-16.95,13.91-43.71q2.79-8.78,4.81-17.76l6.69-29.82c1.19-5.3,2.22-10.65,3.07-16l6-37.71q1.29-8.16,2-16.39l4.52-50.46,4-36.27q.79-7.15,2.2-14.21l2.88-14.42,1.91-8.58,5.73-5.73,5.72-27.2,10.5-61.55,2.86-20.52-3.81-3.34,7.78-9.22q5.1-6,10.7-11.65l8.24-8.24,1.43-52.49,1.92-32.3c.31-5.18.81-10.36,1.51-15.5l4.14-30.54q1-7.54,2.61-15l2.12-9.88a16.94,16.94,0,0,1,2-5.11l1.14-1.9a15.43,15.43,0,0,1,4.47-4.77h0a52.24,52.24,0,0,1,7.24-4.2l4-1.93q3.15-1.51,6.23-3.19h0a88.88,88.88,0,0,0,14-9.42h0a11.68,11.68,0,0,1,3.52-2l1.21-.42a24,24,0,0,1,10.22-1.28h0l1.43-21-3.56-10.68A132,132,0,0,1,521,737.63l-8.43-42.9q-.93-4.72-1.59-9.5l-8.66-62.65c-.47-3.4-.83-6.82-1.09-10.24L496.85,554l-1.91-33.4-6.68-26.24-4-17.55a173.89,173.89,0,0,1-3.3-19.49l-3.2-28.81L471,448.16q-1.31,3.73-2.92,7.35l-13.17,29.31-13.49,27a139,139,0,0,1-8.23,14.25L410,561.17l8.83-17.06A209.64,209.64,0,0,0,437,494.83l1.44-6.23a218.89,218.89,0,0,0,4-23l5.8-48.43q.92-7.69,1.29-15.44l2-41.65q.54-11.21,2.14-22.32l5.07-35.18,6-39.63q1.65-10.94,4.21-21.72l7.43-31.27q1.45-6.15,3.31-12.19l2.4-7.88a196,196,0,0,1,16.75-39h0a88.19,88.19,0,0,1-13-21.95l-1.83-4.43a132.1,132.1,0,0,1-5.51-16.32l-1.59-6-1.15-3A128.86,128.86,0,0,1,467.54,61h0a31.4,31.4,0,0,1,.82-9.21h0a166.57,166.57,0,0,1,6.95-21.92l2.93-7.41L470,28.06a50.85,50.85,0,0,1-4.69,2.84l-9.92,5.33q-7.22,3.87-14.79,7L429,48.06a65.4,65.4,0,0,1-12.63,3.8L399.5,55.11a66.45,66.45,0,0,1-7.68,1l-36.21,2.58,9.32-1.93a165.31,165.31,0,0,0,31-9.69h0q4.08-1.74,8-3.82l7.37-3.91a221.19,221.19,0,0,0,23.31-14.27l7.87-5.51ZM1238.82,541q-2.07,9.44-3.32,19l-5,38.69q-.84,6.43-2.16,12.79l-10.57,50.74L1209.16,716l-3.59,17.48a173,173,0,0,0-3.55,34.86h0q0,9.5.85,19l1.52,16.94c.32,3.64.77,7.28,1.33,10.89l2.49,16,10.36-29.36c.7-2,1.34-4,1.9-6l9.14-33.1,7.43-31.76c.76-3.24,1.39-6.52,1.89-9.81l3-19.85c.33-2.18.61-4.38.82-6.58l2.66-26.92q.82-8.29.82-16.66v-24l-1-35.2L1245,565.1q-.12-8-.86-15.9L1242,526.69Zm-32.25,294.4L1198.49,812q-1.74-5.07-3.14-10.25l-3-11.15a145,145,0,0,1-3.75-18.68l-2-15.42q-.61-4.59-1-9.23L1184,724.73l-3.1,9.12a134.08,134.08,0,0,0-4.1,14.74l-3.28,15.12-3.61,20-2.94,15.73-.65,3.15a96.92,96.92,0,0,0-2,19.44v3l0,1.38a103,103,0,0,0,2.16,18l2,9.76-6.11-15.6a160.3,160.3,0,0,1-5.74-17.62L1152.54,805q-2.31-8.82-3.9-17.79L1144,761.08l-3.16,19.23c-.51,3.12-1.18,6.22-2,9.28l-3.44,13q-1.58,6-3.7,11.76l-2.79,7.64,7.86,9.5,4.26,1,6.55,7.53,5.9,6.22h0a4.37,4.37,0,0,1-1.85,4.13l-2.08,1.44,9.17,5.57,26.53,18,5.11-8.45q2.43-4,4.51-8.17Zm-99.15-45.87c1,1,1.9,2,2.8,3h0a91.3,91.3,0,0,1,9.84,13.39l6.17,10.22,4.67-14.5c.67-2.11,1.28-4.23,1.82-6.38l1.87-7.47a146.4,146.4,0,0,0,2.88-14.68l1.73-11.92a124.08,124.08,0,0,0,1.24-15.28l.15-8.48-.25-17.66q0-3,.11-6l.74-14.37-6.28,12.87L1128.13,728a118.67,118.67,0,0,1-6.35,12.59l-6,10.35-10.47,36.52Zm-6-2.44,6.88-23.65-15.56,23.35Zm-447-16.23a14.45,14.45,0,0,0,6.86,2l2.48.08c1.37,0,2.75,0,4.12,0l3.07-.11c1.7-.06,3.41-.05,5.11,0l4.6.17-2.83-7.65a131.56,131.56,0,0,0-5.65-13l-1.33-2.65-6.94,8.24c-1,1.22-2,2.48-2.92,3.78l-6.57,9.18ZM551.86,658.81l2.65,24.64,2.65,36.31,1,12.86a96.81,96.81,0,0,1,.05,14.55h0a143,143,0,0,1-3.37,22.28l-2.74,11.79,23.32-2.92,24.91-2.65-4.77-30.47-2.38-20.61q-.53-4.58-.8-9.16l-1.06-17.93-14.57-18.82-7.95-9.8-11.4-15.37L550,643.7Z" transform="translate(-28.2)"/><path class="cls-6" d="M1139.5,19.48l15,15.5q5.38,5.55,10.44,11.41l6.81,7.91q4.34,5,8.4,10.28l12.46,16.13,1.91,2.52a220.81,220.81,0,0,1,19.53,30.92h0a113.91,113.91,0,0,1,6.09,13.87l8.43,23.32,3.51,9q2.64,6.83,4.62,13.9l2.6,9.31q1.59,5.66,2.85,11.39l2.35,10.62q2.54,11.51,3.92,23.21l1.86,15.84,3.89,50.87,4.86,45,5.18,54.11,5.19,55.72,3.88,40.18,3.89,34,3.57,29.16,5.5,45.68,2,19.76,2.25,35.24q.35,5.26.34,10.54v11.12q0,7.26-.38,14.49h0a221.93,221.93,0,0,1-7.39,46.3l-.33,1.22-.65,24V789.6l1,23.33.51,13.35q.13,3.83.56,7.62l.3,2.68a80.86,80.86,0,0,0,1.82,10.25l2.32,9.52-3.43-8.42a107.7,107.7,0,0,1-5.7-18.68l-2.86-13.73-2.26-13.58c-.43-2.61-.77-5.23-1-7.86l-1-11-.65-13.6-7.24,23.35q-1.5,4.83-3.47,9.5l-12,28.38-9.63,24.74q-1.71,4.43-3.7,8.72l-11.62,25.18,5.83-40.17-6.8,12.63,4-18.46a198.8,198.8,0,0,0,3.3-20.26l3.08-28,3.81-26.38q1-7.31,1.51-14.69l.84-13.36-5.83,27.22-7.12,27.71q-2.28,8.89-5.43,17.53l-5.6,15.34-3.88,10.37,4.21,16.52-5.51-14.25-5.18,9.72-3.66,6.54a167,167,0,0,1-12.87,19.7h0l11,8.1,5.22,3.44a171.72,171.72,0,0,1,15.48,11.49l2.55,2.13q3.65,3,7.56,5.68h0q6.12,4.16,12.59,7.75l11.73,6.54c3,1.66,5.91,3.45,8.75,5.34l11.28,7.53,13.94,9.07,1.49,1a181.22,181.22,0,0,1,15.76,12.4h0a54.77,54.77,0,0,1,6.39,6.71l6.16,7.71,5.91,4.76q5.76,4.63,11.06,9.79l7,6.83,5,5.39a80.28,80.28,0,0,1,5.84,7.05l.08.1a45,45,0,0,1,4.63,7.8h0a54.52,54.52,0,0,1,3.56,10.22h0a53.36,53.36,0,0,1,1.32,8.32l.14,1.94a190,190,0,0,1-.14,30.46h0l1.43,9.18q.84,5.4,1.38,10.84l3.35,33.44,5.22,41.26q.93,7.33,1.38,14.72l2.14,35.06.54,31q.12,6.27.64,12.52l2,23.89q.72,8.42.82,16.87l.22,16.82.86,2.79a143.05,143.05,0,0,1,5,22l.34,2.4,4.42,29.52q.77,5.15,1.83,10.24l10.6,51,8.75,47,4.67,25.73a87.13,87.13,0,0,1,1.37,12.79l.11,3.6v37.26l2.21,9.14a169.87,169.87,0,0,1,3.51,19.5l1.33,11c.27,2.26.64,4.52,1.12,6.75l1.51,7.06a134.6,134.6,0,0,1,3,28.09v361.59h0a106.86,106.86,0,0,1-19.64,3.89l-.88.09a151.36,151.36,0,0,1-15.5.8h-14.18l-31-1-21.68-1.2c-2.73-.16-5.45-.38-8.16-.68l-21.7-2.41-11.47-1.77a70.4,70.4,0,0,1-13.9-3.63l-1.39-.53q-3.3-1.23-6.51-2.66l-5.38-2.39H1261a55,55,0,0,1-18-3h0a14.72,14.72,0,0,1-4.09-2.21h0a37.08,37.08,0,0,1-7.54-7.78l-5.39-7.49-5.25-8.11,1-3.34-2.39-6.68-10.5-25.77-13.36-30.06-5.25-13.36-26.72-21-2.75,8.25q-1.54,4.62-2.68,9.38l-1.72,7.18,3.5,39.9q.32,3.52.81,7l6.18,43.26,2.68,22.76a30.07,30.07,0,0,0,.53,3.13l1,4.69a19.94,19.94,0,0,0,1.6,4.5h0a20.32,20.32,0,0,0,4.8,6.21l4.62,4H30.7V1831.2l11.45-24.81L53,1785.15a66,66,0,0,0,4.22-10.36l.72-2.28,2.12-6.7a126.79,126.79,0,0,1,10.77-24.58l4.52-7.91a135.13,135.13,0,0,1,8.94-13.65l10.39-14L97,1688.53l2-11.66q.87-5,1.24-10.14l1.06-14.47,1-1.52a53.12,53.12,0,0,1,11.39-12.31h0l7.16-4.78,3.74-10.86a71.47,71.47,0,0,1,3.59-8.57l5.11-10.21a35.4,35.4,0,0,1,4.58-7l2.73-3.24a45.7,45.7,0,0,1,4.77-4.87l2.52-2.23a26.33,26.33,0,0,1,6.71-4.31h0a29.35,29.35,0,0,1,10.26-2.48l3.23-.18,3.82-10.49,1.54-14.24a31.86,31.86,0,0,1,1.45-6.68l.13-.37a26,26,0,0,1,5.09-8.89l5.38-6.15c.8-.91,1.64-1.79,2.51-2.64l12.33-12A42.27,42.27,0,0,1,207,1513l9.8-6.33a22.33,22.33,0,0,1,2.92-1.59l5.81-2.61a7.85,7.85,0,0,1,4.61-.57l1.3.24a10.25,10.25,0,0,1,2.95,1h0a37,37,0,0,1,8.67,6.46l4.25,4.25,3.34-6.21,11.73-3.55a42.36,42.36,0,0,1,8.2-1.62l.43,0a13.72,13.72,0,0,1,9.7,2.82h0a27.23,27.23,0,0,1,7,8.09l3.52,6.23,8.37,15.55q1.65,3.06,3,6.27l3,7.14a9.38,9.38,0,0,1,.72,4.28l-.05.77a74.84,74.84,0,0,0-.08,8.34l.28,5.85h0a11.69,11.69,0,0,0,7.44,2.15l13.08-.72,8.11-41-13-18.16a100.55,100.55,0,0,0-11.38-13.26l-7.16-7a119.43,119.43,0,0,0-16.32-13.35l-12.12-8.22q-4.41-3-9-5.75l-19.28-11.57-24.54-13.46a86.84,86.84,0,0,0-10.4-4.84l-21.47-8.33c-3.42-1.33-6.89-2.57-10.39-3.69L165.83,1416a177.84,177.84,0,0,0-20.54-5.29l-11.45-2.23a215.26,215.26,0,0,0-25.16-3.35l-3.78-.27q-9.78-.72-19.6-.62l-38.38.38L86.05,1397l50.58-7.64,27.19-3.44q6.69-.86,13.41-1.3l11.76-.78a248.31,248.31,0,0,1,34.61.1h0a98.11,98.11,0,0,1,17.61,2.93l9.25,2.44a96,96,0,0,1,17.89,6.67l4.6,2.26a127,127,0,0,1,25.9,16.91l3,2.55q3.18,2.68,6.16,5.58l6.73,6.54a132.27,132.27,0,0,1,14.49,16.69L337,1457.1l9.54,12.89,3.36-21.65a135,135,0,0,1,6-23.92l5.93-16.94,13.91-43.71q2.79-8.77,4.81-17.77l6.69-29.82q1.78-8,3.07-16l6-37.71q1.31-8.14,2-16.38l4.51-50.47,4-36.27q.79-7.14,2.2-14.2l2.88-14.42,1.91-8.59,5.73-5.73,5.73-27.19,10.49-61.56,2.87-20.52-3.82-3.34,7.78-9.22q5.1-6,10.7-11.64l8.24-8.24L463,922.2l1.92-32.3q.46-7.78,1.51-15.51l4.14-30.54q1-7.54,2.62-15l2.11-9.87a16.84,16.84,0,0,1,2-5.11l1.14-1.9a15.57,15.57,0,0,1,4.47-4.78h0a53.27,53.27,0,0,1,7.24-4.2l4-1.92q3.15-1.51,6.23-3.19h0a88.25,88.25,0,0,0,13.95-9.43h0a11.65,11.65,0,0,1,3.52-2l1.21-.43a24.14,24.14,0,0,1,10.22-1.28h0l1.43-21-3.56-10.68A132,132,0,0,1,523,737l-8.43-42.9q-.93-4.73-1.59-9.5l-8.65-62.65c-.47-3.41-.84-6.82-1.1-10.25l-4.38-58.32L496.89,520l-6.68-26.25-4-17.54a173.68,173.68,0,0,1-3.3-19.5l-3.2-28.81L472.9,447.5q-1.31,3.74-2.92,7.34l-13.17,29.32-13.49,27a138.36,138.36,0,0,1-8.23,14.26L412,560.5l8.84-17.06a210.06,210.06,0,0,0,18.11-49.28l1.44-6.23a216.6,216.6,0,0,0,4-23l5.8-48.44q.91-7.69,1.29-15.44l2-41.65q.52-11.19,2.13-22.31l5.08-35.18,6-39.63q1.65-11,4.21-21.72l7.43-31.28c1-4.09,2.08-8.16,3.31-12.18l2.41-7.89a196,196,0,0,1,16.74-39h0a88.13,88.13,0,0,1-13-21.94l-1.83-4.43a132.25,132.25,0,0,1-5.51-16.33l-1.59-6-1.15-3a129.24,129.24,0,0,1-8.12-38.1h0a31.34,31.34,0,0,1,.83-9.21h0a166.66,166.66,0,0,1,6.94-21.93l2.93-7.41L472,27.39a53.25,53.25,0,0,1-4.69,2.85l-9.92,5.32q-7.22,3.87-14.79,7L431,47.39a64.71,64.71,0,0,1-12.63,3.8l-16.88,3.26a64,64,0,0,1-7.68,1l-36.21,2.59,9.32-1.94a164.58,164.58,0,0,0,31-9.69h0c2.72-1.15,5.39-2.43,8-3.81l7.37-3.91a222.87,222.87,0,0,0,23.31-14.27l7.87-5.51Zm101.28,520.9q-2.08,9.42-3.33,19l-5,38.7q-.84,6.43-2.17,12.79l-10.57,50.73-8.56,53.76-3.59,17.47A173,173,0,0,0,1204,767.7h0q0,9.49.85,19l1.52,16.94q.5,5.46,1.33,10.89l2.49,16,10.36-29.36c.7-2,1.34-4,1.9-6l9.15-33.1,7.42-31.76q1.14-4.87,1.89-9.82l3-19.84q.49-3.28.83-6.58l2.65-26.92q.83-8.31.83-16.66v-24l-1-35.2-.36-26.77c-.08-5.3-.36-10.61-.86-15.89L1243.93,526Zm-32.26,294.39-8.08-23.43q-1.74-5.05-3.14-10.24l-3-11.15a144.8,144.8,0,0,1-3.75-18.69l-2-15.41c-.41-3.07-.73-6.14-1-9.23l-1.63-22.56-3.1,9.13a134.53,134.53,0,0,0-4.1,14.73L1175.44,763l-3.6,20-2.95,15.72-.65,3.16a96.75,96.75,0,0,0-2,19.43v3l0,1.38a103,103,0,0,0,2.16,18l2.06,9.76-6.12-15.6a159.61,159.61,0,0,1-5.74-17.62l-4.18-15.94q-2.31-8.81-3.9-17.79L1146,760.42l-3.16,19.23q-.77,4.68-2,9.27l-3.44,13c-1.05,4-2.28,7.9-3.69,11.76l-2.8,7.63,7.86,9.5,4.26,1,6.55,7.54,5.9,6.22h0a4.36,4.36,0,0,1-1.84,4.12l-2.09,1.45,9.17,5.57,26.53,18,5.12-8.45q2.42-4,4.5-8.17Zm-99.14-45.86q1.44,1.44,2.79,3h0a92.19,92.19,0,0,1,9.85,13.4l6.16,10.21,4.67-14.49c.68-2.11,1.28-4.24,1.82-6.39l1.87-7.47c1.21-4.84,2.17-9.74,2.89-14.67l1.72-11.93a123.91,123.91,0,0,0,1.24-15.27l.15-8.49-.25-17.66c0-2,0-4,.11-6l.74-14.37-6.28,12.87-6.77,15.66a120.82,120.82,0,0,1-6.36,12.6l-6,10.35-10.47,36.51Zm-6-2.45,6.88-23.64-15.56,23.34Zm-447-16.22a14.61,14.61,0,0,0,6.86,2l2.47.08c1.37,0,2.75,0,4.12,0l3.07-.1c1.7-.06,3.41-.06,5.11,0l4.6.18-2.83-7.65a130.54,130.54,0,0,0-5.65-13L672.8,749l-6.94,8.24c-1,1.22-2,2.47-2.93,3.77l-6.56,9.19ZM553.81,658.14l2.65,24.65,2.65,36.3,1,12.87a96.8,96.8,0,0,1,0,14.55h0a143.36,143.36,0,0,1-3.36,22.28l-2.74,11.78,23.32-2.91L602.31,775l-4.77-30.48-2.39-20.6q-.52-4.57-.8-9.17l-1.05-17.93L578.72,678l-8-9.81-11.39-15.37L552,643Z" transform="translate(-28.2)"/></g></g></g></svg>