<svg xmlns="http://www.w3.org/2000/svg" xmlns:xlink="http://www.w3.org/1999/xlink" viewBox="0 0 1457.84 1996.93"><defs><style>.cls-1{fill:none;}.cls-2{font-size:30px;fill:#edc8cf;font-family:MarshMallowPopHeartTTFLight-Regular, MarshMallowPopHeartTTFLight;}.cls-3{fill:#b46d95;}.cls-4{fill:#fff;}.cls-5,.cls-6{fill:url(#新規パターンスウォッチ_1);}.cls-6{stroke:#aa7193;stroke-miterlimit:10;stroke-width:5px;}</style><pattern id="新規パターンスウォッチ_1" data-name="新規パターンスウォッチ 1" width="116.1" height="143.83" patternUnits="userSpaceOnUse" viewBox="0 0 116.1 143.82"><rect class="cls-1" width="116.1" height="143.83"/><text class="cls-2" transform="translate(20.56 134.56) rotate(-50.62)">YUI54♡</text><rect class="cls-1" width="113.49" height="143.83"/></pattern></defs><title>アセット 13</title><g id="レイヤー_2" data-name="レイヤー 2"><g id="レイヤー_2-2" data-name="レイヤー 2"><path class="cls-1" d="M1201.42,742.38l7.42-31.76c.76-3.24,1.39-6.52,1.89-9.81l1-6.52-.68-9.41L1208,694a134.53,134.53,0,0,0-4.1,14.73l-3.28,15.12-3.61,20L1194,759.56l-.65,3.16a96.37,96.37,0,0,0-1.88,15.42c.27-.89.53-1.77.78-2.66Z"/><path class="cls-1" d="M312.37,1437.26l-6.4-4.35,2.87,3.93,8,10.82,1-6.42C316.06,1439.87,314.24,1438.53,312.37,1437.26Z"/><path class="cls-1" d="M1254.72,790.05c.28-2,.55-4.06.78-6.1l3.08-28,3.81-26.38q1-7.31,1.51-14.69l.84-13.36-5.83,27.22-5.06,19.68v20.94Z"/><polygon class="cls-1" points="1176.66 811.97 1177.42 812.43 1177.15 811.63 1176.66 811.97"/><path class="cls-1" d="M528.26,662.52l2.65,36.31,1,12.87a96.8,96.8,0,0,1,.05,14.55,143.36,143.36,0,0,1-3.36,22.28l-2.26,9.72a88.29,88.29,0,0,0,13.16-9,11.65,11.65,0,0,1,3.52-2l1.21-.43a24.14,24.14,0,0,1,10.22-1.28l1.43-21-3.56-10.68a132,132,0,0,1-4.26-16.13l-8.43-42.9q-.93-4.73-1.59-9.5l0-.28-8.79-11.87-5-6.59,1.38,11.23Z"/><path class="cls-1" d="M1200.22,803.53l3.08-28,3.81-26.38q1-7.3,1.52-14.68l.09-1.45-3.14,14.63-7.11,27.72q-2.28,8.89-5.43,17.52l-.93,2.54q.54,4.58,1.49,9.09l2.05,9.76-5.39-13.77-2.82,7.73-3.15,8.38,1.54.94,10.85,7.37.24-1.12A197.9,197.9,0,0,0,1200.22,803.53Z"/><path class="cls-1" d="M1167.15,781.5l-3-11.15c-.65-2.4-1.21-4.81-1.74-7.24q-1.53,5.79-3.6,11.42l-2.79,7.63,7.86,9.5,4.26,1,4.08,4.69-1.93-5.58Q1168.55,786.68,1167.15,781.5Z"/><path class="cls-1" d="M1211.33,834.85l1,.7,5.11-8.45q2.43-4,4.51-8.17l11.67-23.34-3-8.56-9.89,23.46Z"/><path class="cls-1" d="M1233.56,780.18l1.73,11.12,7.47-21.17-.58-6.6-.41-8.74-5.53,17.81C1235.45,775.16,1234.55,777.69,1233.56,780.18Z"/><path class="cls-1" d="M1260,598.92l2.26,35.24q.33,5.26.33,10.53v11.13q0,7.26-.38,14.49a221.93,221.93,0,0,1-7.39,46.3l-.33,1.22-.38,14.3,2.57-9.33,7.43-31.76q1.14-4.87,1.89-9.82l3-19.84c.33-2.19.61-4.38.82-6.58l2.66-26.92q.82-8.31.82-16.66v-24l-.95-35.2-.36-26.77q-.12-8-.86-15.89l-2.11-22.52-3.16,14.36q-2.07,9.42-3.32,19l-5,38.7c-.3,2.34-.66,4.67-1.06,7l1.6,13.26Z"/><path class="cls-1" d="M1150.53,727.66l-3.29,15.12-3.32,18.39c1.12,1.61,2.21,3.25,3.22,4.93l6.17,10.21,4.67-14.49q1-3.17,1.82-6.39l.73-2.92c0-.28-.09-.56-.13-.85l-2.05-15.41q-.61-4.59-.95-9.23l-1.33-18.37-1.45,4.28A134.49,134.49,0,0,0,1150.53,727.66Z"/><path class="cls-1" d="M1183.8,781l-4.18-15.94q-2.26-8.65-3.84-17.47,0,9.4.84,18.78l1.52,16.94q.49,5.46,1.33,10.89l2,12.6,5.46-15.48C1185.76,788,1184.71,784.52,1183.8,781Z"/><path class="cls-3" d="M1248.21,822.67l2.94-5.45c-.34-1.2-.68-2.4-1-3.62Z"/><path class="cls-3" d="M382.69,18.87l.93-.07.37-.2Z"/><path class="cls-3" d="M449.68,3.1l-5.92,4A53.08,53.08,0,0,1,439.08,10l-8.39,4.49L443.46,12c1-.19,2-.42,3-.66.22-.58.43-1.17.66-1.75Z"/><path class="cls-3" d="M1191.56,1934.72l-2.39-6.69-10.49-25.76-13.37-30.06-5.24-13.36-25.35-19.92-2.17,6.51q-1.54,4.62-2.69,9.38l-1.72,7.18,3.51,39.9q.3,3.52.81,7l6.18,43.26,2.67,22.76c.13,1,.3,2.1.53,3.13l.12.52h65.27l-4.62-4a20.24,20.24,0,0,1-4.8-6.22h0a19.22,19.22,0,0,1-1.6-4.49l-1-4.69a30.07,30.07,0,0,1-.53-3.13l-1.69-14.34-2.35-3.62Z"/><path class="cls-3" d="M1242.76,770.13l-7.47,21.17-1.73-11.12c-.26.64-.52,1.29-.79,1.93L1230.7,787l3,8.56L1222,818.93q-2.09,4.17-4.51,8.17l-5.11,8.45-1-.7-.15.38q-1.71,4.42-3.7,8.72l-11.62,25.18.75-5.2-2.7,5.87,5.24-36.13-4.26,7.92,1.06-4.94-3,5.61,3.74-17.35-10.85-7.37-1.54-.94-.74,2,4.21,16.52-5.51-14.25-.16.31,3.72,14.61L1181,823.26l-3.9,7.32-3.65,6.54a169.54,169.54,0,0,1-12.87,19.7h0l11,8.1,5.22,3.44a169.83,169.83,0,0,1,15.48,11.49l2.56,2.13q3.63,3,7.55,5.68,6.12,4.15,12.59,7.75l11.73,6.54c3,1.66,5.91,3.45,8.75,5.34l11.29,7.52,13.93,9.08,1.49,1a181.22,181.22,0,0,1,15.76,12.4,53.34,53.34,0,0,1,6.39,6.71l6.17,7.71,5.9,4.76q5.76,4.63,11.06,9.79l7,6.83,5,5.39a82.21,82.21,0,0,1,5.85,7.05l.07.09a45.5,45.5,0,0,1,4.63,7.81,55.28,55.28,0,0,1,3.57,10.22,52.19,52.19,0,0,1,1.31,8.32l.14,1.93a190.16,190.16,0,0,1-.14,30.47l1.43,9.18q.84,5.4,1.38,10.84l3.35,33.44,5.22,41.26q.93,7.33,1.39,14.72l2.14,35.06.53,31q.12,6.27.64,12.52l2,23.88q.7,8.43.81,16.87L1354,1290l.86,2.79a141.89,141.89,0,0,1,5,22l.34,2.4,4.42,29.52q.76,5.14,1.83,10.24l10.6,51,8.75,47,4.68,25.73a87.12,87.12,0,0,1,1.36,12.79l.11,3.6v37.26l2.21,9.14a167.73,167.73,0,0,1,3.51,19.5l1.33,11c.27,2.26.65,4.51,1.12,6.75l1.51,7.06a134.6,134.6,0,0,1,3,28.09v347.35l3.13.09h14.18a151.35,151.35,0,0,0,15.5-.79l.88-.09a106.86,106.86,0,0,0,19.64-3.89V1597a134.61,134.61,0,0,0-3-28.09l-1.5-7.06c-.48-2.23-.85-4.49-1.13-6.75l-1.32-11a169.87,169.87,0,0,0-3.51-19.5l-2.21-9.14v-37.26l-.11-3.6a87.13,87.13,0,0,0-1.37-12.79l-4.67-25.73-8.75-47-10.61-51q-1.05-5.08-1.83-10.24l-4.41-29.52-.34-2.4a143.05,143.05,0,0,0-4.95-22l-.87-2.79-.21-16.82q-.11-8.46-.82-16.87l-2-23.89q-.52-6.24-.64-12.52l-.54-31-2.14-35.06q-.45-7.38-1.38-14.72l-5.23-41.26-3.34-33.44q-.54-5.44-1.38-10.84l-1.43-9.18a190.16,190.16,0,0,0,.14-30.47l-.15-1.93a52.19,52.19,0,0,0-1.31-8.32,55.25,55.25,0,0,0-3.56-10.22,44.92,44.92,0,0,0-4.64-7.81l-.07-.09a80.28,80.28,0,0,0-5.84-7l-5-5.39-7-6.83q-5.3-5.14-11-9.79l-5.91-4.76-6.17-7.71a53.34,53.34,0,0,0-6.39-6.71,179.58,179.58,0,0,0-15.75-12.4l-1.5-1-13.93-9.08-11.28-7.52c-2.84-1.89-5.76-3.68-8.75-5.34l-11.73-6.54q-6.46-3.6-12.59-7.75c-2.61-1.77-5.14-3.66-7.56-5.68l-2.55-2.13a169.83,169.83,0,0,0-15.48-11.49l-5.22-3.44-11-8.1a167,167,0,0,0,12.87-19.7l3.65-6.54,5.19-9.72,5.51,14.25-4.22-16.52,3.89-10.37,3.13-8.58c-.31-2.07-.57-4.15-.75-6.24Z"/><path class="cls-3" d="M1209.25,539.12l-5,38.7q-.84,6.43-2.17,12.79l-10.57,50.73-8.56,53.76-3.59,17.47a173,173,0,0,0-3.54,34.86h0v.2q1.58,8.8,3.84,17.47L1183.8,781c.91,3.48,2,6.92,3.1,10.32l3.47-9.84c.4-1.12.77-2.25,1.12-3.38a96.37,96.37,0,0,1,1.88-15.42l.65-3.16,2.94-15.72,3.61-20,3.28-15.12A134.53,134.53,0,0,1,1208,694l3.1-9.13.68,9.41,2-13.33c.33-2.18.61-4.38.83-6.58l2.66-26.92q.81-8.31.82-16.66v-24l-1-35.2-.36-26.76q-.11-8-.85-15.9l-1.58-16.76-1.74,7.94Q1210.51,529.54,1209.25,539.12Z"/><path class="cls-3" d="M1195.65,814.26l-2.05-9.76q-.94-4.51-1.49-9.09l-1.85,5.08Z"/><path class="cls-3" d="M220.52,1488.09l1.91-.58,0-.09,11.73-3.55a42.36,42.36,0,0,1,8.2-1.62l.43,0a13.69,13.69,0,0,1,9.7,2.82,27.23,27.23,0,0,1,7,8.09l3.52,6.23,8.37,15.54c1.1,2,2.11,4.14,3,6.28l3,7.14a9.24,9.24,0,0,1,.72,4.28l0,.77a74.84,74.84,0,0,0-.08,8.34l.28,5.84a11.64,11.64,0,0,0,7.44,2.16l11.24-.62,8-40.48-13-18.16a100.55,100.55,0,0,0-11.38-13.26l-6.2-6-1.92,3.58-4.25-4.25a37,37,0,0,0-8.67-6.46,10.25,10.25,0,0,0-3-1l-1.3-.24a7.85,7.85,0,0,0-4.61.57l-5.81,2.61a21.71,21.71,0,0,0-2.92,1.59l-9.81,6.32a43.31,43.31,0,0,0-6.64,5.29l-10.59,10.29,3.19,3.19Z"/><path class="cls-3" d="M149,1364.34l11.75-.78a248.31,248.31,0,0,1,34.61.1,97.23,97.23,0,0,1,17.61,2.93l9.25,2.44a95.75,95.75,0,0,1,17.89,6.67l4.6,2.26a127.31,127.31,0,0,1,25.91,16.91l3,2.55c2.12,1.79,4.18,3.65,6.16,5.58l6.73,6.54a132.35,132.35,0,0,1,14.5,16.69l4.89,6.68,6.4,4.35c1.87,1.27,3.69,2.61,5.48,4l1.94-12.5a134.94,134.94,0,0,1,6-23.91l5.93-16.95,1.27-4q-2.88-2.79-6-5.39l-3-2.55a127,127,0,0,0-25.9-16.91l-4.6-2.26a96,96,0,0,0-17.89-6.67l-9.25-2.44a97.38,97.38,0,0,0-17.61-2.93h0a248.45,248.45,0,0,0-34.62-.1l-11.75.78q-6.72.45-13.41,1.3l-27.19,3.44-50.58,7.64-39.13,7.63,38.38-.38q9.81-.09,19.6.62l3.4.25,2.19-.28Q142.31,1364.79,149,1364.34Z"/><path class="cls-3" d="M1112.62,768.66l-3.44,13q-1.58,6-3.69,11.77l-2.79,7.63,7.86,9.5,4.25,1,6.56,7.54,5.89,6.22a4.36,4.36,0,0,1-1.84,4.12l-2.09,1.45,9.17,5.56,25.43,17.27,4.27-7q2.41-4,4.5-8.17l11.67-23.34-.94-2.74-.77-.46.49-.34-4.93-14.3-4.08-4.69-4.26-1-7.86-9.5,2.79-7.63q2.07-5.62,3.6-11.42-1.12-5.26-1.88-10.6l-.73,2.92q-.81,3.23-1.82,6.39l-4.67,14.49-6.17-10.21c-1-1.68-2.1-3.32-3.22-4.93l-.28,1.59-3,15.72-.65,3.16a96.75,96.75,0,0,0-2,19.43v3l0,1.38a104,104,0,0,0,2.16,18l2.06,9.76-4.41-11.26c.13.72.25,1.45.4,2.17l2.06,9.75-6.12-15.59a160.3,160.3,0,0,1-5.74-17.62l-4.17-15.94q-2.31-8.82-3.91-17.79l-3.67-20.69-2.17,13.17Q1113.84,764.08,1112.62,768.66Z"/><path class="cls-3" d="M565,704.33q-.53-4.58-.8-9.16l-1.05-17.94-14.58-18.81-8-9.81-2.6-3.5,0,.28q.66,4.77,1.59,9.5l8.43,42.9a132,132,0,0,0,4.26,16.13l3.56,10.68-1.43,21a24.14,24.14,0,0,0-10.22,1.28l-1.21.43a11.65,11.65,0,0,0-3.52,2,88.29,88.29,0,0,1-13.16,9l-.48,2.06,23.32-2.92L572.09,755l-4.7-30Z"/><path class="cls-3" d="M634.73,740.79,628.17,750a14.54,14.54,0,0,0,6.86,2l2.47.08c1.38,0,2.75,0,4.13,0l3.06-.1c1.71-.06,3.41-.06,5.11,0l2.37.09-2.55-6.9a129.24,129.24,0,0,0-5.65-13l-.8-1.61L637.66,737Q636.12,738.84,634.73,740.79Z"/><path class="cls-3" d="M459.47,471.51a209.21,209.21,0,0,1-13.56,32.75l-8.83,17.06,23.14-35.1c.71-1.08,1.41-2.18,2.09-3.28l-2.25-8.83Z"/><path class="cls-3" d="M1255.18,823.13c.26,1.38.54,2.75.88,4.1l1.29,5.29.81-1.76-1.25-3.09Q1256,825.42,1255.18,823.13Z"/><polygon class="cls-3" points="1073.4 766.14 1078.9 747.24 1066.46 765.9 1073.4 766.14"/><path class="cls-3" d="M1253.08,823.37l-3.89,26.84,7.79-16.89-2-5C1254.29,826.7,1253.67,825,1253.08,823.37Z"/><path class="cls-3" d="M1101.89,707a118.89,118.89,0,0,1-6.36,12.6l-6,10.35L1079,766.5l2.15,2.15c1,1,1.89,2,2.8,3h0a92.12,92.12,0,0,1,9.84,13.4l5,8.33,3.85-12c.68-2.11,1.28-4.24,1.82-6.38l1.87-7.47a149.3,149.3,0,0,0,2.89-14.68L1111,741a124.23,124.23,0,0,0,1.24-15.28l.16-8.48-.26-17.66q0-3,.11-6l.55-10.65-4.14,8.48Z"/><path class="cls-3" d="M1126.32,14.72q5.39,5.55,10.44,11.41l6.81,7.91q4.34,5,8.4,10.28l12.46,16.13,1.91,2.52a220.81,220.81,0,0,1,19.53,30.92h0a113.91,113.91,0,0,1,6.09,13.87l8.44,23.32,3.5,9q2.65,6.82,4.62,13.9l2.61,9.31q1.57,5.65,2.84,11.39l2.35,10.62a233.71,233.71,0,0,1,3.92,23.21l1.86,15.84,3.89,50.86,4.86,45L1236,374.4l5.18,55.72,3.89,40.18,3.88,34,3.57,29.16,3.91,32.42c.4-2.33.76-4.66,1.06-7l5-38.7q1.25-9.57,3.32-19l3.16-14.36,2.11,22.52q.75,7.92.86,15.89l.36,26.77.95,35.2v24q0,8.34-.82,16.66l-2.66,26.92c-.21,2.2-.49,4.39-.82,6.58l-3,19.84q-.75,4.95-1.89,9.82l-7.43,31.76-2.57,9.33-.27,9.67v6.6l5.06-19.68,5.83-27.22-.84,13.36q-.45,7.38-1.51,14.69l-3.81,26.38-3.08,28c-.23,2-.5,4.07-.78,6.1l.11,2.62.5,13.35q.15,3.83.57,7.62l.29,2.68a80.86,80.86,0,0,0,1.82,10.25l.72,3,2.08-4.5q2-4.31,3.7-8.72l9.62-24.74,12-28.38q2-4.66,3.47-9.5l7.24-23.35.65,13.6,1,11q.35,3.95,1,7.86l2.26,13.58,2.86,13.73a107.7,107.7,0,0,0,5.7,18.68l3.43,8.41-2.33-9.51a80.84,80.84,0,0,1-1.81-10.25l-.3-2.68q-.42-3.79-.56-7.62l-.51-13.35-1-23.33V722.88l.65-24,.33-1.22a222.59,222.59,0,0,0,7.39-46.3q.38-7.23.38-14.49V625.77q0-5.26-.34-10.53L1313.34,580l-1.95-19.76-5.51-45.68-3.56-29.16-3.89-34-3.88-40.18-5.19-55.72-5.18-54.11-4.86-45-3.89-50.87-1.86-15.84q-1.38-11.7-3.92-23.21l-2.35-10.62q-1.26-5.73-2.85-11.39l-2.6-9.31q-2-7.07-4.62-13.9l-3.51-9-8.43-23.32A115.48,115.48,0,0,0,1239.2,75h0a220,220,0,0,0-19.54-30.92l-1.9-2.52L1205.29,25.4q-4.05-5.25-8.39-10.28l-6.81-7.91c-1.37-1.59-2.78-3.15-4.19-4.71h-71.42Z"/><path class="cls-4" d="M377.65,22.35,385,18.44A222.87,222.87,0,0,0,408.33,4.17l2.39-1.67h-1l-3.33,2.33A222.13,222.13,0,0,1,384,18.6l-.37.2-.55.3L375.7,23q-3.92,2.08-8,3.81c-3.41,1.46-6.87,2.78-10.37,4,4.16-1.39,8.28-2.94,12.33-4.66C372.37,25,375,23.73,377.65,22.35Z"/><path class="cls-4" d="M410.7,473.9l1.44-6.23a216.6,216.6,0,0,0,4-23L422,396.2q.93-7.69,1.29-15.44l2-41.65q.52-11.21,2.13-22.31l5.08-35.18,6-39.63q1.65-11,4.21-21.72L450.05,189q1.47-6.15,3.31-12.19l2.41-7.88a196,196,0,0,1,16.74-39,88.31,88.31,0,0,1-13-21.94l-1.82-4.43a132.3,132.3,0,0,1-5.52-16.33l-1.59-6-1.15-3a129.63,129.63,0,0,1-8.12-38.1,31.34,31.34,0,0,1,.83-9.21h0a166.7,166.7,0,0,1,6.95-21.93l2.54-6.43h-1.05l-.88.6-2.56,6.5c-.23.58-.44,1.17-.66,1.75a165.79,165.79,0,0,0-6.29,20.17,31.37,31.37,0,0,0-.83,9.21,129.18,129.18,0,0,0,8.12,38.1l1.15,3,1.59,6a131.69,131.69,0,0,0,5.51,16.33l1.83,4.43a88,88,0,0,0,13,21.94,196.08,196.08,0,0,0-16.74,39.05l-2.41,7.88q-1.85,6-3.31,12.19l-7.43,31.27q-2.55,10.77-4.21,21.72l-6,39.63-5.08,35.18q-1.61,11.1-2.13,22.32l-2,41.65q-.36,7.74-1.29,15.44l-5.8,48.43a216.34,216.34,0,0,1-4,23l-1.44,6.23a210.22,210.22,0,0,1-18.11,49.28l-8.83,17.06,7.49-11.37,3.29-6.36A209.61,209.61,0,0,0,410.7,473.9Z"/><path class="cls-4" d="M531.18,632.58l-7.42-9.81.47,3.88,5,6.59L538,645.11l2.6,3.5,8,9.81,14.58,18.81,1.05,17.94q.27,4.59.8,9.16l2.39,20.6,4.7,30,2-.22-4.77-30.47L567,703.66c-.35-3-.62-6.1-.8-9.16l-1-17.93-14.58-18.82-7.95-9.8Z"/><path class="cls-4" d="M373.25,34.19a64,64,0,0,1-7.68,1l-34.3,2.45-3.86.8,36.21-2.59a64,64,0,0,0,7.68-1l16.88-3.25a66.38,66.38,0,0,0,10-2.77,65.21,65.21,0,0,1-8,2.1Z"/><path class="cls-4" d="M502.57,743.52,499,732.84a130.2,130.2,0,0,1-4.25-16.13l-8.44-42.9q-.93-4.72-1.59-9.5l-8.65-62.65c-.47-3.41-.84-6.82-1.09-10.25l-4.39-58.32-1.91-33.41L462,473.44l-4-17.54a171.4,171.4,0,0,1-3.29-19.5l-3.21-28.81L450,412l2.78,25.05a173.68,173.68,0,0,0,3.3,19.5l3.41,14.95.59,2.6,2.25,8.83,4.43,17.41,1.91,33.4L473,592.07c.25,3.43.62,6.85,1.09,10.25L482.78,665q.66,4.77,1.59,9.5l8.43,42.9a132,132,0,0,0,4.26,16.13l3.56,10.68-1.38,20.24c.63,0,1.27,0,1.9.09Z"/><path class="cls-4" d="M143.74,1549l1.54-14.25a31.93,31.93,0,0,1,1.46-6.67l.12-.37a26,26,0,0,1,5.09-8.89l5.38-6.15c.8-.91,1.64-1.79,2.51-2.64l12.34-12a42.37,42.37,0,0,1,6.64-5.29l9.81-6.32a20.64,20.64,0,0,1,2.92-1.59l5.42-2.44a7.15,7.15,0,0,0-1.57.49l-5.8,2.61a23,23,0,0,0-2.93,1.59l-9.8,6.33a43.45,43.45,0,0,0-6.65,5.28l-12.33,12c-.87.85-1.71,1.73-2.51,2.65l-5.38,6.15a25.9,25.9,0,0,0-5.09,8.88l-.13.38a32.27,32.27,0,0,0-1.45,6.67l-1.54,14.24-3.61,9.93,1.74-.1Z"/><path class="cls-4" d="M1198.88,823.12a200.92,200.92,0,0,0,3.29-20.25l3.09-28,3.8-26.38q1.05-7.32,1.52-14.69l.83-13.36L1208.72,733l-.09,1.45q-.47,7.37-1.52,14.68l-3.81,26.38-3.08,28a197.9,197.9,0,0,1-3.3,20.26l-.24,1.12-3.74,17.35,3-5.61Z"/><path class="cls-4" d="M1158.35,736.25l2.05,15.41c0,.29.09.57.13.85q.75,5.32,1.88,10.6c.53,2.43,1.09,4.84,1.74,7.24l3,11.15q1.39,5.18,3.14,10.25l1.93,5.58,4.93,14.3.28.8.94,2.74-11.67,23.34q-2.09,4.17-4.5,8.17l-4.27,7,1.1.75,5.12-8.45q2.41-4,4.5-8.17l11.67-23.34-8.08-23.43q-1.74-5.05-3.14-10.24l-3-11.15a146.83,146.83,0,0,1-3.74-18.69l-2.06-15.41c-.41-3.07-.72-6.15-1-9.23l-1.63-22.56-1.65,4.85L1157.4,727Q1157.73,731.66,1158.35,736.25Z"/><path class="cls-4" d="M1384,1981.45a151.16,151.16,0,0,1-15.49.79h-14.18l-31-1-21.68-1.2c-2.72-.16-5.44-.38-8.16-.68l-21.69-2.41-11.47-1.77a70.31,70.31,0,0,1-13.91-3.63l-1.39-.53q-3.3-1.23-6.51-2.66l-5.37-2.39h-.28a55,55,0,0,1-18-3,14.86,14.86,0,0,1-4.09-2.21h0a37.84,37.84,0,0,1-7.54-7.78l-5.39-7.49-5.24-8.11,1-3.34-2.39-6.68-10.49-25.77-13.36-30.06-5.25-13.36-26.72-21-.58,1.74,25.35,19.92,5.24,13.36,13.37,30.06,10.49,25.76,2.39,6.69-1,3.34,2.35,3.62,2.9,4.49,5.39,7.48a37.08,37.08,0,0,0,7.54,7.78,14.6,14.6,0,0,0,4.09,2.21,54.69,54.69,0,0,0,18,3h.27l5.38,2.38c2.14,1,4.31,1.84,6.51,2.67l1.39.52a69.74,69.74,0,0,0,13.9,3.64l11.47,1.76,21.7,2.41q4.07.45,8.16.68l21.68,1.2,31,1h14.18a154.25,154.25,0,0,0,15.5-.79l.88-.09a108.38,108.38,0,0,0,19.64-3.89V1978a107.41,107.41,0,0,1-17.68,3.33Z"/><path class="cls-4" d="M14,1786.13l10.82-21.24A68,68,0,0,0,29,1754.53l.71-2.28,2.12-6.7A126.82,126.82,0,0,1,42.6,1721l4.52-7.91a133.93,133.93,0,0,1,8.93-13.65l10.39-14,2.39-17.18,2-11.66q.86-5,1.23-10.14L73.12,1632l1-1.52a53.17,53.17,0,0,1,11.4-12.31l7.15-4.78,3.74-10.86A69.93,69.93,0,0,1,100,1594l5.1-10.22a35.78,35.78,0,0,1,4.58-7l2.73-3.24a46.76,46.76,0,0,1,4.77-4.88l2.52-2.22a26.5,26.5,0,0,1,6.71-4.31c.49-.22,1-.41,1.47-.6a29.82,29.82,0,0,0-3.42,1.26,26.33,26.33,0,0,0-6.71,4.31l-2.52,2.23a44.88,44.88,0,0,0-4.77,4.88l-2.73,3.24a35.78,35.78,0,0,0-4.58,7l-5.1,10.21a70.59,70.59,0,0,0-3.6,8.57l-3.74,10.87-7.15,4.77a53.2,53.2,0,0,0-11.4,12.32l-1,1.52-1.06,14.46q-.37,5.1-1.24,10.14l-2,11.66-2.38,17.18-10.39,14a136.18,136.18,0,0,0-8.93,13.65l-4.53,7.92a126.43,126.43,0,0,0-10.77,24.57l-2.12,6.7-.71,2.28a66.62,66.62,0,0,1-4.23,10.36L12,1786.79.55,1811.61v182.82h2V1810.94Z"/><polygon class="cls-4" points="1075.14 766.2 1082.02 742.56 1078.9 747.24 1073.4 766.14 1075.14 766.2"/><polygon class="cls-4" points="1185.81 835.78 1182.09 821.17 1180.97 823.26 1185.81 835.78"/><polygon class="cls-4" points="1199.15 833.67 1193.91 869.8 1196.62 863.93 1201.69 828.96 1199.15 833.67"/><path class="cls-4" d="M1124.35,784.69l4.17,15.94a160.3,160.3,0,0,0,5.74,17.62l6.12,15.59-2.06-9.75c-.15-.72-.27-1.45-.4-2.17l-1.7-4.34a155.5,155.5,0,0,1-5.74-17.62L1126.3,784q-2.31-8.81-3.91-17.79l-4.63-26.07-1,6.05,3.67,20.69Q1122,775.87,1124.35,784.69Z"/><path class="cls-4" d="M1255.18,823.13a106.31,106.31,0,0,1-4-14.14l-2.86-13.73-2.27-13.59q-.64-3.9-1-7.85l-1-11-.64-13.61-1.72,5.54.41,8.74.58,6.6.38,4.35c.18,2.09.44,4.17.75,6.24.08.54.15,1.08.24,1.62l2.27,13.59,2.85,13.72c.28,1.33.6,2.64.92,4s.64,2.42,1,3.62c.59,2.07,1.22,4.12,1.93,6.15.59,1.67,1.21,3.33,1.88,5l2,5,1.4,3.43-1-4.23-1.29-5.29C1255.72,825.88,1255.44,824.51,1255.18,823.13Z"/><path class="cls-4" d="M325.77,1404.83a134.94,134.94,0,0,0-6,23.91l-1.94,12.5-1,6.42,1.52,2.07,3.36-21.65a135,135,0,0,1,6-23.92l5.93-16.94,13.91-43.71q2.79-8.77,4.81-17.77l6.7-29.82q1.79-8,3.07-16l6-37.71q1.31-8.15,2-16.38l4.51-50.47,4-36.27q.78-7.14,2.19-14.2l2.89-14.42,1.91-8.59,5.72-5.73,5.73-27.19,10.5-61.56,2.86-20.52-3.82-3.34,7.78-9.22q5.1-6,10.7-11.65l8.24-8.23,1.43-52.49,1.93-32.31q.47-7.77,1.51-15.5l4.13-30.54q1-7.55,2.62-15l2.11-9.87a16.84,16.84,0,0,1,2-5.11l1.14-1.9a15.57,15.57,0,0,1,4.47-4.78,53.27,53.27,0,0,1,7.24-4.2l4-1.93c2.11-1,4.18-2.06,6.23-3.18h0a89.49,89.49,0,0,0,14-9.43,11.49,11.49,0,0,1,3.51-2l.06,0-.8.25-1.21.43a11.31,11.31,0,0,0-3.51,2,89.43,89.43,0,0,1-14,9.42c-2.05,1.12-4.12,2.18-6.23,3.19l-4,1.93a52.24,52.24,0,0,0-7.24,4.2,15.43,15.43,0,0,0-4.47,4.77l-1.14,1.9a16.84,16.84,0,0,0-2,5.11l-2.11,9.88q-1.6,7.44-2.62,15l-4.14,30.55q-1,7.71-1.51,15.5l-1.92,32.3-1.43,52.49-8.24,8.24q-5.6,5.59-10.7,11.65l-7.78,9.22,3.82,3.34-2.87,20.52-10.49,61.55-5.73,27.2-5.73,5.72-1.9,8.59-2.89,14.42q-1.41,7.05-2.2,14.21l-4,36.27-4.51,50.46q-.74,8.24-2,16.39l-6,37.71q-1.28,8-3.07,16l-6.69,29.82q-2,9-4.81,17.76L333,1383.89l-1.27,4Z"/><polygon class="cls-4" points="218.1 1492.59 219.13 1493.63 222.43 1487.51 220.52 1488.09 218.1 1492.59"/><path class="cls-4" d="M649.62,745.11l2.55,6.9,2.23.08-2.83-7.64a130.47,130.47,0,0,0-5.64-13l-1.33-2.66-1.43,1.71.8,1.61A129.24,129.24,0,0,1,649.62,745.11Z"/><path class="cls-4" d="M1216.75,544.84l.36,26.76,1,35.2v24q0,8.34-.82,16.66l-2.66,26.92c-.22,2.2-.5,4.4-.83,6.58l-2,13.33-1,6.52c-.5,3.29-1.13,6.57-1.89,9.81l-7.42,31.76-9.15,33.1c-.25.89-.51,1.77-.78,2.66-.35,1.13-.72,2.26-1.12,3.38l-3.47,9.84-5.46,15.48.52,3.38,10.36-29.36c.71-2,1.34-4,1.9-6l9.15-33.1,7.42-31.76q1.14-4.87,1.89-9.82l3-19.84c.34-2.19.61-4.38.83-6.58l2.66-26.92q.81-8.31.82-16.66v-24l-1-35.21-.37-26.76q-.1-8-.85-15.89l-2.11-22.52-1.42,6.42,1.58,16.76Q1216.64,536.88,1216.75,544.84Z"/><path class="cls-4" d="M1112.14,699.53l.26,17.66-.16,8.48A124.23,124.23,0,0,1,1111,741l-1.72,11.92a149.3,149.3,0,0,1-2.89,14.68l-1.87,7.47c-.54,2.14-1.14,4.27-1.82,6.38l-3.85,12,1.13,1.88,4.67-14.49q1-3.16,1.82-6.39l1.87-7.47c1.21-4.84,2.17-9.74,2.89-14.67l1.72-11.93a122,122,0,0,0,1.24-15.28l.16-8.48-.26-17.66c0-2,0-4,.11-6l.75-14.37-2.15,4.39-.55,10.65Q1112.1,696.54,1112.14,699.53Z"/><path class="cls-4" d="M292,1490.44l13,18.16-8,40.48,1.84-.1,8.11-41-13-18.16a99.91,99.91,0,0,0-11.38-13.26l-7.15-7a120.12,120.12,0,0,0-16.33-13.35L246.93,1448q-4.41-3-9-5.74l-19.28-11.57-24.55-13.46a86.7,86.7,0,0,0-10.39-4.84L162.25,1404q-5.15-2-10.4-3.69l-14.22-4.58a175.83,175.83,0,0,0-20.54-5.29l-11.45-2.23a215,215,0,0,0-25.16-3.35l-3.78-.27q-9.78-.72-19.59-.62l-36.85.37-3.49.68,38.39-.38q9.8-.11,19.59.61l3.78.28a210.8,210.8,0,0,1,25.16,3.35l11.45,2.22a177.84,177.84,0,0,1,20.54,5.29L149.9,1401q5.25,1.69,10.4,3.69l21.46,8.33a88.42,88.42,0,0,1,10.4,4.84l24.55,13.46L236,1442.87q4.59,2.75,9,5.75l12.12,8.23a119.38,119.38,0,0,1,16.33,13.35l.95.93,6.2,6A100.55,100.55,0,0,1,292,1490.44Z"/><path class="cls-5" d="M499.19,765.18l.05-.76a24.33,24.33,0,0,0-8.32,1.37l-1.15.41A24,24,0,0,1,499.19,765.18Z"/><path class="cls-5" d="M1193,792.87q3.14-8.61,5.43-17.52l7.11-27.72,3.14-14.63.74-11.92-5.83,27.22L1196.52,776q-2,7.93-4.78,15.65c.11,1.25.22,2.5.37,3.75Z"/><path class="cls-5" d="M1254.14,816.07l.88-6-1.25,2.32c0,.65.1,1.3.17,1.94Z"/><path class="cls-5" d="M1234.29,773.27q-.58,1.86-1.23,3.69l.5,3.22c1-2.49,1.89-5,2.68-7.58l5.53-17.81-.23-4.87Z"/><path class="cls-5" d="M357.33,30.82a166,166,0,0,1-18.65,5l-9.32,1.94,1.91-.14,5.46-1.13A164.43,164.43,0,0,0,357.33,30.82Z"/><path class="cls-5" d="M442.75,427.9q-1.31,3.74-2.92,7.35l-13.17,29.31-13.49,27a136.28,136.28,0,0,1-8.23,14.26L389.3,529.54l-5.54,10.7,23.14-35.1a140.13,140.13,0,0,0,8.22-14.26l13.49-27,13.17-29.32c1.08-2.4,2.06-4.85,2.92-7.35L450,412l-.42-3.75Z"/><path class="cls-5" d="M1255.22,572.41l.89,7.41,2,19.77,2.25,35.23q.35,5.26.34,10.54v11.13q0,7.25-.38,14.49h0a221.83,221.83,0,0,1-7.39,46.29l-.33,1.22-.58,21.39,2.15-7.75.38-14.3.33-1.22a221.93,221.93,0,0,0,7.39-46.3q.39-7.23.38-14.49V644.69q0-5.27-.33-10.53L1260,598.92l-1.94-19.76-1.6-13.26c-.34,1.94-.7,3.87-1.1,5.79Z"/><path class="cls-5" d="M1251.9,770l1,23.32.24,6.36c.62-3.2,1.15-6.41,1.61-9.64l-.87-20.71V748.4l-1.95,7.6Z"/><path class="cls-5" d="M1402.56,1978c.65-.18,1.3-.36,2-.56v-14.24l-2-.06Z"/><polygon class="cls-5" points="1218.86 811.15 1209.99 833.94 1211.33 834.85 1220.81 810.49 1230.7 787.03 1229.94 784.85 1218.86 811.15"/><polygon class="cls-5" points="1260.33 836.08 1258.73 829.53 1258.16 830.76 1260.33 836.08"/><path class="cls-5" d="M1190.26,800.49l-.72-1.83c-.06-.14-.11-.29-.16-.44l-3.9,10.67-2.57,6.87,1.38.84,3.15-8.38Z"/><path class="cls-5" d="M427.2,16q-7.21,3.87-14.79,7l-11.6,4.82c-.88.36-1.77.7-2.66,1,1.55-.52,3.1-1.07,4.61-1.7l11.6-4.81q7.56-3.13,14.79-7l1.54-.83-1.11.22Z"/><polygon class="cls-5" points="305.96 1432.91 301.12 1429.62 306.89 1437.51 316.43 1450.39 316.86 1447.66 308.84 1436.84 305.96 1432.91"/><path class="cls-5" d="M526.36,758.25l2.26-9.72A143.36,143.36,0,0,0,532,726.25a96.8,96.8,0,0,0-.05-14.55l-1-12.87-2.65-36.31-2.65-24.64-1.38-11.23-2.42-3.21,1.85,15.1,2.65,24.65,2.65,36.3,1,12.87a96.81,96.81,0,0,1,0,14.55h0a143.18,143.18,0,0,1-3.36,22.28l-2.37,10.19,1.27-.67Z"/><path class="cls-5" d="M1178.14,783.35l-1.52-16.94q-.82-9.37-.84-18.78l-.06-.32-1.61-9c-.18,3.28-.29,6.55-.29,9.83q0,9.49.85,19l1.52,16.94c.33,3.64.77,7.28,1.33,10.89l1.54,9.89,1.53,1.61a4.35,4.35,0,0,1-.8,3.08l.22,1.4,1.43-4-2-12.6Q1178.63,788.81,1178.14,783.35Z"/><path class="cls-5" d="M1139.89,1978.74l1,4.69a19.36,19.36,0,0,0,1.59,4.49,20.32,20.32,0,0,0,4.8,6.21l.34.3h2.71l-1.1-1a20.24,20.24,0,0,1-4.8-6.22,19.2,19.2,0,0,1-1.59-4.49l-.93-4.17h-2.1A.8.8,0,0,1,1139.89,1978.74Z"/><path class="cls-5" d="M200,1482.32l1.3.23a10,10,0,0,1,2.95,1,37.27,37.27,0,0,1,8.67,6.45l.65.65,1.33-1.29,0,0a37.27,37.27,0,0,0-8.67-6.45,10.25,10.25,0,0,0-3-1l-1.29-.24a7.89,7.89,0,0,0-4.62.57l-.38.17A7.59,7.59,0,0,1,200,1482.32Z"/><path class="cls-5" d="M138,1560.14l.21-.57-1.49.08a29.39,29.39,0,0,0-8.79,1.88,29.39,29.39,0,0,1,6.84-1.21Z"/><path class="cls-5" d="M106.48,1369.75l27.19-3.45c.62-.08,1.24-.13,1.86-.21l-1.72-.15-.38,0-25,3.16-50.58,7.64-39.13,7.63h1.54l35.64-7Z"/><path class="cls-5" d="M1147.24,742.78l3.29-15.12a134.49,134.49,0,0,1,4.09-14.73l1.45-4.28-.3-4.18-3.1,9.12a134,134,0,0,0-4.09,14.74l-3.29,15.11-2.82,15.66c.5.68,1,1.38,1.45,2.07Z"/><path class="cls-3" d="M1256.19,816.32l-.29-2.68q-.42-3.79-.57-7.62l-.5-13.35-.11-2.62c-.46,3.23-1,6.44-1.61,9.64l.27,7c.07,1.89.21,3.79.39,5.67L1255,810l-.88,6,.1.92c.23,2.06.55,4.11.94,6.14q.81,2.29,1.73,4.54l1.25,3.09.57-1.23-.72-3A80.86,80.86,0,0,1,1256.19,816.32Z"/><path class="cls-5" d="M1256.19,816.32l-.29-2.68q-.42-3.79-.57-7.62l-.5-13.35-.11-2.62c-.46,3.23-1,6.44-1.61,9.64l.27,7c.07,1.89.21,3.79.39,5.67L1255,810l-.88,6,.1.92c.23,2.06.55,4.11.94,6.14q.81,2.29,1.73,4.54l1.25,3.09.57-1.23-.72-3A80.86,80.86,0,0,1,1256.19,816.32Z"/><path class="cls-3" d="M1141.31,1974.94l-2.67-22.76-6.18-43.26q-.51-3.5-.81-7l-3.51-39.9,1.72-7.18q1.14-4.75,2.69-9.38l2.17-6.51-1.38-1.08-2.75,8.25q-1.54,4.64-2.68,9.38l-1.72,7.18,3.5,39.91q.32,3.51.81,7l6.18,43.27,2.68,22.75c.12,1,.29,2,.5,3h2.1l-.12-.52C1141.61,1977,1141.44,1976,1141.31,1974.94Z"/><path class="cls-5" d="M1141.31,1974.94l-2.67-22.76-6.18-43.26q-.51-3.5-.81-7l-3.51-39.9,1.72-7.18q1.14-4.75,2.69-9.38l2.17-6.51-1.38-1.08-2.75,8.25q-1.54,4.64-2.68,9.38l-1.72,7.18,3.5,39.91q.32,3.51.81,7l6.18,43.27,2.68,22.75c.12,1,.29,2,.5,3h2.1l-.12-.52C1141.61,1977,1141.44,1976,1141.31,1974.94Z"/><path class="cls-3" d="M1134.81,26.8l6.81,7.9q4.34,5,8.4,10.28l12.46,16.13,1.91,2.53a220.81,220.81,0,0,1,19.53,30.92h0a113.1,113.1,0,0,1,6.09,13.86l8.43,23.32,3.51,9q2.65,6.84,4.62,13.9l2.61,9.31q1.58,5.65,2.84,11.4l2.35,10.62q2.54,11.49,3.92,23.21l1.86,15.83,3.89,50.87,4.86,45,5.18,54.11,5.19,55.73,3.89,40.17,3.88,34,3.57,29.16,4.61,38.27.15-.72c.4-1.92.76-3.85,1.1-5.79l-3.91-32.42L1249,504.32l-3.88-34-3.89-40.18L1236,374.4l-5.19-54.11-4.86-45-3.89-50.86-1.86-15.84a233.71,233.71,0,0,0-3.92-23.21L1214,174.72q-1.26-5.73-2.84-11.39l-2.61-9.31q-2-7.07-4.62-13.9l-3.5-9L1192,107.76a113.91,113.91,0,0,0-6.09-13.87h0A220.81,220.81,0,0,0,1166.34,63l-1.91-2.52L1152,44.32q-4.07-5.25-8.4-10.28l-6.81-7.91q-5.05-5.85-10.44-11.41L1114.48,2.5h-2.59l12.48,12.88Q1129.76,20.95,1134.81,26.8Z"/><path class="cls-5" d="M1134.81,26.8l6.81,7.9q4.34,5,8.4,10.28l12.46,16.13,1.91,2.53a220.81,220.81,0,0,1,19.53,30.92h0a113.1,113.1,0,0,1,6.09,13.86l8.43,23.32,3.51,9q2.65,6.84,4.62,13.9l2.61,9.31q1.58,5.65,2.84,11.4l2.35,10.62q2.54,11.49,3.92,23.21l1.86,15.83,3.89,50.87,4.86,45,5.18,54.11,5.19,55.73,3.89,40.17,3.88,34,3.57,29.16,4.61,38.27.15-.72c.4-1.92.76-3.85,1.1-5.79l-3.91-32.42L1249,504.32l-3.88-34-3.89-40.18L1236,374.4l-5.19-54.11-4.86-45-3.89-50.86-1.86-15.84a233.71,233.71,0,0,0-3.92-23.21L1214,174.72q-1.26-5.73-2.84-11.39l-2.61-9.31q-2-7.07-4.62-13.9l-3.5-9L1192,107.76a113.91,113.91,0,0,0-6.09-13.87h0A220.81,220.81,0,0,0,1166.34,63l-1.91-2.52L1152,44.32q-4.07-5.25-8.4-10.28l-6.81-7.91q-5.05-5.85-10.44-11.41L1114.48,2.5h-2.59l12.48,12.88Q1129.76,20.95,1134.81,26.8Z"/><polygon class="cls-3" points="1195.95 836.65 1194.89 841.59 1199.15 833.67 1199.74 829.62 1195.95 836.65"/><polygon class="cls-5" points="1195.95 836.65 1194.89 841.59 1199.15 833.67 1199.74 829.62 1195.95 836.65"/><path class="cls-3" d="M1209.23,835.9q-1.71,4.41-3.7,8.71l-8.92,19.32-.75,5.2L1207.48,844q2-4.31,3.7-8.72l.15-.38-1.34-.91Z"/><path class="cls-5" d="M1209.23,835.9q-1.71,4.41-3.7,8.71l-8.92,19.32-.75,5.2L1207.48,844q2-4.31,3.7-8.72l.15-.38-1.34-.91Z"/><path class="cls-3" d="M1230.82,782.77l-.88,2.08.76,2.18,2.07-4.92c.27-.64.53-1.29.79-1.93l-.5-3.22C1232.37,778.92,1231.63,780.86,1230.82,782.77Z"/><path class="cls-5" d="M1230.82,782.77l-.88,2.08.76,2.18,2.07-4.92c.27-.64.53-1.29.79-1.93l-.5-3.22C1232.37,778.92,1231.63,780.86,1230.82,782.77Z"/><path class="cls-3" d="M1079.23,769.31c1,1,1.89,2,2.8,3h0a92.78,92.78,0,0,1,9.84,13.39L1098,795.9l.82-2.55-5-8.33a92.12,92.12,0,0,0-9.84-13.4h0c-.91-1-1.84-2-2.8-3L1079,766.5,1089.51,730l6-10.35a118.89,118.89,0,0,0,6.36-12.6l6.77-15.66,4.14-8.48.19-3.72-6.28,12.87-6.77,15.65a119.84,119.84,0,0,1-6.36,12.6l-6,10.35-10.47,36.52Z"/><path class="cls-5" d="M1079.23,769.31c1,1,1.89,2,2.8,3h0a92.78,92.78,0,0,1,9.84,13.39L1098,795.9l.82-2.55-5-8.33a92.12,92.12,0,0,0-9.84-13.4h0c-.91-1-1.84-2-2.8-3L1079,766.5,1089.51,730l6-10.35a118.89,118.89,0,0,0,6.36-12.6l6.77-15.66,4.14-8.48.19-3.72-6.28,12.87-6.77,15.65a119.84,119.84,0,0,1-6.36,12.6l-6,10.35-10.47,36.52Z"/><polygon class="cls-3" points="1251.9 742.47 1251.9 756 1253.86 748.4 1253.86 741.8 1254.12 732.13 1251.97 739.88 1251.9 742.47"/><polygon class="cls-5" points="1251.9 742.47 1251.9 756 1253.86 748.4 1253.86 741.8 1254.12 732.13 1251.97 739.88 1251.9 742.47"/><path class="cls-3" d="M1180.59,806.4l-1.53-1.61.73,4.69A4.35,4.35,0,0,0,1180.59,806.4Z"/><path class="cls-5" d="M1180.59,806.4l-1.53-1.61.73,4.69A4.35,4.35,0,0,0,1180.59,806.4Z"/><polygon class="cls-3" points="1073.4 766.14 1066.46 765.9 1078.9 747.24 1080.07 743.22 1064.51 766.57 1073.19 766.87 1073.4 766.14"/><polygon class="cls-5" points="1073.4 766.14 1066.46 765.9 1078.9 747.24 1080.07 743.22 1064.51 766.57 1073.19 766.87 1073.4 766.14"/><path class="cls-3" d="M1175.72,747.31l.06.32v-.2h0a173,173,0,0,1,3.54-34.86l3.59-17.47,8.56-53.76L1202,590.61q1.34-6.36,2.17-12.79l5-38.7q1.26-9.57,3.33-19l1.74-7.94-.54-5.75-3.15,14.35q-2.09,9.44-3.33,19l-5,38.69q-.84,6.43-2.17,12.79L1189.52,642,1181,695.76l-3.59,17.48a173.19,173.19,0,0,0-3.26,25Z"/><path class="cls-5" d="M1175.72,747.31l.06.32v-.2h0a173,173,0,0,1,3.54-34.86l3.59-17.47,8.56-53.76L1202,590.61q1.34-6.36,2.17-12.79l5-38.7q1.26-9.57,3.33-19l1.74-7.94-.54-5.75-3.15,14.35q-2.09,9.44-3.33,19l-5,38.69q-.84,6.43-2.17,12.79L1189.52,642,1181,695.76l-3.59,17.48a173.19,173.19,0,0,0-3.26,25Z"/><path class="cls-3" d="M1132.5,836.45l-9.17-5.56,2.09-1.45a4.36,4.36,0,0,0,1.84-4.12l-5.89-6.22-6.56-7.54-4.25-1-7.86-9.5,2.79-7.63q2.12-5.79,3.69-11.77l3.44-13q1.22-4.59,2-9.28l2.17-13.17-1-5.39-3.16,19.23c-.51,3.12-1.17,6.22-2,9.27l-3.44,13q-1.57,6-3.69,11.76l-2.8,7.64,7.87,9.49,4.25,1,6.55,7.53,5.9,6.22a4.38,4.38,0,0,1-1.84,4.13l-2.09,1.44,9.17,5.57,26.53,18,.85-1.41Z"/><path class="cls-5" d="M1132.5,836.45l-9.17-5.56,2.09-1.45a4.36,4.36,0,0,0,1.84-4.12l-5.89-6.22-6.56-7.54-4.25-1-7.86-9.5,2.79-7.63q2.12-5.79,3.69-11.77l3.44-13q1.22-4.59,2-9.28l2.17-13.17-1-5.39-3.16,19.23c-.51,3.12-1.17,6.22-2,9.27l-3.44,13q-1.57,6-3.69,11.76l-2.8,7.64,7.87,9.49,4.25,1,6.55,7.53,5.9,6.22a4.38,4.38,0,0,1-1.84,4.13l-2.09,1.44,9.17,5.57,26.53,18,.85-1.41Z"/><path class="cls-3" d="M278.3,1547.54l-.28-5.84a74.84,74.84,0,0,1,.08-8.34l0-.77a9.24,9.24,0,0,0-.72-4.28l-3-7.14c-.9-2.14-1.91-4.23-3-6.28L263,1499.35l-3.52-6.23a27.23,27.23,0,0,0-7-8.09,13.69,13.69,0,0,0-9.7-2.82l-.43,0a42.36,42.36,0,0,0-8.2,1.62l-11.73,3.55,0,.09,9.82-3a41.61,41.61,0,0,1,8.2-1.61l.43,0a13.62,13.62,0,0,1,9.7,2.82,27.07,27.07,0,0,1,7,8.08l3.52,6.24,8.37,15.54c1.1,2,2.11,4.14,3,6.27l3,7.15a9.35,9.35,0,0,1,.72,4.28l-.05.76a74.86,74.86,0,0,0-.08,8.34l.28,5.85a11.76,11.76,0,0,0,7.44,2.16l13.08-.73.11-.56-11.24.62A11.64,11.64,0,0,1,278.3,1547.54Z"/><path class="cls-5" d="M278.3,1547.54l-.28-5.84a74.84,74.84,0,0,1,.08-8.34l0-.77a9.24,9.24,0,0,0-.72-4.28l-3-7.14c-.9-2.14-1.91-4.23-3-6.28L263,1499.35l-3.52-6.23a27.23,27.23,0,0,0-7-8.09,13.69,13.69,0,0,0-9.7-2.82l-.43,0a42.36,42.36,0,0,0-8.2,1.62l-11.73,3.55,0,.09,9.82-3a41.61,41.61,0,0,1,8.2-1.61l.43,0a13.62,13.62,0,0,1,9.7,2.82,27.07,27.07,0,0,1,7,8.08l3.52,6.24,8.37,15.54c1.1,2,2.11,4.14,3,6.27l3,7.15a9.35,9.35,0,0,1,.72,4.28l-.05.76a74.86,74.86,0,0,0-.08,8.34l.28,5.85a11.76,11.76,0,0,0,7.44,2.16l13.08-.73.11-.56-11.24.62A11.64,11.64,0,0,1,278.3,1547.54Z"/><path class="cls-3" d="M1140.27,823.42a104,104,0,0,1-2.16-18l0-1.38v-3a96.75,96.75,0,0,1,2-19.43l.65-3.16,3-15.72.28-1.59c-.48-.69-1-1.39-1.45-2.07l-.78,4.32-3,15.73-.65,3.15a96.92,96.92,0,0,0-2,19.44v3l0,1.38a102.92,102.92,0,0,0,1.76,15.85l4.41,11.26Z"/><path class="cls-5" d="M1140.27,823.42a104,104,0,0,1-2.16-18l0-1.38v-3a96.75,96.75,0,0,1,2-19.43l.65-3.16,3-15.72.28-1.59c-.48-.69-1-1.39-1.45-2.07l-.78,4.32-3,15.73-.65,3.15a96.92,96.92,0,0,0-2,19.44v3l0,1.38a102.92,102.92,0,0,0,1.76,15.85l4.41,11.26Z"/><path class="cls-3" d="M443.76,7.13l5.92-4,.24-.6h-.34l-7.77,5.3a49.55,49.55,0,0,1-4.69,2.84l-7.54,4,1.11-.22L439.08,10A53.08,53.08,0,0,0,443.76,7.13Z"/><path class="cls-5" d="M443.76,7.13l5.92-4,.24-.6h-.34l-7.77,5.3a49.55,49.55,0,0,1-4.69,2.84l-7.54,4,1.11-.22L439.08,10A53.08,53.08,0,0,0,443.76,7.13Z"/><path class="cls-3" d="M525.88,760.31l.48-2.06-.79.46-1.27.67-.37,1.59,23.32-2.91,24.91-2.65-.07-.45-22.89,2.43Z"/><path class="cls-5" d="M525.88,760.31l.48-2.06-.79.46-1.27.67-.37,1.59,23.32-2.91,24.91-2.65-.07-.45-22.89,2.43Z"/><path class="cls-3" d="M1190.26,800.49l1.85-5.08c-.15-1.25-.26-2.5-.37-3.75-.22.63-.43,1.26-.66,1.88l-1.7,4.68c0,.15.1.3.16.44Z"/><path class="cls-5" d="M1190.26,800.49l1.85-5.08c-.15-1.25-.26-2.5-.37-3.75-.22.63-.43,1.26-.66,1.88l-1.7,4.68c0,.15.1.3.16.44Z"/><path class="cls-3" d="M1401.55,1587.79l-1.51-7.06c-.47-2.24-.85-4.49-1.12-6.75l-1.33-11a167.73,167.73,0,0,0-3.51-19.5l-2.21-9.14V1497l-.11-3.6a87.12,87.12,0,0,0-1.36-12.79l-4.68-25.73-8.75-47-10.6-51q-1.06-5.09-1.83-10.24l-4.42-29.52-.34-2.4a141.89,141.89,0,0,0-5-22L1354,1290l-.22-16.83q-.11-8.45-.81-16.87l-2-23.88q-.53-6.26-.64-12.52l-.53-31-2.14-35.06q-.46-7.38-1.39-14.72l-5.22-41.26-3.35-33.44q-.54-5.45-1.38-10.84l-1.43-9.18a190.16,190.16,0,0,0,.14-30.47l-.14-1.93a52.19,52.19,0,0,0-1.31-8.32,55.28,55.28,0,0,0-3.57-10.22,45.5,45.5,0,0,0-4.63-7.81l-.07-.09a82.21,82.21,0,0,0-5.85-7.05l-5-5.39-7-6.83q-5.29-5.14-11.06-9.79l-5.9-4.76L1284.3,944a53.34,53.34,0,0,0-6.39-6.71,181.22,181.22,0,0,0-15.76-12.4l-1.49-1-13.93-9.08-11.29-7.52c-2.84-1.89-5.76-3.68-8.75-5.34L1215,895.41q-6.46-3.6-12.59-7.75-3.91-2.65-7.55-5.68l-2.56-2.13a169.83,169.83,0,0,0-15.48-11.49l-5.22-3.44-11-8.1h0a169.54,169.54,0,0,0,12.87-19.7l3.65-6.54,3.9-7.32-.67-1.74-5.18,9.72-3.65,6.55a167.38,167.38,0,0,1-12.88,19.69h0l11,8.1,5.22,3.44a173.64,173.64,0,0,1,15.48,11.49l2.55,2.13q3.65,3,7.56,5.69,6.12,4.14,12.59,7.75l11.73,6.53q4.48,2.5,8.75,5.35l11.29,7.52,13.93,9.07,1.49,1.05A177.46,177.46,0,0,1,1276,938a54.06,54.06,0,0,1,6.39,6.71l6.16,7.7,5.91,4.76q5.76,4.64,11.06,9.8l7,6.83,5,5.38a83.77,83.77,0,0,1,5.85,7.05l.07.1a45.42,45.42,0,0,1,4.63,7.8,55.38,55.38,0,0,1,3.57,10.23h0a53,53,0,0,1,1.31,8.32l.14,1.93a190.17,190.17,0,0,1-.14,30.47h0l1.43,9.18q.84,5.4,1.38,10.83l3.35,33.44,5.22,41.26q.93,7.35,1.38,14.73l2.14,35.06.54,31q.12,6.27.64,12.53l2,23.88q.72,8.41.82,16.87l.22,16.82.86,2.79a143.18,143.18,0,0,1,4.95,22l.34,2.4,4.42,29.52q.77,5.14,1.83,10.24l10.6,50.95,8.75,47,4.68,25.73a88.64,88.64,0,0,1,1.36,12.8l.11,3.59V1535l2.21,9.14a169.65,169.65,0,0,1,3.51,19.51l1.33,11q.4,3.4,1.12,6.75l1.51,7.06a134.68,134.68,0,0,1,3,28.09v346.63l2,.06V1615.88A134.6,134.6,0,0,0,1401.55,1587.79Z"/><path class="cls-5" d="M1401.55,1587.79l-1.51-7.06c-.47-2.24-.85-4.49-1.12-6.75l-1.33-11a167.73,167.73,0,0,0-3.51-19.5l-2.21-9.14V1497l-.11-3.6a87.12,87.12,0,0,0-1.36-12.79l-4.68-25.73-8.75-47-10.6-51q-1.06-5.09-1.83-10.24l-4.42-29.52-.34-2.4a141.89,141.89,0,0,0-5-22L1354,1290l-.22-16.83q-.11-8.45-.81-16.87l-2-23.88q-.53-6.26-.64-12.52l-.53-31-2.14-35.06q-.46-7.38-1.39-14.72l-5.22-41.26-3.35-33.44q-.54-5.45-1.38-10.84l-1.43-9.18a190.16,190.16,0,0,0,.14-30.47l-.14-1.93a52.19,52.19,0,0,0-1.31-8.32,55.28,55.28,0,0,0-3.57-10.22,45.5,45.5,0,0,0-4.63-7.81l-.07-.09a82.21,82.21,0,0,0-5.85-7.05l-5-5.39-7-6.83q-5.29-5.14-11.06-9.79l-5.9-4.76L1284.3,944a53.34,53.34,0,0,0-6.39-6.71,181.22,181.22,0,0,0-15.76-12.4l-1.49-1-13.93-9.08-11.29-7.52c-2.84-1.89-5.76-3.68-8.75-5.34L1215,895.41q-6.46-3.6-12.59-7.75-3.91-2.65-7.55-5.68l-2.56-2.13a169.83,169.83,0,0,0-15.48-11.49l-5.22-3.44-11-8.1h0a169.54,169.54,0,0,0,12.87-19.7l3.65-6.54,3.9-7.32-.67-1.74-5.18,9.72-3.65,6.55a167.38,167.38,0,0,1-12.88,19.69h0l11,8.1,5.22,3.44a173.64,173.64,0,0,1,15.48,11.49l2.55,2.13q3.65,3,7.56,5.69,6.12,4.14,12.59,7.75l11.73,6.53q4.48,2.5,8.75,5.35l11.29,7.52,13.93,9.07,1.49,1.05A177.46,177.46,0,0,1,1276,938a54.06,54.06,0,0,1,6.39,6.71l6.16,7.7,5.91,4.76q5.76,4.64,11.06,9.8l7,6.83,5,5.38a83.77,83.77,0,0,1,5.85,7.05l.07.1a45.42,45.42,0,0,1,4.63,7.8,55.38,55.38,0,0,1,3.57,10.23h0a53,53,0,0,1,1.31,8.32l.14,1.93a190.17,190.17,0,0,1-.14,30.47h0l1.43,9.18q.84,5.4,1.38,10.83l3.35,33.44,5.22,41.26q.93,7.35,1.38,14.73l2.14,35.06.54,31q.12,6.27.64,12.53l2,23.88q.72,8.41.82,16.87l.22,16.82.86,2.79a143.18,143.18,0,0,1,4.95,22l.34,2.4,4.42,29.52q.77,5.14,1.83,10.24l10.6,50.95,8.75,47,4.68,25.73a88.64,88.64,0,0,1,1.36,12.8l.11,3.59V1535l2.21,9.14a169.65,169.65,0,0,1,3.51,19.51l1.33,11q.4,3.4,1.12,6.75l1.51,7.06a134.68,134.68,0,0,1,3,28.09v346.63l2,.06V1615.88A134.6,134.6,0,0,0,1401.55,1587.79Z"/><path class="cls-3" d="M135.53,1366.09c3.84-.45,7.69-.83,11.55-1.08l11.76-.79a248.31,248.31,0,0,1,34.61.11h0a96.37,96.37,0,0,1,17.61,2.93l9.25,2.43a96,96,0,0,1,17.89,6.68l4.6,2.26a127.69,127.69,0,0,1,25.91,16.9l3,2.56q3.18,2.67,6.16,5.57l6.73,6.55a132.07,132.07,0,0,1,14.49,16.68l2,2.73,4.85,3.29-4.89-6.68a132.35,132.35,0,0,0-14.5-16.69l-6.73-6.54c-2-1.93-4-3.79-6.16-5.58l-3-2.55A127.31,127.31,0,0,0,244.75,1378l-4.6-2.26a95.75,95.75,0,0,0-17.89-6.67l-9.25-2.44a97.23,97.23,0,0,0-17.61-2.93,248.31,248.31,0,0,0-34.61-.1l-11.75.78q-6.73.45-13.42,1.3l-2.19.28.38,0Z"/><path class="cls-5" d="M135.53,1366.09c3.84-.45,7.69-.83,11.55-1.08l11.76-.79a248.31,248.31,0,0,1,34.61.11h0a96.37,96.37,0,0,1,17.61,2.93l9.25,2.43a96,96,0,0,1,17.89,6.68l4.6,2.26a127.69,127.69,0,0,1,25.91,16.9l3,2.56q3.18,2.67,6.16,5.57l6.73,6.55a132.07,132.07,0,0,1,14.49,16.68l2,2.73,4.85,3.29-4.89-6.68a132.35,132.35,0,0,0-14.5-16.69l-6.73-6.54c-2-1.93-4-3.79-6.16-5.58l-3-2.55A127.31,127.31,0,0,0,244.75,1378l-4.6-2.26a95.75,95.75,0,0,0-17.89-6.67l-9.25-2.44a97.23,97.23,0,0,0-17.61-2.93,248.31,248.31,0,0,0-34.61-.1l-11.75.78q-6.73.45-13.42,1.3l-2.19.28.38,0Z"/><polygon class="cls-3" points="217.18 1494.29 218.1 1492.59 214.91 1489.4 213.58 1490.69 217.18 1494.29"/><polygon class="cls-5" points="217.18 1494.29 218.1 1492.59 214.91 1489.4 213.58 1490.69 217.18 1494.29"/><path class="cls-3" d="M633.08,752.61l2.47.08c1.37,0,2.75,0,4.13,0l3.06-.11c1.7-.06,3.41-.05,5.11,0l4.6.17-.28-.75-2.37-.09c-1.7-.06-3.4-.06-5.11,0l-3.06.1c-1.38.05-2.75.05-4.13,0L635,752a14.54,14.54,0,0,1-6.86-2l6.56-9.18q1.38-1.95,2.93-3.77l5.51-6.54-.52-1-6.94,8.24q-1.55,1.83-2.93,3.77l-6.56,9.19A14.38,14.38,0,0,0,633.08,752.61Z"/><path class="cls-5" d="M633.08,752.61l2.47.08c1.37,0,2.75,0,4.13,0l3.06-.11c1.7-.06,3.41-.05,5.11,0l4.6.17-.28-.75-2.37-.09c-1.7-.06-3.4-.06-5.11,0l-3.06.1c-1.38.05-2.75.05-4.13,0L635,752a14.54,14.54,0,0,1-6.86-2l6.56-9.18q1.38-1.95,2.93-3.77l5.51-6.54-.52-1-6.94,8.24q-1.55,1.83-2.93,3.77l-6.56,9.19A14.38,14.38,0,0,0,633.08,752.61Z"/><polygon class="cls-3" points="1181.6 819.25 1182.09 821.17 1182.25 820.86 1187.76 835.11 1183.55 818.59 1184.29 816.6 1182.91 815.76 1181.6 819.25"/><polygon class="cls-5" points="1181.6 819.25 1182.09 821.17 1182.25 820.86 1187.76 835.11 1183.55 818.59 1184.29 816.6 1182.91 815.76 1181.6 819.25"/><path class="cls-4" d="M412.41,23q7.56-3.14,14.79-7l2.38-1.28,7.54-4a49.55,49.55,0,0,0,4.69-2.84l7.77-5.3H410.72l-2.39,1.67A222.87,222.87,0,0,1,385,18.44l-7.37,3.91c-2.61,1.38-5.28,2.65-8,3.81-4.05,1.72-8.17,3.27-12.33,4.66a164.43,164.43,0,0,1-20.6,5.7l-5.46,1.13,34.3-2.45a64,64,0,0,0,7.68-1l16.88-3.26a65.21,65.21,0,0,0,8-2.1c.89-.33,1.78-.67,2.66-1Z"/><path class="cls-5" d="M412.41,23q7.56-3.14,14.79-7l2.38-1.28,7.54-4a49.55,49.55,0,0,0,4.69-2.84l7.77-5.3H410.72l-2.39,1.67A222.87,222.87,0,0,1,385,18.44l-7.37,3.91c-2.61,1.38-5.28,2.65-8,3.81-4.05,1.72-8.17,3.27-12.33,4.66a164.43,164.43,0,0,1-20.6,5.7l-5.46,1.13,34.3-2.45a64,64,0,0,0,7.68-1l16.88-3.26a65.21,65.21,0,0,0,8-2.1c.89-.33,1.78-.67,2.66-1Z"/><polygon class="cls-4" points="450.56 2.5 449.92 2.5 449.68 3.1 450.56 2.5"/><polygon class="cls-5" points="450.56 2.5 449.92 2.5 449.68 3.1 450.56 2.5"/><path class="cls-4" d="M1402.56,1616.54a134.68,134.68,0,0,0-3-28.09l-1.51-7.06q-.72-3.35-1.12-6.75l-1.33-11a169.65,169.65,0,0,0-3.51-19.51l-2.21-9.14v-37.26l-.11-3.59a88.64,88.64,0,0,0-1.36-12.8l-4.68-25.73-8.75-47-10.6-50.95q-1.07-5.1-1.83-10.24l-4.42-29.52-.34-2.4a143.18,143.18,0,0,0-4.95-22l-.86-2.79-.22-16.82q-.1-8.44-.82-16.87l-2-23.88q-.52-6.25-.64-12.53l-.54-31-2.14-35.06q-.45-7.38-1.38-14.73l-5.22-41.26-3.35-33.44q-.54-5.43-1.38-10.83l-1.43-9.18h0a190.17,190.17,0,0,0,.14-30.47l-.14-1.93a53,53,0,0,0-1.31-8.32h0a55.38,55.38,0,0,0-3.57-10.23,45.42,45.42,0,0,0-4.63-7.8l-.07-.1a83.77,83.77,0,0,0-5.85-7.05l-5-5.38-7-6.83q-5.3-5.16-11.06-9.8l-5.91-4.76-6.16-7.7A54.06,54.06,0,0,0,1276,938a177.46,177.46,0,0,0-15.76-12.4l-1.49-1.05-13.93-9.07L1233.49,908q-4.26-2.85-8.75-5.35L1213,896.08q-6.46-3.6-12.59-7.75-3.92-2.66-7.56-5.69l-2.55-2.13A173.64,173.64,0,0,0,1174.83,869l-5.22-3.44-11-8.1h0a167.38,167.38,0,0,0,12.88-19.69l3.65-6.55,5.18-9.72.67,1.74,1.12-2.09-.49-1.92,1.31-3.49,2.57-6.87,3.9-10.67,1.7-4.68c.23-.62.44-1.25.66-1.88q2.73-7.71,4.78-15.65l7.11-27.71,5.83-27.22-.74,11.92,2.69-12.58-.83,13.36q-.46,7.37-1.52,14.69l-3.8,26.38-3.09,28a200.92,200.92,0,0,1-3.29,20.25L1196,836.65l3.79-7-.59,4,2.54-4.71-5.08,35,8.92-19.32q2-4.29,3.7-8.71l.76-2,8.87-22.79,11.08-26.3.88-2.08c.81-1.91,1.55-3.85,2.24-5.81q.64-1.83,1.23-3.69l7.25-23.35.23,4.87,1.72-5.54.64,13.61,1,11q.35,3.95,1,7.85l2.27,13.59,2.86,13.73a106.31,106.31,0,0,0,4,14.14c-.39-2-.71-4.08-.94-6.14l-.1-.92-.2-1.77c-.07-.64-.12-1.29-.17-1.94-.18-1.88-.32-3.78-.39-5.67l-.27-7-.24-6.36-1-23.32V742.47l.07-2.59.58-21.39.33-1.22a221.83,221.83,0,0,0,7.39-46.29h0q.38-7.25.38-14.49V645.36q0-5.28-.34-10.54l-2.25-35.23-2-19.77-.89-7.41-4.61-38.27L1247,505l-3.88-34-3.89-40.17-5.19-55.73L1228.9,321l-4.86-45-3.89-50.87-1.86-15.83q-1.38-11.7-3.92-23.21L1212,175.39q-1.26-5.74-2.84-11.4l-2.61-9.31q-2-7.05-4.62-13.9l-3.51-9L1190,108.42a113.1,113.1,0,0,0-6.09-13.86h0a220.81,220.81,0,0,0-19.53-30.92l-1.91-2.53L1150,45q-4.07-5.25-8.4-10.28l-6.81-7.9q-5.05-5.86-10.44-11.42L1111.89,2.5H451.61l-2.54,6.43a166.7,166.7,0,0,0-6.95,21.93h0a31.34,31.34,0,0,0-.83,9.21,129.63,129.63,0,0,0,8.12,38.1l1.15,3,1.59,6a132.3,132.3,0,0,0,5.52,16.33l1.82,4.43a88.31,88.31,0,0,0,13,21.94,196,196,0,0,0-16.74,39l-2.41,7.88q-1.85,6-3.31,12.19l-7.43,31.28Q440.07,231,438.41,242l-6,39.63-5.08,35.18q-1.61,11.1-2.13,22.31l-2,41.65q-.36,7.74-1.29,15.44l-5.8,48.44a216.6,216.6,0,0,1-4,23l-1.44,6.23a209.61,209.61,0,0,1-18.11,49.28l-3.29,6.36,15.64-23.74a136.28,136.28,0,0,0,8.23-14.26l13.49-27,13.17-29.31q1.62-3.62,2.92-7.35l6.81-19.64L450,412l1.53-4.42,3.21,28.81A171.4,171.4,0,0,0,458,455.9l4,17.54,6.68,26.24,1.91,33.41L475,591.41c.25,3.43.62,6.84,1.09,10.25l8.65,62.65q.66,4.77,1.59,9.5l8.44,42.9A130.2,130.2,0,0,0,499,732.84l3.56,10.68-1.43,21c-.63,0-1.27-.08-1.9-.09l-.05.76a24,24,0,0,0-9.42,1l-.06,0a11.49,11.49,0,0,0-3.51,2,89.49,89.49,0,0,1-14,9.43h0c-2.05,1.12-4.12,2.18-6.23,3.18l-4,1.93a53.27,53.27,0,0,0-7.24,4.2,15.57,15.57,0,0,0-4.47,4.78l-1.14,1.9a16.84,16.84,0,0,0-2,5.11L445,808.6q-1.61,7.44-2.62,15l-4.13,30.54q-1,7.73-1.51,15.5l-1.93,32.31-1.43,52.49-8.24,8.23q-5.59,5.61-10.7,11.65l-7.78,9.22,3.82,3.34-2.86,20.52L397.12,1069l-5.73,27.19-5.72,5.73-1.91,8.59-2.89,14.42q-1.41,7-2.19,14.2l-4,36.27-4.51,50.47q-.74,8.22-2,16.38l-6,37.71q-1.29,8.05-3.07,16l-6.7,29.82q-2,9-4.81,17.77l-13.91,43.71-5.93,16.94a135,135,0,0,0-6,23.92l-3.36,21.65-1.52-2.07-.43,2.73-9.54-12.88-5.77-7.89-2-2.73a132.07,132.07,0,0,0-14.49-16.68l-6.73-6.55q-3-2.9-6.16-5.57l-3-2.56a127.69,127.69,0,0,0-25.91-16.9l-4.6-2.26a96,96,0,0,0-17.89-6.68l-9.25-2.43a96.37,96.37,0,0,0-17.61-2.93h0a248.31,248.31,0,0,0-34.61-.11l-11.76.79c-3.86.25-7.71.63-11.55,1.08-.62.08-1.24.13-1.86.21l-27.19,3.45-50.58,7.63-35.64,7,36.85-.37q9.8-.09,19.59.62l3.78.27a215,215,0,0,1,25.16,3.35l11.45,2.23a175.83,175.83,0,0,1,20.54,5.29l14.22,4.58q5.25,1.7,10.4,3.69l21.47,8.34a86.7,86.7,0,0,1,10.39,4.84l24.55,13.46,19.28,11.57q4.58,2.74,9,5.74l12.12,8.23a120.12,120.12,0,0,1,16.33,13.35l7.15,7a99.91,99.91,0,0,1,11.38,13.26l13,18.16-8.11,41-1.84.1-.11.56-13.08.73a11.76,11.76,0,0,1-7.44-2.16l-.28-5.85a74.86,74.86,0,0,1,.08-8.34l.05-.76a9.35,9.35,0,0,0-.72-4.28l-3-7.15c-.9-2.13-1.91-4.23-3-6.27L261.08,1500l-3.52-6.24a27.07,27.07,0,0,0-7-8.08,13.62,13.62,0,0,0-9.7-2.82l-.43,0a41.61,41.61,0,0,0-8.2,1.61l-9.82,3-3.3,6.11-1-1-.92,1.7-3.6-3.6-.65-.65a37.27,37.27,0,0,0-8.67-6.45,10,10,0,0,0-2.95-1l-1.3-.23a7.59,7.59,0,0,0-3,.07l-5.42,2.44a20.64,20.64,0,0,0-2.92,1.59l-9.81,6.32a42.37,42.37,0,0,0-6.64,5.29l-12.34,12c-.87.85-1.71,1.73-2.51,2.64L152,1518.8a26,26,0,0,0-5.09,8.89l-.12.37a31.93,31.93,0,0,0-1.46,6.67L143.74,1549l-3.82,10.49-1.74.1-.21.57-3.23.18a29.39,29.39,0,0,0-6.84,1.21c-.49.19-1,.38-1.47.6a26.5,26.5,0,0,0-6.71,4.31l-2.52,2.22a46.76,46.76,0,0,0-4.77,4.88l-2.73,3.24a35.78,35.78,0,0,0-4.58,7L100,1594a69.93,69.93,0,0,0-3.6,8.57l-3.74,10.86-7.15,4.78a53.17,53.17,0,0,0-11.4,12.31l-1,1.52-1.06,14.47q-.37,5.1-1.23,10.14l-2,11.66-2.39,17.18-10.39,14a133.93,133.93,0,0,0-8.93,13.65L42.6,1721a126.82,126.82,0,0,0-10.78,24.58l-2.12,6.7-.71,2.28a68,68,0,0,1-4.22,10.36L14,1786.13,2.5,1810.94v183.49H1147.67l-.34-.3a20.32,20.32,0,0,1-4.8-6.21,19.36,19.36,0,0,1-1.59-4.49l-1-4.69a.8.8,0,0,0,0-.15c-.21-1-.38-2-.5-3l-2.68-22.75-6.18-43.27q-.49-3.49-.81-7l-3.5-39.91,1.72-7.18q1.14-4.74,2.68-9.38l2.75-8.25,1.38,1.08.58-1.74,26.72,21,5.25,13.36,13.36,30.06,10.49,25.77,2.39,6.68-1,3.34,5.24,8.11,5.39,7.49a37.84,37.84,0,0,0,7.54,7.78h0a14.86,14.86,0,0,0,4.09,2.21,55,55,0,0,0,18,3h.28l5.37,2.39q3.21,1.42,6.51,2.66l1.39.53a70.31,70.31,0,0,0,13.91,3.63l11.47,1.77,21.69,2.41c2.72.3,5.44.52,8.16.68l21.68,1.2,31,1h14.18a151.16,151.16,0,0,0,15.49-.79l.89-.09a107.41,107.41,0,0,0,17.68-3.33V1616.54ZM1181,695.76l8.56-53.75,10.57-50.74q1.32-6.35,2.17-12.79l5-38.69q1.26-9.57,3.33-19l3.15-14.35.54,5.75,1.42-6.42,2.11,22.52q.74,7.92.85,15.89l.37,26.76,1,35.21v24q0,8.34-.82,16.66l-2.66,26.92c-.22,2.2-.49,4.39-.83,6.58l-3,19.84q-.75,5-1.89,9.82l-7.42,31.76-9.15,33.1c-.56,2-1.19,4-1.9,6L1182,810.22l-.52-3.38-1.43,4-.22-1.4-.73-4.69-1.54-9.89c-.56-3.61-1-7.25-1.33-10.89l-1.52-16.94q-.84-9.47-.85-19c0-3.28.11-6.55.29-9.83a173.19,173.19,0,0,1,3.26-25Zm-87.38,24.54a119.84,119.84,0,0,0,6.36-12.6l6.77-15.65,6.28-12.87-.19,3.72,2.15-4.39-.75,14.37c-.1,2-.14,4-.11,6l.26,17.66-.16,8.48a122,122,0,0,1-1.24,15.28l-1.72,11.93c-.72,4.93-1.68,9.83-2.89,14.67l-1.87,7.47q-.79,3.23-1.82,6.39L1100,795.23l-1.13-1.88-.82,2.55-6.16-10.22a92.78,92.78,0,0,0-9.84-13.39h0c-.91-1-1.84-2-2.8-3l-2.15-2.14,10.47-36.52Zm-13.51,22.92-1.17,4,3.12-4.68-6.88,23.64-1.74-.06-.21.73-8.68-.3Zm-444.36-5.54,6.94-8.24.52,1,1.43-1.71,1.33,2.66a130.47,130.47,0,0,1,5.64,13l2.83,7.64-2.23-.08.28.75-4.6-.17c-1.7-.06-3.41-.07-5.11,0l-3.06.11c-1.38,0-2.76,0-4.13,0l-2.47-.08a14.38,14.38,0,0,1-6.86-2l6.56-9.19Q634.16,739.51,635.71,737.68Zm-85.19-79.93,14.58,18.82,1,17.93c.18,3.06.45,6.12.8,9.16l2.39,20.61,4.77,30.47-2,.22.07.45-24.91,2.65L523.93,761l.37-1.59,2.37-10.19A143.18,143.18,0,0,0,530,726.91h0a96.81,96.81,0,0,0,0-14.55l-1-12.87-2.65-36.3-2.65-24.65-1.85-15.1,2.42,3.21-.47-3.88,7.42,9.81L542.57,648Zm580,179.37-9.17-5.57,2.09-1.44a4.38,4.38,0,0,0,1.84-4.13l-5.9-6.22-6.55-7.53-4.25-1-7.87-9.49,2.8-7.64q2.12-5.79,3.69-11.76l3.44-13c.81-3.05,1.47-6.15,2-9.27l3.16-19.23,1,5.39,1-6.05,4.63,26.07q1.59,9,3.91,17.79l4.18,15.94a155.5,155.5,0,0,0,5.74,17.62l1.7,4.34a102.92,102.92,0,0,1-1.76-15.85l0-1.38v-3a96.92,96.92,0,0,1,2-19.44l.65-3.15,3-15.73.78-4.32,2.82-15.66,3.29-15.11a134,134,0,0,1,4.09-14.74l3.1-9.12.3,4.18,1.65-4.85,1.63,22.56c.23,3.08.54,6.16,1,9.23l2.06,15.41a146.83,146.83,0,0,0,3.74,18.69l3,11.15q1.39,5.17,3.14,10.24l8.08,23.43-11.67,23.34q-2.09,4.17-4.5,8.17l-5.12,8.45-1.1-.75-.85,1.41Z"/><path class="cls-6" d="M1402.56,1616.54a134.68,134.68,0,0,0-3-28.09l-1.51-7.06q-.72-3.35-1.12-6.75l-1.33-11a169.65,169.65,0,0,0-3.51-19.51l-2.21-9.14v-37.26l-.11-3.59a88.64,88.64,0,0,0-1.36-12.8l-4.68-25.73-8.75-47-10.6-50.95q-1.07-5.1-1.83-10.24l-4.42-29.52-.34-2.4a143.18,143.18,0,0,0-4.95-22l-.86-2.79-.22-16.82q-.1-8.44-.82-16.87l-2-23.88q-.52-6.25-.64-12.53l-.54-31-2.14-35.06q-.45-7.38-1.38-14.73l-5.22-41.26-3.35-33.44q-.54-5.43-1.38-10.83l-1.43-9.18h0a190.17,190.17,0,0,0,.14-30.47l-.14-1.93a53,53,0,0,0-1.31-8.32h0a55.38,55.38,0,0,0-3.57-10.23,45.42,45.42,0,0,0-4.63-7.8l-.07-.1a83.77,83.77,0,0,0-5.85-7.05l-5-5.38-7-6.83q-5.3-5.16-11.06-9.8l-5.91-4.76-6.16-7.7A54.06,54.06,0,0,0,1276,938a177.46,177.46,0,0,0-15.76-12.4l-1.49-1.05-13.93-9.07L1233.49,908q-4.26-2.85-8.75-5.35L1213,896.08q-6.46-3.6-12.59-7.75-3.92-2.66-7.56-5.69l-2.55-2.13A173.64,173.64,0,0,0,1174.83,869l-5.22-3.44-11-8.1h0a167.38,167.38,0,0,0,12.88-19.69l3.65-6.55,5.18-9.72.67,1.74,1.12-2.09-.49-1.92,1.31-3.49,2.57-6.87,3.9-10.67,1.7-4.68c.23-.62.44-1.25.66-1.88q2.73-7.71,4.78-15.65l7.11-27.71,5.83-27.22-.74,11.92,2.69-12.58-.83,13.36q-.46,7.37-1.52,14.69l-3.8,26.38-3.09,28a200.92,200.92,0,0,1-3.29,20.25L1196,836.65l3.79-7-.59,4,2.54-4.71-5.08,35,8.92-19.32q2-4.29,3.7-8.71l.76-2,8.87-22.79,11.08-26.3.88-2.08c.81-1.91,1.55-3.85,2.24-5.81q.64-1.83,1.23-3.69l7.25-23.35.23,4.87,1.72-5.54.64,13.61,1,11q.35,3.95,1,7.85l2.27,13.59,2.86,13.73a106.31,106.31,0,0,0,4,14.14c-.39-2-.71-4.08-.94-6.14l-.1-.92-.2-1.77c-.07-.64-.12-1.29-.17-1.94-.18-1.88-.32-3.78-.39-5.67l-.27-7-.24-6.36-1-23.32V742.47l.07-2.59.58-21.39.33-1.22a221.83,221.83,0,0,0,7.39-46.29h0q.38-7.25.38-14.49V645.36q0-5.28-.34-10.54l-2.25-35.23-2-19.77-.89-7.41-4.61-38.27L1247,505l-3.88-34-3.89-40.17-5.19-55.73L1228.9,321l-4.86-45-3.89-50.87-1.86-15.83q-1.38-11.7-3.92-23.21L1212,175.39q-1.26-5.74-2.84-11.4l-2.61-9.31q-2-7.05-4.62-13.9l-3.51-9L1190,108.42a113.1,113.1,0,0,0-6.09-13.86h0a220.81,220.81,0,0,0-19.53-30.92l-1.91-2.53L1150,45q-4.07-5.25-8.4-10.28l-6.81-7.9q-5.05-5.86-10.44-11.42L1111.89,2.5H451.61l-2.54,6.43a166.7,166.7,0,0,0-6.95,21.93h0a31.34,31.34,0,0,0-.83,9.21,129.63,129.63,0,0,0,8.12,38.1l1.15,3,1.59,6a132.3,132.3,0,0,0,5.52,16.33l1.82,4.43a88.31,88.31,0,0,0,13,21.94,196,196,0,0,0-16.74,39l-2.41,7.88q-1.85,6-3.31,12.19l-7.43,31.28Q440.07,231,438.41,242l-6,39.63-5.08,35.18q-1.61,11.1-2.13,22.31l-2,41.65q-.36,7.74-1.29,15.44l-5.8,48.44a216.6,216.6,0,0,1-4,23l-1.44,6.23a209.61,209.61,0,0,1-18.11,49.28l-3.29,6.36,15.64-23.74a136.28,136.28,0,0,0,8.23-14.26l13.49-27,13.17-29.31q1.62-3.62,2.92-7.35l6.81-19.64L450,412l1.53-4.42,3.21,28.81A171.4,171.4,0,0,0,458,455.9l4,17.54,6.68,26.24,1.91,33.41L475,591.41c.25,3.43.62,6.84,1.09,10.25l8.65,62.65q.66,4.77,1.59,9.5l8.44,42.9A130.2,130.2,0,0,0,499,732.84l3.56,10.68-1.43,21c-.63,0-1.27-.08-1.9-.09l-.05.76a24,24,0,0,0-9.42,1l-.06,0a11.49,11.49,0,0,0-3.51,2,89.49,89.49,0,0,1-14,9.43h0c-2.05,1.12-4.12,2.18-6.23,3.18l-4,1.93a53.27,53.27,0,0,0-7.24,4.2,15.57,15.57,0,0,0-4.47,4.78l-1.14,1.9a16.84,16.84,0,0,0-2,5.11L445,808.6q-1.61,7.44-2.62,15l-4.13,30.54q-1,7.73-1.51,15.5l-1.93,32.31-1.43,52.49-8.24,8.23q-5.59,5.61-10.7,11.65l-7.78,9.22,3.82,3.34-2.86,20.52L397.12,1069l-5.73,27.19-5.72,5.73-1.91,8.59-2.89,14.42q-1.41,7-2.19,14.2l-4,36.27-4.51,50.47q-.74,8.22-2,16.38l-6,37.71q-1.29,8.05-3.07,16l-6.7,29.82q-2,9-4.81,17.77l-13.91,43.71-5.93,16.94a135,135,0,0,0-6,23.92l-3.36,21.65-1.52-2.07-.43,2.73-9.54-12.88-5.77-7.89-2-2.73a132.07,132.07,0,0,0-14.49-16.68l-6.73-6.55q-3-2.9-6.16-5.57l-3-2.56a127.69,127.69,0,0,0-25.91-16.9l-4.6-2.26a96,96,0,0,0-17.89-6.68l-9.25-2.43a96.37,96.37,0,0,0-17.61-2.93h0a248.31,248.31,0,0,0-34.61-.11l-11.76.79c-3.86.25-7.71.63-11.55,1.08-.62.08-1.24.13-1.86.21l-27.19,3.45-50.58,7.63-35.64,7,36.85-.37q9.8-.09,19.59.62l3.78.27a215,215,0,0,1,25.16,3.35l11.45,2.23a175.83,175.83,0,0,1,20.54,5.29l14.22,4.58q5.25,1.7,10.4,3.69l21.47,8.34a86.7,86.7,0,0,1,10.39,4.84l24.55,13.46,19.28,11.57q4.58,2.74,9,5.74l12.12,8.23a120.12,120.12,0,0,1,16.33,13.35l7.15,7a99.91,99.91,0,0,1,11.38,13.26l13,18.16-8.11,41-1.84.1-.11.56-13.08.73a11.76,11.76,0,0,1-7.44-2.16l-.28-5.85a74.86,74.86,0,0,1,.08-8.34l.05-.76a9.35,9.35,0,0,0-.72-4.28l-3-7.15c-.9-2.13-1.91-4.23-3-6.27L261.08,1500l-3.52-6.24a27.07,27.07,0,0,0-7-8.08,13.62,13.62,0,0,0-9.7-2.82l-.43,0a41.61,41.61,0,0,0-8.2,1.61l-9.82,3-3.3,6.11-1-1-.92,1.7-3.6-3.6-.65-.65a37.27,37.27,0,0,0-8.67-6.45,10,10,0,0,0-2.95-1l-1.3-.23a7.59,7.59,0,0,0-3,.07l-5.42,2.44a20.64,20.64,0,0,0-2.92,1.59l-9.81,6.32a42.37,42.37,0,0,0-6.64,5.29l-12.34,12c-.87.85-1.71,1.73-2.51,2.64L152,1518.8a26,26,0,0,0-5.09,8.89l-.12.37a31.93,31.93,0,0,0-1.46,6.67L143.74,1549l-3.82,10.49-1.74.1-.21.57-3.23.18a29.39,29.39,0,0,0-6.84,1.21c-.49.19-1,.38-1.47.6a26.5,26.5,0,0,0-6.71,4.31l-2.52,2.22a46.76,46.76,0,0,0-4.77,4.88l-2.73,3.24a35.78,35.78,0,0,0-4.58,7L100,1594a69.93,69.93,0,0,0-3.6,8.57l-3.74,10.86-7.15,4.78a53.17,53.17,0,0,0-11.4,12.31l-1,1.52-1.06,14.47q-.37,5.1-1.23,10.14l-2,11.66-2.39,17.18-10.39,14a133.93,133.93,0,0,0-8.93,13.65L42.6,1721a126.82,126.82,0,0,0-10.78,24.58l-2.12,6.7-.71,2.28a68,68,0,0,1-4.22,10.36L14,1786.13,2.5,1810.94v183.49H1147.67l-.34-.3a20.32,20.32,0,0,1-4.8-6.21,19.36,19.36,0,0,1-1.59-4.49l-1-4.69a.8.8,0,0,0,0-.15c-.21-1-.38-2-.5-3l-2.68-22.75-6.18-43.27q-.49-3.49-.81-7l-3.5-39.91,1.72-7.18q1.14-4.74,2.68-9.38l2.75-8.25,1.38,1.08.58-1.74,26.72,21,5.25,13.36,13.36,30.06,10.49,25.77,2.39,6.68-1,3.34,5.24,8.11,5.39,7.49a37.84,37.84,0,0,0,7.54,7.78h0a14.86,14.86,0,0,0,4.09,2.21,55,55,0,0,0,18,3h.28l5.37,2.39q3.21,1.42,6.51,2.66l1.39.53a70.31,70.31,0,0,0,13.91,3.63l11.47,1.77,21.69,2.41c2.72.3,5.44.52,8.16.68l21.68,1.2,31,1h14.18a151.16,151.16,0,0,0,15.49-.79l.89-.09a107.41,107.41,0,0,0,17.68-3.33V1616.54ZM1181,695.76l8.56-53.75,10.57-50.74q1.32-6.35,2.17-12.79l5-38.69q1.26-9.57,3.33-19l3.15-14.35.54,5.75,1.42-6.42,2.11,22.52q.74,7.92.85,15.89l.37,26.76,1,35.21v24q0,8.34-.82,16.66l-2.66,26.92c-.22,2.2-.49,4.39-.83,6.58l-3,19.84q-.75,5-1.89,9.82l-7.42,31.76-9.15,33.1c-.56,2-1.19,4-1.9,6L1182,810.22l-.52-3.38-1.43,4-.22-1.4-.73-4.69-1.54-9.89c-.56-3.61-1-7.25-1.33-10.89l-1.52-16.94q-.84-9.47-.85-19c0-3.28.11-6.55.29-9.83a173.19,173.19,0,0,1,3.26-25Zm-87.38,24.54a119.84,119.84,0,0,0,6.36-12.6l6.77-15.65,6.28-12.87-.19,3.72,2.15-4.39-.75,14.37c-.1,2-.14,4-.11,6l.26,17.66-.16,8.48a122,122,0,0,1-1.24,15.28l-1.72,11.93c-.72,4.93-1.68,9.83-2.89,14.67l-1.87,7.47q-.79,3.23-1.82,6.39L1100,795.23l-1.13-1.88-.82,2.55-6.16-10.22a92.78,92.78,0,0,0-9.84-13.39h0c-.91-1-1.84-2-2.8-3l-2.15-2.14,10.47-36.52Zm-13.51,22.92-1.17,4,3.12-4.68-6.88,23.64-1.74-.06-.21.73-8.68-.3Zm-444.36-5.54,6.94-8.24.52,1,1.43-1.71,1.33,2.66a130.47,130.47,0,0,1,5.64,13l2.83,7.64-2.23-.08.28.75-4.6-.17c-1.7-.06-3.41-.07-5.11,0l-3.06.11c-1.38,0-2.76,0-4.13,0l-2.47-.08a14.38,14.38,0,0,1-6.86-2l6.56-9.19Q634.16,739.51,635.71,737.68Zm-85.19-79.93,14.58,18.82,1,17.93c.18,3.06.45,6.12.8,9.16l2.39,20.61,4.77,30.47-2,.22.07.45-24.91,2.65L523.93,761l.37-1.59,2.37-10.19A143.18,143.18,0,0,0,530,726.91h0a96.81,96.81,0,0,0,0-14.55l-1-12.87-2.65-36.3-2.65-24.65-1.85-15.1,2.42,3.21-.47-3.88,7.42,9.81L542.57,648Zm580,179.37-9.17-5.57,2.09-1.44a4.38,4.38,0,0,0,1.84-4.13l-5.9-6.22-6.55-7.53-4.25-1-7.87-9.49,2.8-7.64q2.12-5.79,3.69-11.76l3.44-13c.81-3.05,1.47-6.15,2-9.27l3.16-19.23,1,5.39,1-6.05,4.63,26.07q1.59,9,3.91,17.79l4.18,15.94a155.5,155.5,0,0,0,5.74,17.62l1.7,4.34a102.92,102.92,0,0,1-1.76-15.85l0-1.38v-3a96.92,96.92,0,0,1,2-19.44l.65-3.15,3-15.73.78-4.32,2.82-15.66,3.29-15.11a134,134,0,0,1,4.09-14.74l3.1-9.12.3,4.18,1.65-4.85,1.63,22.56c.23,3.08.54,6.16,1,9.23l2.06,15.41a146.83,146.83,0,0,0,3.74,18.69l3,11.15q1.39,5.17,3.14,10.24l8.08,23.43-11.67,23.34q-2.09,4.17-4.5,8.17l-5.12,8.45-1.1-.75-.85,1.41Z"/></g></g></svg>