<svg xmlns="http://www.w3.org/2000/svg" xmlns:xlink="http://www.w3.org/1999/xlink" viewBox="0 0 837.91 945.59"><defs><style>.cls-1{fill:none;}.cls-2{clip-path:url(#clip-path);}.cls-3{fill:#f2dadf;}.cls-4{fill:#ebbbc4;}</style><clipPath id="clip-path" transform="translate(-39.59 -36.77)"><rect class="cls-1" width="1001.48" height="1001.48"/></clipPath></defs><title>アセット 3</title><g id="レイヤー_2" data-name="レイヤー 2"><g id="レイヤー_2-2" data-name="レイヤー 2"><g class="cls-2"><g id="足跡"><path class="cls-3" d="M194,476.17a41,41,0,0,0-6.53-4.11l-3.37-1.7-2.76-1.28a46,46,0,0,0-6-2.29l-.56-.17a40.35,40.35,0,0,0-4.77-1.13h0a50.39,50.39,0,0,0-5.47-.66l-.75-.05-2.72,0q-1.84,0-3.69.09h0a27.56,27.56,0,0,0-4.14.61h0a23.75,23.75,0,0,0-5.49,1.94h0a18.17,18.17,0,0,0-2.21,1.32h0a34.13,34.13,0,0,0-4.53,3.78h0c-.87.86-1.69,1.76-2.48,2.7l-1.05,1.25q-1.2,1.45-2.31,3h0a50.47,50.47,0,0,0-3.93,6.45l-.38.75c-.39.75-.74,1.51-1.06,2.29l-.67,1.6a35.07,35.07,0,0,0-1.4,4l-.25.89q-.68,2.38-1.17,4.83l-.58,2.93h0a55.76,55.76,0,0,0-.66,7.75l0,1.21.08,3.7c0,1.72.15,3.43.35,5.14l0,.18c.13,1.09.3,2.18.5,3.26h0a9.34,9.34,0,0,0,.76,2.29l.94,1.92.58,1.08a38.51,38.51,0,0,0,2.35,3.83h0a21.32,21.32,0,0,0,3.47,3.31h0c.31.24.63.47.95.69h0a36,36,0,0,0,4.55,2.62h0a7.82,7.82,0,0,0,1.4.51h0a31.56,31.56,0,0,0,3.87.78h0a23.5,23.5,0,0,0,2.79.23h0a42.22,42.22,0,0,0,4.64-.1h.06c1.67-.13,3.33-.31,5-.54h0a41.94,41.94,0,0,0,4.17-.78l2.18-.52,1.89-.53c1.68-.47,3.34-1,5-1.66l1.25-.49c1.35-.52,2.67-1.08,4-1.68l3.35-1.54,2.28-1.1c1.77-.84,3.5-1.76,5.19-2.74l1.86-1.08q2-1.18,4-2.51h0a73.19,73.19,0,0,0,6.57-4.94h0c1.26-1.07,2.48-2.19,3.64-3.37h0a35.74,35.74,0,0,0,3.34-3.93h0c.55-.77,1.07-1.55,1.56-2.36h0a21.68,21.68,0,0,0,2.05-4.49h0a20,20,0,0,0,.7-2.84l.18-1c.13-.74.23-1.5.3-2.25h0a24.89,24.89,0,0,0-.25-6.62h0a8.92,8.92,0,0,0-.29-1.13h0a21.31,21.31,0,0,0-2.89-5.61h0a17.8,17.8,0,0,0-2-2.38l-1.79-1.76c-.84-.82-1.72-1.61-2.64-2.36L199.35,480c-.9-.73-1.82-1.42-2.78-2.08L194,476.17Z" transform="translate(-39.59 -36.77)"/><circle class="cls-3" cx="66.99" cy="417.54" r="22.51"/><circle class="cls-3" cx="120.14" cy="385.95" r="22.51"/><circle class="cls-3" cx="175.46" cy="412.31" r="22.51"/><circle class="cls-3" cx="49.38" cy="478.99" r="22.51"/></g><g id="足跡-2" data-name="足跡"><path class="cls-3" d="M516.55,576.8a33.58,33.58,0,0,0-.15-6.34l-.37-3.08-.37-2.47a39.44,39.44,0,0,0-1.16-5.17l-.14-.46A34.24,34.24,0,0,0,513,555.5h0a40.29,40.29,0,0,0-2-4l-.31-.54-1.2-1.88c-.54-.86-1.12-1.68-1.74-2.48h0A22.36,22.36,0,0,0,505.4,544h0a19.6,19.6,0,0,0-3.83-2.88h0a15.11,15.11,0,0,0-1.9-.92h0A28.88,28.88,0,0,0,495,538.8h0c-1-.2-2-.36-3-.47l-1.33-.15c-1-.12-2-.2-3.08-.24h0a41.43,41.43,0,0,0-6.2.23l-.69.08c-.69.08-1.37.18-2.05.31l-1.41.27a30.26,30.26,0,0,0-3.37.86l-.72.23c-1.3.41-2.58.88-3.84,1.4l-2.27.93h0a44.13,44.13,0,0,0-5.61,3.06l-.84.54-2.5,1.73c-1.16.81-2.29,1.67-3.36,2.58l-.11.09c-.69.59-1.36,1.19-2,1.82h0a7.69,7.69,0,0,0-1.23,1.56l-.88,1.52-.48.89a33.88,33.88,0,0,0-1.57,3.34h0a17.73,17.73,0,0,0-.68,3.88h0c0,.33,0,.65,0,1h0a28.27,28.27,0,0,0,.27,4.31h0a6.23,6.23,0,0,0,.28,1.19h0a24.47,24.47,0,0,0,1.22,3h0a19.83,19.83,0,0,0,1.11,2h0a37.41,37.41,0,0,0,2.18,3.14l0,0c.84,1.09,1.72,2.15,2.63,3.18h0c.77.88,1.58,1.71,2.43,2.51l1.35,1.25,1.21,1a41.33,41.33,0,0,0,3.4,2.65l.9.64c1,.69,2,1.34,3,2l2.58,1.6,1.79,1.06q2.07,1.24,4.23,2.31l1.59.79c1.16.57,2.34,1.11,3.54,1.61h0a60.25,60.25,0,0,0,6.37,2.26h0c1.31.38,2.63.7,4,1h0a28.45,28.45,0,0,0,4.21.5h0c.77,0,1.55,0,2.32,0h0a18.12,18.12,0,0,0,4-.63h0a18.59,18.59,0,0,0,2.27-.81l.77-.34c.57-.25,1.13-.52,1.68-.82h0a20.63,20.63,0,0,0,4.42-3.17h0a5.49,5.49,0,0,0,.64-.72h0a17.5,17.5,0,0,0,2.54-4.52h0a16.63,16.63,0,0,0,.7-2.48l.39-2c.18-1,.32-1.92.42-2.89l.16-1.63c.1-1,.15-1.9.17-2.85l0-2.59Z" transform="translate(-39.59 -36.77)"/><circle class="cls-3" cx="452.26" cy="470.22" r="18.5"/><circle class="cls-3" cx="498.04" cy="492.3" r="18.5"/><circle class="cls-3" cx="505.09" cy="542.17" r="18.5"/><circle class="cls-3" cx="402.17" cy="486.05" r="18.5"/></g><g id="足跡-3" data-name="足跡"><path class="cls-3" d="M823,176.52a43.54,43.54,0,0,0-7.25-3.88L812,171.08l-3-1.16a49.89,49.89,0,0,0-6.58-2l-.6-.13a43,43,0,0,0-5.16-.85h0a52.39,52.39,0,0,0-5.88-.3H790l-2.89.14c-1.31.07-2.62.2-3.92.38h0a30.93,30.93,0,0,0-4.37.95h0a25.7,25.7,0,0,0-5.69,2.48h0a20.7,20.7,0,0,0-2.26,1.57h0a36.6,36.6,0,0,0-4.53,4.36h0c-.86,1-1.67,2-2.44,3.06l-1,1.41c-.79,1.09-1.53,2.2-2.23,3.34h0a52,52,0,0,0-3.71,7.14l-.35.83q-.52,1.25-1,2.52L755,196.6a38.3,38.3,0,0,0-1.19,4.35l-.2,1q-.54,2.6-.88,5.23l-.4,3.16h0a57.36,57.36,0,0,0-.12,8.29l.07,1.3.36,3.93c.16,1.82.42,3.64.76,5.44l0,.18c.22,1.16.48,2.3.78,3.44h0a9.13,9.13,0,0,0,1,2.38l1.14,2,.7,1.11a44.47,44.47,0,0,0,2.78,3.9h0a23.23,23.23,0,0,0,3.94,3.26h0c.35.23.71.45,1.07.66h0a37.8,37.8,0,0,0,5,2.45h0a8,8,0,0,0,1.52.45h0a34.35,34.35,0,0,0,4.18.53h0a26.94,26.94,0,0,0,3,0h0a45.58,45.58,0,0,0,4.94-.46h0c1.77-.26,3.53-.58,5.28-.94h0c1.48-.31,2.94-.7,4.38-1.15l2.28-.72,2-.7c1.75-.63,3.48-1.35,5.16-2.14l1.3-.61q2.09-1,4.11-2.1l3.45-1.88,2.35-1.34q2.73-1.54,5.32-3.31l1.89-1.28q2.1-1.42,4.09-3h0a77.16,77.16,0,0,0,6.63-5.75h0c1.26-1.24,2.47-2.52,3.62-3.86h0a37.12,37.12,0,0,0,3.26-4.43h0c.53-.86,1-1.73,1.48-2.63h0a23.23,23.23,0,0,0,1.85-4.93h0a22.81,22.81,0,0,0,.54-3.08l.11-1.08c.08-.8.13-1.61.15-2.42h0a26.75,26.75,0,0,0-.76-7h0a8.32,8.32,0,0,0-.4-1.19h0a22.67,22.67,0,0,0-3.49-5.75h0a20.32,20.32,0,0,0-2.35-2.38l-2-1.73c-1-.82-2-1.59-3-2.32L829,180.24c-1-.72-2-1.39-3.11-2L823,176.52Z" transform="translate(-39.59 -36.77)"/><circle class="cls-3" cx="688.79" cy="123.02" r="24.01"/><circle class="cls-3" cx="742.98" cy="85.44" r="24.01"/><circle class="cls-3" cx="803.81" cy="109.34" r="24.01"/><circle class="cls-3" cx="674.64" cy="189.72" r="24.01"/></g><g id="足跡-4" data-name="足跡"><path class="cls-3" d="M275.19,844a34.2,34.2,0,0,0,6-2.15l2.81-1.33,2.22-1.13a38,38,0,0,0,4.53-2.75l.39-.27a34.76,34.76,0,0,0,3.15-2.52h0a42.14,42.14,0,0,0,3.2-3.21l.41-.46,1.41-1.73c.63-.79,1.23-1.6,1.8-2.44h0a23.93,23.93,0,0,0,1.7-3h0a19.72,19.72,0,0,0,1.52-4.54h0a13.69,13.69,0,0,0,.26-2.1h0a27.11,27.11,0,0,0-.16-4.85h0c-.12-1-.28-2-.49-3l-.28-1.32c-.22-1-.47-2-.76-3h0a41.44,41.44,0,0,0-2.18-5.81l-.29-.63c-.3-.62-.61-1.24-.95-1.84l-.7-1.25a29.63,29.63,0,0,0-1.88-2.92l-.45-.62c-.81-1.1-1.66-2.16-2.55-3.2l-1.6-1.85h0a44.73,44.73,0,0,0-4.68-4.35l-.78-.63-2.44-1.82a41.48,41.48,0,0,0-3.51-2.37l-.12-.08c-.77-.46-1.56-.91-2.36-1.32h0a7.33,7.33,0,0,0-1.87-.67l-1.72-.36-1-.17a32.2,32.2,0,0,0-3.67-.42h0a17.67,17.67,0,0,0-3.89.58h0q-.48.12-.93.27h0a28.37,28.37,0,0,0-4,1.62h0a5.81,5.81,0,0,0-1,.64h0a24.86,24.86,0,0,0-2.46,2.11h0a22.62,22.62,0,0,0-1.56,1.69h0a36,36,0,0,0-2.29,3.07l0,0c-.77,1.15-1.49,2.32-2.18,3.51h0c-.59,1-1.12,2-1.61,3.1l-.76,1.67-.61,1.49a42.59,42.59,0,0,0-1.44,4.06L247,798.8c-.34,1.14-.65,2.28-.92,3.43l-.7,2.95-.45,2c-.34,1.57-.62,3.15-.84,4.75l-.24,1.75c-.18,1.28-.32,2.57-.41,3.87h0a58.62,58.62,0,0,0-.12,6.76h0c.05,1.36.16,2.71.34,4.06h0a28.05,28.05,0,0,0,.86,4.15h0c.21.74.46,1.48.73,2.2h0a18.35,18.35,0,0,0,1.87,3.6h0a17.07,17.07,0,0,0,1.49,1.9l.56.62c.42.46.86.91,1.31,1.34h0a20.68,20.68,0,0,0,4.42,3.18h0a6.35,6.35,0,0,0,.88.39h0a17.7,17.7,0,0,0,5.09,1h0a15.75,15.75,0,0,0,2.57-.12l2.05-.27c1-.13,1.92-.3,2.87-.51l1.6-.37c.93-.21,1.85-.46,2.75-.74l2.48-.78Z" transform="translate(-39.59 -36.77)"/><circle class="cls-3" cx="293.97" cy="761.63" r="18.5"/><circle class="cls-3" cx="287.55" cy="812.04" r="18.5"/><circle class="cls-3" cx="242.5" cy="834.55" r="18.5"/><circle class="cls-3" cx="263.07" cy="719.14" r="18.5"/></g><g id="足跡-5" data-name="足跡"><path class="cls-4" d="M313.14,229.54a85,85,0,0,0-5.9-15l-3.57-7.07-3.06-5.58a96,96,0,0,0-7.31-11.37l-.73-1a86.93,86.93,0,0,0-6.63-7.84h0a105.13,105.13,0,0,0-8.42-7.93l-1.2-1-4.52-3.46c-2-1.57-4.16-3.05-6.34-4.43h0a59.82,59.82,0,0,0-7.74-4.13h0A49.87,49.87,0,0,0,246,157.14h0a38.6,38.6,0,0,0-5.37-.53h0a72.73,72.73,0,0,0-12.34.75h0q-3.81.57-7.54,1.47l-3.33.81q-3.84.93-7.59,2.14h0a105.12,105.12,0,0,0-14.65,6l-1.57.79q-2.39,1.19-4.65,2.55L185.88,173a73.25,73.25,0,0,0-7.32,5L177,179.15q-4.12,3.19-8,6.71l-4.62,4.21h0a113.87,113.87,0,0,0-10.77,12.25l-1.54,2-4.47,6.33q-3.12,4.41-5.79,9.11l-.18.33c-1.14,2-2.22,4-3.22,6.11h0a19.09,19.09,0,0,0-1.57,4.81l-.8,4.41-.36,2.55a84.19,84.19,0,0,0-.82,9.38h0a45.49,45.49,0,0,0,1.75,9.89h0c.23.8.48,1.58.75,2.36h0a75.79,75.79,0,0,0,4.41,10.08h0a16.67,16.67,0,0,0,1.71,2.6h0a67.38,67.38,0,0,0,5.57,6.13h0a55.87,55.87,0,0,0,4.41,3.86h0a93.54,93.54,0,0,0,8,5.6l.1.06q4.46,2.81,9.08,5.32h0q3.92,2.13,8,3.86L183,299l3.84,1.45q5.15,1.94,10.45,3.38l2.72.73q4.38,1.18,8.82,2.12l7.56,1.58,5.22,1q6,1.14,12.16,1.82l4.48.49q4.94.54,9.9.77h0a152.56,152.56,0,0,0,17.24-.17h0q5.19-.34,10.33-1.15h0a71.76,71.76,0,0,0,10.52-2.48h0c1.88-.6,3.74-1.28,5.56-2h0a45,45,0,0,0,9.05-5h0a43,43,0,0,0,4.72-3.92l1.55-1.48c1.14-1.1,2.25-2.24,3.31-3.43h0a52.31,52.31,0,0,0,7.8-11.47h0a15.13,15.13,0,0,0,.93-2.28h0a44.8,44.8,0,0,0,2.1-13.05h0a39.75,39.75,0,0,0-.48-6.54l-.84-5.2c-.39-2.44-.9-4.87-1.51-7.27l-1-4.06c-.6-2.35-1.3-4.68-2.09-7l-2.16-6.24Z" transform="translate(-39.59 -36.77)"/><circle class="cls-4" cx="153.31" cy="47.18" r="47.17"/><circle class="cls-4" cx="282.26" cy="60" r="47.17"/><circle class="cls-4" cx="342.81" cy="173.26" r="47.17"/><circle class="cls-4" cx="47.18" cy="128.92" r="47.17"/></g><g id="足跡-6" data-name="足跡"><path class="cls-4" d="M776.55,928.46a73.14,73.14,0,0,0,1.72-13.68l.21-6.75,0-5.43a80.23,80.23,0,0,0-.84-11.49l-.14-1a73.76,73.76,0,0,0-1.77-8.58h0a90,90,0,0,0-3.07-9.37l-.49-1.26-2-4.43q-1.33-3-2.94-5.91h0a52.71,52.71,0,0,0-4.11-6.26h0a42.66,42.66,0,0,0-7.3-7.41h0a31.62,31.62,0,0,0-3.81-2.6h0a62.39,62.39,0,0,0-9.55-4.47h0c-2.05-.75-4.14-1.41-6.25-2l-2.83-.75c-2.16-.58-4.35-1.08-6.55-1.49h0a88.92,88.92,0,0,0-13.41-1.5l-1.5-.06c-1.51,0-3,0-4.53,0l-3.1.12a65.37,65.37,0,0,0-7.52.76l-1.64.27q-4.39.71-8.71,1.77l-5.18,1.27h0A97.62,97.62,0,0,0,668.19,843l-2,.89-5.94,2.92q-4.12,2-8,4.46l-.27.17c-1.67,1-3.31,2.13-4.91,3.27h0a16,16,0,0,0-3.13,3l-2.4,3-1.31,1.76a70.49,70.49,0,0,0-4.44,6.69h0a39.44,39.44,0,0,0-2.72,8.13h0c-.15.68-.29,1.37-.4,2.07h0a63.67,63.67,0,0,0-.81,9.35h0a13.88,13.88,0,0,0,.22,2.65h0a55.75,55.75,0,0,0,1.67,6.86h0a46.24,46.24,0,0,0,1.73,4.69h0a81.75,81.75,0,0,0,3.68,7.45l0,.08q2.19,3.92,4.64,7.69h0c1.37,2.13,2.85,4.19,4.42,6.17l2.49,3.14L653,930q3.06,3.56,6.45,6.8l1.74,1.66q2.79,2.67,5.74,5.18l5,4.27,3.5,2.87q4.06,3.33,8.37,6.33l3.16,2.19c2.32,1.62,4.68,3.16,7.1,4.62h0a132.14,132.14,0,0,0,13,6.91h0q4,1.86,8.21,3.35h0a60.88,60.88,0,0,0,8.89,2.43h0c1.65.32,3.32.57,5,.75h0a38.83,38.83,0,0,0,8.82-.07h0a35.65,35.65,0,0,0,5.14-1l1.76-.48c1.31-.35,2.61-.76,3.88-1.21h0a44.64,44.64,0,0,0,10.53-5.41h0a13,13,0,0,0,1.62-1.33h0a38.37,38.37,0,0,0,6.91-8.92h0a32.89,32.89,0,0,0,2.3-5.1l1.5-4.23c.7-2,1.31-4,1.83-6.06l.88-3.48c.51-2,.93-4,1.28-6.07l.93-5.56Z" transform="translate(-39.59 -36.77)"/><circle class="cls-4" cx="706.3" cy="733.57" r="40.24"/><circle class="cls-4" cx="797.66" cy="795.79" r="40.24"/><circle class="cls-4" cx="796.8" cy="905.34" r="40.24"/><circle class="cls-4" cx="593.44" cy="751.5" r="40.24"/></g></g></g></g></svg>