<svg xmlns="http://www.w3.org/2000/svg" xmlns:xlink="http://www.w3.org/1999/xlink" viewBox="0 0 1724.94 2649.9"><defs><style>.cls-1{fill:none;}.cls-2{fill:#a84f4e;}.cls-3{fill:#f5dacd;}.cls-4{clip-path:url(#clip-path);}.cls-5{fill:#e69d90;}.cls-6{fill:#f6dbd0;}.cls-7{fill:#fffcf3;}.cls-8{fill:#0f132c;}.cls-9{fill:#41373e;}.cls-10{fill:#e9b2a6;}.cls-11{fill:#eab4ae;}.cls-12{fill:#f9e2ed;}.cls-13{fill:#c6abbb;}.cls-14{fill:#213d4d;}.cls-15{clip-path:url(#clip-path-2);}.cls-16{fill:#917173;}.cls-17{clip-path:url(#clip-path-3);}.cls-18{fill:#9b9dab;}.cls-19{fill:#0c0809;}.cls-20{fill:#6b5f62;}.cls-21{fill:#140907;}.cls-22{fill:#fef7f9;}.cls-23{clip-path:url(#clip-path-4);}.cls-24{clip-path:url(#clip-path-5);}.cls-25{fill:#e6aa9e;}.cls-26{fill:#e1867e;}.cls-27{fill:#dd726b;}.cls-28{fill:#e28078;}.cls-29,.cls-30{fill:#9c372e;}.cls-30{opacity:0.7;}.cls-31{fill:#eecac1;}.cls-32{fill:#d69995;}.cls-33{opacity:0.4;}.cls-34{fill:#f9fae3;}</style><clipPath id="clip-path"><path class="cls-1" d="M699.2,1179l8.62,46.59,4.61,29.33,4,31.06,1.55,12.72q1.34,10.86,1.79,21.8l1,23.77q.27,6.13.16,12.27l-.35,20.74a62.05,62.05,0,0,1-1.83,13.9h0a44.62,44.62,0,0,1-3.31,9l-3,6.05L667.56,1420l-111,31.92,144,168,153.41,115.7h163.69L1153.89,1541l-7.61-60.23-60.84-43.66.7-15.2q.73-16.28,3-32.44l1.55-11.07q1.2-8.57,3.09-17l4-17.92q1.95-8.7,4.75-17.17l24.4-73.85Z"/></clipPath><clipPath id="clip-path-2"><path class="cls-1" d="M1251.67,916.38l-.37,14.3-.22,3.74a72,72,0,0,1-3.1,17.08h0a62.19,62.19,0,0,1-6,13.39L1240.2,968a124.69,124.69,0,0,1-7.79,11.54l-7.72,10.16c-1.33,1.75-2.72,3.44-4.18,5.09l-4.17,4.71a136,136,0,0,1-10.62,10.72l-7.45,6.72q-2,1.79-4,3.46l-11.49,9.32-5.77,4.54a37,37,0,0,1-9.86,5.54h0a24.4,24.4,0,0,1-7.11,1.51l-3.71.21a70.47,70.47,0,0,1-10.17-.13l-3.92-.33a76,76,0,0,1-17.71-3.66h0a41.14,41.14,0,0,1-3.86-1.51l-2.09-.93a24,24,0,0,1-8-5.83h0a27.49,27.49,0,0,1-5.86-10.39l-.29-1a43.78,43.78,0,0,1-1.84-10.77l-.09-2a75.05,75.05,0,0,1,1.53-18.61l1.4-6.64a45.24,45.24,0,0,1,3.25-9.73l5.88-12.55,6.9-13.8a53.37,53.37,0,0,1,4.39-7.25l5.69-7.88a40.11,40.11,0,0,1,2.93-3.58l7-7.64,9-9.36,11-8.43,16.87-9.17,35.93-4.4,23.84,3.3,9.16,11Z"/></clipPath><clipPath id="clip-path-3"><path class="cls-1" d="M1251.76,916.21l-.37,14.31-.22,3.74a71.8,71.8,0,0,1-3.1,17.07h0a62.21,62.21,0,0,1-6,13.39l-1.83,3.08a125.09,125.09,0,0,1-7.78,11.53l-7.73,10.17q-2,2.61-4.18,5.09l-4.17,4.71a134.16,134.16,0,0,1-10.62,10.71l-7.44,6.73q-2,1.78-4,3.46l-11.5,9.32-5.77,4.53a36.68,36.68,0,0,1-9.85,5.55h0a24.52,24.52,0,0,1-7.12,1.5l-3.71.22a70.31,70.31,0,0,1-10.16-.13l-3.93-.33a76,76,0,0,1-17.71-3.66h0a41.14,41.14,0,0,1-3.86-1.51l-2.09-.94a23.82,23.82,0,0,1-8-5.82h0a27.33,27.33,0,0,1-5.85-10.39l-.3-1a43.78,43.78,0,0,1-1.84-10.78l-.08-2a74.11,74.11,0,0,1,1.53-18.61l1.39-6.64a44.55,44.55,0,0,1,3.26-9.73l5.87-12.56,6.9-13.79a52.76,52.76,0,0,1,4.39-7.25l5.7-7.88a37.07,37.07,0,0,1,2.92-3.58l7-7.64,9-9.36,11-8.43,16.87-9.17,35.93-4.4,23.84,3.3,9.17,11Z"/></clipPath><clipPath id="clip-path-4"><path class="cls-1" d="M815,838.32l4,10.54a80.89,80.89,0,0,1,4.12,15.29l.17,1.05c.37,2.22.65,4.44.83,6.68l1.08,13.27.51,11a70.9,70.9,0,0,1-.09,7.85l-.25,3.85c-.11,1.61-.29,3.2-.53,4.79l-.65,4.31a59.83,59.83,0,0,1-2,8.86L821,929.51c-.37,1.2-.78,2.39-1.23,3.56l-2.88,7.49a48.77,48.77,0,0,1-3.74,7.65L810.25,953l-4.75,7.47-1.86,2.9a11.91,11.91,0,0,1-3,3.15h0a11.51,11.51,0,0,1-4.31,1.93l-5.44,1.18-10.19,1.7-7.89,1.41a12.51,12.51,0,0,1-3.23.15l-8.14-.68a15.81,15.81,0,0,1-2.26-.34l-6.84-1.53a8.28,8.28,0,0,1-3-1.32L743,964.59a13.6,13.6,0,0,1-1.84-1.55l-8.34-8.34a16.63,16.63,0,0,1-1.8-2.13l-6.27-8.89c-.71-1-1.37-2-2-3.11l-6.33-11.07c-.6-1.06-1.16-2.13-1.69-3.22l-7-14.65-6.19-14.74a43.27,43.27,0,0,1-1.61-4.56l-1.38-4.77a25.08,25.08,0,0,1-1-7v-8c0-1.13,0-2.25.15-3.38l.87-10.19.85-6.56a31.73,31.73,0,0,1,2-7.67l1.91-4.78L709,825.9l28-7.27,32.58.68,21.05,1.36,22.74,11.88Z"/></clipPath><clipPath id="clip-path-5"><path class="cls-1" d="M815.07,838.78l4,10.54a81.83,81.83,0,0,1,4.11,15.29l.18,1.06q.55,3.32.82,6.67l1.09,13.28.5,11a70.72,70.72,0,0,1-.08,7.84l-.26,3.86c-.11,1.6-.28,3.2-.52,4.79l-.66,4.31a59.42,59.42,0,0,1-2,8.85L821.06,930c-.38,1.2-.79,2.39-1.24,3.57L816.94,941a49.28,49.28,0,0,1-3.73,7.66l-2.89,4.82L805.56,961l-1.86,2.9a12,12,0,0,1-3,3.15h0a11.49,11.49,0,0,1-4.31,1.93L791,970.13l-10.18,1.69-7.9,1.41a12.49,12.49,0,0,1-3.23.15l-8.13-.67a17.13,17.13,0,0,1-2.26-.35l-6.85-1.52a8.3,8.3,0,0,1-3-1.33l-6.35-4.46a14.25,14.25,0,0,1-1.84-1.55l-8.34-8.34a16.55,16.55,0,0,1-1.79-2.13l-6.27-8.88c-.71-1-1.38-2-2-3.12L716.53,930c-.61-1.05-1.17-2.13-1.69-3.22l-7-14.65-6.19-14.74a41.18,41.18,0,0,1-1.62-4.56L698.63,888a25.14,25.14,0,0,1-1-7v-8c0-1.12,0-2.25.14-3.38l.87-10.19.85-6.56a31.85,31.85,0,0,1,2-7.67l1.92-4.77,5.6-14.12,28-7.27,32.58.68,21,1.36L813.37,833Z"/></clipPath></defs><title>アセット 1</title><g id="レイヤー_2" data-name="レイヤー 2"><g id="illust"><path id="後髮" class="cls-2" d="M1479.05,826.85,1437,1121.44l-84.11,223.17-56.07,98.69L1245.18,1496l-78.5,41.49,10.66-65L1197,1452a108.85,108.85,0,0,1,8.65-8.12l6-5a117.82,117.82,0,0,0,12.31-12h0a108,108,0,0,0,13.17-18.4l2.43-4.28q3.57-6.29,6.69-12.83l4.34-9.1q4.15-8.7,7.46-17.77l2.9-8q2.65-7.29,4.76-14.76l5.08-18,4.77-19.43a182.89,182.89,0,0,0,3.73-20l.91-7,6.64-49.23-10.52,38.17-7.74,27.66-10,31-5.51,17.45a178.75,178.75,0,0,1-11.15,27.25l-.83,1.62a229.8,229.8,0,0,1-16.79,27.88l-1.12,1.59L1207.77,1425l-.21.33a226.59,226.59,0,0,1-28.74,36.22l-5.9,6-11.62-3.32,17.15-19.92,19.92-24.34-13.31,11.35q-5.5,4.7-11.43,8.84l-5.14,3.6L1143.05,1462l-21-2.77,10-24.34,3.34-7.78a92.38,92.38,0,0,0,5.15-15.89h0a115.75,115.75,0,0,0,2.61-18.14l.52-8,3.32-33.19-10.61,18.57q-2.67,4.67-5,9.5h0a158.93,158.93,0,0,0-9.71,25.46l-1.78,6.22-4,13.21q-3.19,10.58-5.63,21.35l-10.29,45.65-385.58-70.26-2.26-10.19a28.51,28.51,0,0,0-3.62-8.87l-7.39-11.92-22.13-39.27,4.49,15.71c.69,2.43,1.5,4.83,2.42,7.18h0a133.94,133.94,0,0,0,8.52,17.75l2.61,4.53a33.2,33.2,0,0,1,4.28,19.42l-.75,8.43-41.48,8.3-7.86-17.29a69.36,69.36,0,0,0-7.89-13.23l-9.15-12.08-6.8-10q-3.7-5.46-6.91-11.23l-1.4-2.51a138,138,0,0,1-6.64-13.68h0A198.78,198.78,0,0,1,605,1332l-4.08-13.81,3.81,24.13q1.17,7.4,2.92,14.68l4.89,20.38,4.14,16.56q1.4,5.57,3.24,11l3.16,9.29a130.43,130.43,0,0,0,11.38,24.68l19,32-34.22-31.21q-3.39-3.09-7.08-5.83L583,1412.17a59.52,59.52,0,0,1-13.76-14.34l-3.73-5.5-9.23-15a117.91,117.91,0,0,1-9.62-19.48l-8.4-21.87L462.54,1155.7l14.59-241.91L486.56,695l56.62-188.72,93.51-202.46,199-111.52,387.75,96.94,82.35,108.09L1439.64,685.6Z"/><path id="首" class="cls-3" d="M698.87,1179.31l8.62,46.59,4.61,29.33,4,31.06,1.55,12.72q1.33,10.86,1.79,21.79l1,23.77q.27,6.14.16,12.28l-.35,20.74a62.05,62.05,0,0,1-1.83,13.9h0a43.75,43.75,0,0,1-3.32,9l-3,6.06-44.87,13.8-111,31.93,144,168,153.41,115.7h163.69l136.27-194.55-7.61-60.23-60.84-43.66.69-15.2q.75-16.29,3-32.45l1.55-11.06q1.2-8.57,3.09-17l4-17.92q1.95-8.7,4.75-17.17l24.4-73.85Z"/><g id="首_-_影" data-name="首 - 影"><g class="cls-4"><polygon class="cls-5" points="707 1267.21 727.85 1304.87 749.87 1339.05 773.62 1374.39 796.22 1403.36 818.23 1428.85 839.09 1448.55 859.94 1464.19 877.9 1476.93 894.7 1482.73 905.71 1486.2 914.4 1490.26 921.35 1496.05 924.83 1504.16 928.31 1512.27 943.95 1528.49 966.54 1537.76 986.82 1544.72 1007.68 1548.19 1037.22 1548.19 1066.77 1546.45 1173.37 1540.08 1202.21 1271.46 1068.83 1220.22 764.86 1029.05 658.89 1073.45 640.73 1151.16 707 1267.21"/></g></g><path id="腕_-_左" data-name="腕 - 左" class="cls-6" d="M1631.22,1722l37,21.77h0a100.33,100.33,0,0,1,9.3,19.92h0a175.36,175.36,0,0,1,7.38,30.64h0a161.61,161.61,0,0,1,1.67,18.89l.2,6.66q.35,11.36-.15,22.72l-.2,4.78c-.36,8.4-1.11,16.79-2.23,25.12l-2.42,17.88-5.75,32-7.78,33.45q-3.3,14.19-5.37,28.61l-4.51,31.58-5,31.52q-2.41,15.28-5.87,30.4l-.5,2.16q-2.62,11.47-4.38,23.14l-5.63,37.22-9,49.28L1606.57,2290l-18.89,71.46-17.25,57.09-17.25,52.57L1540,2514.61l-14.78,45.18-9.9,30.27q-4.06,12.43-9.1,24.52h0a72.9,72.9,0,0,0-4.56,15.78l-2.32,13.62-1.23,4.93H1364.27l6.94-337.36,140.85-517.18Z"/><path id="腕_-_右" data-name="腕 - 右" class="cls-6" d="M78.6,1715.18l-6.39,15q-6.9,16.2-12.24,33h0a378.92,378.92,0,0,0-11,43.37h0q-1.55,8-2.59,16.17l-1.85,14.41L42.19,1866l-4,63.57-4,76.29-5.2,93-.58,89v74.55l.93,18.07a289.54,289.54,0,0,1,0,30.9l-1.47,26.74-6.36,79.75-5.2,42.77L6.36,2541l-4.05,57.22L0,2648.54H361.79L243.35,1844Z"/><path id="服" class="cls-7" d="M450.8,1490.72,431.52,1488a92.06,92.06,0,0,1-23.43-6.55h0a177.13,177.13,0,0,0-26.19-5.29h0a44.43,44.43,0,0,0-12.08.15l-15.32,2.32-13.61,2.76a147.71,147.71,0,0,1-20.53,2.7h0a160.05,160.05,0,0,0-31.94,5.2h0a8,8,0,0,0-1.57.59l-20.6,10.1H246q-12.4,0-24.78-1.18l-8.51-.81a20.83,20.83,0,0,0-8.79,1.06h0a45,45,0,0,0-9.44,4.58h0a128.42,128.42,0,0,0-18.75,14.59l-4.6,4.33-10.48-2.82-3.26-.76a173.69,173.69,0,0,0-35.84-4.41h0a46.16,46.16,0,0,0-8,.54l-35.12,5.43-13.43,1.92a152,152,0,0,1-29.69,1.3h0l-7.22,2.52a11.07,11.07,0,0,0-3.67,2.13h0a18.55,18.55,0,0,0-6,10.51h0a12.77,12.77,0,0,0-.07,4.36l1.27,8.21q1.2,7.73,3.11,15.33l1.32,5.3,7.66,39.08,8.46,45.53,3.53,22.68a121.85,121.85,0,0,0,3.75,16.44h0a41.46,41.46,0,0,0,4.45,9.83h0a65,65,0,0,0,5.25,7.31l7.72,9.31q3.11,3.73,6.42,7.28l8.36,9,.81,33.84.4,42.31-.51,14.76q-.3,8.2-1.36,16.36h0a77.65,77.65,0,0,0-.56,14.38l.42,7.69h0a99.92,99.92,0,0,0,7,29.55l2.71,6.71,3.74,10.19a196.56,196.56,0,0,1,6,19.43l3.94,15.51,7.65,27.8,6.26,26a235.2,235.2,0,0,0,9.8,31.1l3.69,9.37h0a99.94,99.94,0,0,0,18.54,28.25l1,1.09a137,137,0,0,0,20.73,18.2h0l10.88,5.24,2.2,7.85a8.49,8.49,0,0,0,2.28,3.82l8.82,8.48,6.44,6,1.3,6a150.81,150.81,0,0,0,4.92,17.55h0a111.88,111.88,0,0,1,5.58,25.3l.7,6.77-1.6,1.06a48.32,48.32,0,0,0-11.82,11.18h0a19.08,19.08,0,0,0-3.23,6.79h0a15.59,15.59,0,0,0,.3,8.59h0a85,85,0,0,0,11,22.12h0a102.55,102.55,0,0,0,17.24,19.21L236,2256.7l29,22.56,2,24.58.36,3.51a129.5,129.5,0,0,0,7.29,31.55h0l-4.14,47.94L265,2497.9l-.56,62.25v89.75h1138l2.28-56.18q.52-12.81,2-25.56l5.3-47.27,5-43.75,16.27-46.55,9.78-33.1a297.44,297.44,0,0,0,7.73-33l.88-5q1.8-10.29,2.6-20.7l.12-1.6a154.81,154.81,0,0,0,.27-19.74l-.07-1.34h0a131.66,131.66,0,0,0,23.69-18.43l7.82-7.66a166.84,166.84,0,0,0,18.22-21.15h0a71.86,71.86,0,0,0,11.43-24.37h0a182,182,0,0,0,4.72-26.51h0a112.61,112.61,0,0,0,.46-16.93l-.15-3.3-4.43-2.56a87.15,87.15,0,0,1-11.78-8.18h0a22.75,22.75,0,0,1-6.18-7.95l-2.29-4.86,1.74-4q2.19-5,4.79-9.77h0a58.82,58.82,0,0,0,5.9-16h0a138.46,138.46,0,0,1,7.8-25h0a21.29,21.29,0,0,1,6.72-8.7h0a18.65,18.65,0,0,1,11.33-3.84h3.78l1.13-8.41,6.34-6.2a162.51,162.51,0,0,0,29.55-39.24h0l.57-1.19a185.11,185.11,0,0,0,15-46.74h0a67.14,67.14,0,0,0,.6-19.76h0a268.33,268.33,0,0,0-7-36.87l-.3-1.11a17,17,0,0,0-1.52-3.84h0a134.35,134.35,0,0,1-9.52-21.88l-.7-2.1,9.33-4.27a57.31,57.31,0,0,1,8.5-3.12h0a54.44,54.44,0,0,0,17.7-8.66h0a100.66,100.66,0,0,0,13.17-11.67h0a16.72,16.72,0,0,0,4.51-10.08l1.19-14.36,11.78-26.92,6.32-15a150.85,150.85,0,0,0,7.12-21.1l6.87-26.77c.67-2.61,1.22-5.26,1.65-7.93l2.72-16.75,16.41-25.49a301.25,301.25,0,0,0,17.95-32l1.06-2.2a246.69,246.69,0,0,0,12.35-30.64l1.7-5.21q2.13-6.54,3.8-13.22l.44-1.76a34.54,34.54,0,0,1,3.92-9.46l4.07-6.78-7.14-7.58a11.77,11.77,0,0,0-4.34-2.92l-21.35-8.27q-10.92-4.21-22.16-7.52l-41.41-12.16a270.94,270.94,0,0,0-36.6-8.06l-22.93-3.41-13.37-4.19a193,193,0,0,0-31-7h0q-12.22-1.73-24.58-2.28h0l-2.49-1.48a126.26,126.26,0,0,0-32.86-13.68h0a276.44,276.44,0,0,0-30.6-6.09l-28.39-4q-8.12-1.15-16.28-1.84l-38-3.2-89.74,33.66L915.74,1726l-149.62-9.73L508.24,1524.06Z"/><path id="襟" class="cls-8" d="M716.89,1399.09l-38.79,1.47-34.84,1.64-27.16,2.6-16.37,1.26c-2.87.22-5.73.33-8.6.33h-4a17.3,17.3,0,0,0-3.59.38l-1.58.34a18.64,18.64,0,0,0-7.37,3.38l-9.94,7.56-24.38,18-31.26,15.37-29.92,15.19q-4.53,2.3-9.21,4.26l-11.74,4.93-.83.33a73.6,73.6,0,0,1-20.25,4.92h0q-6,.57-11.92.58h-6.75l5.62,21q2.32,8.72,5.18,17.26l.74,2.23a209.46,209.46,0,0,0,16.59,37.23L456,1576q4.82,8.47,10.21,16.61l25.87,39,19.3,26.5q7.73,10.59,16.45,20.38l26.25,29.43,43.45,44,24.38,24.38q5.84,5.84,12,11.29l21.82,19.32A217.91,217.91,0,0,0,674.8,1822l14.73,10.39q7.65,5.39,15.72,10.1L729,1856.28h0a160.64,160.64,0,0,0,31.95,11.46l3,.73h0a63.41,63.41,0,0,0,13.74-13.77h0a140.58,140.58,0,0,0,14.45-24.8l4.12-9.11,10.6-27,3.25-7.59a152.44,152.44,0,0,0,7.64-22.5l4-15.48,11.14,4.14a110.12,110.12,0,0,0,15.13,4.41l13.43,2.88a120.15,120.15,0,0,0,17.21,2.39l4.79.31a71.67,71.67,0,0,0,21.5-1.85h0q4.76-1.15,9.41-2.7l16-5.34,3,13.71q1.75,8,4.16,15.87l6.11,20a172.34,172.34,0,0,0,7.54,20.14l5.8,13a108.1,108.1,0,0,0,7,13.19l5.73,9.21a84.85,84.85,0,0,0,12,15.18h0a8.31,8.31,0,0,0,5.08,2.41l5.24.52a9.56,9.56,0,0,0,4.61-.67l14.63-6q7.52-3.11,14.76-6.85l15.8-8.19q6.63-3.44,12.93-7.47l21.68-13.92q7.53-4.83,14.65-10.25l41.65-31.74q6.87-5.23,13.31-11l29.71-26.66q5.19-4.66,10.08-9.62l23.48-23.8a231.87,231.87,0,0,0,18.29-21l25.41-33,26.74-37.36q4-5.57,7.56-11.41l13.92-22.77,23.84-35,9-13.77-31.79-5.3-.68-.22a194.48,194.48,0,0,1-34.34-14.53l-9-4.86-10.53-5.93a95.9,95.9,0,0,1-12.22-8.16l-9-7.11h0a120.9,120.9,0,0,1-20.22-23.82l-.79-1.22q-2.31-3.57-4.39-7.28l-7.45-13.25h-16a107.79,107.79,0,0,1-18.64-1.62l-21-3.68-33.91-7.42-18.71-3.71-.37,35.51,13.25,13.78,20.14,19.07-26.5,24.38-25.66,24.21c-1.62,1.52-3.18,3.1-4.69,4.72l-18.4,19.82-8.53,8.88a95.4,95.4,0,0,1-8.89,8.17l-20.2,16.33-22.79,18-14.3,11.7c-2.12,1.74-4.33,3.38-6.6,4.92l-15.09,10.19c-.74.5-1.46,1-2.17,1.56h0A90.15,90.15,0,0,1,913,1673.77h0q-4.89,1.29-9.87,2.14l-10.39,1.79-6.88,19.08-6.36,21.73-7.21-14.81q-2.32-4.8-4.17-9.81l-3.46-9.45a12.15,12.15,0,0,0-1.4-2.7l-.8-1.18a46.8,46.8,0,0,0-12.95-12.68l-6.05-4-29.67-17.49L776.58,1622q-6.27-4.14-12.15-8.82l-22.59-18q-5.45-4.34-10.52-9.13l-23.55-22.24-20.66-20.13-20.93-21.37c-3-3.06-5.88-6.26-8.62-9.56l-24-29-26-29.15,4,.72a102.09,102.09,0,0,0,15.5,1.61l8.35.23a15.65,15.65,0,0,0,6.61-1.28l20.11-8.73a81.79,81.79,0,0,0,9.32-4.77l8.4-5a87.23,87.23,0,0,0,17-13.26l4-4a82.54,82.54,0,0,0,10.29-12.54Z"/><g id="手"><path class="cls-6" d="M177.15,2648.34l31.67-20.94c3.17-2.09,6.26-4.27,9.3-6.54l26.76-20.08a242.47,242.47,0,0,0,24.81-21.36l31.52-31.06,38.09-37.05q7-6.78,13.46-14l24.88-27.6q8.12-9,15.67-18.48l23.92-30,25.92-33.95,40.12-62.95.11-.35a122.49,122.49,0,0,1,10-23.66c7.58-13.69,14.69-27.5,18.88-42.64h0l10.1-26.94q4.71-12.55,10.4-24.71l17.14-36.61,22.22-51.22,13-34,.52-1.2a123.5,123.5,0,0,1,26-38.3h0l29.22-27.41q10.89-10.23,20.94-21.31l27.45-30.28c3-3.28,5.87-6.66,8.67-10.1l6.61-8.15a142.76,142.76,0,0,1,16.93-17.58l.65-.58,2.15-1.07a36.62,36.62,0,0,1,16.37-3.86h0l.15-.07a176.46,176.46,0,0,0,18.88-9.64l5-2.93q6.84-4,13.29-8.64h0a254.11,254.11,0,0,0,28.56-23.72h0a40.46,40.46,0,0,1,5.68-4.53l17.33-11.41a19.68,19.68,0,0,1,10.83-3.25h0a4.46,4.46,0,0,1,4.28,3.22h0a21.75,21.75,0,0,0,5.53,9.41h0a7.25,7.25,0,0,1,1.5,2.18l1.92,4.32h0a39.89,39.89,0,0,1,19.89-9.13h0a52.8,52.8,0,0,1,9.65-.59l2.8.08a37.67,37.67,0,0,1,22.59,8.41h0l5.1,4.88a88.27,88.27,0,0,1,15.4,19.59h0a9.15,9.15,0,0,1,.78,1.75l.37,1.17a89.2,89.2,0,0,1,4.12,23.54l.15,4v3.23a68,68,0,0,1-3.08,20.22h0l5.08.94a42.25,42.25,0,0,1,20.38,10h0a20.46,20.46,0,0,1,3.91,4.69l6.48,10.67a46,46,0,0,1,4,8.35l.34.94a61.32,61.32,0,0,1,2,6.75h0a21,21,0,0,1,.06,9.2h0a84.83,84.83,0,0,1-6.31,18.45l-2,4.1,4.1,4.1a36.13,36.13,0,0,1,6.49,8.84l2.58,4.94a55.26,55.26,0,0,1,3.71,9l1.72,5.55a44.63,44.63,0,0,1,1.94,15.7h0a21.62,21.62,0,0,1-1.21,6L982,2092q-2.5,7-5.64,13.87l-10.45,22.81,3.27,4a38,38,0,0,1,6.91,13.05h0a41.09,41.09,0,0,1,1.72,10.5h0a101,101,0,0,1-2.83,27.16l-.78,3.19q-2.75,11.19-6.56,22.06L956,2241.62l-13.58,37-2.71,7.54a96.54,96.54,0,0,1-7,15.18h0a45.23,45.23,0,0,1-8,10.2l-1.82,1.75a156.21,156.21,0,0,1-20.42,16.58l-18.1,12.32L853,2361.35l-40.73,27.16-34,20.28q-7.38,4.41-14.4,9.36l-14,9.86-6.87,4.77a175.44,175.44,0,0,1-32.6,17.84h0a66.61,66.61,0,0,0-9.54,4.91l-13.33,8.27-17.89,13-81.47,75.3-17.28,24.07-20,26.41q-7.11,9.38-14.92,18.21L511,2649l-333.89-.61"/><path class="cls-9" d="M504.25,2286.68l-8.5.25a19.08,19.08,0,0,0-7.46,1.78l-4.26,2-19.78,22.9L448,2331.5q-4.06,4.48-7.8,9.25l-11.36,14.49v6.43a143.35,143.35,0,0,0,2.46,26.47h0a28,28,0,0,0,2.19,6.8l1.09,2.34a122.94,122.94,0,0,0,11.06,19h0a65,65,0,0,0,5.35,6.59l15.85,17.18,19.86,19.42q4.08,4,8.43,7.72l16.43,14q4.21,3.6,8.61,6.95l10.42,7.94a109.57,109.57,0,0,0,14.85,9.53h0l3.09,3.43a11.47,11.47,0,0,1,2.35,4l1.85,5.54,9.65,8.75q7,6.34,14.48,12.12l4.19,3.24a204.28,204.28,0,0,0,23.57,15.73l2.24,1.28h0a63.27,63.27,0,0,0,13.78-12.45h0a20.15,20.15,0,0,1,2.94-2.9l3.58-2.87,29.15.52-.52,3.65h0a18.84,18.84,0,0,0,10.94-4.68l13.53-12,20-21.15a128.44,128.44,0,0,0,11.22-13.64h0a70.25,70.25,0,0,0,8.49-15.84h0a14.35,14.35,0,0,0,.94-5.1V2447.9l-15.42,4.79-14.25,7.18-21.54,16.89-30-19.49L593.34,2424l-38.52-33.83-31.23-32.8-21.34-23.94-9.89-18.22-5.21-3.64Z"/></g><path id="顔" class="cls-6" d="M1432.58,943.93l-6.64,27.85a50.51,50.51,0,0,1-1.8,5.92h0a59.67,59.67,0,0,1-6.31,12.38l-.13.2c-1.07,1.6-2.18,3.17-3.35,4.7l-5.38,7.12a82.8,82.8,0,0,1-5.75,6.81l-5.79,6.15q-2.39,2.52-4.92,4.87l-2.09,1.92a96.53,96.53,0,0,1-8.68,7.09l-5.63,4.08-4.43,3.49c-1.48,1.18-2.92,2.42-4.29,3.73l-5.66,5.4-4.88,4.89a73.68,73.68,0,0,0-5.35,6l-6.25,7.75-9.82,11.22-9.82,10.17-4.39,4.15q-1.92,1.82-4,3.5l0,0a75.88,75.88,0,0,1-8.17,5.85h0a45.34,45.34,0,0,1-6.43,3.3h0a58.58,58.58,0,0,1-10.45,3.25h0c-.85.18-1.72.32-2.59.44l-6.76.88-4.91,11.92-5.45,13.18a121.6,121.6,0,0,1-6.83,13.89l-7,12.22L1249.8,1172q-3.1,4.83-6.59,9.41l-12.3,16.12-8.43,9.94a149.19,149.19,0,0,1-11.13,11.78L1200,1230q-3.46,3.29-7.12,6.38l-10.93,9.27q-6.11,5.17-12.66,9.78l-15.9,11.18-20.34,13.33-25.1,15.76q-5.07,3.18-10.33,6l-57.87,31.19-36.47,18.24-23.15,11.57-8.64,4.08a162.15,162.15,0,0,1-20.44,8l-.15,0c-1.79.56-3.6,1.08-5.42,1.53l-1.47.37q-5.61,1.39-11.33,2.36h0a49,49,0,0,1-9.68.63h0q-5.65-.18-11.26-.84h0a51.83,51.83,0,0,1-12.26-3h0a60,60,0,0,1-8.16-3.83l-11.15-6.31c-2.33-1.32-4.61-2.75-6.83-4.26l-23.33-16-23.45-17.26q-7.07-5.19-13.62-11l-21.5-19.08-26-22.33q-4.21-3.63-8.23-7.47l-14.49-13.87c-4-3.85-7.9-7.88-11.6-12L717.44,1227l-19.64-23.5-15.09-18.11q-4.2-5-8.12-10.3l-6.59-8.83a139,139,0,0,1-9-13.74l-5-8.6a167.19,167.19,0,0,1-7.75-15.21L640,1114.56q-3.19-7.18-5.83-14.61l-5.44-15.38-8.07-26-7-23.85-10.89-5.93c-1.8-1-3.58-2-5.32-3.08h0a73.74,73.74,0,0,1-12.75-9.91h0q-2.24-2.16-4.26-4.55l-9-10.58-8.16-10.46q-3.09-4-5.77-8.21l-.26-.42a77.87,77.87,0,0,1-6.92-13.85L548,961.6l-7.69-22.32-10.2-34.79-29.14-98.41,18-225.59,205-300.06,360.92-10.68,220,149.5,122.79,331L1441.48,903Z"/><path id="耳_-_右" data-name="耳 - 右" class="cls-10" d="M551.72,772.75l-5.42,4.65a20.24,20.24,0,0,0-4.47,5.45l-1,1.78a33.14,33.14,0,0,0-3.66,10.2h0a83.52,83.52,0,0,1-4,14.42l-3.94,10.43-5.82,27.15L525.26,866a36.7,36.7,0,0,0,2.23,9.47l3.89,10.16a46.4,46.4,0,0,0,3.21,6.71l5.11,8.8,1.91,3.71a95.22,95.22,0,0,0,11.19,17l.86,1h0a106.45,106.45,0,0,0,5.94-19.18l1.11-5.35a46.35,46.35,0,0,1,1.91-6.65l1.51-4.12,1.94-5.81,1.84,1.34a46.92,46.92,0,0,1,7.27,6.6l1.31,1.47a18.12,18.12,0,0,1,3.17,5h0a18.55,18.55,0,0,1,1.42,5.59l.9,9.89.56,8.8a32.43,32.43,0,0,0,1.06,6.34h0a30.22,30.22,0,0,0,4.8,9.94h0c.63.86,1.23,1.74,1.81,2.64l1,1.5a78.84,78.84,0,0,0,5.25,7.2l6.09,7.41h0a89.55,89.55,0,0,1-5.43-20h0q-.76-5.17-2-10.28L593.61,919l-.7-3.51q-.85-4.25-2-8.42l-1.37-4.94q-1.35-4.85-2.3-9.8l-.47-2.47a12.56,12.56,0,0,0-2.1-4.88l-2-2.87c-1.46-2-3-4-4.58-6l-2.28-2.76a118.2,118.2,0,0,1-8.55-11.72h0a88.22,88.22,0,0,1-8.27-16.55l-1.6-4.26q-2.12-5.64-3.81-11.44h0a85.88,85.88,0,0,1-3.4-20.63l-.09-2.12a116,116,0,0,1,.12-11.94h0a43.37,43.37,0,0,1,2.9-13.21l1-2.55Z"/><path id="耳_-_左" data-name="耳 - 左" class="cls-10" d="M1424.14,977.7l-2.43,6.44a14.34,14.34,0,0,1-1.93,3.54l-5.43,7.3-4.91,6.5c-.31.41-.64.82-1,1.22l-4.4,5.2c-.57.67-1.15,1.33-1.75,2l-4.89,5.19-7,6.79-2.43,2.37a22.39,22.39,0,0,1-3.11,2.56l-3.14,2.16-5.63,4.08,4.1-13.32-7.52,1.19L1365,1022a47.08,47.08,0,0,1-18.42-1.07h0l-5.55-2.77-.94,3.57a19.48,19.48,0,0,1-3.57,7.15l-3.41,4.32-6,7.29a24.8,24.8,0,0,1-3.32,3.32l-3.5,2.88a22.81,22.81,0,0,1-3,2.08h0a61.21,61.21,0,0,1-12.5,5.46l-3.74,1.14,10.7-23.76a150.13,150.13,0,0,1,8-15.36l11.39-19.08,27.72-37.22h27.32l30.49-5.94L1438,938.53Z"/><g id="目_-_影" data-name="目 - 影"><path class="cls-11" d="M877,824.38l-19.53-9.12c-1.5-.69-3-1.35-4.55-2l-13.33-5.22q-2.87-1.14-5.84-2l-10.44-3c-3.64-1.05-7.33-2-11-2.73l-24.19-5,29.76,9.44,26.5,9.8Z"/><polygon class="cls-11" points="877.7 850.49 849.57 833.84 832.18 823.48 804.79 811.26 829.59 825.7 877.7 850.49"/><path class="cls-11" d="M1254.37,837.08l-6.6-3.78a147.42,147.42,0,0,0-15-7.49l-4.13-1.77a70.25,70.25,0,0,0-9.91-3.41l-9.43-2.48-8.14-2.14-14.38-3.73a101.45,101.45,0,0,0-14.37-2.63l-29.29-3.18,9.14,17.89,27.83-1.6,17.89-1.59,2.17-.1a46.3,46.3,0,0,1,11.45.84l.43.09a55.6,55.6,0,0,1,11.27,3.52l5.23,2.26q4,1.74,7.87,3.87l14.05,7.81Z"/></g><g id="目_-_右" data-name="目 - 右"><path class="cls-12" d="M1119.56,909.67l-21.91,17.19-7.65,6.72a18.66,18.66,0,0,0-4.75,6.51h0a31,31,0,0,0-2,6.41h0a53.75,53.75,0,0,0-1.06,10.66v4.93l.32,9.68a62.16,62.16,0,0,0,.55,6.38l1,7.29c.19,1.33.43,2.64.73,3.95l1.73,7.5c.26,1.14.56,2.28.9,3.4l1.92,6.48a25.39,25.39,0,0,0,2.93,6.45l1.58,2.47a41.81,41.81,0,0,0,5.84,7.28h0a45.42,45.42,0,0,0,9.85,7.48l4.19,2.35a53,53,0,0,0,8.59,3.86l8,2.74c.86.3,1.74.57,2.62.81l12.85,3.5,10.29,2.33q3,.68,6.09,1.19l7.14,1.19a65,65,0,0,0,10.6.88h5.79c1.18,0,2.35,0,3.53-.14l9.08-.72a82.48,82.48,0,0,0,10.85-1.59l.9-.2a93.66,93.66,0,0,0,18.61-6.11h0a47.25,47.25,0,0,0,6.66-3.64l5.87-3.86a93,93,0,0,0,9-6.69l12-10.13,9-8.17,21-20.62L1306,941l-34.8-23.19-36.09-21.48-44.68-8.17-42.1,7.74Z"/><path class="cls-13" d="M1286.57,987.11l-1.85-11.54a43.15,43.15,0,0,0-3.83-12.09h0a65.32,65.32,0,0,0-10.71-15.63h0a97.12,97.12,0,0,0-11.46-10.56h0a57,57,0,0,0-12.23-7.32h0a125.51,125.51,0,0,0-19.3-6.69l-4.82-1.25q-5-1.29-10.19-2.13l-16.68-2.69a89.07,89.07,0,0,0-15.81-1.11l-25.24.48-13.19.68a55.47,55.47,0,0,0-11.1,1.69l-5.7,1.46-8.12,2.35a62.11,62.11,0,0,0-7.83,2.86l-15.65,6.92-2.86,1,7.65-6.72,14-11.23,58.08-22,76,8.93,32.55,22.34,17.23,22.34L1307,971.79Z"/><path class="cls-14" d="M1251.46,916.33l-.36,14.3-.22,3.74a72.9,72.9,0,0,1-3.1,17.08h0a62,62,0,0,1-6,13.39l-1.83,3.07a122.63,122.63,0,0,1-7.78,11.54l-7.72,10.16c-1.33,1.75-2.73,3.45-4.18,5.09l-4.18,4.71a134.16,134.16,0,0,1-10.61,10.72l-7.45,6.72q-2,1.78-4,3.46l-11.5,9.33-5.76,4.53a37.14,37.14,0,0,1-9.86,5.54h0a24.08,24.08,0,0,1-7.12,1.51l-3.7.22a71.91,71.91,0,0,1-10.17-.13L1142,1041a75.41,75.41,0,0,1-17.7-3.66h0a41.07,41.07,0,0,1-3.86-1.5l-2.09-.94a24.1,24.1,0,0,1-8-5.82h0a27.53,27.53,0,0,1-5.86-10.4l-.3-1a43.77,43.77,0,0,1-1.83-10.77l-.09-2a74.62,74.62,0,0,1,1.53-18.62l1.4-6.64a45,45,0,0,1,3.25-9.72l5.88-12.56,6.9-13.8a51.42,51.42,0,0,1,4.39-7.25l5.69-7.88a38.5,38.5,0,0,1,2.92-3.57l7-7.64,9-9.37,11-8.43,16.86-9.17,35.94-4.4,23.83,3.3,9.17,11Z"/><g class="cls-15"><path class="cls-16" d="M1220.31,994.7l-12.63,1.42-17,1.79-9.17,1.27a55.54,55.54,0,0,1-7.62.52h-6.36c-1,0-1.92,0-2.87-.1h0a71.66,71.66,0,0,1-21.41-4.92h0a11,11,0,0,1-1.64-.83l-5-3.07a28.51,28.51,0,0,1-6.46-5.48l-1.84-2.09c-1.07-1.23-2.1-2.48-3.1-3.77l-3.92-5a23.47,23.47,0,0,0-1.81-2l-2.67-2.67a35.06,35.06,0,0,0-4.69-3.92l-7.77-5.4-10.73,35.32v51l54.1,13.86,41.43-11.34,17.14-26.66Z"/></g><g class="cls-17"><path class="cls-18" d="M1094.06,1027.31l21.07-4.58c1.09-.23,2.2-.42,3.31-.55l10.93-1.27a27.07,27.07,0,0,1,3.12-.18h7.34a31.61,31.61,0,0,1,3.89.24l5.44.68c.35.05.7.1,1,.17l1.81.33a27.1,27.1,0,0,1,5.69,1.74h0a13.85,13.85,0,0,1,3.41,2.08h0a19.49,19.49,0,0,1,4,4.65l5.92,9.53,13.83,19.09-80.63-4.28Z"/></g><path class="cls-19" d="M1180.12,965.74l-.17-3.61a19.12,19.12,0,0,0-1.09-5.5h0a6,6,0,0,0-5.63-4h0a12.14,12.14,0,0,0-2,.16h0a13,13,0,0,0-7.77,4.42l-1.14,1.35q-1,1.17-1.86,2.43l-3.73,5.43a15.68,15.68,0,0,0-1.1,1.86l-2.07,4.15a16.89,16.89,0,0,0-1.62,5.18l-.33,2.28a6.46,6.46,0,0,0,.35,3.17h0a16.9,16.9,0,0,0,2.28,4.17h0a3.32,3.32,0,0,0,3.64,1.18h0a26.53,26.53,0,0,0,7.3-3.54L1168,983l5.16-3.78a12.26,12.26,0,0,0,3.2-3.49l2.12-3.47A11.37,11.37,0,0,0,1180.12,965.74Z"/><path class="cls-20" d="M1160.49,981.43l.14-.06a20.9,20.9,0,0,0,6.72-4.71l.12-.13a18.66,18.66,0,0,0,2.88-4l.26-.49a5.72,5.72,0,0,0,.66-2.21l.39-4.54-1.46.53a20.77,20.77,0,0,0-7.1,4.37h0a8.86,8.86,0,0,0-1.81,2.44h0a10.37,10.37,0,0,0-1.06,5.48Z"/><path class="cls-21" d="M1264.77,1006.27l8.71-2.38a95.89,95.89,0,0,0,15.14-5.53l3.62-1.68q3.06-1.42,6-3.08l3-1.71a116.43,116.43,0,0,1,11.42-5.65h0a5.8,5.8,0,0,0,2-1.4l2.51-2.69q3.66-3.92,7-8l1.12-1.36,5.5,3.5h0a30.76,30.76,0,0,0-1.65-16.55h0a43.22,43.22,0,0,0-3.28-6.65h0a141.15,141.15,0,0,0-15-20.32l-3.11-3.53-2.06-2.43a162.84,162.84,0,0,0-19.56-19.48h0l-11.61-8.82a101.84,101.84,0,0,0-13.28-8.56h0a121.54,121.54,0,0,0-12.41-5.79L1246,883a104.33,104.33,0,0,0-17-5.16l-2.58-.55a100.15,100.15,0,0,0-10.5-1.66l-7.08-.75a128.85,128.85,0,0,0-13.31-.7h-9.15a71.43,71.43,0,0,0-9.36.62l-10.35,1.38-7.29,3.86a24.69,24.69,0,0,0-2.36,1.43L1152,884.9c-2.19,1.5-4.46,2.9-6.78,4.19l-5.52,3.07-7.56,4.36a111.29,111.29,0,0,1-11.23,5.66h0a81.37,81.37,0,0,1-11.76,4.08h0q-3.46.91-7,1.54l-5,.88-6,5.5-8,9,2.07-.18a140.57,140.57,0,0,0,18.68-2.91h0a125.94,125.94,0,0,0,12.37-3.45l10.42-3.47,2.14-.77a112.89,112.89,0,0,1,24.38-5.74H1167q3.72,0,7.43.24l11.8.76,12.38.38q4.14.12,8.26.51l11.9,1.12,6.75.78a89.38,89.38,0,0,1,12.36,2.31l1.68.44c2.48.65,4.94,1.41,7.35,2.29h0a78.44,78.44,0,0,1,14.1,6.77h0a64.32,64.32,0,0,1,9,6.62h0a56.38,56.38,0,0,1,6.93,7.23h0a132.29,132.29,0,0,1,9,12.71h0a35.68,35.68,0,0,1,3.74,8.25h0a32.72,32.72,0,0,1,1,4.35h0a59.69,59.69,0,0,1,.68,13.68l0,.63h0a99.28,99.28,0,0,1-16.62,19.83h0a60,60,0,0,0-4.54,4.62Z"/><path class="cls-22" d="M1134.87,917.58l5.68-.37a19.46,19.46,0,0,1,2,0l5.78.17a22.07,22.07,0,0,1,4.65.64l.37.1a9.42,9.42,0,0,1,3.71,1.86l.52.42a3.6,3.6,0,0,1,1.29,2.27h0a5.69,5.69,0,0,1-1.15,4.41l-.54.69a6.16,6.16,0,0,1-3,2l-5.65,1.76a7.74,7.74,0,0,1-2.24.33h-7.52a13.58,13.58,0,0,1-1.56-.08l-5-.51a7.41,7.41,0,0,1-4.69-2.35l-.06-.06a8.66,8.66,0,0,1-2.08-4h0a5,5,0,0,1,3.38-5.83l2.41-.77A15.77,15.77,0,0,1,1134.87,917.58Z"/><path class="cls-22" d="M1252.14,937.26h-5.56a3.74,3.74,0,0,0-1.4.26l-3.14,1.2a1.55,1.55,0,0,0-1,1.45h0a2,2,0,0,0,1.89,2l3.9.21c.82,0,1.65.06,2.47.06h2.09Z"/><polygon class="cls-22" points="1102.64 1006.78 1110.76 1005.38 1109.02 1008.87 1104.09 1010.03 1102.64 1006.78"/><path class="cls-22" d="M1188.63,1022.87l-1.75-1.75a7,7,0,0,0-3.62-1.93l-1.23-.25a7.12,7.12,0,0,0-2.06-.09h0a2.57,2.57,0,0,0-2.12,1.67l-.16.46a6,6,0,0,0-.34,2.55h0a7.19,7.19,0,0,0,1.26,3.43h0a5.3,5.3,0,0,0,2.5,1.93l1.71.63.6.2a7.24,7.24,0,0,0,6.73-1.19h0a1.84,1.84,0,0,0,.61-2l-.14-.41A8.34,8.34,0,0,0,1188.63,1022.87Z"/></g><g id="目_-_左" data-name="目 - 左"><path class="cls-12" d="M846,860.73l5.47,13.21,1.15,2.45a90.49,90.49,0,0,1,5.4,14.9h0a45,45,0,0,1,1.22,6.61l.11,1.05a69.67,69.67,0,0,1,.37,9.25h0a42.66,42.66,0,0,1-2.8,14.08l-.85,2.22c-.49,1.28-1,2.55-1.6,3.8l-2.86,6.23a50.52,50.52,0,0,1-4.1,7.28L845.38,945a49.94,49.94,0,0,1-3.5,4.58l-4.32,5.05c-1,1.18-2.09,2.32-3.21,3.4h0a47.75,47.75,0,0,1-15.3,9.87h0a45.6,45.6,0,0,1-8.8,2.52l-5,.9c-2,.36-4,.66-6,.91l-7,.83q-6.08.74-12.2.86h0a95.24,95.24,0,0,1-19.79-1.68l-1-.19c-2.88-.56-5.75-1.21-8.59-1.95l-5.16-1.36a138.53,138.53,0,0,1-19.91-6.87l-7.22-3.14c-1.61-.69-3.18-1.44-4.74-2.25l-4.16-2.16A127.81,127.81,0,0,1,690,941.89h0A79.67,79.67,0,0,1,678,930.3l-4.89-5.81-5.31-5.84q-4.35-4.78-8.29-9.9l-15.38-20-3.22-22.86,31.24-22.54L708.84,826l56.35-10.31,33.49,7.41,29.63,17.39Z"/><path class="cls-13" d="M647.7,886.52l15.76-13.14,10.37-7.91q3.9-3,8-5.61L692,853.39q2.22-1.41,4.53-2.66h0a104.49,104.49,0,0,1,22.72-9.08h0a78.35,78.35,0,0,1,15.51-2.55l18.47-1.17a107.76,107.76,0,0,1,18.58.43l1.85.2a110.67,110.67,0,0,1,31.36,8.21h0a87.67,87.67,0,0,1,10.06,5.07h0a112.48,112.48,0,0,1,14.94,10.51l1,.83q5.49,4.58,11.28,8.73l11.47,8.23-4.13-12-7.5-21.4L769,815.57,707.39,822l-36.9,16.23-25.8,22.44-5.25,7.88Z"/><path class="cls-14" d="M814.89,838.37l4,10.55A80.89,80.89,0,0,1,823,864.21l.17,1c.37,2.21.65,4.44.83,6.67l1.08,13.28.51,11a70.72,70.72,0,0,1-.09,7.84l-.25,3.86c-.11,1.6-.29,3.2-.53,4.79l-.65,4.31a59.83,59.83,0,0,1-2,8.86l-1.15,3.69c-.37,1.2-.78,2.39-1.23,3.56l-2.88,7.48a48.45,48.45,0,0,1-3.74,7.66l-2.89,4.82-4.75,7.47-1.86,2.89a11.61,11.61,0,0,1-3,3.15h0a11.4,11.4,0,0,1-4.3,1.94l-5.45,1.18-10.19,1.7-7.89,1.41a12.51,12.51,0,0,1-3.23.15l-8.14-.68a17.36,17.36,0,0,1-2.26-.34l-6.84-1.53a8.45,8.45,0,0,1-3-1.32l-6.35-4.46a15.24,15.24,0,0,1-1.84-1.55l-8.34-8.34a16.63,16.63,0,0,1-1.8-2.13l-6.27-8.89q-1.06-1.51-2-3.12l-6.33-11.07c-.6-1-1.16-2.12-1.69-3.22l-7-14.65L701.45,897a43.27,43.27,0,0,1-1.61-4.56l-1.38-4.77a25.09,25.09,0,0,1-1-7v-8c0-1.13,0-2.26.15-3.38l.87-10.19.85-6.56a31.73,31.73,0,0,1,2-7.67l1.91-4.78L708.84,826l28-7.27,32.58.68,21.05,1.36L813.2,832.6Z"/><g class="cls-23"><path class="cls-16" d="M703.05,906.46l8.72,6.23A156,156,0,0,0,727,922.24h0a99,99,0,0,0,15.37,6.82l8.63,3c2.16.75,4.34,1.42,6.54,2l2.18.61A49.19,49.19,0,0,0,771,936.42h0a52.35,52.35,0,0,0,11.24-.85h0a72.37,72.37,0,0,0,9.3-2.36h0A87.62,87.62,0,0,0,809.73,925l.94-.57L834,910.66l.76,66.78-74,11.45-42.34-29.7L703.43,916Z"/></g><g class="cls-24"><path class="cls-18" d="M810.25,970.39l-16-9.12-10-5.19a15.28,15.28,0,0,0-3.42-1.27l-3.23-.77a30,30,0,0,0-6.93-.81h-2.34a41.57,41.57,0,0,0-9.09,1l-3.93.87a15.45,15.45,0,0,0-4.57,1.82l-.91.55a48.51,48.51,0,0,0-5.67,4l-23.43,19.11,59.88,12.05,34.56-14.46Z"/></g><path class="cls-19" d="M773.13,924l1.81-2.53a45.37,45.37,0,0,0,3.16-5.09l.23-.44a11.67,11.67,0,0,0,1.35-4.79h0a20.52,20.52,0,0,0-.76-6.88h0a12.52,12.52,0,0,0-1.31-3l-3.41-5.68L770.38,889a.65.65,0,0,0-.26-.26h0a19.42,19.42,0,0,0-6.46-2.21l-.24,0a1.78,1.78,0,0,0-1.59.58h0a11.62,11.62,0,0,0-2.54,4.85l-.64,2.57a30.23,30.23,0,0,0-.68,3.66l-.18,1.43a39.14,39.14,0,0,0-.3,4.83v1.83a12.16,12.16,0,0,0,1.59,6l1.25,2.18h0a58.44,58.44,0,0,0,5.88,9.39l.17.21Z"/><path class="cls-20" d="M772.05,912.72l.15-.33.25-2.63a21.76,21.76,0,0,0,0-3.61l-.06-.9a12.88,12.88,0,0,0-2.34-6.6h0a6.18,6.18,0,0,0-4-2.52h0l-.94.85a4.71,4.71,0,0,0-1.53,3.13l0,.49q0,.39,0,.78V904a6.37,6.37,0,0,0,.18,1.51L764,907a5.36,5.36,0,0,0,.4,1.1l.62,1.23a7.69,7.69,0,0,0,.93,1.46l1.46,1.82a5.34,5.34,0,0,0,1.24,1.13h0A2.32,2.32,0,0,0,772.05,912.72Z"/><path class="cls-21" d="M885.66,885l-9.49-9.1-9.1-7.12,3.16-2-7.91-6.72-9.73-7.67q-3.33-2.62-6.47-5.46L837,838.68l-6.36-6.35a106.91,106.91,0,0,0-10.89-9.5h0a52.8,52.8,0,0,0-16-8.26l-8.82-2.78c-2.55-.8-5.14-1.48-7.75-2l-13-2.81a102.08,102.08,0,0,0-13.82-2l-9.42-.74q-3.78-.3-7.57-.3H733c-1.6,0-3.21,0-4.81.14l-6.53.39a84.47,84.47,0,0,0-9,1l-14.53,2.42-4.07.8a57.11,57.11,0,0,0-17.79,6.69l-2,1.13c-1,.58-2,1.2-3,1.84l-6.85,4.57-10.33,6.5a62.77,62.77,0,0,0-6.72,4.87l-11,9.21-6,5.37a26.43,26.43,0,0,0-2.06,2l-1.1,1.22a24.1,24.1,0,0,0-2.65,3.55h0a23.75,23.75,0,0,0-2.89,7l-.91,3.84-2.55,2.74-2.69,2.91a38.5,38.5,0,0,1-4.45,4.11l-5.13,4.06L617,875.87l4.35-1.18,1.08,1.08a65,65,0,0,1,8.6,10.61h0a46.8,46.8,0,0,0,3,4.15l2.72,3.32a36,36,0,0,0,6.27,6h0a68.71,68.71,0,0,0,9.3,5.88l2.63,1.39L669.24,915l-6.64-10.22a86.54,86.54,0,0,1-5.16-9.15l-2-4a70,70,0,0,1-4.09-10.5h0a17.64,17.64,0,0,1-.75-5.1h0a7.06,7.06,0,0,1,1.19-3.93h0a31.5,31.5,0,0,1,4.56-5.42l3.92-3.74q1.8-1.71,3.7-3.33l5.81-5a65.35,65.35,0,0,1,6.24-4.71l4.53-3a61.85,61.85,0,0,1,6-3.52l5.22-2.7a56.75,56.75,0,0,1,6.53-2.88l2-.74c1.43-.53,2.89-1,4.36-1.44L710,834.1a67.19,67.19,0,0,1,12.09-2.39l5.32-.55,11.49-.95c1.83-.16,3.67-.23,5.51-.23h7.35c1.44,0,2.88,0,4.31.14L770,831c1.4.09,2.81.23,4.2.42l5.8.78a75.57,75.57,0,0,1,13.22,3l8.17,2.65,4.14,1.38a147.05,147.05,0,0,1,17.38,7.06h0a61.34,61.34,0,0,1,5.84,3.22l3.82,2.39a87.16,87.16,0,0,1,11.33,8.43l4.61,4c2.08,1.83,4.23,3.59,6.45,5.26l11.32,8.57Z"/><path class="cls-22" d="M695.87,853.15l1.77-.11a30.78,30.78,0,0,1,3.72,0l8.2.47,5.53.53a8.79,8.79,0,0,1,1.52.26l1.39.34a8.12,8.12,0,0,1,4.37,2.81h0a2.21,2.21,0,0,1,.42,1.92v.06a8,8,0,0,1-2.57,4.13l-2.27,1.93a14.86,14.86,0,0,1-3.94,2.4l-4.71,1.91a10.29,10.29,0,0,1-2.54.69l-4.75.68-.48.05-5.46.49a8.49,8.49,0,0,1-7.33-3.11h0a8.42,8.42,0,0,1-1.8-6.36h0a11.46,11.46,0,0,1,2.61-5.9h0A9.1,9.1,0,0,1,695.87,853.15Z"/><path class="cls-22" d="M822.71,859.15l-5.15.92-3,.71a6.68,6.68,0,0,0-3.44,2h0a2.62,2.62,0,0,0-.54,2.53h0a4.77,4.77,0,0,0,4.54,3.34h0a23.13,23.13,0,0,0,2.5-.14l4.8-.53a14.56,14.56,0,0,0,3.83-1h0a4.58,4.58,0,0,0,2.63-5.79l-.32-.89h0A8,8,0,0,0,822.71,859.15Z"/><path class="cls-22" d="M729.18,950.92l3.22-1.84a12,12,0,0,1,1.78-.84l.91-.34a5.74,5.74,0,0,1,2.63-.32l1.17.14a.8.8,0,0,1,.7.87h0a5,5,0,0,1-.75,2.14h0a8.28,8.28,0,0,1-2.92,2.75l-3,1.68L731.11,953Z"/><path class="cls-22" d="M810.32,953.5l-3-2.2a6.44,6.44,0,0,0-3-1.19l-1.64-.2a5,5,0,0,0-2,.14l-.36.1a4.87,4.87,0,0,0-2.61,1.77h0a2.34,2.34,0,0,0-.44,1.79h0a5.05,5.05,0,0,0,2.27,3.42l1,.66,4.87,3.17Z"/></g><path id="髪_-_影" data-name="髪 - 影" class="cls-25" d="M720.11,744.32,746.18,665l11.65-39.94,7.79-26a250.35,250.35,0,0,1,13.78-35.71l8.93-18.73,11.72-22q2.15-4,4.55-7.93l15.35-25-1.89,11.32q-1.44,8.64-2.26,17.38h0a316.13,316.13,0,0,0-1.19,41.4l.35,9.22.72,18.79q.39,10,1.73,20l.71,5.27q1.83,13.61,4.89,27h0a89.7,89.7,0,0,0,3.56,11.81l15,39.7,52.13-287.3L834.37,381,739,473.66l-30.5,126.45,8.32,144.76Z"/><path id="髪_-_影-2" data-name="髪 - 影" class="cls-25" d="M1185.48,752l1.55-2.35,21-31.95a226.71,226.71,0,0,0,16.73-30.19h0a224.26,224.26,0,0,0,10.09-26.26l8.27-26.4,9.55-35.47a279.1,279.1,0,0,0,9-53.62h0q.52-7.85.65-15.69l.47-32,10.11,38.06,9.52,41,10.11,55.3,5.94,31.52,16.66,76.12L1346,559.34l-70.17-179.59L1148.61,526Z"/><g id="前髪"><path class="cls-26" d="M1391.5,999.42h0a29.61,29.61,0,0,1-5.58,1.9h0a89.68,89.68,0,0,1-20.05,2.28h0a59.36,59.36,0,0,1-11.06-1h0a27.91,27.91,0,0,1-9.08-3.46l-.69-.42-5.34,3.65a119.36,119.36,0,0,1-11.33,6.82l-11.85,6.25,4.34-9.61c1.7-3.75,3.56-7.43,5.59-11l3.35-5.93,8.57-15.09a139.6,139.6,0,0,0,6.73-13.46l6.83-15.71L1346,949l-2.58,1.8a140.91,140.91,0,0,1-15.09,9.23l-.53.28L1320,946.56l-3.94-7.37-9.83,5.4,8.36-13.76,3-5.05a104.35,104.35,0,0,0,5.23-9.86l.25-.54a171.5,171.5,0,0,0,6.72-16.66l.48-1.37c1-2.92,1.92-5.88,2.74-8.85l3.66-13.22a77.76,77.76,0,0,0,2.21-11l2.73-21.46-6.71,19.13a164.88,164.88,0,0,1-7.23,17.38h0a110,110,0,0,1-7.43,13l-1.83,2.74a49.6,49.6,0,0,1-4.12,5.34h0a39.6,39.6,0,0,1-13.34,9.8l-1.08.48a4.51,4.51,0,0,1-2.17.39h0a24.17,24.17,0,0,1-11.5-3.8l-1.63-1-3.44-2.46h-7.7a2.62,2.62,0,0,1-2.63-2.62v-1.31l-1.82-.23a7,7,0,0,0-4,.69l-11.87,5.93,12.79-18.19,2.27-3.31q3.13-4.56,5.92-9.34h0q4.1-7,7.48-14.41l1.47-3.22q3-6.6,5.42-13.45l1.1-3.11q2.89-8.24,5-16.7l5.26-21,2.17-8.71a172.05,172.05,0,0,0,4-22.17l1.25-10.87c.6-5.27,1-10.57,1.11-15.87l.16-6.22c.08-3.33.08-6.66,0-10l-.68-22.55q-.15-5.4-.66-10.79L1303.25,654l-5.41-38.35-4.29-37.35q-.63-5.43-1.61-10.81l-4.4-24q-1-5.52-2.4-11L1282,520.17a124.4,124.4,0,0,0-4.59-14.33L1273.6,496c-1.87-4.81-3.5-9.72-4.88-14.69l-3.79-13.64a112,112,0,0,0-3.57-10.71l-5.81-14.9v.69a178.8,178.8,0,0,1-1,19.22l-1.92,17.95-2.09,18.87q-1.35,12.1-3.66,24.08l-5.74,29.83q-2.28,11.79-5.62,23.34l-4,13.89q-3.45,11.94-5.79,24.15l-6,31.55-11.8,56.55-8.11,34.6a307.13,307.13,0,0,1-12,39.16l-11.39,30-15.74,35.9-9.05,18.09a78.92,78.92,0,0,1-11.75,17.32h0a71.39,71.39,0,0,1-11.69,10.48h0a45.49,45.49,0,0,1-8.29,4.7h0a242.28,242.28,0,0,1-30.29,10.88l-1.7.48-1.19.22a133.79,133.79,0,0,1-24.38,2.24h0l6.88-14.26,4-9q3.4-7.72,6.14-15.72l3.66-10.69,8.85-28,6.4-25.24q2-7.69,3.23-15.55l4.14-25.59,4.42-34.42-15.24,50.65-12.29,38.84-8.85,30-10.11,29.57q-3.16,9.27-7.21,18.2l-2.69,6q-2.61,5.76-4.67,11.74l-2.86,8.28-4.8-5.26a81.75,81.75,0,0,1-9.74-13.07l-1.69-2.81-1.67-2.79a44.7,44.7,0,0,1-4.35-9.7h0q-.86-2.75-1.5-5.57l-1-4.33a63.83,63.83,0,0,1-1.25-7.42l-1.06-9.53-.78-10.59a191.4,191.4,0,0,1-.43-19.16l.72-25.81,3-40.32-7.78,28.64c-1,3.85-2,7.73-2.79,11.64l-3.2,15.28-4,22.3a72,72,0,0,0-1.11,10.56h0a103.11,103.11,0,0,0,1.45,20.68h0a76.3,76.3,0,0,0,1.8,7.89l.06.2a39,39,0,0,0,5.48,11.54l7.61,10.91-8.18-5.44a106.14,106.14,0,0,0-20.18-10.54l-3.11-1.23h0a75.92,75.92,0,0,1-23.21-17.28L959.05,864,961.4,869a99.24,99.24,0,0,0,9.67,16.47l4.7,6.49-4.12-2.69A70.46,70.46,0,0,1,954.17,873h0q-2-2.64-4.2-5.11h0a109.39,109.39,0,0,1-10.3-13.55l-2.38-3.69q-2.84-4.38-5.39-8.91l-6.6-11.67q-3.62-6.42-6.83-13.06l-10.56-21.88-3.19-6.52A245.61,245.61,0,0,1,891,754.39l-6.24-19.76,4.52,25.42q1.88,10.47,4.58,20.77l4.67,17.74,4.14,18.09q1.26,5.51,2.84,10.93l4.33,14.87A178.4,178.4,0,0,0,924.54,878l5.5,10.08-13.77-17.21-7.87-3.94-5.93-2.8a28.56,28.56,0,0,1-6.28-4.08l-3-2.58c-.67-.58-1.32-1.17-1.94-1.79h0a34.72,34.72,0,0,1-6.5-9l-4.37-8.73-5.91-12.13q-3.42-7-6.29-14.34l-6-15.32-6.75-19.87q-2.1-6.19-3.74-12.52l-2.56-9.89q-2.68-10.34-4.54-20.85l-5.52-31.28-2.56-15.11a279.58,279.58,0,0,1-3.31-28l-1.08-16.05q-.43-6.27-.5-12.55l-.42-37V551.7q0-4.91.27-9.79l2.19-40.35,2-38.85,2.44-26.41q.51-5.55,1.42-11l3-18.11L825.79,439.6l-18.68,39.34-26.06,57-22.13,54.09L745.64,625l-2.77,8.9a150.66,150.66,0,0,0-5.73,27l-3.3,28-4.42,42.78-3.94,47.7-1,27-7.38-24.09,4.44,29q1,6.4,2.54,12.68L727,835.43l-17.21-13.76-6.64-5.08a84.82,84.82,0,0,1-17.46-18h0l8.86,24.09-9.92-12.18a136.79,136.79,0,0,1-13-19l-7.1-12.55-12.29-22.62-9.34-18.2.42,26.42a64.54,64.54,0,0,0,.64,8.1h0a122.81,122.81,0,0,0,4.32,19.13l2.09,6.74q1.88,6,4.17,11.84l1.83,4.63a91.45,91.45,0,0,0,5.26,11.15l1.38,2.49a39.24,39.24,0,0,0,7.5,9.61l3.36,3.15-4.45.53a68.4,68.4,0,0,1-7.83.46h-3.86a34.72,34.72,0,0,1-6-.53l-5.37-.95-10.33-2,8.36,11.8-12.29-3.44-.91-.51a67.49,67.49,0,0,1-6.78-4.31h0a85.46,85.46,0,0,1-10.46-8.91h0a81.2,81.2,0,0,1-8.2-9.57h0a141.61,141.61,0,0,1-10.15-16l-4.81-8.85-11.31-22.62,5.36,22.25q1,4.3,2.43,8.5h0A170.1,170.1,0,0,0,597,830.51h0a179.78,179.78,0,0,0,17.61,27.9l6.14,8-10.48-9.08q-4.28-3.71-8.16-7.81l-4.47-4.74-7.87-7.87-2.68-2.84a152.42,152.42,0,0,1-10.67-12.6l-2.92-3.84a95.78,95.78,0,0,1-5.42-7.94l-2.66-4.36a153.27,153.27,0,0,1-9.94-19.17h0q-3.57-8.25-6.42-16.79l-2.84-8.54A172.71,172.71,0,0,1,541,741.57l-1.88-8.9-2.86,19.45a267.26,267.26,0,0,0-2.62,28.1l-1.4,35-4.68,60.47q-.73,9.36-.87,18.74L525.85,953l-3,70.81-.49,62.45.49,79.66,1.73,48q.23,6.55.86,13.08l4.78,49.53,5.77,45.59q.88,7,2.23,13.85l7.05,36.17,4.8,19.65a216.09,216.09,0,0,0,7,23.08l.51,1.39a186.07,186.07,0,0,0,7.66,17.93l2.33,4.76q2.49,5.08,5.41,9.94l9.13,15.21,4.32,6.78a112.59,112.59,0,0,0,15.33,19.08h0a50,50,0,0,0,5.56,4.82l1.51,1.14a43.91,43.91,0,0,0,9.24,5.3l8.92,3.75H611l-10.47.22c-4.69.1-9.39,0-14.07-.31h0c-6.5-.42-13-1.11-19.43-2l-7.84-1.14-10.77-1.54a13.59,13.59,0,0,1-3.84-1.14h0a172.18,172.18,0,0,1-19-10.44l-1.76-1.11L503,1473.56l-8.28-5.93a137.4,137.4,0,0,1-20.35-17.89l-6-6.47,3.82,7.49a91.37,91.37,0,0,0,12,17.9h0a93.19,93.19,0,0,0,13.43,12.84l16,12.5-5-2.33a98.59,98.59,0,0,1-22.41-14.46h0l-5.08-4.72a57.12,57.12,0,0,1-9-10.64h0a54.83,54.83,0,0,1-3-5.21l-2.6-5.21c-.53-1.06-1-2.14-1.46-3.24l-3.71-9.3-5.12-5.46q-5.46-5.85-10.49-12.08h0q-5.55-6.9-10.58-14.21h0c-2-2.92-3.91-5.89-5.73-8.93l-6.15-10.31q-3.52-5.93-6.48-12.18l-2.27-4.84q-3.54-7.53-6.5-15.3l-4-10.47L395,1320.29l4,26.28,4,20.8,3.5,14.44q2.34,9.64,5.52,19l.16.49a212.91,212.91,0,0,0,11.22,26.9l4.41,8.83,7.31,14.07a207.85,207.85,0,0,0,17.55,28.12l12,16.2-12.53-10.8q-8.62-7.46-16.7-15.51l-2.6-2.61c-1.16-1.16-2.36-2.27-3.61-3.35l-4.68-4A88.25,88.25,0,0,1,412,1445.81h0a127.38,127.38,0,0,1-12.53-20.12l-1.85-3.7q-2.68-5.35-5-10.85l-3.78-8.78a140.26,140.26,0,0,1-5.19-14.07l-5.45-17.64-3.75-14.78a164.25,164.25,0,0,1-3.31-16.58l-.47-3.22a118.72,118.72,0,0,1-1.11-11.91l-.31-7.25q-.17-3.92-.1-7.83l.3-15.43.73-16.05-4.38-5.84-3.65-5.11-.79,10.84q-.68,9.23-2.07,18.38l-.52,3.48c-.43,2.77-.94,5.53-1.56,8.26l-5.28,23.63-.9,3.47a230.39,230.39,0,0,1-15.42,41.93l-.1.22-4.95,9.52a138.1,138.1,0,0,1-11.2,18h0a151.27,151.27,0,0,1-19.45,21.79h0a182.73,182.73,0,0,1-17.24,14.07l-11.75,8.46,16.78-21.17,2.14-2.86q6.62-8.81,12.37-18.22l1.74-2.85q4.54-7.45,8.34-15.32l5.7-11.84,3.79-8q5-10.56,8.87-21.55l4.13-11.63,6.33-20.33q2.43-7.77,4.26-15.71l3.87-16.79q2-8.48,3.12-17.11l2.85-21.3h0a281.51,281.51,0,0,1-5.79-28.76l-.22-1.5a105.05,105.05,0,0,1-1.09-12.52l-.56-20.71-.53-22.2q-.19-8.44.29-16.9l1-16.74,1.36-19.84a238.86,238.86,0,0,1,4.9-34.4L357,1059l7.66-44.16L371.61,974,379,939.09q1-4.89,1.7-9.83l3.71-27.53L371.61,878l-4.56-9.31q-4.56-9.3-8.2-19l-1.7-4.55q-3.42-9.09-6-18.47l-1.9-6.83a194.57,194.57,0,0,1-4.49-20.39l-1.95-11.94L341,774.34a114,114,0,0,1-.95-11.67h0a100.85,100.85,0,0,1,.55-13.79l.72-6.63L335,760.88q-1.72,5.08-3.08,10.3l-1.53,5.88q-1.5,5.7-3.46,11.25l-4.4,12.37a139.23,139.23,0,0,1-8.4,19l-2.58,4.8q-3.45,6.45-7.48,12.56L302.17,840a136.41,136.41,0,0,1-10.1,13.45l-13.51,15.85,8.75-14.85c2.19-3.72,4.21-7.55,6-11.47l4.93-10.54,6.56-16.06,5.84-16.42,7.48-21.14q.92-2.58,1.67-5.2l5.31-18.47q1.61-5.55,3.56-11l5.7-15.74,5.11-16.06,2.19-16.42,2.66-15.36q.63-3.62,1.45-7.2L349,659.42l3.48-12.69q1.63-5.93,3.64-11.73l4.19-12.08,5.58-14.7q2.44-6.45,5.48-12.67l10.84-22.26,9.12-18.61,6.57-15,11.31-25.18,9.5-20q4-8.43,8.59-16.56l6.08-10.77c1.4-2.48,2.88-4.93,4.42-7.33l18.53-28.92q3.24-5.07,6.75-9.95l6.71-9.35-9.12-.36h0a97.15,97.15,0,0,1-18.6-10.07l-.74-.51-1.83,8.75-.69,3.15a123.18,123.18,0,0,1-4.91,16.72h0q-2.79,7.5-6.22,14.74h0q-3.14,6.63-6.78,13l-.08.14A80,80,0,0,1,412.59,469h0a76.7,76.7,0,0,1-6.46,6.79l-3.05,2.83a49.93,49.93,0,0,1-8.08,6.1h0A70.67,70.67,0,0,1,378.69,492h0a76.62,76.62,0,0,1-12.17,2.59l-5.12.66-16.79,8.39-1.81.85a206.52,206.52,0,0,1-21.69,8.76l-9.34,3.17,14.12-7.22a49.76,49.76,0,0,0,4.47-2.58h0a230,230,0,0,0,19.72-14.29h0l4.71-4q5.15-4.38,9.93-9.16l4.34-4.34,8.2-9q3.11-3.42,6-7l12.21-15.39q3.17-4,6-8.21l11.05-16.57,8.39-12.41,9.49-14.6-9.86-10.21-3-2.87a110.34,110.34,0,0,1-15.91-18.67l-.69-1c-.53-.78-1-1.57-1.52-2.37L395.47,350a12.65,12.65,0,0,1-1.32-3.07h0a37.7,37.7,0,0,1-1.37-10.08h0a51.65,51.65,0,0,1,1.46-12.19h0q1.45-6,3.47-11.91l2.37-6.89,2.19-7.3-6.82-9.16q-6-8-11.16-16.48l-2.13-3.46q-2.52-4.11-4.63-8.44l-5.92-12.09-2.68-6.09a95.78,95.78,0,0,1-6.31-19.9l-.49-2.48L361,213.76a20.59,20.59,0,0,1-.3-3.5V205a17.62,17.62,0,0,1,.9-5.58l1.87-5.61a45.14,45.14,0,0,1,2.07-5.11l1.69-3.52a40.1,40.1,0,0,1,3.51-5.92l4.64-6.47a150.88,150.88,0,0,1,16-18.82h0l.75-.8a156,156,0,0,1,34.6-27.75h0q4.79-2.83,9.79-5.3l9.17-4.51a126.54,126.54,0,0,1,18.21-7.26l17.62-5.47,22.62-5.84.77-.87a174.17,174.17,0,0,1,24.78-22.85h0l3.54-3a139,139,0,0,1,20.46-14.14l2.85-1.61q5.63-3.18,11.5-5.87h0a119.46,119.46,0,0,1,22.6-7.68h0c4.85-1.12,9.76-2,14.69-2.76l.53-.08a60,60,0,0,1,14.11-.38h0a15.61,15.61,0,0,1,8.75,3.69l3.88,3.33,23.35.26a61.45,61.45,0,0,0,17.88-2.45h0l3.65-4h0a101.19,101.19,0,0,1,13.22-1.32l14.88-.5,6.64.11a175.19,175.19,0,0,1,28.09,2.77l4.7.85Q752.6,42,760.1,44h0a59.51,59.51,0,0,1,19.13,8.95h0a33.7,33.7,0,0,1,2.94,15.3l0,.4,0,.23a80.64,80.64,0,0,0-2,15.78h0a79.2,79.2,0,0,0,.57,11.72h0l5.84,1.46L786.8,85a96.21,96.21,0,0,1,.71-10h0A194.14,194.14,0,0,1,791,55.17l.2-.9A44,44,0,0,1,794.88,44h0a66.64,66.64,0,0,1,12.21-16.75h0a52.13,52.13,0,0,1,9.37-7.44h0a178,178,0,0,1,17.31-9.46l.11,0a81.83,81.83,0,0,1,13-4.9l3.85-1.09a93.81,93.81,0,0,1,17.89-3.23L881.78,0l-9.06,2.49a96.27,96.27,0,0,0-10.85,3.7h0a71.42,71.42,0,0,0-16.55,9.55l-2.64,2q-2.5,1.93-4.87,4l-2.72,2.4a172.26,172.26,0,0,0-19.53,20.35l-5.31,6.54-.2.34a140.9,140.9,0,0,0-14.58,34.86l-.11.4a24.71,24.71,0,0,0-.65,3.28h0a187.91,187.91,0,0,0-1.61,24.52V125.9l16.33-9q4.11-2.27,8.36-4.27l19.83-9.32,9-4.27a167.54,167.54,0,0,1,22.71-8.78l1.29-.39a133.05,133.05,0,0,1,17.4-4l16.48-2.68c2.59-.42,5.18-.75,7.79-1l13.25-1.21a121.14,121.14,0,0,1,13.87-.46l24.07.56L985,82.18a155.82,155.82,0,0,1,24,3.18l8,1.71a148.37,148.37,0,0,1,18.25,5.11l13.15,4.6a138,138,0,0,1,13.85,5.71l4.28,2.05c3.82,1.83,7.72,3.51,11.67,5l10.12,3.91,4.7-3.06a65.76,65.76,0,0,1,7.69-4.31h0a36.6,36.6,0,0,1,6.08-2.23h0a62,62,0,0,1,12.92-2l7.66-.39h10a109,109,0,0,1,18.65,1.61l2.36.41q5.18.9,10.26,2.15l3.71.9a147.6,147.6,0,0,1,17.81,5.58h0a134.41,134.41,0,0,1,19.71,9.51h0q9.14,5.39,17.75,11.59l6.14,4.43q7.51,5.42,14.58,11.42l7.53,6.41h0a132.64,132.64,0,0,1,21,9.87l5.06,2.94q7.47,4.33,14.5,9.38l12.75,9.17q3.58,2.58,7,5.38L1337.74,210q3.78,3.1,7.31,6.49l18.25,17.44a50.51,50.51,0,0,1,6.69,7.84l7,10.18a20.52,20.52,0,0,1,2.26,4.3l13.31,35.17,17,48.8,18.14,54.73,9.37,28.64a128.79,128.79,0,0,1,4.12,16.07l7.6,40.32,7.86,38.11q1.27,6.16,2.15,12.39l8.26,58.42,6,31.41a170.61,170.61,0,0,1,2.51,18.85l2.9,37.73q.58,7.59.58,15.2v46.5l1.27,58.4a219.14,219.14,0,0,1-.67,22.49l-.6,7.4a182.83,182.83,0,0,1-3.23,22.47l-2.38,11.47c-.83,4-1.81,8-2.93,11.91l-4,13.93q-1.89,6.61-4.32,13.07l-5.64,15a145,145,0,0,1-6.92,15.56l-6.86,13.29c-1.27,2.46-2.63,4.88-4.08,7.24l-6.5,10.65A112.72,112.72,0,0,1,1418.93,979h0a101,101,0,0,1-8.26,8h0A79.82,79.82,0,0,1,1391.5,999.42ZM491.35,105.35l-13.9,4.1q-5.51,1.62-10.9,3.61l-.71.26a123.61,123.61,0,0,0-22.91,11.26h0a60.44,60.44,0,0,0-5.43,3.84l-5.65,4.48a106.44,106.44,0,0,0-15.64,15.26l-2.74,3.29c-.91,1.09-1.78,2.22-2.61,3.37l-4.21,5.89A82.63,82.63,0,0,0,402,168l-4.84,8.53a80.56,80.56,0,0,0-6.33,14.24h0a64.8,64.8,0,0,0-2.5,10.17h0a82,82,0,0,0-1.07,13.27v1.57c0,3.62.16,7.25.49,10.86l.3,3.28q.48,5.29,1.41,10.55l1,5.58,2.35,11q.82,3.92,2,7.75l.58,2a132.35,132.35,0,0,0,5.87,16h0q1.32,3,2.9,5.87l1.93,3.5,6-7.32-1.83-11.33a130.17,130.17,0,0,1-1.67-20.77h0a109.72,109.72,0,0,1,.9-14l.57-4.38a97.27,97.27,0,0,1,3.58-16.43l.9-2.9a100.65,100.65,0,0,1,5.79-14.55l2.91-6q1.9-3.87,4.12-7.56l4.05-6.75a154.76,154.76,0,0,1,9.19-13.63l7.78-10.3L460.16,140l5-6.55a157.15,157.15,0,0,1,15.55-17.57l3.66-3.57Zm-80.8,554.4-2.4,7.19a198.37,198.37,0,0,0-6.9,26.82L399,705.9l-2.27,14.2a223.36,223.36,0,0,0-2.45,22.62l-.71,12.39-.34,29.52.34,19.34.5,16.88a96.14,96.14,0,0,0,1.16,12.33l3.09,19.32L402.59,837q1.52-5.49,3.36-10.87l5.28-15.32-4.34-22.9A135.52,135.52,0,0,1,404.66,769l-.9-18.35-.24-16.61A128.33,128.33,0,0,1,404,720.5l2.45-27.16Zm-3.66,240.71,1.08,4.07a112.19,112.19,0,0,0,3.58,11.2l2.29,6.07L418,933.37l3.6-28,4.89-28.28,4.37-24.95L437,822.8l4.88-24.17,3.86-20.83,3.6-20.06-9,21.6L433.73,796q-1.64,4.14-2.94,8.4L425.41,822l-6.29,21.26c-.78,2.62-1.46,5.28-2.05,8L413.58,867,412,872.72a167.66,167.66,0,0,0-4.28,21.3Zm-12.54,41.69-5.27,25-3.4,17q-1.59,8-2.41,16.1l-2.43,24.35q-.64,6.38-.74,12.78l-.37,23.82c-.05,3.7,0,7.4.23,11.1l1.24,21.9c.07,1.3.21,2.6.41,3.89l3.58,23.31.86-8.24c.35-3.38.84-6.75,1.45-10.1l1.58-8.57,3.6-23,3.33-21.36,2.59-17q1.29-8.49,3.4-16.83l4-15.8,3.84-14.1A136.16,136.16,0,0,0,413,971.61l1.48-9.3q.94-6,1.38-12.08l.68-9.47-17.48-19.69Z"/><path class="cls-26" d="M1345.05,216.46l5.54,4.59q5.46,4.53,10.47,9.54l6.35,6.36,10.88,11.37,12.36,13.84L1402,276l8.65,11.16a197.5,197.5,0,0,1,12.35,17.9l5.2,8.51,8.08,13.71q3.29,5.57,6.18,11.34l8,16,12.36,26.2,7.91,19.28,4.45,12.36,1.94,3a106.28,106.28,0,0,1,11.12,23l.62,1.81q1.64,4.8,3,9.7l6.29,23c.85,3.13,1.62,6.27,2.3,9.44l6.89,31.83,5.43,28.17,3.37,15.62a178.25,178.25,0,0,1,3.08,19.35l2,18.91,4.94,39.06,3,31.63,1.48,28.18,1.48,28.67,1.26,34q.23,6-.07,12L1531,814.31l-2,36.58-1.59,32.51a158.23,158.23,0,0,1-1.59,16l-4.24,28.15-3.46,30.64-6.92,44.49-5.44,27.59a68.82,68.82,0,0,0-1.27,15.16l1.14,40.32c.09,3.28.28,6.56.56,9.82l4.09,47c.28,3.26.66,6.52,1.12,9.76l5.73,40.12,5.93,47,4.78,37.35q.66,5.16,1.62,10.28l6.46,34.42,7.91,39.06,5.58,22.76c.56,2.29,1.19,4.56,1.87,6.82l5.89,19.35,6.92,19.28,1.66,5.18a150.19,150.19,0,0,0,5.3,14.09h0a45.68,45.68,0,0,0,4.78,8.41l4.67,6.5q3.86,5.37,8.17,10.37l8.84,10.27c1.45,1.68,2.85,3.41,4.19,5.17h0a76.24,76.24,0,0,0,13.54,13.74l6.19,4.87-4.22-2.38a146,146,0,0,1-34.83-27.28h0l-4.77-7.26a128.07,128.07,0,0,1-11.22-21.14l-5.26-12.63-10-14.23q-2.85-4.07-5.32-8.36l-8.73-15.29a123.24,123.24,0,0,1-8-16.78l-7.6-19.64a147.88,147.88,0,0,1-5.63-17.85l-9.61-38.84,1.52,19.44c.3,3.84.42,7.7.34,11.55l-.38,18.44-.39,23.41a105.63,105.63,0,0,1-1,12.44l-1.22,8.86a147.55,147.55,0,0,1-4.19,20l-4,14.25c-1,3.69-2.25,7.33-3.6,10.92l-3.08,8.15a100.75,100.75,0,0,1-8.13,16.67l-2,3.23a122.74,122.74,0,0,1-16.41,21.29h0a44.44,44.44,0,0,1-7.67,6.34h0a55.43,55.43,0,0,1-15.42,7l-9.55,2.65,1.8-1.1a131,131,0,0,0,28.61-23.64h0a32.39,32.39,0,0,0,3.88-5.29l8.14-14a119.21,119.21,0,0,0,7.11-14.32l6.32-15.21a130.34,130.34,0,0,0,6.36-19.54l2.1-8.76a119.32,119.32,0,0,0,2.24-12l1.64-12.15a113.42,113.42,0,0,0,1-15.07v-13.19l-.62-12.33a124.74,124.74,0,0,0-1.64-14.8l-3.68-21.32-4.64,34.63q-.8,5.91-2.13,11.72l-3.87,16.87a133.42,133.42,0,0,1-4.27,14.69l-8.81,24.91-5.21,12.87a135.62,135.62,0,0,1-7.35,15.33l-5.24,9.37-4.39,7.4a168.51,168.51,0,0,1-10.94,16.21l-9.88,13-7.52,16.2a135.7,135.7,0,0,1-12.69,21.78l-9.94,13.92-9.8,13.32q-2.55,3.5-5.33,6.81l-3.75,4.51a128.57,128.57,0,0,1-18.44,18.07h0a45.92,45.92,0,0,1-4.66,3.28l-10.42,6.41h0a133,133,0,0,1-21.76,10.84l-12.84,5,15.69-10a182.22,182.22,0,0,0,33.53-27.51h0a125.76,125.76,0,0,0,13.74-17.13l8.71-13.07,11.11-15.32q3.23-4.46,6-9.2l3.61-6.17a128.94,128.94,0,0,0,9.3-19.49l6.06-16.06-5.28,9.06a160.56,160.56,0,0,1-20,27.21l-1.25,1.37q-2.64,2.89-5.44,5.62l-14,13.58-6.19,6a116.66,116.66,0,0,1-15.38,12.48l-.12.07q-5.49,3.73-11.3,7h0a125.78,125.78,0,0,1-20.89,9.37l-3.55,1.22a8,8,0,0,1-2.87.43l-11.38-.44h-13.34l-11.37,4.94-26.2,12.85,20.49-15.53a122.41,122.41,0,0,0,18.51-17.32l8-9.16L1273,1528.1l-19.77-9.39-8.9-4.45,6.74-3.71a56.7,56.7,0,0,0,6-3.84l0,0a104.56,104.56,0,0,0,14.66-12.9h0a30.65,30.65,0,0,0,3-3.77h0a59.54,59.54,0,0,0,7.7-15.93l1.8-5.79-1.94,2.82a87.88,87.88,0,0,1-21.83,22.07l-.45.32-4.15,2.62a107.48,107.48,0,0,1-22.64,10.88l-.9.31a43.59,43.59,0,0,1-6,1.61l-7,1.36a93.8,93.8,0,0,1-10.57,1.41h0a99.76,99.76,0,0,1-16-.12l-8.8-.77,15-4a154.7,154.7,0,0,0,21-7.3l.92-.39a165.75,165.75,0,0,0,26.8-14.64h0a98.27,98.27,0,0,0,20.41-18.37L1274,1459a219.63,219.63,0,0,0,15.52-20.91l17.66-27a228.53,228.53,0,0,0,15.65-28.07l14.92-31.88,20.06-45q2.17-4.89,4.07-9.91l8.4-22.31A181.92,181.92,0,0,0,1377,1252l4.51-18.76q1.71-7.15,2.89-14.42l3.22-19.9q1-6.45,1.64-13l4.12-44.54q.72-7.77.79-15.59l.36-36.77q.06-6.33.73-12.63l1.42-13.57A89.88,89.88,0,0,1,1407,1029.5h0a43.49,43.49,0,0,1,3.19-5.06l5.64-7.76a92.78,92.78,0,0,0,7.85-12.91h0a103.38,103.38,0,0,0,7.2-18.78l.45-1.63q.83-3,1.86-5.85h0a152.47,152.47,0,0,0,5.54-19.31l4.3-19.82,5-431.36Z"/></g><g id="髪_-_影-3" data-name="髪 - 影"><path class="cls-27" d="M1235.29,410.84l3.69,32.89q.55,5,.68,10l.74,28.52c.08,2.9.25,5.79.53,8.68l2.2,23.09.79,16a31.27,31.27,0,0,1-.47,7.23h0l-2,12.08-1.15,6.74q-.81,4.69-2,9.3l-.19.79c-.85,3.36-1.82,6.7-2.91,10l-1.82,5.43q-.78,2.36-1.42,4.76l-2,7.39-2.61,10.78V574.88c0-3.8.12-7.6.38-11.39l2.55-37.73,1.64-32.32V466.93q0-9.07.63-18.14Z"/><path class="cls-27" d="M1303.25,654l1,10.9,1.29,10c.2,1.59.36,3.18.47,4.78l.63,9.19.57,7.44.66,10.79.37,9.34.31,13.21,0,10-.13,5.14q0,1.08,0,2.16h0a71.88,71.88,0,0,1-1.14,14.79h0l.17-.29a105.44,105.44,0,0,0,11-25.13h0a129.47,129.47,0,0,0,3.81-17.64l3.91-27.4,2.61-29c.39-4.35.63-8.72.73-13.08l1-49.79-1.19-44.74-2.4-42.75-4.4-56.34L1321,496.28l-2.8,39.56-4.8,49.14-3.19,26.77L1309,626.34a116.55,116.55,0,0,1-5.73,27.65Z"/><path class="cls-27" d="M1441.31,449.13l2.51-18.31,1.5-2.17a10.5,10.5,0,0,0,1.86-5.55h0a28.79,28.79,0,0,0-1.38-10.18l-6.29-19.46-12.46-35.07c-.79-2.24-1.65-4.44-2.59-6.62l-3.19-7.45a88.36,88.36,0,0,0-7-13.17l-7.07-10.95,4.31,25.86,4,26.93,3.23,18.32,1.41,8.21a79.49,79.49,0,0,0,2,8.61l1.27,4.41a56.42,56.42,0,0,0,3.77,9.63l3.42,6.85Z"/><path class="cls-27" d="M1513.27,685.34l3.28,22.13q1,6.69,1.39,13.45l1,17.44.35,27-.35,27.4-1.43,25.26L1515.76,838l-2.84,23.13-2.85-51.24-1.42-46.26V729.9q0-3.28.19-6.55l1-16.63a69.9,69.9,0,0,1,1.15-9.23Z"/><path class="cls-27" d="M1013,418.15l-4.9,15.42a90.07,90.07,0,0,0-2.56,10L1003.25,455l-3.62,14.74c-.81,3.31-1.46,6.66-1.94,10l-1.25,8.7a137.38,137.38,0,0,0-1.36,17.78l-.22,20.46,7.87-16.51a84.88,84.88,0,0,0,3.74-9.18l3.89-11.46,3.38-9.86a11.55,11.55,0,0,0,.61-3l.44-5.71a94,94,0,0,0,.22-10.75l-.45-12.71-.17-9.67q-.15-8.42-1.11-16.78Z"/><path class="cls-27" d="M1110,727.75l15.28-42.4,3.53-11.46a158,158,0,0,0,5.2-22.74l1.22-8.09,1.57-12.94a128,128,0,0,0,.86-19.47l-.43-13.62-3.82,19.89c-.61,3.16-1.33,6.3-2.16,9.4l-2.4,9c-.72,2.7-1.36,5.41-1.92,8.15l-3.89,19-2.82,14.11q-1.15,5.79-2.81,11.47l-3.83,13.12a56.32,56.32,0,0,0-2,10.38Z"/><path class="cls-27" d="M648.37,309l-8.8,9.06q-4.65,4.78-8.81,10l-6.24,7.8q-.67.82-1.29,1.71l-4.47,6.25c-.56.78-1.09,1.59-1.59,2.42l-1.76,2.94a42,42,0,0,0-3.67,7.83h0a43.56,43.56,0,0,0-2,7.79L608,375.8l-4.35,25.31-1.81,14.51q-.55,4.47-1.37,8.89l-5.12,28,15.82-35.2L625,388.45l16.61-32.82-8.08,7q-3.39,2.93-6.56,6.09h0l7.91-21.75,6.86-16.85a114.57,114.57,0,0,0,4.46-13.25Z"/><path class="cls-27" d="M584.44,333l4.76-16.13A242,242,0,0,1,601.53,284l8.33-18.11,5.07-10.56a164,164,0,0,1,19.26-30.81l9.21-11.63,9.13-10.57a125.88,125.88,0,0,1,18.05-17.1l5.59-4.34a159.22,159.22,0,0,1,23.41-15.06l4.25-2.23a52.66,52.66,0,0,1,10.47-4.13h0A162.72,162.72,0,0,1,735,155.18l2.51-.34a58.35,58.35,0,0,1,12.94-.36h0L770,138.25l-7.19,11.14q-3.63,5.63-7.73,10.93l-4.73,6.1q-4.16,5.37-8.7,10.4l-4.19,4.64a171.82,171.82,0,0,1-13.56,13.43l-6.64,5.88a104.7,104.7,0,0,1-10.83,8.39l-14.52,9.78q-4.67,3.15-9.13,6.6l-19.34,14.94-11.5,9.35q-5.8,4.71-11.25,9.85l-3.23,3a179.28,179.28,0,0,0-18.88,20.84l-4,5.23q-5.73,7.4-10.73,15.32l-8,12.64Z"/><path class="cls-27" d="M535.9,393.56l-.24.42a53.68,53.68,0,0,1-10.35,12.47h0a37.63,37.63,0,0,1-8.64,5.76h0a23.51,23.51,0,0,1-11.22,2.3h0a25.78,25.78,0,0,1-5.24-.76l-6.35-1.58-2.08,11.52a171.89,171.89,0,0,0-2.53,22.51l-.47,10.1A148.85,148.85,0,0,1,486.2,478l-2.38,12.32-3.72,21.58,14.13-35.34,7.31-16a126.32,126.32,0,0,1,6.08-11.65l5.22-8.84,9.3-14.88-4.47,21.95-4.83,26.79-3.35,24.18-2,12.54a104,104,0,0,0-1.23,12.19L505,551.31,517.67,497,530,450.11,532.7,437a196.66,196.66,0,0,1,8.75-29.69l1.15-3Z"/><path class="cls-27" d="M575.22,92.4,557,116.06l-11.75,16.39a122.45,122.45,0,0,0-11.79,20.32L531.05,158a130.6,130.6,0,0,0-8.45,24.69l-2.45,10.5-.58,2.66a167.74,167.74,0,0,0-3.64,26.78l0,.64c-.26,4.76-.28,9.54-.07,14.31l.46,10.29,0,.71A217.89,217.89,0,0,0,519.78,278l1.93,10.25L525.32,258q.64-5.42,1.59-10.81l5-28.6q1.44-8.28,3.5-16.44L540,183.85q1.46-5.74,3.27-11.38l7.36-22.85q2.07-6.41,4.73-12.61l9.36-21.73Z"/><path class="cls-27" d="M708.89,36.42l-10.5.54-7.75.4-10.28,1-2.94.37-3.65,4-8.49,2.07-9.39.38-14-.12-9.33-.14-2.73-2.34c-.77-.66-1.57-1.28-2.39-1.87l-3.32-2.37L621.42,38q-1.51-.15-3-.18l-3.52-.05c-1.2,0-2.41,0-3.61.1l-5.46.36,2.69,6.25,4.48.61q3.33.47,6.67.65l3.92.23a21.85,21.85,0,0,1,4.25.66h0a98.33,98.33,0,0,0,21.45,3l14.79.43c1.36,0,2.72.12,4.08.23l4.7.4a68.06,68.06,0,0,1,17.76,3.94h0c3,1.12,6.14,2.1,9.27,3l4.82,1.29a38.47,38.47,0,0,0,9.11,1.32h0a41.62,41.62,0,0,0,12.06-1.46h0l.1-.22a6.11,6.11,0,0,0-.18-5.39l-.58-1.07A32.32,32.32,0,0,0,721,46l-3.15-3.54c-.56-.63-1.14-1.24-1.76-1.82l-1.47-1.4a10.9,10.9,0,0,0-5.68-2.84Z"/><path class="cls-27" d="M642.88,738.07l.17,10.3V761l.25,3.51.64,8.1,1,6.82,1.94,8.24,3.42,10.81,3.37,10.28,2.63,6.19,2.22,6.42-5.41-5.52a59.46,59.46,0,0,1-9.35-12.5h0a92.58,92.58,0,0,1-6.88-15.51h0a206.74,206.74,0,0,1-5.67-20l-1-4.11q-.84-3.67-1.48-7.38l-.25-1.43a154.43,154.43,0,0,1-2.26-26.29v-4.94l.36-15.62c.08-3.65.31-7.29.67-10.93l1.39-13.94,2.19-19.88,4.36-27.65-.89,23.19a157,157,0,0,0,.23,16.66l.66,9.86,1.7,21.9q.24,3.07.66,6.13L638,716c.28,2,.65,4.07,1.09,6.08l1.27,5.71Z"/><path class="cls-27" d="M530.42,671.36,529,711.14v20.61l.7,14.64c.17,3.65.49,7.3.94,10.93l1.24,9.89v21.56l.33,22.78c0,2.48,0,5-.14,7.44l-1.15,22.5-14.38-38.34.87,13.09q.57,8.47.45,17l-.36,26L517,873.56a194.22,194.22,0,0,0,.62,24l.42,4.62q.43,5,.57,10l.54,19.53a177,177,0,0,0,1.8,20.82l1.84,12.65-1,49.84-8.15-55.59-7.77-47.45q-1.33-8.13-2-16.36l-5-59.35-2.15-33q-.72-11.13-.41-22.3l.43-15.21q.21-7.65,1.11-15.26l2.46-20.67,4.31-32.59v28.48q0,7.47.61,14.9l1.69,20.54q.57,7,1.59,14l2.34,16,2.87-27.79,6.23-39.78,6.71-35.94Z"/><path class="cls-27" d="M797.58,417.7l-3.48,36.83-2.61,29L788,521l-11,23.2-6.67,17.69-6.39,15.37-5,12.86-4.56,12.09-4.93,12.76.94-20.91q.23-4.9.91-9.77l1.76-12.5q.75-5.25,2-10.42l6-24.42L769.16,507l6.67-23.78,6.38-22.92,5.4-16.95q1-3.06,2.16-6Z"/><path class="cls-27" d="M1091,158.67l-12.73,7.56-5.71,3.8a32.1,32.1,0,0,1-8.25,3.94h0a33.87,33.87,0,0,1-4,1l-1.09.2a12.8,12.8,0,0,1-6.41-.44l-6.25-2.08c-.89-.3-1.78-.62-2.66-1l-8.63-3.45c-1.32-.53-2.67-1-4-1.44l-3-.94c-.87-.27-1.75-.51-2.64-.71l-11-2.48.48-.29a62.69,62.69,0,0,1,18.57-7.57h0a65.21,65.21,0,0,1,11.38-1.58l10.55-.51h11.54c1.59,0,3.18.06,4.76.18l3.54.26a25.49,25.49,0,0,1,9.18,2.45Z"/><path class="cls-27" d="M1091.82,142.32,1079,132.24a78.8,78.8,0,0,0-8.16-5.63l-10.3-6.18A110.42,110.42,0,0,0,1050.3,115l-14.63-6.8-7.39-3.11a99.15,99.15,0,0,0-12.5-4.3h0a80.07,80.07,0,0,0-13.72-2.46l-12.58-1.14,11.64,5.69q4.35,2.13,8.49,4.63l6.09,3.68q3.27,2,6.41,4.18l12.14,8.47,14.22,8.88,5.69,3.35a139.39,139.39,0,0,1,12.34,8.17l3.64,2.7h0q8.88-1.42,17.62-3.61Z"/><path class="cls-27" d="M1197.72,136.39l-8.82.84a66.17,66.17,0,0,0-17.7,4.17h0c-1.29.5-2.57,1-3.82,1.65l-10.73,5.15a57.15,57.15,0,0,0-7,4h0a42.44,42.44,0,0,1-14.79,6.21h0a47.39,47.39,0,0,1-9.87,1h-6.82a43.44,43.44,0,0,0-4.83.27l-9.79,1.09,3.57-7.35a31.41,31.41,0,0,1,5.68-8.12h0a44.13,44.13,0,0,1,13.89-9.72l0,0a35,35,0,0,1,8.86-2.59l8.61-1.33,12-1.35a86.34,86.34,0,0,1,18-.15l2.45.23a48.42,48.42,0,0,1,11.94,2.7Z"/><path class="cls-27" d="M873.1,279.88l-10.94,9.61q-6.1,5.36-11.74,11.21l-5.83,6.05q-2.48,2.56-5.12,5l-6.36,5.75a15.76,15.76,0,0,0-3.09,3.81h0a53.1,53.1,0,0,0-4,8.46h0a73,73,0,0,0-3.12,11.06h0a74.3,74.3,0,0,0-1.46,14.66v1.37l13.28-15.42q2.73-3.16,5.22-6.53l6.68-9q1.15-1.58,2.22-3.21l8.24-12.82,7.55-11.7a55.23,55.23,0,0,0,4.71-9.06Z"/><path class="cls-27" d="M788.27,290.53l20.58-24.16,26.39-32.65,17.83-21.33q2.74-3.27,5.73-6.34l11.44-11.76c1.12-1.15,2.27-2.27,3.47-3.34l12.52-11.36,4-4a9.39,9.39,0,0,0,2.75-6.64v-1.92h0a19.74,19.74,0,0,0-14.48-4.69h0c-1.68.14-3.35.35-5,.62l-5.14.83a41,41,0,0,0-11.87,3.82h0a54.65,54.65,0,0,0-8,4.89l-2.13,1.59a52.86,52.86,0,0,0-10.78,10.71l-.64.86a34.13,34.13,0,0,0-2.64,4.07L828,197.46c-.83,1.51-1.6,3-2.29,4.63L820.48,214l-9,22.36-6.71,14.76L800,261.1c-.68,1.43-1.32,2.88-1.89,4.35Z"/></g><g id="眉毛"><path class="cls-28" d="M1125,764.39l29.54-1h21.93q9.07,0,18.12.88l11.1,1.07a166.2,166.2,0,0,1,20.57,3.3l3.2.72a126.54,126.54,0,0,1,12.44,3.46l.73.24a135.32,135.32,0,0,1,23.67,10.51l7.87,4.44,19.69,12.31,14.64,9a21.44,21.44,0,0,1,3.85,3l12,12L1308.88,814a43.74,43.74,0,0,0-8.93-4.63l-.31-.12q-9.23-3.5-18.13-7.78l-4.4-2.12-5.65-2.73a116.07,116.07,0,0,0-17.81-6.85l-11-3.22-12.66-3.3a139,139,0,0,0-20.25-3.72l-3.47-.38a164.2,164.2,0,0,0-17.87-1h-19.6L1155,774.72l-10.34-3.44Z"/><path class="cls-28" d="M910.88,728l-21.74-8.45-26.57-4.23L849,711.74A110.21,110.21,0,0,0,834.86,709l-15.65-2a89.46,89.46,0,0,0-10-.74l-22.59-.43a70.2,70.2,0,0,0-8.82.4l-23.38,2.54-19,3a126.21,126.21,0,0,0-21.88,5.55L691.66,725,724,718.4c2.17-.44,4.36-.81,6.57-1.09L750,714.84q5.73-.72,11.49-1l17.16-.77a70.73,70.73,0,0,1,8.49.14l2,.15a100,100,0,0,1,18.66,3.24h0c2.74.74,5.5,1.38,8.29,1.9l10.83,2q14,2.63,28.13,4l10.61,1L887.93,728Z"/></g><g id="口"><path class="cls-29" d="M862.94,1199.73l-6.24-3.5a29.61,29.61,0,0,1-4.91-3.47l-3-2.63c-.71-.62-1.44-1.22-2.18-1.79l-1.8-1.4a5.16,5.16,0,0,0-4.61-.89h0a1.26,1.26,0,0,0-.81,1.68h0a11,11,0,0,0,2.41,3.58h0a30.9,30.9,0,0,0,6.4,4.92h0a30.09,30.09,0,0,0,3.6,1.78l9.5,3.94Z"/><path class="cls-30" d="M873.74,1205.83l4,1.1a23.81,23.81,0,0,1,4,1.48l1.06.51a24.27,24.27,0,0,1,5.21,3.36h0a21.63,21.63,0,0,1,2.26,2.23l2.83,3.24,11.37.83,2.89.11a22.58,22.58,0,0,1,8.74,2.11h0l4.11,3a19.21,19.21,0,0,0,2.44,1.53l2.54,1.34a19.19,19.19,0,0,0,3,1.25h0a25.44,25.44,0,0,0,7.6,1.17h7.47l12.87-.44c2.32-.08,4.64-.24,7-.5l6.51-.72,15.29-1.11a60.91,60.91,0,0,0,7.6-1l11.2-2.28,11.65-2a39.66,39.66,0,0,0,6-1.49l8.72-2.9.55,3.88h0a80.31,80.31,0,0,1-18.27,4.5l-10.55,1.32-18.29,3.05-16.35,2.21-9.6,1.41c-1.18.17-2.36.31-3.54.4l-1.87.16a119.37,119.37,0,0,1-12.69.38h0a63.51,63.51,0,0,1-10.47-1.13h0a10.3,10.3,0,0,1-3.73-1.51l-5.49-3.59-4.4-2.64a18.87,18.87,0,0,0-2.38-1.19l-.27-.11a29.87,29.87,0,0,0-9.55-2.16l-3.23-.18q-1.51-.09-3-.09h-1.76a13.06,13.06,0,0,1-5.87-1.39h0l-1.85-2a26.27,26.27,0,0,0-7.28-5.68h0a12.22,12.22,0,0,0-1.16-.54l-5-2Z"/></g><g id="鼻"><path class="cls-31" d="M1001,1022v11.36a43.83,43.83,0,0,1-.3,5.12l-1,9a98,98,0,0,1-2,11.29l-1.84,7.79a76.41,76.41,0,0,1-2.92,9.52l-1.88,5-3.49,8.43a17.58,17.58,0,0,0-.8,2.42l-2.22,8.89c-.08.32-.15.65-.21,1l-1.9,11.12,3.27-1.21a32.45,32.45,0,0,0,5.78-2.8l7.53-4.61,7.34-4.9a16.58,16.58,0,0,0,2.93-2.49h0a20.88,20.88,0,0,0,4.09-6.56h0a13.19,13.19,0,0,0,.89-4.77v-7.63a37,37,0,0,0-.25-4.33l-1.16-10c-.16-1.4-.39-2.79-.67-4.17l-2.74-13.52a74.47,74.47,0,0,0-4.36-14.15Z"/><path class="cls-32" d="M999.63,1047.51l-2.25,10.6-1.13,5.35c-.08.4-.16.8-.22,1.2L993.51,1081l-1.17,9.32h0a50.08,50.08,0,0,0,5.91-16.18l.17-.93a26.57,26.57,0,0,0,.4-3.67Z"/></g><g id="ハイライト" class="cls-33"><path class="cls-34" d="M644.13,469.29l-8.42-6.91q-3-2.47-6.17-4.71h0a16.43,16.43,0,0,0-8.35-3l-7.65-.51h-.21a84.85,84.85,0,0,1-27.11-6.11h0l-8.51-7.56A162.36,162.36,0,0,1,566,429h0q-3.39-3.7-7-7.17l-5.34-5.1-3,2.29a68.32,68.32,0,0,0-13.34,13.62h0A92.69,92.69,0,0,0,543,444.41l2.83,4.9,4.15,7.53a43,43,0,0,0,5.65,7.94h0a57.35,57.35,0,0,0,9,8.07l1.65,1.2c3.5,2.53,7.13,4.9,10.86,7.08h0a18,18,0,0,0,9,2.43h0a6.72,6.72,0,0,0,2.46-.47l6.74-2.7c1.51-.6,3-1.25,4.48-1.93l9.21-4.28,7.5-3.21a13.69,13.69,0,0,1,2.19-.72h0a20,20,0,0,1,8.37-.12l6,1.2,7.75,1.22Z"/><path class="cls-34" d="M760.25,525.41a3.33,3.33,0,0,0-1.65-2.67l-14.75-8.6-6.27-3.38a8.76,8.76,0,0,0-5.41-1h0a20.17,20.17,0,0,0-7.9,2.9l-.4.25a13.82,13.82,0,0,1-5.22,2l-5.67.9,4.68,4.68a48.31,48.31,0,0,1,5.08,6h0a12.61,12.61,0,0,0,2.6,2.71l1.45,1.13a13.6,13.6,0,0,0,7.13,2.81l8.44.75a25.2,25.2,0,0,0,5.69-.14l8.21-1.14a3.22,3.22,0,0,0,1.94-1h0a8.06,8.06,0,0,0,2.06-5.92Z"/><path class="cls-34" d="M937.84,616.85l-9.58-2.39c-1.53-.39-3.08-.72-4.63-1l-2.76-.5a70,70,0,0,0-17.64-.88l-4,.31,4.28,1.6a7.58,7.58,0,0,1,4.66,5.12h0a4.09,4.09,0,0,0,2,2.52h0a17.12,17.12,0,0,0,10.39,1.9h0a13.53,13.53,0,0,0,3.69-1l2.68-1.2,11.88,1Z"/><path class="cls-34" d="M1225.68,614.08l-4.61,1.51a15.26,15.26,0,0,1-8.07.41l-7.13-1.55a13.23,13.23,0,0,0-3.92-.27l-2.16.17a12.5,12.5,0,0,0-9.49,5.67h0a39.32,39.32,0,0,1-2.54,3.49l-6,7.37,5.35,4.12,2.19,1.64a9.23,9.23,0,0,0,6.17,1.83h0a9.59,9.59,0,0,0,5-1.8l2.3-1.67h0a5.3,5.3,0,0,1,5.35.68l1.23,1,1.64,4.52h0a52.15,52.15,0,0,0,6.61.42h.38Z"/><path class="cls-34" d="M1295.53,594.35h0a19.57,19.57,0,0,1,10.2,5.38l.18.19L1308,602a6.92,6.92,0,0,0,2.91,1.73h0a17.82,17.82,0,0,0,9.31.19l7.19-1.8,15.78-3.57a72.18,72.18,0,0,0,7.63-2.19h0a39.16,39.16,0,0,0,7-3.28l7.8-4.68,7.14-4a3.7,3.7,0,0,1,2.91-.32h0a5.9,5.9,0,0,1,4,4.39h0a22.29,22.29,0,0,1-1.38,13.58l-.94,2.15a11.9,11.9,0,0,1-4.22,5.09l-1.82,1.24a16.27,16.27,0,0,1-10.17,2.78h0a7.36,7.36,0,0,1-6.88-6.68h0a2.45,2.45,0,0,0-2-2.2l-1-.18a9.2,9.2,0,0,0-6.4,1.21h0a34.21,34.21,0,0,0-6.73,5.38l-7.39,7.6q-2.57,2.64-4.94,5.46l-5.42,6.45-.31.22a17.58,17.58,0,0,1-10,3.12h0a37.13,37.13,0,0,1-4.6-.28h0a10.69,10.69,0,0,1-6.24-3.06h0Z"/><path class="cls-34" d="M1460.25,376.41l-3.16,8.55q-1.42,3.84-2.59,7.77l-2.38,8q-1.5,5.06-2.53,10.22l-.67,3.4a118.43,118.43,0,0,1-4.76,17.15l-.22.62a118.06,118.06,0,0,0-4.37,15.3l-.47,2.19a107.86,107.86,0,0,0-1.94,12.5l-.77,7.92-.91,7.26a24.11,24.11,0,0,1-2.07,7.19h0a16.52,16.52,0,0,1-4.57,5.85h0a61.21,61.21,0,0,1-9.34,6.27l-5.14,2.8L1406.1,504l-3.77,2a30.26,30.26,0,0,0-7.26,5.36h0a2.65,2.65,0,0,0-.76,2.17h0a5.29,5.29,0,0,0,2.89,4.15h0a31.27,31.27,0,0,0,4.15,1.72l3.15,1.05a28.28,28.28,0,0,0,8.94,1.45h0l7.35-6.42,4.8-4.12a96.48,96.48,0,0,1,10.17-7.61l.28-.18a13.08,13.08,0,0,1,7.81-2.11h.12a24.45,24.45,0,0,0,9.36-1.37h0a11.51,11.51,0,0,1,6.6-.31h0a9.11,9.11,0,0,1,3.82,2l3.43,3.05a55.27,55.27,0,0,1,5.88,6.07l.4.48a19.86,19.86,0,0,0,3.32,3.16h0a6.93,6.93,0,0,0,4.11,1.37h0a3.69,3.69,0,0,0,1.75-.44h0a35.2,35.2,0,0,0,10.47-8.52h0a40.13,40.13,0,0,0,4.35-6.38l.8-1.44a82.41,82.41,0,0,0,4.21-8.92h0L1498.12,473l-4.36-15.35-4.14-14.22L1485,430.11l-7.92-14.66-1.94-3-4.45-12.36-7.91-19.28Z"/><path class="cls-34" d="M418.26,260.91l.51,6.69a19.23,19.23,0,0,0,.93,4.62l2,6a37.15,37.15,0,0,0,5.05,9.87l4.73,6.59,4.52,6.26a13.29,13.29,0,0,0,4.38,3.89l4.33,2.38-1.58-8.45a28.74,28.74,0,0,0-1.52-5.23l-5.38-13.44a24.79,24.79,0,0,0-3.34-5.88l-3.67-4.81a27,27,0,0,0-11-8.49Z"/><path class="cls-34" d="M623.27,168.32l-3.92,6.54a186,186,0,0,0-9.86,18.82l-2.23,4.92q-1.74,3.84-3.11,7.81l-4.43,12.82q-.81,2.36-1.48,4.74L594,239l1.65-1.65a62.44,62.44,0,0,0,12.79-18.52l4.6-10.21a53.08,53.08,0,0,0,3-8.4l3.7-14.11q.74-2.81,1.26-5.64Z"/><path class="cls-34" d="M535.07,196.94,535,195.6a55.15,55.15,0,0,1,1-14.73l.09-.45a5.13,5.13,0,0,1,5-4.09h0l.61.83a47.41,47.41,0,0,1,6.62,12.57h0a4,4,0,0,0,1.48,2h0a5.9,5.9,0,0,0,6.87-.1h0a61,61,0,0,0,6.09-5.15l1.46-1.41a107.23,107.23,0,0,1,13.07-10.78h0l-1.12,1.83a80.48,80.48,0,0,0-8.5,19l-.3,1a62.71,62.71,0,0,0-2.2,10.7l-1.11,9.52-1.74,17.06L561,243.16l-1.87-1.75a11.71,11.71,0,0,1-3.7-8.54v-1.2l-.39-.16a30,30,0,0,1-12.44-10.07h0a5.51,5.51,0,0,1-.65-1.19l-3.83-9.72c-.29-.75-.56-1.52-.8-2.3l-.35-1.1A44.11,44.11,0,0,1,535.07,196.94Z"/><path class="cls-34" d="M484,130.74l-.24-.45a40.05,40.05,0,0,1-2.19-4.92l-.51-1.41h0a31.43,31.43,0,0,0-12,7l-.52.49.4,2a86.89,86.89,0,0,0,3.9,13.6l.61,1.6a84.85,84.85,0,0,0,4.41,9.77l.72,1.35h0a51,51,0,0,0,15.33-6.88h0a14.05,14.05,0,0,0,4.19-4.39l.55-.92L489,135.79h0A12.35,12.35,0,0,1,484,130.74Z"/></g></g></g></svg>