<svg xmlns="http://www.w3.org/2000/svg" viewBox="0 0 789.76 30.32"><defs><style>.cls-1{fill:#dbbeb6;}</style></defs><title>アセット 7</title><g id="レイヤー_2" data-name="レイヤー 2"><g id="レイヤー_2-2" data-name="レイヤー 2"><path class="cls-1" d="M1.64,17.08,2,16a36.22,36.22,0,0,0,1.47-4.76,16.91,16.91,0,0,0,.41-3.7A15.45,15.45,0,0,0,3.5,4.29a12.14,12.14,0,0,0-.9-2.75l-.14-.38c0-.09.35-.3,1-.65A5.15,5.15,0,0,1,4.75,0c.3,0,.64.58,1,1.74a12.89,12.89,0,0,1,.6,4.17l-.1,1.75A20,20,0,0,1,9.78,2.19C11.12.73,12.32,0,13.36,0,14,0,14.51.4,14.9,1.2a7.34,7.34,0,0,1,.58,3.21,19.61,19.61,0,0,1-.2,2.32,26.76,26.76,0,0,1,3.69-5A4.79,4.79,0,0,1,22.05,0a1.91,1.91,0,0,1,1.64,1.16,6,6,0,0,1,.65,2.94,20.46,20.46,0,0,1-.64,4.58,55,55,0,0,1-2,6.29c-.3.84-.58,1.74-.86,2.7A10.6,10.6,0,0,0,20.37,20a1,1,0,0,0,.17.61.6.6,0,0,0,.48.21,6.22,6.22,0,0,0,2.91-1.2A16.16,16.16,0,0,0,27,17v2.91a20.4,20.4,0,0,1-4,2.66,7.88,7.88,0,0,1-3.38,1,1.67,1.67,0,0,1-1.44-.8,3.77,3.77,0,0,1-.54-2.14,17.23,17.23,0,0,1,1-5.16l2-6.13a17.42,17.42,0,0,0,1-5.18c0-.8-.19-1.2-.55-1.2Q20,3,17.33,6.74a20.07,20.07,0,0,0-2.8,4.69l-2.6,9.62a9,9,0,0,1-.75,2.16,1.26,1.26,0,0,1-1.06.37,3.69,3.69,0,0,1-1.4-.17.66.66,0,0,1-.38-.68,9.44,9.44,0,0,1,.41-1.94c.27-1,.62-2,1-3.2.75-2,1.43-4.13,2.05-6.43a25.61,25.61,0,0,0,1.09-6c0-1.47-.23-2.2-.68-2.2Q11.18,3,9.16,6.26a34.8,34.8,0,0,0-2.94,5.89q-.83,2.16-1.95,6.16c-.34,1.28-.62,2.25-.85,2.91a6.69,6.69,0,0,1-1,2.09.58.58,0,0,1-.31.21,3.64,3.64,0,0,1-.75.06,2.38,2.38,0,0,1-1.13-.17A.74.74,0,0,1,0,22.73a9.52,9.52,0,0,1,.51-2.36C.79,19.48,1.16,18.38,1.64,17.08Z"/><path class="cls-1" d="M28.54,10.83l.38-1h2.9c-.8,2.19-1.38,4-1.76,5.39a14.33,14.33,0,0,0-.56,3.53c0,1.19.23,1.78.71,1.78.84,0,1.84-.6,3-1.81a17.42,17.42,0,0,0,2.38-3l1.56-5.84H40L37.29,20.54a35.83,35.83,0,0,0,3.11-2L42.49,17v2.91c-.32.18-.78.48-1.37.89a33.75,33.75,0,0,1-3.32,1.94l-1.13.62a14.29,14.29,0,0,1-1.88,5,3.85,3.85,0,0,1-3.21,1.92,4.06,4.06,0,0,1-2.32-.69,1.9,1.9,0,0,1-1-1.57c0-1.43,1.71-3.34,5.13-5.71l.72-.47.54-2a10.47,10.47,0,0,1-3.07,2.53,6.22,6.22,0,0,1-2.91.79c-.75,0-1.29-.63-1.6-1.88a11.37,11.37,0,0,1-.31-2.8A26.37,26.37,0,0,1,28.54,10.83Zm4.89,14.33.13-.58c-2,1.43-3,2.47-3,3.11s.37.82,1.1.82a1.17,1.17,0,0,0,1-.72A10.4,10.4,0,0,0,33.43,25.16Z"/><path class="cls-1" d="M62.28,10.83l.37-1h2.91q-1.2,3.29-1.76,5.39a14,14,0,0,0-.57,3.53c0,1.19.24,1.78.72,1.78.83,0,1.84-.6,3-1.81a17.37,17.37,0,0,0,2.37-3l1.57-5.84h2.78L71,20.54c.66-.36,1.69-1,3.11-2L76.22,17v2.91c-.32.18-.77.48-1.37.89a33.5,33.5,0,0,1-3.31,1.94l-1.13.62a14.7,14.7,0,0,1-1.88,5,3.86,3.86,0,0,1-3.21,1.92A4.09,4.09,0,0,1,63,29.63a1.91,1.91,0,0,1-1-1.57c0-1.43,1.71-3.34,5.12-5.71l.72-.47.55-2a10.5,10.5,0,0,1-3.08,2.53,6.19,6.19,0,0,1-2.9.79c-.75,0-1.29-.63-1.61-1.88a11.87,11.87,0,0,1-.31-2.8A26.47,26.47,0,0,1,62.28,10.83Zm4.88,14.33.14-.58q-3,2.15-3,3.11c0,.54.36.82,1.09.82a1.17,1.17,0,0,0,1-.72A10,10,0,0,0,67.16,25.16Z"/><path class="cls-1" d="M93.89,17v2.91a4.54,4.54,0,0,1-2.84.92,3.88,3.88,0,0,1-1.72-.38,5.9,5.9,0,0,1-1.62-1.26c-1.65,2.94-3.75,4.41-6.33,4.41a4.06,4.06,0,0,1-3.21-1.3A5.29,5.29,0,0,1,77,18.66a9.07,9.07,0,0,1,2.24-6.3,7.49,7.49,0,0,1,5.89-2.52L85,11.79a5.26,5.26,0,0,0-3.75,2.07,7.49,7.49,0,0,0-1.2,4.43c0,2.07.67,3.11,2,3.11A3.31,3.31,0,0,0,84.51,20,6.79,6.79,0,0,0,86,16.75a10.22,10.22,0,0,1-.26-1.06,5.78,5.78,0,0,1,0-.75,13.64,13.64,0,0,1,.17-2A5.16,5.16,0,0,1,86.54,11h2.29A5.67,5.67,0,0,1,89,12.22q0,.53,0,.84a13,13,0,0,1-.61,3.86c1.09,1.12,2,1.67,2.73,1.67A3.73,3.73,0,0,0,93.89,17Z"/><path class="cls-1" d="M111.05,17v2.91a18.88,18.88,0,0,1-3.57,2.73,6.3,6.3,0,0,1-3,1,1.35,1.35,0,0,1-1.31-1,10.2,10.2,0,0,1-.4-3.39,14.76,14.76,0,0,1-3.26,3.18,5.61,5.61,0,0,1-3.09,1.2q-2,0-2-4.62a16.73,16.73,0,0,1,.48-3.84,46.17,46.17,0,0,1,1.71-5.32h2.8C98,14.26,97.21,17.32,97.21,19a4.84,4.84,0,0,0,.15,1.47.55.55,0,0,0,.56.41A4.06,4.06,0,0,0,100,19.69,18.85,18.85,0,0,0,103.19,16q.68-3.08,1.67-6.12h2.81l-1.3,4.69c-.28.93-.5,1.88-.69,2.85a13.11,13.11,0,0,0-.27,2.17c0,.89.19,1.33.58,1.33a3.74,3.74,0,0,0,2-1A30.2,30.2,0,0,0,111.05,17Z"/><path class="cls-1" d="M113.68,10.22l2.54-7.62h2.87L116.69,10h3.14l-.41,2h-3.48l-.17.58c-.32,1.18-.56,2.21-.72,3.12a14.06,14.06,0,0,0-.24,2.39q0,3,1,3a4.17,4.17,0,0,0,1.85-.9A24,24,0,0,0,121.2,17v2.92a17.5,17.5,0,0,1-4.2,3,5.58,5.58,0,0,1-2.36.65,2.31,2.31,0,0,1-2.07-1.35,7.34,7.34,0,0,1-.77-3.6,14.25,14.25,0,0,1,.17-2.37c.12-.64.39-1.74.82-3.3l.28-1L112,12.1l.13-1.32c0-.18.19-.3.5-.36S113.29,10.29,113.68,10.22Z"/><path class="cls-1" d="M138.36,17v2.91a14.53,14.53,0,0,1-3.16,2.7,5.73,5.73,0,0,1-2.89,1,2.15,2.15,0,0,1-1.71-.89,3.36,3.36,0,0,1-.72-2.19,12.05,12.05,0,0,1,.93-3.86,12.33,12.33,0,0,0,.92-3.49c0-.48-.2-.71-.58-.71a4.84,4.84,0,0,0-2.6,1.29,27.7,27.7,0,0,0-3.69,3.73c-.07.59-.12,1.06-.14,1.4s0,.83,0,1.47l.1,3.11h-2.67c0-.14-.09-.93-.22-2.37s-.19-2.21-.19-2.28a31.25,31.25,0,0,1,1-6.9,32.57,32.57,0,0,1,2.83-8Q127.6,0,129.92,0a2.22,2.22,0,0,1,1.84.93,3.71,3.71,0,0,1,.72,2.36c0,2.27-1.22,5-3.66,8.2a17.32,17.32,0,0,1,2.28-1.28,3.42,3.42,0,0,1,1.38-.29,1.65,1.65,0,0,1,1.44.75,3.82,3.82,0,0,1,.51,2.15,12.61,12.61,0,0,1-.89,3.86,12.63,12.63,0,0,0-.89,3.73c0,.5.18.75.55.75Q134.83,21.19,138.36,17Zm-8-13.47c0-.84-.23-1.26-.68-1.26-.75,0-1.64,1.37-2.65,4.12a36,36,0,0,0-2,7.67,43.71,43.71,0,0,0,4.07-6.17A9.86,9.86,0,0,0,130.36,3.55Z"/><path class="cls-1" d="M155.79,20.06V17.23c1.28-1.26,2.18-2.18,2.7-2.77a14.2,14.2,0,0,0,2.29-3.35,3.71,3.71,0,0,1-.48-1.54,5.15,5.15,0,0,1,.22-1.66,1,1,0,0,1,1.08-.6,4.19,4.19,0,0,1,1.74.21c.23.14.35.46.35,1a6.48,6.48,0,0,1-.52,2.12,14.19,14.19,0,0,1,2.36,1A3.15,3.15,0,0,1,167,14.53a7.57,7.57,0,0,1-.48,2.39,28.35,28.35,0,0,0-1.1,3.52c0,.39.19.58.55.58,1,0,2.84-1.33,5.5-4v2.91q-4.33,3.72-6.9,3.72a1.85,1.85,0,0,1-1.54-.75,3.08,3.08,0,0,1-.58-1.95,9.4,9.4,0,0,1,.89-3.31,9.58,9.58,0,0,0,.89-2.91,2.39,2.39,0,0,0-1.78-2.25,18.91,18.91,0,0,1-3.86,4.95C158,18,157.07,18.9,155.79,20.06Z"/><path class="cls-1" d="M189.12,17v2.91a4.56,4.56,0,0,1-2.84.92,3.92,3.92,0,0,1-1.73-.38,6.05,6.05,0,0,1-1.62-1.26q-2.46,4.41-6.32,4.41a4.1,4.1,0,0,1-3.22-1.3,5.34,5.34,0,0,1-1.16-3.66,9.11,9.11,0,0,1,2.24-6.3,7.51,7.51,0,0,1,5.9-2.52l-.14,1.95a5.28,5.28,0,0,0-3.76,2.07,7.49,7.49,0,0,0-1.2,4.43c0,2.07.68,3.11,2,3.11A3.29,3.29,0,0,0,179.73,20a6.7,6.7,0,0,0,1.52-3.26,9.57,9.57,0,0,1-.25-1.06,4.43,4.43,0,0,1-.05-.75,12.41,12.41,0,0,1,.17-2,5,5,0,0,1,.65-1.88h2.29a6.33,6.33,0,0,1,.2,1.18c0,.35,0,.63,0,.84a13,13,0,0,1-.62,3.86c1.1,1.12,2,1.67,2.74,1.67A3.77,3.77,0,0,0,189.12,17Z"/><path class="cls-1" d="M192.5,23.52h-2.57c-.09-.76-.16-1.7-.22-2.82s-.08-1.86-.08-2.17a16,16,0,0,1,.55-3.69,45.05,45.05,0,0,1,1.57-5h3l-.2.48c-.3.81-.53,1.49-.7,2s-.35,1.17-.53,1.9a31.51,31.51,0,0,1,3.65-3.32,4.32,4.32,0,0,1,2.34-1,1.75,1.75,0,0,1,1.36.75,4.37,4.37,0,0,1,.75,2.7V14c1.34-1.09,2.24-1.79,2.7-2.12a5.94,5.94,0,0,1,2.94-1.3,2,2,0,0,1,1.6.86,3.2,3.2,0,0,1,.69,2.08A7.69,7.69,0,0,1,208.8,16a18.33,18.33,0,0,0-1.12,4.17,1.51,1.51,0,0,0,.15.7c.1.19.22.29.36.29a3.94,3.94,0,0,0,1.95-1.11A39.92,39.92,0,0,0,213.32,17v2.91a20.31,20.31,0,0,1-3.41,2.8,5.21,5.21,0,0,1-2.68.89,2.09,2.09,0,0,1-2-1.27,3.84,3.84,0,0,1-.41-1.74,8.79,8.79,0,0,1,.51-2.7,21.78,21.78,0,0,0,1.16-4.17c0-.41-.16-.62-.48-.62a7.61,7.61,0,0,0-2.46,1.65c-.74.61-1.47,1.23-2.18,1.84l-.52.51c-.06.51-.2,1.2-.39,2.09s-.53,2.3-1,4.24H196.6c.66-2.4,1.09-4,1.27-4.69a22.09,22.09,0,0,0,.82-4.75c0-.59-.2-.89-.59-.89a4.65,4.65,0,0,0-2,1.24c-.74.61-1.92,1.68-3.56,3.21v5.95Z"/><path class="cls-1" d="M230.44,17v2.89c-2.64,2.43-4.72,3.64-6.22,3.64a1.39,1.39,0,0,1-1.42-.8,4.46,4.46,0,0,1-.36-1.87V20.3a16,16,0,0,1-2.72,2.53,3.74,3.74,0,0,1-2.1.72,3.34,3.34,0,0,1-2.68-1.45,5.43,5.43,0,0,1-1.15-3.44,9.48,9.48,0,0,1,2.33-6.39,6.17,6.17,0,0,1,4.68-2.49,3.51,3.51,0,0,1,1.86.51,5.32,5.32,0,0,1,1.59,1.64l.58-2.15h2.84L225.89,17c-.16.56-.29,1.17-.41,1.81a9.64,9.64,0,0,0-.17,1.34c0,.43.14.64.41.64a3.71,3.71,0,0,0,1.8-1A29.81,29.81,0,0,0,230.44,17Zm-7.44.41.77-3.42a16.3,16.3,0,0,0-1.53-1.67,1.83,1.83,0,0,0-1.17-.45,3.68,3.68,0,0,0-2.95,1.87,7.06,7.06,0,0,0-1.32,4.18,5.08,5.08,0,0,0,.48,2.38,1.44,1.44,0,0,0,1.27.91A3.94,3.94,0,0,0,221,19.72C221.68,19,222.34,18.21,223,17.43Z"/><path class="cls-1" d="M233,9.84h2.87c-.32.85-.59,1.6-.81,2.26s-.42,1.38-.63,2.15a32.65,32.65,0,0,1,4.09-3.43,5,5,0,0,1,2.61-1,1.81,1.81,0,0,1,1.51.89,3.84,3.84,0,0,1,.61,2.22,19.78,19.78,0,0,1-1.16,4.52,8.8,8.8,0,0,0-.55,2.73c0,.66.18,1,.55,1a5.16,5.16,0,0,0,1.91-1A19.94,19.94,0,0,0,247.5,17v2.91l-.72.61a20,20,0,0,1-3.23,2.39,5,5,0,0,1-2.41.69,2,2,0,0,1-1.73-.87,3.91,3.91,0,0,1-.63-2.34,8.5,8.5,0,0,1,.51-2.6,21,21,0,0,0,1.13-4.21q0-1-.51-1-.85,0-5.68,4.58l-.37.34c0,.37-.05.72-.07,1.08s0,.58,0,.7V22.7l.11.78h-2.74a15.3,15.3,0,0,1-.13-1.95V18.59A27.82,27.82,0,0,1,233,9.84Z"/><path class="cls-1" d="M250.2,10.22l2.53-7.62h2.87L253.2,10h3.15l-.41,2h-3.49l-.17.58c-.32,1.18-.56,2.21-.72,3.12a14.06,14.06,0,0,0-.24,2.39c0,2,.35,3,1,3a4.15,4.15,0,0,0,1.84-.9,23,23,0,0,0,3.52-3.1v2.92a17.5,17.5,0,0,1-4.2,3,5.58,5.58,0,0,1-2.36.65,2.34,2.34,0,0,1-2.07-1.35,7.35,7.35,0,0,1-.76-3.6,13.25,13.25,0,0,1,.17-2.37c.11-.64.38-1.74.82-3.3l.27-1-1.06.17.14-1.32c0-.18.19-.3.49-.36S249.81,10.29,250.2,10.22Z"/><path class="cls-1" d="M266.94,17v2.91a15.73,15.73,0,0,1-3.18,2.42,7.56,7.56,0,0,1-3.69,1.3c-.84,0-1.4-.59-1.67-1.77a13.51,13.51,0,0,1-.21-2.81,18.67,18.67,0,0,1,.58-4.24,39.86,39.86,0,0,1,1.61-5h2.87l-.34,1q-1.07,3.18-1.5,5.09a14.81,14.81,0,0,0-.45,3.32c0,1.09.22,1.64.65,1.64s1.66-.69,3.28-2.05C265.58,18.28,266.26,17.66,266.94,17ZM263.59,2.43c1.12,0,1.68.32,1.68.95A4.72,4.72,0,0,1,265,4.77,3.09,3.09,0,0,1,264.36,6a1.92,1.92,0,0,1-1.35.36c-.86,0-1.3-.28-1.3-.85a4.2,4.2,0,0,1,.53-2.12A1.55,1.55,0,0,1,263.59,2.43Z"/><path class="cls-1" d="M280.72,17v2.91a15,15,0,0,1-4.05,2.82,10.36,10.36,0,0,1-4.22.9,4.68,4.68,0,0,1-4.21-1.88,5.35,5.35,0,0,1-.85-3.07,9.46,9.46,0,0,1,2.25-6.16,6.52,6.52,0,0,1,5.06-2.73,3.22,3.22,0,0,1,2.22.72,2.52,2.52,0,0,1,.82,2,4.83,4.83,0,0,1-.51,2.19,4.14,4.14,0,0,1-1.43,1.64,8.06,8.06,0,0,1-1-.53,2.89,2.89,0,0,1-.75-.7,16.31,16.31,0,0,0,1.06-1.55,1.86,1.86,0,0,0,.2-.84c0-.59-.32-.89-.95-.89-.92,0-1.82.76-2.72,2.29a8.76,8.76,0,0,0-1.35,4.44,2.89,2.89,0,0,0,.75,2.09,2.58,2.58,0,0,0,1.95.78,7.74,7.74,0,0,0,3.76-1.11A16.45,16.45,0,0,0,280.72,17Z"/><path class="cls-1" d="M312,17v2.91a15,15,0,0,1-4,2.82,10.37,10.37,0,0,1-4.23.9,4.67,4.67,0,0,1-4.2-1.88,5.35,5.35,0,0,1-.85-3.07A9.46,9.46,0,0,1,301,12.54,6.52,6.52,0,0,1,306,9.81a3.24,3.24,0,0,1,2.22.72,2.52,2.52,0,0,1,.82,2,4.83,4.83,0,0,1-.51,2.19,4.09,4.09,0,0,1-1.44,1.64,7.87,7.87,0,0,1-1-.53,2.74,2.74,0,0,1-.75-.7,16.31,16.31,0,0,0,1.06-1.55,1.86,1.86,0,0,0,.2-.84c0-.59-.32-.89-1-.89-.91,0-1.81.76-2.71,2.29a8.76,8.76,0,0,0-1.35,4.44,2.89,2.89,0,0,0,.75,2.09,2.58,2.58,0,0,0,1.95.78A7.74,7.74,0,0,0,308,20.35,16.45,16.45,0,0,0,312,17Z"/><path class="cls-1" d="M329.7,17v2.91a4.56,4.56,0,0,1-2.84.92,3.92,3.92,0,0,1-1.73-.38,6.05,6.05,0,0,1-1.62-1.26q-2.46,4.41-6.32,4.41a4.1,4.1,0,0,1-3.22-1.3,5.34,5.34,0,0,1-1.16-3.66,9.11,9.11,0,0,1,2.24-6.3A7.51,7.51,0,0,1,321,9.84l-.14,1.95a5.28,5.28,0,0,0-3.76,2.07,7.49,7.49,0,0,0-1.2,4.43c0,2.07.68,3.11,2,3.11A3.29,3.29,0,0,0,320.31,20a6.8,6.8,0,0,0,1.53-3.26,8.12,8.12,0,0,1-.26-1.06,5.78,5.78,0,0,1-.05-.75,12.41,12.41,0,0,1,.17-2,5,5,0,0,1,.65-1.88h2.29a6.33,6.33,0,0,1,.2,1.18c0,.35,0,.63,0,.84a13,13,0,0,1-.62,3.86c1.1,1.12,2,1.67,2.74,1.67A3.73,3.73,0,0,0,329.7,17Z"/><path class="cls-1" d="M333.08,23.52h-2.57c-.09-.76-.16-1.7-.22-2.82s-.08-1.86-.08-2.17a16,16,0,0,1,.55-3.69,47.25,47.25,0,0,1,1.57-5h3l-.2.48c-.3.81-.53,1.49-.7,2s-.35,1.17-.53,1.9a30.62,30.62,0,0,1,3.66-3.32,4.27,4.27,0,0,1,2.33-1,1.75,1.75,0,0,1,1.36.75,4.37,4.37,0,0,1,.75,2.7V14c1.34-1.09,2.24-1.79,2.7-2.12a5.94,5.94,0,0,1,2.94-1.3,2,2,0,0,1,1.6.86,3.2,3.2,0,0,1,.69,2.08,7.69,7.69,0,0,1-.52,2.53,18.33,18.33,0,0,0-1.12,4.17,1.51,1.51,0,0,0,.15.7c.1.19.22.29.36.29a3.94,3.94,0,0,0,2-1.11A38.28,38.28,0,0,0,353.9,17v2.91a20.71,20.71,0,0,1-3.4,2.8,5.27,5.27,0,0,1-2.69.89,2.09,2.09,0,0,1-2-1.27,3.84,3.84,0,0,1-.41-1.74,8.79,8.79,0,0,1,.51-2.7,21.78,21.78,0,0,0,1.16-4.17c0-.41-.16-.62-.48-.62a7.61,7.61,0,0,0-2.46,1.65c-.74.61-1.47,1.23-2.18,1.84l-.51.51c-.07.51-.21,1.2-.4,2.09s-.53,2.3-1,4.24h-2.87c.66-2.4,1.09-4,1.28-4.69a22.56,22.56,0,0,0,.81-4.75c0-.59-.2-.89-.59-.89a4.65,4.65,0,0,0-2,1.24c-.74.61-1.92,1.68-3.56,3.21v5.95Z"/><path class="cls-1" d="M368.22,17v2.87Q363,23.69,358,23.69a3,3,0,0,1-2.75-1.49,6.13,6.13,0,0,1-.94-3.37,10.57,10.57,0,0,1,2.22-6.61,6.39,6.39,0,0,1,5.13-2.89c1.82,0,2.73.87,2.73,2.6A5,5,0,0,1,362,16a21,21,0,0,1-4.1,2.08l-.72.31v.14a4.08,4.08,0,0,0,.37,1.88,1.84,1.84,0,0,0,1.75,1.05,9.12,9.12,0,0,0,4.13-1A23.76,23.76,0,0,0,368.22,17Zm-10.7-.89a11.47,11.47,0,0,0,3.38-1.83,2.8,2.8,0,0,0,1.27-2.06.69.69,0,0,0-.79-.76,3.19,3.19,0,0,0-2.29,1.39A7.46,7.46,0,0,0,357.52,16.13Z"/><path class="cls-1" d="M379.11,12l3-11.52h2.8l-3.53,13.84c-.37,1.57-.66,2.88-.89,3.93a12.42,12.42,0,0,0-.34,2.05c0,.39.12.58.37.58a3.28,3.28,0,0,0,1.47-.71A21.85,21.85,0,0,0,385.38,17v2.91a25.24,25.24,0,0,1-3.68,2.89,5.41,5.41,0,0,1-2.72.83,1.44,1.44,0,0,1-1.47-1.06,7,7,0,0,1-.23-2.15c-2,2.14-3.59,3.21-4.82,3.21a3.25,3.25,0,0,1-2.65-1.45,5.61,5.61,0,0,1-1.11-3.5A9.37,9.37,0,0,1,371,12.3a6.16,6.16,0,0,1,4.62-2.46,3.31,3.31,0,0,1,1.77.48A7.13,7.13,0,0,1,379.11,12Zm-1.25,5.47.75-3.35a12.19,12.19,0,0,0-1.51-1.7A1.76,1.76,0,0,0,376,12a3.68,3.68,0,0,0-2.91,1.71,7.06,7.06,0,0,0-1.4,4.38,5.14,5.14,0,0,0,.48,2.36,1.42,1.42,0,0,0,1.23.92C374.31,21.33,375.81,20,377.86,17.47Z"/><path class="cls-1" d="M387.67,10.83l.37-1H391q-1.2,3.29-1.76,5.39a14,14,0,0,0-.57,3.53c0,1.19.24,1.78.72,1.78.83,0,1.84-.6,3-1.81a17.37,17.37,0,0,0,2.37-3l1.57-5.84h2.78l-2.66,10.66c.66-.36,1.69-1,3.11-2L401.61,17v2.91c-.32.18-.77.48-1.37.89a33.5,33.5,0,0,1-3.31,1.94l-1.13.62a14.49,14.49,0,0,1-1.88,5,3.86,3.86,0,0,1-3.21,1.92,4.09,4.09,0,0,1-2.33-.69,1.91,1.91,0,0,1-1-1.57c0-1.43,1.71-3.34,5.13-5.71l.71-.47.55-2a10.37,10.37,0,0,1-3.08,2.53,6.19,6.19,0,0,1-2.9.79c-.75,0-1.29-.63-1.61-1.88a11.87,11.87,0,0,1-.31-2.8A26.47,26.47,0,0,1,387.67,10.83Zm4.88,14.33.14-.58q-3,2.15-3,3.11c0,.54.36.82,1.09.82a1.2,1.2,0,0,0,1.05-.72A10.49,10.49,0,0,0,392.55,25.16Z"/><path class="cls-1" d="M428.34,17v2.91a16,16,0,0,1-3.18,2.42,7.62,7.62,0,0,1-3.69,1.3q-1.26,0-1.68-1.77a14.43,14.43,0,0,1-.2-2.81,18.12,18.12,0,0,1,.58-4.24,38.27,38.27,0,0,1,1.61-5h2.87l-.34,1q-1.06,3.18-1.51,5.09a15.33,15.33,0,0,0-.44,3.32c0,1.09.21,1.64.65,1.64s1.66-.69,3.28-2.05C427,18.28,427.66,17.66,428.34,17ZM425,2.43c1.12,0,1.68.32,1.68.95a4.78,4.78,0,0,1-.28,1.39A3,3,0,0,1,425.76,6a1.92,1.92,0,0,1-1.35.36c-.87,0-1.3-.28-1.3-.85a4.2,4.2,0,0,1,.53-2.12A1.53,1.53,0,0,1,425,2.43Z"/><path class="cls-1" d="M428.24,17.23l.54-.65a37.69,37.69,0,0,0,2.5-3,31.93,31.93,0,0,0,2.15-3.24.69.69,0,0,1-.27-.52,4.15,4.15,0,0,1,.53-2.08,1.68,1.68,0,0,1,1.55-1l1.6.07c.44.09.66.31.66.65a2.92,2.92,0,0,1-.64,1.54l-1.21,1.71a10.76,10.76,0,0,1,1.46,2.17,4.49,4.49,0,0,1,.39,1.86A11.16,11.16,0,0,1,437,18a12.47,12.47,0,0,1-1.49,3.2c1,0,2.46-.76,4.31-2.26.77-.64,1.55-1.29,2.32-1.95v2.91l-.51.41a28.18,28.18,0,0,1-3.54,2.29,5.34,5.34,0,0,1-2.41.71,5.25,5.25,0,0,1-1.88-.47,4.69,4.69,0,0,1-1.28.51,7.56,7.56,0,0,1-1.72.17,1.85,1.85,0,0,1-1.08-.22,1,1,0,0,1-.29-.84,4.54,4.54,0,0,1,.22-1.64c.15-.36.37-.55.67-.55a7.2,7.2,0,0,1,1.16.14,7.17,7.17,0,0,0,1.13.14c.41,0,.89-.74,1.45-2.23a10.7,10.7,0,0,0,.84-3.55,6.14,6.14,0,0,0-.1-1.06,3,3,0,0,0-.48-1.06q-1.82,2.7-2.81,3.93a33.72,33.72,0,0,1-3.24,3.45Z"/><path class="cls-1" d="M483.78,17v2.91a7.76,7.76,0,0,1-1.35.68,3.93,3.93,0,0,1-1.42.27,5,5,0,0,1-3.86-2.05,12.53,12.53,0,0,1-2.87,3.49,4.89,4.89,0,0,1-3,1.26,2.73,2.73,0,0,1-2.17-1.07,5.77,5.77,0,0,1-1.18-2.93q-2.94,4-5.54,4c-1.5,0-2.25-1.53-2.25-4.61a18.58,18.58,0,0,1,.53-4.27,29.09,29.09,0,0,1,1.48-4.62l3.05-.27a26.61,26.61,0,0,0-2.26,9.26c0,1.21.26,1.81.79,1.81a3,3,0,0,0,1.74-.92A11.94,11.94,0,0,0,468,16.58a24,24,0,0,1,.58-2.55c.23-.78.65-2.11,1.26-4l3.11-.24c-.75,2.07-1.31,3.86-1.69,5.35a16,16,0,0,0-.56,3.67,4,4,0,0,0,.31,1.76.93.93,0,0,0,.85.64c.52,0,1.18-.43,2-1.29a13.1,13.1,0,0,0,2.06-3.06c-.06-.29-.12-.59-.17-.88a6.49,6.49,0,0,1-.07-.86,11.89,11.89,0,0,1,.38-2.92,3.91,3.91,0,0,1,.89-1.93,2.3,2.3,0,0,1,.85-.34A4.66,4.66,0,0,1,479,9.78c.35,0,.52.28.52.85a12.19,12.19,0,0,1-.33,2.56c-.22,1-.55,2.21-1,3.63a7.47,7.47,0,0,0,1.47,1.5,2.42,2.42,0,0,0,1.4.44,2.19,2.19,0,0,0,1.24-.39A10.87,10.87,0,0,0,483.78,17Z"/><path class="cls-1" d="M483.71,20.06V17.23c1.28-1.26,2.18-2.18,2.7-2.77a14.2,14.2,0,0,0,2.29-3.35,3.71,3.71,0,0,1-.48-1.54,5.15,5.15,0,0,1,.22-1.66,1,1,0,0,1,1.08-.6,4.19,4.19,0,0,1,1.74.21c.23.14.35.46.35,1a6.48,6.48,0,0,1-.52,2.12,14.19,14.19,0,0,1,2.36,1A3.15,3.15,0,0,1,495,14.53a7.57,7.57,0,0,1-.48,2.39,28.35,28.35,0,0,0-1.1,3.52c0,.39.19.58.55.58,1,0,2.84-1.33,5.5-4v2.91q-4.33,3.72-6.9,3.72A1.85,1.85,0,0,1,491,22.9a3.08,3.08,0,0,1-.58-1.95,9.4,9.4,0,0,1,.89-3.31,9.58,9.58,0,0,0,.89-2.91,2.39,2.39,0,0,0-1.78-2.25,18.91,18.91,0,0,1-3.86,4.95C485.93,18,485,18.9,483.71,20.06Z"/><path class="cls-1" d="M517,17v2.91a4.56,4.56,0,0,1-2.84.92,3.92,3.92,0,0,1-1.73-.38,6.05,6.05,0,0,1-1.62-1.26q-2.46,4.41-6.32,4.41a4.1,4.1,0,0,1-3.22-1.3,5.34,5.34,0,0,1-1.16-3.66,9.11,9.11,0,0,1,2.24-6.3,7.51,7.51,0,0,1,5.9-2.52l-.14,1.95a5.28,5.28,0,0,0-3.76,2.07,7.49,7.49,0,0,0-1.2,4.43c0,2.07.68,3.11,2,3.11A3.29,3.29,0,0,0,507.65,20a6.7,6.7,0,0,0,1.52-3.26,9.57,9.57,0,0,1-.25-1.06,4.43,4.43,0,0,1-.05-.75,12.41,12.41,0,0,1,.17-2,5,5,0,0,1,.65-1.88H512a6.33,6.33,0,0,1,.2,1.18c0,.35,0,.63,0,.84a13,13,0,0,1-.62,3.86c1.1,1.12,2,1.67,2.74,1.67A3.77,3.77,0,0,0,517,17Z"/><path class="cls-1" d="M519.64,9.84h2.86c-.31.85-.58,1.6-.8,2.26s-.43,1.38-.63,2.15a32.72,32.72,0,0,1,4.08-3.43,5,5,0,0,1,2.62-1,1.8,1.8,0,0,1,1.5.89,3.84,3.84,0,0,1,.62,2.22,19.78,19.78,0,0,1-1.16,4.52,8.8,8.8,0,0,0-.55,2.73c0,.66.18,1,.55,1a5.16,5.16,0,0,0,1.91-1A19.53,19.53,0,0,0,534.09,17v2.91l-.72.61a19.61,19.61,0,0,1-3.23,2.39,5,5,0,0,1-2.41.69,2,2,0,0,1-1.72-.87,3.91,3.91,0,0,1-.63-2.34,8.5,8.5,0,0,1,.51-2.6A21,21,0,0,0,527,13.6c0-.68-.17-1-.52-1q-.86,0-5.67,4.58l-.38.34-.06,1.08c0,.35,0,.58,0,.7V22.7l.1.78h-2.73a15.41,15.41,0,0,1-.14-1.95V18.59A27.89,27.89,0,0,1,519.64,9.84Z"/><path class="cls-1" d="M542.81,22.8l.51-2.46-.51.54A13.7,13.7,0,0,1,540.33,23a3.78,3.78,0,0,1-2,.62,3.27,3.27,0,0,1-2.7-1.4,5.79,5.79,0,0,1-1.06-3.56,9.54,9.54,0,0,1,2.16-6.12,6.24,6.24,0,0,1,4.93-2.7,2.82,2.82,0,0,1,1.55.41A10.46,10.46,0,0,1,545,12l.48-2.15h2.79L546,21a12.77,12.77,0,0,0,1.3-1.13l3-2.8v2.91l-4.89,3.93a13.48,13.48,0,0,1-1.59,4.92A3.19,3.19,0,0,1,541,30.21a3.48,3.48,0,0,1-2.37-.83,2.42,2.42,0,0,1-1-1.87,2.81,2.81,0,0,1,.92-1.94,22,22,0,0,1,3.25-2.23ZM544,17l.61-2.79a13.53,13.53,0,0,0-1.1-1.34,2.37,2.37,0,0,0-1.68-.93,3.6,3.6,0,0,0-2.64,1.4,6.8,6.8,0,0,0-1.62,4.76,4.83,4.83,0,0,0,.48,2.29,1.42,1.42,0,0,0,1.27.88,3.33,3.33,0,0,0,1.94-1.06,12.38,12.38,0,0,0,1.78-1.88l.58-.71a1.87,1.87,0,0,0,.34-.52A.49.49,0,0,1,544,17Zm-1.78,8.34a10.16,10.16,0,0,0-1.55,1c-.43.36-.64.68-.64,1a1.18,1.18,0,0,0,.21.72.76.76,0,0,0,.65.27c.2,0,.41-.22.63-.67A11.51,11.51,0,0,0,542.26,25.36Z"/><path class="cls-1" d="M551.46,30.18,550.57,29a9.24,9.24,0,0,0,2.7-2.36,4.86,4.86,0,0,0,1.23-2.77c0-.16-.16-.29-.46-.39s-.47-.28-.47-.53a6.8,6.8,0,0,1,.48-2.19,4,4,0,0,1,.58-1.33,1.6,1.6,0,0,1,1.06-.24,3.45,3.45,0,0,1,1.35.17c.22.11.33.37.33.75a11.39,11.39,0,0,1-1.49,5.9A11.53,11.53,0,0,1,551.46,30.18Z"/><path class="cls-1" d="M594.08,17v2.89q-4,3.64-6.22,3.64a1.39,1.39,0,0,1-1.42-.8,4.46,4.46,0,0,1-.36-1.87V20.3a16,16,0,0,1-2.72,2.53,3.79,3.79,0,0,1-2.1.72,3.33,3.33,0,0,1-2.68-1.45,5.37,5.37,0,0,1-1.15-3.44,9.48,9.48,0,0,1,2.33-6.39,6.17,6.17,0,0,1,4.68-2.49,3.51,3.51,0,0,1,1.86.51,5.32,5.32,0,0,1,1.59,1.64l.58-2.15h2.84L589.53,17a17.28,17.28,0,0,0-.41,1.81,9.64,9.64,0,0,0-.17,1.34c0,.43.14.64.41.64a3.73,3.73,0,0,0,1.79-1A28.68,28.68,0,0,0,594.08,17Zm-7.44.41.77-3.42a17.63,17.63,0,0,0-1.53-1.67,1.83,1.83,0,0,0-1.17-.45,3.68,3.68,0,0,0-3,1.87,7.06,7.06,0,0,0-1.32,4.18,5.08,5.08,0,0,0,.48,2.38,1.44,1.44,0,0,0,1.27.91,3.92,3.92,0,0,0,2.46-1.51C585.32,19,586,18.21,586.64,17.43Z"/><path class="cls-1" d="M594,17.23l.55-.65a37.4,37.4,0,0,0,2.49-3,30.33,30.33,0,0,0,2.15-3.24.69.69,0,0,1-.27-.52,4.26,4.26,0,0,1,.53-2.08,1.68,1.68,0,0,1,1.56-1l1.59.07c.44.09.66.31.66.65a2.92,2.92,0,0,1-.64,1.54l-1.2,1.71a10.64,10.64,0,0,1,1.45,2.17,4.49,4.49,0,0,1,.39,1.86,11.16,11.16,0,0,1-.53,3.23,12.47,12.47,0,0,1-1.49,3.2c1,0,2.47-.76,4.31-2.26.78-.64,1.55-1.29,2.33-1.95v2.91l-.52.41a29,29,0,0,1-3.53,2.29,5.41,5.41,0,0,1-2.41.71,5.16,5.16,0,0,1-1.88-.47,4.89,4.89,0,0,1-1.29.51,7.56,7.56,0,0,1-1.72.17,1.85,1.85,0,0,1-1.08-.22,1,1,0,0,1-.29-.84,4.54,4.54,0,0,1,.22-1.64c.15-.36.37-.55.67-.55a7.2,7.2,0,0,1,1.16.14,7.17,7.17,0,0,0,1.13.14c.41,0,.89-.74,1.45-2.23a10.7,10.7,0,0,0,.84-3.55,5.29,5.29,0,0,0-.1-1.06,3,3,0,0,0-.48-1.06q-1.81,2.7-2.8,3.93A35.16,35.16,0,0,1,594,20.06Z"/><path class="cls-1" d="M639.13,14.87h-.72A23.2,23.2,0,0,1,636.05,20c-1.6,2.37-3.54,3.55-5.84,3.55a5.67,5.67,0,0,1-2.47-.56c-.79-.38-1.19-.76-1.19-1.14a2.9,2.9,0,0,1,.63-1.15c.42-.58.72-.87.91-.87s.44.25,1,.75a2.41,2.41,0,0,0,1.6.75c.87,0,1.75-.63,2.65-1.89a16.58,16.58,0,0,0,2.24-4.94,8.46,8.46,0,0,1-4.13-2.23,6.13,6.13,0,0,1-1.68-4.44,9,9,0,0,1,1.73-5.45A4.89,4.89,0,0,1,635.43,0a3.69,3.69,0,0,1,3.23,1.78,8.76,8.76,0,0,1,1.18,4.89,17.88,17.88,0,0,1-.15,2.49c-.1.71-.34,1.9-.7,3.56l1.54-.1a.36.36,0,0,1,.27.1.13.13,0,0,0,0,.07,2.63,2.63,0,0,1-.37,1.54A1.56,1.56,0,0,1,639.13,14.87Zm-2.94-2.67a19.62,19.62,0,0,0,1-6.08c0-2.42-.66-3.62-2-3.62q-1.1,0-2,1.5a6.91,6.91,0,0,0-.85,3.49A4.43,4.43,0,0,0,636.19,12.2Z"/><path class="cls-1" d="M675.19,17v2.87q-5.27,3.8-10.22,3.8a3.07,3.07,0,0,1-2.76-1.49,6.22,6.22,0,0,1-.94-3.37,10.51,10.51,0,0,1,2.23-6.61,6.39,6.39,0,0,1,5.12-2.89c1.83,0,2.74.87,2.74,2.6A5,5,0,0,1,669,16a20.69,20.69,0,0,1-4.1,2.08l-.71.31v.14a4.08,4.08,0,0,0,.37,1.88,1.84,1.84,0,0,0,1.74,1.05,9.13,9.13,0,0,0,4.14-1A24,24,0,0,0,675.19,17Zm-10.7-.89a11.47,11.47,0,0,0,3.38-1.83,2.84,2.84,0,0,0,1.27-2.06.69.69,0,0,0-.79-.76,3.17,3.17,0,0,0-2.29,1.39A7.35,7.35,0,0,0,664.49,16.13Z"/><path class="cls-1" d="M675.12,20.1V17.19c.2-.27.42-.54.64-.82L677,14.94c1.43-1.8,2.39-2.93,2.86-3.39a5.13,5.13,0,0,1,3.27-1.81c.93,0,1.64.77,2.11,2.31.19.7.38,1.39.58,2.07l3.76-4.38,1.54,1.3-4.6,5.48.24.9a27.89,27.89,0,0,0,1,2.93c.19.42.45.64.77.64.62,0,1.53-.53,2.74-1.58L693.92,17v2.91a30.46,30.46,0,0,1-3.91,2.8,5.47,5.47,0,0,1-2.6.82,1.89,1.89,0,0,1-1.68-1,25.52,25.52,0,0,1-1.37-3.5l-3.77,4.46-1.54-1.3,4.64-5.48c-.64-2.71-1.17-4.06-1.57-4.06a1.79,1.79,0,0,0-1,.63c-.43.43-1,1-1.67,1.87s-1.29,1.58-1.61,1.94A38,38,0,0,1,675.12,20.1Z"/><path class="cls-1" d="M693.85,20V17.19a50.66,50.66,0,0,0,7.38-10.35h2.39l-1.81,7.62.41-.55A15.31,15.31,0,0,1,705,10.72a4.09,4.09,0,0,1,2.55-.94,2.61,2.61,0,0,1,2.17,1.07,4.46,4.46,0,0,1,.84,2.82,11.45,11.45,0,0,1-3,7.76,4.6,4.6,0,0,0,2.7-1,25.52,25.52,0,0,0,2.22-2c.2-.22.44-.51.72-.85.09-.11.23-.3.41-.55v2.91c-1.53,1.41-2.41,2.2-2.63,2.36a5.47,5.47,0,0,1-3.22,1.12,6.48,6.48,0,0,1-2-.41,4.17,4.17,0,0,1-2.23.55c-1.16,0-1.74-.35-1.74-1.06a3.52,3.52,0,0,1,.33-1.52,1.07,1.07,0,0,1,1-.7,3.8,3.8,0,0,1,1,.17,11.26,11.26,0,0,1,1.1.38,7.25,7.25,0,0,0,1.74-2.7,11.16,11.16,0,0,0,.79-4c0-1.43-.34-2.15-1-2.15A3.12,3.12,0,0,0,704.85,13a18.09,18.09,0,0,0-2.42,3.13,25.58,25.58,0,0,0-2.79,6.73q-1.11,4-1.79,6.43a1.18,1.18,0,0,1-1.3.88c-1.19,0-1.78-.43-1.78-1.29v-.31a3,3,0,0,1,.21-1s.19-.51.58-1.47q1.4-3.37,2.56-7t2.09-7.43a49.41,49.41,0,0,1-3.13,4.82A24.2,24.2,0,0,1,693.85,20Z"/><path class="cls-1" d="M728,17v2.87q-5.26,3.8-10.22,3.8A3.07,3.07,0,0,1,715,22.2a6.13,6.13,0,0,1-.94-3.37,10.57,10.57,0,0,1,2.22-6.61,6.39,6.39,0,0,1,5.13-2.89c1.82,0,2.74.87,2.74,2.6a5,5,0,0,1-2.4,4.07,20.69,20.69,0,0,1-4.1,2.08l-.72.31v.14a4.08,4.08,0,0,0,.38,1.88,1.82,1.82,0,0,0,1.74,1.05,9.13,9.13,0,0,0,4.14-1A23.74,23.74,0,0,0,728,17Zm-10.7-.89a11.53,11.53,0,0,0,3.39-1.83,2.82,2.82,0,0,0,1.26-2.06.68.68,0,0,0-.78-.76,3.17,3.17,0,0,0-2.29,1.39A7.48,7.48,0,0,0,717.29,16.13Z"/><path class="cls-1" d="M741.8,17v2.91a14.74,14.74,0,0,1-4,2.82,10.29,10.29,0,0,1-4.22.9,4.67,4.67,0,0,1-4.2-1.88,5.36,5.36,0,0,1-.86-3.07,9.42,9.42,0,0,1,2.26-6.16,6.51,6.51,0,0,1,5.06-2.73,3.26,3.26,0,0,1,2.22.72,2.56,2.56,0,0,1,.82,2,4.83,4.83,0,0,1-.51,2.19,4.17,4.17,0,0,1-1.44,1.64,8.8,8.8,0,0,1-1-.53,2.89,2.89,0,0,1-.75-.7,14.51,14.51,0,0,0,1.06-1.55,1.74,1.74,0,0,0,.21-.84c0-.59-.32-.89-1-.89-.91,0-1.82.76-2.72,2.29a8.76,8.76,0,0,0-1.35,4.44,2.89,2.89,0,0,0,.75,2.09,2.61,2.61,0,0,0,1.95.78,7.71,7.71,0,0,0,3.76-1.11A16.27,16.27,0,0,0,741.8,17Z"/><path class="cls-1" d="M744.43,10.22,747,2.6h2.87L747.44,10h3.15l-.41,2h-3.49l-.17.58c-.32,1.18-.56,2.21-.72,3.12a14.06,14.06,0,0,0-.24,2.39c0,2,.34,3,1,3a4.15,4.15,0,0,0,1.84-.9A23.49,23.49,0,0,0,752,17v2.92a17.5,17.5,0,0,1-4.2,3,5.58,5.58,0,0,1-2.36.65,2.32,2.32,0,0,1-2.07-1.35,7.34,7.34,0,0,1-.77-3.6,14.25,14.25,0,0,1,.17-2.37c.12-.64.39-1.74.82-3.3l.28-1-1.06.17.14-1.32c0-.18.18-.3.49-.36S744.05,10.29,744.43,10.22Z"/><path class="cls-1" d="M766.31,17v2.87q-5.26,3.8-10.22,3.8a3,3,0,0,1-2.75-1.49,6.13,6.13,0,0,1-.94-3.37,10.57,10.57,0,0,1,2.22-6.61,6.39,6.39,0,0,1,5.13-2.89c1.82,0,2.73.87,2.73,2.6A5,5,0,0,1,760.09,16a21,21,0,0,1-4.1,2.08l-.72.31v.14a4.08,4.08,0,0,0,.37,1.88,1.84,1.84,0,0,0,1.75,1.05,9.12,9.12,0,0,0,4.13-1A23.76,23.76,0,0,0,766.31,17Zm-10.7-.89A11.47,11.47,0,0,0,759,14.3a2.8,2.8,0,0,0,1.27-2.06.69.69,0,0,0-.79-.76,3.19,3.19,0,0,0-2.29,1.39A7.46,7.46,0,0,0,755.61,16.13Z"/><path class="cls-1" d="M777.2,12l3-11.52H783l-3.53,13.84c-.37,1.57-.66,2.88-.89,3.93a12.42,12.42,0,0,0-.34,2.05c0,.39.12.58.37.58a3.28,3.28,0,0,0,1.47-.71A21.85,21.85,0,0,0,783.47,17v2.91a25.24,25.24,0,0,1-3.68,2.89,5.4,5.4,0,0,1-2.71.83,1.44,1.44,0,0,1-1.47-1.06,7,7,0,0,1-.24-2.15c-2,2.14-3.59,3.21-4.82,3.21a3.25,3.25,0,0,1-2.65-1.45,5.61,5.61,0,0,1-1.11-3.5,9.37,9.37,0,0,1,2.33-6.4,6.17,6.17,0,0,1,4.62-2.46,3.31,3.31,0,0,1,1.77.48A7.13,7.13,0,0,1,777.2,12ZM776,17.47l.75-3.35a13,13,0,0,0-1.5-1.7,1.81,1.81,0,0,0-1.13-.46,3.68,3.68,0,0,0-2.91,1.71,7.06,7.06,0,0,0-1.4,4.38,5.14,5.14,0,0,0,.48,2.36,1.42,1.42,0,0,0,1.23.92C772.4,21.33,773.9,20,776,17.47Z"/><path class="cls-1" d="M786.13,23.11a5.43,5.43,0,0,1,.34-2,2.17,2.17,0,0,1,2.12-1.51,2.2,2.2,0,0,1,.86.14c.2.09.31.31.31.65a10.82,10.82,0,0,1-.55,2.22,2.76,2.76,0,0,1-.48,1.06,2,2,0,0,1-.6.14,7.43,7.43,0,0,1-.8.07Q786.13,23.86,786.13,23.11Z"/></g></g></svg>