<svg xmlns="http://www.w3.org/2000/svg" viewBox="0 0 868.86 825.73"><defs><style>.cls-1{fill:#995b44;}.cls-2{font-size:220px;fill:#fff;font-family:HoeflerText-Regular, Hoefler Text;}.cls-3{fill:#dbbeb6;}</style></defs><title>アセット 2</title><g id="レイヤー_2" data-name="レイヤー 2"><g id="レイヤー_2-2" data-name="レイヤー 2"><g id="足跡"><path class="cls-1" d="M619.3,397.32a188.5,188.5,0,0,0-17.62-31.07l-10-14.33-8.44-11.25a211.9,211.9,0,0,0-19.55-22.56l-1.89-1.89a191.3,191.3,0,0,0-17-15.09h0a233.36,233.36,0,0,0-20.89-14.69l-3-1.85-11-6.16c-5-2.79-10.06-5.36-15.25-7.69h0a132.88,132.88,0,0,0-18.24-6.62h0A110.24,110.24,0,0,0,449.87,260h0a82,82,0,0,0-11.93.53h0a159.54,159.54,0,0,0-26.75,5.5h0q-8.13,2.43-16,5.58l-7,2.81q-8.08,3.24-15.91,7.06h0a229.71,229.71,0,0,0-30.16,17.66l-3.21,2.21q-4.82,3.35-9.36,7l-6.25,5.08a164.29,164.29,0,0,0-14.43,13.23l-3,3.09q-8,8.26-15.33,17.15l-8.78,10.67h0A252,252,0,0,0,262,387.8l-2.73,4.91L251.47,408q-5.43,10.64-9.81,21.75l-.3.76q-2.79,7.09-5.11,14.38h0a41.24,41.24,0,0,0-1.92,11l-.37,9.9v5.68a189.53,189.53,0,0,0,1.15,20.77h0a101.82,101.82,0,0,0,6.92,21.1h0c.76,1.65,1.56,3.29,2.4,4.9h0a163.85,163.85,0,0,0,12.8,20.67h0a37.25,37.25,0,0,0,4.56,5.16h0a146.89,146.89,0,0,0,14.09,11.65h0a122.94,122.94,0,0,0,10.86,7h0a205.7,205.7,0,0,0,19.18,9.77l.23.1q10.64,4.73,21.54,8.77h0c6.14,2.28,12.4,4.27,18.73,6L356.47,590l8.85,2q11.83,2.64,23.9,4.11l6.19.76q9.94,1.21,19.94,1.85l17,1.09,11.72.53q13.59.63,27.18.17l10-.33q11-.37,21.89-1.42h0a337,337,0,0,0,37.64-5.77h0Q552,590.56,563,587.18h0a158.1,158.1,0,0,0,22.22-8.73h0c3.93-1.89,7.78-4,11.53-6.18h0A100,100,0,0,0,615,558.45h0a94.42,94.42,0,0,0,9.11-10.06l2.91-3.72q3.24-4.14,6.17-8.53h0a115.16,115.16,0,0,0,13.47-27.54h0a35.3,35.3,0,0,0,1.31-5.27h0a99,99,0,0,0,.5-29.21h0A84.59,84.59,0,0,0,645.32,460l-3.45-11.1q-2.45-7.83-5.58-15.42l-3.56-8.57q-3.08-7.42-6.76-14.58l-6.67-13Z"/><circle class="cls-1" cx="310.7" cy="116.61" r="104.22"/><circle class="cls-1" cx="596.72" cy="104.22" r="104.22"/><circle class="cls-1" cx="764.64" cy="332.93" r="104.22"/><circle class="cls-1" cx="104.22" cy="328.65" r="104.22"/><text class="cls-2" transform="translate(253.96 514.94)">6/18</text></g><g id="足跡-2" data-name="足跡"><path class="cls-3" d="M222.82,689.75a52.44,52.44,0,0,0-8.38-5.27l-4.33-2.18-3.54-1.65a59.1,59.1,0,0,0-7.73-2.94l-.71-.21A51.37,51.37,0,0,0,192,676h0a66.75,66.75,0,0,0-7-.85l-1-.06-3.48-.07c-1.58,0-3.16,0-4.73.12h0a37,37,0,0,0-5.33.78h0a30.44,30.44,0,0,0-7,2.5h0a21.92,21.92,0,0,0-2.84,1.69h0a44.2,44.2,0,0,0-5.81,4.85h0c-1.11,1.11-2.18,2.26-3.18,3.47l-1.35,1.61q-1.55,1.84-3,3.81h0a63.46,63.46,0,0,0-5,8.27l-.49,1c-.49,1-.95,1.94-1.37,2.94l-.86,2.06a47.87,47.87,0,0,0-1.79,5.13l-.32,1.14q-.87,3.08-1.49,6.2l-.75,3.76h0a69.1,69.1,0,0,0-.85,9.95l0,1.56.1,4.75q.08,3.3.46,6.59l0,.23c.17,1.4.38,2.8.64,4.18h0a11.3,11.3,0,0,0,1,2.94L137.7,757l.74,1.39a53.94,53.94,0,0,0,3,4.92h0a28,28,0,0,0,4.46,4.24h0c.4.31.81.6,1.22.88h0a45.82,45.82,0,0,0,5.84,3.37h0a9.89,9.89,0,0,0,1.79.66h0a40.12,40.12,0,0,0,5,1h0a35.75,35.75,0,0,0,3.58.3h0a59.22,59.22,0,0,0,6-.13h.07c2.15-.16,4.28-.39,6.41-.68h0q2.7-.37,5.36-1l2.8-.67,2.42-.68c2.16-.6,4.29-1.32,6.38-2.13l1.6-.63q2.59-1,5.12-2.16l4.3-2,2.93-1.41c2.27-1.08,4.49-2.26,6.66-3.52l2.39-1.39q2.63-1.53,5.16-3.21h0a94.79,94.79,0,0,0,8.43-6.35h0c1.62-1.37,3.18-2.82,4.68-4.33h0a43.83,43.83,0,0,0,4.28-5h0c.71-1,1.38-2,2-3h0a27.54,27.54,0,0,0,2.64-5.76h0a25.26,25.26,0,0,0,.9-3.65l.22-1.29c.17-1,.3-1.92.39-2.89h0a32.27,32.27,0,0,0-.32-8.5h0a10.27,10.27,0,0,0-.37-1.45h0a27.77,27.77,0,0,0-3.71-7.2h0a23.81,23.81,0,0,0-2.62-3.05l-2.3-2.26q-1.62-1.59-3.39-3l-2-1.63q-1.72-1.41-3.56-2.67l-3.33-2.3Z"/><circle class="cls-3" cx="110.63" cy="661.69" r="28.89"/><circle class="cls-3" cx="178.85" cy="621.14" r="28.89"/><circle class="cls-3" cx="249.86" cy="654.97" r="28.89"/><circle class="cls-3" cx="88.03" cy="740.56" r="28.89"/></g><g id="足跡-3" data-name="足跡"><path class="cls-3" d="M732.66,790.33a47.05,47.05,0,0,0-.2-8.8l-.51-4.28-.52-3.43a51.77,51.77,0,0,0-1.62-7.18l-.19-.63a46.4,46.4,0,0,0-1.92-5.25h0a55.88,55.88,0,0,0-2.83-5.63l-.42-.75-1.66-2.61c-.76-1.19-1.56-2.34-2.42-3.45h0a31.67,31.67,0,0,0-3.19-3.56h0a26.89,26.89,0,0,0-5.31-4h0a20.13,20.13,0,0,0-2.65-1.27h0a39.21,39.21,0,0,0-6.45-1.93h0c-1.37-.28-2.74-.5-4.13-.65l-1.86-.21c-1.42-.16-2.84-.27-4.27-.33h0a57.52,57.52,0,0,0-8.61.32l-1,.11c-1,.11-1.91.25-2.85.44l-2,.37a40.1,40.1,0,0,0-4.68,1.19l-1,.32c-1.8.58-3.58,1.22-5.33,1.94L664,742.35h0a62.56,62.56,0,0,0-7.79,4.26l-1.17.75-3.47,2.4c-1.61,1.12-3.17,2.31-4.66,3.58l-.16.13c-1,.81-1.88,1.65-2.79,2.53h0a10.45,10.45,0,0,0-1.7,2.16L641,760.27l-.66,1.23a44.6,44.6,0,0,0-2.17,4.65h0a24.57,24.57,0,0,0-1,5.39h0c0,.44-.05.89-.05,1.34h0a41.22,41.22,0,0,0,.37,6h0a9.21,9.21,0,0,0,.39,1.65h0a36.06,36.06,0,0,0,1.7,4.17h0a29.23,29.23,0,0,0,1.54,2.8h0a50.46,50.46,0,0,0,3,4.36l0,0q1.75,2.26,3.66,4.41h0a46.13,46.13,0,0,0,3.37,3.48l1.87,1.75,1.69,1.46q2.28,1.95,4.72,3.68l1.25.88q2,1.43,4.12,2.73l3.57,2.22L671,814q2.88,1.72,5.89,3.21l2.19,1.09c1.62.8,3.26,1.54,4.92,2.24h0a84.58,84.58,0,0,0,8.85,3.14h0c1.81.52,3.65,1,5.5,1.34h0a38.3,38.3,0,0,0,5.84.69h0c1.08,0,2.16,0,3.23,0h0a24.87,24.87,0,0,0,5.56-.87h0a23.78,23.78,0,0,0,3.16-1.13l1.06-.46q1.19-.53,2.34-1.14h0a28.32,28.32,0,0,0,6.13-4.41h0a8.38,8.38,0,0,0,.9-1h0A24.46,24.46,0,0,0,730,810.4h0a21.3,21.3,0,0,0,1-3.43l.54-2.82c.26-1.32.46-2.65.59-4l.23-2.27c.13-1.31.21-2.63.23-4l.06-3.6Z"/><circle class="cls-3" cx="698.37" cy="693.39" r="25.69"/><circle class="cls-3" cx="761.93" cy="724.05" r="25.69"/><circle class="cls-3" cx="771.73" cy="793.29" r="25.69"/><circle class="cls-3" cx="628.81" cy="715.37" r="25.69"/></g></g></g></svg>