<svg xmlns="http://www.w3.org/2000/svg" viewBox="0 0 830.88 845.83"><defs><style>.cls-1{opacity:0.8;}.cls-2,.cls-6{fill:#fff;}.cls-3,.cls-4{fill:#5f9ea3;}.cls-4{font-size:38.29px;font-family:TsukuARdGothic-Bold-83pv-RKSJ-H, Tsukushi A Round Gothic;letter-spacing:0.2em;}.cls-4,.cls-7,.cls-9{font-weight:700;}.cls-5{fill:none;stroke-width:7px;}.cls-5,.cls-8,.cls-9{stroke:#fff;stroke-miterlimit:10;}.cls-6{opacity:0.2;}.cls-7{font-size:45px;font-family:Verdana-Bold, Verdana;letter-spacing:0.06em;}.cls-7,.cls-8,.cls-9{fill:#c5848c;}.cls-8{stroke-width:5px;}.cls-9{font-size:78.24px;stroke-width:4px;font-family:Klee-Demibold-83pv-RKSJ-H, Klee;letter-spacing:0.06em;}</style></defs><title>アセット 10</title><g id="レイヤー_2" data-name="レイヤー 2"><g id="レイヤー_3" data-name="レイヤー 3"><g class="cls-1"><rect class="cls-2" x="164.64" y="423.11" width="383.66" height="227.44"/><circle class="cls-2" cx="120.23" cy="506.58" r="120.23"/><circle class="cls-2" cx="164.64" cy="676.59" r="120.23"/><circle class="cls-2" cx="693.81" cy="632.17" r="120.23"/><circle class="cls-2" cx="322.01" cy="413.54" r="149.71"/><circle class="cls-2" cx="560.94" cy="648.64" r="149.71"/><circle class="cls-2" cx="583.91" cy="696.12" r="149.71"/><circle class="cls-2" cx="560.56" cy="403.2" r="120.23"/><circle class="cls-2" cx="710.65" cy="506.58" r="120.23"/><circle class="cls-2" cx="342.31" cy="713.35" r="120.23"/></g><path class="cls-3" d="M200.64,655c-.5,22.71-1.62,33.68-4.87,47.48a2.54,2.54,0,0,1-3.64,1.67l-12.82-6.66a2.52,2.52,0,0,1-1.26-3c3.19-10.5,4.61-22.11,5.16-41.37a2.53,2.53,0,0,1,2.88-2.44l12.37,1.71A2.55,2.55,0,0,1,200.64,655ZM179.08,624.9a2.54,2.54,0,0,1,2.74-2.76,90.58,90.58,0,0,0,9.56.42H194a2.52,2.52,0,0,0,2.06-1.07c1-1.33,1.52-2.11,2.12-2.94a2.57,2.57,0,0,0,0-3,197,197,0,0,0-19.32-23,2.53,2.53,0,0,1-.42-3L187.3,573a2.53,2.53,0,0,1,4.09-.54h0a2.54,2.54,0,0,0,4.11-.57,134.77,134.77,0,0,0,8.29-19.93,2.52,2.52,0,0,1,3.3-1.64L224,556.53a2.53,2.53,0,0,1,1.35,3.56c-.47.9-1,2-1.77,3.53a281.38,281.38,0,0,1-14.52,26.24,2.53,2.53,0,0,0,.15,2.95c.33.42.61.76.91,1.12a2.54,2.54,0,0,0,4.13-.28c7.72-12.67,9.57-16.15,12.53-23.09a2.54,2.54,0,0,1,3.59-1.22l14.8,8.44a2.53,2.53,0,0,1,.84,3.62c-1.31,1.94-2.31,3.43-5.54,8.59-2,3.17-4.72,7.29-8.34,12.68a2.54,2.54,0,0,0,2.93,3.81l7-2.41a2.54,2.54,0,0,1,3.21,1.54c.94,2.61,1.76,4.93,2.49,7.07a2.53,2.53,0,0,0,4.93-.82v-2.05a2.53,2.53,0,0,1,2.74-2.52c4.91.38,10.6.62,17.25.62h4.53a2.54,2.54,0,0,0,2.54-2.53V597a2.54,2.54,0,0,0-2.54-2.53h-8.49c-7.59,0-12.92.12-17.58.55a2.53,2.53,0,0,1-2.76-2.52V572.83a2.53,2.53,0,0,1,2.78-2.52,173.92,173.92,0,0,0,17.73.72h8.32a2.54,2.54,0,0,0,2.54-2.53v-4a84.84,84.84,0,0,0-.53-9.21,2.54,2.54,0,0,1,2.56-2.81l48.31.77a2.53,2.53,0,0,1,2.47,2.85,72.9,72.9,0,0,0-.59,9.61v3.67a2.53,2.53,0,0,0,2.53,2.53h12.12a177.91,177.91,0,0,0,17.9-.72,2.53,2.53,0,0,1,2.78,2.52v19.76a2.54,2.54,0,0,1-2.72,2.53c-5.34-.4-10.89-.65-18-.65H334.55a2.54,2.54,0,0,0-2.53,2.54v8.37a2.53,2.53,0,0,0,2.53,2.53h8.85c6.65,0,12.33-.24,17.25-.62a2.53,2.53,0,0,1,2.74,2.52v19.47a2.54,2.54,0,0,1-2.75,2.52c-4.82-.38-10.54-.62-16.73-.62L272,631.18c-5.7,0-9.18.13-15.57.51a2.54,2.54,0,0,0-2.32,3.11c.22.93.41,1.8.76,3.42a2.56,2.56,0,0,0,2.38,2c3.5.14,7.87.26,13.2.26l73.94.86c6,0,10.18-.1,13.57-.3a2.52,2.52,0,0,1,2.66,2.74c-.27,3.36-.37,7.49-.37,13.93v36.71c0,6.48.12,11.7.59,17.07a2.53,2.53,0,0,1-2.52,2.75H337a2.54,2.54,0,0,1-2.54-2.53v-2.21a2.53,2.53,0,0,0-2.49-2.54l-50.43-.78a2.54,2.54,0,0,0-2.57,2.53V711a2.54,2.54,0,0,1-2.54,2.53H255.68a2.54,2.54,0,0,1-2.53-2.74c.33-4.26.45-8.68.45-14.49V657.2c0-4.46,0-7.69,0-10.11a2.53,2.53,0,0,0-3.39-2.34l-9.44,3.35a2.54,2.54,0,0,1-3.34-1.89l-.28-1.39a2.54,2.54,0,0,0-2.73-2c-2,.19-3,.27-4.24.34a2.54,2.54,0,0,0-2.39,2.53v49.13a126.61,126.61,0,0,0,.64,16.27,2.55,2.55,0,0,1-2.52,2.86H206.36a2.54,2.54,0,0,1-2.52-2.84,129.75,129.75,0,0,0,.64-16.29V647.56a2.54,2.54,0,0,0-2.65-2.53c-1.17.05-2.14.11-2.86.11-2.8.15-8,.59-15.42,1.18a2.53,2.53,0,0,1-2.73-2.3Zm44.75-3c1.63-.09,3-.16,4.57-.3a2.53,2.53,0,0,0,2.21-3.29c-.39-1.23-.78-2.41-1.38-4.16a2.54,2.54,0,0,0-4.48-.62c-1.2,1.73-2.12,3-3.1,4.34A2.54,2.54,0,0,0,223.83,621.94Zm22.84,30.65c2,18.43,2.14,20,2.88,39.07a2.55,2.55,0,0,1-2.14,2.61L236.19,696a2.54,2.54,0,0,1-2.93-2.51v-4.61a277.89,277.89,0,0,0-1.8-33.58,2.53,2.53,0,0,1,2-2.76l10.18-2.19A2.53,2.53,0,0,1,246.67,652.59Zm34.8,29.95h22A2.54,2.54,0,0,0,306,680V666.29a2.54,2.54,0,0,0-2.54-2.54h-22a2.54,2.54,0,0,0-2.53,2.54V680A2.54,2.54,0,0,0,281.47,682.54Z"/><path class="cls-3" d="M490.4,692.33a2,2,0,0,1-1.53,2c-29.86,7.91-36.26,9.4-80.15,18.38-1.63.31-2.72.55-3.73.81a2,2,0,0,1-2.51-1.64L398.4,688a2,2,0,0,1,1.85-2.39l3.81-.28c1.31,0,7.09-.93,17.06-2.49a2.05,2.05,0,0,0,1.73-2v-28a2,2,0,0,0-3.24-1.65c-6.35,4.57-13.27,8.94-21.55,13.79a2.05,2.05,0,0,1-2.95-1,67.23,67.23,0,0,0-11.44-20,2,2,0,0,1,.7-3.13c22.31-10.87,41.35-25.93,51.68-40.62a2.05,2.05,0,0,0-1.66-3.24H411.13a194.7,194.7,0,0,0-21.35.77,2,2,0,0,1-2.26-2V573.31a2,2,0,0,1,2.25-2,209.53,209.53,0,0,0,22.05,1h37.42a2.05,2.05,0,0,0,2.05-2v-4.5a81.7,81.7,0,0,0-.58-9.78,2.05,2.05,0,0,1,2-2.29h35.69a2,2,0,0,1,2,2.29,81.28,81.28,0,0,0-.56,9.78v4.5a2.05,2.05,0,0,0,2.05,2h40.35a191.73,191.73,0,0,0,21.52-.94,2,2,0,0,1,2.27,2v22a2.06,2.06,0,0,1-2.2,2c-5.37-.39-11.69-.52-21.07-.52h-31.6a2,2,0,0,0-2,2.34,92.71,92.71,0,0,0,6.25,23.68,2.06,2.06,0,0,0,3.13.87c9.74-7.22,18.6-15.18,22.79-20.6a2,2,0,0,1,3-.28l16.75,15a2,2,0,0,1,0,3.07L548,623.6A303.27,303.27,0,0,1,520.38,646a2,2,0,0,0-.46,2.89C530.51,663,542.43,673,559.46,682a2.05,2.05,0,0,1,.59,3.17c-7.33,8.31-16.16,17-21.21,26.73a2,2,0,0,1-2.94.76,178.6,178.6,0,0,1-42-39.4,2,2,0,0,0-3.66,1.26Zm-32-16c12-2.47,10.51-2.61,28.75-7.86a2,2,0,0,0,1.16-3.08,163.14,163.14,0,0,1-22.64-52.64,2,2,0,0,0-3.93-.17,26.32,26.32,0,0,1-5.3,10.07A2.13,2.13,0,0,0,456,624v50.34A2.05,2.05,0,0,0,458.43,676.35Z"/><path class="cls-3" d="M276,431.82a124.57,124.57,0,0,0,14.36-.57,113.38,113.38,0,0,0-.58,13v61.56c0,5.52.23,11,.69,17H259.68v-4.71h-60v4.71H182c.45-5.39.68-10.56.68-17.23V443.31c0-4.48-.23-8.27-.57-11.95a132.32,132.32,0,0,0,13.55.46h26.65v-5.4a97.47,97.47,0,0,0-.69-12.06h19.53a92.41,92.41,0,0,0-.69,12.29v5.17ZM199.64,448v18.15h22.63V448Zm0,33.88v20h22.63v-20Zm60-15.73V448H240.42v18.15Zm0,35.72v-20H240.42v20Z"/><path class="cls-3" d="M344.49,498c9.08-2.18,14.71-3.67,24.35-6.54l.12,16.77c-14.47,4.82-25.73,8-43.19,12.29-1.95.46-5.86,1.6-7.58,2.06l-2.76-19.18a50.64,50.64,0,0,0,10.8-1.38V430.56c0-7.35-.12-10.22-.69-14.36h19.64a92.68,92.68,0,0,0-.69,14.36v16.65h12.87a72.49,72.49,0,0,0,11.6-.57v17.92a72.21,72.21,0,0,0-11.6-.58H344.49ZM404,502.35c0,2.18,1.14,2.64,7.12,2.64,5.28,0,7.46-.46,8.38-1.95,1.15-1.61,1.72-8.73,1.72-20.1v-4.37a54.44,54.44,0,0,0,17.35,6.66c-.92,22.06-2.3,28.14-7.35,32.39-3.68,3-8.85,3.91-21.83,3.91-9.76,0-28.79-.46-32-1.84-4.13-1.72-5.74-5.05-5.74-12.29V430.79c0-7.47-.11-10.45-.69-14.36h33.73c-.57,3.91-.68,7-.68,14.36v19.87c10.22-5.74,19.18-12.41,23.08-17.12l11.83,14.71c-1,.8-1.83,1.26-3.79,2.87-5.4,4.25-20,12.86-31.12,18.38Z"/><path class="cls-3" d="M539.39,467.39c-.58,8.39-1.27,13-3,18.26-3.56,11.49-9.76,20.34-18.72,26.88-4.37,3.22-15.17,7.34-23,10.9-3.79-7.12-11.56-12.47-17.42-18,12.29-4.25,19.18-8.85,24.7-16.08,4.71-6.2,6.66-12.18,7.46-22.74H491a76.94,76.94,0,0,1-15.05,18.49,53.05,53.05,0,0,0-14.35-10.91c13-11.37,21.59-25.62,24.12-39.86L503.93,438c-.8,1.84-1,2.3-1.72,4.14a88.19,88.19,0,0,1-3.56,8.61l47.4.77a97.93,97.93,0,0,0,14.58-.8v17.11c-4.13-.34-7.23-.46-14.24-.46Z"/><path class="cls-3" d="M590.89,442.66c9.53,5.28,21.82,8,30.44,14.55l-9.88,14.58c-8.27-6.89-21.6-10.64-30.56-15.81Zm90.85,33.15H685a108,108,0,0,0,13.67-.68v17.23a97.51,97.51,0,0,0-13.67-.81H672.44a68.52,68.52,0,0,0,9.42,6.89A70.51,70.51,0,0,0,700.12,506c-4.13,5.17-6.31,9.19-9.42,16.89-16.31-7.35-22.05-11.14-33.88-22.28l12.75-9.08H639.36l12.86,8.85c-11.48,11.25-18,16.08-31.35,22.62-3.33-6.66-5.52-10.22-9.19-14.58-1.5,3.9-2.53,6.43-3.68,9l-1.38,2.75c-.46,1-.57,1.15-1.15,2.53L581,508.93c5.17-6.08,9.76-17.57,14.24-35.49l21.6,9.27v-7.35a64.38,64.38,0,0,0,8.73.45h1.26V433.66c0-6.55-.12-8.62-.34-11.49a9.42,9.42,0,0,0,1.72.12c9.65,0,26.88-1.84,38-4a88,88,0,0,0,15.85-4.48l12.4,14.7c-.91.23-.91.23-2.52.57-14.13,4-28.37,6.32-47.9,7.82v6.2h38.25a106.79,106.79,0,0,0,14-.69V459.5a116.11,116.11,0,0,0-13.9-.69h-.69ZM595,413.6c8.73,5.17,22.52,9.15,30.1,15.35L614,443.08c-7.58-7-21.59-11.33-29.86-16.62Zm33.54,77.95a83.58,83.58,0,0,0-11.6.58c-1.72,6.08-2.53,8.84-4.71,14.7a64,64,0,0,0,14.59-7.12,50.29,50.29,0,0,0,9.42-8.16Zm15.51-32.74v17h21v-17Z"/><text class="cls-4" transform="translate(580.63 704.58)">ゆい</text><text class="cls-4" transform="translate(580.63 596.6)">ゆいが</text><text class="cls-4" transform="translate(580.63 648.67)">はま</text><path class="cls-5" d="M643,231.38a71.51,71.51,0,0,0-66.36-91.73A71.48,71.48,0,0,0,456,76.05,89,89,0,0,0,286.15,58.88a71.49,71.49,0,0,0-98.77,103.34,71.47,71.47,0,0,0,72.51,120.56,71.48,71.48,0,0,0,122.93,31.81,89,89,0,0,0,158.54,36.74,71.48,71.48,0,0,0,73.14-81A71.18,71.18,0,0,0,643,231.38Z"/><path class="cls-6" d="M643,231.38a71.51,71.51,0,0,0-66.36-91.73A71.48,71.48,0,0,0,456,76.05,89,89,0,0,0,286.15,58.88a71.49,71.49,0,0,0-98.77,103.34,71.47,71.47,0,0,0,72.51,120.56,71.48,71.48,0,0,0,122.93,31.81,89,89,0,0,0,158.54,36.74,71.48,71.48,0,0,0,73.14-81A71.18,71.18,0,0,0,643,231.38Z"/><text class="cls-7" transform="translate(278.98 124.15) rotate(4.64)">Design</text><path class="cls-8" d="M279.46,160.41q-2.41,2.47-13.06,12.82t-14.88,14.21c-.21,1.77-.6,5-1.17,9.74s-.94,7.89-1.14,9.5l-23.6-2.89q.18-1.41,1.06-8.16T228,185.07q-4.08-5.88-11.28-17.74T207,151.25l21.72-5.89q2.19,4.09,7.07,11.89c3.25,5.19,5.53,8.59,6.82,10.17h0q2.72-2.28,9.67-9.36t8.51-8.86Z"/><path class="cls-8" d="M364,164.35q-.57,4.65-1,7.83c-.29,2.13-.68,5.27-1.19,9.41q-.5,4.07-.78,6.54c-.19,1.64-.44,3.79-.77,6.45q-1,8.55-4.72,13.1a21.19,21.19,0,0,1-8.8,6.59,39.54,39.54,0,0,1-12.56,3.26,76.06,76.06,0,0,1-14.07-.63,63.21,63.21,0,0,1-15.42-3.53,42.7,42.7,0,0,1-10.42-5.82,20.62,20.62,0,0,1-6.7-8.92q-2-5.24-1-13.65.33-2.7.72-5.75c.27-2,.56-4.38.89-7.07q.45-3.65.94-7.84t1.08-9l23.43,2.87c-.55,4.51-.94,7.64-1.17,9.41s-.55,4.33-1,7.67q-.42,3.4-.67,5.68c-.18,1.53-.41,3.49-.7,5.9q-.72,5.85,2.54,8.41t9.66,3.35q6.21.76,10.25-1.23a8.15,8.15,0,0,0,4.62-6.8c.2-1.63.43-3.38.69-5.26s.52-3.92.79-6.13.53-4.43.79-6.64.7-5.9,1.33-11Z"/><path class="cls-8" d="M394.91,224.5l-22.77-2.78q.24-2.41,1.31-10.71t2.37-19.07q.6-4.94,1.43-11.88t1.68-13.88L401.7,169q-.65,5.34-1.51,12.17t-1.68,13.58q-1.31,10.62-2.12,17.63T394.91,224.5Z"/><path class="cls-8" d="M462.17,204.19l-15.64-1.87-15-1.79-.49,4.06a77.16,77.16,0,0,1,7.68,1.53,55.78,55.78,0,0,1,7.54,2.36q7.19,2.94,10.23,7.37a13.73,13.73,0,0,1,2.41,9.75,13.13,13.13,0,0,1-4.85,8.67q-4.21,3.55-12.43,5.29a55.37,55.37,0,0,1-12.3.9q-6.94-.18-13.39-.84-2.44-.3-5.51-.71c-2-.28-3.42-.47-4.14-.55l-.77-16.09c.33.06.78.14,1.34.22l2.79.41c2.84.4,6,.84,9.48,1.3s6.51.82,9.09,1.05a21.58,21.58,0,0,0,6.51-.17,3.08,3.08,0,0,0,2.69-2.74c.11-.94-.54-1.8-2-2.58a23.68,23.68,0,0,0-5.69-2c-1.5-.35-3.73-.84-6.7-1.45s-5.61-1.09-7.93-1.44c-1.26-.21-2.23-.36-2.89-.45s-1.34-.19-2-.27c.09-1,.34-2.93.74-5.86s.77-5.83,1.12-8.67q.45-3.69,1.05-8.89c.39-3.47.68-5.88.84-7.23l10.2,1.29q7.88,1,14.59,1.82t14.88,1.78L464,189.59Z"/><path class="cls-8" d="M539.76,241.59l-9.41-1.15-8.42-1q-.21,1.74-.69,6.32c-.32,3-.6,5.48-.85,7.3l-21.65-2.65c.26-2.1.57-4.57.95-7.42s.62-4.93.72-6.26l-30.21-3.53-5.46-14.23q13.92-6.8,26.83-13.85t18.75-10.79l15.92,10.57q-.74,5-1.36,10.38t-1.15,9.44q1.95.24,7.87.9c3.94.44,7.28.77,10,1ZM505.28,211h-.08l-20.91,10.31,0,.34c.59,0,2.14.15,4.66.42s4,.42,4.4.48l6.12.72,4.22.5q.19-1.58.87-6.8T505.28,211Z"/><text class="cls-9" transform="translate(539.46 253.79) rotate(6.98)">♥</text></g></g></svg>