<svg xmlns="http://www.w3.org/2000/svg" viewBox="0 0 885.54 90.8"><defs><style>.cls-1{fill:#b46d95;}.cls-2{fill:#fff;}</style></defs><title>アセット 13</title><g id="レイヤー_2" data-name="レイヤー 2"><g id="レイヤー_3" data-name="レイヤー 3"><path class="cls-1" d="M6,49.4A10.26,10.26,0,0,1,16.2,39.1a10.25,10.25,0,1,1,0,20.5A10.24,10.24,0,0,1,6,49.4ZM49.7,59.6A10.25,10.25,0,1,1,59.9,49.4,10.24,10.24,0,0,1,49.7,59.6ZM83.2,39.1a10.25,10.25,0,1,1,0,20.5,10.25,10.25,0,1,1,0-20.5Z"/><path class="cls-1" d="M106,49.4a10.26,10.26,0,0,1,10.2-10.3,10.25,10.25,0,1,1,0,20.5A10.24,10.24,0,0,1,106,49.4Zm43.7,10.2a10.25,10.25,0,1,1,10.2-10.2A10.24,10.24,0,0,1,149.7,59.6Zm33.51-20.5a10.25,10.25,0,1,1,0,20.5,10.25,10.25,0,1,1,0-20.5Z"/><path class="cls-1" d="M209.3,59.1c2.5-11,10.8-19.3,20.7-23.8a1,1,0,0,0-.4-1.8c-4.2-.7-11.3-2.8-11.3-10.1,0-7.5,7.1-10.5,19.2-10.5a1,1,0,0,0,.8-.4,9.08,9.08,0,0,1,6.8-3.3,8.72,8.72,0,0,1,6.7,3.1c.2.2.6.2.7.4a75.8,75.8,0,0,1,10.3.7c6.3.7,13.5,2.5,13.5,10,0,4.4-2.2,7.4-7,9a.94.94,0,0,0,0,1.8C280.9,38.8,289.61,48,289.61,61c.19,10.2-3.4,18.7-9.51,23.8-2.9,2.5-7.1,5.3-11.5,5.3a8.56,8.56,0,0,1-7.9-4.9,8.79,8.79,0,0,1,.1-7.6c2.3-4.4,6.9-7.2,8.1-11.8,1.3-3.9,0-6.4-.7-7.4a1.12,1.12,0,0,0-1.9.1c-2.6,6.6-7.8,14.7-12.2,19.1a1.29,1.29,0,0,0-.1.7,8.84,8.84,0,0,1-4.6,7.7,8.49,8.49,0,0,1-7.6.4h-.7a23.66,23.66,0,0,1-22.2-1.8C210.4,79,207,68.8,209.3,59.1Zm17.8,5.4c0,3.4,2.7,5.5,5.5,4.4a1,1,0,0,0,.7-.8,34.63,34.63,0,0,1-1-6c-.4-3.7,0-5.9-.7-5.9C230,56.2,227.1,59.9,227.1,64.5Zm21.4-8.8c.5.7,1.6-.3,2.8-2.6,1.9-3.4,1.4-4.1.4-4.4a4.71,4.71,0,0,0-3.4.5C247.8,49.5,248,55.4,248.5,55.7Z"/><path class="cls-1" d="M317.6,42.5a55.25,55.25,0,0,1-.9-9.7,54.32,54.32,0,0,1,.9-9.7c2.1-9.7,8.3-10.8,10.8-10.8s8.8,1.1,10.7,10.8a46.41,46.41,0,0,1,.9,9.7,47.09,47.09,0,0,1-.9,9.7c-1.9,9.5-8.1,10.6-10.7,10.6S319.7,52,317.6,42.5Zm61,17.8a45.6,45.6,0,0,1-20.9,24.9,28.93,28.93,0,0,1-13.1,3.51c-7.8.19-10.4-5.11-10.9-8.11-.9-6.2,3.1-8.7,6.3-10.6.4-.2.7-.4,1.3-.7,5.8-3.5,13.5-11.3,16-18a49.79,49.79,0,0,0,2.8-13.8c.2-2.2,0-4.5,0-6.8a42.75,42.75,0,0,1,.4-10.1c.9-5.3,4.4-8.6,9-8.8,4.6,0,8.8,3.3,10.6,8.8a58.12,58.12,0,0,1,1.9,9.9A64.76,64.76,0,0,1,378.6,60.3Z"/><path class="cls-1" d="M438.4,85.2a10.19,10.19,0,0,1-1.7-10.6c1.6-3.4,4.7-8.7,5.4-10.4,2.5-6,2.9-10.6.9-13.8-.9-1.4-3-2.8-4.2-2.8a.66.66,0,0,0-.5.4c-2.2,5.8-4.5,12.3-7.3,19a48.79,48.79,0,0,1-5.4,9.5,11.7,11.7,0,0,1-8,3.4,8.66,8.66,0,0,1-3.2-.6c-3.7-1.4-7.4-5.2-6.5-12.5.5-4.7,2-9.5,3.5-14.4.2-.4-.1-.7-.5-.7a10,10,0,0,1-8.8-5.5,10.49,10.49,0,0,1-.2-8.5c1.4-3.3,5-5.6,7.4-6.9a83.18,83.18,0,0,1,12-5.1c.2-.1.4-.1.4-.3,3-6.4,6-11.7,12.1-12.2h.7a7.67,7.67,0,0,1,3.4.7c3.2,1.1,6.5,4.2,6.7,9.9a1,1,0,0,0,.4.7,34.37,34.37,0,0,1,9.8,4.1.53.53,0,0,0,.9-.4,9.13,9.13,0,0,1,3.4-6.9A10.6,10.6,0,0,1,464,19a.55.55,0,0,0,.5-.3,10.55,10.55,0,0,1,5.7-8.1,10.59,10.59,0,0,1,4.2-.9,10.72,10.72,0,0,1,3.9.7c.2.2.5,0,.7-.2a10.93,10.93,0,0,1,3-2.3,12.67,12.67,0,0,1,4.21-.9c4.4,0,8.7,3,10.8,7.4,2.8,6.4.9,13.1-4.6,15.7-1.91.9-5.61.9-8.11.2-.7-.3-1.8,1.1-1.2,1.6a67.51,67.51,0,0,1,5.61,8.1c4.8,8.7,1.4,13.2-.91,15.4a12.77,12.77,0,0,1-6.5,2.1c-3.5,0-7.6-2.3-12.5-7.3-.4-.5-1.1,0-1.1.4a37.2,37.2,0,0,1-1.8,15.7A39.09,39.09,0,0,1,455,83.9a15.14,15.14,0,0,1-9,4.3h-.9A9.1,9.1,0,0,1,438.4,85.2Z"/><path class="cls-1" d="M548,85.7c-7-.6-13-2.5-17.8-5.7a25.33,25.33,0,0,1-6.4-5.8,25.05,25.05,0,0,1-4.2-8.5,26.89,26.89,0,0,1-.9-9.4,31.38,31.38,0,0,1,5.8-15c.4-.5.2-.9,0-1-.3-.7-.7-1.4-1-2.3a51.27,51.27,0,0,1-4.1-9.2c-2.6-9.6,2.8-13.4,4.6-14.3a10.7,10.7,0,0,1,4.8-1.3c1.9,0,7.4,0,14.5,12a.66.66,0,0,0,.7.6.37.37,0,0,0,.3-.2,52.43,52.43,0,0,1,7.6-2.6,50.26,50.26,0,0,1,12.4-1.6h1.4c11.3.3,12.9,6.5,12.9,10s-1.9,7.8-7.8,9.4c-1.2.3-2.6.7-3.9,1.1a22.07,22.07,0,0,0-3.5.8c-6.2,1.6-14.8,4.6-19.8,11.7-1.2,1.9-1.9,4.8.4,6.7,1.9,2,4.4,2.1,6.9,2.1h11.5c2.6-.1,5.4-.1,8.1-.1a9.71,9.71,0,0,1,9.2,5.6,9.55,9.55,0,0,1-.6,8.7,12.28,12.28,0,0,1-4,3.7c-4.8,3.2-12.4,4.9-22.3,4.9C551.2,86,549.6,85.8,548,85.7Z"/><path class="cls-1" d="M643.9,64.4c6.3,6.8,7.6,12.3,7.4,15.7a12,12,0,0,1-3.5,7.9,12.22,12.22,0,0,1-7.8,2.8,11.4,11.4,0,0,1-2.6-.2c-5.5-1-10.4-5.8-12.9-8.4a36.63,36.63,0,0,1-5.8-8c-4.3-9,.3-14.3,1.9-15.7a12,12,0,0,1,7.6-2.8,11,11,0,0,1,2.6.2C636.5,56.9,641.4,61.7,643.9,64.4Z"/><path class="cls-1" d="M719.3,81.6a8.4,8.4,0,0,1-3.1-.5c-3.7-1.2-7.6-4.9-7.3-11.6a28.07,28.07,0,0,1,.7-5.7c.8-3.9,2.2-9,3.8-14.3A138.09,138.09,0,0,1,718.6,36c2-4.4,5-11,12.4-11a7.65,7.65,0,0,1,3,.6c3.7,1,7.6,4.7,7.4,11.4-.2,1.6-.4,3.4-.9,5.7a133.77,133.77,0,0,1-3.7,14.4c-1.8,5.1-3.5,9.9-5.1,13.6C729.6,74.9,726.6,81.6,719.3,81.6Zm47-10.9c-1.6-3.7-3.4-8.5-5.2-13.6-1.5-5.3-3-10.4-3.7-14.4a36.66,36.66,0,0,1-.8-5.7c-.2-7.2,4.2-10,6.1-11.1.2,0,.4-.3.4-.7-1.8-5.1-.4-10.2,3.7-12.9a10.4,10.4,0,0,1,5.5-1.6,9.6,9.6,0,0,1,3.3.6h.4a1.08,1.08,0,0,0,.7-.2A9.29,9.29,0,0,1,779.1,9a11.25,11.25,0,0,1,4.8-1.1,11.69,11.69,0,0,1,10.21,6.5,13.27,13.27,0,0,1,1.6,7.5,10.43,10.43,0,0,1-5.5,7.9A8.5,8.5,0,0,1,785.5,31a9.63,9.63,0,0,1-2.29-.2,4.26,4.26,0,0,0-.91.2,5.78,5.78,0,0,1-2.1,2,4.73,4.73,0,0,1-1.2.7c-.2,0-.2.1-.4.3,0,.2,0,.4.2.5a13.08,13.08,0,0,1,.5,1.5,136.52,136.52,0,0,1,5.3,13.5,133.91,133.91,0,0,1,3.7,14.3c.5,2.3.7,4.3.91,5.7.2,6.7-3.71,10.4-7.41,11.6a8.89,8.89,0,0,1-3.2.5C771.4,81.6,768.4,74.9,766.3,70.7Z"/><path class="cls-1" d="M884.5,53.4A80,80,0,0,1,879,70.2a49.3,49.3,0,0,1-6.7,10.9c-3.5,4.2-6.7,6-10.4,6a10,10,0,0,1-6.9-2.6c-2.5-2.3-4.4-6.6-2.3-11.9a8.49,8.49,0,0,1,.9-2.2V70c.4-.9.7-1.8,1.1-2.6,1.2-3,2.6-6.6,3.8-10.1a53.36,53.36,0,0,0,2.7-10.8,1,1,0,0,0-.9-1,41.83,41.83,0,0,0-5.6-.4h-.2a1,1,0,0,0-.9.6,22.91,22.91,0,0,1-.7,2.8,73,73,0,0,1-8.1,18.3c-5.5,9-9.9,10.1-13.2,10.1a9.84,9.84,0,0,1-6-2c-1.8-1.4-5.9-5.3-3.6-12.5.4-1.2.9-2.6,1.6-4.2a7.76,7.76,0,0,0,.5-1.8c1.3-3,2.5-6.2,3.6-9.3a1.34,1.34,0,0,0-.2-.9,1,1,0,0,0-.7-.4H824c-6.7,0-10.3-3.8-11.1-7.7-1.1-4.1.5-9.4,6.1-12a40,40,0,0,1,4.3-1.6,75.44,75.44,0,0,1,10.4-2.1,2.34,2.34,0,0,0,.7-.7,11.7,11.7,0,0,1,.5-2c2.3-7.9,8.3-8.6,10.1-8.6a11.57,11.57,0,0,1,7.5,3.2,10,10,0,0,1,3,5.8c.2.3.6.7.9.7a27.48,27.48,0,0,1,4.1.2,34.11,34.11,0,0,1,5.8.7c6.7,1,12,3.5,15,7.4a22.27,22.27,0,0,1,2.1,3.5,34.2,34.2,0,0,1,1.81,5.3c.09,1.2.29,2.6.29,4.1A51.77,51.77,0,0,1,884.5,53.4Z"/><path class="cls-2" d="M0,42.4A10.26,10.26,0,0,1,10.2,32.1a10.25,10.25,0,1,1,0,20.5A10.24,10.24,0,0,1,0,42.4ZM43.7,52.6A10.25,10.25,0,1,1,53.9,42.4,10.24,10.24,0,0,1,43.7,52.6ZM77.2,32.1a10.25,10.25,0,1,1,0,20.5,10.25,10.25,0,1,1,0-20.5Z"/><path class="cls-2" d="M100,42.4a10.26,10.26,0,0,1,10.2-10.3,10.25,10.25,0,1,1,0,20.5A10.24,10.24,0,0,1,100,42.4Zm43.7,10.2a10.25,10.25,0,1,1,10.2-10.2A10.24,10.24,0,0,1,143.7,52.6Zm33.51-20.5a10.25,10.25,0,1,1,0,20.5,10.25,10.25,0,1,1,0-20.5Z"/><path class="cls-2" d="M203.3,52.1c2.5-11,10.8-19.3,20.7-23.8a1,1,0,0,0-.4-1.8c-4.2-.7-11.3-2.8-11.3-10.1,0-7.5,7.1-10.5,19.2-10.5a1,1,0,0,0,.8-.4,9.08,9.08,0,0,1,6.8-3.3,8.72,8.72,0,0,1,6.7,3.1c.2.2.6.2.7.4a75.8,75.8,0,0,1,10.3.7c6.3.7,13.5,2.5,13.5,10,0,4.4-2.2,7.4-7,9a.94.94,0,0,0,0,1.8C274.9,31.8,283.61,41,283.61,54c.19,10.2-3.4,18.7-9.51,23.8-2.9,2.5-7.1,5.3-11.5,5.3a8.56,8.56,0,0,1-7.9-4.9,8.79,8.79,0,0,1,.1-7.6c2.3-4.4,6.9-7.2,8.1-11.8,1.3-3.9,0-6.4-.7-7.4a1.12,1.12,0,0,0-1.9.1c-2.6,6.6-7.8,14.7-12.2,19.1a1.29,1.29,0,0,0-.1.7,8.84,8.84,0,0,1-4.6,7.7,8.49,8.49,0,0,1-7.6.4h-.7a23.66,23.66,0,0,1-22.2-1.8C204.4,72,201,61.8,203.3,52.1Zm17.8,5.4c0,3.4,2.7,5.5,5.5,4.4a1,1,0,0,0,.7-.8,34.63,34.63,0,0,1-1-6c-.4-3.7,0-5.9-.7-5.9C224,49.2,221.1,52.9,221.1,57.5Zm21.4-8.8c.5.7,1.6-.3,2.8-2.6,1.9-3.4,1.4-4.1.4-4.4a4.71,4.71,0,0,0-3.4.5C241.8,42.5,242,48.4,242.5,48.7Z"/><path class="cls-2" d="M311.6,35.5a55.25,55.25,0,0,1-.9-9.7,54.32,54.32,0,0,1,.9-9.7c2.1-9.7,8.3-10.8,10.8-10.8s8.8,1.1,10.7,10.8a46.41,46.41,0,0,1,.9,9.7,47.09,47.09,0,0,1-.9,9.7c-1.9,9.5-8.1,10.6-10.7,10.6S313.7,45,311.6,35.5Zm61,17.8a45.6,45.6,0,0,1-20.9,24.9,28.93,28.93,0,0,1-13.1,3.51c-7.8.19-10.4-5.11-10.9-8.11-.9-6.2,3.1-8.7,6.3-10.6.4-.2.7-.4,1.3-.7,5.8-3.5,13.5-11.3,16-18a49.79,49.79,0,0,0,2.8-13.8c.2-2.2,0-4.5,0-6.8a42.75,42.75,0,0,1,.4-10.1c.9-5.3,4.4-8.6,9-8.8,4.6,0,8.8,3.3,10.6,8.8a58.12,58.12,0,0,1,1.9,9.9A64.76,64.76,0,0,1,372.6,53.3Z"/><path class="cls-2" d="M432.4,78.2a10.19,10.19,0,0,1-1.7-10.6c1.6-3.4,4.7-8.7,5.4-10.4,2.5-6,2.9-10.6.9-13.8-.9-1.4-3-2.8-4.2-2.8a.66.66,0,0,0-.5.4c-2.2,5.8-4.5,12.3-7.3,19a48.79,48.79,0,0,1-5.4,9.5,11.7,11.7,0,0,1-8,3.4,8.66,8.66,0,0,1-3.2-.6c-3.7-1.4-7.4-5.2-6.5-12.5.5-4.7,2-9.5,3.5-14.4.2-.4-.1-.7-.5-.7a10,10,0,0,1-8.8-5.5,10.49,10.49,0,0,1-.2-8.5c1.4-3.3,5-5.6,7.4-6.9a83.18,83.18,0,0,1,12-5.1c.2-.1.4-.1.4-.3,3-6.4,6-11.7,12.1-12.2h.7a7.67,7.67,0,0,1,3.4.7c3.2,1.1,6.5,4.2,6.7,9.9a1,1,0,0,0,.4.7,34.37,34.37,0,0,1,9.8,4.1.53.53,0,0,0,.9-.4,9.13,9.13,0,0,1,3.4-6.9A10.6,10.6,0,0,1,458,12a.55.55,0,0,0,.5-.3,10.55,10.55,0,0,1,5.7-8.1,10.59,10.59,0,0,1,4.2-.9,10.72,10.72,0,0,1,3.9.7c.2.2.5,0,.7-.2a10.93,10.93,0,0,1,3-2.3,12.67,12.67,0,0,1,4.21-.9c4.4,0,8.7,3,10.8,7.4,2.8,6.4.9,13.1-4.6,15.7-1.91.9-5.61.9-8.11.2-.7-.3-1.8,1.1-1.2,1.6a67.51,67.51,0,0,1,5.61,8.1c4.8,8.7,1.4,13.2-.91,15.4a12.77,12.77,0,0,1-6.5,2.1c-3.5,0-7.6-2.3-12.5-7.3-.4-.5-1.1,0-1.1.4a37.2,37.2,0,0,1-1.8,15.7A39.09,39.09,0,0,1,449,76.9a15.14,15.14,0,0,1-9,4.3h-.9A9.1,9.1,0,0,1,432.4,78.2Z"/><path class="cls-2" d="M542,78.7c-7-.6-13-2.5-17.8-5.7a25.33,25.33,0,0,1-6.4-5.8,25.05,25.05,0,0,1-4.2-8.5,26.89,26.89,0,0,1-.9-9.4,31.38,31.38,0,0,1,5.8-15c.4-.5.2-.9,0-1-.3-.7-.7-1.4-1-2.3a51.27,51.27,0,0,1-4.1-9.2c-2.6-9.6,2.8-13.4,4.6-14.3a10.7,10.7,0,0,1,4.8-1.3c1.9,0,7.4,0,14.5,12a.66.66,0,0,0,.7.6.37.37,0,0,0,.3-.2,52.43,52.43,0,0,1,7.6-2.6,50.26,50.26,0,0,1,12.4-1.6h1.4c11.3.3,12.9,6.5,12.9,10s-1.9,7.8-7.8,9.4c-1.2.3-2.6.7-3.9,1.1a22.07,22.07,0,0,0-3.5.8c-6.2,1.6-14.8,4.6-19.8,11.7-1.2,1.9-1.9,4.8.4,6.7,1.9,2,4.4,2.1,6.9,2.1h11.5c2.6-.1,5.4-.1,8.1-.1a9.71,9.71,0,0,1,9.2,5.6,9.55,9.55,0,0,1-.6,8.7,12.28,12.28,0,0,1-4,3.7c-4.8,3.2-12.4,4.9-22.3,4.9C545.2,79,543.6,78.8,542,78.7Z"/><path class="cls-2" d="M637.9,57.4c6.3,6.8,7.6,12.3,7.4,15.7a12,12,0,0,1-3.5,7.9,12.22,12.22,0,0,1-7.8,2.8,11.4,11.4,0,0,1-2.6-.2c-5.5-1-10.4-5.8-12.9-8.4a36.63,36.63,0,0,1-5.8-8c-4.3-9,.3-14.3,1.9-15.7a12,12,0,0,1,7.6-2.8,11,11,0,0,1,2.6.2C630.5,49.9,635.4,54.7,637.9,57.4Z"/><path class="cls-2" d="M713.3,74.6a8.4,8.4,0,0,1-3.1-.5c-3.7-1.2-7.6-4.9-7.3-11.6a28.07,28.07,0,0,1,.7-5.7c.8-3.9,2.2-9,3.8-14.3A138.09,138.09,0,0,1,712.6,29c2-4.4,5-11,12.4-11a7.65,7.65,0,0,1,3,.6c3.7,1,7.6,4.7,7.4,11.4-.2,1.6-.4,3.4-.9,5.7a133.77,133.77,0,0,1-3.7,14.4c-1.8,5.1-3.5,9.9-5.1,13.6C723.6,67.9,720.6,74.6,713.3,74.6Zm47-10.9c-1.6-3.7-3.4-8.5-5.2-13.6-1.5-5.3-3-10.4-3.7-14.4a36.66,36.66,0,0,1-.8-5.7c-.2-7.2,4.2-10,6.1-11.1.2,0,.4-.3.4-.7-1.8-5.1-.4-10.2,3.7-12.9a10.4,10.4,0,0,1,5.5-1.6,9.6,9.6,0,0,1,3.3.6h.4a1.08,1.08,0,0,0,.7-.2A9.29,9.29,0,0,1,773.1,2,11.25,11.25,0,0,1,777.9.9a11.69,11.69,0,0,1,10.21,6.5,13.27,13.27,0,0,1,1.6,7.5,10.43,10.43,0,0,1-5.5,7.9A8.5,8.5,0,0,1,779.5,24a9.63,9.63,0,0,1-2.29-.2,4.26,4.26,0,0,0-.91.2,5.78,5.78,0,0,1-2.1,2,4.73,4.73,0,0,1-1.2.7c-.2,0-.2.1-.4.3,0,.2,0,.4.2.5a13.08,13.08,0,0,1,.5,1.5,136.52,136.52,0,0,1,5.3,13.5,133.91,133.91,0,0,1,3.7,14.3c.5,2.3.7,4.3.91,5.7.2,6.7-3.71,10.4-7.41,11.6a8.89,8.89,0,0,1-3.2.5C765.4,74.6,762.4,67.9,760.3,63.7Z"/><path class="cls-2" d="M878.5,46.4A80,80,0,0,1,873,63.2a49.3,49.3,0,0,1-6.7,10.9c-3.5,4.2-6.7,6-10.4,6a10,10,0,0,1-6.9-2.6c-2.5-2.3-4.4-6.6-2.3-11.9a8.49,8.49,0,0,1,.9-2.2V63c.4-.9.7-1.8,1.1-2.6,1.2-3,2.6-6.6,3.8-10.1a53.36,53.36,0,0,0,2.7-10.8,1,1,0,0,0-.9-1,41.83,41.83,0,0,0-5.6-.4h-.2a1,1,0,0,0-.9.6,22.91,22.91,0,0,1-.7,2.8,73,73,0,0,1-8.1,18.3c-5.5,9-9.9,10.1-13.2,10.1a9.84,9.84,0,0,1-6-2c-1.8-1.4-5.9-5.3-3.6-12.5.4-1.2.9-2.6,1.6-4.2a7.76,7.76,0,0,0,.5-1.8c1.3-3,2.5-6.2,3.6-9.3a1.34,1.34,0,0,0-.2-.9,1,1,0,0,0-.7-.4H818c-6.7,0-10.3-3.8-11.1-7.7-1.1-4.1.5-9.4,6.1-12a40,40,0,0,1,4.3-1.6,75.44,75.44,0,0,1,10.4-2.1,2.34,2.34,0,0,0,.7-.7,11.7,11.7,0,0,1,.5-2c2.3-7.9,8.3-8.6,10.1-8.6a11.57,11.57,0,0,1,7.5,3.2,10,10,0,0,1,3,5.8c.2.3.6.7.9.7a27.48,27.48,0,0,1,4.1.2,34.11,34.11,0,0,1,5.8.7c6.7,1,12,3.5,15,7.4a22.27,22.27,0,0,1,2.1,3.5,34.2,34.2,0,0,1,1.81,5.3c.09,1.2.29,2.6.29,4.1A51.77,51.77,0,0,1,878.5,46.4Z"/></g></g></svg>