<svg xmlns="http://www.w3.org/2000/svg" viewBox="0 0 626.26 104.89"><defs><style>.cls-1{fill:#edc8cf;}.cls-2{fill:#b46d95;}</style></defs><title>アセット 6</title><g id="レイヤー_2" data-name="レイヤー 2"><g id="レイヤー_2-2" data-name="レイヤー 2"><g id="好きなの"><path class="cls-1" d="M31,49.82c-3.2,1.7-6.4,3.7-9.5,5.7-1.7,1.1-5.4,4.9-7.6,4.5-2.8-.6,2.2-4.2,3-4.8,2.9-2.3,5.9-4.5,9-6.7a54.74,54.74,0,0,0-7.6,4.9c-.6.4-3.2,2.8-3.8,1.2s4.3-3.8,5.3-4.4c-1.6.6-4-.4-2.6-2.3-.8.3-1.7.2-1.9-.8s.9-1.8,1.5-2.4c-1.3.1-.8-1.5-.5-2.2.7-1.4,2.2-2.1,3.5-3-1,.5-3.4,1-2.8-.9.4-1.2,2.3-2,3.3-2.6,4.5-2.9,8.8-6.1,13.1-9.2a130.12,130.12,0,0,0-11.3,6.8c-1.6,1.1-3.3,2.1-4.9,3.2-1.2.9-2.3,2.4-3.8,2.8s-2-.7-1.3-2c.8-1.5,2.5-2.5,3.8-3.4,3.4-2.5,6.8-4.8,10.3-7.1-4.1,2.5-7.8,5.7-12.1,7.9-.9.5-2.9,1.3-2.6-.6.3-1.5,2.4-2.3,3.4-3.1-1.1.3-1.1-1.3-1.2-2a8.09,8.09,0,0,0,0-2.2c-.2-.6-.6-.1-.6-1.1,0-1.4,1.6-1.3,2.2-.3s0,2.5.1,3.6c5.5-3,11.1-6.2,16.4-9.6,1-.7,2.1-1.8,3.3-2s1.6.6.8,1.6-2,1.3-2.9,1.8c-1.3.7-2.5,1.6-3.7,2.3,1.4-.7,3-2.3,4.7-2.1,1.4.1,1.4,1.1.7,2.1-1,1.4-2.9,2.1-4.3,2.9-1.9,1.1-3.7,2.4-5.5,3.6,3.3-2,6.7-4.7,10.5-5.6,2-.5,3.2.6,1.3,2.3a32.89,32.89,0,0,1-4.4,2.8c-1.9,1.4-3.9,2.8-5.8,4.2,3.9-2.6,8-5,11.9-7.6.9-.6,2.7-2.3,3.9-1.3,1.1.8-.3,2.1-1,2.7-2.9,2.8-6.6,4.5-10,6.5-3.8,2.3-7.6,4.7-11.2,7.3,6.4-3.8,12.6-7.9,18.9-11.8a55.94,55.94,0,0,1,8.2-4.7c.9-.4,3.7-1.7,3.4.3-.1,1.1-1.5,1.6-2.4,2.1-1.4.8-2.8,1.7-4.2,2.6-3.1,1.8-6.3,3.6-9.5,5.4-5.7,3.3-11.6,6.3-16.5,10.7,7.2-3.7,13.9-8.2,20.8-12.4,3.6-2.3,7.3-4.3,10.8-6.6.9-.7,2.4-2.1,3.6-1.8s.7,1.7-.1,2.3c.8-.2,1.7-.2,2.5-.4.6-.2,1.2-.8,1.9-.6,1.5.5.4,2-.4,2.6a18.52,18.52,0,0,1-3.3,2.1c-1.5,1-3,2.2-4.5,3.3,1-.7,4.7-4.3,5.9-2.6,1.3,1.9-4.3,4.4-5.4,5.2,1.3-.8,2.7-2.5,4.4-2.5,2,0,1.3,1.7.5,2.7-2.8,3.3-6.9,5.4-10.3,8,1.2-.8,11.7-8.6,12.9-6.6,1,1.7-3.6,4.4-4.5,5.1-2.9,2.1-5.6,4.4-8.4,6.7,2.4-1.5,4.7-3.2,7.3-4.5.5-.2,2.3-1.2,2.6-.2.2.8-3.7,2.5-4.3,2.9-2.4,1.5-4.6,3.1-6.8,4.7-.8.5-4.9,2.8-4.4.2.4-1.8,3.6-3.8,4.9-4.8,2.5-2.1,5.3-4,7.8-6.1-3,1.9-5.7,4.3-8.8,6-1,.5-4.4,2.6-5.4,1.5-1.3-1.7,3.4-4.3,4.3-4.9,3.2-2.2,6.3-4.6,9.3-7-2,1.4-4.1,2.8-6,4.3-1.3,1-2.9,2.7-4.7,2.5-2.5-.3,1-3.3,1.9-4-.7.3-2.8,1-2.7-.4-3.1,1.8-5.7,4.3-8.6,6.4-3.1,2.3-6.3,4.5-9.3,6.8a83.68,83.68,0,0,1,9.6-5.7c.9-.5,2.6-1.4,3.1,0,.5,1.1-1,2.1-1.7,2.7,1.4-.4,1.7.9,1.2,2s-2.1,1.8-3.1,2.6c.7-.4,2.2-2.1,3-1.1s-.9,2.2-1.6,2.7c-3.2,2.6-6.6,5.1-9.7,7.8,3.5-2.2,7.2-4.3,10.7-6.5,1.2-.8,3.5-2.7,5-2.4,2.8.7-2,3.8-2.7,4.3-3.3,2.3-6.2,5.1-9.2,7.6,7.2-4.4,14.6-8.5,21.9-12.9,1.3-.8,6-4.7,6-1.2,0,1.5,0,2.6-1.1,3.7a20.6,20.6,0,0,1-4.1,3c.7-.4,3.7-2,3.1.2-.3,1.1-2.1,1.8-2.9,2.4-4.4,2.9-8.6,6.1-12.9,9.2,4.2-2.6,8.5-5.2,12.5-8.2.8-.6,2.2-2.1,3.4-1.6,1.7.7-.1,2.6-.7,3.4-3.1,3.2-6.9,5.6-10.6,8.1-4.3,2.9-8.6,5.7-12.9,8.5a145,145,0,0,0,16.4-10.2c2-1.5,3.9-3.8,6.4-4.3,2.1-.4,1.4,1.3.5,2.3-1.6,2.1-4.1,3.3-6.3,4.7-2.8,1.8-5.5,3.6-8.3,5.4-5.5,3.6-11.1,7-16.5,10.7a193.26,193.26,0,0,0,20-12.1c3.2-2,6.5-4,9.6-6.2.7-.5,2.5-2.1,3.3-.9.6.8-.5,2-1.1,2.6,1.7-.6,3.2.5,2.3,2.3s-3.2,2.8-4.8,3.9c2.6-1.6,5.2-4.4,8.3-5,1.6-.3,2.1.8,1.2,2.1-1.1,1.8-3.3,2.6-4.9,4,1.7-1.1,3.1-2.7,5.1-3.2,1.8-.4,2.8.5,1.6,2.1-1.4,1.7-3.7,2.6-5.5,3.7-2,1.4-4,2.9-5.9,4.5,2.5-1.6,5.1-3.1,7.5-4.9,1.4-1,3.5-3.2,5.4-2.9,1.7.3.3,1.8-.4,2.5-1.9,1.8-4.3,3-6.3,4.6,1.6-.1.1,1.6-.4,2a12.54,12.54,0,0,1-3.5,2.1c-.9.4-2.1.8-2.1-.6-.1-1,1.5-1.8,2.2-2.4-1.3.8-4.6,4.1-6.2,2.7-2.1-2.1,3.3-4.8,4.5-5.7-1,.7-1.9,1.9-3.1,2.2s-1.9-.6-1.2-1.7c.8-1.4,2.6-2.3,3.9-3.3,1.5-1.2,2.9-2.5,4.4-3.8-4.2,2.6-8.5,5-12.5,8-4.2,3.1-8.3,6.3-12.4,9.5.8-.5,8.5-6.1,8.9-4.4.3,1.3-3.5,3.6-4.4,4.2l-3.9,3c-1.5,1.2-2.8,2.8-4.3,4-.8.7-3.3,2-3,0,.2-1.6,2.7-2.4,3.8-3.3-.9.5-4,1.4-3.1-.7.5-1.1,1.9-1.7,2.8-2.3,1.6-1.1,3-2.4,4.5-3.5-1,.6-11.7,8.4-12.1,5.1-.3-2,4.8-4.5,6.2-5.3,4.6-2.7,9.2-5.5,13.9-8.2,4.9-3,10.9-5.4,14.5-9.9-4.1.8-7.6,3.5-11,5.9-4,2.6-8.1,5.1-12,7.9-3.5,2.4-6.8,5.1-10.7,7-.9.5-2.9,1.3-3.1-.3-.2-1.2,1.5-2.3,2.3-2.9-.8.3-2,.6-2.5-.4s1.1-1.8,1.7-2.3c2.7-2,5.6-3.7,8.4-5.5-.9.4-2.1,1.3-3.1,1.2-1.6-.2-1.2-1.6-.3-2.5,2.2-2.3,5.7-3.7,8.4-5.4a149.81,149.81,0,0,0,18-12.7c-5.3,3.4-10.3,7.9-16.2,10.2-.9.4-3.5,1.4-3.6-.3,0-1.1,1.6-1.6,2.3-2.1,1.4-.9,2.6-1.9,4-2.8-1.8,1-4,3.4-6.2,3.2-3.2-.3.8-3.4,1.7-3.9,7-4.2,14.1-8.2,20.4-13.5a158.23,158.23,0,0,0-13.6,8.8,47.51,47.51,0,0,1-6.3,4,7.17,7.17,0,0,1-2.9.6,6.42,6.42,0,0,0-3.1,1.5c1.9-.2,0,3.9-.3,4.7s-.6,2.3-1.6,1.5.3-2.7.6-3.6c-.8.6-2.1,2.1-3.3,1.4-1.2-.9.1-2.4.9-3.1-.7.4-2.2,1.9-3.1,1.3-1.3-1,1.3-3,1.9-3.4l11.9-9.8q-6,3.45-11.7,7.2c-.7.4-5.2,3.8-4.3.9.6-1.8,2.8-3.4,4.2-4.6,1.2-1.1,2.6-2.1,3.8-3.1-2.8,1.6-5.5,3.5-8.4,5-.6.3-2.3,1.4-2.8.2-.3-.8.8-1.4,1.3-1.8,5.1-4,10.9-6.9,16-10.9a144.82,144.82,0,0,0-15.6,9.6c-.7.5-3.8,2.8-3.7.5,0-1.2,2.1-2.4,3-3C19.57,56.62,25.67,53.82,31,49.82Zm-7.2-3.5c1.8-1.1,3.7-2.3,5.5-3.6,4-2.7,7.9-5.5,11.9-8.2-4.2,2.3-8.5,4.7-12.6,7.2-2,1.2-3.9,2.4-5.8,3.6-1.6,1.1-3.3,2-4.4,3.7A16.12,16.12,0,0,0,23.77,46.32ZM27,14.62c-1.7,1-3.2,2.4-5.1,3.2-2.3,1-3.1-.4-1.8-2.4a6.63,6.63,0,0,0,.9-1.9c0-.4-.2-.9,0-1.3.2-.8,1.2-1.5,1.9-.7.9,1.1-1,3.6-1.4,4.7,2.2-1.4,4.5-3.8,7.1-4.3,1.6-.3,1.8.8,1.1,2.1-1.2,2.3-3.7,3.9-5.4,5.8,3.5-2.1,6.9-4.4,10.4-6.4.7-.3,4.6-2.4,3.5-.1-.5,1.1-2.1,1.4-3.1,1.8a48.49,48.49,0,0,0-4.9,2.9c-1.7,1.1-3.6,2.2-5.3,3.3-1,.7-2.3,2-3.6,1.7C19.47,22.42,26.17,15.42,27,14.62ZM21.47,93a17.39,17.39,0,0,0,1.8-1.1C22.57,92.32,22.07,92.72,21.47,93Zm8.1-.4c-2.4,1.3-4.8,2.8-7.1,4.3C24.87,95.62,27.27,94,29.57,92.62Zm5.1-51.2c-1-.5-1.9.9-2.6,1.3.2-.1.5-.2.7-.3A11.4,11.4,0,0,0,34.67,41.42Zm74.2,17.4c-1.9,1.5-3.8,3.1-5.6,4.8,1.2-.7,3.5-3.3,5.1-2.4,1.2.6.4,2.5.3,3.5,1.1-.9,1.7.4,1.1,1.3-.5.6-1.6,1.2-2.3.8-1.3-.6-.3-2.6-.2-3.7-1.9,1.1-3.7,2.3-5.6,3.3-.6.4-2.3,1.6-3,.9-1.6-1.6,3.6-5,4.5-5.8-2,1.4-3.9,2.9-6,4.1-1.7,1-3.6,1.8-5.3,2.8-4.1,2.5-7.9,5.3-11.7,8.1,3.2-2,6.5-3.9,9.5-6.1.8-.6,2.4-2.4,3.6-1.8.9.5.7,1.5.3,2.3-1.1,2.4-4,3.7-6.2,5.1-3.1,2.1-6,4.3-9,6.5,4.3-2.4,8.3-5.2,12.4-7.9.5-.3,3-2.1,3.2-.7.2.9-1.9,1.9-2.4,2.3,1.7,1.1-2,3-2.7,3.5-3.3,2-6.6,4.1-9.8,6.2s-6.4,4.2-9.7,6c-2.9,1.6-6.1,3-8.4,5.5,2.8-.7,5.2-2.4,7.5-4,2.6-1.7,5.3-3.4,7.9-5.2,4.4-3.1,8.4-7.1,13.5-9.1.8-.3,2.1-1,2.9-.3,1,.8,0,2-.7,2.7-2,2.1-4.6,3.6-7,5.2-5.4,3.4-10.9,6.5-16.2,10,7.3-4.1,14.7-8.3,21.8-12.9.7-.4,2.2-1.8,3.2-1.3,1.4.7-.4,2-1,2.5-3.2,2.5-6.7,4.6-10,6.8,2-1.3,4-2.5,6.1-3.8,1.3-.9,2.9-2.3,4.6-2.1s1.5,1.8.7,2.9c-1,1.4-2.7,2.3-4.1,3.3,1.5-.6,1,1.4.7,2-.7,1.9-2.5,3.1-3.7,4.7.6-.4,4.3-3.7,4.5-1.4.1,1.3-2.7,2.3-3.5,2.8-1.2.6-4.8,3-4.2-.2.4-2.1,2.9-3.4,4.1-4.9-3.7,2.3-7.3,4.6-11.1,6.8-.7.4-2.2,1.5-2.9.6s.7-2.1,1.3-2.6c5.5-4.7,12.7-6.9,17.7-12.2-3.7,1.4-7,3.8-10.2,6s-6.7,4.4-10,6.6c-1,.8-2.2,2-3.6,2.1s-1.5-1.1-.9-2.1c.9-1.3,2.5-2.1,3.7-3,1.8-1.2,3.5-2.5,5.3-3.7-3.8,2.3-7.4,5-11.5,6.7-.9.4-3.2,1.3-3-.6.1-1.2,2-2.1,2.9-2.8-1.5.9-3.5,2.8-5.4,2.3-2.8-.7-.2-3.3.9-4.2-2.6-.9,1.6-4.7,2.4-5.6-.8.6-2,1.8-3.1,1.2s-.8-2.5-1-3.5c-.1-.5-.6-.4-.5-1.1a1,1,0,0,1,1.6-.6c1.2.6.7,2.4.9,3.5,1.3-.8,2.4-2.4,3.9-2.8,1.2-.4,2,.2,1.8,1.5-.5,2.5-3.5,4-4.8,5.8,2.4-.5,4.3-2.1,6.3-3.4,2.4-1.6,4.9-3.1,7.4-4.6-1.6.7-2.8-.4-1.8-1.9.9-1.3,2.7-2.1,4-2.9,3.7-2.6,7.4-5.2,10.9-8-2.2,1.4-4.5,2.8-6.7,4.2-1.9,1.3-3.7,3-5.9,3.7-1.6.4-3.2-.1-2.1-1.9s3.7-2.8,5.4-3.9c9-6,18-12,26.6-18.4-8.2,3.5-15.3,9.1-22.7,14a45.91,45.91,0,0,0-5.1,3.5c-.7.6-2.7,2.2-3.6,1.1s2-3.8,2.8-4.4c-.9.4-2.1.8-2.6-.4-.5-1,.6-2,1.3-2.7-1,.6-3.1,1.9-4,.7-1.3-1.7,1.9-3.3,2.9-4.1-1.8,1.2-3.5,2.7-5.5,3.3-1.7.5-3.9-.5-2.1-2.3-1.3.8-2.4,2-3.9,2.3-1.1.1-2.6-.3-1.8-1.6-1.9,1-4.5,3.4-6.8,2.3-2.1-1-.3-3.3.9-4.3-1.4.4-1.2-1.3-.7-2,.5-1,1.8-1.6,2.7-2.3,2.7-2.1,5.4-4.3,8.1-6.5-2.1,1.2-4.2,2.4-6.2,3.7-1.5,1-3.2,2.8-5,3.3s-1.4-1.3-.6-2.3c1.1-1.6,2.8-2.7,4.2-4.1-.8.5-2.3,2-3.4,1.3-.9-.6-.1-2-.2-2.9-.1-.6-.4-.9-.2-1.5a1.77,1.77,0,0,1,1.7-.5c1,.6.2,2.2,0,3,1.4-.8,3.9-4,5.8-3.2,2.7,1.3-2.6,4.9-3.4,5.7,3-1.8,5.9-5.1,9.4-5.7,2.6-.4,1.6,2,.4,3.2a85.33,85.33,0,0,1-8.1,6.5c5.8-3.4,11.4-7.1,17.1-10.6-.6.3-1.9,1.2-2.6.7-1.1-.9.4-2.2,1-2.7a68.87,68.87,0,0,1,8.4-5.7c6.2-3.9,12.6-7.5,18.4-12.1-6.9,3-13,7.8-18.9,12.4-1.6,1.2-5.7,5.1-8,3.9-1.6-.8-.5-3.6-.3-4.8-.4.2-2.1,1.1-2.4.4-.6-1.1,1.7-2,2.3-2.2,3.3-1.1,1.4,3.5,1.2,5.1,4.9-2,9.1-5.6,13.3-8.7,3.9-2.8,7.7-6.5,12.5-7.7,1.2-.3,3.2-.6,2.8,1.2s-2.7,2.8-4.2,3.6c-5.3,3.1-10.3,6.7-15.4,10,4.4-2.7,8.6-5.7,13.3-8.2.5-.2,1.8-1.1,2.4-.7.8.6,0,1.2-.5,1.6-2.2,1.7-4.8,2.8-7.1,4.2,1.1-.6,4.5-3.4,5.4-1,.6,1.7-2.2,3.2-3.3,4,1.4-.6,2,.7,1.2,1.7s-2.5,1.5-3.6,2.1c-3.2,1.8-6.2,4-9.4,5.9-6.3,4-12.7,7.9-18.5,12.6,5.4-3.2,10.6-6.8,15.9-10.2,2.6-1.6,5.2-3.2,7.9-4.8.9-.5,2.2-1.5,3.3-1.4s1.6,1.1.8,2c1.4-.6,3.9-.5,2.7,1.5s-4.2,2.9-6.1,4a104.39,104.39,0,0,0-15.4,10.9c5.9-2.7,11.1-6.6,16.4-10.3,2.3-1.6,4.7-3.3,7.1-4.7.8-.4,5.8-3.6,5.9-1.2,0,1.4-3.9,2.8-4.9,3.4-2.6,1.5-5,3.1-7.5,4.7-4.9,3.2-10.7,6.3-14.7,10.7,6.7-3.1,12.4-7.8,18.4-11.9a77.1,77.1,0,0,1,7.7-4.9c1.4-.7,3.3-1.9,4.9-1.8,2.5.2-.1,2.7-1.1,3.2-2.8,1.5-5.5,3-8.1,4.7-6.6,4.1-13.3,8-19.4,12.8,5.5-3.7,11-7.4,16.6-10.9,2.8-1.7,5.6-3.4,8.5-4.9,1-.5,2.2-1.3,3.4-1.2.9.1,2.3,1,1.3,1.9.1,0,.3.1.4.1C111.57,56.72,109.37,58.32,108.87,58.82Zm-53.7,30.8v0Zm17.5-32.2c5.3-3.5,10.6-7.1,15.9-10.6-6.3,3.5-12.6,6.8-18.9,10.3-2.8,1.6-5.6,3.4-8.4,5-1.9,1.1-4.6,2.1-5.3,4.4a5.85,5.85,0,0,0,1.9-.4C63.27,64,68,60.62,72.67,57.42Zm30.1-34.9c.8-.4,1.9-.3,1.7.7s-1.9,1.6-2.6,1.9a46.52,46.52,0,0,0-6.1,3.6c-4.2,2.8-8.3,5.8-12.8,8.2-1,.5-3.3,1.8-3.9.2-.3-.9.6-1.8,1.2-2.4a25.82,25.82,0,0,1,5.7-4.1c-1.6-1.7,3-4.2,4.1-4.9a122.74,122.74,0,0,0,11.3-9.2c-7.5,3.7-14,9-21.1,13.3-.8.5-3,2-3.6.6-.4-1.1,1.3-2,2-2.5,3.5-2.6,6.8-5.4,10.3-8.2-4.7,2.9-9.5,5.7-14.1,8.8-.8.5-6.9,4.4-6.2.9.4-2.2,4.2-3.7,5.9-4.7A71.56,71.56,0,0,0,87,16.22a70.23,70.23,0,0,0-10.9,7.1c-3.4,2.5-6.7,5.3-10.6,6.9-1,.4-3.4,1.1-3.1-.8.2-1.2,2.2-2,3-2.6,3.6-2.6,6.8-5.5,10.1-8.4-2.6,1.7-5.3,3.3-7.9,5-2,1.3-3.9,3.1-6.2,3.7-.7.2-1.8.4-2.1-.5-.2-1.1,1.2-2,1.9-2.5,2.2-1.8,4.5-3.6,6.8-5.4-2,1.3-4,2.6-5.9,4-.8.6-2.5,2.4-3.6,1.3-1.4-1.4,2.2-3.7,3.1-4.5-.9.5-2.5,1.8-3.5.9-1.2-1,.4-3,.6-4.2,0-.8-.3-3.6,1.5-2.3,1.4,1-.3,3.8-.6,4.9a55,55,0,0,0,5.7-3.6c.9-.7,2.2-2.2,3.5-2.1,3.1.3-3.9,5.6-4.4,6.1,1.2-.9,8-6.9,9.3-4.2.6,1.3-2.2,3.1-2.9,3.6-1.9,1.6-4,3.1-6,4.6a104.71,104.71,0,0,0,10-6.3c1-.8,3.9-3.7,5.2-2.1s-2.2,3.8-3.1,4.6c-3.2,2.5-6.2,5.2-9.3,7.7,3.8-2.4,7.5-4.9,11-7.5,2.7-2,5.3-4.7,8.7-5.3,1.2-.2,2.5,0,2.1,1.5s-2.1,2.3-3.2,3.1c-3.6,2.4-7.1,4.8-10.7,7.2,6.4-3.8,12.3-8.5,19-11.8.6-.3,2-1.1,2.6-.5,1.1.9-1,2.3-1.6,2.7-3.1,2.7-6.4,5.2-9.6,7.7,4.4-2.9,8.6-6.2,13.3-8.6,1.4-.8,6.8-2.6,4.5.9-1.7,2.7-4.9,4.8-7.4,6.7-2.2,1.7-4.6,3.2-6.7,4.9a101.5,101.5,0,0,0,11.2-7.2c1.2-.9,2.6-2.5,4.2-2.7s1.9,1.2.8,2.2A32.12,32.12,0,0,1,102.77,22.52Zm-21.5,35.6c-4,2.4-8.2,4.6-11.7,7.6a13.5,13.5,0,0,0,2.6-1.5C75.27,62.32,78.27,60.22,81.27,58.12Zm-5.7,32.6c5.2-3.2,10.8-5.8,15.2-10.1-1,.5-1.9,1.1-2.9,1.7C83.67,85,79.67,87.92,75.57,90.72Zm1.3-39.4,11.1-6a59.82,59.82,0,0,0,9.2-5.9C90,42.62,83.57,47.22,76.87,51.32Zm4.4-15.5c6-2.6,11.5-7,16.9-10.6C93.27,28.52,86,31.32,81.27,35.82Z"/><path class="cls-1" d="M119.17,46.72a10.09,10.09,0,0,0,.7-1.5l.3-.6-.3-.3c.1-.7,0-.8.6-1.2.9-.6,1.8-.5,1.8.6s-1.2,2.8-1.7,3.7c1.8-1.1,3.6-2.2,5.5-3.3.6-.4,2-1.6,2.8-1.3,2.4.9-4.4,6.8-5.1,7.5,3.6-2.3,7.2-4.9,11-7,.7-.4,2.6-1.7,3.4-.7s-.7,1.8-1.3,2.3c1.3-.8,4.9-3.6,6.7-3,2.3.7-1.3,3-2,3.5-2.4,1.9-5,3.8-7.5,5.7-2.1,1.7-4.7,3.4-6.4,5.6a24.32,24.32,0,0,0,6.2-3.2c2.3-1.3,4.5-2.7,6.7-4.2,3.3-2.2,6.5-4.7,9.9-6.8,1.1-.6,2.4-.6,1.8,1.1s-2.9,3-4.2,4c-3.8,3-7.8,5.7-11.6,8.8,9.2-4.9,17.9-10.6,26.7-16.1-1,.6-3.7,2.5-4.9,1.6-.6-.3-.6-.8-.3-1.3a9,9,0,0,1,2.7-2c1.5-1.1,3-2.2,4.6-3.2,6.6-4.7,13.4-9.3,19.9-14.2-8.5,4.7-16.2,10.8-24.7,15.4-1,.5-3.5,1.3-2.5-.9.6-1.4,2.8-2.6,4-3.6,4.2-3.1,8.6-6,12.8-9-4.3,2.7-8.5,5.6-12.7,8.5-2.1,1.4-4.1,2.8-6.2,4.1a21.3,21.3,0,0,1-5.4,2.8c-.9.2-2.1.2-2.1-1.1-.1-1,1.1-2,1.8-2.6a42.47,42.47,0,0,1,5.7-4.6c4.1-3,8.3-5.8,12.5-8.6-6.4,3-12.2,7.2-18,11.1-2.5,1.7-5,3.4-7.5,5-.8.6-3.4,3-4.4,1.6-2-2.7,12.9-11,14.7-12.1,5.2-3.2,10.7-6.3,15.6-10.1-10.6,5.9-20.2,13.4-30.7,19.6a35.15,35.15,0,0,1-6.4,3.3c-1.2.4-3.6.2-2.4-1.4a6.23,6.23,0,0,1,1.8-1.4c1.1-.9,2.3-1.7,3.4-2.6,2.7-2,5.4-4,8-6-1.3.9-14.5,10-15.4,8.3-.6-1.2,2-2.5,2.5-2.9,3.1-2.3,6.2-4.6,9.2-7-1.9,1.2-3.9,2.4-5.8,3.5-.9.5-2.8,1.9-3.9,1.6-2.4-.7,2-4.7,2.6-5.5-.8.6-2.6,2.1-3.6,1-.5-.5-.2-1.7-.2-2.4-1.1.5-1.2-.8-.7-1.4a2,2,0,0,1,1.1-.6c1.8-.4,1.2,1.8,1.2,2.9,1-.5,4.9-4.1,5.9-3.1,1.4,1.3-3.3,5.7-4.1,6.6,2.7-1.4,5.3-3.1,7.8-4.7,1.1-.8,2.3-1.5,3.4-2.2.3-.3.9-.9,1.4-.8,1,0,1,.9.7,1.7-1,2.2-4.2,4.1-5.9,5.5,3.4-2.1,6.7-4.5,10.4-6.2,1.2-.5,3.3-.4,2,1.2a31.66,31.66,0,0,1-3.6,2.8l-4.7,3.5c-3.2,2.4-6.4,4.8-9.7,7.2,8.9-4.3,17.1-10.5,25.4-16a93.7,93.7,0,0,1,10.9-6.7c1.7-.8,3.5-.2,2,1.9-1.3,1.8-3.7,3.1-5.5,4.3.8-.5,7.4-3.7,6.5-.5-.2.5-1.2,1-1.5,1.3-1.4.9-2.7,1.8-4,2.7-3,2-6,4-9,6.1-2.5,1.9-5.4,3.7-7.4,6.1,4.5-1.7,8.6-5.1,12.5-7.8,4.3-2.9,8.5-5.9,12.9-8.5.9-.5,4-2.5,4.7-.8.4,1.3-2,2.6-2.7,3.1-4.3,3.2-8.7,6.1-13,9.2,2.5-1.5,23.3-16.1,24.7-13.4.6,1.2-1.8,2.6-2.6,3.2-2,1.6-4.1,3.1-6.2,4.6-4.5,3.2-9,6.4-13.6,9.6,5.2-3.5,10.3-7.1,15.5-10.5A79.68,79.68,0,0,1,190,21a15.11,15.11,0,0,1,2.9-1.3c.6-.2,2.9-.1,2.1,1.2-.4.7-.7.2-1.2.2a5.78,5.78,0,0,0-1.7.6,20.9,20.9,0,0,0-2.9,1.6c-2.5,1.5-5,3.1-7.4,4.7-5.1,3.5-10.1,7-15.3,10.3,6.8-4.2,13.6-8.4,20.6-12.4,1.2-.7,5.9-4.2,7.3-2.7,1,1.1-1.1,2.2-1.5,3-.3.5-.3,1.5-.6,2.1-.4.8-.8,1.5-1.2,2.3.6-.4,1.7-1.3,2.5-1a.82.82,0,0,1,.5,1.2,15,15,0,0,1-2.2,1.1c-.7.5-1.7,1.6-2.5,1.8-3.1.8.9-4.9,1.2-5.6-4.5,2.9-9,5.9-13.5,8.7.9-.3,3,0,2.1,1.4-.3.6-1.8,1.1-2.4,1.5,1-.5,2.7-1.3,3.6-.5.7.7.3,1.5-.3,2.1-1.7,2.1-5,3.6-7.3,5-4.9,2.9-10.5,5.5-14.7,9.3,5.8-2.5,11.1-6.2,16.5-9.5,4.7-2.9,9.4-6,14.2-8.9.5-.3,1.2-.9,1.8-.8,1.2.4.5,1.6-.1,2.2-2,2.2-5.1,3.8-7.6,5.4-5.1,3.4-10.5,6.5-15.4,10.2a106,106,0,0,0,12.5-7.5c4.2-2.6,8.4-5.3,12.6-7.8,1-.6,5.8-4.6,6.7-3.1.3.5-.1.8-.4,1.1-1,1.1-3.2,2-4.4,2.8,1-.5,4.4-2.2,5.1-.4a.8.8,0,0,1-.3,1.1c-.5.3-.6-.2-1-.2a8.56,8.56,0,0,0-2.3.5,83,83,0,0,0-12.3,7c-4.1,2.6-8.1,5.4-12.1,8.1-1.7,1.1-3.3,2.3-5,3.4-.5.4-1.2,1-1.8.3.1,2.2-3.9,4.3-5.5,5.4-3,2.1-6.2,4-9.3,5.9,5.2-2.9,10.2-5.9,15.2-9.3,4.7-3.2,9.5-6.4,14.3-9.6,4.4-2.9,8.9-5.8,13.5-8.4a45.9,45.9,0,0,1,5-2.4c1-.3,4.8-1.1,4,1.2,1.1-.1,1.4.7,1,1.5-.6,1.4-2.5,2.7-3.6,3.7,1,.2,1.2,1.6,1.5,2.4,1.4-1.1,1.8,1.5-.1,1.9-1.3.2-1.5-1.5-1.9-2.6-.4.3-6,4.9-5.5,2,.1-.7,1.3-1.4,1.7-1.8,1.5-1.4,3-2.9,4.5-4.3-5.1,2.9-9.7,6.8-14.9,9.6,1.4,1.4-1.3,3.2-2.2,3.9,1-.5,3.9-2.6,5.1-2,1.3.8.1,1.9-.5,2.5-3.7,3.6-7.9,6.7-11.8,10,1.3-.9,12.9-9.9,13.8-7.2.4,1.4-2.5,3.1-3.3,3.7-2.4,2.1-5,4.2-7.4,6.4,2.6-1.7,5.1-3.5,7.6-5.2,1.2-.7,4.5-3.4,6.1-2.6,1.8.9-.8,2.9-1.5,3.5-2.2,1.9-4.5,3.6-6.8,5.3,2.3-1.5,4.7-2.9,7.1-4.3.6-.3,1.6-1.2,2.4-1.1s1.1.9.5,1.6a17.25,17.25,0,0,1-2.4,1c-1,.6-1.9,1.2-2.8,1.7-2.3,1.4-4.6,2.9-6.9,4.3-1,.6-3.9,3-5.1,2.6-1.5-.5-.1-1.9.6-2.5,3.6-3.5,8-6.2,11.9-9.4-2.8,1.6-5.5,3.5-8.2,5.3-1.2.9-2.5,1.7-3.8,2.5-.6.4-1.8,1.4-2.6,1.1-2.2-.6,1.3-3.6,2-4.2,2.5-2.4,5.3-4.6,7.9-6.9-3.7,2.4-7.2,5.1-11,7.6-1.1.7-3.2,2.5-4.7,2.4-.9-.1-1.3-.7-1-1.5s1.6-1.3,2.2-1.8c1.5-1.2,3-2.5,4.6-3.7,3.3-2.7,6.6-5.4,9.8-8.2-5.2,2.8-10.2,6-15.1,9.2-1.3.8-9.7,7.2-10.9,5.6-1.9-2.5,10.4-8.9,11.9-9.8,4.2-2.5,9.5-4.9,12.9-8.5a33.22,33.22,0,0,0-6.7,3.6c-2.4,1.6-4.8,3.1-7.2,4.7-4.4,3-8.8,6.1-13.3,8.9a23.41,23.41,0,0,1-2.7,1.5,7.37,7.37,0,0,1-1.4.4c-.2,0-.5-.2-.6-.2-1.1.4-2.5,2-3.4,2.7-4.3,3.3-8.7,6.5-12.7,10.1,4.1-2.6,8.3-5.9,12.8-7.8,1.8-.8,3.1.1,1.8,1.9s-3.6,3.3-5.4,4.6c.9-.5,6.2-5,7.2-3.6,1.1,1.7-4.8,5.8-5.7,6.6,2.4-1.5,4.9-3.1,7.4-4.5.8-.5,2.9-1.4,2.3.5a3.23,3.23,0,0,1-1.4,1.2c-1,.9-2,1.6-3,2.4-2.7,2.1-5.3,4-7.7,6.2,3.6-2.1,7.1-4.3,10.7-6.6,1.8-1.1,3.6-2.2,5.4-3.2.7-.4,2.4-1.7,3.2-1,1.5,1.4-4.2,4.3-4.9,4.8a88.1,88.1,0,0,0-10,7.3c6.2-3.5,11.7-7.9,17.8-11.5,1-.6,2.5-1.7,3.7-1.6s1.3,1,.9,1.9c-.7,1.3-2.4,2.4-3.5,3.2-1.5,1.2-3,2.2-4.6,3.3,2.9-1.9,5.7-3.9,8.5-5.8.9-.5,3.7-2.9,4.7-1.6,1.4,1.8-10.6,9.4-12,10.6,4.1-2.7,8.3-5.4,12.5-8,2.1-1.4,4.3-2.7,6.5-3.9,1.3-.7,3.7-2.4,5.3-2,3,.8-2.7,3.9-3.2,4.3-4.3,2.8-8.6,5.6-12.8,8.5,2.9-1.8,5.8-3.7,8.8-5.4,1.4-.8,5.5-3.8,7.1-2.4,1.3,1.3-1.4,2.7-2.2,3.3-2.8,2.1-5.8,4-8.7,6,2.3-1.4,4.5-2.8,6.8-4.3a39.19,39.19,0,0,1,5.6-3.3c1.5-.6,2.3.3,1.4,1.7-1.3,1.9-3.6,3.4-5.3,4.8.6-.3,3.2-2.5,4-1.3.6,1-1.1,3.3-1.5,4.1.6-.3,2.7-1.8,2.7-.2,0,.9-1.8,1.5-2.4,1.9s-2.1,1.6-2.7.6,1.2-3.4,1.5-4.2c-.9.6-7.6,5.5-8,3.4-.2-1.1,2-2.6,2.7-3.2,1.7-1.5,3.4-2.9,5.1-4.4-3.5,2.1-6.8,4.4-10.3,6.6-1.1.7-6.2,4.8-7.6,3.5-1.7-1.5,4.9-5.5,5.9-6.1,3.2-2.2,6.5-4.4,9.6-6.7a88.38,88.38,0,0,0-12.1,7.3c-1.7,1.1-3.4,2.3-5.1,3.4-.7.5-2.1,1.9-3,2-1.9.2-.5-2.3.1-3a38.35,38.35,0,0,1,4.8-4.1c4-2.8,8.1-5.5,12.3-8.3-6.8,4-13.2,8.4-19.8,12.6-.8.4-4.6,3.3-4.4.7.1-1.3,2.2-2.7,3.2-3.4a39,39,0,0,1,4-3.1c-3.4,2.2-6.7,4.6-10.3,6.5-1,.5-3.4,1.9-4.3.7-.4-.6-.1-.9.3-1.4.9-1.1,2.8-2,4.1-2.8,1.6-1.1,3.3-2.2,4.9-3.2,3-2.1,6.1-4.1,8.9-6.5-5.6,2.9-10.6,6.8-15.8,10.1-1.1.8-4.9,3.9-6.4,3.1-2.1-1.2,1.7-4,2.5-4.6-1.1.6-6.9,5.2-8,3.5s4.2-5.3,5.2-6.2c-.6.4-6.3,4.4-6.4,2,0-.7,1.1-1.3,1.5-1.6l4.8-4.2a69.81,69.81,0,0,1-7.9,4.9c-.9.3-4,1.1-2.9-.9.3-.5,1.3-1,1.8-1.4,1.3-.9,2.6-1.9,3.9-2.8a66,66,0,0,0,7.2-5.6c-3.2,1.8-6.3,3.9-9.5,5.9-1.3.9-2.6,1.7-4,2.6-.6.3-1.7,1.3-2.5,1-2.5-.9,3.5-5.6,4.2-6.2,3-2.5,6.1-4.9,9.2-7.3-3.7,2.2-7.2,4.5-10.7,6.8-.9.6-2.4,2-3.4,2.1s-1.4-.8-1.1-1.7c-1.6.2-2.9-.7-1.7-2.2a15.33,15.33,0,0,1,3.8-2.9c3.3-2.1,6.6-4.1,10-6.1,6.7-4,14-7.7,20-12.7-9,4.9-17.8,10.5-26.6,15.8-1.6.9-3.2,1.9-4.8,2.8-.6.3-1.9,1.4-2.6.8-2-1.5,6.4-7,7.4-7.8-1.4.9-4.2,3.1-6,2.9-1-.1-1.4-.7-1-1.6.6-1.2,2.6-2.4,3.6-3.3,1.7-1.6,3.5-3.2,5.2-4.9-.6.4-2.5,1.8-3.1.6-.5-1,1-1.2,1.7-1.6a46.54,46.54,0,0,0,4.1-2.6,3.5,3.5,0,0,1,1.7-.9c2.3.4-1.7,4.1-2.1,4.6-2.5,2.4-5.1,4.7-7.6,7,4.4-2.2,8.5-5.3,12.6-8,.9-.6,9.1-6.7,9.5-4.3.1.7-1,1.3-1.4,1.6-1.9,1.4-3.8,2.8-5.7,4.1-4.3,3.1-8.6,6.2-12.8,9.4,6-3.5,11.9-7.1,17.9-10.7,2.6-1.5,5.1-3,7.7-4.4,1-.6,4.4-3.2,5.4-2,0-1,1-1.8,1.7-2.4-.8.2-2.2.3-2.2-.8s1.8-2.2,2.5-2.8c-2.7,1.7-5.8,3.9-9,4.7-1.3.4-2.5-.3-1.6-1.9.7-1.3,2.5-2.3,3.7-3.2,6-4.1,13-7,18.7-11.7-3.2,1.2-6.2,3.3-9.1,5.2s-5.9,3.9-8.9,5.9c-2.3,1.5-4.5,3.3-7,4.6-.6.3-1.5.8-2,0-.8-1.2,1.1-2.7,1.9-3.4-2.2,1.5-4.8,3.8-7.4,4.7-2.4.8-1.6-1.6-.4-2.7,4.4-4.2,10.4-7.2,15.6-10.4,3-1.8,6-3.6,9-5.5A18.58,18.58,0,0,1,172,38c.7-.4,2.2-1,2.6-1.6.2-.3-.1-.7.3-1s1.2-.1,1.6-.2c1.4-.4,2.9-1.8,4.1-2.5,1.5-.9,2.9-1.8,4.3-2.7a75.87,75.87,0,0,0,6.5-4.6c-5.5,2.8-10.7,6.1-16,9.3-10.1,6.2-20.2,12.6-30.4,18.6-1.9,1.2-3.7,2.3-5.6,3.3-1.3.7-4.1,2.9-5.6,2.6-1.9-.4-.1-2.4.6-3.1,2.2-2,4.7-3.7,7.1-5.5-1.6,1.1-14.7,10.3-15.7,6.8-.5-1.9,3.8-4.7,5-5.7,2.5-2.1,5.1-4,7.7-5.9-5.5,3.1-10.9,6.6-16.3,10.1-.7.4-2.7,2.1-2.9.3-.1-.8,1.5-1.7,2-2.1l4.2-3c-.8.5-4.3,3.5-5.2,2-1.1-1.7,4.1-5.7,5.1-6.7-1.3.8-2.7,1.7-4.1,2.5-.7.4-1.6,1.2-2.5,1C117.47,49.42,118.87,47.32,119.17,46.72Zm19.7,30.7c-3.2,2-6.7,3.8-9.6,6.2,2.3-.4,4.1-2.5,6-3.8Zm5.9-42.9a23.26,23.26,0,0,0,2.6-1.7C146.57,33.42,145.67,33.92,144.77,34.52Zm28.3,25.4-11.7,6.3c-3.8,2.2-7.4,4.9-11,7.3,1.6.7,4.2-1.4,5.5-2.2C161.77,67.62,167.27,63.62,173.07,59.92Zm-14.3-44.3c-1,.6-3.8,3.3-5.1,2.8-1-.4-.5-1.9-.4-2.7.1-.3.1-.7.2-1a.76.76,0,0,1-.5-.2c0-.4-.3-.6-.1-1s1.2-.9,1.5-.8c1.5.2.6,2.7.5,3.6,1.1-.8,5.8-5,7.1-3.5s-3.7,5.7-4.6,6.7c3.3-2.1,6.6-4.7,10.1-6.4,1.1-.5,2.7.1,1.3,1.2-1,.8-2.5,1.4-3.7,2.2-1.8,1.1-3.6,2.3-5.5,3.5-1.5.9-3.1,2.2-4.8,2.7-2.3.8-1.6-1.1-.6-2.2C155.67,18.92,157.27,17.32,158.77,15.62Zm5.6,31.6c-2.7,1.7-5.3,3.4-7.8,5.2C159.17,50.72,161.77,48.92,164.37,47.22Zm9.3,10.5c5.3-2.9,10.5-5.7,15.7-8.7,3.6-2,7.7-4,10.7-6.8-3.5.4-7.1,3.1-10,4.9-3.9,2.3-7.6,4.7-11.3,7.2C177.07,55.42,175.37,56.52,173.67,57.72Z"/><path class="cls-1" d="M266.27,90.32c.7-.5,3.8-2.7,3.4-.3a12.23,12.23,0,0,1-1.7,2.9c1.1-.9,2.1.2,1.1,1.1a8.41,8.41,0,0,1-2.6,1.5c-2.8,1-.3-2.7.2-3.6-.9.6-6.4,5-7.2,3-.4-1,1.2-2,1.8-2.4,1.6-1.5,3.4-2.9,5-4.4-1.5,1-12.1,9-13.2,6.5-.8-1.6,3.4-4.5,4.5-5.4l7.5-6.3c-6.8,3.5-12.8,8.4-19.5,12.2-.9.5-3,1.1-2.2-.8.4-1,2.2-1.9,3.1-2.5,1.5-1.1,3.1-2.2,4.7-3.3-1.2.7-4.3,2.8-5.7,1.9s.2-2.4,1-3.2c3.1-3.1,7-5.7,10.7-8.3-1.4.9-12.7,9.6-13.8,7.7-.8-1.5,3.7-3.9,4.6-4.6,2.9-2.1,5.9-4.2,8.7-6.5-1.3.8-10.6,7.8-11.8,5.7-.3-.5,0-.8.2-1.1.9-1.6,3.2-3,4.5-4.2-1,.7-4.7,3.7-6.1,3-1.7-.8,1-4.8,1.5-5.8-1.1.3-1.1-.9-.6-1.4.2-.3.6-.4.9-.6.6-.3,1.9-1.3,2.3-.2.2.5-.3,1.1-.5,1.5-.7,1.5-1.5,3-2.2,4.5,2-1.1,3.8-2.3,5.6-3.5.7-.4,2.2-1.8,3-1.7,3.1.2-3.2,5.8-3.8,6.3,3.5-2.1,6.9-5,10.6-6.7.9-.4,2-.3,1.7,1.1s-2.4,2.7-3.4,3.6c1.2-.8,7.7-5.7,9.1-3.7,1,1.4-2.5,2.9-3.3,3.4-5.7,4-12.3,7.9-17.2,13,3.5-1.4,6.6-3.7,9.7-5.7s6.1-4.1,9.2-6.1c.8-.5,4.4-3.4,4.6-1.2.1,1.1-1.8,2.3-2.5,2.8-1.4,1.1-2.8,2.2-4.3,3.2,1-.5,4.2-2.6,4.9-.8.3.9-1.1,1.8-1.6,2.3-3.7,3.2-7.6,6.2-11.1,9.6,3-1.7,5.8-3.7,8.7-5.6,1-.7,4.5-3.8,5.7-2.4C271.27,86.72,267.37,89.32,266.27,90.32Z"/><path class="cls-1" d="M308.77,90.32c.7-.5,3.8-2.7,3.4-.3a12.23,12.23,0,0,1-1.7,2.9c1.1-.9,2.1.2,1.1,1.1a8.41,8.41,0,0,1-2.6,1.5c-2.8,1-.3-2.7.2-3.6-.9.6-6.4,5-7.2,3-.4-1,1.2-2,1.8-2.4,1.6-1.5,3.4-2.9,5-4.4-1.5,1-12.1,9-13.2,6.5-.8-1.6,3.4-4.5,4.5-5.4l7.5-6.3c-6.8,3.5-12.8,8.4-19.5,12.2-.9.5-3,1.1-2.2-.8.4-1,2.2-1.9,3.1-2.5,1.5-1.1,3.1-2.2,4.7-3.3-1.2.7-4.3,2.8-5.7,1.9s.2-2.4,1-3.2c3.1-3.1,7-5.7,10.7-8.3-1.4.9-12.7,9.6-13.8,7.7-.8-1.5,3.7-3.9,4.6-4.6,2.9-2.1,5.9-4.2,8.7-6.5-1.3.8-10.6,7.8-11.8,5.7-.3-.5,0-.8.2-1.1.9-1.6,3.2-3,4.5-4.2-1,.7-4.7,3.7-6.1,3-1.7-.8,1-4.8,1.5-5.8-1.1.3-1.1-.9-.6-1.4.2-.3.6-.4.9-.6.6-.3,1.9-1.3,2.3-.2.2.5-.3,1.1-.5,1.5-.7,1.5-1.5,3-2.2,4.5,2-1.1,3.8-2.3,5.6-3.5.7-.4,2.2-1.8,3-1.7,3.1.2-3.2,5.8-3.8,6.3,3.5-2.1,6.9-5,10.6-6.7.9-.4,2-.3,1.7,1.1s-2.4,2.7-3.4,3.6c1.2-.8,7.7-5.7,9.1-3.7,1,1.4-2.5,2.9-3.3,3.4-5.7,4-12.3,7.9-17.2,13,3.5-1.4,6.6-3.7,9.7-5.7s6.1-4.1,9.2-6.1c.8-.5,4.4-3.4,4.6-1.2.1,1.1-1.8,2.3-2.5,2.8-1.4,1.1-2.8,2.2-4.3,3.2,1-.5,4.2-2.6,4.9-.8.3.9-1.1,1.8-1.6,2.3-3.7,3.2-7.6,6.2-11.1,9.6,3-1.7,5.8-3.7,8.7-5.6,1-.7,4.5-3.8,5.7-2.4C313.77,86.72,309.87,89.32,308.77,90.32Z"/><path class="cls-1" d="M351.27,90.32c.7-.5,3.8-2.7,3.4-.3a12.23,12.23,0,0,1-1.7,2.9c1.1-.9,2.1.2,1.1,1.1a8.41,8.41,0,0,1-2.6,1.5c-2.8,1-.3-2.7.2-3.6-.9.6-6.4,5-7.2,3-.4-1,1.2-2,1.8-2.4,1.6-1.5,3.4-2.9,5-4.4-1.5,1-12.1,9-13.2,6.5-.8-1.6,3.4-4.5,4.5-5.4l7.5-6.3c-6.8,3.5-12.8,8.4-19.51,12.2-.9.5-3,1.1-2.2-.8.41-1,2.2-1.9,3.11-2.5,1.5-1.1,3.1-2.2,4.7-3.3-1.2.7-4.3,2.8-5.71,1.9s.2-2.4,1-3.2c3.1-3.1,7-5.7,10.7-8.3-1.4.9-12.71,9.6-13.81,7.7-.8-1.5,3.7-3.9,4.61-4.6,2.9-2.1,5.9-4.2,8.7-6.5-1.3.8-10.61,7.8-11.8,5.7-.31-.5,0-.8.19-1.1.9-1.6,3.21-3,4.51-4.2-1,.7-4.7,3.7-6.11,3-1.7-.8,1-4.8,1.5-5.8-1.1.3-1.1-.9-.59-1.4.19-.3.59-.4.9-.6.6-.3,1.89-1.3,2.3-.2.2.5-.3,1.1-.51,1.5-.69,1.5-1.5,3-2.19,4.5,2-1.1,3.79-2.3,5.6-3.5.7-.4,2.2-1.8,3-1.7,3.1.2-3.2,5.8-3.8,6.3,3.5-2.1,6.9-5,10.6-6.7.9-.4,2-.3,1.7,1.1s-2.4,2.7-3.4,3.6c1.2-.8,7.7-5.7,9.1-3.7,1,1.4-2.5,2.9-3.3,3.4-5.7,4-12.3,7.9-17.21,13,3.51-1.4,6.61-3.7,9.71-5.7s6.1-4.1,9.2-6.1c.8-.5,4.4-3.4,4.6-1.2.1,1.1-1.8,2.3-2.5,2.8-1.4,1.1-2.8,2.2-4.3,3.2,1-.5,4.2-2.6,4.9-.8.3.9-1.1,1.8-1.6,2.3-3.7,3.2-7.6,6.2-11.1,9.6,3-1.7,5.8-3.7,8.7-5.6,1-.7,4.5-3.8,5.7-2.4C356.27,86.72,352.37,89.32,351.27,90.32Z"/><path class="cls-1" d="M393.77,90.32c.7-.5,3.8-2.7,3.4-.3a12.23,12.23,0,0,1-1.7,2.9c1.1-.9,2.1.2,1.1,1.1a8.41,8.41,0,0,1-2.6,1.5c-2.81,1-.3-2.7.2-3.6-.9.6-6.4,5-7.21,3-.4-1,1.2-2,1.81-2.4,1.6-1.5,3.39-2.9,5-4.4-1.5,1-12.11,9-13.21,6.5-.8-1.6,3.4-4.5,4.5-5.4l7.51-6.3c-6.81,3.5-12.81,8.4-19.51,12.2-.9.5-3,1.1-2.2-.8.4-1,2.2-1.9,3.1-2.5,1.5-1.1,3.1-2.2,4.7-3.3-1.2.7-4.3,2.8-5.7,1.9s.2-2.4,1-3.2c3.1-3.1,7-5.7,10.7-8.3-1.4.9-12.7,9.6-13.8,7.7-.8-1.5,3.7-3.9,4.6-4.6,2.9-2.1,5.9-4.2,8.7-6.5-1.3.8-10.6,7.8-11.8,5.7-.3-.5,0-.8.2-1.1.9-1.6,3.2-3,4.5-4.2-1,.7-4.7,3.7-6.1,3-1.7-.8,1-4.8,1.5-5.8-1.1.3-1.1-.9-.6-1.4.2-.3.6-.4.9-.6.6-.3,1.9-1.3,2.3-.2.2.5-.3,1.1-.5,1.5-.7,1.5-1.5,3-2.2,4.5,2-1.1,3.8-2.3,5.6-3.5.7-.4,2.2-1.8,3-1.7,3.1.2-3.2,5.8-3.8,6.3,3.5-2.1,6.9-5,10.61-6.7.89-.4,2-.3,1.69,1.1s-2.4,2.7-3.4,3.6c1.21-.8,7.71-5.7,9.11-3.7,1,1.4-2.51,2.9-3.3,3.4-5.71,4-12.31,7.9-17.21,13,3.5-1.4,6.6-3.7,9.7-5.7s6.11-4.1,9.21-6.1c.8-.5,4.4-3.4,4.6-1.2.1,1.1-1.8,2.3-2.5,2.8-1.4,1.1-2.8,2.2-4.3,3.2,1-.5,4.2-2.6,4.9-.8.3.9-1.1,1.8-1.6,2.3-3.7,3.2-7.61,6.2-11.11,9.6,3-1.7,5.81-3.7,8.71-5.6,1-.7,4.5-3.8,5.7-2.4C398.77,86.72,394.87,89.32,393.77,90.32Z"/><path class="cls-1" d="M455.26,67c-5.7,3-10.9,6.8-16.4,10.2-.5.3-1.4,1.1-2,1-.9-.2-.8-.9-.4-1.5a8,8,0,0,1,1.9-1.3c4.7-3.4,9.3-6.7,13.9-10.1l-10.5,6.9c-.7.5-2.2,2-3.2,1.6s-.2-1.7.3-2.3c2.9-2.9,7-4.9,10.3-7.1s7-4.2,9.8-7c-6,2.8-11.2,7.3-16.8,10.8-.6.4-5.5,3.5-4.9.6.2-.8,1.4-1.5,2-2,1.5-1.1,2.9-2.2,4.4-3.3-1.2.4-2.7-.1-1.7-1.4.3-.5,1-.8,1.4-1.2,1.8-1.5,3.7-3,5.6-4.5l9.3-7.4c-2.8,1.7-5.6,3.5-8.4,5.2-1.8,1.2-3.9,3-6,3.6-.9.3-2,0-1.4-1.1.2-.5,1.1-.8,1.4-1.1,1.3-.8,2.6-1.6,3.9-2.3-.9.3-3.1,1.2-3.7-.2-.3-.7.1-.9.5-1.3,1.5-1.4,3.7-2.4,5.4-3.5,2.2-1.3,4.3-2.7,6.5-4.1,7.9-5.1,16.41-10,23.51-16.3-8.9,4.4-17.11,10.2-25.61,15.4-1.6,1-3.3,2.1-5,3.1-.8.4-2.8,2.2-3.9,1.8-2.4-.9,4.2-4.2,4.6-4.4-1.2.4-3.4.3-2.8-1.6.4-1.3,2.3-2.3,3.3-3,2.7-1.9,5.6-3.6,8.4-5.3,5.4-3.1,11.3-5.9,16.11-9.8-5.91,2.3-11.41,6.4-16.71,9.9-2.7,1.7-5.4,3.5-8.1,5.2-1.9,1.2-4.2,3.3-6.4,3.9-.6.2-1.4.3-1.5-.6s1.2-1.4,1.7-1.8c2.3-1.7,4.7-3.2,7.1-4.8,5.6-3.7,11.4-7.3,16.6-11.5-5.7,3.6-11.5,7.2-17.3,10.7-2.9,1.7-5.8,3.4-8.7,4.9-1,.5-4.9,2.9-5.2.8-.3-1.8,3.7-3.8,4.9-4.7,2.9-2,5.9-4,8.9-5.9,5.4-3.4,10.8-6.7,16.1-10.1-8.2,3.6-15.8,9.4-23.2,14.4-.9.7-4.8,4.1-6,3.4-1.9-1.2,4.7-6.8,5.5-7.6-.8.6-4.7,3.6-5,1.1-.1-1.2.7-2.9.9-4.1-.5.3-2.5,1.7-2.5.1,0-.9,1.7-1.5,2.3-1.8,3.3-1.9,1.6,3.1,1.2,4.8,2-1.1,3.9-2.5,5.8-3.8.6-.4,2-1.6,2.6-.6s-.9,2.2-1.4,2.7c-1.6,1.7-3.3,3.3-5,5,5.7-3.9,11.3-7.7,17.1-11.3a79.9,79.9,0,0,1,7.1-3.8c.7-.3,5.71-1.7,4.2.8-.3.6-1.5,1.2-2,1.6-1.2.8-2.4,1.5-3.6,2.3-2.8,1.7-5.5,3.4-8.2,5.1-5.4,3.4-11,6.7-16.1,10.6,8.1-4,15.7-9.1,23.4-13.8,2.4-1.6,4.81-3.3,7.31-4.7.89-.5,1.79-.5,1.7.9-.11,1.6-2.51,3.2-3.61,4.1a27.25,27.25,0,0,1,6.41-3.2c2.4-.6,2.7,1.3,1.2,2.6,1.2-.7,4.9-3.8,6.5-2.9,1.9.9-.9,3-1.6,3.5,2.2-.5,1.3,1.9.5,2.7a36.39,36.39,0,0,1-6.1,4.9c1.5-1,5.5-4.3,7.5-3.7,3.2,1-2.6,5.2-3.4,5.8,2.6-1.5,3,0,2.2,2.1a.8.8,0,0,1,1.2,1c-.1.4-1.3,1.1-1.5,1.2-2.71,1.5-1.7-1.5-1.2-2.9-2.2,1.3-4.21,2.9-6.3,4.2-.71.4-2.3,1.4-2.5-.2-1.41,1-2.91,1.9-4.31,2.7a16.29,16.29,0,0,0-1.7,1.1c-.3.3.2.2-.2.7l-1.2.9c-2.2,1.8-4.3,3.5-6.5,5.2-3.8,3.1-7.5,6.1-11.3,9.1,3.9-2.2,7.6-4.7,11.3-7.1,1-.7,5.2-4.4,6.4-3.6,1.9,1.1-3.4,4-4.1,4.4-3.6,2.5-7.1,4.9-10.7,7.4,2.9-2,6-4.5,9.3-5.7,1.4-.5,3,0,2.1,1.8-.6,1.2-2.1,2.1-3.1,2.9.8-.3,3.4-.6,2.4,1.1-.2.4-.9.7-1.3,1-1.3,1-2.6,1.9-4,2.9.8-.4,2.3-1.4,3.2-1s.6,1.3.1,2c-1.3,2-4.2,3.6-6.2,5-4.6,3.4-9.5,6.5-13.8,10.3,5.2-2.8,10-6.4,15.1-9.6.8-.5,3.4-2.8,4.4-1.6s-2.4,3.4-3.2,3.9c1.1-.4,2.9-.3,2,1.3a12.67,12.67,0,0,1-1.3,1.1c-1.2,1-2.3,1.9-3.4,2.9,1.1-.4,2.2-.1,1.8,1.2-.5,1.6-2.2,3.4-3.2,4.8,1.1-.6,2.5,0,1.4,1.1a10.53,10.53,0,0,1-2.9,1.7c-3.1.4,1.8-6,2.2-6.7-1.6.9-3.1,1.9-4.7,2.9a10.19,10.19,0,0,1-3,2.1c-1.5.2-1-1.1-.2-1.9,2.2-2.1,4.7-4,7.1-6-2,1.3-3.9,2.7-5.9,4-.9.6-2.7,2.2-3.9,1.9-2.7-.9,3.1-4.4,3.6-4.8-1.5.9-3,1.9-4.6,2.8-.8.4-2.3,1.4-3.2,1.3-3-.5.9-3.8,1.7-4.4C443.56,75.22,449.76,71.52,455.26,67Zm-6.7-15.9c5.8-2.9,11.1-6.9,16.4-10.5C459.56,44.12,454.06,47.62,448.56,51.12Zm.5-8.7c3.5-.8,7-3.6,9.8-5.5,3.8-2.4,7.5-5,11.2-7.6-6.6,4-13.7,7.3-19.8,12.1A10.59,10.59,0,0,0,449.06,42.42Zm4.7-21.8c1.4-1.8,3-3.4,4.5-5-.7.5-3.3,3.1-4.2,1.8-.6-1,.5-2.8.2-3.9-.1-.7-1-.7-.2-1.6.5-.6,1.5-.8,1.9-.2.5.8-.2,2.8-.2,3.7.7-.5,7.1-5.1,6.4-1.9-.2.9-1.5,1.8-2,2.4-1.4,1.5-2.8,2.9-4.1,4.4,3.1-1.9,6.2-4,9.4-5.9,1.1-.7,2.91-2.2,4.3-2.2,1,0,1.61,1,.61,1.6a6.87,6.87,0,0,1-1.5.4,22.66,22.66,0,0,0-2.11,1.3c-1.8,1-3.5,2.1-5.3,3.3-1.5.9-2.9,1.9-4.4,2.8-.9.6-2.3,1.8-3.5,1.9C452,23.32,453.26,21.32,453.76,20.62ZM488,49.12a51.72,51.72,0,0,0,5.9-3.6c.7-.4,2.1-1.9,3-2,1.3-.1,1.2,1,.7,1.8-1.1,1.7-3.6,3-5.1,4.2,1.9-1.3,3.7-2.6,5.7-3.8,1-.7,3-2.4,4.4-2.2,3.6.5-4,6.6-4.8,7.2,1.5-1,3.5-2.8,5.4-3.1.6-.1,1.4-.1,1.5.6.3,1-.6.8-1.1.9-3.4,1.3-6.4,4-9.4,6.1,2.4-1.6,4.9-3.2,7.4-4.6.6-.4,3.5-1.6,2.5.5-.3.6-1.3,1-1.8,1.4l-3.6,2.1c-2.6,1.6-5.1,3.1-7.7,4.6-5.8,3.5-11.6,7.1-17.31,10.8-2.7,1.7-5.29,3.5-7.9,5.5-1.2.9-5.3,3.3-5.3,5.1,1.6.3,3.3-.8,4.5-1.7,1.6-1.2,3.2-2.4,4.91-3.5,3.79-2.5,7.7-4.9,11.7-7.3,3.6-2.2,7.4-4.2,10.9-6.6,2.8-1.8,5.5-3.8,8.4-5.5.7-.5,3.1-2.3,3.8-.9.3.6-.1.9-.5,1.3a22.62,22.62,0,0,1-4,2.5c-1.4.8-2.9,1.7-4.3,2.5-6.9,4.1-13.3,8.9-20,13.2a96.26,96.26,0,0,1-8.71,5.3c-2.2,1.1-4.8,2.4-6.1,4.7,2.9-.7,5.3-2.5,7.7-4.1,2.81-1.9,5.7-3.7,8.61-5.6,5.7-3.5,11.5-6.8,17.1-10.5a50.66,50.66,0,0,1,6.7-3.9c.8-.3,2.8-2,3.8-1.6.8.3.4,1.1,0,1.5a7.26,7.26,0,0,0-.9.5c-.1.1,0,.4-.1.5s-.2.3-.3.4c-1.3,1.8-3.8,3.2-5.5,4.7-2.1,2-4.3,3.9-6.4,5.9,3.3-2,6.6-4.1,9.9-6.1.6-.3,4.6-3.4,4.7-1.3,0,1-2.3,2.1-2.9,2.5-3,2.2-5.9,4.3-8.8,6.6,2.1-1.3,4.2-2.7,6.3-4,1.5-1,3.2-2.4,5-2.9.5-.1,1.2-.3,1.5.3.6,1-.6,1.1-1.1,1.3a60.52,60.52,0,0,0-5.5,3.2c-3.5,2.2-7,5.2-10.8,6.8-1.2.4-2.4.1-1.7-1.3s2.8-2.7,4.1-3.7c-.9.5-3.3,2.4-4.5,2.1-.9-.2-.8-.9-.5-1.5.8-1.7,3.2-3.2,4.5-4.4,1.8-1.7,3.6-3.3,5.5-4.9-7.5,4.8-14.9,9.6-22.51,14.1,1.31-.2.91,1.1.5,1.8-1.5,2-3.89,3.6-5.8,5.3,1.91-1.2,4-2.8,6.11-3.5,1.6-.5,2.5.3,1.7,1.7-.9,1.8-3,3.3-4.51,4.6s-2.9,2.7-4.3,4c1.4-.2,2.8-1.7,4-2.5,1.61-1,3.3-2,4.91-3,3.8-2.2,7.8-4.4,11.7-6.5,6.3-3.5,12-7.9,18.2-11.7.9-.5,3.8-1.7,2.8.7-.5,1.2-2.2,2.1-3.2,2.7-1.3.9-2.7,1.7-4.1,2.5-3.1,1.8-6.4,3.4-9.5,5.4s-6.4,4.2-9.6,6.3c-2.8,1.8-5.71,3.5-8.71,5.2-2,1-5.4,1.7-6.5,3.8,1.3.1,2.8-.7,4-1.2,1.91-.9,3.8-1.9,5.61-2.8,3.8-2.2,7.5-4.7,11.2-7.1,6.6-4.1,13.2-8.3,19.6-12.6,1.2-.8,2.3-1.6,3.4-2.4.4-.2,1-.8,1.5-.7,2.8.3-2.2,3.9-2.7,4.2-6.3,4.2-12.9,8.1-19.3,12.2-3.2,2-6.5,4-9.7,5.9-2.3,1.4-5.9,3.4-7.2,5.8,1.8-.1,3.7-1.5,5.3-2.4q3-1.65,6-3.6l11.1-7.5c3.6-2.5,7.3-5.1,11.1-7.4a21.35,21.35,0,0,1,4.2-2.3c1.1-.4,3.2-.2,2.3,1.5a10,10,0,0,1,3.6-1.4c1.6-.2,1.8.5,1.9,1.8-.3.3-.3.5,0,.7a.31.31,0,0,1,.1.2,2,2,0,0,1-.2,1.1,13.65,13.65,0,0,1-1.7,1.7c.5-.3,5.4-2.7,4.2-.1-.3.7-1.4,1.2-1.8,1.6-1.4,1.2-2.8,2.3-4.2,3.5.9-.6,6.6-4.8,7.1-2.3.2.9-1.3,2.1-1.9,2.6-1.6,1.6-3.4,3.1-5.1,4.5,1.2,1-2.9,3-3.5,3.4-.6.2-1.8.6-1.9-.3s1.7-2,2.3-2.5c2.2-1.9,4.4-3.7,6.5-5.7-2.8,1.6-5.4,3.4-8.1,5.1-.8.6-3.1,2.8-4.1,1.7-.8-.9,1.1-2.2,1.6-2.7,2.4-2.1,4.8-4,7.3-6-2.4,1.4-4.7,2.9-7.1,4.4-.7.5-2.9,2.6-4,2.4-1.6-.4-.3-1.7.3-2.1,2.1-1.7,4.3-3.3,6.4-4.9-2.8,1.8-5.7,3.6-8.6,5.3,1.9,1.2-3.8,4.8-4.5,5.3,2.4.3-1,2.2-1.3,2.4-1.5.9-3,1.8-4.5,2.6-.7.4-2.5,1.4-2.3-.4.1-.6,1.4-1.3,1.8-1.7,1.3-1,2.6-2,3.9-2.9-1.3.8-10.8,8.4-12.1,6.1s7.9-6.8,9.4-7.7c4.1-2.4,7.8-4.8,11.7-7.3,2.2-1.4,4.4-2.9,6.7-4.3,1.9-1.1,4.6-2.1,5.9-3.9-4.1.8-8.1,4-11.6,6.1-4.2,2.7-8.4,5.4-12.6,8.2-3.6,2.4-7.2,4.8-10.9,7.1-1.3.8-3.2,2.4-4.7,2.5-1.3,0-1.6-1.1-.7-1.9-1,.5-2.6,1.4-3.8,1.1-1.7-.4-1.31-2-.5-3-1.5.7-3.31,1.7-5.11,1.7s-2.5-1.5-1.3-3c-2.5-.7.21-2.9,1.1-3.7,2.11-2,4.31-3.9,6.31-6a74.61,74.61,0,0,0-7.91,5c-.8.5-3.7,3.1-4.8,2.5-1.3-.9,1.1-2.7,1.7-3.2,2.2-2,4.5-4,6.7-6.1-2.39,1.5-4.9,3-7.3,4.5-.3.2-.9.8-1.4.8-1.3-.2-.8-1.7-.3-2.4-3.4,1-2.2-2.3-.8-3.8-1.5.1-2.4-.9-2-2.3s2.2-2.7,3.3-3.7c-.9.4-3.3,1.7-3.8,0-.4-1.3,1.8-2.6,2.6-3.2-.7.4-2.3,1.6-3.2,1.1s-.6-1.2-.1-1.9c1.7-2.5,4.9-4.6,7.2-6.6-.4.3-2.8,1.4-2.3-.4.2-.6,2-1.2,2.5-1.5,1.6-1,3.21-1.9,4.8-2.9.3-.2.8-.7,1.2-.7,2.71.1-1.79,3.9-2.1,4.1-2.7,2.4-5.4,4.7-8.1,7.1,4.6-2.7,8.91-5.7,13.31-8.5,1.19-.8,9.1-6.8,10-4.3.6,1.8-3.3,3.9-4.5,4.7-2.2,1.5-4.4,2.9-6.7,4.2-3.91,2.4-8.11,4.7-11.81,7.5a122.69,122.69,0,0,0,13.61-7.7c5-3,9.9-6.1,14.9-9.3-.8.4-2.5.7-2.2-.8.3-.9,1.9-1.8,2.6-2.3,3.5-2.9,7.4-5.6,10.6-8.9-4.2,2.5-8.1,5.6-12.4,8.1-.8.4-2.3,1.4-2.8.2s1.6-2.7,2.3-3.3c-3.4,1.4-.7-3.3-.7-4.3,0-.8-.8-1.7.7-2.1,1.3-.4,1.5.5,1.2,1.5A28.27,28.27,0,0,1,488,49.12Zm-20.51-7.6a1.45,1.45,0,0,1-.7-.2c-.4.3-.9.6-1.3.9-.8.5-1.5,1-2.3,1.5-1.6,1.1-3.1,2.2-4.7,3.3a17.61,17.61,0,0,1,2.3-1.4C463,44.22,465.26,42.92,467.46,41.52Zm-.8-7.9c4.5-2.8,9.11-5.7,13.41-8.9C475.37,27.42,471.07,30.62,466.66,33.62Zm4.41,33.2c3.2-2,6.5-3.9,9.5-6.1C477.37,62.62,474.27,64.72,471.07,66.82Zm10.6-35.3c.1,0,.2,0,.2.1l.3-.3C482,31.32,481.87,31.42,481.67,31.52Zm39.2,9.4c.9-.6,2.5-.9,2.2.7-.1,1.2-1.5,2.4-2.2,3.3a9.13,9.13,0,0,1,1.3-.8c1-.1,1.5.6.8,1.4a10.68,10.68,0,0,1-2.7,1.6c-.8.4-2.3,1.6-2.6.2-.3-1.2,1.8-3.2,2.4-3.9-.9.5-3.1,2.7-4.3,2.3-.9-.4-.6-1.2-.2-1.8,1-1.6,2.9-2.9,4.3-4.3s2.9-2.7,4.3-4.2a115.3,115.3,0,0,0-10.2,6.2c-.6.4-4.5,3.8-5.2,2.2-.5-1.2,2.8-3.1,3.3-3.6,2.9-2.4,5.8-4.9,8.7-7.4-2.6,1.7-5.1,3.6-7.7,5.4-1.6,1.1-4.3,3.7-6.4,3.7s-1.3-1.6-.3-2.4c1.9-1.7,3.9-3.2,6-4.8a92.78,92.78,0,0,1-8.8,5.6c-.7.4-2.1,1.4-2.9,1s-.6-1.3-.1-2a12.61,12.61,0,0,1,3.1-2.5c1.5-1.1,3-2.1,4.5-3.1a73.49,73.49,0,0,0,7.8-5.6c-5.2,2.8-9.6,6.9-14.6,9.9-.9.5-2.4,1.6-3.5,1.3-.9-.3-1-1-.6-1.8.5-1,1.9-1.7,2.8-2.4,1.3-.9,2.6-1.8,3.9-2.6-2.6,1.6-5.1,3.4-7.9,4.8-1.3.7-3.2.3-1.8-1.2a73.37,73.37,0,0,1,6-5.1c-1.8,1.1-3.6,2.2-5.5,3.3-.7.4-2.3,1.7-3.2,1-1.7-1.5,4.9-5.9,5.7-6.6-.6.4-4.7,2.9-4.2.4.1-.4.9-.9,1.2-1.2,1.1-1,2.2-2,3.4-3-.7.5-2.3,2-3.2,1.6-1.4-.4-.1-2.8.2-3.6-1,.8-1.9-.2-1.1-1.2a8,8,0,0,1,2.2-1.3c2.5-.7.5,3,.2,3.7l3.9-2.4c.6-.3,1.7-1.2,2.4-1,2.2.6-1.7,3.7-2.1,4.2.8-.6,2.9-2.6,4.1-2.3.8.3.8.9.5,1.6-.5,1.1-2.1,2.2-3.1,3l-5.1,4.2c3-1.9,6-3.8,9-5.5.5-.3,1.5-1.1,2.2-.8,1,.4.3,1.1-.1,1.6-1.7,2.2-4.6,4-6.8,5.8,3.3-2,6.5-4.2,9.8-6.1.7-.4,2.2-1.6,3.1-1.2,1.2.7.1,2-.5,2.6,1.1-.7,3.6-2.7,4.9-1.8.9.6.4,1.6-.1,2.2-1.9,2.5-5.2,4.2-7.7,6,2.5-1.7,5-3.5,7.7-5,.6-.4,4.4-3,4.4-.8.1,1.2-2.2,2.3-2.9,2.9l-7.5,5.7c2.3-1.6,4.6-3.3,6.9-5,1.2-.7,4.7-3.6,6.1-2.6,1,.8,0,1.7-.6,2.3-1.9,1.7-3.9,3.4-5.9,5.1a26.58,26.58,0,0,1,6.4-3.5c1-.4,2.4-.1,1.8,1.3C525.37,37.12,522.87,39,520.87,40.92Zm-26.3,46.8c6.1-3.7,12.8-7.1,18.1-11.8-1.4.7-2.6,1.5-3.9,2.3C504,81.22,499.27,84.52,494.57,87.72Z"/><path class="cls-1" d="M539.56,50.82c-.7.4-4.1,1.9-3-.5.7-1.4,3.3-2.7,4.6-3.5-.9.3-3.1,1.5-3.8.3-.4-.9.5-1.6,1-2.1a65.18,65.18,0,0,1,8.2-5.5c-.9.5-3.7,2.1-4.2.4-.3-.9.8-1.7,1.4-2.2,2.9-2.8,6.1-5.2,9.2-7.7-.6.4-2.4.5-1.7-.8.3-.7,2.5-1.6,3.2-2s7.6-5.6,7.4-2.7c-.1.8-1.4,1.5-1.9,1.9-1.7,1.4-3.4,2.7-5,4.1-3.2,2.5-6.4,5-9.5,7.8,5.8-3,11.2-6.9,16.7-10.4,4.4-2.9,9-6.7,14-8.7,2.5-1,2.71,1,1.11,2.5a52.51,52.51,0,0,1-6.11,4.4c-10,6.5-20.6,12.1-30.3,19,10-4.7,19.3-11.1,28.6-17,3.7-2.4,7.5-4.8,11.31-7.1.8-.5,2.7-2.1,3.4-.9.6,1-1.5,2-2,2.4,1.1-.7,7.2-4.5,8.2-2.2.7,1.6-3.3,3.4-4.3,4-6,3.7-12.2,7.1-18.31,10.6-6.2,3.7-12.4,7.3-18.5,11.2q-3.6,2.25-7.2,4.8c-1.2.9-2.5,1.9-3.7,2.9-.5.5-2.1,1.7-2.1,2.6,2.2.4,5.3-1.7,7.1-2.7,2.7-1.4,5.3-3,7.9-4.6,5.7-3.5,11.3-7.2,16.9-10.9,5.3-3.5,10.5-7.1,15.81-10.5,1.2-.8,10.4-7.6,11.4-5.3,1-.5,3.9-2.5,5-1.3,1.2,1.4-1.5,3.3-2.3,4,.7-.5,4.4-3.7,5.4-2.4,1.3,1.8-4.6,5.3-5.6,6.1a51.91,51.91,0,0,1,6.5-3.7c.8-.4,3.1-1.1,2.7.7-.4,1.4-3.6,2.8-4.7,3.5-2.2,1.4-4.4,2.7-6.6,4-4.7,2.8-9.4,5.6-14.1,8.6-3.51,2.2-8,4.6-10.71,7.9,4.81-1.7,9.31-5,13.51-7.6,4.8-2.9,9.4-6,14.1-9,2-1.2,3.9-2.4,5.8-3.6,1.3-.8,3.2-2.5,4.8-2.7,1.2-.1,1.2.8,1,1.6-.4,1.6-2,2.7-3.2,3.7.6-.3,7.8-5,7-1.6-.2,1.1-2,2.1-2.8,2.8-1.7,1.4-3.5,2.7-5.2,4.1,2.6-1.7,5.1-3.4,7.8-4.9.9-.4,3.9-2.1,3.7.1-.1,1-1.7,2.1-2.4,2.8L612,38c-2.4,1.9-4.8,3.7-7.1,5.6,2.6-1.7,5.1-3.5,7.6-5.2,1.2-.8,4.3-3.6,5.9-3.2,2,.5.3,2-.4,2.6-2.1,1.8-4.4,3.3-6.6,5,2.8-1.7,5.7-3.8,8.7-5,.6-.3,1.1-.6,1.5.2.5,1-1,2.3-1.7,2.9a106,106,0,0,1-9.9,7.8c1.2-.8,10-7.9,10.7-5.5.4,1.4-2.6,3.2-3.4,3.8-2.4,1.9-4.8,3.6-7.1,5.6,2.6-1.6,5.1-3.3,7.7-4.9,1-.6,4.2-3.3,5.3-2.3s-1.1,2.3-1.7,2.8c-2.5,2.2-5.1,4.3-7.7,6.4,2.2-1.4,5.1-3.9,7.7-4.3,1-.2,2,.3,1.6,1.5-.2.8-1.3,1.4-2,1.9-4.6,3.5-9.7,6.2-14.4,9.6,4.8-2.8,9.5-5.9,14.3-8.6.8-.5,3.4-2.1,3,.2-.2,1.5-2.8,3-3.8,3.8-9.1,7.1-18.9,13.3-28.6,19.6,6-3.1,11.7-7.2,17.2-11.1,4.6-3.1,9.2-6.9,14.3-9.2.8-.4,3.7-.8,2.7,1-.7,1.1-3.3,2-4.4,2.7-5.1,3.1-10.2,6.1-15.2,9.3-4.8,3.1-9.9,6.2-14.3,9.9,5.7-3.7,11.4-7.4,17.2-11,4.6-2.8,9.4-6.4,14.6-8,1.1-.3,3.4-.2,2.3,1.4a6,6,0,0,1-2.2,1.6c-1,.7-2.1,1.4-3.2,2.1-5.1,3.2-10.4,6.5-15.6,9.8-4.5,2.9-9.4,5.7-13.4,9.3,3.4-1.3,6.5-3.6,9.5-5.6,3.3-2.1,6.5-4.4,9.7-6.6a99.34,99.34,0,0,1,9.4-5.9c.8-.5,2.6-1.5,3.3-.2.5,1.1-1,2.2-1.7,2.8,1.2-.3,1.8.5,1.6,1.6-.2.9-1.2,1.7-1.8,2.3a69.51,69.51,0,0,1-6.1,4.6c.7-.5,4.5-3.5,4.8-1.2.1,1.2-2.4,2.5-3.2,3.1-1.3,1-2.7,1.9-4.1,2.8.4,0,.7.1.8.4.6.9-.4,1-.9,1.2a20,20,0,0,0-2.1,1c-2.9,1.7-5.7,3.6-8.5,5.4-1.3.9-2.7,1.7-4,2.5-1,.6-2.5,1.9-3.7,2-.8.1-1.5-.3-1.2-1.3.5-1.1,2.4-2,3.3-2.6-1,.5-3.6,2.5-4.9,2.1-1-.3-.8-1.2-.2-1.7,1.1-1.3,3.1-2.3,4.6-3.2,1.7-1.1,3.5-2.2,5.3-3.4,3.9-2.4,7.7-4.8,11.5-7.3,2.8-1.9,6-3.8,8.3-6.4-6.7,3.2-12.7,8.3-18.9,12.4a87,87,0,0,1-8.3,5c-.9.4-3.1,1.4-3.6,0-.4-1,.7-1.7,1.3-2.1-1.2.4-3.1.1-2.4-1.6a7.56,7.56,0,0,1,2.4-2.3c2.8-2.3,5.9-4.2,8.9-6.2,6.7-4.4,13.5-8.5,20.2-12.8-7.9,4-15.3,9-22.7,13.8-1.7,1.2-3.5,2.4-5.3,3.5a16,16,0,0,1-3.2,2.1c-2.6,1-1-2.4-.2-3.3-.8.2-3.1.3-2.6-1.3.2-.4.9-.7,1.2-.9,3.2-2.2,6.4-4.3,9.6-6.4,6.9-4.6,13.8-9.1,20.4-14.1-4.4,2.6-8.7,5.4-13.2,7.9-1.2.6-4,1.7-2.8-.9.8-1.9,3.9-3.5,5.5-4.6-.6.4-2.4,1.9-3.1.8-.3-.6.1-1,.5-1.5a31.41,31.41,0,0,1,4.7-4.1c1.9-1.6,3.9-3.2,5.9-4.8-1.8,1.1-3.5,2.2-5.3,3.2-.8.5-2.4,1.9-3.4,1.7-3.1-.4,2.4-4.8,3-5.3-1,.6-4.3,3.3-5.5,2-.8-.7,0-1.5.6-2.1,3.5-3.4,8-6,11.8-9.1-2.8,1.6-5.6,3.3-8.4,4.9a19.23,19.23,0,0,1-3.1,1.8c-1.2.2-1.4-.8-.9-1.6a9.26,9.26,0,0,1,2.7-2.5c-1.2.8-4.9,3.9-6.5,3.1-1.4-.8.1-2.1.8-2.7,3.8-3.6,8.3-6.6,12.3-10-2.8,1.7-5.6,3.5-8.4,5.3-.8.6-3.9,3.3-5,2.7-2-.8,1.4-3.5,2-4,2.4-2.2,5.1-4.1,7.7-6.2-2.7,1.6-5.3,3.3-7.9,4.9-1,.6-3.1,2.8-4.3,2.5-.8-.3-.6-1-.3-1.5a28.48,28.48,0,0,1,2.6-2.3c1.3-1,2.6-2.1,3.9-3.2-5.7,3.5-11.5,6.9-17.3,10.5-2.8,1.7-5.7,3.5-8.4,5.4a30.18,30.18,0,0,0-5.7,4.5c2.8-.9,5.4-2.8,7.8-4.4,2.7-1.7,5.2-3.6,7.9-5.3.8-.6,3-2.7,3.8-1.2.8,1.7-3.4,4-4.3,4.7.9-.6,3.7-3.1,4.9-2.4,1.9,1.1-1.6,3.9-2.4,4.6.7-.1,1.4.1,1.5.9s-1.4,1.8-2,2.2c-2.7,2-5.5,3.8-8.2,5.6-5.61,3.6-11.81,7.1-16.81,11.6,6.4-3.2,11.9-8.2,18-11.9,1.1-.7,2.5-1.8,3.8-2,.8-.1.9.3,1.5.5s1.2-.3,1.6.5c1,1.8-4.3,4.3-5.4,5-6.11,3.8-12.51,7.3-18.71,11-3.4,2-6.6,4.2-9.8,6.3-2.6,1.6-5.9,3-7.9,5.4a27.52,27.52,0,0,0,6.7-3.2l7.2-4.5c4.5-2.8,8.9-5.8,13.31-8.7,3.8-2.4,7.6-5.5,11.7-7.2,1.2-.5,2.9-.4,2,1.2s-3.7,3-5.2,4c.9-.3,2.4-.5,2.4.9.1,1.1-1.2,2-2,2.6a1,1,0,0,1,1.3,1.1c-.2,1-1.6,1.8-2.3,2.3-2.4,1.8-5.1,3.5-7.6,5.2-5.41,3.5-10.91,6.9-16,10.7,3.6-2,7.1-4.3,10.7-6.6,2.81-1.8,5.6-4,8.6-5.4,1.81-.8,2.61.3,1.31,1.5-2.5,2.6-5.4,4.8-8.1,7.3,1.2-.8,1.9.4,1,1.3s-3.61,3-4.91,2.7c-2.8-.9,5.11-7.3,5.91-7.9-3.11,1.9-6.21,3.9-9.31,5.9-1.5.9-3.1,1.9-4.7,2.8-.8.5-2.4,1.6-3.5,1.4-3.2-.6,2.8-4.8,3.5-5.3,2.9-2.1,5.8-4,8.8-5.9-5,3.1-9.8,6.5-15.1,9-.8.4-3.9,1.5-3-.7.7-1.5,3.5-2.7,4.8-3.5,4.9-3,10-5.9,14.9-8.8,4.51-2.7,9.51-5.3,13.31-8.8-4.2,1.7-8.2,4.3-12.11,6.6-4,2.5-8,4.9-11.9,7.4-3,1.9-6,3.9-9,5.8-.6.3-1.7,1.1-2,0s1.5-2.1,2.2-2.6a7.19,7.19,0,0,1-3.4,1.1,1.33,1.33,0,0,1-1.1-2.1c-1.6.5-4.2-.2-2.5-1.9,2.4-2.5,5.5-4.5,8.1-6.8-2.2,1.3-4.3,2.6-6.6,4-.6.4-2.8,2.1-3.3.6-.4-1.1,2-2.8,2.6-3.4,1.9-1.8,3.8-3.6,5.8-5.3-2.7,1.7-5.2,3.7-7.9,5.4-.8.5-6.1,3.7-4.9.4.4-1.2,2.2-2.3,3.1-3.1,1.2-1,2.5-2,3.8-3,2.2-1.8,4.5-3.6,6.6-5.6-3.4,1.8-6.5,4.2-9.7,6.3-.7.5-4.3,3.5-5.1,2-.3-.6.1-.9.5-1.3a25.17,25.17,0,0,1,3.9-3.3c3.1-2.6,6.1-5.2,9.1-7.8-2.7,1.6-5.3,3.4-8,5.1-1,.7-4.2,3.5-5.5,2.8-1.1-.6-.2-1.4.4-1.8,2.2-1.8,4.7-3.4,7-5.1-.8.5-5.9,3.9-6.5,1.6-.2-1.1,1.9-2.3,2.7-2.8-1,.5-3.6,2-4.3.4-.6-1.4,1.6-2.8,2.5-3.4a4.27,4.27,0,0,1-2.5.1C532.06,56.42,538.46,51.72,539.56,50.82Zm15.9-1.8c-5.8,3.3-12.3,6.5-17.5,10.9C544.16,57.22,549.86,52.72,555.46,49Zm17.5-3.2c-1.2.5-2.4,0-1.59-1.2.5-.8,1.7-1.3,2.4-1.8l4.2-2.7c5.8-3.8,11.7-7.6,17.5-11.6-5.6,3.5-11.2,6.9-16.9,10.1-1.1.6-5,3.6-6.41,2.9-1.9-1,1.61-2.9,2.21-3.3-5.21,3-10.41,5.9-15.51,8.9,1.1.1.7,1.1.3,1.7-1.2,1.4-3.4,2.6-4.9,3.6-4,2.9-8.1,5.7-12.1,8.6,2.2-1.3,4.4-2.7,6.5-4.1,1.5-1,3.2-2.8,4.9-3.4.6-.2,1.3-.2,1.4.7.1,1.5-3.1,3.5-4,4.2.7-.4,2.7-1.7,3.3-.5.3.6,0,.9-.3,1.3a23.45,23.45,0,0,1-3.2,3.1c-1.6,1.3-3.2,2.7-4.8,4.1,1.7-1.2,4-3.1,6.1-3.4s1.8,1.4.8,2.5c-3.1,3.7-7.6,6.4-11.2,9.5,2.4-1.6,4.7-3.3,7.1-4.9,1.1-.7,3.9-3.2,5.4-2.6,1.7.7-.2,2.2-.8,2.8-2.1,2-4.2,3.9-6.2,5.8,2.2-1.4,4.4-2.8,6.7-4.1.9-.5,2.9-1.4,2.6.5-.3,1.5-3,3.4-4.1,4.3-2.1,1.8-4.3,3.6-6.5,5.4,3-.9,5.5-2.8,8.1-4.5,3.3-2.2,6.8-4.1,10.1-6.4-.8.2-1.8,0-1.8-1s1.3-2,1.9-2.5a69.47,69.47,0,0,1,7-5.1c5-3.4,10.21-6.6,15.21-10.1-4.8,2.8-9.41,5.8-14,8.8-.91.6-2.91,2.4-4,2.4a.8.8,0,0,1-.81-1.2c.4-.9,2.2-1.6,3-2.1,2.1-1.3,4.1-2.6,6.1-3.9a102.5,102.5,0,0,0,12.71-8.9c-5.3,3.5-10.5,7.3-16.11,10.5-.89.5-5.6,3.3-5.7.8,0-1.7,4-3.5,5.1-4.3-1.29.4-2.29-.3-1.9-1.7a5.83,5.83,0,0,1,1.9-2.2c-.9.4-2.5,1.3-3.29.3-1-.9.29-2.4,1-3.1A27.34,27.34,0,0,1,573,45.82Zm-12.8-14.7c4.6-2.8,9.1-5.6,13.5-8.7C569.06,25.22,564.66,28.22,560.16,31.12Zm3.6,4.4c7.61-4.5,15.51-8.7,23-13.5C578.66,25.52,571.16,30.72,563.76,35.52Zm6.61,3.2a5.43,5.43,0,0,1,.79-.5C571.16,38.12,570.37,38.62,570.37,38.72Zm1.89,18.2c3.9-2.2,7.61-4.7,11.31-7.2-3.1,2-6.2,3.9-9.2,5.9C573.66,56,573,56.52,572.26,56.92Zm16.41-27.4c1.9-1.2,3.8-2.5,5.7-3.7,1.2-.8,2.8-2.5,3.8-3C594.57,24.42,592,27.32,588.67,29.52Zm13.5,53.6c-2.7,1.6-5.3,3.1-7.8,4.8l.6-.3C597.47,86.22,599.77,84.72,602.17,83.12Zm6.6-23.2c2.1-1.3,4.1-2.6,6.2-3.9,1-.7,2-1.3,3-2a5.5,5.5,0,0,0,.9-.7c0,.1,1.3-.8.7-.4C615.77,55,612.37,57.52,608.77,59.92Zm.1,17.3a113.61,113.61,0,0,0,11.5-7.5,25.29,25.29,0,0,0-2.2,1.3C615,73,612,75.12,608.87,77.22Z"/><path class="cls-2" d="M19.8,38.66c-3.2,1.7-6.4,3.7-9.5,5.7-1.7,1.1-5.4,4.9-7.6,4.5-2.8-.6,2.2-4.2,3-4.8,2.9-2.3,5.9-4.5,9-6.7a54.74,54.74,0,0,0-7.6,4.9c-.6.4-3.2,2.8-3.8,1.2s4.3-3.8,5.3-4.4c-1.6.6-4-.4-2.6-2.3-.8.3-1.7.2-1.9-.8s.9-1.8,1.5-2.4c-1.3.1-.8-1.5-.5-2.21.7-1.4,2.2-2.1,3.5-3-1,.5-3.4,1-2.8-.9.4-1.2,2.3-2,3.3-2.6,4.5-2.9,8.8-6.1,13.1-9.2a130.12,130.12,0,0,0-11.3,6.8c-1.6,1.1-3.3,2.1-4.9,3.2-1.2.91-2.3,2.41-3.8,2.8s-2-.7-1.3-2c.8-1.5,2.5-2.5,3.8-3.4,3.4-2.5,6.8-4.8,10.3-7.1-4.1,2.5-7.8,5.7-12.1,7.9-.9.5-2.9,1.3-2.6-.6.3-1.5,2.4-2.3,3.4-3.1-1.1.3-1.1-1.3-1.2-2a8.09,8.09,0,0,0,0-2.2c-.2-.6-.6-.1-.6-1.1,0-1.4,1.6-1.3,2.2-.3s0,2.5.1,3.6c5.5-3,11.1-6.2,16.4-9.6,1-.7,2.1-1.8,3.3-2s1.6.6.8,1.6-2,1.3-2.9,1.8c-1.3.7-2.5,1.6-3.7,2.3,1.4-.7,3-2.3,4.7-2.1,1.4.1,1.4,1.1.7,2.1-1,1.4-2.9,2.1-4.3,2.9-1.9,1.1-3.7,2.4-5.5,3.6,3.3-2,6.7-4.7,10.5-5.6,2-.5,3.2.6,1.3,2.3a32.89,32.89,0,0,1-4.4,2.8c-1.9,1.4-3.9,2.8-5.8,4.2,3.9-2.6,8-5,11.9-7.6.9-.6,2.7-2.3,3.9-1.3,1.1.8-.3,2.1-1,2.7-2.9,2.8-6.6,4.5-10,6.5-3.8,2.3-7.6,4.7-11.2,7.31,6.4-3.81,12.6-7.91,18.9-11.81a55.94,55.94,0,0,1,8.2-4.7c.9-.4,3.7-1.7,3.4.3-.1,1.1-1.5,1.6-2.4,2.1-1.4.8-2.8,1.7-4.2,2.6-3.1,1.8-6.3,3.6-9.5,5.4-5.7,3.3-11.6,6.31-16.5,10.71C14,31,20.7,26.45,27.6,22.25c3.6-2.3,7.3-4.3,10.8-6.6.9-.7,2.4-2.1,3.6-1.8s.71,1.7-.1,2.3c.81-.2,1.7-.2,2.51-.4.59-.2,1.19-.8,1.9-.6,1.5.5.4,2-.4,2.6a18.61,18.61,0,0,1-3.31,2.1c-1.5,1-3,2.2-4.5,3.3,1-.7,4.71-4.3,5.9-2.6,1.31,1.9-4.3,4.4-5.4,5.2,1.3-.8,2.7-2.5,4.4-2.5,2,0,1.31,1.7.5,2.7-2.79,3.3-6.9,5.4-10.3,8,1.2-.8,11.71-8.61,12.9-6.61,1,1.71-3.6,4.41-4.5,5.1-2.9,2.11-5.6,4.41-8.4,6.71,2.4-1.5,4.7-3.2,7.3-4.5.5-.2,2.31-1.2,2.6-.2.21.8-3.7,2.5-4.3,2.9-2.4,1.5-4.6,3.1-6.8,4.7-.8.5-4.9,2.8-4.4.2.4-1.8,3.6-3.8,4.9-4.8,2.5-2.1,5.3-4,7.8-6.11-3,1.91-5.7,4.31-8.8,6-1,.5-4.4,2.6-5.4,1.5-1.3-1.7,3.4-4.3,4.3-4.9,3.2-2.2,6.3-4.61,9.3-7-2,1.4-4.1,2.81-6,4.31-1.3,1-2.9,2.7-4.7,2.5-2.5-.3,1-3.31,1.9-4-.7.3-2.8,1-2.7-.41-3.1,1.81-5.7,4.31-8.6,6.41-3.1,2.3-6.3,4.5-9.3,6.8a83.68,83.68,0,0,1,9.6-5.7c.9-.5,2.6-1.4,3.1,0,.5,1.1-1,2.1-1.7,2.7,1.4-.4,1.7.9,1.2,2s-2.1,1.8-3.1,2.6c.7-.4,2.2-2.1,3-1.1s-.9,2.2-1.6,2.7c-3.2,2.6-6.6,5.1-9.7,7.8,3.5-2.2,7.2-4.3,10.7-6.5,1.2-.8,3.5-2.7,5-2.4,2.8.7-2,3.8-2.7,4.3-3.3,2.3-6.2,5.1-9.2,7.6,7.2-4.4,14.6-8.5,21.9-12.9,1.3-.8,6-4.7,6-1.2,0,1.5,0,2.6-1.1,3.7a21,21,0,0,1-4.11,3c.7-.4,3.7-2,3.11.2-.31,1.1-2.11,1.8-2.91,2.4-4.4,2.9-8.6,6.1-12.9,9.2,4.2-2.6,8.5-5.2,12.5-8.2.8-.6,2.2-2.1,3.4-1.6,1.7.7-.09,2.6-.7,3.4-3.1,3.2-6.9,5.6-10.6,8.1-4.3,2.9-8.6,5.7-12.9,8.5A145,145,0,0,0,33,61c2-1.5,3.9-3.8,6.4-4.3,2.1-.4,1.4,1.3.5,2.3-1.6,2.1-4.1,3.3-6.3,4.7-2.8,1.8-5.5,3.6-8.3,5.4-5.5,3.6-11.1,7-16.5,10.7a193.26,193.26,0,0,0,20-12.1c3.2-2,6.5-4,9.6-6.2.7-.5,2.5-2.1,3.31-.9.6.8-.5,2-1.11,2.6,1.71-.6,3.21.5,2.3,2.3s-3.2,2.8-4.8,3.9c2.61-1.6,5.21-4.4,8.31-5,1.6-.3,2.1.8,1.2,2.1-1.1,1.8-3.3,2.6-4.9,4,1.7-1.1,3.1-2.7,5.1-3.2,1.8-.4,2.8.5,1.6,2.1-1.4,1.7-3.7,2.6-5.5,3.7-2,1.4-4,2.9-5.91,4.5,2.5-1.6,5.1-3.1,7.51-4.9,1.4-1,3.5-3.2,5.4-2.9,1.7.3.3,1.8-.4,2.5-1.9,1.8-4.3,3-6.3,4.6,1.6-.1.1,1.6-.4,2A12.59,12.59,0,0,1,40.3,81c-.9.4-2.1.8-2.1-.6-.1-1,1.5-1.8,2.2-2.4-1.3.8-4.6,4.1-6.2,2.7-2.1-2.1,3.3-4.8,4.5-5.7-1,.7-1.9,1.9-3.1,2.2s-1.9-.6-1.2-1.7c.8-1.4,2.6-2.3,3.9-3.3,1.5-1.2,2.91-2.5,4.41-3.8-4.21,2.6-8.51,5-12.51,8-4.2,3.1-8.3,6.3-12.4,9.5.8-.5,8.5-6.1,8.9-4.4.3,1.3-3.5,3.6-4.4,4.2l-3.9,3c-1.5,1.2-2.8,2.8-4.3,4-.8.7-3.3,2-3,0,.2-1.6,2.7-2.4,3.8-3.3-.9.5-4,1.4-3.1-.7.5-1.1,1.9-1.7,2.8-2.3,1.6-1.1,3-2.4,4.5-3.5-1,.6-11.7,8.4-12.1,5.1-.3-2,4.8-4.5,6.2-5.3,4.6-2.7,9.2-5.5,13.9-8.2,4.9-3,10.9-5.4,14.5-9.9-4.1.8-7.6,3.5-11,5.9-4,2.6-8.1,5.1-12,7.9-3.5,2.4-6.8,5.1-10.7,7-.9.5-2.9,1.3-3.1-.3-.2-1.2,1.5-2.3,2.3-2.9-.8.3-2,.6-2.5-.4s1.1-1.8,1.7-2.3c2.7-2,5.6-3.7,8.4-5.5-.9.4-2.1,1.3-3.1,1.2-1.6-.2-1.2-1.6-.3-2.5,2.2-2.3,5.7-3.7,8.4-5.4a149.81,149.81,0,0,0,18-12.7c-5.3,3.4-10.3,7.9-16.2,10.2-.9.4-3.5,1.4-3.6-.3,0-1.1,1.6-1.6,2.3-2.1,1.4-.9,2.6-1.9,4-2.8-1.8,1-4,3.4-6.2,3.2-3.2-.3.8-3.4,1.7-3.9,7-4.2,14.1-8.2,20.4-13.5a158.23,158.23,0,0,0-13.6,8.8,47.51,47.51,0,0,1-6.3,4,7.17,7.17,0,0,1-2.9.6,6.42,6.42,0,0,0-3.1,1.5c1.9-.2,0,3.9-.3,4.7s-.6,2.3-1.6,1.5.3-2.7.6-3.6c-.8.6-2.1,2.1-3.3,1.4-1.2-.9.1-2.4.9-3.1-.7.4-2.2,1.9-3.1,1.3-1.3-1,1.3-3,1.9-3.4l11.9-9.8q-6,3.45-11.7,7.2c-.7.4-5.2,3.8-4.3.9.6-1.8,2.8-3.4,4.2-4.6,1.2-1.1,2.6-2.1,3.8-3.1-2.8,1.6-5.5,3.5-8.4,5-.6.3-2.3,1.4-2.8.2-.3-.8.8-1.4,1.3-1.8,5.1-4,10.9-6.9,16-10.9a144.82,144.82,0,0,0-15.6,9.6c-.7.5-3.8,2.8-3.7.5,0-1.2,2.1-2.4,3-3C8.4,45.46,14.5,42.66,19.8,38.66Zm-7.2-3.5c1.8-1.1,3.7-2.3,5.5-3.6,4-2.71,7.9-5.51,11.9-8.21-4.2,2.3-8.5,4.71-12.6,7.21-2,1.2-3.9,2.4-5.8,3.6-1.6,1.1-3.3,2-4.4,3.7A16.12,16.12,0,0,0,12.6,35.16ZM15.8,3.45c-1.7,1-3.2,2.4-5.1,3.2-2.3,1-3.1-.4-1.8-2.4a6.63,6.63,0,0,0,.9-1.9c0-.4-.2-.9,0-1.3.2-.8,1.2-1.5,1.9-.7.9,1.1-1,3.6-1.4,4.7,2.2-1.4,4.5-3.8,7.1-4.3,1.6-.3,1.8.8,1.1,2.1-1.2,2.3-3.7,3.9-5.4,5.8,3.5-2.1,6.9-4.4,10.4-6.4.7-.3,4.6-2.4,3.5-.1-.5,1.1-2.1,1.4-3.1,1.8A48.49,48.49,0,0,0,19,6.85c-1.7,1.1-3.6,2.2-5.3,3.3-1,.7-2.3,2-3.6,1.7C8.3,11.25,15,4.25,15.8,3.45ZM10.3,81.86a17.39,17.39,0,0,0,1.8-1.1C11.4,81.16,10.9,81.56,10.3,81.86Zm8.1-.4c-2.4,1.3-4.8,2.8-7.1,4.3C13.7,84.46,16.1,82.86,18.4,81.46Zm5.1-51.2c-1-.5-1.9.9-2.6,1.3.2-.11.5-.21.7-.3A12.2,12.2,0,0,0,23.5,30.26Zm74.21,17.4c-1.9,1.5-3.8,3.1-5.6,4.8,1.2-.7,3.5-3.3,5.1-2.4,1.2.6.4,2.5.3,3.5,1.1-.9,1.7.4,1.1,1.3-.5.6-1.6,1.2-2.3.8-1.3-.6-.3-2.6-.2-3.7-1.9,1.1-3.7,2.3-5.6,3.3-.6.4-2.3,1.6-3,.9-1.6-1.6,3.6-5,4.5-5.8-2,1.4-3.9,2.9-6,4.1-1.7,1-3.6,1.8-5.3,2.8-4.1,2.5-7.9,5.3-11.7,8.1,3.2-2,6.5-3.9,9.5-6.1.8-.6,2.4-2.4,3.6-1.8.9.5.7,1.5.3,2.3-1.1,2.4-4,3.7-6.2,5.1-3.1,2.1-6,4.3-9,6.5,4.3-2.4,8.3-5.2,12.4-7.9.5-.3,3-2.1,3.2-.7.2.9-1.9,1.9-2.4,2.3,1.7,1.1-2,3-2.7,3.5-3.3,2-6.6,4.1-9.8,6.2s-6.4,4.2-9.7,6c-2.9,1.6-6.1,3-8.4,5.5,2.8-.7,5.2-2.4,7.5-4,2.6-1.7,5.3-3.4,7.9-5.2,4.4-3.1,8.4-7.1,13.5-9.1.8-.3,2.1-1,2.9-.3,1,.8,0,2-.7,2.7-2,2.1-4.6,3.6-7,5.2-5.4,3.4-10.9,6.5-16.2,10,7.3-4.1,14.7-8.3,21.8-12.9.7-.4,2.2-1.8,3.2-1.3,1.4.7-.4,2-1,2.5-3.2,2.5-6.7,4.6-10,6.8,2-1.3,4-2.5,6.1-3.8,1.3-.9,2.9-2.3,4.6-2.1s1.5,1.8.7,2.9c-1,1.4-2.7,2.3-4.1,3.3,1.5-.6,1,1.4.7,2-.7,1.9-2.5,3.1-3.7,4.7.6-.4,4.3-3.7,4.5-1.4.1,1.3-2.7,2.3-3.5,2.8-1.2.6-4.8,3-4.2-.2.4-2.1,2.9-3.4,4.1-4.9-3.7,2.3-7.3,4.6-11.1,6.8-.7.4-2.2,1.5-2.9.6s.7-2.1,1.3-2.6c5.5-4.7,12.7-6.9,17.7-12.2-3.7,1.4-7,3.8-10.2,6s-6.7,4.4-10,6.6c-1,.8-2.2,2-3.6,2.1s-1.5-1.1-.9-2.1c.9-1.3,2.5-2.1,3.7-3,1.8-1.2,3.5-2.5,5.3-3.7-3.8,2.3-7.4,5-11.5,6.7-.9.4-3.2,1.3-3-.6.1-1.2,2-2.1,2.9-2.8-1.5.9-3.5,2.8-5.4,2.3-2.8-.7-.2-3.3.9-4.2-2.6-.9,1.6-4.7,2.4-5.6-.8.6-2,1.8-3.1,1.2s-.8-2.5-1-3.5c-.1-.5-.6-.4-.5-1.1a1,1,0,0,1,1.6-.6c1.2.6.7,2.4.9,3.5,1.3-.8,2.4-2.4,3.9-2.8,1.2-.4,2,.2,1.8,1.5-.5,2.5-3.5,4-4.8,5.8,2.4-.5,4.3-2.1,6.3-3.4,2.4-1.6,4.9-3.1,7.4-4.6-1.6.7-2.8-.4-1.8-1.9.9-1.3,2.7-2.1,4-2.9,3.7-2.6,7.4-5.2,10.9-8-2.2,1.4-4.5,2.8-6.7,4.2-1.9,1.3-3.7,3-5.9,3.7-1.6.4-3.2-.1-2.1-1.9s3.7-2.8,5.4-3.9c9-6,18-12,26.6-18.4-8.2,3.5-15.3,9.1-22.7,14a45.91,45.91,0,0,0-5.1,3.5c-.7.6-2.7,2.2-3.6,1.1s2-3.8,2.8-4.4c-.9.4-2.1.8-2.6-.4-.5-1,.6-2,1.3-2.7-1,.6-3.1,1.9-4,.7-1.3-1.7,1.9-3.3,2.9-4.1-1.8,1.2-3.5,2.7-5.5,3.3-1.7.5-3.9-.5-2.1-2.3-1.3.8-2.4,2-3.9,2.3-1.1.1-2.6-.3-1.8-1.6-1.9,1-4.5,3.4-6.8,2.3-2.1-1-.31-3.3.9-4.3-1.4.4-1.21-1.3-.71-2,.5-1,1.81-1.6,2.71-2.3,2.7-2.1,5.4-4.3,8.1-6.5-2.1,1.2-4.2,2.4-6.2,3.7-1.5,1-3.2,2.8-5,3.3s-1.39-1.3-.6-2.3c1.1-1.6,2.81-2.7,4.21-4.1-.8.5-2.3,2-3.4,1.3-.9-.6-.1-2-.21-2.9-.1-.6-.39-.9-.19-1.5a1.76,1.76,0,0,1,1.69-.5c1,.6.21,2.2,0,3,1.41-.8,3.91-4,5.81-3.2,2.7,1.3-2.6,4.9-3.4,5.7,3-1.8,5.9-5.1,9.4-5.7,2.6-.4,1.6,2,.4,3.2a85.33,85.33,0,0,1-8.1,6.5c5.8-3.4,11.4-7.1,17.1-10.6-.6.3-1.9,1.2-2.6.7-1.1-.9.4-2.2,1-2.7A70.1,70.1,0,0,1,73.61,30c6.2-3.9,12.6-7.5,18.4-12.1-6.9,3-13,7.8-18.9,12.41-1.6,1.19-5.7,5.1-8,3.9-1.6-.8-.5-3.6-.3-4.81-.4.21-2.1,1.1-2.4.41-.6-1.1,1.7-2,2.3-2.2,3.3-1.11,1.4,3.5,1.2,5.1,4.9-2,9.1-5.6,13.3-8.71,3.9-2.8,7.7-6.5,12.5-7.7,1.2-.3,3.2-.6,2.8,1.2s-2.7,2.8-4.2,3.6c-5.3,3.1-10.3,6.7-15.4,10,4.4-2.71,8.6-5.71,13.3-8.21.5-.2,1.8-1.1,2.4-.7.8.6,0,1.2-.5,1.6-2.2,1.7-4.8,2.81-7.1,4.2,1.1-.6,4.5-3.4,5.4-1,.6,1.71-2.2,3.21-3.3,4,1.4-.6,2,.71,1.2,1.71s-2.5,1.5-3.6,2.1c-3.2,1.8-6.2,4-9.4,5.9-6.3,4-12.7,7.9-18.5,12.6,5.4-3.2,10.6-6.8,15.9-10.2,2.6-1.6,5.2-3.2,7.9-4.8.9-.5,2.2-1.5,3.3-1.4s1.6,1.1.8,2c1.4-.6,3.9-.5,2.7,1.5s-4.2,2.9-6.1,4a104.39,104.39,0,0,0-15.4,10.9c5.9-2.7,11.1-6.6,16.4-10.3,2.3-1.6,4.7-3.3,7.1-4.7.8-.4,5.8-3.6,5.9-1.2,0,1.4-3.9,2.8-4.9,3.4-2.6,1.5-5,3.1-7.5,4.7-4.9,3.2-10.7,6.3-14.7,10.7,6.7-3.1,12.4-7.8,18.4-11.9a77.1,77.1,0,0,1,7.7-4.9c1.4-.7,3.3-1.9,4.9-1.8,2.5.2-.1,2.7-1.1,3.2-2.8,1.5-5.5,3-8.1,4.7-6.6,4.1-13.3,8-19.4,12.8,5.5-3.7,11-7.4,16.6-10.9,2.8-1.7,5.6-3.4,8.5-4.9,1-.5,2.2-1.3,3.4-1.2.9.1,2.3,1,1.3,1.9.1,0,.3.1.4.1C100.41,45.56,98.21,47.16,97.71,47.66ZM44,78.46v0Zm17.51-32.2c5.3-3.5,10.6-7.1,15.9-10.6-6.3,3.5-12.6,6.8-18.9,10.3-2.8,1.6-5.6,3.4-8.4,5-1.9,1.1-4.6,2.1-5.3,4.4a5.9,5.9,0,0,0,1.9-.4C52.11,52.86,56.81,49.46,61.51,46.26Zm30.1-34.91c.8-.4,1.9-.3,1.7.7s-1.9,1.6-2.6,1.9a46.52,46.52,0,0,0-6.1,3.6c-4.2,2.8-8.3,5.8-12.8,8.2-1,.5-3.3,1.81-3.9.2-.3-.9.6-1.8,1.2-2.4a25.82,25.82,0,0,1,5.7-4.1c-1.6-1.7,3-4.2,4.1-4.9a122.74,122.74,0,0,0,11.3-9.2c-7.5,3.7-14,9-21.1,13.3-.8.5-3,2-3.6.6-.4-1.1,1.3-2,2-2.5,3.5-2.6,6.8-5.4,10.3-8.2-4.7,2.9-9.5,5.7-14.1,8.8-.8.5-6.9,4.4-6.2.9.4-2.2,4.2-3.7,5.9-4.7a71.56,71.56,0,0,0,12.4-8.5,70.23,70.23,0,0,0-10.9,7.1c-3.4,2.5-6.7,5.3-10.6,6.9-1,.4-3.4,1.1-3.1-.8.2-1.2,2.2-2,3-2.6,3.6-2.6,6.8-5.5,10.1-8.4-2.6,1.7-5.3,3.3-7.9,5-2,1.3-3.9,3.1-6.2,3.7-.7.2-1.8.4-2.1-.5-.2-1.1,1.2-2,1.9-2.5,2.2-1.8,4.5-3.6,6.8-5.4-2,1.3-4,2.6-5.9,4-.8.6-2.5,2.4-3.6,1.3-1.4-1.4,2.2-3.7,3.1-4.5-.9.5-2.5,1.8-3.5.9-1.2-1,.4-3,.6-4.2,0-.8-.3-3.6,1.5-2.3,1.4,1-.3,3.8-.6,4.9a55,55,0,0,0,5.7-3.6c.9-.7,2.2-2.2,3.5-2.1,3.1.3-3.9,5.6-4.4,6.1,1.2-.9,8-6.9,9.3-4.2.6,1.3-2.2,3.1-2.9,3.6-1.9,1.6-4,3.1-6,4.6a104.71,104.71,0,0,0,10-6.3c1-.8,3.9-3.7,5.2-2.1s-2.2,3.8-3.1,4.6c-3.2,2.5-6.2,5.2-9.3,7.7,3.8-2.4,7.5-4.9,11-7.5,2.7-2,5.3-4.7,8.7-5.3,1.2-.2,2.5,0,2.1,1.5S76.11,7,75,7.75c-3.6,2.4-7.1,4.8-10.7,7.2,6.4-3.8,12.3-8.5,19-11.8.6-.3,2-1.1,2.6-.5,1.1.9-1,2.3-1.6,2.7-3.1,2.7-6.4,5.2-9.6,7.7,4.4-2.9,8.6-6.2,13.3-8.6,1.4-.8,6.8-2.6,4.5.9-1.7,2.7-4.9,4.8-7.4,6.7-2.2,1.7-4.6,3.2-6.7,4.9a101.5,101.5,0,0,0,11.2-7.2c1.2-.9,2.6-2.5,4.2-2.7s1.9,1.2.8,2.2A32.12,32.12,0,0,1,91.61,11.35ZM70.11,47c-4,2.4-8.2,4.6-11.7,7.6a13.5,13.5,0,0,0,2.6-1.5C64.11,51.16,67.11,49.06,70.11,47Zm-5.7,32.6c5.2-3.2,10.8-5.8,15.2-10.1-1,.5-1.9,1.1-2.9,1.7C72.51,73.86,68.51,76.76,64.41,79.56Zm1.3-39.4,11.1-6c3.1-1.8,6.4-3.5,9.2-5.91C78.81,31.45,72.41,36.06,65.71,40.16Zm4.4-15.51c6-2.6,11.5-7,16.9-10.6C82.11,17.35,74.81,20.15,70.11,24.65Z"/><path class="cls-2" d="M108,35.56a10.09,10.09,0,0,0,.7-1.5l.3-.6-.3-.3c.1-.71,0-.8.6-1.21.9-.6,1.8-.5,1.8.61s-1.2,2.8-1.7,3.7c1.8-1.1,3.6-2.2,5.5-3.3.6-.4,2-1.61,2.8-1.3,2.4.9-4.4,6.8-5.1,7.5,3.6-2.3,7.2-4.9,11-7,.7-.4,2.6-1.71,3.4-.71s-.7,1.81-1.3,2.31c1.3-.8,4.9-3.6,6.7-3,2.3.69-1.3,3-2,3.5-2.4,1.9-5,3.8-7.5,5.7-2.1,1.7-4.7,3.4-6.4,5.6a24.32,24.32,0,0,0,6.2-3.2c2.3-1.3,4.5-2.7,6.7-4.2,3.3-2.2,6.5-4.7,9.9-6.81,1.1-.59,2.41-.59,1.8,1.1s-2.9,3-4.2,4c-3.8,3-7.8,5.7-11.6,8.8,9.2-4.9,17.91-10.6,26.71-16.1-1,.6-3.7,2.5-4.9,1.6a.83.83,0,0,1-.3-1.31,9.22,9.22,0,0,1,2.7-2c1.5-1.1,3-2.2,4.6-3.2,6.6-4.7,13.4-9.3,19.9-14.2-8.5,4.7-16.2,10.8-24.7,15.4-1,.5-3.5,1.3-2.5-.9.6-1.4,2.8-2.6,4-3.6,4.2-3.1,8.6-6,12.8-9-4.3,2.7-8.5,5.6-12.7,8.5-2.1,1.4-4.1,2.8-6.2,4.1a21.36,21.36,0,0,1-5.41,2.8c-.9.21-2.1.21-2.1-1.1-.1-1,1.1-2,1.8-2.6a43.2,43.2,0,0,1,5.71-4.6c4.1-3,8.3-5.8,12.5-8.6-6.4,3-12.21,7.2-18,11.1-2.5,1.7-5,3.4-7.5,5-.8.59-3.4,3-4.4,1.59-2-2.7,12.91-11,14.7-12.1,5.21-3.2,10.71-6.3,15.61-10.1-10.6,5.9-20.21,13.4-30.71,19.6a34.53,34.53,0,0,1-6.4,3.3c-1.2.4-3.6.21-2.4-1.4a6.23,6.23,0,0,1,1.8-1.4c1.1-.9,2.3-1.7,3.4-2.6,2.7-2,5.4-4,8-6-1.3.9-14.5,10-15.4,8.3-.6-1.2,2-2.5,2.5-2.9,3.1-2.3,6.2-4.6,9.2-7-1.9,1.2-3.9,2.4-5.8,3.5-.9.5-2.8,1.9-3.9,1.6-2.4-.7,2-4.7,2.6-5.5-.8.6-2.6,2.1-3.6,1-.5-.5-.2-1.7-.2-2.4-1.1.5-1.2-.8-.7-1.4a2,2,0,0,1,1.1-.6c1.8-.4,1.2,1.8,1.2,2.9,1-.5,4.9-4.1,5.9-3.1,1.4,1.3-3.3,5.7-4.1,6.6,2.7-1.4,5.3-3.1,7.8-4.7,1.1-.8,2.3-1.5,3.4-2.2.3-.3.9-.9,1.4-.8,1,0,1,.9.7,1.7-1,2.2-4.2,4.1-5.9,5.5,3.4-2.1,6.7-4.5,10.4-6.2,1.2-.5,3.31-.4,2,1.2a31.66,31.66,0,0,1-3.6,2.8l-4.7,3.5c-3.2,2.4-6.4,4.8-9.7,7.2,8.9-4.3,17.1-10.5,25.41-16a93.7,93.7,0,0,1,10.9-6.7c1.7-.8,3.5-.2,2,1.9-1.3,1.8-3.7,3.1-5.5,4.3.8-.5,7.4-3.7,6.5-.5-.2.5-1.2,1-1.5,1.3-1.4.9-2.7,1.8-4,2.7-3,2-6,4-9,6.1-2.5,1.9-5.41,3.7-7.41,6.1,4.51-1.7,8.61-5.1,12.51-7.8,4.3-2.9,8.5-5.9,12.9-8.5.9-.5,4-2.5,4.7-.8.4,1.3-2,2.6-2.7,3.1-4.3,3.2-8.7,6.1-13,9.2,2.5-1.5,23.3-16.1,24.7-13.4.6,1.2-1.8,2.6-2.6,3.2-2,1.6-4.1,3.1-6.2,4.6-4.5,3.2-9,6.4-13.6,9.6,5.2-3.5,10.3-7.1,15.5-10.5a79.68,79.68,0,0,1,7.3-4.5,15.11,15.11,0,0,1,2.9-1.3c.6-.2,2.9-.1,2.1,1.2-.4.7-.7.2-1.2.2a5.78,5.78,0,0,0-1.7.6,20.9,20.9,0,0,0-2.9,1.6c-2.5,1.5-5,3.1-7.4,4.7-5.1,3.5-10.1,7-15.3,10.3,6.8-4.2,13.6-8.4,20.6-12.4,1.2-.7,5.9-4.2,7.3-2.7,1,1.1-1.1,2.2-1.5,3-.3.5-.3,1.5-.6,2.1-.4.8-.8,1.5-1.2,2.3.6-.4,1.7-1.3,2.5-1a.82.82,0,0,1,.5,1.2,15,15,0,0,1-2.2,1.1c-.7.5-1.7,1.6-2.5,1.8-3.1.8.9-4.9,1.2-5.6-4.5,2.9-9,5.9-13.5,8.7.9-.3,3,0,2.1,1.41-.3.59-1.8,1.09-2.4,1.5,1-.5,2.7-1.31,3.6-.5.7.69.3,1.5-.3,2.1-1.7,2.1-5,3.6-7.3,5-4.9,2.9-10.5,5.5-14.7,9.3,5.8-2.5,11.1-6.2,16.5-9.5,4.7-2.9,9.4-6,14.2-8.91.5-.3,1.2-.9,1.8-.8,1.2.4.5,1.6-.1,2.2-2,2.21-5.1,3.81-7.6,5.41-5.1,3.4-10.5,6.5-15.4,10.2a106,106,0,0,0,12.5-7.5c4.2-2.6,8.4-5.3,12.6-7.81,1-.6,5.8-4.6,6.7-3.1.3.5-.1.8-.4,1.1-1,1.1-3.2,2-4.4,2.81,1-.5,4.4-2.21,5.1-.41a.8.8,0,0,1-.3,1.1c-.5.31-.6-.19-1-.19a8.2,8.2,0,0,0-2.3.5,82.08,82.08,0,0,0-12.3,7c-4.1,2.6-8.1,5.4-12.1,8.1-1.7,1.1-3.3,2.3-5,3.4-.5.4-1.2,1-1.8.3.1,2.2-3.9,4.3-5.5,5.4-3,2.1-6.21,4-9.31,5.9,5.2-2.9,10.21-5.9,15.21-9.3,4.7-3.2,9.5-6.4,14.3-9.6,4.4-2.9,8.9-5.8,13.5-8.4a46,46,0,0,1,5-2.41c1-.29,4.8-1.1,4,1.21,1.1-.1,1.4.7,1,1.5-.6,1.4-2.5,2.7-3.6,3.7,1,.2,1.2,1.6,1.5,2.4,1.4-1.1,1.8,1.5-.1,1.9-1.3.2-1.5-1.5-1.9-2.6-.4.3-6,4.9-5.5,2,.1-.7,1.3-1.4,1.7-1.8,1.5-1.4,3-2.9,4.5-4.3-5.1,2.9-9.7,6.8-14.9,9.6,1.4,1.4-1.3,3.2-2.2,3.9,1-.5,3.9-2.6,5.1-2,1.3.8.1,1.9-.5,2.5-3.7,3.6-7.9,6.7-11.8,10,1.3-.9,12.9-9.9,13.8-7.2.4,1.4-2.5,3.1-3.3,3.7-2.4,2.1-5,4.2-7.4,6.4,2.6-1.7,5.1-3.5,7.6-5.2,1.2-.7,4.5-3.4,6.1-2.6,1.8.9-.8,2.9-1.5,3.5-2.2,1.9-4.5,3.6-6.8,5.3,2.3-1.5,4.7-2.9,7.1-4.3.6-.3,1.6-1.2,2.4-1.1s1.1.9.5,1.6a17.25,17.25,0,0,1-2.4,1c-1,.6-1.9,1.2-2.8,1.7-2.3,1.4-4.6,2.9-6.9,4.3-1,.6-3.9,3-5.1,2.6-1.5-.5-.1-1.9.6-2.5,3.6-3.5,8-6.2,11.9-9.4-2.8,1.6-5.5,3.5-8.2,5.3-1.2.9-2.5,1.7-3.8,2.5-.6.4-1.8,1.4-2.6,1.1-2.2-.6,1.3-3.6,2-4.2,2.5-2.4,5.3-4.6,7.9-6.9-3.7,2.4-7.2,5.1-11,7.6-1.1.7-3.2,2.5-4.7,2.4-.9-.1-1.3-.7-1-1.5s1.6-1.3,2.2-1.8c1.5-1.2,3-2.5,4.6-3.7,3.3-2.7,6.6-5.4,9.8-8.2-5.2,2.8-10.2,6-15.1,9.2-1.3.8-9.7,7.2-10.9,5.6-1.9-2.5,10.4-8.9,11.9-9.8,4.2-2.5,9.5-4.9,12.9-8.5a33.22,33.22,0,0,0-6.7,3.6c-2.4,1.6-4.8,3.1-7.2,4.7-4.4,3-8.8,6.1-13.3,8.9a23.55,23.55,0,0,1-2.71,1.5,7.37,7.37,0,0,1-1.4.4c-.2,0-.5-.2-.6-.2-1.1.4-2.5,2-3.4,2.7-4.3,3.3-8.7,6.5-12.7,10.1,4.1-2.6,8.3-5.9,12.8-7.8,1.8-.8,3.1.1,1.8,1.9s-3.6,3.3-5.4,4.6c.9-.5,6.2-5,7.2-3.6,1.1,1.7-4.8,5.8-5.7,6.6,2.4-1.5,4.9-3.1,7.4-4.5.81-.5,2.91-1.4,2.31.5a3.26,3.26,0,0,1-1.41,1.2c-1,.9-2,1.6-3,2.4-2.7,2.1-5.3,4-7.7,6.2,3.6-2.1,7.1-4.3,10.7-6.6,1.81-1.1,3.61-2.2,5.41-3.2.7-.4,2.4-1.7,3.2-1,1.5,1.4-4.2,4.3-4.9,4.8a88.21,88.21,0,0,0-10,7.3c6.21-3.5,11.71-7.9,17.81-11.5,1-.6,2.5-1.7,3.7-1.6s1.3,1,.9,1.9c-.7,1.3-2.4,2.4-3.5,3.2-1.5,1.2-3,2.2-4.6,3.3,2.9-1.9,5.7-3.9,8.5-5.8.9-.5,3.7-2.9,4.7-1.6,1.4,1.8-10.6,9.4-12,10.6,4.1-2.7,8.3-5.4,12.5-8,2.1-1.4,4.3-2.7,6.5-3.9,1.3-.7,3.7-2.4,5.3-2,3,.8-2.7,3.9-3.2,4.3-4.3,2.8-8.6,5.6-12.8,8.5,2.9-1.8,5.8-3.7,8.8-5.4,1.4-.8,5.5-3.8,7.1-2.4,1.3,1.3-1.4,2.7-2.2,3.3-2.8,2.1-5.8,4-8.7,6,2.3-1.4,4.5-2.8,6.8-4.3a39.19,39.19,0,0,1,5.6-3.3c1.5-.6,2.3.3,1.4,1.7-1.3,1.9-3.6,3.4-5.3,4.8.6-.3,3.2-2.5,4-1.3.6,1-1.1,3.3-1.5,4.1.6-.3,2.7-1.8,2.7-.2,0,.9-1.8,1.5-2.4,1.9s-2.1,1.6-2.7.6,1.2-3.4,1.5-4.2c-.9.6-7.6,5.5-8,3.4-.2-1.1,2-2.6,2.7-3.2,1.7-1.5,3.4-2.9,5.1-4.4-3.5,2.1-6.8,4.4-10.3,6.6-1.1.7-6.2,4.8-7.6,3.5-1.7-1.5,4.9-5.5,5.9-6.1,3.2-2.2,6.5-4.4,9.6-6.7a88.38,88.38,0,0,0-12.1,7.3c-1.7,1.1-3.4,2.3-5.1,3.4-.7.5-2.1,1.9-3,2-1.9.2-.5-2.3.1-3a38.35,38.35,0,0,1,4.8-4.1c4-2.8,8.1-5.5,12.3-8.3-6.8,4-13.2,8.4-19.8,12.6-.8.4-4.6,3.3-4.4.7.1-1.3,2.2-2.7,3.2-3.4a39,39,0,0,1,4-3.1c-3.4,2.2-6.7,4.6-10.31,6.5-1,.5-3.4,1.9-4.3.7-.4-.6-.1-.9.3-1.4.9-1.1,2.8-2,4.11-2.8,1.6-1.1,3.3-2.2,4.9-3.2,3-2.1,6.1-4.1,8.9-6.5-5.6,2.9-10.6,6.8-15.8,10.1-1.11.8-4.91,3.9-6.41,3.1-2.1-1.2,1.7-4,2.5-4.6-1.1.6-6.9,5.2-8,3.5s4.2-5.3,5.2-6.2c-.6.4-6.3,4.4-6.4,2,0-.7,1.1-1.3,1.5-1.6l4.8-4.2a69.81,69.81,0,0,1-7.9,4.9c-.9.3-4,1.1-2.9-.9.3-.5,1.3-1,1.8-1.4,1.3-.9,2.6-1.9,3.9-2.8a66,66,0,0,0,7.2-5.6c-3.2,1.8-6.3,3.9-9.5,5.9-1.3.9-2.6,1.7-4,2.6-.6.3-1.7,1.3-2.5,1-2.5-.9,3.5-5.6,4.2-6.2,3-2.5,6.1-4.9,9.2-7.3-3.7,2.2-7.2,4.5-10.7,6.8-.9.6-2.4,2-3.4,2.1s-1.4-.8-1.1-1.7c-1.6.2-2.9-.7-1.7-2.2a15.33,15.33,0,0,1,3.8-2.9c3.3-2.1,6.6-4.1,10-6.1,6.7-4,14-7.7,20-12.7-9,4.9-17.81,10.5-26.61,15.8-1.6.9-3.2,1.9-4.8,2.8-.6.3-1.9,1.4-2.6.8-2-1.5,6.4-7,7.4-7.8-1.4.9-4.2,3.1-6,2.9-1-.1-1.4-.7-1-1.6.6-1.2,2.6-2.4,3.6-3.3,1.7-1.6,3.5-3.2,5.2-4.9-.6.4-2.5,1.8-3.1.6-.5-1,1-1.2,1.7-1.6a46.54,46.54,0,0,0,4.1-2.6,3.5,3.5,0,0,1,1.7-.9c2.3.4-1.7,4.1-2.1,4.6-2.5,2.4-5.1,4.7-7.6,7,4.4-2.2,8.5-5.3,12.6-8,.9-.6,9.1-6.7,9.51-4.3.09.7-1,1.3-1.41,1.6-1.9,1.4-3.8,2.8-5.7,4.1-4.3,3.1-8.6,6.2-12.8,9.4,6-3.5,11.9-7.1,17.9-10.7,2.6-1.5,5.11-3,7.71-4.4,1-.6,4.4-3.2,5.4-2,0-1,1-1.8,1.7-2.4-.8.2-2.2.3-2.2-.8s1.8-2.2,2.5-2.8c-2.7,1.7-5.8,3.9-9,4.7-1.31.4-2.5-.3-1.6-1.9.7-1.3,2.5-2.3,3.7-3.2,6-4.1,13-7,18.7-11.7-3.2,1.2-6.2,3.3-9.1,5.2s-5.9,3.9-8.9,5.9c-2.3,1.5-4.5,3.3-7,4.6-.61.3-1.5.8-2,0-.81-1.2,1.09-2.7,1.89-3.4-2.2,1.5-4.8,3.8-7.4,4.7-2.4.8-1.6-1.6-.4-2.7,4.4-4.2,10.41-7.2,15.61-10.4,3-1.8,6-3.61,9-5.51a20.64,20.64,0,0,1,1.9-1.1c.7-.4,2.2-1,2.6-1.6.2-.3-.1-.7.3-1s1.2-.1,1.6-.2c1.4-.4,2.9-1.8,4.1-2.5,1.5-.9,2.9-1.8,4.3-2.7a75.87,75.87,0,0,0,6.5-4.6c-5.5,2.8-10.7,6.1-16,9.3C154.11,29.76,144,36.16,133.8,42.16c-1.9,1.2-3.7,2.3-5.6,3.3-1.3.7-4.1,2.9-5.6,2.6-1.9-.4-.1-2.4.6-3.1,2.2-2,4.7-3.7,7.1-5.5-1.6,1.1-14.7,10.3-15.7,6.8-.5-1.9,3.8-4.7,5-5.7,2.5-2.1,5.1-4,7.7-5.9-5.5,3.1-10.9,6.6-16.3,10.1-.7.4-2.7,2.1-2.9.3-.1-.8,1.5-1.7,2-2.1l4.2-3c-.8.5-4.3,3.5-5.2,2-1.1-1.7,4.1-5.7,5.1-6.7-1.3.8-2.7,1.7-4.1,2.5-.7.4-1.6,1.2-2.5,1C106.3,38.26,107.7,36.16,108,35.56Zm19.7,30.7c-3.2,2-6.7,3.8-9.6,6.2,2.3-.4,4.1-2.5,6-3.8Zm5.9-42.91a23.26,23.26,0,0,0,2.6-1.7C135.4,22.25,134.5,22.75,133.6,23.35Zm28.31,25.41-11.7,6.3c-3.8,2.2-7.4,4.9-11,7.3,1.6.7,4.21-1.4,5.51-2.2C150.61,56.46,156.11,52.46,161.91,48.76ZM147.61,4.45c-1,.6-3.8,3.3-5.11,2.8-1-.4-.5-1.9-.4-2.7.11-.3.11-.7.21-1a.77.77,0,0,1-.51-.2c0-.4-.3-.6-.09-1s1.19-.9,1.5-.8c1.5.2.6,2.7.5,3.6,1.1-.8,5.8-5,7.1-3.5s-3.7,5.7-4.6,6.7c3.3-2.1,6.6-4.7,10.1-6.4,1.1-.5,2.7.1,1.3,1.2-1,.8-2.5,1.4-3.7,2.2-1.8,1.1-3.6,2.3-5.5,3.5-1.5.9-3.1,2.2-4.81,2.7-2.3.8-1.6-1.1-.6-2.2C144.5,7.75,146.1,6.15,147.61,4.45Zm5.6,31.61c-2.7,1.7-5.3,3.4-7.8,5.2C148,39.56,150.61,37.76,153.21,36.06Zm9.3,10.5c5.3-2.9,10.5-5.7,15.7-8.7,3.6-2,7.7-4,10.7-6.8-3.5.39-7.1,3.1-10,4.9-3.9,2.3-7.6,4.7-11.3,7.2C165.91,44.26,164.21,45.36,162.51,46.56Z"/><path class="cls-2" d="M255.1,79.16c.7-.5,3.8-2.7,3.4-.3a12.23,12.23,0,0,1-1.7,2.9c1.1-.9,2.1.2,1.1,1.1a8.41,8.41,0,0,1-2.6,1.5c-2.8,1-.3-2.7.2-3.6-.9.6-6.4,5-7.2,3-.4-1,1.2-2,1.8-2.4,1.6-1.5,3.4-2.9,5-4.4-1.5,1-12.1,9-13.2,6.5-.8-1.6,3.4-4.5,4.5-5.4l7.5-6.3c-6.8,3.5-12.8,8.4-19.5,12.2-.9.5-3,1.1-2.2-.8.4-1,2.2-1.9,3.1-2.5,1.5-1.1,3.1-2.2,4.7-3.3-1.2.7-4.3,2.8-5.7,1.9s.2-2.4,1-3.2c3.1-3.1,7-5.7,10.7-8.3-1.4.9-12.7,9.6-13.8,7.7-.8-1.5,3.7-3.9,4.6-4.6,2.9-2.1,5.9-4.2,8.7-6.5-1.3.8-10.6,7.8-11.8,5.7-.3-.5,0-.8.2-1.1.9-1.6,3.2-3,4.5-4.2-1,.7-4.7,3.7-6.1,3-1.7-.8,1-4.8,1.5-5.8-1.1.3-1.1-.9-.6-1.4.2-.3.6-.4.9-.6.6-.3,1.9-1.3,2.3-.2.2.5-.3,1.1-.5,1.5-.7,1.5-1.5,3-2.2,4.5,2-1.1,3.8-2.3,5.6-3.5.7-.4,2.2-1.8,3-1.7,3.1.2-3.2,5.8-3.8,6.3,3.5-2.1,6.9-5,10.6-6.7.9-.4,2-.3,1.7,1.1s-2.4,2.7-3.4,3.6c1.2-.8,7.7-5.7,9.1-3.7,1,1.4-2.5,2.9-3.3,3.4-5.7,4-12.3,7.9-17.2,13,3.5-1.4,6.6-3.7,9.7-5.7s6.1-4.1,9.2-6.1c.8-.5,4.4-3.4,4.6-1.2.1,1.1-1.8,2.3-2.5,2.8-1.4,1.1-2.8,2.2-4.3,3.2,1-.5,4.2-2.6,4.9-.8.3.9-1.1,1.8-1.6,2.3-3.7,3.2-7.6,6.2-11.1,9.6,3-1.7,5.8-3.7,8.7-5.6,1-.7,4.5-3.8,5.7-2.4C260.1,75.56,256.2,78.16,255.1,79.16Z"/><path class="cls-2" d="M297.6,79.16c.7-.5,3.8-2.7,3.4-.3a12.23,12.23,0,0,1-1.7,2.9c1.1-.9,2.1.2,1.1,1.1a8.41,8.41,0,0,1-2.6,1.5c-2.8,1-.3-2.7.2-3.6-.9.6-6.4,5-7.2,3-.4-1,1.2-2,1.8-2.4,1.6-1.5,3.4-2.9,5-4.4-1.5,1-12.1,9-13.2,6.5-.8-1.6,3.4-4.5,4.5-5.4l7.5-6.3c-6.8,3.5-12.8,8.4-19.5,12.2-.9.5-3,1.1-2.2-.8.4-1,2.2-1.9,3.1-2.5,1.5-1.1,3.1-2.2,4.7-3.3-1.2.7-4.3,2.8-5.7,1.9s.2-2.4,1-3.2c3.1-3.1,7-5.7,10.7-8.3-1.4.9-12.7,9.6-13.8,7.7-.8-1.5,3.7-3.9,4.6-4.6,2.9-2.1,5.9-4.2,8.7-6.5-1.3.8-10.6,7.8-11.8,5.7-.3-.5,0-.8.2-1.1.9-1.6,3.2-3,4.5-4.2-1,.7-4.7,3.7-6.1,3-1.7-.8,1-4.8,1.5-5.8-1.1.3-1.1-.9-.6-1.4.2-.3.6-.4.9-.6.6-.3,1.9-1.3,2.3-.2.2.5-.3,1.1-.5,1.5-.7,1.5-1.5,3-2.2,4.5,2-1.1,3.8-2.3,5.6-3.5.7-.4,2.2-1.8,3-1.7,3.1.2-3.2,5.8-3.8,6.3,3.5-2.1,6.9-5,10.6-6.7.9-.4,2-.3,1.7,1.1s-2.4,2.7-3.4,3.6c1.2-.8,7.7-5.7,9.1-3.7,1,1.4-2.5,2.9-3.3,3.4-5.7,4-12.3,7.9-17.2,13,3.5-1.4,6.6-3.7,9.7-5.7s6.1-4.1,9.2-6.1c.8-.5,4.4-3.4,4.6-1.2.1,1.1-1.8,2.3-2.5,2.8-1.4,1.1-2.8,2.2-4.3,3.2,1-.5,4.2-2.6,4.9-.8.3.9-1.1,1.8-1.6,2.3-3.7,3.2-7.6,6.2-11.1,9.6,3-1.7,5.8-3.7,8.7-5.6,1-.7,4.5-3.8,5.7-2.4C302.6,75.56,298.7,78.16,297.6,79.16Z"/><path class="cls-2" d="M340.1,79.16c.7-.5,3.8-2.7,3.4-.3a12.23,12.23,0,0,1-1.7,2.9c1.1-.9,2.1.2,1.1,1.1a8.41,8.41,0,0,1-2.6,1.5c-2.8,1-.3-2.7.2-3.6-.9.6-6.4,5-7.2,3-.4-1,1.2-2,1.8-2.4,1.6-1.5,3.4-2.9,5-4.4-1.5,1-12.1,9-13.2,6.5-.8-1.6,3.4-4.5,4.5-5.4l7.5-6.3c-6.8,3.5-12.8,8.4-19.5,12.2-.9.5-3,1.1-2.2-.8.4-1,2.2-1.9,3.1-2.5,1.5-1.1,3.1-2.2,4.7-3.3-1.2.7-4.3,2.8-5.7,1.9s.2-2.4,1-3.2c3.1-3.1,7-5.7,10.7-8.3-1.4.9-12.7,9.6-13.8,7.7-.8-1.5,3.7-3.9,4.6-4.6,2.9-2.1,5.9-4.2,8.7-6.5-1.3.8-10.6,7.8-11.8,5.7-.3-.5,0-.8.2-1.1.9-1.6,3.2-3,4.5-4.2-1,.7-4.7,3.7-6.1,3-1.7-.8,1-4.8,1.5-5.8-1.1.3-1.1-.9-.6-1.4.2-.3.6-.4.9-.6.6-.3,1.9-1.3,2.3-.2.2.5-.3,1.1-.5,1.5-.7,1.5-1.5,3-2.2,4.5,2-1.1,3.8-2.3,5.6-3.5.7-.4,2.2-1.8,3-1.7,3.1.2-3.2,5.8-3.8,6.3,3.5-2.1,6.9-5,10.6-6.7.9-.4,2-.3,1.7,1.1s-2.4,2.7-3.4,3.6c1.2-.8,7.7-5.7,9.1-3.7,1,1.4-2.5,2.9-3.3,3.4-5.7,4-12.3,7.9-17.2,13,3.5-1.4,6.6-3.7,9.7-5.7s6.1-4.1,9.2-6.1c.8-.5,4.4-3.4,4.6-1.2.1,1.1-1.8,2.3-2.5,2.8-1.4,1.1-2.8,2.2-4.3,3.2,1-.5,4.2-2.6,4.9-.8.3.9-1.1,1.8-1.6,2.3-3.7,3.2-7.6,6.2-11.1,9.6,3-1.7,5.8-3.7,8.7-5.6,1-.7,4.5-3.8,5.7-2.4C345.1,75.56,341.2,78.16,340.1,79.16Z"/><path class="cls-2" d="M382.6,79.16c.7-.5,3.8-2.7,3.4-.3a12.23,12.23,0,0,1-1.7,2.9c1.1-.9,2.1.2,1.1,1.1a8.41,8.41,0,0,1-2.6,1.5c-2.8,1-.3-2.7.2-3.6-.9.6-6.4,5-7.2,3-.4-1,1.2-2,1.8-2.4,1.6-1.5,3.4-2.9,5-4.4-1.5,1-12.1,9-13.2,6.5-.8-1.6,3.4-4.5,4.5-5.4l7.5-6.3c-6.8,3.5-12.8,8.4-19.5,12.2-.9.5-3,1.1-2.2-.8.4-1,2.2-1.9,3.1-2.5,1.5-1.1,3.1-2.2,4.7-3.3-1.2.7-4.3,2.8-5.7,1.9s.2-2.4,1-3.2c3.1-3.1,7-5.7,10.7-8.3-1.4.9-12.7,9.6-13.8,7.7-.8-1.5,3.7-3.9,4.6-4.6,2.9-2.1,5.9-4.2,8.7-6.5-1.3.8-10.6,7.8-11.8,5.7-.3-.5,0-.8.2-1.1.9-1.6,3.2-3,4.5-4.2-1,.7-4.7,3.7-6.1,3-1.7-.8,1-4.8,1.5-5.8-1.1.3-1.1-.9-.6-1.4.2-.3.6-.4.9-.6.6-.3,1.9-1.3,2.3-.2.2.5-.3,1.1-.5,1.5-.7,1.5-1.5,3-2.2,4.5,2-1.1,3.8-2.3,5.6-3.5.7-.4,2.2-1.8,3-1.7,3.1.2-3.2,5.8-3.8,6.3,3.5-2.1,6.9-5,10.6-6.7.9-.4,2-.3,1.7,1.1s-2.4,2.7-3.4,3.6c1.2-.8,7.7-5.7,9.1-3.7,1,1.4-2.5,2.9-3.3,3.4-5.7,4-12.3,7.9-17.2,13,3.5-1.4,6.6-3.7,9.7-5.7s6.1-4.1,9.2-6.1c.8-.5,4.4-3.4,4.6-1.2.1,1.1-1.8,2.3-2.5,2.8-1.4,1.1-2.8,2.2-4.3,3.2,1-.5,4.2-2.6,4.9-.8.3.9-1.1,1.8-1.6,2.3-3.7,3.2-7.6,6.2-11.1,9.6,3-1.7,5.8-3.7,8.7-5.6,1-.7,4.5-3.8,5.7-2.4C387.6,75.56,383.7,78.16,382.6,79.16Z"/><path class="cls-2" d="M444.1,55.86c-5.7,3-10.9,6.8-16.4,10.2-.5.3-1.4,1.1-2,1-.9-.2-.8-.9-.4-1.5a8,8,0,0,1,1.9-1.3c4.7-3.4,9.3-6.7,13.9-10.1l-10.5,6.9c-.7.5-2.2,2-3.2,1.6s-.2-1.7.3-2.3c2.9-2.9,7-4.9,10.3-7.1s7-4.2,9.8-7c-6,2.8-11.2,7.3-16.8,10.8-.6.4-5.5,3.5-4.9.6.2-.8,1.4-1.5,2-2,1.5-1.1,2.9-2.2,4.4-3.3-1.2.4-2.7-.1-1.7-1.4.3-.5,1-.8,1.4-1.2,1.8-1.5,3.7-3,5.6-4.5l9.3-7.4c-2.8,1.7-5.6,3.5-8.4,5.2-1.8,1.2-3.9,3-6,3.6-.9.3-2,0-1.4-1.1.2-.5,1.1-.8,1.4-1.1,1.3-.8,2.6-1.6,3.9-2.3-.9.3-3.1,1.2-3.7-.2-.3-.7.1-.9.5-1.3,1.5-1.4,3.7-2.4,5.4-3.5,2.2-1.3,4.3-2.7,6.5-4.1,7.9-5.11,16.4-10,23.5-16.31-8.9,4.4-17.1,10.2-25.6,15.41-1.6,1-3.3,2.1-5,3.1-.8.4-2.8,2.2-3.9,1.8-2.4-.9,4.2-4.2,4.6-4.4-1.2.4-3.4.3-2.8-1.6.4-1.3,2.3-2.31,3.3-3,2.7-1.91,5.6-3.61,8.4-5.31,5.4-3.1,11.3-5.9,16.1-9.8-5.9,2.3-11.4,6.4-16.7,9.9-2.7,1.7-5.4,3.5-8.1,5.21-1.9,1.19-4.2,3.29-6.4,3.89-.6.21-1.4.31-1.5-.6s1.2-1.4,1.7-1.79c2.3-1.71,4.7-3.21,7.1-4.81,5.6-3.7,11.4-7.3,16.6-11.5-5.7,3.6-11.5,7.2-17.3,10.7-2.9,1.7-5.8,3.4-8.7,4.9-1,.5-4.9,2.91-5.2.81-.3-1.81,3.7-3.81,4.9-4.71,2.9-2,5.9-4,8.9-5.9,5.4-3.4,10.8-6.7,16.1-10.1-8.2,3.6-15.8,9.4-23.2,14.4-.9.7-4.8,4.1-6,3.4-1.9-1.2,4.7-6.8,5.5-7.6-.8.6-4.7,3.6-5,1.1-.1-1.2.7-2.9.9-4.1-.5.3-2.5,1.7-2.5.1,0-.9,1.7-1.5,2.3-1.8,3.3-1.9,1.6,3.1,1.2,4.8,2-1.1,3.9-2.5,5.8-3.8.6-.4,2-1.6,2.6-.6s-.9,2.2-1.4,2.7c-1.6,1.7-3.3,3.3-5,5,5.7-3.9,11.3-7.7,17.1-11.3a79.9,79.9,0,0,1,7.1-3.8c.7-.3,5.7-1.7,4.2.8-.3.6-1.5,1.2-2,1.6-1.2.8-2.4,1.5-3.6,2.3-2.8,1.7-5.5,3.4-8.2,5.1-5.4,3.4-11,6.7-16.1,10.6,8.1-4,15.7-9.1,23.4-13.8,2.4-1.6,4.8-3.3,7.3-4.7.9-.5,1.8-.5,1.7.9-.1,1.6-2.5,3.2-3.6,4.1a27.37,27.37,0,0,1,6.4-3.2c2.4-.6,2.7,1.3,1.2,2.6,1.2-.7,4.9-3.8,6.5-2.9,1.9.9-.9,3-1.6,3.5,2.2-.5,1.3,1.9.5,2.7a36.39,36.39,0,0,1-6.1,4.9c1.5-1,5.5-4.3,7.5-3.7,3.2,1-2.6,5.2-3.4,5.8,2.6-1.5,3,0,2.2,2.1a.8.8,0,0,1,1.2,1c-.1.41-1.3,1.1-1.5,1.2-2.7,1.5-1.7-1.5-1.2-2.9-2.2,1.3-4.2,2.9-6.3,4.21-.7.4-2.3,1.4-2.5-.21-1.4,1-2.9,1.9-4.3,2.71a14.81,14.81,0,0,0-1.7,1.1c-.3.3.2.2-.2.7l-1.2.9c-2.2,1.8-4.3,3.5-6.5,5.2-3.8,3.1-7.5,6.1-11.3,9.1,3.9-2.2,7.6-4.7,11.3-7.1,1-.7,5.2-4.4,6.4-3.6,1.9,1.1-3.4,4-4.1,4.4-3.6,2.5-7.1,4.9-10.7,7.4,2.9-2,6-4.5,9.3-5.7,1.4-.5,3,0,2.1,1.8-.6,1.2-2.1,2.1-3.1,2.9.8-.3,3.4-.6,2.4,1.1-.2.4-.9.7-1.3,1-1.3,1-2.6,1.9-4,2.9.8-.4,2.3-1.4,3.2-1s.6,1.3.1,2c-1.3,2-4.2,3.6-6.2,5-4.6,3.4-9.5,6.5-13.8,10.3,5.2-2.8,10-6.4,15.1-9.6.8-.5,3.4-2.8,4.4-1.6s-2.4,3.4-3.2,3.9c1.1-.4,2.9-.3,2,1.3a12.67,12.67,0,0,1-1.3,1.1c-1.2,1-2.3,1.9-3.4,2.9,1.1-.4,2.2-.1,1.8,1.2-.5,1.6-2.2,3.4-3.2,4.8,1.1-.6,2.5,0,1.4,1.1a10.53,10.53,0,0,1-2.9,1.7c-3.1.4,1.8-6,2.2-6.7-1.6.9-3.1,1.9-4.7,2.9a10.19,10.19,0,0,1-3,2.1c-1.5.2-1-1.1-.2-1.9,2.2-2.1,4.7-4,7.1-6-2,1.3-3.9,2.7-5.9,4-.9.6-2.7,2.2-3.9,1.9-2.7-.9,3.1-4.4,3.6-4.8-1.5.9-3,1.9-4.6,2.8-.8.4-2.3,1.4-3.2,1.3-3-.5.9-3.8,1.7-4.4C432.4,64.06,438.6,60.36,444.1,55.86ZM437.4,40c5.8-2.9,11.1-6.9,16.4-10.51C448.4,33,442.9,36.46,437.4,40Zm.5-8.7c3.5-.81,7-3.61,9.8-5.51,3.8-2.4,7.5-5,11.2-7.6-6.6,4-13.7,7.3-19.8,12.11A9.63,9.63,0,0,0,437.9,31.26Zm4.7-21.81c1.4-1.8,3-3.4,4.5-5-.7.5-3.3,3.1-4.2,1.8-.6-1,.5-2.8.2-3.9-.1-.7-1-.7-.2-1.6.5-.6,1.5-.8,1.9-.2.5.8-.2,2.8-.2,3.7.7-.5,7.1-5.1,6.4-1.9-.2.9-1.5,1.8-2,2.4-1.4,1.5-2.8,2.9-4.1,4.4,3.1-1.9,6.2-4,9.4-5.9,1.1-.7,2.9-2.2,4.3-2.2,1,0,1.6,1,.6,1.6a6.58,6.58,0,0,1-1.5.4,23.92,23.92,0,0,0-2.1,1.3c-1.8,1-3.5,2.1-5.3,3.3-1.5.9-2.9,1.9-4.4,2.8-.9.6-2.3,1.8-3.5,1.9C440.8,12.15,442.1,10.15,442.6,9.45ZM476.8,38a51.72,51.72,0,0,0,5.9-3.6c.7-.4,2.1-1.91,3-2,1.3-.1,1.2,1,.7,1.8-1.1,1.7-3.6,3-5.1,4.2,1.9-1.3,3.7-2.6,5.7-3.8,1-.7,3-2.4,4.4-2.2,3.6.5-4,6.6-4.8,7.2,1.5-1,3.5-2.8,5.4-3.1.6-.1,1.4-.1,1.5.6.3,1-.6.8-1.1.9-3.4,1.3-6.4,4-9.4,6.1,2.4-1.6,4.9-3.2,7.4-4.6.6-.4,3.5-1.6,2.5.5-.3.6-1.3,1-1.8,1.4l-3.6,2.1c-2.6,1.6-5.1,3.1-7.7,4.6-5.8,3.5-11.6,7.1-17.3,10.8-2.7,1.7-5.3,3.5-7.9,5.5-1.2.9-5.3,3.3-5.3,5.1,1.6.3,3.3-.8,4.5-1.7,1.6-1.2,3.2-2.4,4.9-3.5,3.8-2.5,7.7-4.9,11.7-7.3,3.6-2.2,7.4-4.2,10.9-6.6,2.8-1.8,5.5-3.8,8.4-5.5.7-.5,3.1-2.3,3.8-.9.3.6-.1.9-.5,1.3a22.62,22.62,0,0,1-4,2.5c-1.4.8-2.9,1.7-4.3,2.5-6.9,4.1-13.3,8.9-20,13.2a96.09,96.09,0,0,1-8.7,5.3c-2.2,1.1-4.8,2.4-6.1,4.7,2.9-.7,5.3-2.5,7.7-4.1,2.8-1.9,5.7-3.7,8.6-5.6,5.7-3.5,11.5-6.8,17.1-10.5a50.66,50.66,0,0,1,6.7-3.9c.8-.3,2.8-2,3.8-1.6.8.3.4,1.1,0,1.5a7.26,7.26,0,0,0-.9.5c-.1.1,0,.4-.1.5s-.2.3-.3.4c-1.3,1.8-3.8,3.2-5.5,4.7-2.1,2-4.3,3.9-6.4,5.9,3.3-2,6.6-4.1,9.9-6.1.6-.3,4.6-3.4,4.7-1.3,0,1-2.3,2.1-2.9,2.5-3,2.2-5.9,4.3-8.8,6.6,2.1-1.3,4.2-2.7,6.3-4,1.5-1,3.2-2.4,5-2.9.5-.1,1.2-.3,1.5.3.6,1-.6,1.1-1.1,1.3a60.52,60.52,0,0,0-5.5,3.2c-3.5,2.2-7,5.2-10.8,6.8-1.2.4-2.4.1-1.7-1.3s2.8-2.7,4.1-3.7c-.9.5-3.3,2.4-4.5,2.1-.9-.2-.8-.9-.5-1.5.8-1.7,3.2-3.2,4.5-4.4,1.8-1.7,3.6-3.3,5.5-4.9-7.5,4.8-14.9,9.6-22.5,14.1,1.3-.2.9,1.1.5,1.8-1.5,2-3.9,3.6-5.8,5.3,1.9-1.2,4-2.8,6.1-3.5,1.6-.5,2.5.3,1.7,1.7-.9,1.8-3,3.3-4.5,4.6s-2.9,2.7-4.3,4c1.4-.2,2.8-1.7,4-2.5,1.6-1,3.3-2,4.9-3,3.8-2.2,7.8-4.4,11.7-6.5,6.3-3.5,12-7.9,18.2-11.7.9-.5,3.8-1.7,2.8.7-.5,1.2-2.2,2.1-3.2,2.7-1.3.9-2.7,1.7-4.1,2.5-3.1,1.8-6.4,3.4-9.5,5.4s-6.4,4.2-9.6,6.3c-2.8,1.8-5.7,3.5-8.7,5.2-2,1-5.4,1.7-6.5,3.8,1.3.1,2.8-.7,4-1.2,1.9-.9,3.8-1.9,5.6-2.8,3.8-2.2,7.5-4.7,11.2-7.1,6.6-4.1,13.2-8.3,19.6-12.6,1.2-.8,2.3-1.6,3.4-2.4.4-.2,1-.8,1.5-.7,2.8.3-2.2,3.9-2.7,4.2-6.3,4.2-12.9,8.1-19.3,12.2-3.2,2-6.5,4-9.7,5.9-2.3,1.4-5.9,3.4-7.2,5.8,1.8-.1,3.7-1.5,5.3-2.4q3-1.65,6-3.6l11.1-7.5c3.6-2.5,7.3-5.1,11.1-7.4a21.35,21.35,0,0,1,4.2-2.3c1.1-.4,3.2-.2,2.3,1.5a10,10,0,0,1,3.6-1.4c1.6-.2,1.8.5,1.9,1.8-.3.3-.3.5,0,.7a.31.31,0,0,1,.1.2,2,2,0,0,1-.2,1.1,13.65,13.65,0,0,1-1.7,1.7c.5-.3,5.4-2.7,4.2-.1-.3.7-1.4,1.2-1.8,1.6-1.4,1.2-2.8,2.3-4.2,3.5.9-.6,6.6-4.8,7.1-2.3.2.9-1.3,2.1-1.9,2.6-1.6,1.6-3.4,3.1-5.1,4.5,1.2,1-2.9,3-3.5,3.4-.6.2-1.8.6-1.9-.3s1.7-2,2.3-2.5c2.2-1.9,4.4-3.7,6.5-5.7-2.8,1.6-5.4,3.4-8.1,5.1-.8.6-3.1,2.8-4.1,1.7-.8-.9,1.1-2.2,1.6-2.7,2.4-2.1,4.8-4,7.3-6-2.4,1.4-4.7,2.9-7.1,4.4-.7.5-2.9,2.6-4,2.4-1.6-.4-.3-1.7.3-2.1,2.1-1.7,4.3-3.3,6.4-4.9-2.8,1.8-5.7,3.6-8.6,5.3,1.9,1.2-3.8,4.8-4.5,5.3,2.4.3-1,2.2-1.3,2.4-1.5.9-3,1.8-4.5,2.6-.7.4-2.5,1.4-2.3-.4.1-.6,1.4-1.3,1.8-1.7,1.3-1,2.6-2,3.9-2.9-1.3.8-10.8,8.4-12.1,6.1s7.9-6.8,9.4-7.7c4.1-2.4,7.8-4.8,11.7-7.3,2.2-1.4,4.4-2.9,6.7-4.3,1.9-1.1,4.6-2.1,5.9-3.9-4.1.8-8.1,4-11.6,6.1-4.2,2.7-8.4,5.4-12.6,8.2-3.6,2.4-7.2,4.8-10.9,7.1-1.3.8-3.2,2.4-4.7,2.5-1.3,0-1.6-1.1-.7-1.9-1,.5-2.6,1.4-3.8,1.1-1.7-.4-1.3-2-.5-3-1.5.7-3.3,1.7-5.1,1.7s-2.5-1.5-1.3-3c-2.5-.7.2-2.9,1.1-3.7,2.1-2,4.3-3.9,6.3-6a74.49,74.49,0,0,0-7.9,5c-.8.5-3.7,3.1-4.8,2.5-1.3-.9,1.1-2.7,1.7-3.2,2.2-2,4.5-4,6.7-6.1-2.4,1.5-4.9,3-7.3,4.5-.3.2-.9.8-1.4.8-1.3-.2-.8-1.7-.3-2.4-3.4,1-2.2-2.3-.8-3.8-1.5.1-2.4-.9-2-2.3s2.2-2.7,3.3-3.7c-.9.4-3.3,1.7-3.8,0-.4-1.3,1.8-2.6,2.6-3.2-.7.4-2.3,1.6-3.2,1.1s-.6-1.2-.1-1.9c1.7-2.5,4.9-4.6,7.2-6.6-.4.3-2.8,1.4-2.3-.4.2-.6,2-1.2,2.5-1.5,1.6-1,3.2-1.9,4.8-2.9.3-.2.8-.7,1.2-.7,2.7.1-1.8,3.9-2.1,4.1-2.7,2.4-5.4,4.7-8.1,7.1,4.6-2.7,8.9-5.7,13.3-8.5,1.2-.8,9.1-6.8,10-4.3.6,1.8-3.3,3.9-4.5,4.7-2.2,1.5-4.4,2.9-6.7,4.2-3.9,2.4-8.1,4.7-11.8,7.5a121.66,121.66,0,0,0,13.6-7.7c5-3,9.9-6.1,14.9-9.3-.8.4-2.5.7-2.2-.8.3-.9,1.9-1.8,2.6-2.3,3.5-2.9,7.4-5.6,10.6-8.9-4.2,2.5-8.1,5.6-12.4,8.1-.8.4-2.3,1.4-2.8.2s1.6-2.7,2.3-3.3c-3.4,1.4-.7-3.3-.7-4.3,0-.8-.8-1.7.7-2.1,1.3-.4,1.5.5,1.2,1.5A28.27,28.27,0,0,1,476.8,38Zm-20.5-7.61a1.44,1.44,0,0,1-.7-.19c-.4.29-.9.6-1.3.9-.8.5-1.5,1-2.3,1.5-1.6,1.1-3.1,2.2-4.7,3.3a17.61,17.61,0,0,1,2.3-1.4C451.8,33.06,454.1,31.76,456.3,30.35Zm-.8-7.9c4.5-2.8,9.1-5.7,13.4-8.9C464.2,16.25,459.9,19.45,455.5,22.45Zm4.4,33.21c3.2-2,6.5-3.9,9.5-6.1C466.2,51.46,463.1,53.56,459.9,55.66Zm10.6-35.31c.1,0,.2,0,.2.1l.3-.3C470.8,20.15,470.7,20.25,470.5,20.35Zm39.2,9.41c.9-.6,2.5-.91,2.2.69-.1,1.21-1.5,2.41-2.2,3.31A9.13,9.13,0,0,1,511,33c1-.1,1.5.6.8,1.4a10.68,10.68,0,0,1-2.7,1.6c-.8.4-2.3,1.6-2.6.2-.3-1.2,1.8-3.2,2.4-3.9-.9.5-3.1,2.7-4.3,2.3-.9-.4-.6-1.2-.2-1.8,1-1.6,2.9-2.91,4.3-4.31s2.9-2.7,4.3-4.2a115.3,115.3,0,0,0-10.2,6.2c-.6.4-4.5,3.81-5.2,2.21-.5-1.21,2.8-3.1,3.3-3.6,2.9-2.41,5.8-4.91,8.7-7.41-2.6,1.7-5.1,3.6-7.7,5.41-1.6,1.09-4.3,3.7-6.4,3.7s-1.3-1.6-.3-2.41c1.9-1.7,3.9-3.2,6-4.8a92.9,92.9,0,0,1-8.8,5.61c-.7.4-2.1,1.4-2.9,1s-.6-1.31-.1-2a12.61,12.61,0,0,1,3.1-2.5c1.5-1.1,3-2.1,4.5-3.1a73.49,73.49,0,0,0,7.8-5.6c-5.2,2.8-9.6,6.9-14.6,9.9-.9.5-2.4,1.6-3.5,1.3-.9-.3-1-1-.6-1.8.5-1,1.9-1.7,2.8-2.4,1.3-.9,2.6-1.8,3.9-2.6-2.6,1.6-5.1,3.4-7.9,4.8-1.3.7-3.2.3-1.8-1.2a73.37,73.37,0,0,1,6-5.1c-1.8,1.1-3.6,2.2-5.5,3.3-.7.4-2.3,1.7-3.2,1-1.7-1.5,4.9-5.9,5.7-6.6-.6.4-4.7,2.9-4.2.4.1-.4.9-.9,1.2-1.2,1.1-1,2.2-2,3.4-3-.7.5-2.3,2-3.2,1.6-1.4-.4-.1-2.8.2-3.6-1,.8-1.9-.2-1.1-1.2a8,8,0,0,1,2.2-1.3c2.5-.7.5,3,.2,3.7l3.9-2.4c.6-.3,1.7-1.2,2.4-1,2.2.6-1.7,3.7-2.1,4.2.8-.6,2.9-2.6,4.1-2.3.8.3.8.9.5,1.6-.5,1.1-2.1,2.2-3.1,3l-5.1,4.2c3-1.9,6-3.8,9-5.5.5-.3,1.5-1.1,2.2-.8,1,.4.3,1.1-.1,1.6-1.7,2.2-4.6,4-6.8,5.8,3.3-2,6.5-4.2,9.8-6.1.7-.4,2.2-1.6,3.1-1.2,1.2.7.1,2-.5,2.6,1.1-.7,3.6-2.7,4.9-1.8.9.6.4,1.6-.1,2.2-1.9,2.5-5.2,4.2-7.7,6,2.5-1.7,5-3.5,7.7-5,.6-.4,4.4-3,4.4-.8.1,1.2-2.2,2.3-2.9,2.9l-7.5,5.7c2.3-1.6,4.6-3.3,6.9-5,1.2-.7,4.7-3.6,6.1-2.6,1,.8,0,1.7-.6,2.3-1.9,1.7-3.9,3.4-5.9,5.1a26.58,26.58,0,0,1,6.4-3.5c1-.4,2.4-.1,1.8,1.3C514.2,26,511.7,27.85,509.7,29.76Zm-26.3,46.8c6.1-3.7,12.8-7.1,18.1-11.8-1.4.7-2.6,1.5-3.9,2.3C492.8,70.06,488.1,73.36,483.4,76.56Z"/><path class="cls-2" d="M528.4,39.66c-.7.4-4.1,1.9-3-.5.7-1.4,3.3-2.7,4.6-3.5-.9.3-3.1,1.5-3.8.3-.4-.9.5-1.6,1-2.1a66.35,66.35,0,0,1,8.2-5.51c-.9.5-3.7,2.1-4.2.4-.3-.9.8-1.69,1.4-2.19,2.9-2.81,6.1-5.21,9.2-7.71-.6.4-2.4.5-1.7-.8.3-.7,2.5-1.6,3.2-2s7.6-5.6,7.4-2.7c-.1.8-1.4,1.5-1.9,1.9-1.7,1.4-3.4,2.7-5,4.1-3.2,2.5-6.4,5-9.5,7.8,5.8-3,11.2-6.9,16.7-10.4,4.4-2.9,9-6.7,14-8.7,2.5-1,2.7,1,1.1,2.5A52.4,52.4,0,0,1,560,15c-10,6.5-20.6,12.11-30.3,19,10-4.71,19.3-11.11,28.6-17,3.7-2.4,7.5-4.8,11.3-7.1.8-.5,2.7-2.1,3.4-.9.6,1-1.5,2-2,2.4,1.1-.7,7.2-4.5,8.2-2.2.7,1.6-3.3,3.4-4.3,4-6,3.7-12.2,7.1-18.3,10.6-6.2,3.7-12.4,7.31-18.5,11.21q-3.6,2.25-7.2,4.8c-1.2.9-2.5,1.9-3.7,2.9-.5.5-2.1,1.7-2.1,2.6,2.2.4,5.3-1.7,7.1-2.7,2.7-1.4,5.3-3,7.9-4.6,5.7-3.5,11.3-7.2,16.9-10.9,5.3-3.51,10.5-7.11,15.8-10.51,1.2-.8,10.4-7.6,11.4-5.3,1-.5,3.9-2.5,5-1.3,1.2,1.4-1.5,3.3-2.3,4,.7-.5,4.4-3.7,5.4-2.4,1.3,1.8-4.6,5.3-5.6,6.1a51.91,51.91,0,0,1,6.5-3.7c.8-.4,3.1-1.1,2.7.7-.4,1.4-3.6,2.8-4.7,3.5-2.2,1.4-4.4,2.7-6.6,4-4.7,2.8-9.4,5.6-14.1,8.61-3.5,2.2-8,4.6-10.7,7.9,4.8-1.7,9.3-5,13.5-7.6,4.8-2.91,9.4-6,14.1-9,2-1.2,3.9-2.4,5.8-3.6,1.3-.8,3.2-2.5,4.8-2.7,1.2-.1,1.2.8,1,1.6-.4,1.6-2,2.7-3.2,3.7.6-.3,7.8-5,7-1.6-.2,1.1-2,2.1-2.8,2.8-1.7,1.4-3.5,2.7-5.2,4.1,2.6-1.7,5.1-3.4,7.8-4.9.9-.4,3.9-2.1,3.7.1-.1,1-1.7,2.1-2.4,2.8l-3.1,2.5c-2.4,1.9-4.8,3.71-7.1,5.6,2.6-1.69,5.1-3.5,7.6-5.2,1.2-.8,4.3-3.6,5.9-3.2,2,.5.3,2-.4,2.6-2.1,1.8-4.4,3.3-6.6,5,2.8-1.71,5.7-3.81,8.7-5,.6-.3,1.1-.6,1.5.2.5,1-1,2.31-1.7,2.91a106,106,0,0,1-9.9,7.8c1.2-.8,10-7.9,10.7-5.5.4,1.4-2.6,3.2-3.4,3.8-2.4,1.9-4.8,3.6-7.1,5.6,2.6-1.6,5.1-3.3,7.7-4.9,1-.6,4.2-3.3,5.3-2.3s-1.1,2.3-1.7,2.8c-2.5,2.2-5.1,4.3-7.7,6.4,2.2-1.4,5.1-3.9,7.7-4.3,1-.2,2,.3,1.6,1.5-.2.8-1.3,1.4-2,1.9-4.6,3.5-9.7,6.2-14.4,9.6,4.8-2.8,9.5-5.9,14.3-8.6.8-.5,3.4-2.1,3,.2-.2,1.5-2.8,3-3.8,3.8-9.1,7.1-18.9,13.3-28.6,19.6,6-3.1,11.7-7.2,17.2-11.1,4.6-3.1,9.2-6.9,14.3-9.2.8-.4,3.7-.8,2.7,1-.7,1.1-3.3,2-4.4,2.7-5.1,3.1-10.2,6.1-15.2,9.3-4.8,3.1-9.9,6.2-14.3,9.9,5.7-3.7,11.4-7.4,17.2-11,4.6-2.8,9.4-6.4,14.6-8,1.1-.3,3.4-.2,2.3,1.4a6,6,0,0,1-2.2,1.6c-1,.7-2.1,1.4-3.2,2.1-5.1,3.2-10.4,6.5-15.6,9.8-4.5,2.9-9.4,5.7-13.4,9.3,3.4-1.3,6.5-3.6,9.5-5.6,3.3-2.1,6.5-4.4,9.7-6.6a99.34,99.34,0,0,1,9.4-5.9c.8-.5,2.6-1.5,3.3-.2.5,1.1-1,2.2-1.7,2.8,1.2-.3,1.8.5,1.6,1.6-.2.9-1.2,1.7-1.8,2.3a69.51,69.51,0,0,1-6.1,4.6c.7-.5,4.5-3.5,4.8-1.2.1,1.2-2.4,2.5-3.2,3.1-1.3,1-2.7,1.9-4.1,2.8.4,0,.7.1.8.4.6.9-.4,1-.9,1.2a20,20,0,0,0-2.1,1c-2.9,1.7-5.7,3.6-8.5,5.4-1.3.9-2.7,1.7-4,2.5-1,.6-2.5,1.9-3.7,2-.8.1-1.5-.3-1.2-1.3.5-1.1,2.4-2,3.3-2.6-1,.5-3.6,2.5-4.9,2.1-1-.3-.8-1.2-.2-1.7,1.1-1.3,3.1-2.3,4.6-3.2,1.7-1.1,3.5-2.2,5.3-3.4,3.9-2.4,7.7-4.8,11.5-7.3,2.8-1.9,6-3.8,8.3-6.4-6.7,3.2-12.7,8.3-18.9,12.4a87,87,0,0,1-8.3,5c-.9.4-3.1,1.4-3.6,0-.4-1,.7-1.7,1.3-2.1-1.2.4-3.1.1-2.4-1.6a7.56,7.56,0,0,1,2.4-2.3c2.8-2.3,5.9-4.2,8.9-6.2,6.7-4.4,13.5-8.5,20.2-12.8-7.9,4-15.3,9-22.7,13.8-1.7,1.2-3.5,2.4-5.3,3.5a16,16,0,0,1-3.2,2.1c-2.6,1-1-2.4-.2-3.3-.8.2-3.1.3-2.6-1.3.2-.4.9-.7,1.2-.9,3.2-2.2,6.4-4.3,9.6-6.4,6.9-4.6,13.8-9.1,20.4-14.1-4.4,2.6-8.7,5.4-13.2,7.9-1.2.6-4,1.7-2.8-.9.8-1.9,3.9-3.5,5.5-4.6-.6.4-2.4,1.9-3.1.8-.3-.6.1-1,.5-1.5a31.41,31.41,0,0,1,4.7-4.1c1.9-1.6,3.9-3.2,5.9-4.8-1.8,1.1-3.5,2.2-5.3,3.2-.8.5-2.4,1.9-3.4,1.7-3.1-.4,2.4-4.8,3-5.3-1,.6-4.3,3.3-5.5,2-.8-.7,0-1.5.6-2.1,3.5-3.4,8-6,11.8-9.11-2.8,1.6-5.6,3.31-8.4,4.91a19.23,19.23,0,0,1-3.1,1.8c-1.2.2-1.4-.8-.9-1.6a9.26,9.26,0,0,1,2.7-2.5c-1.2.8-4.9,3.9-6.5,3.1-1.4-.8.1-2.1.8-2.7,3.8-3.6,8.3-6.61,12.3-10-2.8,1.7-5.6,3.5-8.4,5.31-.8.59-3.9,3.29-5,2.69-2-.79,1.4-3.5,2-4,2.4-2.2,5.1-4.1,7.7-6.2-2.7,1.6-5.3,3.3-7.9,4.9-1,.6-3.1,2.8-4.3,2.51-.8-.31-.6-1-.3-1.5a27.15,27.15,0,0,1,2.6-2.31c1.3-1,2.6-2.1,3.9-3.2-5.7,3.5-11.5,6.9-17.3,10.51-2.8,1.7-5.7,3.5-8.4,5.4a30.5,30.5,0,0,0-5.7,4.5c2.8-.9,5.4-2.8,7.8-4.4,2.7-1.7,5.2-3.6,7.9-5.3.8-.6,3-2.7,3.8-1.2.8,1.7-3.4,4-4.3,4.7.9-.6,3.7-3.1,4.9-2.4,1.9,1.1-1.6,3.9-2.4,4.6.7-.1,1.4.1,1.5.9s-1.4,1.8-2,2.2c-2.7,2-5.5,3.8-8.2,5.6-5.6,3.6-11.8,7.1-16.8,11.6,6.4-3.2,11.9-8.2,18-11.9,1.1-.7,2.5-1.8,3.8-2,.8-.1.9.3,1.5.5s1.2-.3,1.6.5c1,1.8-4.3,4.3-5.4,5-6.1,3.8-12.5,7.3-18.7,11-3.4,2-6.6,4.2-9.8,6.3-2.6,1.6-5.9,3-7.9,5.4a27.52,27.52,0,0,0,6.7-3.2l7.2-4.5c4.5-2.8,8.9-5.8,13.3-8.7,3.8-2.4,7.6-5.5,11.7-7.2,1.2-.5,2.9-.4,2,1.2s-3.7,3-5.2,4c.9-.3,2.4-.5,2.4.9.1,1.1-1.2,2-2,2.6a1,1,0,0,1,1.3,1.1c-.2,1-1.6,1.8-2.3,2.3-2.4,1.8-5.1,3.5-7.6,5.2-5.4,3.5-10.9,6.9-16,10.7,3.6-2,7.1-4.3,10.7-6.6,2.8-1.8,5.6-4,8.6-5.4,1.8-.8,2.6.3,1.3,1.5-2.5,2.6-5.4,4.8-8.1,7.3,1.2-.8,1.9.4,1,1.3s-3.6,3-4.9,2.7c-2.8-.9,5.1-7.3,5.9-7.9-3.1,1.9-6.2,3.9-9.3,5.9-1.5.9-3.1,1.9-4.7,2.8-.8.5-2.4,1.6-3.5,1.4-3.2-.6,2.8-4.8,3.5-5.3,2.9-2.1,5.8-4,8.8-5.9-5,3.1-9.8,6.5-15.1,9-.8.4-3.9,1.5-3-.7.7-1.5,3.5-2.7,4.8-3.5,4.9-3,10-5.9,14.9-8.8,4.5-2.7,9.5-5.3,13.3-8.8-4.2,1.7-8.2,4.3-12.1,6.6-4,2.5-8,4.9-11.9,7.4-3,1.9-6,3.9-9,5.8-.6.3-1.7,1.1-2,0s1.5-2.1,2.2-2.6a7.19,7.19,0,0,1-3.4,1.1,1.33,1.33,0,0,1-1.1-2.1c-1.6.5-4.2-.2-2.5-1.9,2.4-2.5,5.5-4.5,8.1-6.8-2.2,1.3-4.3,2.6-6.6,4-.6.4-2.8,2.1-3.3.6-.4-1.1,2-2.8,2.6-3.4,1.9-1.8,3.8-3.6,5.8-5.3-2.7,1.7-5.2,3.7-7.9,5.4-.8.5-6.1,3.7-4.9.4.4-1.2,2.2-2.3,3.1-3.1,1.2-1,2.5-2,3.8-3,2.2-1.8,4.5-3.6,6.6-5.6-3.4,1.8-6.5,4.2-9.7,6.3-.7.5-4.3,3.5-5.1,2-.3-.6.1-.9.5-1.3a25.17,25.17,0,0,1,3.9-3.3c3.1-2.6,6.1-5.2,9.1-7.8-2.7,1.6-5.3,3.4-8,5.1-1,.7-4.2,3.5-5.5,2.8-1.1-.6-.2-1.4.4-1.8,2.2-1.8,4.7-3.4,7-5.1-.8.5-5.9,3.9-6.5,1.6-.2-1.1,1.9-2.3,2.7-2.8-1,.5-3.6,2-4.3.4-.6-1.4,1.6-2.8,2.5-3.4a4.27,4.27,0,0,1-2.5.1C520.9,45.26,527.3,40.56,528.4,39.66Zm15.9-1.8c-5.8,3.3-12.3,6.5-17.5,10.9C533,46.06,538.7,41.56,544.3,37.86Zm17.5-3.2c-1.2.5-2.4,0-1.6-1.2.5-.8,1.7-1.3,2.4-1.8L566.8,29c5.8-3.8,11.7-7.6,17.5-11.6-5.6,3.5-11.2,6.9-16.9,10.1-1.1.61-5,3.61-6.4,2.9-1.9-1,1.6-2.9,2.2-3.29-5.2,3-10.4,5.9-15.5,8.9,1.1.1.7,1.1.3,1.7-1.2,1.4-3.4,2.6-4.9,3.6-4,2.9-8.1,5.7-12.1,8.6,2.2-1.3,4.4-2.7,6.5-4.1,1.5-1,3.2-2.8,4.9-3.4.6-.2,1.3-.2,1.4.7.1,1.5-3.1,3.5-4,4.2.7-.4,2.7-1.7,3.3-.5.3.6,0,.9-.3,1.3a23.45,23.45,0,0,1-3.2,3.1c-1.6,1.3-3.2,2.7-4.8,4.1,1.7-1.2,4-3.1,6.1-3.4s1.8,1.4.8,2.5c-3.1,3.7-7.6,6.4-11.2,9.5,2.4-1.6,4.7-3.3,7.1-4.9,1.1-.7,3.9-3.2,5.4-2.6,1.7.7-.2,2.2-.8,2.8-2.1,2-4.2,3.9-6.2,5.8,2.2-1.4,4.4-2.8,6.7-4.1.9-.5,2.9-1.4,2.6.5-.3,1.5-3,3.4-4.1,4.3-2.1,1.8-4.3,3.6-6.5,5.4,3-.9,5.5-2.8,8.1-4.5,3.3-2.2,6.8-4.1,10.1-6.4-.8.2-1.8,0-1.8-1s1.3-2,1.9-2.5a69.47,69.47,0,0,1,7-5.1c5-3.4,10.2-6.6,15.2-10.1-4.8,2.8-9.4,5.8-14,8.8-.9.6-2.9,2.4-4,2.4a.8.8,0,0,1-.8-1.2c.4-.9,2.2-1.6,3-2.1,2.1-1.3,4.1-2.6,6.1-3.9a103.15,103.15,0,0,0,12.7-8.9c-5.3,3.5-10.5,7.3-16.1,10.5-.9.5-5.6,3.3-5.7.8,0-1.7,4-3.5,5.1-4.3-1.3.4-2.3-.3-1.9-1.7a5.74,5.74,0,0,1,1.9-2.2c-.9.4-2.5,1.3-3.3.3-1-.9.3-2.4,1-3.1A27.46,27.46,0,0,1,561.8,34.66ZM549,20c4.6-2.8,9.1-5.6,13.5-8.7C557.9,14.05,553.5,17.05,549,20Zm3.6,4.4c7.6-4.5,15.5-8.7,23-13.5C567.5,14.35,560,19.55,552.6,24.35Zm6.6,3.21a4.24,4.24,0,0,1,.8-.5C560,27,559.2,27.45,559.2,27.56Zm1.9,18.2c3.9-2.2,7.6-4.7,11.3-7.2-3.1,2-6.2,3.9-9.2,5.9C562.5,44.86,561.8,45.36,561.1,45.76Zm16.4-27.41c1.9-1.2,3.8-2.5,5.7-3.7,1.2-.8,2.8-2.5,3.8-3C583.4,13.25,580.8,16.15,577.5,18.35ZM591,72c-2.7,1.6-5.3,3.1-7.8,4.8l.6-.3C586.3,75.06,588.6,73.56,591,72Zm6.6-23.2c2.1-1.3,4.1-2.6,6.2-3.9,1-.7,2-1.3,3-2a5.5,5.5,0,0,0,.9-.7c0,.1,1.3-.8.7-.4C604.6,43.86,601.2,46.36,597.6,48.76Zm.1,17.3a113.61,113.61,0,0,0,11.5-7.5,25.29,25.29,0,0,0-2.2,1.3C603.8,61.86,600.8,64,597.7,66.06Z"/></g></g></g></svg>