<svg xmlns="http://www.w3.org/2000/svg" viewBox="0 0 41.8 105.9"><defs><style>.cls-1{fill:#fff;}</style></defs><title>アセット 6</title><g id="レイヤー_2" data-name="レイヤー 2"><g id="レイヤー_2-2" data-name="レイヤー 2"><path class="cls-1" d="M11.25,7.8A85.57,85.57,0,0,1,8.9,17c-.5,1.55-1,3.1-1.5,4.7-.25.7-.5,1.5-.75,2.3a19.48,19.48,0,0,1-1,2.5,16.45,16.45,0,0,1-3.45-1.15c1.8-6.6,3.65-12.8,5.6-18.6A11.3,11.3,0,0,1,11.25,7.8Zm25.6-6.6a21.16,21.16,0,0,1-.25,3.15q-15.37,0-30-1.1A13.22,13.22,0,0,1,7,0Q22.1,0,36.85,1.2ZM16.25,31.6a72.42,72.42,0,0,1-4.2,6,6.53,6.53,0,0,1-3-1.85,31,31,0,0,1,4.2-6A15.66,15.66,0,0,1,16.25,31.6ZM28.8,10.35c3.7.05,7.15.1,10.4.2.15,1.35.25,4.85.25,10.45a30.91,30.91,0,0,1-.35,6.35A121.68,121.68,0,0,1,23.45,28c-3.95,0-6.75-.3-8.45-1a29.48,29.48,0,0,1-.4-5.65c0-3.4,0-6.75.05-10.1a9.51,9.51,0,0,1,1.85-.2,7.77,7.77,0,0,1,1.6.2c.1,1.95.15,3.75.25,5.35,2.6.1,5.4.25,8.45.5a7.83,7.83,0,0,1-.55,3,55.33,55.33,0,0,1-7.75-.4c0,1.8.05,3.45.05,4.95a22.09,22.09,0,0,0,4.9.3C29.9,25,34,24.9,35.7,24.8a37.08,37.08,0,0,0,.2-3.8c0-2.1,0-4.6-.1-7.5-5.2,0-9.9-.1-14.2-.4a3.7,3.7,0,0,1-.2-1.5,3.08,3.08,0,0,1,.2-1.3h3.55a25.8,25.8,0,0,1-.65-3.85A25.61,25.61,0,0,1,28,6.2C28.3,7.6,28.6,9,28.8,10.35ZM28.5,39.6a11.89,11.89,0,0,1-3.4.4,37.34,37.34,0,0,1-3.85-.2,9.13,9.13,0,0,1-.3-2.45c1.15,0,2.3-.05,3.45-.1a46.32,46.32,0,0,1-1.1-7.45,25.45,25.45,0,0,1,3.45-.25A80.66,80.66,0,0,1,28.5,39.6Zm11.6-4.05a13.08,13.08,0,0,1-2.8,1.9,22.69,22.69,0,0,1-3.7-4.85,15,15,0,0,1,2.8-1.8A31,31,0,0,1,40.1,35.55Z"/><path class="cls-1" d="M14.55,81.65c-2.15.8-4.2,1.5-6.2,2A105.36,105.36,0,0,1,10.7,97.55a9.16,9.16,0,0,1-3.1.5A111.37,111.37,0,0,1,5,84.65c-1.5.4-2.95.75-4.35,1A6.32,6.32,0,0,1,0,82.9a41.42,41.42,0,0,1,13.9-4.2A6.92,6.92,0,0,1,14.55,81.65ZM27.05,69.6c-.8,2.15-1.65,4.25-2.55,6.25,5.85.05,11.6.35,17.3.85a20.35,20.35,0,0,1-.25,3c-4.1,0-8-.1-11.95-.3,0,2.2,0,4.35.15,6.5,2.5.1,5.3.25,8.45.55a15.26,15.26,0,0,1-.3,3,61.82,61.82,0,0,1-8.1-.5c0,2.25.05,4.5.05,6.75,2.95-.2,6.1-.35,9.45-.35a10.65,10.65,0,0,1,.1,1.35v1.5a78.36,78.36,0,0,1-9.55.6c0,2.3,0,4.55,0,6.85a6.5,6.5,0,0,1-1.55.2,16.26,16.26,0,0,1-1.65-.1c-.3-3.65-.45-8.6-.45-14.9,0-5.4.05-9.25.15-11.6-1.1,0-2.2-.1-3.3-.2-1.45,3.3-3,6.5-4.55,9.6a10.78,10.78,0,0,1-3.05-1.35C18,81.1,20.75,74.9,23.85,68.7A12.24,12.24,0,0,1,27.05,69.6Z"/></g></g></svg>