<svg xmlns="http://www.w3.org/2000/svg" viewBox="0 0 97.81 95.51"><defs><style>.cls-1{fill:#fff;}</style></defs><title>アセット 2</title><g id="レイヤー_2" data-name="レイヤー 2"><g id="レイヤー_2-2" data-name="レイヤー 2"><path class="cls-1" d="M87.61,68.5v3.3A67.51,67.51,0,0,0,96,74.4c-.6,10.4-1.8,14.71-4.8,17.21-2.7,2.4-7,3-20,3-15.3,0-18.8-1.8-18.8-9.81V76.4H44.9V81H30.3c.3-3.6.5-7.2.5-10.6V49.3c-1.3.8-1.7,1.1-3.1,2.1-1-2.9-1.4-4-2.6-6.8V83.8c0,4.7.1,6.61.5,11.71H9.8a108.42,108.42,0,0,0,.6-11.6V58.5c0-.4,0-3.9.1-10.7a51.22,51.22,0,0,1-5.4,7.1A91.78,91.78,0,0,0,0,36.6C5.7,30.4,9.9,23,13.5,12.7A55.48,55.48,0,0,0,16.8,0L32.5,3.7c-.4,1.4-1.1,3.5-2,6.3,2,.2,4.8.3,7.6.3h8.2A40.81,40.81,0,0,0,49.7.3L65.9,2.2c-.5,1.3-.5,1.3-1.2,2.9-.6,1.4-1.5,3.6-2.2,5.2H82.4a118.49,118.49,0,0,0,12.41-.6V24.2a75.44,75.44,0,0,0-10.21-.5h-5c5.31,5.8,10.11,9.1,18.21,12.3a54.7,54.7,0,0,0-5.4,15.2c-2.4-1.4-2.7-1.5-4.8-2.9ZM25.1,35.7a59.49,59.49,0,0,0,13-12A80.48,80.48,0,0,0,29,24V14.6c-1.6,4.4-2.2,6.1-3.9,10.1ZM45,46.9v4.2h7.4V46.9Zm0,14.2v4.4h7.4V61.1ZM52.4,36a56.32,56.32,0,0,0-.5-7.3c-2.2,2.9-3.6,4.5-6.1,7.3ZM66,28.4c-.4,2-.4,3-.4,7.6h7.2a51.9,51.9,0,0,1-8.7-12.3H55.4c-1.3,2-1.9,2.8-3.3,4.7Zm-.4,22.7h7.7V46.9H65.6Zm0,14.4h7.7V61.1H65.6ZM80.1,76.4H65.6v2.81c0,2.19.7,2.5,7.8,2.5,4.6,0,6.6-.31,7.4-1,.6-.61.8-1.21,1.2-4.31Z"/></g></g></svg>