<svg xmlns="http://www.w3.org/2000/svg" viewBox="0 0 98.56 93.24"><defs><style>.cls-1{fill:#fff;}</style></defs><title>アセット 3</title><g id="レイヤー_2" data-name="レイヤー 2"><g id="レイヤー_2-2" data-name="レイヤー 2"><path class="cls-1" d="M82.88,65.94C79.94,79.38,77.7,87.08,76,89.32c-3.36,0-9-.84-16.52-2.8a16.75,16.75,0,0,1,1.4-6.58q5.88.84,8.4,1.26c2.38-8.26,4.9-19.46,7.56-33.74l-35.42-7L11.06,93.24A10.14,10.14,0,0,1,7.14,92a8.39,8.39,0,0,1-3.08-1.82A548.57,548.57,0,0,1,31.22,38.5L0,32.34a18.53,18.53,0,0,1,1.54-8.26C17.78,26.6,29.26,28.28,36,29.4l11.76-19a16.42,16.42,0,0,1,7.42,4.34L46.62,31.5c1,.28,9,2,23.8,5,11.2,2.24,16.8,3.64,16.94,3.92C87.08,45.08,85.68,53.62,82.88,65.94ZM80.36,14.42a16.51,16.51,0,0,1-4.62,1.12q-.84,0-1.68-3.36a15,15,0,0,1-1-4.06,28.89,28.89,0,0,1,7.56-2.8c.84.28,1.82,2.66,3.22,7.28C83.72,13,82.6,13.58,80.36,14.42ZM95.2,8.82A15,15,0,0,1,91,9.94c-.56,0-1.12-1-1.68-3.08A12.07,12.07,0,0,1,88.2,2.52,26.53,26.53,0,0,1,95.48,0q.42,0,1.68,2.94a27.53,27.53,0,0,1,1.4,4.2Q98.35,7.77,95.2,8.82Z"/></g></g></svg>