<svg xmlns="http://www.w3.org/2000/svg" viewBox="0 0 65.75 99.7"><defs><style>.cls-1{fill:#fff;}</style></defs><title>アセット 4</title><g id="レイヤー_2" data-name="レイヤー 2"><g id="レイヤー_2-2" data-name="レイヤー 2"><path class="cls-1" d="M42.05,48a16.51,16.51,0,0,0-.8-5.3q-5.4,5.1-10.9,9.8t-11.5,9.2Q12.55,66,8.6,68.15t-6,2.15a3.24,3.24,0,0,1-1.9-.5A1.47,1.47,0,0,1,0,68.45a3.8,3.8,0,0,1,1-2A12.37,12.37,0,0,1,4.15,64v.1q2-1.3,4.75-3.4t6.25-4.9q3.41-2.89,6.7-5.8c2.2-1.93,4.27-3.87,6.2-5.8s3.94-4.07,6.2-6.6,4.47-5.2,6.6-8,4-5.32,5.7-7.55a43.61,43.61,0,0,0,3.7-5.65c.27-.33.52-.67.75-1a4.52,4.52,0,0,0,.55-1,7.14,7.14,0,0,0,.75-1.15c.24-.43.45-.82.65-1.15a5.84,5.84,0,0,0,.6-1.1,4.38,4.38,0,0,0,.6-2.3c0-.73-.63-1.63-1.9-2.7s-2.1-2-2.1-3A2.45,2.45,0,0,1,51.55.8a5.66,5.66,0,0,1,2.8-.8q2.2,0,6.8,3.7t4.6,7.3a5.58,5.58,0,0,1-2.2,4.5,18.7,18.7,0,0,0-1.9,2q-1,1.2-2.1,2.7h.1q-2.59,3.8-5.8,7.9t-7.4,8.6a16.74,16.74,0,0,1,4.35,3.15,5,5,0,0,1,1.55,3.45,4.38,4.38,0,0,1-.6,2.3q-1.2,3-1.2,35.4l.2,11.7a8.91,8.91,0,0,1-1.3,5,3.77,3.77,0,0,1-3.2,2,3.94,3.94,0,0,1-2.15-.9,7.34,7.34,0,0,1-2.05-2.3,13.84,13.84,0,0,1-1.35-3.35,13.45,13.45,0,0,1-.45-3.35,21.3,21.3,0,0,1,.15-2.55c.1-.83.22-1.72.35-2.65v.1a41.07,41.07,0,0,0,.5-4.6q.21-3,.3-7.8.11-6,.25-12.1T42.05,48Z"/></g></g></svg>