<svg xmlns="http://www.w3.org/2000/svg" viewBox="0 0 87.71 90.82"><defs><style>.cls-1{fill:#fff;}</style></defs><title>アセット 5</title><g id="レイヤー_2" data-name="レイヤー 2"><g id="レイヤー_2-2" data-name="レイヤー 2"><path class="cls-1" d="M28.8,30.8A129,129,0,0,1,28,45.45,85.74,85.74,0,0,1,25.35,59,87.57,87.57,0,0,1,20.6,71.8a87.2,87.2,0,0,1-7.1,12.5q-3.4,5.1-6,6.2c-1.73.73-3.57.2-5.5-1.6a4.9,4.9,0,0,1-2-3.75C0,83.78.87,82,2.6,79.7A70.85,70.85,0,0,0,13.25,57.5,97.38,97.38,0,0,0,17,30V8.2q0-3.9,1.85-5.4A6.42,6.42,0,0,1,23,1.3a5.75,5.75,0,0,1,4.25,1.55c1,1,1.55,2.82,1.55,5.35ZM56.5,71.9c0,1.4.18,2.17.55,2.3s1.05-.17,2.05-.9q3.4-2.6,7.8-6.45t8.9-8c2.2-2.13,4.1-3.17,5.7-3.1a6.16,6.16,0,0,1,4.1,1.7,6,6,0,0,1,2.1,4,5.84,5.84,0,0,1-1.6,4.1,43.85,43.85,0,0,1-3.8,4q-2.4,2.25-5,4.5c-1.73,1.5-3.42,2.92-5,4.25l-4,3.3a66,66,0,0,1-9.3,6.4,14.16,14.16,0,0,1-6.5,1.9q-7.8,0-7.8-11.2V6.9q0-3.6,1.4-5.25C46.93.55,48.47,0,50.6,0s3.65.55,4.55,1.65S56.5,4.47,56.5,6.8Z"/></g></g></svg>