<svg xmlns="http://www.w3.org/2000/svg" xmlns:xlink="http://www.w3.org/1999/xlink" viewBox="0 0 383.28 181.62"><defs><style>.cls-1{fill:none;}.cls-2{fill:#d5e2db;}.cls-3{clip-path:url(#clip-path);}.cls-4{opacity:0.25;}.cls-5{clip-path:url(#clip-path-2);}.cls-6,.cls-7{fill:#fff;}.cls-7{font-size:35px;font-family:ZakkuriGothic-BLK-83pv-RKSJ-H, ZakkuriGothic;}</style><clipPath id="clip-path" transform="translate(-41.58 -33.26)"><polygon class="cls-1" points="424.87 168.73 41.58 214.87 41.58 79.39 424.87 33.26 424.87 168.73"/></clipPath><clipPath id="clip-path-2" transform="translate(-41.58 -33.26)"><rect class="cls-1" x="38.02" y="38.02" width="211.97" height="211.97" transform="translate(-51.66 87.53) rotate(-28.9)"/></clipPath></defs><title>アセット 3</title><g id="レイヤー_2" data-name="レイヤー 2"><g id="レイヤー_1-2" data-name="レイヤー 1"><polygon class="cls-2" points="383.28 135.48 0 181.62 0 46.14 383.28 0 383.28 135.48"/><g class="cls-3"><g class="cls-4"><g class="cls-5"><g class="cls-5"><path class="cls-6" d="M187.93,136.36A44.08,44.08,0,0,0,181,132.1l-3.58-1.75L174.48,129a48.28,48.28,0,0,0-6.38-2.35l-.59-.17a43.39,43.39,0,0,0-5-1.14,56,56,0,0,0-5.79-.63l-.79,0-2.86,0c-1.3,0-2.6,0-3.9.14a29.43,29.43,0,0,0-4.37.69,25.22,25.22,0,0,0-5.76,2.12,17.89,17.89,0,0,0-2.33,1.42,36.43,36.43,0,0,0-4.73,4c-.9.92-1.77,1.88-2.58,2.88l-1.1,1.34c-.83,1-1.63,2.08-2.4,3.16a53,53,0,0,0-4.07,6.85l-.39.79c-.4.8-.77,1.61-1.1,2.44l-.69,1.7a38.89,38.89,0,0,0-1.42,4.23l-.26.94q-.69,2.54-1.17,5.12l-.57,3.09a56.26,56.26,0,0,0-.61,8.2v1.28l.13,3.9c.06,1.81.2,3.62.44,5.42l0,.18c.15,1.16.34,2.3.56,3.44a9.68,9.68,0,0,0,.83,2.41l1,2,.63,1.14a44.17,44.17,0,0,0,2.51,4,23.26,23.26,0,0,0,3.71,3.44q.5.38,1,.72a36.86,36.86,0,0,0,4.83,2.71,7.92,7.92,0,0,0,1.48.53,33.48,33.48,0,0,0,4.09.77,26.43,26.43,0,0,0,2.95.22,47.1,47.1,0,0,0,4.9-.17h.06c1.76-.16,3.52-.36,5.26-.62h0c1.48-.23,2.95-.52,4.4-.88l2.3-.58,2-.58c1.77-.52,3.51-1.13,5.22-1.81l1.32-.53q2.11-.85,4.19-1.83l3.51-1.66,2.4-1.19q2.77-1.36,5.45-3l1.94-1.16c1.44-.85,2.84-1.75,4.22-2.69a78.46,78.46,0,0,0,6.87-5.3c1.32-1.14,2.59-2.35,3.81-3.6a36.57,36.57,0,0,0,3.47-4.19c.58-.81,1.12-1.65,1.62-2.51a23,23,0,0,0,2.11-4.76,20.57,20.57,0,0,0,.71-3l.17-1.06c.13-.79.23-1.59.3-2.39a26.77,26.77,0,0,0-.35-7,8.37,8.37,0,0,0-.32-1.19,22.34,22.34,0,0,0-3.12-5.89A18.35,18.35,0,0,0,200,146l-1.91-1.84c-.9-.86-1.84-1.68-2.81-2.46l-1.66-1.32c-.95-.76-1.94-1.48-2.95-2.16Z" transform="translate(-41.58 -33.26)"/><path class="cls-6" d="M116.21,102.85a23.76,23.76,0,1,1-32.28-9.31,23.77,23.77,0,0,1,32.28,9.31" transform="translate(-41.58 -33.26)"/><path class="cls-6" d="M171.93,68.87a23.76,23.76,0,1,1-32.28-9.32,23.76,23.76,0,0,1,32.28,9.32" transform="translate(-41.58 -33.26)"/><path class="cls-6" d="M230.64,96a23.76,23.76,0,1,1-32.28-9.32A23.76,23.76,0,0,1,230.64,96" transform="translate(-41.58 -33.26)"/><path class="cls-6" d="M98.36,167.92a23.76,23.76,0,1,1-32.28-9.32,23.76,23.76,0,0,1,32.28,9.32" transform="translate(-41.58 -33.26)"/></g></g></g></g><text class="cls-7" transform="translate(51.52 125.07) rotate(-6.93)">Twitterでシェア</text></g></g></svg>